<?xml version="1.0" encoding="UTF-8" standalone="no"?>
<!-- Created with Inkscape (http://www.inkscape.org/) -->

<svg
   width="210mm"
   height="297mm"
   viewBox="0 0 210 297"
   version="1.1"
   id="svg5"
   inkscape:version="1.2.2 (b0a8486541, 2022-12-01)"
   sodipodi:docname="close_together.svg"
   xmlns:inkscape="http://www.inkscape.org/namespaces/inkscape"
   xmlns:sodipodi="http://sodipodi.sourceforge.net/DTD/sodipodi-0.dtd"
   xmlns="http://www.w3.org/2000/svg"
   xmlns:svg="http://www.w3.org/2000/svg">
  <sodipodi:namedview
     id="namedview7"
     pagecolor="#ffffff"
     bordercolor="#000000"
     borderopacity="0.25"
     inkscape:showpageshadow="2"
     inkscape:pageopacity="0.0"
     inkscape:pagecheckerboard="0"
     inkscape:deskcolor="#d1d1d1"
     inkscape:document-units="mm"
     showgrid="false"
     showguides="true"
     inkscape:zoom="1.9528717"
     inkscape:cx="391.7308"
     inkscape:cy="315.43291"
     inkscape:window-width="1888"
     inkscape:window-height="1008"
     inkscape:window-x="13"
     inkscape:window-y="53"
     inkscape:window-maximized="1"
     inkscape:current-layer="layer1" />
  <defs
     id="defs2">
    <clipPath
       id="clipPath4877">
      <path
         clip-rule="nonzero"
         d="M 0,0 H 11 V 12.914062 H 0 Z m 0,0"
         id="path5236" />
    </clipPath>
    <clipPath
       id="clipPath4861">
      <path
         clip-rule="nonzero"
         d="M 18,0 H 28 V 12.914062 H 18 Z m 0,0"
         id="path288" />
    </clipPath>
  </defs>
  <g
     inkscape:label="Layer 1"
     inkscape:groupmode="layer"
     id="layer1">
    <path
       style="fill:none;fill-opacity:1;stroke:#000000;stroke-width:0.499999;stroke-opacity:1"
       d="m 39.312413,105.50652 c 0,0 14.15426,-28.644143 27.841839,-30.996478 17.663871,-3.035697 29.464222,28.128998 47.223118,25.710448 13.45509,-1.832424 29.26656,-28.338009 29.26656,-28.338009"
       id="path1466"
       sodipodi:nodetypes="cssc" />
    <path
       style="fill:none;fill-opacity:1;stroke:#000000;stroke-width:0.499999;stroke-opacity:1"
       d="m 39.312413,105.50652 c 0,0 9.128097,5.30224 13.605616,3.83467 14.751743,-4.83509 13.153747,-35.792639 28.650154,-36.716439 18.157653,-1.082447 20.387167,40.926519 38.443807,38.728829 15.22258,-1.85276 23.63194,-39.471099 23.63194,-39.471099"
       id="path1479"
       sodipodi:nodetypes="csssc" />
    <circle
       style="fill:#000000;fill-opacity:1;stroke:none;stroke-width:0.327136;stroke-opacity:1"
       id="path1494"
       cx="39.312412"
       cy="105.50652"
       r="1.5" />
    <circle
       style="fill:#000000;fill-opacity:1;stroke:none;stroke-width:0.327136;stroke-opacity:1"
       id="path1494-0"
       cx="143.64394"
       cy="71.882484"
       r="1.5" />
    <circle
       style="fill:#000000;fill-opacity:1;stroke:none;stroke-width:0.327136;stroke-opacity:1"
       id="path1494-2"
       cx="139.7258"
       cy="85.196701"
       r="1.5" />
    <circle
       style="fill:#000000;fill-opacity:1;stroke:none;stroke-width:0.327136;stroke-opacity:1"
       id="path1494-3"
       cx="137.0537"
       cy="92.063873"
       r="1.5" />
    <circle
       style="fill:#000000;fill-opacity:1;stroke:none;stroke-width:0.327136;stroke-opacity:1"
       id="path1494-7"
       cx="120.01199"
       cy="111.35358"
       r="1.5" />
    <circle
       style="fill:#000000;fill-opacity:1;stroke:none;stroke-width:0.327136;stroke-opacity:1"
       id="path1494-97"
       cx="127.89515"
       cy="106.97298"
       r="1.5" />
    <circle
       style="fill:#000000;fill-opacity:1;stroke:none;stroke-width:0.327136;stroke-opacity:1"
       id="path1494-36"
       cx="124.91041"
       cy="94.786987"
       r="1.5" />
    <circle
       style="fill:#000000;fill-opacity:1;stroke:none;stroke-width:0.327136;stroke-opacity:1"
       id="path1494-1"
       cx="130.05266"
       cy="89.922607"
       r="1.5" />
    <circle
       style="fill:#000000;fill-opacity:1;stroke:none;stroke-width:0.327136;stroke-opacity:1"
       id="path1494-29"
       cx="135.8712"
       cy="83.093811"
       r="1.5" />
    <circle
       style="fill:#000000;fill-opacity:1;stroke:none;stroke-width:0.327136;stroke-opacity:1"
       id="path1494-31"
       cx="94.701653"
       cy="90.910316"
       r="1.5" />
    <circle
       style="fill:#000000;fill-opacity:1;stroke:none;stroke-width:0.327136;stroke-opacity:1"
       id="path1494-94"
       cx="86.498474"
       cy="83.132057"
       r="1.5" />
    <circle
       style="fill:#000000;fill-opacity:1;stroke:none;stroke-width:0.327136;stroke-opacity:1"
       id="path1494-78"
       cx="71.934029"
       cy="79.082581"
       r="1.5" />
    <circle
       style="fill:#000000;fill-opacity:1;stroke:none;stroke-width:0.327136;stroke-opacity:1"
       id="path1494-4"
       cx="66.416351"
       cy="90.88945"
       r="1.5" />
    <circle
       style="fill:#000000;fill-opacity:1;stroke:none;stroke-width:0.327136;stroke-opacity:1"
       id="path1494-50"
       cx="52.91803"
       cy="109.34119"
       r="1.5" />
    <circle
       style="fill:#000000;fill-opacity:1;stroke:none;stroke-width:0.327136;stroke-opacity:1"
       id="path1494-361"
       cx="50.410286"
       cy="87.748596"
       r="1.5" />
    <circle
       style="fill:#000000;fill-opacity:1;stroke:none;stroke-width:0.327136;stroke-opacity:1"
       id="path1494-5"
       cx="103.78181"
       cy="97.881081"
       r="1.5" />
    <circle
       style="fill:#000000;fill-opacity:1;stroke:none;stroke-width:0.327136;stroke-opacity:1"
       id="path1494-9"
       cx="81.568184"
       cy="72.624748"
       r="1.5" />
    <circle
       style="fill:#000000;fill-opacity:1;stroke:none;stroke-width:0.327136;stroke-opacity:1"
       id="path1494-22"
       cx="67.154251"
       cy="74.51004"
       r="1.5" />
    <circle
       style="fill:#000000;fill-opacity:1;stroke:none;stroke-width:0.327136;stroke-opacity:1"
       id="path1494-8"
       cx="114.37737"
       cy="100.22049"
       r="1.5" />
    <circle
       style="fill:none;fill-opacity:1;stroke:#000000;stroke-width:0.5;stroke-opacity:1;stroke-dasharray:none"
       id="path1761-0"
       cx="82.36322"
       cy="84.702095"
       r="19.44623" />
    <circle
       style="fill:none;fill-opacity:1;stroke:#000000;stroke-width:0.5;stroke-dasharray:none;stroke-opacity:1"
       id="path1761-0-2"
       cx="48.958023"
       cy="95.706268"
       r="19.44623" />
    <circle
       style="fill:none;fill-opacity:1;stroke:#000000;stroke-width:0.5;stroke-dasharray:none;stroke-opacity:1"
       id="path1761-0-0"
       cx="114.67497"
       cy="104.29004"
       r="19.44623" />
    <circle
       style="fill:none;fill-opacity:1;stroke:#000000;stroke-width:0.5;stroke-dasharray:none;stroke-opacity:1"
       id="path1761-0-6"
       cx="140.34058"
       cy="85.865181"
       r="19.44623" />
    <g
       clip-path="url(#clipPath4877)"
       id="g23"
       transform="matrix(0.352778,0,0,0.352778,91.374156,71.754405)">
      <g
         fill="#000000"
         fill-opacity="1"
         id="g21">
        <g
           id="use19"
           transform="translate(0,8.8959999)">
          <path
             d="M 7.8125,-2.515625 C 7.765625,-3.53125 7.71875,-5.125 6.9375,-6.984375 c -0.40625,-1.03125 -1.109375,-2.125 -2.625,-2.125 -2.53125,0 -3.921875,3.25 -3.921875,3.78125 0,0.1875 0.140625,0.1875 0.203125,0.1875 0.1875,0 0.1875,-0.046875 0.296875,-0.3125 0.4375,-1.28125 1.75,-2.296875 3.171875,-2.296875 2.875,0 3.296875,3.203125 3.296875,5.25 0,1.296875 -0.15625,1.734375 -0.28125,2.15625 -0.390625,1.265625 -1.0625,3.828125 -1.0625,4.40625 0,0.171875 0.0625,0.359375 0.21875,0.359375 0.3125,0 0.5,-0.6875 0.734375,-1.515625 0.484375,-1.8125 0.609375,-2.71875 0.71875,-3.546875 0.0625,-0.5 1.234375,-3.90625 2.875,-7.140625 0.140625,-0.34375 0.421875,-0.890625 0.421875,-0.953125 0,-0.03125 -0.01563,-0.171875 -0.203125,-0.171875 -0.04687,0 -0.140625,0 -0.1875,0.09375 -0.03125,0.03125 -0.765625,1.4375 -1.375,2.84375 -0.3125,0.703125 -0.734375,1.625 -1.40625,3.453125 z m 0,0"
             id="path35" />
        </g>
      </g>
    </g>
    <g
       clip-path="url(#clipPath4861)"
       id="g29"
       transform="matrix(0.352778,0,0,0.352778,102.59982,111.68638)">
      <g
         fill="#000000"
         fill-opacity="1"
         id="g27">
        <g
           id="use25"
           transform="translate(17.850334,8.8959999)">
          <path
             d="M 9.8125,-5.71875 C 9.921875,-6.140625 9.984375,-6.375 9.984375,-6.9375 c 0,-1.25 -0.734375,-2.171875 -2.296875,-2.171875 -1.84375,0 -2.8125,1.296875 -3.1875,1.8125 -0.0625,-1.171875 -0.90625,-1.8125 -1.8125,-1.8125 -0.59375,0 -1.078125,0.296875 -1.46875,1.078125 -0.375,0.734375 -0.65625,2 -0.65625,2.078125 0,0.09375 0.078125,0.1875 0.21875,0.1875 0.171875,0 0.1875,-0.015625 0.3125,-0.5 0.3125,-1.21875 0.703125,-2.4375 1.53125,-2.4375 0.46875,0 0.640625,0.34375 0.640625,0.953125 0,0.453125 -0.203125,1.265625 -0.359375,1.90625 l -0.578125,2.234375 c -0.078125,0.390625 -0.296875,1.3125 -0.40625,1.6875 -0.140625,0.53125 -0.375,1.515625 -0.375,1.609375 0,0.296875 0.234375,0.515625 0.546875,0.515625 0.234375,0 0.53125,-0.125 0.6875,-0.4375 0.046875,-0.09375 0.234375,-0.8125 0.34375,-1.234375 L 3.578125,-3.328125 4.25,-6.046875 C 4.296875,-6.171875 4.8125,-7.203125 5.578125,-7.875 6.109375,-8.359375 6.8125,-8.703125 7.625,-8.703125 c 0.828125,0 1.109375,0.625 1.109375,1.453125 0,0.59375 -0.078125,0.921875 -0.1875,1.328125 l -2.390625,9.5 c -0.015625,0.09375 -0.0625,0.21875 -0.0625,0.34375 0,0.3125 0.25,0.515625 0.5625,0.515625 0.1875,0 0.609375,-0.078125 0.78125,-0.703125 z m 0,0"
             id="path39" />
        </g>
      </g>
    </g>
  </g>
</svg>
