<?xml version="1.0" encoding="UTF-8" standalone="no"?>
<!-- Created with Inkscape (http://www.inkscape.org/) -->

<svg
   width="210mm"
   height="297mm"
   viewBox="0 0 210 297"
   version="1.1"
   id="svg5"
   sodipodi:docname="homotopic_circles.svg"
   inkscape:version="1.2.2 (b0a8486541, 2022-12-01)"
   xmlns:inkscape="http://www.inkscape.org/namespaces/inkscape"
   xmlns:sodipodi="http://sodipodi.sourceforge.net/DTD/sodipodi-0.dtd"
   xmlns="http://www.w3.org/2000/svg"
   xmlns:svg="http://www.w3.org/2000/svg">
  <sodipodi:namedview
     id="namedview7"
     pagecolor="#ffffff"
     bordercolor="#000000"
     borderopacity="0.25"
     inkscape:showpageshadow="2"
     inkscape:pageopacity="0.0"
     inkscape:pagecheckerboard="0"
     inkscape:deskcolor="#d1d1d1"
     inkscape:document-units="mm"
     showgrid="false"
     showguides="true"
     inkscape:zoom="1.43"
     inkscape:cx="409.09091"
     inkscape:cy="418.88112"
     inkscape:window-width="1888"
     inkscape:window-height="1008"
     inkscape:window-x="13"
     inkscape:window-y="53"
     inkscape:window-maximized="1"
     inkscape:current-layer="g2895" />
  <defs
     id="defs2">
    <clipPath
       id="clipPath9975">
      <path
         clip-rule="nonzero"
         d="m 13,0 h 5 v 20.628906 h -5 z m 0,0"
         id="path262" />
    </clipPath>
    <clipPath
       id="clipPath1842">
      <path
         clip-rule="nonzero"
         d="m 30,0 h 5 v 20.628906 h -5 z m 0,0"
         id="path8770" />
    </clipPath>
    <clipPath
       id="clipPath7804">
      <path
         clip-rule="nonzero"
         d="m 56,0 h 6 v 20.628906 h -6 z m 0,0"
         id="path8132" />
    </clipPath>
    <clipPath
       id="clipPath1053">
      <path
         clip-rule="nonzero"
         d="m 71,0 h 6 v 20.628906 h -6 z m 0,0"
         id="path7844" />
    </clipPath>
    <clipPath
       id="clipPath1411">
      <path
         clip-rule="nonzero"
         d="m 99,0 h 6 v 20.628906 h -6 z m 0,0"
         id="path937" />
    </clipPath>
    <clipPath
       id="clipPath5231">
      <path
         clip-rule="nonzero"
         d="m 131,0 h 5 v 20.628906 h -5 z m 0,0"
         id="path9041" />
    </clipPath>
    <clipPath
       id="clipPath9831">
      <path
         clip-rule="nonzero"
         d="m 177,0 h 6 v 20.628906 h -6 z m 0,0"
         id="path7649" />
    </clipPath>
    <clipPath
       id="clipPath6613">
      <path
         clip-rule="nonzero"
         d="m 191,0 h 5 v 20.628906 h -5 z m 0,0"
         id="path8037" />
    </clipPath>
    <clipPath
       id="clipPath6508">
      <path
         clip-rule="nonzero"
         d="m 219,0 h 6 v 20.628906 h -6 z m 0,0"
         id="path3756" />
    </clipPath>
    <clipPath
       id="clipPath5480">
      <path
         clip-rule="nonzero"
         d="m 253,0 h 5 v 20.628906 h -5 z m 0,0"
         id="path6860" />
    </clipPath>
    <clipPath
       id="clipPath9987">
      <path
         clip-rule="nonzero"
         d="m 298,0 h 5 v 20.628906 h -5 z m 0,0"
         id="path1427" />
    </clipPath>
    <clipPath
       id="clipPath2455">
      <path
         clip-rule="nonzero"
         d="m 312,0 h 5 v 20.628906 h -5 z m 0,0"
         id="path3918" />
    </clipPath>
    <clipPath
       id="clipPath8807">
      <path
         clip-rule="nonzero"
         d="m 15,0 h 6 v 20.628906 h -6 z m 0,0"
         id="path3667" />
    </clipPath>
    <clipPath
       id="clipPath5109">
      <path
         clip-rule="nonzero"
         d="m 48,0 h 5 v 20.628906 h -5 z m 0,0"
         id="path7156" />
    </clipPath>
    <clipPath
       id="clipPath2627">
      <path
         clip-rule="nonzero"
         d="m 75,1 h 5 v 20.890625 h -5 z m 0,0"
         id="path5858" />
    </clipPath>
    <clipPath
       id="clipPath5658">
      <path
         clip-rule="nonzero"
         d="m 106,1 h 6 v 20.890625 h -6 z m 0,0"
         id="path8433" />
    </clipPath>
    <clipPath
       id="clipPath3261">
      <path
         clip-rule="nonzero"
         d="m 182,1 h 6 v 20.890625 h -6 z m 0,0"
         id="path2317" />
    </clipPath>
    <clipPath
       id="clipPath9571">
      <path
         clip-rule="nonzero"
         d="m 215,1 h 6 v 20.890625 h -6 z m 0,0"
         id="path6244" />
    </clipPath>
    <clipPath
       id="clipPath1848">
      <path
         clip-rule="nonzero"
         d="m 296,1 h 5 v 20.890625 h -5 z m 0,0"
         id="path2265" />
    </clipPath>
    <clipPath
       id="clipPath6362">
      <path
         clip-rule="nonzero"
         d="m 328,1 h 6 v 20.890625 h -6 z m 0,0"
         id="path4816" />
    </clipPath>
  </defs>
  <g
     inkscape:label="Layer 1"
     inkscape:groupmode="layer"
     id="layer1">
    <circle
       style="fill:none;fill-opacity:1;stroke:#000000;stroke-width:0.5;stroke-opacity:1;stroke-dasharray:none"
       id="path2371"
       cx="103.01237"
       cy="101.60386"
       r="49.428238" />
    <circle
       style="fill:none;fill-opacity:1;stroke:#000000;stroke-width:0.5;stroke-dasharray:none;stroke-opacity:1"
       id="path2371-7"
       cx="103.01237"
       cy="101.60386"
       r="41.143497" />
    <circle
       style="fill:none;fill-opacity:1;stroke:#000000;stroke-width:0.5;stroke-dasharray:none;stroke-opacity:1"
       id="path2371-7-5"
       cx="103.01237"
       cy="101.60386"
       r="31.277212" />
    <circle
       style="fill:none;fill-opacity:1;stroke:#000000;stroke-width:0.5;stroke-dasharray:none;stroke-opacity:1"
       id="path2371-7-5-5"
       cx="103.01237"
       cy="101.60386"
       r="20.35751" />
    <g
       id="g3004"
       transform="translate(5.7961607,-54.645031)">
      <g
         fill="#000000"
         fill-opacity="1"
         id="g85"
         transform="matrix(0.352778,0,0,0.352778,58.605623,159.15869)">
        <g
           id="use83"
           transform="translate(59.425999,16.743999)">
          <path
             d="m 9.703125,-13.84375 c 0,-0.01563 0.09375,-0.28125 0.09375,-0.3125 0,-0.171875 -0.171875,-0.171875 -0.234375,-0.171875 -0.1875,0 -0.203125,0.09375 -0.28125,0.40625 L 5.859375,-0.25 c -1.703125,-0.203125 -2.34375,-1.078125 -2.34375,-2.3125 0,-0.453125 0,-0.921875 0.96875,-3.484375 0.265625,-0.75 0.375,-1.015625 0.375,-1.390625 0,-0.921875 -0.671875,-1.671875 -1.640625,-1.671875 -1.890625,0 -2.65625,3 -2.65625,3.15625 0,0.09375 0.078125,0.1875 0.21875,0.1875 0.1875,0 0.203125,-0.078125 0.296875,-0.375 0.484375,-1.796875 1.3125,-2.5625 2.078125,-2.5625 0.1875,0 0.546875,0.03125 0.546875,0.6875 0,0.078125 0,0.53125 -0.359375,1.453125 -1.109375,2.921875 -1.109375,3.375 -1.109375,3.859375 0,1.984375 1.65625,2.75 3.515625,2.890625 C 5.578125,0.828125 5.4375,1.484375 5.265625,2.125 4.9375,3.359375 4.796875,3.953125 4.796875,4.03125 c 0,0.1875 0.15625,0.1875 0.21875,0.1875 0.046875,0 0.125,0 0.171875,-0.09375 0.078125,-0.078125 0.921875,-3.546875 1.015625,-3.921875 0.765625,0 2.390625,0 4.25,-1.921875 0.6875,-0.734375 1.296875,-1.6875 1.65625,-2.578125 0.203125,-0.53125 0.703125,-2.375 0.703125,-3.421875 0,-1.25 -0.625,-1.390625 -0.828125,-1.390625 -0.5,0 -0.953125,0.5 -0.953125,0.90625 0,0.25 0.140625,0.390625 0.21875,0.484375 0.1875,0.171875 0.75,0.734375 0.75,1.8125 0,0.734375 -0.40625,2.265625 -1.734375,3.765625 -1.734375,1.9375 -3.328125,1.9375 -3.9375,1.9375 z m 0,0"
             id="path205" />
        </g>
      </g>
      <g
         clip-path="url(#clipPath2627)"
         id="g91"
         transform="matrix(0.352778,0,0,0.352778,58.605623,159.15869)">
        <g
           fill="#000000"
           fill-opacity="1"
           id="g89">
          <g
             id="use87"
             transform="translate(73.320999,16.743999)">
            <path
               d="m 6.328125,5.046875 c 0,-0.03125 0,-0.0625 -0.0625,-0.125 -0.953125,-0.96875 -3.5,-3.625 -3.5,-10.0625 0,-6.453125 2.5,-9.078125 3.515625,-10.109375 0,-0.01563 0.046875,-0.0625 0.046875,-0.125 0,-0.0625 -0.0625,-0.09375 -0.15625,-0.09375 -0.21875,0 -1.984375,1.53125 -2.984375,3.796875 -1.046875,2.296875 -1.328125,4.53125 -1.328125,6.5 0,1.5 0.140625,4.015625 1.390625,6.6875 0.984375,2.140625 2.671875,3.65625 2.921875,3.65625 0.109375,0 0.15625,-0.046875 0.15625,-0.125 z m 0,0"
               id="path209" />
          </g>
        </g>
      </g>
      <g
         fill="#000000"
         fill-opacity="1"
         id="g97"
         transform="matrix(0.352778,0,0,0.352778,58.605623,159.15869)">
        <g
           id="use93"
           transform="translate(80.638,16.743999)">
          <path
             d="m 4.15625,-8.296875 h 1.890625 c 0.390625,0 0.609375,0 0.609375,-0.375 0,-0.234375 -0.125,-0.234375 -0.546875,-0.234375 h -1.8125 L 5.0625,-11.921875 c 0.078125,-0.28125 0.078125,-0.328125 0.078125,-0.46875 0,-0.328125 -0.265625,-0.515625 -0.53125,-0.515625 -0.171875,0 -0.640625,0.0625 -0.8125,0.71875 L 3,-8.90625 H 1.046875 c -0.40625,0 -0.59375,0 -0.59375,0.390625 0,0.21875 0.140625,0.21875 0.53125,0.21875 h 1.84375 L 1.46875,-2.84375 c -0.171875,0.71875 -0.234375,0.921875 -0.234375,1.1875 0,0.96875 0.6875,1.859375 1.84375,1.859375 2.09375,0 3.203125,-3.015625 3.203125,-3.15625 0,-0.125 -0.078125,-0.1875 -0.203125,-0.1875 -0.046875,0 -0.125,0 -0.171875,0.078125 -0.015625,0.03125 -0.046875,0.046875 -0.1875,0.375 -0.4375,1.03125 -1.375,2.484375 -2.578125,2.484375 -0.625,0 -0.65625,-0.515625 -0.65625,-0.96875 0,-0.03125 0,-0.421875 0.0625,-0.671875 z m 0,0"
             id="path213" />
        </g>
        <g
           id="use95"
           transform="translate(87.94426,16.743999)">
          <path
             d="M 4.03125,0.078125 C 4.03125,-1.109375 3.640625,-2 2.78125,-2 2.125,-2 1.796875,-1.46875 1.796875,-1.015625 1.796875,-0.5625 2.109375,0 2.8125,0 3.078125,0 3.3125,-0.078125 3.484375,-0.265625 3.53125,-0.3125 3.546875,-0.3125 3.578125,-0.3125 c 0.03125,0 0.03125,0.296875 0.03125,0.390625 0,0.6875 -0.125,2.03125 -1.3125,3.375 C 2.0625,3.703125 2.0625,3.734375 2.0625,3.78125 c 0,0.109375 0.109375,0.203125 0.203125,0.203125 0.171875,0 1.765625,-1.53125 1.765625,-3.90625 z m 0,0"
             id="path217" />
        </g>
      </g>
      <g
         fill="#000000"
         fill-opacity="1"
         id="g101"
         transform="matrix(0.352778,0,0,0.352778,58.605623,159.15869)">
        <g
           id="use99"
           transform="translate(97.015099,16.743999)">
          <path
             d="m 8.078125,-7.765625 c -0.390625,0 -0.578125,0 -0.875,0.25 -0.125,0.09375 -0.34375,0.40625 -0.34375,0.734375 0,0.421875 0.3125,0.671875 0.703125,0.671875 0.5,0 1.046875,-0.421875 1.046875,-1.25 0,-0.984375 -0.953125,-1.75 -2.375,-1.75 -2.703125,0 -5.40625,2.953125 -5.40625,5.890625 0,1.796875 1.109375,3.421875 3.21875,3.421875 2.8125,0 4.59375,-2.1875 4.59375,-2.453125 0,-0.125 -0.125,-0.234375 -0.21875,-0.234375 -0.0625,0 -0.078125,0.03125 -0.265625,0.21875 -1.3125,1.75 -3.28125,2.0625 -4.0625,2.0625 -1.421875,0 -1.890625,-1.25 -1.890625,-2.28125 0,-0.71875 0.359375,-2.71875 1.109375,-4.125 0.53125,-0.96875 1.640625,-2.09375 2.953125,-2.09375 0.265625,0 1.390625,0.046875 1.8125,0.9375 z m 0,0"
             id="path221" />
        </g>
      </g>
      <g
         clip-path="url(#clipPath5658)"
         id="g107"
         transform="matrix(0.352778,0,0,0.352778,58.605623,159.15869)">
        <g
           fill="#000000"
           fill-opacity="1"
           id="g105">
          <g
             id="use103"
             transform="translate(105.715,16.743999)">
            <path
               d="m 5.4375,-5.140625 c 0,-1.484375 -0.15625,-4.015625 -1.390625,-6.671875 -0.984375,-2.15625 -2.6875,-3.65625 -2.9375,-3.65625 -0.0625,0 -0.140625,0.01563 -0.140625,0.125 0,0.03125 0.015625,0.0625 0.046875,0.09375 C 2,-14.21875 4.53125,-11.59375 4.53125,-5.171875 4.53125,1.28125 2.03125,3.90625 1.015625,4.9375 0.984375,4.984375 0.96875,5 0.96875,5.046875 c 0,0.09375 0.078125,0.125 0.140625,0.125 0.234375,0 1.984375,-1.53125 3,-3.8125 1.03125,-2.28125 1.328125,-4.515625 1.328125,-6.5 z m 0,0"
               id="path225" />
          </g>
        </g>
      </g>
      <g
         fill="#000000"
         fill-opacity="1"
         id="g111"
         transform="matrix(0.352778,0,0,0.352778,58.605623,159.15869)">
        <g
           id="use109"
           transform="translate(118.77576,16.743999)">
          <path
             d="m 13.28125,-6.625 c 0.3125,0 0.625,0 0.625,-0.359375 0,-0.375 -0.359375,-0.375 -0.703125,-0.375 H 1.65625 c -0.359375,0 -0.703125,0 -0.703125,0.375 0,0.359375 0.3125,0.359375 0.609375,0.359375 z m -0.07813,3.671875 c 0.34375,0 0.703125,0 0.703125,-0.375 0,-0.34375 -0.3125,-0.34375 -0.625,-0.34375 H 1.5625 c -0.296875,0 -0.609375,0 -0.609375,0.34375 0,0.375 0.34375,0.375 0.703125,0.375 z m 0,0"
             id="path229" />
        </g>
      </g>
      <g
         fill="#000000"
         fill-opacity="1"
         id="g115"
         transform="matrix(0.352778,0,0,0.352778,58.605623,159.15869)">
        <g
           id="use113"
           transform="translate(139.38499,16.743999)">
          <path
             d="m 13.109375,-14.359375 c 0,-0.1875 -0.140625,-0.1875 -0.171875,-0.1875 -0.09375,0 -0.109375,0.03125 -0.359375,0.328125 -0.125,0.15625 -0.96875,1.21875 -0.984375,1.25 -0.6875,-1.34375 -2.046875,-1.578125 -2.921875,-1.578125 -2.625,0 -5,2.40625 -5,4.734375 0,1.546875 0.9375,2.453125 1.953125,2.8125 0.21875,0.078125 1.4375,0.40625 2.0625,0.5625 1.046875,0.28125 1.3125,0.359375 1.75,0.8125 0.078125,0.109375 0.5,0.578125 0.5,1.5625 0,1.921875 -1.78125,3.890625 -3.84375,3.890625 -1.6875,0 -3.578125,-0.71875 -3.578125,-3.03125 0,-0.390625 0.09375,-0.890625 0.15625,-1.09375 0,-0.0625 0.015625,-0.171875 0.015625,-0.203125 0,-0.078125 -0.046875,-0.1875 -0.203125,-0.1875 -0.1875,0 -0.21875,0.046875 -0.296875,0.390625 L 1.140625,-0.0625 c 0,0.015625 -0.09375,0.296875 -0.09375,0.3125 0,0.1875 0.171875,0.1875 0.21875,0.1875 0.078125,0 0.09375,-0.03125 0.34375,-0.328125 l 0.953125,-1.25 c 0.5,0.75 1.5625,1.578125 3.484375,1.578125 2.671875,0 5.109375,-2.578125 5.109375,-5.171875 0,-0.859375 -0.203125,-1.625 -1,-2.390625 -0.421875,-0.4375 -0.796875,-0.53125 -2.703125,-1.03125 -1.375,-0.375 -1.5625,-0.4375 -1.9375,-0.765625 -0.34375,-0.359375 -0.625,-0.84375 -0.625,-1.546875 0,-1.734375 1.765625,-3.515625 3.71875,-3.515625 2.03125,0 2.984375,1.234375 2.984375,3.203125 0,0.53125 -0.109375,1.09375 -0.109375,1.171875 0,0.1875 0.171875,0.1875 0.234375,0.1875 0.171875,0 0.203125,-0.0625 0.28125,-0.390625 z m 0,0"
             id="path233" />
        </g>
      </g>
      <g
         fill="#000000"
         fill-opacity="1"
         id="g119"
         transform="matrix(0.352778,0,0,0.352778,58.605623,159.15869)">
        <g
           id="use117"
           transform="translate(153.03101,9.2449999)">
          <path
             d="m 4.125,-9.1875 c 0,-0.34375 0,-0.34375 -0.28125,-0.34375 C 3.5,-9.15625 2.78125,-8.625 1.3125,-8.625 v 0.421875 c 0.328125,0 1.046875,0 1.828125,-0.375 v 7.46875 c 0,0.515625 -0.046875,0.6875 -1.296875,0.6875 H 1.390625 V 0 c 0.390625,-0.03125 1.78125,-0.03125 2.25,-0.03125 0.46875,0 1.859375,0 2.234375,0.03125 V -0.421875 H 5.4375 c -1.265625,0 -1.3125,-0.171875 -1.3125,-0.6875 z m 0,0"
             id="path237" />
        </g>
      </g>
    </g>
    <g
       id="g2895">
      <g
         id="g3034"
         transform="translate(-38.975499,-9.7953603)">
        <g
           fill="#000000"
           fill-opacity="1"
           id="g123"
           transform="matrix(0.352778,0,0,0.352778,46.055844,163.28579)">
          <g
             id="use121"
             transform="translate(166.78999,16.743999)">
            <path
               d="m 9.703125,-13.84375 c 0,-0.01563 0.09375,-0.28125 0.09375,-0.3125 0,-0.171875 -0.171875,-0.171875 -0.234375,-0.171875 -0.1875,0 -0.203125,0.09375 -0.28125,0.40625 L 5.859375,-0.25 c -1.703125,-0.203125 -2.34375,-1.078125 -2.34375,-2.3125 0,-0.453125 0,-0.921875 0.96875,-3.484375 0.265625,-0.75 0.375,-1.015625 0.375,-1.390625 0,-0.921875 -0.671875,-1.671875 -1.640625,-1.671875 -1.890625,0 -2.65625,3 -2.65625,3.15625 0,0.09375 0.078125,0.1875 0.21875,0.1875 0.1875,0 0.203125,-0.078125 0.296875,-0.375 0.484375,-1.796875 1.3125,-2.5625 2.078125,-2.5625 0.1875,0 0.546875,0.03125 0.546875,0.6875 0,0.078125 0,0.53125 -0.359375,1.453125 -1.109375,2.921875 -1.109375,3.375 -1.109375,3.859375 0,1.984375 1.65625,2.75 3.515625,2.890625 C 5.578125,0.828125 5.4375,1.484375 5.265625,2.125 4.9375,3.359375 4.796875,3.953125 4.796875,4.03125 c 0,0.1875 0.15625,0.1875 0.21875,0.1875 0.046875,0 0.125,0 0.171875,-0.09375 0.078125,-0.078125 0.921875,-3.546875 1.015625,-3.921875 0.765625,0 2.390625,0 4.25,-1.921875 0.6875,-0.734375 1.296875,-1.6875 1.65625,-2.578125 0.203125,-0.53125 0.703125,-2.375 0.703125,-3.421875 0,-1.25 -0.625,-1.390625 -0.828125,-1.390625 -0.5,0 -0.953125,0.5 -0.953125,0.90625 0,0.25 0.140625,0.390625 0.21875,0.484375 0.1875,0.171875 0.75,0.734375 0.75,1.8125 0,0.734375 -0.40625,2.265625 -1.734375,3.765625 -1.734375,1.9375 -3.328125,1.9375 -3.9375,1.9375 z m 0,0"
               id="path241" />
          </g>
        </g>
        <g
           clip-path="url(#clipPath3261)"
           id="g129"
           transform="matrix(0.352778,0,0,0.352778,46.055844,163.28579)">
          <g
             fill="#000000"
             fill-opacity="1"
             id="g127">
            <g
               id="use125"
               transform="translate(180.68401,16.743999)">
              <path
                 d="m 6.328125,5.046875 c 0,-0.03125 0,-0.0625 -0.0625,-0.125 -0.953125,-0.96875 -3.5,-3.625 -3.5,-10.0625 0,-6.453125 2.5,-9.078125 3.515625,-10.109375 0,-0.01563 0.046875,-0.0625 0.046875,-0.125 0,-0.0625 -0.0625,-0.09375 -0.15625,-0.09375 -0.21875,0 -1.984375,1.53125 -2.984375,3.796875 -1.046875,2.296875 -1.328125,4.53125 -1.328125,6.5 0,1.5 0.140625,4.015625 1.390625,6.6875 0.984375,2.140625 2.671875,3.65625 2.921875,3.65625 0.109375,0 0.15625,-0.046875 0.15625,-0.125 z m 0,0"
                 id="path245" />
            </g>
          </g>
        </g>
        <g
           fill="#000000"
           fill-opacity="1"
           id="g135"
           transform="matrix(0.352778,0,0,0.352778,46.055844,163.28579)">
          <g
             id="use131"
             transform="translate(188.002,16.743999)">
            <path
               d="m 4.15625,-8.296875 h 1.890625 c 0.390625,0 0.609375,0 0.609375,-0.375 0,-0.234375 -0.125,-0.234375 -0.546875,-0.234375 h -1.8125 L 5.0625,-11.921875 c 0.078125,-0.28125 0.078125,-0.328125 0.078125,-0.46875 0,-0.328125 -0.265625,-0.515625 -0.53125,-0.515625 -0.171875,0 -0.640625,0.0625 -0.8125,0.71875 L 3,-8.90625 H 1.046875 c -0.40625,0 -0.59375,0 -0.59375,0.390625 0,0.21875 0.140625,0.21875 0.53125,0.21875 h 1.84375 L 1.46875,-2.84375 c -0.171875,0.71875 -0.234375,0.921875 -0.234375,1.1875 0,0.96875 0.6875,1.859375 1.84375,1.859375 2.09375,0 3.203125,-3.015625 3.203125,-3.15625 0,-0.125 -0.078125,-0.1875 -0.203125,-0.1875 -0.046875,0 -0.125,0 -0.171875,0.078125 -0.015625,0.03125 -0.046875,0.046875 -0.1875,0.375 -0.4375,1.03125 -1.375,2.484375 -2.578125,2.484375 -0.625,0 -0.65625,-0.515625 -0.65625,-0.96875 0,-0.03125 0,-0.421875 0.0625,-0.671875 z m 0,0"
               id="path249" />
          </g>
          <g
             id="use133"
             transform="translate(195.30826,16.743999)">
            <path
               d="M 4.03125,0.078125 C 4.03125,-1.109375 3.640625,-2 2.78125,-2 2.125,-2 1.796875,-1.46875 1.796875,-1.015625 1.796875,-0.5625 2.109375,0 2.8125,0 3.078125,0 3.3125,-0.078125 3.484375,-0.265625 3.53125,-0.3125 3.546875,-0.3125 3.578125,-0.3125 c 0.03125,0 0.03125,0.296875 0.03125,0.390625 0,0.6875 -0.125,2.03125 -1.3125,3.375 C 2.0625,3.703125 2.0625,3.734375 2.0625,3.78125 c 0,0.109375 0.109375,0.203125 0.203125,0.203125 0.171875,0 1.765625,-1.53125 1.765625,-3.90625 z m 0,0"
               id="path253" />
          </g>
        </g>
        <g
           fill="#000000"
           fill-opacity="1"
           id="g139"
           transform="matrix(0.352778,0,0,0.352778,46.055844,163.28579)">
          <g
             id="use137"
             transform="translate(204.3791,16.743999)">
            <path
               d="m 10.390625,-13.8125 c 0.01563,-0.09375 0.0625,-0.21875 0.0625,-0.3125 0,-0.203125 -0.203125,-0.203125 -0.25,-0.203125 -0.01563,0 -1.03125,0.07813 -1.140625,0.09375 -0.34375,0.01563 -0.65625,0.0625 -1.03125,0.07813 -0.515625,0.04687 -0.65625,0.0625 -0.65625,0.4375 0,0.203125 0.171875,0.203125 0.453125,0.203125 1.015625,0 1.03125,0.1875 1.03125,0.40625 0,0.109375 -0.046875,0.28125 -0.0625,0.34375 l -1.25,5.01562 C 7.3125,-8.28125 6.75,-9.109375 5.6875,-9.109375 c -2.34375,0 -4.859375,3.015625 -4.859375,6.078125 0,2.046875 1.203125,3.234375 2.59375,3.234375 1.140625,0 2.109375,-0.890625 2.6875,-1.5625 0.21875,1.21875 1.1875,1.5625 1.796875,1.5625 0.625,0 1.125,-0.375 1.5,-1.109375 0.328125,-0.703125 0.609375,-1.96875 0.609375,-2.046875 0,-0.109375 -0.078125,-0.1875 -0.203125,-0.1875 -0.1875,0 -0.203125,0.109375 -0.296875,0.40625 -0.296875,1.21875 -0.703125,2.53125 -1.546875,2.53125 -0.59375,0 -0.640625,-0.546875 -0.640625,-0.953125 0,-0.078125 0,-0.515625 0.15625,-1.09375 z M 6.21875,-2.453125 c -0.109375,0.34375 -0.109375,0.390625 -0.390625,0.78125 -0.453125,0.578125 -1.359375,1.46875 -2.34375,1.46875 -0.84375,0 -1.3125,-0.765625 -1.3125,-1.984375 0,-1.140625 0.640625,-3.453125 1.03125,-4.3125 C 3.90625,-7.953125 4.875,-8.703125 5.6875,-8.703125 c 1.359375,0 1.625,1.703125 1.625,1.859375 0,0.03125 -0.0625,0.296875 -0.078125,0.34375 z m 0,0"
               id="path257" />
          </g>
        </g>
        <g
           clip-path="url(#clipPath9571)"
           id="g145"
           transform="matrix(0.352778,0,0,0.352778,46.055844,163.28579)">
          <g
             fill="#000000"
             fill-opacity="1"
             id="g143">
            <g
               id="use141"
               transform="translate(214.884,16.743999)">
              <path
                 d="m 5.4375,-5.140625 c 0,-1.484375 -0.15625,-4.015625 -1.390625,-6.671875 -0.984375,-2.15625 -2.6875,-3.65625 -2.9375,-3.65625 -0.0625,0 -0.140625,0.01563 -0.140625,0.125 0,0.03125 0.015625,0.0625 0.046875,0.09375 C 2,-14.21875 4.53125,-11.59375 4.53125,-5.171875 4.53125,1.28125 2.03125,3.90625 1.015625,4.9375 0.984375,4.984375 0.96875,5 0.96875,5.046875 c 0,0.09375 0.078125,0.125 0.140625,0.125 0.234375,0 1.984375,-1.53125 3,-3.8125 1.03125,-2.28125 1.328125,-4.515625 1.328125,-6.5 z m 0,0"
                 id="path261" />
            </g>
          </g>
        </g>
        <g
           fill="#000000"
           fill-opacity="1"
           id="g149"
           transform="matrix(0.352778,0,0,0.352778,46.055844,163.28579)">
          <g
             id="use147"
             transform="translate(227.94476,16.743999)">
            <path
               d="m 13.28125,-6.625 c 0.3125,0 0.625,0 0.625,-0.359375 0,-0.375 -0.359375,-0.375 -0.703125,-0.375 H 1.65625 c -0.359375,0 -0.703125,0 -0.703125,0.375 0,0.359375 0.3125,0.359375 0.609375,0.359375 z m -0.07813,3.671875 c 0.34375,0 0.703125,0 0.703125,-0.375 0,-0.34375 -0.3125,-0.34375 -0.625,-0.34375 H 1.5625 c -0.296875,0 -0.609375,0 -0.609375,0.34375 0,0.375 0.34375,0.375 0.703125,0.375 z m 0,0"
               id="path265" />
          </g>
        </g>
        <g
           fill="#000000"
           fill-opacity="1"
           id="g153"
           transform="matrix(0.352778,0,0,0.352778,46.055844,163.28579)">
          <g
             id="use151"
             transform="translate(248.554,16.743999)">
            <path
               d="m 15.4375,-14.359375 c 0,-0.1875 -0.15625,-0.1875 -0.1875,-0.1875 -0.04687,0 -0.125,0 -0.296875,0.21875 l -1.421875,1.734375 c -0.71875,-1.25 -1.859375,-1.953125 -3.40625,-1.953125 -4.46875,0 -9.09375,4.53125 -9.09375,9.375 0,3.453125 2.421875,5.609375 5.4375,5.609375 1.65625,0 3.09375,-0.703125 4.296875,-1.71875 1.796875,-1.5 2.328125,-3.515625 2.328125,-3.671875 0,-0.1875 -0.15625,-0.1875 -0.21875,-0.1875 -0.1875,0 -0.21875,0.125 -0.25,0.203125 -0.953125,3.21875 -3.75,4.765625 -5.8125,4.765625 -2.1875,0 -4.078125,-1.390625 -4.078125,-4.328125 0,-0.671875 0.203125,-4.265625 2.53125,-6.96875 1.140625,-1.3125 3.078125,-2.46875 5.046875,-2.46875 2.265625,0 3.28125,1.875 3.28125,3.984375 0,0.53125 -0.0625,0.984375 -0.0625,1.078125 0,0.171875 0.203125,0.171875 0.265625,0.171875 0.234375,0 0.25,-0.015625 0.328125,-0.390625 z m 0,0"
               id="path269" />
          </g>
        </g>
        <g
           fill="#000000"
           fill-opacity="1"
           id="g157"
           transform="matrix(0.352778,0,0,0.352778,46.055844,163.28579)">
          <g
             id="use155"
             transform="translate(263.02899,19.843)">
            <path
               d="m 5.28125,-8.828125 c 0.125,-0.53125 0.1875,-0.546875 0.75,-0.546875 H 7.0625 c 1.234375,0 2.140625,0.359375 2.140625,1.484375 0,0.734375 -0.375,2.84375 -3.25,2.84375 h -1.625 z M 7.265625,-4.875 c 1.78125,-0.390625 3.171875,-1.53125 3.171875,-2.765625 0,-1.125 -1.125,-2.15625 -3.125,-2.15625 H 3.421875 c -0.28125,0 -0.40625,0 -0.40625,0.265625 0,0.15625 0.09375,0.15625 0.375,0.15625 C 4.25,-9.375 4.25,-9.265625 4.25,-9.109375 4.25,-9.078125 4.25,-9 4.1875,-8.78125 L 2.25,-1.0625 c -0.125,0.5 -0.15625,0.640625 -1.140625,0.640625 -0.328125,0 -0.4375,0 -0.4375,0.28125 C 0.671875,0 0.828125,0 0.875,0 1.140625,0 1.4375,-0.03125 1.703125,-0.03125 H 3.40625 c 0.25,0 0.546875,0.03125 0.8125,0.03125 0.109375,0 0.265625,0 0.265625,-0.265625 0,-0.15625 -0.125,-0.15625 -0.34375,-0.15625 -0.875,0 -0.875,-0.109375 -0.875,-0.25 0,-0.015625 0,-0.109375 0.03125,-0.234375 l 0.96875,-3.859375 h 1.71875 c 1.359375,0 1.625,0.859375 1.625,1.34375 0,0.203125 -0.15625,0.765625 -0.25,1.140625 -0.15625,0.65625 -0.203125,0.8125 -0.203125,1.09375 0,1.015625 0.828125,1.484375 1.796875,1.484375 1.15625,0 1.65625,-1.421875 1.65625,-1.609375 0,-0.109375 -0.0625,-0.15625 -0.15625,-0.15625 -0.109375,0 -0.140625,0.09375 -0.171875,0.203125 C 9.9375,-0.25 9.359375,0.015625 9,0.015625 c -0.359375,0 -0.59375,-0.15625 -0.59375,-0.796875 0,-0.359375 0.171875,-1.65625 0.1875,-1.734375 0.0625,-0.53125 0.0625,-0.578125 0.0625,-0.703125 0,-1.046875 -0.84375,-1.484375 -1.390625,-1.65625 z m 0,0"
               id="path273" />
          </g>
        </g>
      </g>
    </g>
    <g
       id="g2916"
       transform="translate(-47.417193,-101.01159)">
      <g
         fill="#000000"
         fill-opacity="1"
         id="g161"
         transform="matrix(0.352778,0,0,0.352778,46.055844,163.28579)">
        <g
           id="use159"
           transform="translate(280.57501,16.743999)">
          <path
             d="m 9.703125,-13.84375 c 0,-0.01563 0.09375,-0.28125 0.09375,-0.3125 0,-0.171875 -0.171875,-0.171875 -0.234375,-0.171875 -0.1875,0 -0.203125,0.09375 -0.28125,0.40625 L 5.859375,-0.25 c -1.703125,-0.203125 -2.34375,-1.078125 -2.34375,-2.3125 0,-0.453125 0,-0.921875 0.96875,-3.484375 0.265625,-0.75 0.375,-1.015625 0.375,-1.390625 0,-0.921875 -0.671875,-1.671875 -1.640625,-1.671875 -1.890625,0 -2.65625,3 -2.65625,3.15625 0,0.09375 0.078125,0.1875 0.21875,0.1875 0.1875,0 0.203125,-0.078125 0.296875,-0.375 0.484375,-1.796875 1.3125,-2.5625 2.078125,-2.5625 0.1875,0 0.546875,0.03125 0.546875,0.6875 0,0.078125 0,0.53125 -0.359375,1.453125 -1.109375,2.921875 -1.109375,3.375 -1.109375,3.859375 0,1.984375 1.65625,2.75 3.515625,2.890625 C 5.578125,0.828125 5.4375,1.484375 5.265625,2.125 4.9375,3.359375 4.796875,3.953125 4.796875,4.03125 c 0,0.1875 0.15625,0.1875 0.21875,0.1875 0.046875,0 0.125,0 0.171875,-0.09375 0.078125,-0.078125 0.921875,-3.546875 1.015625,-3.921875 0.765625,0 2.390625,0 4.25,-1.921875 0.6875,-0.734375 1.296875,-1.6875 1.65625,-2.578125 0.203125,-0.53125 0.703125,-2.375 0.703125,-3.421875 0,-1.25 -0.625,-1.390625 -0.828125,-1.390625 -0.5,0 -0.953125,0.5 -0.953125,0.90625 0,0.25 0.140625,0.390625 0.21875,0.484375 0.1875,0.171875 0.75,0.734375 0.75,1.8125 0,0.734375 -0.40625,2.265625 -1.734375,3.765625 -1.734375,1.9375 -3.328125,1.9375 -3.9375,1.9375 z m 0,0"
             id="path277" />
        </g>
      </g>
      <g
         clip-path="url(#clipPath1848)"
         id="g167"
         transform="matrix(0.352778,0,0,0.352778,46.055844,163.28579)">
        <g
           fill="#000000"
           fill-opacity="1"
           id="g165">
          <g
             id="use163"
             transform="translate(294.47,16.743999)">
            <path
               d="m 6.328125,5.046875 c 0,-0.03125 0,-0.0625 -0.0625,-0.125 -0.953125,-0.96875 -3.5,-3.625 -3.5,-10.0625 0,-6.453125 2.5,-9.078125 3.515625,-10.109375 0,-0.01563 0.046875,-0.0625 0.046875,-0.125 0,-0.0625 -0.0625,-0.09375 -0.15625,-0.09375 -0.21875,0 -1.984375,1.53125 -2.984375,3.796875 -1.046875,2.296875 -1.328125,4.53125 -1.328125,6.5 0,1.5 0.140625,4.015625 1.390625,6.6875 0.984375,2.140625 2.671875,3.65625 2.921875,3.65625 0.109375,0 0.15625,-0.046875 0.15625,-0.125 z m 0,0"
               id="path281" />
          </g>
        </g>
      </g>
      <g
         fill="#000000"
         fill-opacity="1"
         id="g173"
         transform="matrix(0.352778,0,0,0.352778,46.055844,163.28579)">
        <g
           id="use169"
           transform="translate(301.78699,16.743999)">
          <path
             d="m 4.15625,-8.296875 h 1.890625 c 0.390625,0 0.609375,0 0.609375,-0.375 0,-0.234375 -0.125,-0.234375 -0.546875,-0.234375 h -1.8125 L 5.0625,-11.921875 c 0.078125,-0.28125 0.078125,-0.328125 0.078125,-0.46875 0,-0.328125 -0.265625,-0.515625 -0.53125,-0.515625 -0.171875,0 -0.640625,0.0625 -0.8125,0.71875 L 3,-8.90625 H 1.046875 c -0.40625,0 -0.59375,0 -0.59375,0.390625 0,0.21875 0.140625,0.21875 0.53125,0.21875 h 1.84375 L 1.46875,-2.84375 c -0.171875,0.71875 -0.234375,0.921875 -0.234375,1.1875 0,0.96875 0.6875,1.859375 1.84375,1.859375 2.09375,0 3.203125,-3.015625 3.203125,-3.15625 0,-0.125 -0.078125,-0.1875 -0.203125,-0.1875 -0.046875,0 -0.125,0 -0.171875,0.078125 -0.015625,0.03125 -0.046875,0.046875 -0.1875,0.375 -0.4375,1.03125 -1.375,2.484375 -2.578125,2.484375 -0.625,0 -0.65625,-0.515625 -0.65625,-0.96875 0,-0.03125 0,-0.421875 0.0625,-0.671875 z m 0,0"
             id="path285" />
        </g>
        <g
           id="use171"
           transform="translate(309.09326,16.743999)">
          <path
             d="M 4.03125,0.078125 C 4.03125,-1.109375 3.640625,-2 2.78125,-2 2.125,-2 1.796875,-1.46875 1.796875,-1.015625 1.796875,-0.5625 2.109375,0 2.8125,0 3.078125,0 3.3125,-0.078125 3.484375,-0.265625 3.53125,-0.3125 3.546875,-0.3125 3.578125,-0.3125 c 0.03125,0 0.03125,0.296875 0.03125,0.390625 0,0.6875 -0.125,2.03125 -1.3125,3.375 C 2.0625,3.703125 2.0625,3.734375 2.0625,3.78125 c 0,0.109375 0.109375,0.203125 0.203125,0.203125 0.171875,0 1.765625,-1.53125 1.765625,-3.90625 z m 0,0"
             id="path289" />
        </g>
      </g>
      <g
         fill="#000000"
         fill-opacity="1"
         id="g177"
         transform="matrix(0.352778,0,0,0.352778,46.055844,163.28579)">
        <g
           id="use175"
           transform="translate(318.16409,16.743999)">
          <path
             d="M 4.703125,-4.125 C 5.0625,-4.0625 5.625,-3.953125 5.75,-3.921875 c 0.265625,0.078125 1.1875,0.40625 1.1875,1.40625 0,0.640625 -0.578125,2.3125 -2.96875,2.3125 -0.4375,0 -1.984375,-0.0625 -2.40625,-1.203125 0.828125,0.109375 1.25,-0.53125 1.25,-0.984375 0,-0.4375 -0.296875,-0.671875 -0.703125,-0.671875 -0.453125,0 -1.0625,0.359375 -1.0625,1.28125 0,1.21875 1.25,1.984375 2.90625,1.984375 3.125,0 4.0625,-2.3125 4.0625,-3.390625 0,-0.296875 0,-0.875 -0.65625,-1.546875 C 6.84375,-5.21875 6.34375,-5.328125 5.21875,-5.5625 c -0.546875,-0.125 -1.4375,-0.296875 -1.4375,-1.234375 0,-0.40625 0.375,-1.90625 2.328125,-1.90625 0.875,0 1.71875,0.34375 1.921875,1.078125 -0.90625,0 -0.953125,0.78125 -0.953125,0.8125 0,0.4375 0.40625,0.546875 0.578125,0.546875 0.296875,0 0.875,-0.21875 0.875,-1.09375 0,-0.859375 -0.78125,-1.75 -2.390625,-1.75 -2.71875,0 -3.4375,2.125 -3.4375,2.96875 0,1.578125 1.53125,1.90625 2,2.015625 z m 0,0"
             id="path293" />
        </g>
      </g>
      <g
         clip-path="url(#clipPath6362)"
         id="g183"
         transform="matrix(0.352778,0,0,0.352778,46.055844,163.28579)">
        <g
           fill="#000000"
           fill-opacity="1"
           id="g181">
          <g
             id="use179"
             transform="translate(327.68701,16.743999)">
            <path
               d="m 5.4375,-5.140625 c 0,-1.484375 -0.15625,-4.015625 -1.390625,-6.671875 -0.984375,-2.15625 -2.6875,-3.65625 -2.9375,-3.65625 -0.0625,0 -0.140625,0.01563 -0.140625,0.125 0,0.03125 0.015625,0.0625 0.046875,0.09375 C 2,-14.21875 4.53125,-11.59375 4.53125,-5.171875 4.53125,1.28125 2.03125,3.90625 1.015625,4.9375 0.984375,4.984375 0.96875,5 0.96875,5.046875 c 0,0.09375 0.078125,0.125 0.140625,0.125 0.234375,0 1.984375,-1.53125 3,-3.8125 1.03125,-2.28125 1.328125,-4.515625 1.328125,-6.5 z m 0,0"
               id="path297" />
          </g>
        </g>
      </g>
    </g>
  </g>
</svg>
