<?xml version="1.0" encoding="UTF-8" standalone="no"?>
<!-- Created with Inkscape (http://www.inkscape.org/) -->

<svg
   width="210mm"
   height="297mm"
   viewBox="0 0 210 297"
   version="1.1"
   id="svg5"
   inkscape:version="1.2.2 (b0a84865, 2022-12-01)"
   sodipodi:docname="bounded_components.svg"
   xmlns:inkscape="http://www.inkscape.org/namespaces/inkscape"
   xmlns:sodipodi="http://sodipodi.sourceforge.net/DTD/sodipodi-0.dtd"
   xmlns="http://www.w3.org/2000/svg"
   xmlns:svg="http://www.w3.org/2000/svg">
  <sodipodi:namedview
     id="namedview7"
     pagecolor="#ffffff"
     bordercolor="#000000"
     borderopacity="0.25"
     inkscape:showpageshadow="2"
     inkscape:pageopacity="0.0"
     inkscape:pagecheckerboard="0"
     inkscape:deskcolor="#d1d1d1"
     inkscape:document-units="mm"
     showgrid="false"
     inkscape:zoom="1.7401065"
     inkscape:cx="415.4918"
     inkscape:cy="305.72841"
     inkscape:window-width="1512"
     inkscape:window-height="916"
     inkscape:window-x="0"
     inkscape:window-y="38"
     inkscape:window-maximized="0"
     inkscape:current-layer="layer1" />
  <defs
     id="defs2" />
  <g
     inkscape:label="Layer 1"
     inkscape:groupmode="layer"
     id="layer1">
    <path
       style="fill:#666666;stroke:none;stroke-width:0.595502;stroke-opacity:1"
       d="m 424.72776,373.54316 c -6.57743,-7.15093 -13.84574,-17.12737 -19.49144,-26.75384 -3.25512,-5.5503 -9.09061,-17.36836 -11.66993,-23.63399 -5.77065,-14.01792 -10.30759,-30.00454 -12.87787,-45.37724 -0.88072,-5.26753 -1.87528,-12.76823 -1.70797,-12.88108 0.0597,-0.0403 1.66839,-0.79404 3.57486,-1.67505 26.01214,-12.02065 57.33661,-18.38291 84.20598,-17.10295 18.13865,0.86406 32.98405,4.27494 46.15108,10.60368 l 3.67891,1.76826 -1.39962,3.94543 c -12.1868,34.35384 -39.8845,72.9956 -74.02407,103.27282 -4.5009,3.9917 -12.93909,10.85894 -13.34303,10.85894 -0.17299,0 -1.56659,-1.36124 -3.0969,-3.02498 z"
       id="path1205"
       transform="scale(0.26458333)" />
    <path
       style="fill:#666666;stroke:none;stroke-width:0.595502;stroke-opacity:1"
       d="m 355.61267,407.0975 c -9.78899,-1.12084 -19.10078,-8.14601 -25.73177,-19.41301 -8.78125,-14.92062 -12.57446,-37.04167 -9.71864,-56.67666 1.66472,-11.44569 5.40325,-20.97932 11.29678,-28.80796 10.2311,-13.59042 23.69079,-24.57025 42.8174,-34.92854 2.82693,-1.53096 2.49936,-1.86185 3.07038,3.10144 1.56126,13.57018 5.56477,30.22145 10.79654,44.90457 8.27993,23.23784 21.45382,45.65973 35.50345,60.42665 1.28241,1.34788 2.27504,2.49912 2.20584,2.5583 -1.37237,1.17361 -7.09836,5.2249 -11.6277,8.22692 -22.95846,15.2167 -43.28433,22.36335 -58.61228,20.60829 z"
       id="path1207"
       transform="scale(0.26458333)" />
    <path
       style="fill:#666666;stroke:none;stroke-width:0.595502;stroke-opacity:1"
       d="m 481.97191,407.61304 c -8.57149,-1.80694 -15.05489,-4.05629 -23.15751,-8.03426 -10.16395,-4.98999 -19.21819,-11.32152 -26.94274,-18.84075 l -2.3634,-2.30058 1.24277,-1.01343 c 11.17181,-9.11021 18.72754,-15.95578 27.59069,-24.99746 23.10034,-23.56563 42.22312,-50.5783 53.43751,-75.48534 1.84151,-4.08999 4.8672,-11.70024 5.80626,-14.604 0.39235,-1.21321 0.77754,-2.31849 0.85597,-2.45616 0.28344,-0.49752 6.15627,3.33356 10.48709,6.84114 5.02931,4.07329 7.47766,6.7223 10.07024,10.89557 21.77409,35.04967 21.30622,80.36997 -1.10934,107.4586 -11.71037,14.15167 -28.34849,21.95957 -49.29623,23.13362 -2.42507,0.13592 -3.68263,0.0225 -6.62131,-0.59695 z"
       id="path1209"
       transform="scale(0.26458333)" />
    <path
       style="fill:#666666;stroke:none;stroke-width:0.595502;stroke-opacity:1"
       d="m 378.4089,259.41454 c -0.47908,-5.5369 -0.28495,-23.33287 0.31289,-28.68378 1.09775,-9.82526 2.81456,-18.21652 5.27312,-25.77354 8.16362,-25.09296 23.88384,-40.49027 45.56344,-44.62752 3.25239,-0.62067 4.74257,-0.71217 11.60934,-0.71284 8.40659,-8.2e-4 11.05749,0.27552 18.43451,1.92173 20.28382,4.52638 36.59544,12.87772 47.04655,24.08721 3.89558,4.17825 6.49842,7.94283 9.0278,13.05722 2.53978,5.13541 3.83523,8.87921 4.90126,14.1645 1.81889,9.01792 1.8621,17.84481 0.13889,28.37667 -0.63861,3.90302 -2.9651,13.87323 -3.40212,14.57982 -0.18512,0.2993 -1.22891,-0.0684 -4.16403,-1.46701 -11.30784,-5.38813 -25.03814,-8.80937 -40.62844,-10.12356 -6.1084,-0.51492 -20.19274,-0.43294 -26.94274,0.15681 -17.47373,1.52669 -34.68904,5.38695 -50.86259,11.40512 -4.65095,1.73062 -7.52897,2.92839 -15.0474,6.26241 l -0.99532,0.44137 z"
       id="path1211"
       transform="scale(0.26458333)" />
    <path
       style="fill:#666666;stroke:none;stroke-width:1.03794;stroke-opacity:1"
       d="M 229.8583,283.95876 V 115.89033 H 437.19763 644.53696 V 283.95876 452.0272 H 437.19763 229.8583 Z m 264.46063,126.04375 c 11.48975,-0.95653 23.3759,-5.23966 33.04857,-11.90894 8.22327,-5.66992 17.4365,-16.80897 21.90846,-26.48794 5.0178,-10.86037 7.29272,-20.94472 7.75356,-34.37027 0.64646,-18.83335 -2.67148,-34.62248 -10.79161,-51.35424 -6.20021,-12.77569 -10.88181,-18.20853 -21.90461,-25.4195 -2.61205,-1.70877 -4.781,-3.11456 -4.8199,-3.124 -0.0389,-0.009 0.64197,-2.83346 1.51302,-6.27561 5.13866,-20.30641 3.99903,-39.224 -3.22949,-53.60906 -7.69626,-15.31587 -22.29336,-26.88387 -42.93319,-34.02394 -27.41466,-9.48374 -50.18509,-8.26856 -67.71286,3.61358 -16.022,10.86138 -27.12525,33.11441 -30.40578,60.93901 -0.88407,7.49849 -1.22655,28.15424 -0.54563,32.90895 l 0.35396,2.47159 -5.63959,3.02084 c -22.082,11.8282 -41.61414,30.47922 -48.14172,45.96997 -7.45867,17.70036 -7.80224,42.4793 -0.8771,63.25978 5.51681,16.55448 15.60878,28.45278 27.63869,32.58566 4.75918,1.63502 15.49671,1.7376 22.57669,0.21569 15.33284,-3.29595 35.13888,-13.13587 52.06807,-25.86816 l 3.45813,-2.60083 3.68203,3.51376 c 13.50712,12.88984 31.62266,22.53893 49.31149,26.26538 2.6955,0.56785 6.01314,0.93479 7.37251,0.8154 1.35938,-0.11937 4.20172,-0.36108 6.3163,-0.53712 z"
       id="path1213"
       transform="scale(0.26458333)" />
  </g>
</svg>
