<?xml version="1.0" encoding="UTF-8" standalone="no"?>
<!-- Created with Inkscape (http://www.inkscape.org/) -->

<svg
   width="210mm"
   height="297mm"
   viewBox="0 0 210 297"
   version="1.1"
   id="svg5"
   inkscape:version="1.2.2 (b0a84865, 2022-12-01)"
   sodipodi:docname="bounded_components.svg"
   xmlns:inkscape="http://www.inkscape.org/namespaces/inkscape"
   xmlns:sodipodi="http://sodipodi.sourceforge.net/DTD/sodipodi-0.dtd"
   xmlns="http://www.w3.org/2000/svg"
   xmlns:svg="http://www.w3.org/2000/svg">
  <sodipodi:namedview
     id="namedview7"
     pagecolor="#ffffff"
     bordercolor="#000000"
     borderopacity="0.25"
     inkscape:showpageshadow="2"
     inkscape:pageopacity="0.0"
     inkscape:pagecheckerboard="0"
     inkscape:deskcolor="#d1d1d1"
     inkscape:document-units="mm"
     showgrid="false"
     inkscape:zoom="1.5852037"
     inkscape:cx="410.04193"
     inkscape:cy="309.42395"
     inkscape:window-width="1512"
     inkscape:window-height="945"
     inkscape:window-x="0"
     inkscape:window-y="37"
     inkscape:window-maximized="0"
     inkscape:current-layer="layer1" />
  <defs
     id="defs2" />
  <g
     inkscape:label="Layer 1"
     inkscape:groupmode="layer"
     id="layer1">
    <path
       style="fill:none;stroke:#000000;stroke-width:0.5;stroke-opacity:1;stroke-dasharray:none"
       d="m 52.633813,88.586759 c 3.306273,-16.44155 12.229379,-37.407393 28.503237,-41.45925 9.74697,-2.426796 23.61464,4.375836 26.72178,13.927716 3.2262,9.917883 -3.57449,29.27576 -13.927716,28.017383 -7.631873,-0.927612 -6.282535,-14.927338 -5.020455,-22.511078 1.205264,-7.242335 5.050144,-15.275767 11.498461,-18.786221 11.61962,-6.325706 29.29863,-7.232146 39.6778,0.971701 9.81023,7.754154 12.41188,24.102846 9.55506,36.276843 -3.91565,16.686087 -17.47896,33.624187 -33.84759,38.706097 -9.57829,2.97374 -27.431729,2.43112 -29.151036,-7.44971 -1.519508,-8.73259 14.831386,-20.077802 22.025226,-14.89942 8.32328,5.99139 0.734,24.70825 -8.25946,29.63689 -6.484269,3.55355 -22.208206,0.84919 -21.215474,-6.47801 1.609591,-11.88015 26.739594,6.69921 35.952944,-0.9717 6.19205,-5.15542 8.70719,-16.48039 5.02046,-23.644729 -3.15264,-6.126446 -12.09237,-8.94531 -18.94818,-8.259458 C 83.321926,93.454217 73.42005,129.9516 57.006468,122.5963 47.779646,118.46155 55.070027,102.45279 53.443565,92.473562 53.230677,91.167378 52.372906,89.884205 52.633813,88.586759 Z"
       id="path790"
       sodipodi:nodetypes="sssssssssssssssssss" />
    <path
       style="fill:#666666;stroke:none;stroke-width:1.15672;stroke-opacity:1"
       d="m 339.40681,499.07252 c -14.9001,-1.90703 -27.67228,-7.38202 -34.22623,-14.67159 -3.50262,-3.89575 -4.9004,-7.97552 -4.4889,-13.10194 0.5506,-6.85931 4.26851,-11.72998 10.55875,-13.83254 3.40154,-1.13699 12.89849,-0.96187 19.8931,0.36683 4.97801,0.94562 6.35753,1.49066 9.58524,3.78708 11.05085,7.86234 27.3624,12.23338 48.10473,12.89073 5.97558,0.18937 10.86469,0.52863 10.86469,0.75391 0,0.92591 -9.18655,10.29323 -13.30784,13.56971 -9.79458,7.78683 -20.45078,11.00198 -35.96582,10.8515 -3.70318,-0.0359 -8.66115,-0.31208 -11.01772,-0.61369 z"
       id="path1028"
       transform="scale(0.26458333)" />
    <path
       style="fill:#666666;stroke:none;stroke-width:1.15672;stroke-opacity:1"
       d="m 392.6591,471.01474 c -7.41598,-1.49906 -15.69967,-3.63497 -32.135,-8.28584 -7.57468,-2.14348 -15.63917,-4.36076 -17.9211,-4.92729 -3.59182,-0.89172 -4.48406,-1.40988 -6.64448,-3.85873 -3.31831,-3.76131 -5.94233,-9.08739 -7.01742,-14.24357 -3.33814,-16.00977 11.64976,-37.65044 35.48009,-51.22885 10.73184,-6.11496 20.65738,-8.88277 30.68629,-8.5571 6.05869,0.19674 7.15084,0.41548 10.90451,2.18399 8.15086,3.84023 13.99217,12.1156 16.09452,22.80105 3.2769,16.65527 -3.5155,42.06058 -16.65214,62.28329 -3.78825,5.83168 -3.43354,5.72542 -12.79527,3.83305 z"
       id="path1030"
       transform="scale(0.26458333)" />
    <path
       style="fill:#666666;stroke:none;stroke-width:1.15672;stroke-opacity:1"
       d="m 222.80267,464.51931 c -8.47341,-2.26162 -15.84403,-7.48434 -19.12472,-13.55152 -0.86664,-1.60274 -2.22039,-4.97989 -3.00833,-7.50479 -1.33354,-4.27324 -1.43001,-5.5643 -1.39493,-18.6689 0.0322,-12.02918 0.3199,-16.30538 1.97665,-29.38057 3.59703,-28.38807 3.69109,-41.29577 0.37735,-51.78561 -2.03319,-6.4362 -1.89544,-7.97512 2.16003,-24.13115 17.55957,-69.95311 50.73893,-119.47246 91.24037,-136.17391 20.37265,-8.401 42.84617,-7.41139 65.65367,2.89103 l 5.1648,2.33301 -4.22654,4.57505 c -12.55039,13.58525 -22.05907,33.50151 -26.17327,54.82082 -2.11661,10.96805 -3.73397,25.7757 -4.10678,37.59966 -0.89225,28.29763 4.70223,44.86491 17.06886,50.54709 3.43293,1.57736 4.51545,1.76917 9.97193,1.76694 4.79174,-0.002 7.01725,-0.30965 10.24834,-1.4169 22.55477,-7.72918 41.46972,-42.69237 43.09879,-79.66561 0.60352,-13.69755 -1.07588,-23.2424 -5.86947,-33.35919 -5.48232,-11.57031 -15.09024,-22.10195 -28.04363,-30.73978 -3.78734,-2.52555 -6.88607,-4.65907 -6.88607,-4.74116 0,-0.62669 8.26607,-5.68298 13.77214,-8.4243 20.16439,-10.03934 42.25981,-15.42812 66.41233,-16.19711 42.91969,-1.36651 76.71047,13.49293 95.66192,42.06719 19.79752,29.84992 26.73259,74.44667 17.79616,114.44016 -12.65495,56.63511 -56.02484,113.13368 -105.69939,137.69608 -8.19842,4.05385 -18.66567,8.29735 -19.18519,7.77784 -0.13047,-0.13048 0.95319,-1.58385 2.40814,-3.22974 19.49123,-22.04908 25.53657,-59.23505 13.62161,-83.78908 -3.39192,-6.98999 -8.00927,-12.55756 -14.4214,-17.38925 -13.01825,-9.80955 -29.45544,-15.1796 -48.3309,-15.78978 -10.85156,-0.35079 -17.31828,0.65033 -26.0616,4.03462 -18.6214,7.20782 -34.31378,21.92541 -66.96972,62.80965 -28.03152,35.09462 -43.06496,48.4902 -59.04992,52.61659 -4.55762,1.17652 -13.60332,1.15782 -18.08123,-0.0374 z"
       id="path1032"
       transform="scale(0.26458333)" />
    <path
       style="fill:#666666;stroke:none;stroke-width:1.15672;stroke-opacity:1"
       d="m 352.61666,334.76194 c -4.15508,-1.11713 -6.65188,-2.64756 -9.54656,-5.85162 -7.65906,-8.47767 -10.91098,-27.67634 -8.84909,-52.24327 0.83716,-9.97453 2.85947,-24.55061 4.3169,-31.11458 4.61196,-20.77142 15.54591,-41.92382 27.69641,-53.58041 l 2.1495,-2.06212 3.44849,1.97302 c 14.59873,8.35255 28.40843,23.34007 33.3768,36.22349 6.40114,16.59869 5.39503,39.53696 -2.75824,62.88567 -4.73651,13.56406 -11.49013,24.84525 -19.85985,33.17373 -9.54666,9.49963 -20.13313,13.242 -29.97436,10.59609 z"
       id="path1034"
       transform="scale(0.26458333)" />
    <path
       style="fill:#666666;stroke:none;stroke-width:0.453327;stroke-opacity:1"
       d="m 382.018,472.04956 c -11.62061,-1.02725 -22.79569,-3.65647 -30.88684,-7.2669 -2.67897,-1.19541 -7.93378,-4.08302 -7.75519,-4.26161 0.14241,-0.14242 4.24054,0.97409 17.77198,4.84186 11.11732,3.17773 15.23136,4.29902 22.42931,6.11316 l 2.75869,0.69528 -1.6792,-0.0185 c -0.92356,-0.0102 -2.111,-0.0567 -2.63875,-0.10331 z"
       id="path1036"
       transform="scale(0.26458333)" />
    <path
       style="fill:#666666;stroke:none;stroke-width:0.00738189;stroke-dasharray:none;stroke-opacity:1"
       d="m 417.23242,473.02656 c 0.0215,-0.003 0.25967,-0.0371 0.5293,-0.0755 1.04232,-0.14841 1.94053,-0.28499 2.95476,-0.44929 0.17169,-0.0278 0.31496,-0.0504 0.31835,-0.0501 0.008,5.6e-4 -0.1,0.0222 -0.2985,0.06 -1.08046,0.20558 -2.19323,0.37231 -3.35057,0.50203 -0.17182,0.0193 -0.23036,0.0242 -0.15334,0.0129 z"
       id="path1150"
       transform="scale(0.26458333)" />
  </g>
</svg>
