<?xml version="1.0" encoding="UTF-8" standalone="no"?>
<!-- Created with Inkscape (http://www.inkscape.org/) -->

<svg
   width="210mm"
   height="297mm"
   viewBox="0 0 210 297"
   version="1.1"
   id="svg5"
   inkscape:version="1.2.2 (b0a8486541, 2022-12-01)"
   sodipodi:docname="cauchy_2.svg"
   xmlns:inkscape="http://www.inkscape.org/namespaces/inkscape"
   xmlns:sodipodi="http://sodipodi.sourceforge.net/DTD/sodipodi-0.dtd"
   xmlns="http://www.w3.org/2000/svg"
   xmlns:svg="http://www.w3.org/2000/svg">
  <sodipodi:namedview
     id="namedview7"
     pagecolor="#ffffff"
     bordercolor="#000000"
     borderopacity="0.25"
     inkscape:showpageshadow="2"
     inkscape:pageopacity="0.0"
     inkscape:pagecheckerboard="0"
     inkscape:deskcolor="#d1d1d1"
     inkscape:document-units="mm"
     showgrid="false"
     inkscape:zoom="1.1212722"
     inkscape:cx="430.7607"
     inkscape:cy="593.07633"
     inkscape:window-width="1888"
     inkscape:window-height="1008"
     inkscape:window-x="13"
     inkscape:window-y="53"
     inkscape:window-maximized="1"
     inkscape:current-layer="layer1" />
  <defs
     id="defs2">
    <marker
       style="overflow:visible"
       id="marker2715"
       refX="0"
       refY="0"
       orient="auto-start-reverse"
       inkscape:stockid="Arrow5"
       markerWidth="5.8874264"
       markerHeight="6.6094756"
       viewBox="0 0 5.8874262 6.6094758"
       inkscape:isstock="true"
       inkscape:collect="always"
       preserveAspectRatio="xMidYMid">
      <path
         transform="scale(0.5)"
         style="fill:context-stroke;fill-rule:evenodd;stroke:context-stroke;stroke-width:1pt"
         d="m 6,0 c -3,1 -7,3 -9,5 0,0 0,-4 2,-5 -2,-1 -2,-5 -2,-5 2,2 6,4 9,5 z"
         id="path2713" />
    </marker>
    <marker
       style="overflow:visible"
       id="marker2577"
       refX="0"
       refY="0"
       orient="auto-start-reverse"
       inkscape:stockid="Arrow5"
       markerWidth="5.8874264"
       markerHeight="6.6094756"
       viewBox="0 0 5.8874262 6.6094758"
       inkscape:isstock="true"
       inkscape:collect="always"
       preserveAspectRatio="xMidYMid">
      <path
         transform="scale(0.5)"
         style="fill:context-stroke;fill-rule:evenodd;stroke:context-stroke;stroke-width:1pt"
         d="m 6,0 c -3,1 -7,3 -9,5 0,0 0,-4 2,-5 -2,-1 -2,-5 -2,-5 2,2 6,4 9,5 z"
         id="path2575" />
    </marker>
    <marker
       style="overflow:visible"
       id="marker1931"
       refX="0"
       refY="0"
       orient="auto-start-reverse"
       inkscape:stockid="Arrow5"
       markerWidth="5.8874264"
       markerHeight="6.6094756"
       viewBox="0 0 5.8874262 6.6094758"
       inkscape:isstock="true"
       inkscape:collect="always"
       preserveAspectRatio="xMidYMid">
      <path
         transform="scale(0.5)"
         style="fill:context-stroke;fill-rule:evenodd;stroke:context-stroke;stroke-width:1pt"
         d="m 6,0 c -3,1 -7,3 -9,5 0,0 0,-4 2,-5 -2,-1 -2,-5 -2,-5 2,2 6,4 9,5 z"
         id="path1929" />
    </marker>
    <marker
       style="overflow:visible"
       id="marker1773"
       refX="0"
       refY="0"
       orient="auto-start-reverse"
       inkscape:stockid="Arrow5"
       markerWidth="5.88742624"
       markerHeight="6.60947576"
       viewBox="0 0 5.88742624 6.60947576"
       inkscape:isstock="true"
       inkscape:collect="always"
       preserveAspectRatio="xMidYMid">
      <path
         transform="scale(0.5)"
         style="fill:context-stroke;fill-rule:evenodd;stroke:context-stroke;stroke-width:1pt"
         d="m 6,0 c -3,1 -7,3 -9,5 0,0 0,-4 2,-5 -2,-1 -2,-5 -2,-5 2,2 6,4 9,5 z"
         id="path1771" />
    </marker>
    <marker
       style="overflow:visible"
       id="marker1671"
       refX="0"
       refY="0"
       orient="auto-start-reverse"
       inkscape:stockid="Arrow5"
       markerWidth="5.8874264"
       markerHeight="6.6094756"
       viewBox="0 0 5.8874262 6.6094758"
       inkscape:isstock="true"
       inkscape:collect="always"
       preserveAspectRatio="xMidYMid">
      <path
         transform="scale(0.5)"
         style="fill:context-stroke;fill-rule:evenodd;stroke:context-stroke;stroke-width:1pt"
         d="m 6,0 c -3,1 -7,3 -9,5 0,0 0,-4 2,-5 -2,-1 -2,-5 -2,-5 2,2 6,4 9,5 z"
         id="path1669" />
    </marker>
    <marker
       style="overflow:visible"
       id="marker1521"
       refX="0"
       refY="0"
       orient="auto-start-reverse"
       inkscape:stockid="Arrow5"
       markerWidth="5.8874264"
       markerHeight="6.6094756"
       viewBox="0 0 5.8874262 6.6094758"
       inkscape:isstock="true"
       inkscape:collect="always"
       preserveAspectRatio="xMidYMid">
      <path
         transform="scale(0.5)"
         style="fill:context-stroke;fill-rule:evenodd;stroke:context-stroke;stroke-width:1pt"
         d="m 6,0 c -3,1 -7,3 -9,5 0,0 0,-4 2,-5 -2,-1 -2,-5 -2,-5 2,2 6,4 9,5 z"
         id="path1519" />
    </marker>
    <marker
       style="overflow:visible"
       id="Arrow5"
       refX="0"
       refY="0"
       orient="auto-start-reverse"
       inkscape:stockid="Arrow5"
       markerWidth="5.8874264"
       markerHeight="6.6094756"
       viewBox="0 0 5.8874262 6.6094758"
       inkscape:isstock="true"
       inkscape:collect="always"
       preserveAspectRatio="xMidYMid">
      <path
         transform="scale(0.5)"
         style="fill:context-stroke;fill-rule:evenodd;stroke:context-stroke;stroke-width:1pt"
         d="m 6,0 c -3,1 -7,3 -9,5 0,0 0,-4 2,-5 -2,-1 -2,-5 -2,-5 2,2 6,4 9,5 z"
         id="path8893" />
    </marker>
    <marker
       style="overflow:visible"
       id="TriangleStart"
       refX="0"
       refY="0"
       orient="auto-start-reverse"
       inkscape:stockid="TriangleStart"
       markerWidth="5.3244081"
       markerHeight="6.155385"
       viewBox="0 0 5.3244081 6.1553851"
       inkscape:isstock="true"
       inkscape:collect="always"
       preserveAspectRatio="xMidYMid">
      <path
         transform="scale(0.5)"
         style="fill:context-stroke;fill-rule:evenodd;stroke:context-stroke;stroke-width:1pt"
         d="M 5.77,0 -2.88,5 V -5 Z"
         id="path135" />
    </marker>
    <clipPath
       id="clipPath770">
      <path
         clip-rule="nonzero"
         d="m 13,7 h 7 v 13.007812 h -7 z m 0,0"
         id="path2361" />
    </clipPath>
    <clipPath
       id="clipPath3036">
      <path
         clip-rule="nonzero"
         d="m 70,7 h 7 v 13.007812 h -7 z m 0,0"
         id="path9451" />
    </clipPath>
    <clipPath
       id="clipPath4780">
      <path
         clip-rule="nonzero"
         d="m 145,7 h 7 v 13.007812 h -7 z m 0,0"
         id="path6083" />
    </clipPath>
    <clipPath
       id="clipPath971">
      <path
         clip-rule="nonzero"
         d="m 220,7 h 6 v 13.007812 h -6 z m 0,0"
         id="path459" />
    </clipPath>
    <clipPath
       id="clipPath2232">
      <path
         clip-rule="nonzero"
         d="m 276,7 h 6 v 13.007812 h -6 z m 0,0"
         id="path9170" />
    </clipPath>
    <clipPath
       id="clipPath6787">
      <path
         clip-rule="nonzero"
         d="m 314,7 h 7 v 13.007812 h -7 z m 0,0"
         id="path9158" />
    </clipPath>
  </defs>
  <g
     inkscape:label="Layer 1"
     inkscape:groupmode="layer"
     id="layer1">
    <path
       style="fill:none;stroke:#000000;stroke-width:0.5;stroke-dasharray:none;stroke-opacity:1;marker-mid:url(#TriangleStart)"
       d="m 112.8238,169.87372 31.41926,8.41877 31.43948,8.42418"
       id="path956"
       sodipodi:nodetypes="ccc" />
    <path
       style="fill:none;stroke:#000000;stroke-width:0.499999;stroke-dasharray:none;stroke-opacity:1;marker-mid:url(#Arrow5)"
       d="M 175.68254,186.71667 V 155.85717 125.3541"
       id="path1402"
       sodipodi:nodetypes="ccc" />
    <path
       style="fill:none;stroke:#000000;stroke-width:0.499999;stroke-dasharray:none;stroke-opacity:1;marker-mid:url(#marker1521)"
       d="m 175.68254,125.3541 -28.31773,-7.58772 -28.6938,-7.68848"
       id="path1517"
       sodipodi:nodetypes="ccc" />
    <path
       style="fill:none;stroke:#000000;stroke-width:0.499999;stroke-dasharray:none;stroke-opacity:1;marker-mid:url(#marker2577)"
       d="m 118.67101,110.0779 -4.12265,42.15982 -1.72456,17.636"
       id="path1583"
       sodipodi:nodetypes="ccc" />
    <path
       style="fill:none;stroke:#000000;stroke-width:0.499999;stroke-dasharray:none;stroke-opacity:1;marker-mid:url(#marker1671)"
       d="m 118.67101,110.0779 -38.157175,11.09481 -38.157174,11.0948"
       id="path1667"
       sodipodi:nodetypes="ccc" />
    <path
       style="fill:none;stroke:#000000;stroke-width:0.499999;stroke-dasharray:none;stroke-opacity:1;marker-mid:url(#marker1773)"
       d="m 42.356661,132.26751 v 30.97084 30.97083"
       id="path1769"
       sodipodi:nodetypes="ccc" />
    <path
       style="fill:none;stroke:#000000;stroke-width:0.499999;stroke-dasharray:none;stroke-opacity:1;marker-mid:url(#marker1931)"
       d="M 42.356661,194.20918 77.59023,182.04145 112.8238,169.87372"
       id="path1927"
       sodipodi:nodetypes="ccc" />
    <path
       style="fill:none;stroke:#000000;stroke-width:0.499999;stroke-dasharray:none;stroke-opacity:1;marker-mid:url(#marker2715)"
       d="m 112.8238,169.87372 4.03786,-41.29266 1.80935,-18.50316"
       id="path2711"
       sodipodi:nodetypes="ccc" />
    <g
       id="g931"
       transform="translate(130.36853,108.63608)">
      <g
         fill="#000000"
         fill-opacity="1"
         id="g50"
         transform="matrix(0.352778,0,0,0.352778,46.552967,78.077193)">
        <g
           id="use48"
           transform="translate(0,14.119)">
          <path
             d="m 14.453125,-13.46875 c 0.125,-0.140625 0.234375,-0.265625 0.234375,-0.46875 0,-0.15625 -0.01563,-0.171875 -0.5,-0.171875 H 5.65625 c -0.46875,0 -0.484375,0.01563 -0.609375,0.390625 L 3.90625,-10 c -0.0625,0.203125 -0.0625,0.25 -0.0625,0.296875 C 3.84375,-9.625 3.90625,-9.5 4.046875,-9.5 4.21875,-9.5 4.25,-9.578125 4.34375,-9.859375 c 0.765625,-2.21875 1.765625,-3.65625 5.03125,-3.65625 h 3.390625 l -11.3125,12.8125 c -0.1875,0.234375 -0.28125,0.3125 -0.28125,0.53125 C 1.171875,0 1.28125,0 1.671875,0 H 10.5 c 0.46875,0 0.484375,-0.015625 0.609375,-0.390625 l 1.453125,-4.5625 c 0.01563,-0.0625 0.0625,-0.21875 0.0625,-0.296875 0,-0.09375 -0.09375,-0.203125 -0.203125,-0.203125 -0.171875,0 -0.1875,0.015625 -0.359375,0.53125 -0.859375,2.671875 -1.78125,4.28125 -5.375,4.28125 H 3.125 Z m 0,0"
             id="path190" />
        </g>
      </g>
      <g
         clip-path="url(#clipPath770)"
         id="g56"
         transform="matrix(0.352778,0,0,0.352778,46.552967,78.077193)">
        <g
           fill="#000000"
           fill-opacity="1"
           id="g54">
          <g
             id="use52"
             transform="translate(13.848,17.218)">
            <path
               d="m 5.015625,-4.546875 c 0.0625,-0.234375 0.0625,-0.4375 0.0625,-0.484375 0,-0.828125 -0.625,-1.296875 -1.265625,-1.296875 -1.453125,0 -2.21875,2.09375 -2.21875,2.203125 0,0.0625 0.0625,0.125 0.140625,0.125 0.109375,0 0.125,-0.0625 0.203125,-0.203125 0.578125,-1.390625 1.296875,-1.828125 1.828125,-1.828125 0.3125,0 0.46875,0.15625 0.46875,0.65625 0,0.34375 -0.046875,0.484375 -0.109375,0.734375 L 2.765625,0.78125 C 2.5,1.84375 1.828125,2.640625 1.03125,2.640625 c -0.0625,0 -0.359375,0 -0.625,-0.140625 C 0.75,2.421875 1.015625,2.15625 1.015625,1.8125 c 0,-0.234375 -0.171875,-0.46875 -0.484375,-0.46875 -0.375,0 -0.71875,0.3125 -0.71875,0.75 0,0.59375 0.625,0.828125 1.21875,0.828125 0.984375,0 2.296875,-0.734375 2.65625,-2.15625 z m 0.59375,-4.40625 c 0,-0.359375 -0.296875,-0.46875 -0.46875,-0.46875 -0.390625,0 -0.71875,0.375 -0.71875,0.6875 0,0.21875 0.171875,0.46875 0.484375,0.46875 0.328125,0 0.703125,-0.3125 0.703125,-0.6875 z m 0,0"
               id="path194" />
          </g>
        </g>
      </g>
      <g
         fill="#000000"
         fill-opacity="1"
         id="g62"
         transform="matrix(0.352778,0,0,0.352778,46.552967,78.077193)">
        <g
           id="use58"
           transform="translate(20.466,17.218)">
          <path
             d="M 5.71875,-3.3125 H 9.6875 c 0.203125,0 0.453125,0 0.453125,-0.265625 0,-0.265625 -0.25,-0.265625 -0.453125,-0.265625 H 5.71875 v -3.953125 c 0,-0.203125 0,-0.46875 -0.25,-0.46875 -0.28125,0 -0.28125,0.25 -0.28125,0.46875 V -3.84375 H 1.234375 c -0.203125,0 -0.453125,0 -0.453125,0.265625 0,0.265625 0.234375,0.265625 0.453125,0.265625 H 5.1875 v 3.953125 c 0,0.203125 0,0.46875 0.265625,0.46875 0.265625,0 0.265625,-0.25 0.265625,-0.46875 z m 0,0"
             id="path198" />
        </g>
        <g
           id="use60"
           transform="translate(31.392065,17.218)">
          <path
             d="M 6.3125,-2.40625 H 6 c -0.046875,0.234375 -0.15625,1.03125 -0.3125,1.265625 -0.09375,0.125 -0.90625,0.125 -1.34375,0.125 H 1.6875 c 0.390625,-0.328125 1.265625,-1.25 1.640625,-1.59375 2.1875,-2.015625 2.984375,-2.75 2.984375,-4.171875 0,-1.65625 -1.3125,-2.75 -2.96875,-2.75 -1.671875,0 -2.640625,1.40625 -2.640625,2.640625 0,0.734375 0.625,0.734375 0.671875,0.734375 0.296875,0 0.671875,-0.21875 0.671875,-0.671875 C 2.046875,-7.234375 1.78125,-7.5 1.375,-7.5 1.25,-7.5 1.21875,-7.5 1.171875,-7.484375 1.453125,-8.46875 2.21875,-9.125 3.15625,-9.125 4.375,-9.125 5.125,-8.109375 5.125,-6.78125 5.125,-5.5625 4.421875,-4.5 3.59375,-3.578125 L 0.703125,-0.34375 V 0 H 5.9375 Z m 0,0"
             id="path202" />
        </g>
      </g>
      <g
         fill="#000000"
         fill-opacity="1"
         id="g68"
         transform="matrix(0.352778,0,0,0.352778,46.552967,78.077193)">
        <g
           id="use64"
           transform="translate(38.416,17.218)">
          <path
             d="m 2.796875,0.0625 c 0,-0.84375 -0.265625,-1.453125 -0.859375,-1.453125 -0.453125,0 -0.6875,0.375 -0.6875,0.6875 C 1.25,-0.390625 1.46875,0 1.953125,0 c 0.1875,0 0.34375,-0.0625 0.46875,-0.1875 0.03125,-0.03125 0.046875,-0.03125 0.0625,-0.03125 0.03125,0 0.03125,0.203125 0.03125,0.28125 0,0.46875 -0.09375,1.40625 -0.921875,2.328125 C 1.4375,2.5625 1.4375,2.59375 1.4375,2.625 c 0,0.078125 0.0625,0.140625 0.140625,0.140625 0.109375,0 1.21875,-1.0625 1.21875,-2.703125 z m 0,0"
             id="path206" />
        </g>
        <g
           id="use66"
           transform="translate(42.318165,17.218)">
          <path
             d="m 4.03125,-9.59375 c 0.015625,-0.0625 0.046875,-0.140625 0.046875,-0.21875 0,-0.140625 -0.140625,-0.140625 -0.171875,-0.140625 -0.015625,0 -0.53125,0.046875 -0.796875,0.0625 C 2.875,-9.875 2.65625,-9.84375 2.390625,-9.828125 c -0.34375,0.03125 -0.4375,0.046875 -0.4375,0.296875 0,0.15625 0.140625,0.15625 0.28125,0.15625 0.734375,0 0.734375,0.125 0.734375,0.265625 0,0.0625 0,0.09375 -0.078125,0.34375 L 0.84375,-0.5625 c -0.0625,0.21875 -0.0625,0.25 -0.0625,0.328125 0,0.328125 0.25,0.375 0.390625,0.375 0.40625,0 0.484375,-0.3125 0.609375,-0.75 l 0.671875,-2.6875 c 1.03125,0.109375 1.65625,0.546875 1.65625,1.234375 0,0.078125 0,0.140625 -0.046875,0.359375 C 4,-1.484375 4,-1.3125 4,-1.25 c 0,0.828125 0.546875,1.390625 1.28125,1.390625 0.65625,0 1,-0.59375 1.109375,-0.796875 0.3125,-0.53125 0.5,-1.34375 0.5,-1.390625 0,-0.078125 -0.0625,-0.140625 -0.15625,-0.140625 -0.125,0 -0.140625,0.0625 -0.1875,0.296875 -0.203125,0.75 -0.515625,1.75 -1.234375,1.75 -0.296875,0 -0.484375,-0.140625 -0.484375,-0.6875 0,-0.28125 0.0625,-0.59375 0.125,-0.8125 C 5,-1.890625 5,-1.90625 5,-2.078125 c 0,-0.84375 -0.75,-1.328125 -2.078125,-1.5 0.515625,-0.3125 1.03125,-0.875 1.234375,-1.078125 0.828125,-0.921875 1.375,-1.375 2.046875,-1.375 0.328125,0 0.40625,0.078125 0.515625,0.171875 C 6.1875,-5.8125 5.984375,-5.4375 5.984375,-5.15625 c 0,0.34375 0.265625,0.46875 0.46875,0.46875 0.390625,0 0.734375,-0.328125 0.734375,-0.796875 0,-0.40625 -0.328125,-0.84375 -0.984375,-0.84375 -0.78125,0 -1.421875,0.5625 -2.4375,1.703125 -0.15625,0.171875 -0.6875,0.71875 -1.21875,0.921875 z m 0,0"
             id="path210" />
        </g>
      </g>
    </g>
    <g
       id="g1003"
       transform="translate(110.31627,40.218591)">
      <g
         fill="#000000"
         fill-opacity="1"
         id="g72"
         transform="matrix(0.352778,0,0,0.352778,46.552967,78.077193)">
        <g
           id="use70"
           transform="translate(56.841,14.119)">
          <path
             d="m 14.453125,-13.46875 c 0.125,-0.140625 0.234375,-0.265625 0.234375,-0.46875 0,-0.15625 -0.01563,-0.171875 -0.5,-0.171875 H 5.65625 c -0.46875,0 -0.484375,0.01563 -0.609375,0.390625 L 3.90625,-10 c -0.0625,0.203125 -0.0625,0.25 -0.0625,0.296875 C 3.84375,-9.625 3.90625,-9.5 4.046875,-9.5 4.21875,-9.5 4.25,-9.578125 4.34375,-9.859375 c 0.765625,-2.21875 1.765625,-3.65625 5.03125,-3.65625 h 3.390625 l -11.3125,12.8125 c -0.1875,0.234375 -0.28125,0.3125 -0.28125,0.53125 C 1.171875,0 1.28125,0 1.671875,0 H 10.5 c 0.46875,0 0.484375,-0.015625 0.609375,-0.390625 l 1.453125,-4.5625 c 0.01563,-0.0625 0.0625,-0.21875 0.0625,-0.296875 0,-0.09375 -0.09375,-0.203125 -0.203125,-0.203125 -0.171875,0 -0.1875,0.015625 -0.359375,0.53125 -0.859375,2.671875 -1.78125,4.28125 -5.375,4.28125 H 3.125 Z m 0,0"
             id="path214" />
        </g>
      </g>
      <g
         clip-path="url(#clipPath3036)"
         id="g78"
         transform="matrix(0.352778,0,0,0.352778,46.552967,78.077193)">
        <g
           fill="#000000"
           fill-opacity="1"
           id="g76">
          <g
             id="use74"
             transform="translate(70.689003,17.218)">
            <path
               d="m 5.015625,-4.546875 c 0.0625,-0.234375 0.0625,-0.4375 0.0625,-0.484375 0,-0.828125 -0.625,-1.296875 -1.265625,-1.296875 -1.453125,0 -2.21875,2.09375 -2.21875,2.203125 0,0.0625 0.0625,0.125 0.140625,0.125 0.109375,0 0.125,-0.0625 0.203125,-0.203125 0.578125,-1.390625 1.296875,-1.828125 1.828125,-1.828125 0.3125,0 0.46875,0.15625 0.46875,0.65625 0,0.34375 -0.046875,0.484375 -0.109375,0.734375 L 2.765625,0.78125 C 2.5,1.84375 1.828125,2.640625 1.03125,2.640625 c -0.0625,0 -0.359375,0 -0.625,-0.140625 C 0.75,2.421875 1.015625,2.15625 1.015625,1.8125 c 0,-0.234375 -0.171875,-0.46875 -0.484375,-0.46875 -0.375,0 -0.71875,0.3125 -0.71875,0.75 0,0.59375 0.625,0.828125 1.21875,0.828125 0.984375,0 2.296875,-0.734375 2.65625,-2.15625 z m 0.59375,-4.40625 c 0,-0.359375 -0.296875,-0.46875 -0.46875,-0.46875 -0.390625,0 -0.71875,0.375 -0.71875,0.6875 0,0.21875 0.171875,0.46875 0.484375,0.46875 0.328125,0 0.703125,-0.3125 0.703125,-0.6875 z m 0,0"
               id="path218" />
          </g>
        </g>
      </g>
      <g
         fill="#000000"
         fill-opacity="1"
         id="g84"
         transform="matrix(0.352778,0,0,0.352778,46.552967,78.077193)">
        <g
           id="use80"
           transform="translate(77.306999,17.218)">
          <path
             d="M 5.71875,-3.3125 H 9.6875 c 0.203125,0 0.453125,0 0.453125,-0.265625 0,-0.265625 -0.25,-0.265625 -0.453125,-0.265625 H 5.71875 v -3.953125 c 0,-0.203125 0,-0.46875 -0.25,-0.46875 -0.28125,0 -0.28125,0.25 -0.28125,0.46875 V -3.84375 H 1.234375 c -0.203125,0 -0.453125,0 -0.453125,0.265625 0,0.265625 0.234375,0.265625 0.453125,0.265625 H 5.1875 v 3.953125 c 0,0.203125 0,0.46875 0.265625,0.46875 0.265625,0 0.265625,-0.25 0.265625,-0.46875 z m 0,0"
             id="path222" />
        </g>
        <g
           id="use82"
           transform="translate(88.233063,17.218)">
          <path
             d="M 6.3125,-2.40625 H 6 c -0.046875,0.234375 -0.15625,1.03125 -0.3125,1.265625 -0.09375,0.125 -0.90625,0.125 -1.34375,0.125 H 1.6875 c 0.390625,-0.328125 1.265625,-1.25 1.640625,-1.59375 2.1875,-2.015625 2.984375,-2.75 2.984375,-4.171875 0,-1.65625 -1.3125,-2.75 -2.96875,-2.75 -1.671875,0 -2.640625,1.40625 -2.640625,2.640625 0,0.734375 0.625,0.734375 0.671875,0.734375 0.296875,0 0.671875,-0.21875 0.671875,-0.671875 C 2.046875,-7.234375 1.78125,-7.5 1.375,-7.5 1.25,-7.5 1.21875,-7.5 1.171875,-7.484375 1.453125,-8.46875 2.21875,-9.125 3.15625,-9.125 4.375,-9.125 5.125,-8.109375 5.125,-6.78125 5.125,-5.5625 4.421875,-4.5 3.59375,-3.578125 L 0.703125,-0.34375 V 0 H 5.9375 Z m 0,0"
             id="path226" />
        </g>
      </g>
      <g
         fill="#000000"
         fill-opacity="1"
         id="g90"
         transform="matrix(0.352778,0,0,0.352778,46.552967,78.077193)">
        <g
           id="use86"
           transform="translate(95.255997,17.218)">
          <path
             d="m 2.796875,0.0625 c 0,-0.84375 -0.265625,-1.453125 -0.859375,-1.453125 -0.453125,0 -0.6875,0.375 -0.6875,0.6875 C 1.25,-0.390625 1.46875,0 1.953125,0 c 0.1875,0 0.34375,-0.0625 0.46875,-0.1875 0.03125,-0.03125 0.046875,-0.03125 0.0625,-0.03125 0.03125,0 0.03125,0.203125 0.03125,0.28125 0,0.46875 -0.09375,1.40625 -0.921875,2.328125 C 1.4375,2.5625 1.4375,2.59375 1.4375,2.625 c 0,0.078125 0.0625,0.140625 0.140625,0.140625 0.109375,0 1.21875,-1.0625 1.21875,-2.703125 z m 0,0"
             id="path230" />
        </g>
        <g
           id="use88"
           transform="translate(99.158165,17.218)">
          <path
             d="m 4.03125,-9.59375 c 0.015625,-0.0625 0.046875,-0.140625 0.046875,-0.21875 0,-0.140625 -0.140625,-0.140625 -0.171875,-0.140625 -0.015625,0 -0.53125,0.046875 -0.796875,0.0625 C 2.875,-9.875 2.65625,-9.84375 2.390625,-9.828125 c -0.34375,0.03125 -0.4375,0.046875 -0.4375,0.296875 0,0.15625 0.140625,0.15625 0.28125,0.15625 0.734375,0 0.734375,0.125 0.734375,0.265625 0,0.0625 0,0.09375 -0.078125,0.34375 L 0.84375,-0.5625 c -0.0625,0.21875 -0.0625,0.25 -0.0625,0.328125 0,0.328125 0.25,0.375 0.390625,0.375 0.40625,0 0.484375,-0.3125 0.609375,-0.75 l 0.671875,-2.6875 c 1.03125,0.109375 1.65625,0.546875 1.65625,1.234375 0,0.078125 0,0.140625 -0.046875,0.359375 C 4,-1.484375 4,-1.3125 4,-1.25 c 0,0.828125 0.546875,1.390625 1.28125,1.390625 0.65625,0 1,-0.59375 1.109375,-0.796875 0.3125,-0.53125 0.5,-1.34375 0.5,-1.390625 0,-0.078125 -0.0625,-0.140625 -0.15625,-0.140625 -0.125,0 -0.140625,0.0625 -0.1875,0.296875 -0.203125,0.75 -0.515625,1.75 -1.234375,1.75 -0.296875,0 -0.484375,-0.140625 -0.484375,-0.6875 0,-0.28125 0.0625,-0.59375 0.125,-0.8125 C 5,-1.890625 5,-1.90625 5,-2.078125 c 0,-0.84375 -0.75,-1.328125 -2.078125,-1.5 0.515625,-0.3125 1.03125,-0.875 1.234375,-1.078125 0.828125,-0.921875 1.375,-1.375 2.046875,-1.375 0.328125,0 0.40625,0.078125 0.515625,0.171875 C 6.1875,-5.8125 5.984375,-5.4375 5.984375,-5.15625 c 0,0.34375 0.265625,0.46875 0.46875,0.46875 0.390625,0 0.734375,-0.328125 0.734375,-0.796875 0,-0.40625 -0.328125,-0.84375 -0.984375,-0.84375 -0.78125,0 -1.421875,0.5625 -2.4375,1.703125 -0.15625,0.171875 -0.6875,0.71875 -1.21875,0.921875 z m 0,0"
             id="path234" />
        </g>
      </g>
      <g
         fill="#000000"
         fill-opacity="1"
         id="g96"
         transform="matrix(0.352778,0,0,0.352778,46.552967,78.077193)">
        <g
           id="use92"
           transform="translate(106.946,17.218)">
          <path
             d="M 5.71875,-3.3125 H 9.6875 c 0.203125,0 0.453125,0 0.453125,-0.265625 0,-0.265625 -0.25,-0.265625 -0.453125,-0.265625 H 5.71875 v -3.953125 c 0,-0.203125 0,-0.46875 -0.25,-0.46875 -0.28125,0 -0.28125,0.25 -0.28125,0.46875 V -3.84375 H 1.234375 c -0.203125,0 -0.453125,0 -0.453125,0.265625 0,0.265625 0.234375,0.265625 0.453125,0.265625 H 5.1875 v 3.953125 c 0,0.203125 0,0.46875 0.265625,0.46875 0.265625,0 0.265625,-0.25 0.265625,-0.46875 z m 0,0"
             id="path238" />
        </g>
        <g
           id="use94"
           transform="translate(117.87206,17.218)">
          <path
             d="m 4.125,-9.1875 c 0,-0.34375 0,-0.34375 -0.28125,-0.34375 C 3.5,-9.15625 2.78125,-8.625 1.3125,-8.625 v 0.421875 c 0.328125,0 1.046875,0 1.828125,-0.375 v 7.46875 c 0,0.515625 -0.046875,0.6875 -1.296875,0.6875 H 1.390625 V 0 c 0.390625,-0.03125 1.78125,-0.03125 2.25,-0.03125 0.46875,0 1.859375,0 2.234375,0.03125 V -0.421875 H 5.4375 c -1.265625,0 -1.3125,-0.171875 -1.3125,-0.6875 z m 0,0"
             id="path242" />
        </g>
      </g>
    </g>
    <g
       id="g1075"
       transform="translate(17.797152,24.702334)">
      <g
         fill="#000000"
         fill-opacity="1"
         id="g100"
         transform="matrix(0.352778,0,0,0.352778,46.552967,78.077193)">
        <g
           id="use98"
           transform="translate(131.631,14.119)">
          <path
             d="m 14.453125,-13.46875 c 0.125,-0.140625 0.234375,-0.265625 0.234375,-0.46875 0,-0.15625 -0.01563,-0.171875 -0.5,-0.171875 H 5.65625 c -0.46875,0 -0.484375,0.01563 -0.609375,0.390625 L 3.90625,-10 c -0.0625,0.203125 -0.0625,0.25 -0.0625,0.296875 C 3.84375,-9.625 3.90625,-9.5 4.046875,-9.5 4.21875,-9.5 4.25,-9.578125 4.34375,-9.859375 c 0.765625,-2.21875 1.765625,-3.65625 5.03125,-3.65625 h 3.390625 l -11.3125,12.8125 c -0.1875,0.234375 -0.28125,0.3125 -0.28125,0.53125 C 1.171875,0 1.28125,0 1.671875,0 H 10.5 c 0.46875,0 0.484375,-0.015625 0.609375,-0.390625 l 1.453125,-4.5625 c 0.01563,-0.0625 0.0625,-0.21875 0.0625,-0.296875 0,-0.09375 -0.09375,-0.203125 -0.203125,-0.203125 -0.171875,0 -0.1875,0.015625 -0.359375,0.53125 -0.859375,2.671875 -1.78125,4.28125 -5.375,4.28125 H 3.125 Z m 0,0"
             id="path246" />
        </g>
      </g>
      <g
         clip-path="url(#clipPath4780)"
         id="g106"
         transform="matrix(0.352778,0,0,0.352778,46.552967,78.077193)">
        <g
           fill="#000000"
           fill-opacity="1"
           id="g104">
          <g
             id="use102"
             transform="translate(145.479,17.218)">
            <path
               d="m 5.015625,-4.546875 c 0.0625,-0.234375 0.0625,-0.4375 0.0625,-0.484375 0,-0.828125 -0.625,-1.296875 -1.265625,-1.296875 -1.453125,0 -2.21875,2.09375 -2.21875,2.203125 0,0.0625 0.0625,0.125 0.140625,0.125 0.109375,0 0.125,-0.0625 0.203125,-0.203125 0.578125,-1.390625 1.296875,-1.828125 1.828125,-1.828125 0.3125,0 0.46875,0.15625 0.46875,0.65625 0,0.34375 -0.046875,0.484375 -0.109375,0.734375 L 2.765625,0.78125 C 2.5,1.84375 1.828125,2.640625 1.03125,2.640625 c -0.0625,0 -0.359375,0 -0.625,-0.140625 C 0.75,2.421875 1.015625,2.15625 1.015625,1.8125 c 0,-0.234375 -0.171875,-0.46875 -0.484375,-0.46875 -0.375,0 -0.71875,0.3125 -0.71875,0.75 0,0.59375 0.625,0.828125 1.21875,0.828125 0.984375,0 2.296875,-0.734375 2.65625,-2.15625 z m 0.59375,-4.40625 c 0,-0.359375 -0.296875,-0.46875 -0.46875,-0.46875 -0.390625,0 -0.71875,0.375 -0.71875,0.6875 0,0.21875 0.171875,0.46875 0.484375,0.46875 0.328125,0 0.703125,-0.3125 0.703125,-0.6875 z m 0,0"
               id="path250" />
          </g>
        </g>
      </g>
      <g
         fill="#000000"
         fill-opacity="1"
         id="g112"
         transform="matrix(0.352778,0,0,0.352778,46.552967,78.077193)">
        <g
           id="use108"
           transform="translate(152.097,17.218)">
          <path
             d="M 5.71875,-3.3125 H 9.6875 c 0.203125,0 0.453125,0 0.453125,-0.265625 0,-0.265625 -0.25,-0.265625 -0.453125,-0.265625 H 5.71875 v -3.953125 c 0,-0.203125 0,-0.46875 -0.25,-0.46875 -0.28125,0 -0.28125,0.25 -0.28125,0.46875 V -3.84375 H 1.234375 c -0.203125,0 -0.453125,0 -0.453125,0.265625 0,0.265625 0.234375,0.265625 0.453125,0.265625 H 5.1875 v 3.953125 c 0,0.203125 0,0.46875 0.265625,0.46875 0.265625,0 0.265625,-0.25 0.265625,-0.46875 z m 0,0"
             id="path254" />
        </g>
        <g
           id="use110"
           transform="translate(163.02307,17.218)">
          <path
             d="m 4.125,-9.1875 c 0,-0.34375 0,-0.34375 -0.28125,-0.34375 C 3.5,-9.15625 2.78125,-8.625 1.3125,-8.625 v 0.421875 c 0.328125,0 1.046875,0 1.828125,-0.375 v 7.46875 c 0,0.515625 -0.046875,0.6875 -1.296875,0.6875 H 1.390625 V 0 c 0.390625,-0.03125 1.78125,-0.03125 2.25,-0.03125 0.46875,0 1.859375,0 2.234375,0.03125 V -0.421875 H 5.4375 c -1.265625,0 -1.3125,-0.171875 -1.3125,-0.6875 z m 0,0"
             id="path258" />
        </g>
      </g>
      <g
         fill="#000000"
         fill-opacity="1"
         id="g118"
         transform="matrix(0.352778,0,0,0.352778,46.552967,78.077193)">
        <g
           id="use114"
           transform="translate(170.04601,17.218)">
          <path
             d="m 2.796875,0.0625 c 0,-0.84375 -0.265625,-1.453125 -0.859375,-1.453125 -0.453125,0 -0.6875,0.375 -0.6875,0.6875 C 1.25,-0.390625 1.46875,0 1.953125,0 c 0.1875,0 0.34375,-0.0625 0.46875,-0.1875 0.03125,-0.03125 0.046875,-0.03125 0.0625,-0.03125 0.03125,0 0.03125,0.203125 0.03125,0.28125 0,0.46875 -0.09375,1.40625 -0.921875,2.328125 C 1.4375,2.5625 1.4375,2.59375 1.4375,2.625 c 0,0.078125 0.0625,0.140625 0.140625,0.140625 0.109375,0 1.21875,-1.0625 1.21875,-2.703125 z m 0,0"
             id="path262" />
        </g>
        <g
           id="use116"
           transform="translate(173.94817,17.218)">
          <path
             d="m 4.03125,-9.59375 c 0.015625,-0.0625 0.046875,-0.140625 0.046875,-0.21875 0,-0.140625 -0.140625,-0.140625 -0.171875,-0.140625 -0.015625,0 -0.53125,0.046875 -0.796875,0.0625 C 2.875,-9.875 2.65625,-9.84375 2.390625,-9.828125 c -0.34375,0.03125 -0.4375,0.046875 -0.4375,0.296875 0,0.15625 0.140625,0.15625 0.28125,0.15625 0.734375,0 0.734375,0.125 0.734375,0.265625 0,0.0625 0,0.09375 -0.078125,0.34375 L 0.84375,-0.5625 c -0.0625,0.21875 -0.0625,0.25 -0.0625,0.328125 0,0.328125 0.25,0.375 0.390625,0.375 0.40625,0 0.484375,-0.3125 0.609375,-0.75 l 0.671875,-2.6875 c 1.03125,0.109375 1.65625,0.546875 1.65625,1.234375 0,0.078125 0,0.140625 -0.046875,0.359375 C 4,-1.484375 4,-1.3125 4,-1.25 c 0,0.828125 0.546875,1.390625 1.28125,1.390625 0.65625,0 1,-0.59375 1.109375,-0.796875 0.3125,-0.53125 0.5,-1.34375 0.5,-1.390625 0,-0.078125 -0.0625,-0.140625 -0.15625,-0.140625 -0.125,0 -0.140625,0.0625 -0.1875,0.296875 -0.203125,0.75 -0.515625,1.75 -1.234375,1.75 -0.296875,0 -0.484375,-0.140625 -0.484375,-0.6875 0,-0.28125 0.0625,-0.59375 0.125,-0.8125 C 5,-1.890625 5,-1.90625 5,-2.078125 c 0,-0.84375 -0.75,-1.328125 -2.078125,-1.5 0.515625,-0.3125 1.03125,-0.875 1.234375,-1.078125 0.828125,-0.921875 1.375,-1.375 2.046875,-1.375 0.328125,0 0.40625,0.078125 0.515625,0.171875 C 6.1875,-5.8125 5.984375,-5.4375 5.984375,-5.15625 c 0,0.34375 0.265625,0.46875 0.46875,0.46875 0.390625,0 0.734375,-0.328125 0.734375,-0.796875 0,-0.40625 -0.328125,-0.84375 -0.984375,-0.84375 -0.78125,0 -1.421875,0.5625 -2.4375,1.703125 -0.15625,0.171875 -0.6875,0.71875 -1.21875,0.921875 z m 0,0"
             id="path266" />
        </g>
      </g>
      <g
         fill="#000000"
         fill-opacity="1"
         id="g124"
         transform="matrix(0.352778,0,0,0.352778,46.552967,78.077193)">
        <g
           id="use120"
           transform="translate(181.73599,17.218)">
          <path
             d="M 5.71875,-3.3125 H 9.6875 c 0.203125,0 0.453125,0 0.453125,-0.265625 0,-0.265625 -0.25,-0.265625 -0.453125,-0.265625 H 5.71875 v -3.953125 c 0,-0.203125 0,-0.46875 -0.25,-0.46875 -0.28125,0 -0.28125,0.25 -0.28125,0.46875 V -3.84375 H 1.234375 c -0.203125,0 -0.453125,0 -0.453125,0.265625 0,0.265625 0.234375,0.265625 0.453125,0.265625 H 5.1875 v 3.953125 c 0,0.203125 0,0.46875 0.265625,0.46875 0.265625,0 0.265625,-0.25 0.265625,-0.46875 z m 0,0"
             id="path270" />
        </g>
        <g
           id="use122"
           transform="translate(192.66206,17.218)">
          <path
             d="m 4.125,-9.1875 c 0,-0.34375 0,-0.34375 -0.28125,-0.34375 C 3.5,-9.15625 2.78125,-8.625 1.3125,-8.625 v 0.421875 c 0.328125,0 1.046875,0 1.828125,-0.375 v 7.46875 c 0,0.515625 -0.046875,0.6875 -1.296875,0.6875 H 1.390625 V 0 c 0.390625,-0.03125 1.78125,-0.03125 2.25,-0.03125 0.46875,0 1.859375,0 2.234375,0.03125 V -0.421875 H 5.4375 c -1.265625,0 -1.3125,-0.171875 -1.3125,-0.6875 z m 0,0"
             id="path274" />
        </g>
      </g>
    </g>
    <g
       id="g1336"
       transform="translate(-95.664913,47.132001)">
      <g
         fill="#000000"
         fill-opacity="1"
         id="g128"
         transform="matrix(0.352778,0,0,0.352778,46.552967,78.077193)">
        <g
           id="use126"
           transform="translate(206.42101,14.119)">
          <path
             d="m 14.453125,-13.46875 c 0.125,-0.140625 0.234375,-0.265625 0.234375,-0.46875 0,-0.15625 -0.01563,-0.171875 -0.5,-0.171875 H 5.65625 c -0.46875,0 -0.484375,0.01563 -0.609375,0.390625 L 3.90625,-10 c -0.0625,0.203125 -0.0625,0.25 -0.0625,0.296875 C 3.84375,-9.625 3.90625,-9.5 4.046875,-9.5 4.21875,-9.5 4.25,-9.578125 4.34375,-9.859375 c 0.765625,-2.21875 1.765625,-3.65625 5.03125,-3.65625 h 3.390625 l -11.3125,12.8125 c -0.1875,0.234375 -0.28125,0.3125 -0.28125,0.53125 C 1.171875,0 1.28125,0 1.671875,0 H 10.5 c 0.46875,0 0.484375,-0.015625 0.609375,-0.390625 l 1.453125,-4.5625 c 0.01563,-0.0625 0.0625,-0.21875 0.0625,-0.296875 0,-0.09375 -0.09375,-0.203125 -0.203125,-0.203125 -0.171875,0 -0.1875,0.015625 -0.359375,0.53125 -0.859375,2.671875 -1.78125,4.28125 -5.375,4.28125 H 3.125 Z m 0,0"
             id="path278" />
        </g>
      </g>
      <g
         id="g1139">
        <g
           clip-path="url(#clipPath971)"
           id="g134"
           transform="matrix(0.352778,0,0,0.352778,46.552967,78.077193)">
          <g
             fill="#000000"
             fill-opacity="1"
             id="g132">
            <g
               id="use130"
               transform="translate(220.269,17.218)">
              <path
                 d="m 5.015625,-4.546875 c 0.0625,-0.234375 0.0625,-0.4375 0.0625,-0.484375 0,-0.828125 -0.625,-1.296875 -1.265625,-1.296875 -1.453125,0 -2.21875,2.09375 -2.21875,2.203125 0,0.0625 0.0625,0.125 0.140625,0.125 0.109375,0 0.125,-0.0625 0.203125,-0.203125 0.578125,-1.390625 1.296875,-1.828125 1.828125,-1.828125 0.3125,0 0.46875,0.15625 0.46875,0.65625 0,0.34375 -0.046875,0.484375 -0.109375,0.734375 L 2.765625,0.78125 C 2.5,1.84375 1.828125,2.640625 1.03125,2.640625 c -0.0625,0 -0.359375,0 -0.625,-0.140625 C 0.75,2.421875 1.015625,2.15625 1.015625,1.8125 c 0,-0.234375 -0.171875,-0.46875 -0.484375,-0.46875 -0.375,0 -0.71875,0.3125 -0.71875,0.75 0,0.59375 0.625,0.828125 1.21875,0.828125 0.984375,0 2.296875,-0.734375 2.65625,-2.15625 z m 0.59375,-4.40625 c 0,-0.359375 -0.296875,-0.46875 -0.46875,-0.46875 -0.390625,0 -0.71875,0.375 -0.71875,0.6875 0,0.21875 0.171875,0.46875 0.484375,0.46875 0.328125,0 0.703125,-0.3125 0.703125,-0.6875 z m 0,0"
                 id="path282" />
            </g>
          </g>
        </g>
        <g
           fill="#000000"
           fill-opacity="1"
           id="g140"
           transform="matrix(0.352778,0,0,0.352778,46.552967,78.077193)">
          <g
             id="use136"
             transform="translate(226.10934,17.218)">
            <path
               d="m 2.796875,0.0625 c 0,-0.84375 -0.265625,-1.453125 -0.859375,-1.453125 -0.453125,0 -0.6875,0.375 -0.6875,0.6875 C 1.25,-0.390625 1.46875,0 1.953125,0 c 0.1875,0 0.34375,-0.0625 0.46875,-0.1875 0.03125,-0.03125 0.046875,-0.03125 0.0625,-0.03125 0.03125,0 0.03125,0.203125 0.03125,0.28125 0,0.46875 -0.09375,1.40625 -0.921875,2.328125 C 1.4375,2.5625 1.4375,2.59375 1.4375,2.625 c 0,0.078125 0.0625,0.140625 0.140625,0.140625 0.109375,0 1.21875,-1.0625 1.21875,-2.703125 z m 0,0"
               id="path286" />
          </g>
          <g
             id="use138"
             transform="translate(230.01151,17.218)">
            <path
               d="m 4.03125,-9.59375 c 0.015625,-0.0625 0.046875,-0.140625 0.046875,-0.21875 0,-0.140625 -0.140625,-0.140625 -0.171875,-0.140625 -0.015625,0 -0.53125,0.046875 -0.796875,0.0625 C 2.875,-9.875 2.65625,-9.84375 2.390625,-9.828125 c -0.34375,0.03125 -0.4375,0.046875 -0.4375,0.296875 0,0.15625 0.140625,0.15625 0.28125,0.15625 0.734375,0 0.734375,0.125 0.734375,0.265625 0,0.0625 0,0.09375 -0.078125,0.34375 L 0.84375,-0.5625 c -0.0625,0.21875 -0.0625,0.25 -0.0625,0.328125 0,0.328125 0.25,0.375 0.390625,0.375 0.40625,0 0.484375,-0.3125 0.609375,-0.75 l 0.671875,-2.6875 c 1.03125,0.109375 1.65625,0.546875 1.65625,1.234375 0,0.078125 0,0.140625 -0.046875,0.359375 C 4,-1.484375 4,-1.3125 4,-1.25 c 0,0.828125 0.546875,1.390625 1.28125,1.390625 0.65625,0 1,-0.59375 1.109375,-0.796875 0.3125,-0.53125 0.5,-1.34375 0.5,-1.390625 0,-0.078125 -0.0625,-0.140625 -0.15625,-0.140625 -0.125,0 -0.140625,0.0625 -0.1875,0.296875 -0.203125,0.75 -0.515625,1.75 -1.234375,1.75 -0.296875,0 -0.484375,-0.140625 -0.484375,-0.6875 0,-0.28125 0.0625,-0.59375 0.125,-0.8125 C 5,-1.890625 5,-1.90625 5,-2.078125 c 0,-0.84375 -0.75,-1.328125 -2.078125,-1.5 0.515625,-0.3125 1.03125,-0.875 1.234375,-1.078125 0.828125,-0.921875 1.375,-1.375 2.046875,-1.375 0.328125,0 0.40625,0.078125 0.515625,0.171875 C 6.1875,-5.8125 5.984375,-5.4375 5.984375,-5.15625 c 0,0.34375 0.265625,0.46875 0.46875,0.46875 0.390625,0 0.734375,-0.328125 0.734375,-0.796875 0,-0.40625 -0.328125,-0.84375 -0.984375,-0.84375 -0.78125,0 -1.421875,0.5625 -2.4375,1.703125 -0.15625,0.171875 -0.6875,0.71875 -1.21875,0.921875 z m 0,0"
               id="path290" />
          </g>
        </g>
        <g
           fill="#000000"
           fill-opacity="1"
           id="g146"
           transform="matrix(0.352778,0,0,0.352778,46.552967,78.077193)">
          <g
             id="use142"
             transform="translate(237.79601,17.218)">
            <path
               d="M 5.71875,-3.3125 H 9.6875 c 0.203125,0 0.453125,0 0.453125,-0.265625 0,-0.265625 -0.25,-0.265625 -0.453125,-0.265625 H 5.71875 v -3.953125 c 0,-0.203125 0,-0.46875 -0.25,-0.46875 -0.28125,0 -0.28125,0.25 -0.28125,0.46875 V -3.84375 H 1.234375 c -0.203125,0 -0.453125,0 -0.453125,0.265625 0,0.265625 0.234375,0.265625 0.453125,0.265625 H 5.1875 v 3.953125 c 0,0.203125 0,0.46875 0.265625,0.46875 0.265625,0 0.265625,-0.25 0.265625,-0.46875 z m 0,0"
               id="path294" />
          </g>
          <g
             id="use144"
             transform="translate(248.72206,17.218)">
            <path
               d="m 4.125,-9.1875 c 0,-0.34375 0,-0.34375 -0.28125,-0.34375 C 3.5,-9.15625 2.78125,-8.625 1.3125,-8.625 v 0.421875 c 0.328125,0 1.046875,0 1.828125,-0.375 v 7.46875 c 0,0.515625 -0.046875,0.6875 -1.296875,0.6875 H 1.390625 V 0 c 0.390625,-0.03125 1.78125,-0.03125 2.25,-0.03125 0.46875,0 1.859375,0 2.234375,0.03125 V -0.421875 H 5.4375 c -1.265625,0 -1.3125,-0.171875 -1.3125,-0.6875 z m 0,0"
               id="path298" />
          </g>
        </g>
      </g>
    </g>
    <g
       id="g1201"
       transform="translate(-109.304,116.12859)">
      <g
         fill="#000000"
         fill-opacity="1"
         id="g150"
         transform="matrix(0.352778,0,0,0.352778,46.552967,78.077193)">
        <g
           id="use148"
           transform="translate(262.48099,14.119)">
          <path
             d="m 14.453125,-13.46875 c 0.125,-0.140625 0.234375,-0.265625 0.234375,-0.46875 0,-0.15625 -0.01563,-0.171875 -0.5,-0.171875 H 5.65625 c -0.46875,0 -0.484375,0.01563 -0.609375,0.390625 L 3.90625,-10 c -0.0625,0.203125 -0.0625,0.25 -0.0625,0.296875 C 3.84375,-9.625 3.90625,-9.5 4.046875,-9.5 4.21875,-9.5 4.25,-9.578125 4.34375,-9.859375 c 0.765625,-2.21875 1.765625,-3.65625 5.03125,-3.65625 h 3.390625 l -11.3125,12.8125 c -0.1875,0.234375 -0.28125,0.3125 -0.28125,0.53125 C 1.171875,0 1.28125,0 1.671875,0 H 10.5 c 0.46875,0 0.484375,-0.015625 0.609375,-0.390625 l 1.453125,-4.5625 c 0.01563,-0.0625 0.0625,-0.21875 0.0625,-0.296875 0,-0.09375 -0.09375,-0.203125 -0.203125,-0.203125 -0.171875,0 -0.1875,0.015625 -0.359375,0.53125 -0.859375,2.671875 -1.78125,4.28125 -5.375,4.28125 H 3.125 Z m 0,0"
             id="path302" />
        </g>
      </g>
      <g
         clip-path="url(#clipPath2232)"
         id="g156"
         transform="matrix(0.352778,0,0,0.352778,46.552967,78.077193)">
        <g
           fill="#000000"
           fill-opacity="1"
           id="g154">
          <g
             id="use152"
             transform="translate(276.32901,17.218)">
            <path
               d="m 5.015625,-4.546875 c 0.0625,-0.234375 0.0625,-0.4375 0.0625,-0.484375 0,-0.828125 -0.625,-1.296875 -1.265625,-1.296875 -1.453125,0 -2.21875,2.09375 -2.21875,2.203125 0,0.0625 0.0625,0.125 0.140625,0.125 0.109375,0 0.125,-0.0625 0.203125,-0.203125 0.578125,-1.390625 1.296875,-1.828125 1.828125,-1.828125 0.3125,0 0.46875,0.15625 0.46875,0.65625 0,0.34375 -0.046875,0.484375 -0.109375,0.734375 L 2.765625,0.78125 C 2.5,1.84375 1.828125,2.640625 1.03125,2.640625 c -0.0625,0 -0.359375,0 -0.625,-0.140625 C 0.75,2.421875 1.015625,2.15625 1.015625,1.8125 c 0,-0.234375 -0.171875,-0.46875 -0.484375,-0.46875 -0.375,0 -0.71875,0.3125 -0.71875,0.75 0,0.59375 0.625,0.828125 1.21875,0.828125 0.984375,0 2.296875,-0.734375 2.65625,-2.15625 z m 0.59375,-4.40625 c 0,-0.359375 -0.296875,-0.46875 -0.46875,-0.46875 -0.390625,0 -0.71875,0.375 -0.71875,0.6875 0,0.21875 0.171875,0.46875 0.484375,0.46875 0.328125,0 0.703125,-0.3125 0.703125,-0.6875 z m 0,0"
               id="path306" />
          </g>
        </g>
      </g>
      <g
         fill="#000000"
         fill-opacity="1"
         id="g162"
         transform="matrix(0.352778,0,0,0.352778,46.552967,78.077193)">
        <g
           id="use158"
           transform="translate(282.16934,17.218)">
          <path
             d="m 2.796875,0.0625 c 0,-0.84375 -0.265625,-1.453125 -0.859375,-1.453125 -0.453125,0 -0.6875,0.375 -0.6875,0.6875 C 1.25,-0.390625 1.46875,0 1.953125,0 c 0.1875,0 0.34375,-0.0625 0.46875,-0.1875 0.03125,-0.03125 0.046875,-0.03125 0.0625,-0.03125 0.03125,0 0.03125,0.203125 0.03125,0.28125 0,0.46875 -0.09375,1.40625 -0.921875,2.328125 C 1.4375,2.5625 1.4375,2.59375 1.4375,2.625 c 0,0.078125 0.0625,0.140625 0.140625,0.140625 0.109375,0 1.21875,-1.0625 1.21875,-2.703125 z m 0,0"
             id="path310" />
        </g>
        <g
           id="use160"
           transform="translate(286.0715,17.218)">
          <path
             d="m 4.03125,-9.59375 c 0.015625,-0.0625 0.046875,-0.140625 0.046875,-0.21875 0,-0.140625 -0.140625,-0.140625 -0.171875,-0.140625 -0.015625,0 -0.53125,0.046875 -0.796875,0.0625 C 2.875,-9.875 2.65625,-9.84375 2.390625,-9.828125 c -0.34375,0.03125 -0.4375,0.046875 -0.4375,0.296875 0,0.15625 0.140625,0.15625 0.28125,0.15625 0.734375,0 0.734375,0.125 0.734375,0.265625 0,0.0625 0,0.09375 -0.078125,0.34375 L 0.84375,-0.5625 c -0.0625,0.21875 -0.0625,0.25 -0.0625,0.328125 0,0.328125 0.25,0.375 0.390625,0.375 0.40625,0 0.484375,-0.3125 0.609375,-0.75 l 0.671875,-2.6875 c 1.03125,0.109375 1.65625,0.546875 1.65625,1.234375 0,0.078125 0,0.140625 -0.046875,0.359375 C 4,-1.484375 4,-1.3125 4,-1.25 c 0,0.828125 0.546875,1.390625 1.28125,1.390625 0.65625,0 1,-0.59375 1.109375,-0.796875 0.3125,-0.53125 0.5,-1.34375 0.5,-1.390625 0,-0.078125 -0.0625,-0.140625 -0.15625,-0.140625 -0.125,0 -0.140625,0.0625 -0.1875,0.296875 -0.203125,0.75 -0.515625,1.75 -1.234375,1.75 -0.296875,0 -0.484375,-0.140625 -0.484375,-0.6875 0,-0.28125 0.0625,-0.59375 0.125,-0.8125 C 5,-1.890625 5,-1.90625 5,-2.078125 c 0,-0.84375 -0.75,-1.328125 -2.078125,-1.5 0.515625,-0.3125 1.03125,-0.875 1.234375,-1.078125 0.828125,-0.921875 1.375,-1.375 2.046875,-1.375 0.328125,0 0.40625,0.078125 0.515625,0.171875 C 6.1875,-5.8125 5.984375,-5.4375 5.984375,-5.15625 c 0,0.34375 0.265625,0.46875 0.46875,0.46875 0.390625,0 0.734375,-0.328125 0.734375,-0.796875 0,-0.40625 -0.328125,-0.84375 -0.984375,-0.84375 -0.78125,0 -1.421875,0.5625 -2.4375,1.703125 -0.15625,0.171875 -0.6875,0.71875 -1.21875,0.921875 z m 0,0"
             id="path314" />
        </g>
      </g>
    </g>
    <g
       id="g1268"
       transform="translate(-45.822002,101.82264)">
      <g
         fill="#000000"
         fill-opacity="1"
         id="g166"
         transform="matrix(0.352778,0,0,0.352778,46.552967,78.077193)">
        <g
           id="use164"
           transform="translate(300.59299,14.119)">
          <path
             d="m 14.453125,-13.46875 c 0.125,-0.140625 0.234375,-0.265625 0.234375,-0.46875 0,-0.15625 -0.01563,-0.171875 -0.5,-0.171875 H 5.65625 c -0.46875,0 -0.484375,0.01563 -0.609375,0.390625 L 3.90625,-10 c -0.0625,0.203125 -0.0625,0.25 -0.0625,0.296875 C 3.84375,-9.625 3.90625,-9.5 4.046875,-9.5 4.21875,-9.5 4.25,-9.578125 4.34375,-9.859375 c 0.765625,-2.21875 1.765625,-3.65625 5.03125,-3.65625 h 3.390625 l -11.3125,12.8125 c -0.1875,0.234375 -0.28125,0.3125 -0.28125,0.53125 C 1.171875,0 1.28125,0 1.671875,0 H 10.5 c 0.46875,0 0.484375,-0.015625 0.609375,-0.390625 l 1.453125,-4.5625 c 0.01563,-0.0625 0.0625,-0.21875 0.0625,-0.296875 0,-0.09375 -0.09375,-0.203125 -0.203125,-0.203125 -0.171875,0 -0.1875,0.015625 -0.359375,0.53125 -0.859375,2.671875 -1.78125,4.28125 -5.375,4.28125 H 3.125 Z m 0,0"
             id="path318" />
        </g>
      </g>
      <g
         clip-path="url(#clipPath6787)"
         id="g172"
         transform="matrix(0.352778,0,0,0.352778,46.552967,78.077193)">
        <g
           fill="#000000"
           fill-opacity="1"
           id="g170">
          <g
             id="use168"
             transform="translate(314.44,17.218)">
            <path
               d="m 5.015625,-4.546875 c 0.0625,-0.234375 0.0625,-0.4375 0.0625,-0.484375 0,-0.828125 -0.625,-1.296875 -1.265625,-1.296875 -1.453125,0 -2.21875,2.09375 -2.21875,2.203125 0,0.0625 0.0625,0.125 0.140625,0.125 0.109375,0 0.125,-0.0625 0.203125,-0.203125 0.578125,-1.390625 1.296875,-1.828125 1.828125,-1.828125 0.3125,0 0.46875,0.15625 0.46875,0.65625 0,0.34375 -0.046875,0.484375 -0.109375,0.734375 L 2.765625,0.78125 C 2.5,1.84375 1.828125,2.640625 1.03125,2.640625 c -0.0625,0 -0.359375,0 -0.625,-0.140625 C 0.75,2.421875 1.015625,2.15625 1.015625,1.8125 c 0,-0.234375 -0.171875,-0.46875 -0.484375,-0.46875 -0.375,0 -0.71875,0.3125 -0.71875,0.75 0,0.59375 0.625,0.828125 1.21875,0.828125 0.984375,0 2.296875,-0.734375 2.65625,-2.15625 z m 0.59375,-4.40625 c 0,-0.359375 -0.296875,-0.46875 -0.46875,-0.46875 -0.390625,0 -0.71875,0.375 -0.71875,0.6875 0,0.21875 0.171875,0.46875 0.484375,0.46875 0.328125,0 0.703125,-0.3125 0.703125,-0.6875 z m 0,0"
               id="path322" />
          </g>
        </g>
      </g>
      <g
         fill="#000000"
         fill-opacity="1"
         id="g178"
         transform="matrix(0.352778,0,0,0.352778,46.552967,78.077193)">
        <g
           id="use174"
           transform="translate(321.05899,17.218)">
          <path
             d="M 5.71875,-3.3125 H 9.6875 c 0.203125,0 0.453125,0 0.453125,-0.265625 0,-0.265625 -0.25,-0.265625 -0.453125,-0.265625 H 5.71875 v -3.953125 c 0,-0.203125 0,-0.46875 -0.25,-0.46875 -0.28125,0 -0.28125,0.25 -0.28125,0.46875 V -3.84375 H 1.234375 c -0.203125,0 -0.453125,0 -0.453125,0.265625 0,0.265625 0.234375,0.265625 0.453125,0.265625 H 5.1875 v 3.953125 c 0,0.203125 0,0.46875 0.265625,0.46875 0.265625,0 0.265625,-0.25 0.265625,-0.46875 z m 0,0"
             id="path326" />
        </g>
        <g
           id="use176"
           transform="translate(331.98508,17.218)">
          <path
             d="m 4.125,-9.1875 c 0,-0.34375 0,-0.34375 -0.28125,-0.34375 C 3.5,-9.15625 2.78125,-8.625 1.3125,-8.625 v 0.421875 c 0.328125,0 1.046875,0 1.828125,-0.375 v 7.46875 c 0,0.515625 -0.046875,0.6875 -1.296875,0.6875 H 1.390625 V 0 c 0.390625,-0.03125 1.78125,-0.03125 2.25,-0.03125 0.46875,0 1.859375,0 2.234375,0.03125 V -0.421875 H 5.4375 c -1.265625,0 -1.3125,-0.171875 -1.3125,-0.6875 z m 0,0"
             id="path330" />
        </g>
      </g>
      <g
         fill="#000000"
         fill-opacity="1"
         id="g184"
         transform="matrix(0.352778,0,0,0.352778,46.552967,78.077193)">
        <g
           id="use180"
           transform="translate(339.008,17.218)">
          <path
             d="m 2.796875,0.0625 c 0,-0.84375 -0.265625,-1.453125 -0.859375,-1.453125 -0.453125,0 -0.6875,0.375 -0.6875,0.6875 C 1.25,-0.390625 1.46875,0 1.953125,0 c 0.1875,0 0.34375,-0.0625 0.46875,-0.1875 0.03125,-0.03125 0.046875,-0.03125 0.0625,-0.03125 0.03125,0 0.03125,0.203125 0.03125,0.28125 0,0.46875 -0.09375,1.40625 -0.921875,2.328125 C 1.4375,2.5625 1.4375,2.59375 1.4375,2.625 c 0,0.078125 0.0625,0.140625 0.140625,0.140625 0.109375,0 1.21875,-1.0625 1.21875,-2.703125 z m 0,0"
             id="path334" />
        </g>
        <g
           id="use182"
           transform="translate(342.91016,17.218)">
          <path
             d="m 4.03125,-9.59375 c 0.015625,-0.0625 0.046875,-0.140625 0.046875,-0.21875 0,-0.140625 -0.140625,-0.140625 -0.171875,-0.140625 -0.015625,0 -0.53125,0.046875 -0.796875,0.0625 C 2.875,-9.875 2.65625,-9.84375 2.390625,-9.828125 c -0.34375,0.03125 -0.4375,0.046875 -0.4375,0.296875 0,0.15625 0.140625,0.15625 0.28125,0.15625 0.734375,0 0.734375,0.125 0.734375,0.265625 0,0.0625 0,0.09375 -0.078125,0.34375 L 0.84375,-0.5625 c -0.0625,0.21875 -0.0625,0.25 -0.0625,0.328125 0,0.328125 0.25,0.375 0.390625,0.375 0.40625,0 0.484375,-0.3125 0.609375,-0.75 l 0.671875,-2.6875 c 1.03125,0.109375 1.65625,0.546875 1.65625,1.234375 0,0.078125 0,0.140625 -0.046875,0.359375 C 4,-1.484375 4,-1.3125 4,-1.25 c 0,0.828125 0.546875,1.390625 1.28125,1.390625 0.65625,0 1,-0.59375 1.109375,-0.796875 0.3125,-0.53125 0.5,-1.34375 0.5,-1.390625 0,-0.078125 -0.0625,-0.140625 -0.15625,-0.140625 -0.125,0 -0.140625,0.0625 -0.1875,0.296875 -0.203125,0.75 -0.515625,1.75 -1.234375,1.75 -0.296875,0 -0.484375,-0.140625 -0.484375,-0.6875 0,-0.28125 0.0625,-0.59375 0.125,-0.8125 C 5,-1.890625 5,-1.90625 5,-2.078125 c 0,-0.84375 -0.75,-1.328125 -2.078125,-1.5 0.515625,-0.3125 1.03125,-0.875 1.234375,-1.078125 0.828125,-0.921875 1.375,-1.375 2.046875,-1.375 0.328125,0 0.40625,0.078125 0.515625,0.171875 C 6.1875,-5.8125 5.984375,-5.4375 5.984375,-5.15625 c 0,0.34375 0.265625,0.46875 0.46875,0.46875 0.390625,0 0.734375,-0.328125 0.734375,-0.796875 0,-0.40625 -0.328125,-0.84375 -0.984375,-0.84375 -0.78125,0 -1.421875,0.5625 -2.4375,1.703125 -0.15625,0.171875 -0.6875,0.71875 -1.21875,0.921875 z m 0,0"
             id="path338" />
        </g>
      </g>
    </g>
  </g>
</svg>
