<?xml version="1.0" encoding="UTF-8" standalone="no"?>
<!-- Created with Inkscape (http://www.inkscape.org/) -->

<svg
   width="210mm"
   height="297mm"
   viewBox="0 0 210 297"
   version="1.1"
   id="svg5"
   sodipodi:docname="homotopy.svg"
   inkscape:version="1.2.2 (b0a8486541, 2022-12-01)"
   xmlns:inkscape="http://www.inkscape.org/namespaces/inkscape"
   xmlns:sodipodi="http://sodipodi.sourceforge.net/DTD/sodipodi-0.dtd"
   xmlns="http://www.w3.org/2000/svg"
   xmlns:svg="http://www.w3.org/2000/svg">
  <sodipodi:namedview
     id="namedview7"
     pagecolor="#ffffff"
     bordercolor="#000000"
     borderopacity="0.25"
     inkscape:showpageshadow="2"
     inkscape:pageopacity="0.0"
     inkscape:pagecheckerboard="0"
     inkscape:deskcolor="#d1d1d1"
     inkscape:document-units="mm"
     showgrid="false"
     inkscape:zoom="1.54"
     inkscape:cx="407.79221"
     inkscape:cy="311.68831"
     inkscape:window-width="1888"
     inkscape:window-height="1008"
     inkscape:window-x="13"
     inkscape:window-y="53"
     inkscape:window-maximized="1"
     inkscape:current-layer="layer2" />
  <defs
     id="defs2">
    <clipPath
       id="clipPath3468">
      <path
         clip-rule="nonzero"
         d="m 146,0 h 5 v 20.628906 h -5 z m 0,0"
         id="path2319" />
    </clipPath>
    <clipPath
       id="clipPath3870">
      <path
         clip-rule="nonzero"
         d="m 199,0 h 5 v 20.628906 h -5 z m 0,0"
         id="path9141" />
    </clipPath>
    <clipPath
       id="clipPath3830">
      <path
         clip-rule="nonzero"
         d="m 286,0 h 5 v 20.628906 h -5 z m 0,0"
         id="path531" />
    </clipPath>
    <clipPath
       id="clipPath7587">
      <path
         clip-rule="nonzero"
         d="m 339,0 h 5 v 20.628906 h -5 z m 0,0"
         id="path6555" />
    </clipPath>
    <clipPath
       id="clipPath5868">
      <path
         clip-rule="nonzero"
         d="M 73,0 H 93 V 20.628906 H 73 Z m 0,0"
         id="path7265" />
    </clipPath>
    <clipPath
       id="clipPath5505">
      <path
         clip-rule="nonzero"
         d="m 140,0 h 6 v 20.628906 h -6 z m 0,0"
         id="path656" />
    </clipPath>
    <clipPath
       id="clipPath6766">
      <path
         clip-rule="nonzero"
         d="m 154,0 h 18 v 20.628906 h -18 z m 0,0"
         id="path7031" />
    </clipPath>
    <clipPath
       id="clipPath2250">
      <path
         clip-rule="nonzero"
         d="m 219,0 h 6 v 20.628906 h -6 z m 0,0"
         id="path6728" />
    </clipPath>
    <clipPath
       id="clipPath2250-3">
      <path
         clip-rule="nonzero"
         d="m 219,0 h 6 v 20.628906 h -6 z m 0,0"
         id="path6728-5" />
    </clipPath>
    <clipPath
       id="clipPath5505-7">
      <path
         clip-rule="nonzero"
         d="m 140,0 h 6 v 20.628906 h -6 z m 0,0"
         id="path656-5" />
    </clipPath>
    <clipPath
       clipPathUnits="userSpaceOnUse"
       id="clipPath2477">
      <g
         id="g2483"
         transform="matrix(2.8346439,0,0,2.8346439,-236.90188,-387.95137)">
        <g
           id="g2481">
          <path
             clip-rule="nonzero"
             d="m 78.984929,131.40006 h 7.05556 v 7.27742 h -7.05556 z m 0,0"
             id="path2479"
             style="stroke-width:0.352778" />
        </g>
      </g>
    </clipPath>
    <clipPath
       clipPathUnits="userSpaceOnUse"
       id="clipPath2485">
      <g
         id="g2491"
         transform="matrix(2.8346439,0,0,2.8346439,-223.65515,-387.95137)">
        <g
           id="g2489">
          <path
             clip-rule="nonzero"
             d="m 78.984929,131.40006 h 7.05556 v 7.27742 h -7.05556 z m 0,0"
             id="path2487"
             style="stroke-width:0.352778" />
        </g>
      </g>
    </clipPath>
    <clipPath
       clipPathUnits="userSpaceOnUse"
       id="clipPath2537">
      <g
         id="g2543"
         transform="matrix(2.8346439,0,0,2.8346439,-306.07084,-117.17234)">
        <g
           id="g2541">
          <path
             clip-rule="nonzero"
             d="m 104.04784,35.875173 h 6.35 v 7.277424 h -6.35 z m 0,0"
             id="path2539"
             style="stroke-width:0.352778" />
        </g>
      </g>
    </clipPath>
    <clipPath
       clipPathUnits="userSpaceOnUse"
       id="clipPath2545">
      <g
         id="g2551"
         transform="matrix(2.8346439,0,0,2.8346439,-294.16925,-117.17234)">
        <g
           id="g2549">
          <path
             clip-rule="nonzero"
             d="m 104.04784,35.875173 h 6.35 v 7.277424 h -6.35 z m 0,0"
             id="path2547"
             style="stroke-width:0.352778" />
        </g>
      </g>
    </clipPath>
    <clipPath
       id="clipPath3669">
      <path
         clip-rule="nonzero"
         d="m 33,14 h 6 v 10.507812 h -6 z m 0,0"
         id="path8595" />
    </clipPath>
  </defs>
  <g
     inkscape:label="Layer 1"
     inkscape:groupmode="layer"
     id="layer1">
    <rect
       style="fill:none;stroke:#000000;stroke-width:0.499999"
       id="rect234"
       width="53.248028"
       height="53.248028"
       x="22.889805"
       y="58.034286" />
    <path
       style="fill:none;stroke:#000000;stroke-width:0.499999"
       d="M 22.889804,84.658302 H 76.137833"
       id="path292" />
    <path
       style="fill:none;stroke:#000000;stroke-width:0.499999"
       d="m 113.1878,90.81055 c -0.22587,-15.260172 22.07461,-21.837676 35.76045,-28.592047 7.09151,-3.499872 15.17538,-6.60987 23.03052,-5.695873 7.40063,0.861112 16.31727,3.664684 19.88612,10.204876 4.55806,8.352991 -1.61229,18.967683 -2.78265,28.411127 -1.24612,10.054797 -3.70153,19.959197 -4.51149,30.058497 -0.27554,3.43564 2.03839,7.64785 -0.11455,10.33939 -2.80616,3.50818 -8.62562,3.28238 -13.11456,3.10564 -10.81006,-0.42562 -23.56203,-1.98578 -30.89608,-9.93878 -5.03836,-5.46357 -0.95301,-15.533 -5.08949,-21.70756 -2.98156,-4.45059 -8.75438,-6.17766 -13.07437,-9.345487 -3.05875,-2.242967 -9.03776,-3.047198 -9.0939,-6.839783 z"
       id="path294"
       sodipodi:nodetypes="ssssssssssss" />
    <path
       style="fill:none;stroke:#000000;stroke-width:0.689467;stroke-dasharray:none"
       d="m 135.92252,89.557263 c -0.12121,-8.184338 11.83905,-11.711986 19.17905,-15.334492 3.80332,-1.877051 8.13886,-3.545006 12.35174,-3.054812 3.96909,0.461833 8.75127,1.965445 10.66531,5.473082 2.44459,4.479878 -0.8647,10.17275 -1.49239,15.237461 -0.66831,5.392594 -1.98519,10.704528 -2.4196,16.120978 -0.14778,1.8426 1.09323,4.10171 -0.0614,5.54523 -1.505,1.8815 -4.62609,1.7604 -7.03361,1.66561 -5.79764,-0.22826 -12.63679,-1.065 -16.57018,-5.33036 -2.70218,-2.93022 -0.51112,-8.33066 -2.7296,-11.642204 -1.59907,-2.38694 -4.69515,-3.31321 -7.01204,-5.012179 -1.64048,-1.202948 -4.84713,-1.634274 -4.87725,-3.668314 z"
       id="path294-3"
       sodipodi:nodetypes="ssssssssssss" />
    <path
       style="fill:none;stroke:#000000;stroke-width:0.5;stroke-dasharray:none"
       d="m 149.72011,91.86985 c -0.0436,-2.94288 4.25702,-4.21133 6.8963,-5.51389 1.36758,-0.67494 2.92653,-1.2747 4.44137,-1.09844 1.42719,0.16607 3.14674,0.70673 3.83498,1.96799 0.87902,1.61085 -0.31092,3.65786 -0.53662,5.479 -0.24031,1.93905 -0.71383,3.84908 -0.87003,5.7967 -0.0531,0.66255 0.3931,1.47487 -0.0221,1.99392 -0.54116,0.67654 -1.66342,0.633 -2.52911,0.59892 -2.08469,-0.0821 -4.54387,-0.38295 -5.95822,-1.91667 -0.97163,-1.05363 -0.18379,-2.99549 -0.9815,-4.18624 -0.57498,-0.85828 -1.68825,-1.19134 -2.52135,-1.80225 -0.58987,-0.43255 -1.74291,-0.58765 -1.75373,-1.31904 z"
       id="path294-3-6"
       sodipodi:nodetypes="ssssssssssss" />
    <g
       id="g1875"
       transform="matrix(0.73551941,0,0,0.73551941,144.66812,-41.946135)">
      <g
         fill="#000000"
         fill-opacity="1"
         id="g70"
         transform="matrix(0.352778,0,0,0.352778,43.718183,131.06948)">
        <g
           id="use68"
           transform="translate(48.507,15.479)">
          <path
             d="M 7.8125,-2.515625 C 7.765625,-3.53125 7.71875,-5.125 6.9375,-6.984375 c -0.40625,-1.03125 -1.109375,-2.125 -2.625,-2.125 -2.53125,0 -3.921875,3.25 -3.921875,3.78125 0,0.1875 0.140625,0.1875 0.203125,0.1875 0.1875,0 0.1875,-0.046875 0.296875,-0.3125 0.4375,-1.28125 1.75,-2.296875 3.171875,-2.296875 2.875,0 3.296875,3.203125 3.296875,5.25 0,1.296875 -0.15625,1.734375 -0.28125,2.15625 -0.390625,1.265625 -1.0625,3.828125 -1.0625,4.40625 0,0.171875 0.0625,0.359375 0.21875,0.359375 0.3125,0 0.5,-0.6875 0.734375,-1.515625 0.484375,-1.8125 0.609375,-2.71875 0.71875,-3.546875 0.0625,-0.5 1.234375,-3.90625 2.875,-7.140625 0.140625,-0.34375 0.421875,-0.890625 0.421875,-0.953125 0,-0.03125 -0.01563,-0.171875 -0.203125,-0.171875 -0.04687,0 -0.140625,0 -0.1875,0.09375 -0.03125,0.03125 -0.765625,1.4375 -1.375,2.84375 -0.3125,0.703125 -0.734375,1.625 -1.40625,3.453125 z m 0,0"
             id="path148" />
        </g>
      </g>
      <g
         fill="#000000"
         fill-opacity="1"
         id="g74"
         transform="matrix(0.352778,0,0,0.352778,43.718183,131.06948)">
        <g
           id="use72"
           transform="translate(59.001999,18.577999)">
          <path
             d="M 6.3125,-2.40625 H 6 c -0.046875,0.234375 -0.15625,1.03125 -0.3125,1.265625 -0.09375,0.125 -0.90625,0.125 -1.34375,0.125 H 1.6875 c 0.390625,-0.328125 1.265625,-1.25 1.640625,-1.59375 2.1875,-2.015625 2.984375,-2.75 2.984375,-4.171875 0,-1.65625 -1.3125,-2.75 -2.96875,-2.75 -1.671875,0 -2.640625,1.40625 -2.640625,2.640625 0,0.734375 0.625,0.734375 0.671875,0.734375 0.296875,0 0.671875,-0.21875 0.671875,-0.671875 C 2.046875,-7.234375 1.78125,-7.5 1.375,-7.5 1.25,-7.5 1.21875,-7.5 1.171875,-7.484375 1.453125,-8.46875 2.21875,-9.125 3.15625,-9.125 4.375,-9.125 5.125,-8.109375 5.125,-6.78125 5.125,-5.5625 4.421875,-4.5 3.59375,-3.578125 L 0.703125,-0.34375 V 0 H 5.9375 Z m 0,0"
             id="path152" />
        </g>
      </g>
    </g>
    <path
       style="fill:#808080;stroke:none;stroke-width:1.22712;stroke-dasharray:none;stroke-opacity:1"
       d="m 643.50649,522.64637 c -10.56332,-0.59918 -28.35544,-2.31055 -36.15659,-3.47781 -32.39837,-4.84765 -56.80421,-15.21577 -72.6698,-30.87169 -4.25234,-4.19614 -5.79385,-6.28051 -7.92383,-10.71429 -3.6998,-7.70152 -4.61713,-13.16983 -5.66119,-33.74707 -0.49844,-9.82382 -1.33,-20.0542 -1.8479,-22.73419 -2.06074,-10.6636 -5.35658,-17.11505 -12.429,-24.3291 -5.43938,-5.54832 -10.489,-9.02252 -25.91645,-17.83085 -6.39691,-3.65232 -13.80878,-8.11031 -16.47084,-9.90665 -2.66205,-1.79633 -9.68392,-5.58342 -15.60415,-8.41575 -12.00192,-5.7419 -16.15647,-8.55435 -18.31819,-12.40062 -1.33928,-2.38293 -1.43365,-3.17449 -1.0943,-9.17932 1.30813,-23.14789 16.7568,-42.68438 48.8783,-61.81183 10.9637,-6.52857 31.93202,-16.83739 55.79836,-27.43257 9.64286,-4.28084 23.70732,-10.71043 31.25436,-14.28798 42.51039,-20.15138 66.75857,-24.68163 98.17883,-18.3426 32.76848,6.61104 54.79015,20.93454 62.84489,40.87606 2.913,7.21188 3.70689,13.0077 3.30152,24.10275 -0.42761,11.7038 -1.67591,18.2399 -7.53802,39.46915 -5.93384,21.48905 -7.02261,26.46041 -9.48805,43.32305 -1.25321,8.57143 -4.31645,27.41884 -6.80719,41.88312 -5.46369,31.72882 -7.38679,44.58356 -8.82323,58.97793 l -1.08879,10.91067 1.78422,10.99726 c 2.1146,13.03357 1.99926,17.6057 -0.55403,21.96257 -3.15161,5.37781 -8.96686,9.03754 -18.25932,11.49121 -4.29901,1.13515 -7.43429,1.4024 -18.18181,1.54982 -7.14286,0.098 -14.88637,0.0704 -17.2078,-0.0613 z m 8.11689,-87.29636 c 5.0012,-1.86352 9.11181,-5.80826 9.79205,-9.39693 0.29773,-1.57069 0.0904,-5.30583 -0.5311,-9.56826 -1.23251,-8.45288 -0.70347,-14.1667 3.74156,-40.41079 1.57275,-9.28572 3.46172,-20.85664 4.19773,-25.71317 0.736,-4.85653 2.76893,-14.2353 4.51761,-20.84171 4.04959,-15.29917 4.58085,-18.26504 4.58085,-25.5739 0,-13.28898 -5.50977,-21.96209 -18.28495,-28.78293 -8.99097,-4.8004 -21.75821,-7.85453 -32.83447,-7.85453 -11.7421,0 -22.85882,3.16147 -41.08837,11.68509 -5.53572,2.58833 -14.00974,6.4516 -18.83117,8.58503 -30.79412,13.62608 -45.01913,23.72461 -51.31426,36.42871 -2.35261,4.74775 -2.7613,6.21172 -3.05691,10.94996 -0.52644,8.4381 0.36684,9.66006 10.85041,14.84306 3.74215,1.85009 7.97917,4.15388 9.41558,5.11953 1.43642,0.96565 6.11816,3.76864 10.40388,6.22887 14.10876,8.09918 16.87971,12.36258 17.93076,27.58832 1.44322,20.90662 2.39417,24.00993 9.29459,30.33187 10.88709,9.97441 28.25107,15.80488 52.64478,17.67706 12.48461,0.95816 23.91436,0.44 28.57143,-1.29528 z"
       id="path2017"
       transform="scale(0.26458333)" />
    <path
       style="fill:#b3b3b3;stroke:none;stroke-width:1.22712;stroke-dasharray:none;stroke-opacity:1"
       d="m 623.85852,433.44553 c -21.6919,-1.69163 -37.74131,-6.51384 -48.28926,-14.50899 -8.16676,-6.19025 -9.83802,-10.06331 -10.68225,-24.75555 -0.32914,-5.72811 -0.91896,-12.168 -1.3107,-14.31086 -1.70036,-9.30118 -6.48338,-14.80252 -19.20141,-22.08504 -4.22762,-2.4208 -8.94146,-5.2588 -10.4752,-6.30667 -1.53374,-1.04787 -5.47855,-3.15758 -8.76624,-4.68825 -7.95683,-3.7045 -9.54904,-5.33987 -9.54904,-9.80788 0,-4.34086 1.88144,-10.42819 4.46976,-14.46174 1.10512,-1.72217 4.13106,-5.18833 6.72431,-7.70257 7.70312,-7.4684 18.30719,-13.82982 37.18255,-22.30595 5.71428,-2.56605 15.96469,-7.23703 22.77867,-10.37997 20.82805,-9.60689 30.19099,-12.09837 43.13042,-11.47698 19.50871,0.93685 36.62977,9.47077 42.35864,21.11347 2.07179,4.2105 2.12137,4.5118 2.10031,12.76537 -0.0209,8.18665 -0.13911,8.89784 -3.75109,22.56298 -2.31535,8.75965 -4.4568,18.85479 -5.64752,26.62337 -1.0549,6.88242 -2.93622,18.45056 -4.18072,25.70698 -1.2445,7.25642 -2.70548,17.0017 -3.24661,21.65619 -0.89404,7.68982 -0.88731,9.09964 0.0736,15.43675 0.58178,3.83665 0.84816,7.8083 0.5921,8.82847 -0.67933,2.70672 -4.48369,5.95957 -8.35977,7.1479 -4.11532,1.26167 -16.25042,1.70543 -25.95059,0.94897 z M 617.323,381.75134 c 1.77344,-1.32127 1.84581,-1.60541 2.23266,-8.76623 0.43948,-8.13475 2.5037,-21.39504 4.58894,-29.47862 1.61483,-6.25997 1.70919,-11.70363 0.25173,-14.52204 -2.59542,-5.019 -10.82891,-8.26897 -19.65434,-7.75807 -4.36305,0.25257 -6.17218,0.77712 -12.86407,3.72992 -21.24995,9.37654 -26.94286,13.89017 -26.94286,21.36169 0,2.79684 1.06297,4.32426 3.86789,5.55793 3.93529,1.73082 11.1641,6.43458 12.11197,7.88121 0.61783,0.94293 1.22598,3.91168 1.51428,7.39217 0.54396,6.56682 1.33153,8.19649 5.37746,11.12735 4.6005,3.33259 12.77963,5.14125 22.37348,4.94748 4.27259,-0.0863 5.66809,-0.37403 7.14286,-1.47279 z"
       id="path2019"
       transform="scale(0.26458333)" />
  </g>
  <g
     inkscape:groupmode="layer"
     id="layer2"
     inkscape:label="Layer 2">
    <g
       id="g1917"
       transform="translate(55.184384,-53.45033)"
       style="fill:#000000">
      <g
         clip-path="url(#clipPath6766)"
         id="g108"
         transform="matrix(0.352778,0,0,0.352778,43.718183,131.06948)"
         style="fill:#000000">
        <g
           fill="#000000"
           fill-opacity="1"
           id="g106"
           style="fill:#000000">
          <g
             id="use102"
             transform="translate(153.23067,15.479)"
             style="fill:#000000">
            <path
               d="m 10.703125,-14.0625 h -9.65625 v 0.53125 c 1.4375,0 1.65625,0 1.65625,0.9375 v 11.125 c 0,0.9375 -0.21875,0.9375 -1.65625,0.9375 V 0 c 0.609375,-0.046875 1.765625,-0.046875 2.40625,-0.046875 0.84375,0 1.828125,0 2.6875,0.046875 V -0.53125 H 5.6875 c -1.578125,0 -1.625,-0.21875 -1.625,-0.953125 V -12.71875 c 0,-0.703125 0.046875,-0.8125 0.875,-0.8125 h 2.265625 c 3.140625,0 3.3125,1.453125 3.625,4.03125 h 0.375 z m 0,0"
               id="path180"
               style="fill:#000000" />
          </g>
          <g
             id="use104"
             transform="translate(165.13226,15.479)"
             style="fill:#000000">
            <path
               d="m 6.328125,5.046875 c 0,-0.03125 0,-0.0625 -0.0625,-0.125 -0.953125,-0.96875 -3.5,-3.625 -3.5,-10.0625 0,-6.453125 2.5,-9.078125 3.515625,-10.109375 0,-0.01563 0.046875,-0.0625 0.046875,-0.125 0,-0.0625 -0.0625,-0.09375 -0.15625,-0.09375 -0.21875,0 -1.984375,1.53125 -2.984375,3.796875 -1.046875,2.296875 -1.328125,4.53125 -1.328125,6.5 0,1.5 0.140625,4.015625 1.390625,6.6875 0.984375,2.140625 2.671875,3.65625 2.921875,3.65625 0.109375,0 0.15625,-0.046875 0.15625,-0.125 z m 0,0"
               id="path184"
               style="fill:#000000" />
          </g>
        </g>
      </g>
      <g
         fill="#000000"
         fill-opacity="1"
         id="g112"
         transform="matrix(0.352778,0,0,0.352778,43.718183,131.06948)"
         style="fill:#000000">
        <g
           id="use110"
           transform="translate(172.44701,15.479)"
           style="fill:#000000">
          <path
             d="m 7.59375,-12.578125 c 0.1875,-0.71875 0.234375,-0.9375 1.75,-0.9375 0.453125,0 0.609375,0 0.609375,-0.390625 0,-0.203125 -0.21875,-0.203125 -0.28125,-0.203125 -0.375,0 -0.828125,0.04687 -1.203125,0.04687 H 5.921875 c -0.40625,0 -0.875,-0.04687 -1.296875,-0.04687 -0.15625,0 -0.390625,0 -0.390625,0.390625 0,0.203125 0.171875,0.203125 0.578125,0.203125 1.28125,0 1.28125,0.171875 1.28125,0.40625 0,0.140625 -0.046875,0.265625 -0.078125,0.453125 L 3.21875,-1.53125 C 3.03125,-0.8125 3,-0.59375 1.484375,-0.59375 c -0.453125,0 -0.640625,0 -0.640625,0.390625 C 0.84375,0 1.046875,0 1.15625,0 c 0.375,0 0.828125,-0.046875 1.203125,-0.046875 h 2.53125 C 5.3125,-0.046875 5.765625,0 6.171875,0 6.34375,0 6.59375,0 6.59375,-0.375 c 0,-0.21875 -0.125,-0.21875 -0.578125,-0.21875 -1.28125,0 -1.28125,-0.171875 -1.28125,-0.421875 0,-0.03125 0,-0.140625 0.078125,-0.46875 z m 0,0"
             id="path188"
             style="fill:#000000" />
        </g>
      </g>
      <g
         fill="#000000"
         fill-opacity="1"
         id="g116"
         transform="matrix(0.352778,0,0,0.352778,43.718183,131.06948)"
         style="fill:#000000">
        <g
           id="use114"
           transform="translate(187.586,15.479)"
           style="fill:#000000">
          <path
             d="m 8.03125,-5.75 -4.125,-4.109375 c -0.25,-0.234375 -0.296875,-0.28125 -0.453125,-0.28125 -0.203125,0 -0.421875,0.1875 -0.421875,0.40625 0,0.15625 0.046875,0.1875 0.28125,0.421875 l 4.125,4.140625 -4.125,4.15625 C 3.078125,-0.78125 3.03125,-0.75 3.03125,-0.59375 c 0,0.21875 0.21875,0.40625 0.421875,0.40625 0.15625,0 0.203125,-0.046875 0.453125,-0.28125 l 4.109375,-4.109375 4.28125,4.265625 c 0.03125,0.015625 0.171875,0.125 0.296875,0.125 0.25,0 0.421875,-0.1875 0.421875,-0.40625 0,-0.046875 0,-0.125 -0.0625,-0.234375 -0.01563,-0.046875 -3.3125,-3.28125 -4.34375,-4.34375 L 12.390625,-8.9375 C 12.5,-9.0625 12.8125,-9.34375 12.90625,-9.453125 c 0.03125,-0.046875 0.109375,-0.125 0.109375,-0.28125 0,-0.21875 -0.171875,-0.40625 -0.421875,-0.40625 -0.15625,0 -0.234375,0.07813 -0.46875,0.3125 z m 0,0"
             id="path192"
             style="fill:#000000" />
        </g>
      </g>
      <g
         fill="#000000"
         fill-opacity="1"
         id="g120"
         transform="matrix(0.352778,0,0,0.352778,43.718183,131.06948)"
         style="fill:#000000">
        <g
           id="use118"
           transform="translate(208.24899,15.479)"
           style="fill:#000000">
          <path
             d="m 7.59375,-12.578125 c 0.1875,-0.71875 0.234375,-0.9375 1.75,-0.9375 0.453125,0 0.609375,0 0.609375,-0.390625 0,-0.203125 -0.21875,-0.203125 -0.28125,-0.203125 -0.375,0 -0.828125,0.04687 -1.203125,0.04687 H 5.921875 c -0.40625,0 -0.875,-0.04687 -1.296875,-0.04687 -0.15625,0 -0.390625,0 -0.390625,0.390625 0,0.203125 0.171875,0.203125 0.578125,0.203125 1.28125,0 1.28125,0.171875 1.28125,0.40625 0,0.140625 -0.046875,0.265625 -0.078125,0.453125 L 3.21875,-1.53125 C 3.03125,-0.8125 3,-0.59375 1.484375,-0.59375 c -0.453125,0 -0.640625,0 -0.640625,0.390625 C 0.84375,0 1.046875,0 1.15625,0 c 0.375,0 0.828125,-0.046875 1.203125,-0.046875 h 2.53125 C 5.3125,-0.046875 5.765625,0 6.171875,0 6.34375,0 6.59375,0 6.59375,-0.375 c 0,-0.21875 -0.125,-0.21875 -0.578125,-0.21875 -1.28125,0 -1.28125,-0.171875 -1.28125,-0.421875 0,-0.03125 0,-0.140625 0.078125,-0.46875 z m 0,0"
             id="path196"
             style="fill:#000000" />
        </g>
      </g>
      <g
         clip-path="url(#clipPath2250)"
         id="g126"
         transform="matrix(0.352778,0,0,0.352778,43.718183,131.06948)"
         style="fill:#000000">
        <g
           fill="#000000"
           fill-opacity="1"
           id="g124"
           style="fill:#000000">
          <g
             id="use122"
             transform="translate(218.797,15.479)"
             style="fill:#000000">
            <path
               d="m 5.4375,-5.140625 c 0,-1.484375 -0.15625,-4.015625 -1.390625,-6.671875 -0.984375,-2.15625 -2.6875,-3.65625 -2.9375,-3.65625 -0.0625,0 -0.140625,0.01563 -0.140625,0.125 0,0.03125 0.015625,0.0625 0.046875,0.09375 C 2,-14.21875 4.53125,-11.59375 4.53125,-5.171875 4.53125,1.28125 2.03125,3.90625 1.015625,4.9375 0.984375,4.984375 0.96875,5 0.96875,5.046875 c 0,0.09375 0.078125,0.125 0.140625,0.125 0.234375,0 1.984375,-1.53125 3,-3.8125 1.03125,-2.28125 1.328125,-4.515625 1.328125,-6.5 z m 0,0"
               id="path200"
               style="fill:#000000" />
          </g>
        </g>
      </g>
    </g>
    <g
       id="g1896"
       transform="translate(154.77362,-9.9942492)">
      <g
         id="g2015"
         transform="translate(-66.909645,1.6495247)">
        <g
           clip-path="url(#clipPath5868)"
           id="g82"
           transform="matrix(0.352778,0,0,0.352778,43.718183,131.06948)">
          <g
             fill="#000000"
             fill-opacity="1"
             id="g80">
            <g
               id="use76"
               transform="translate(72.761002,15.479)">
              <path
                 d="m 6.9375,-14.25 c -0.09375,-0.328125 -0.125,-0.359375 -0.328125,-0.359375 -0.203125,0 -0.234375,0.03125 -0.328125,0.359375 L 2.203125,-1.90625 C 1.84375,-0.8125 1.15625,-0.5625 0.46875,-0.53125 V 0 c 0.359375,-0.015625 1.078125,-0.046875 1.453125,-0.046875 0.515625,0 1.328125,0 1.8125,0.046875 v -0.53125 c -1.09375,-0.046875 -1.15625,-0.828125 -1.15625,-0.984375 0,-0.140625 0.046875,-0.265625 0.109375,-0.46875 l 3.421875,-10.4375 3.59375,10.90625 c 0.109375,0.296875 0.109375,0.34375 0.109375,0.40625 0,0.578125 -0.875,0.578125 -1.296875,0.578125 V 0 c 0.59375,-0.046875 1.640625,-0.046875 2.28125,-0.046875 0.515625,0 1.46875,0 1.953125,0.046875 v -0.53125 c -0.90625,0 -1.28125,0 -1.53125,-0.734375 z m 0,0"
                 id="path156" />
            </g>
            <g
               id="use78"
               transform="translate(86.007729,15.479)">
              <path
                 d="m 6.328125,5.046875 c 0,-0.03125 0,-0.0625 -0.0625,-0.125 -0.953125,-0.96875 -3.5,-3.625 -3.5,-10.0625 0,-6.453125 2.5,-9.078125 3.515625,-10.109375 0,-0.01563 0.046875,-0.0625 0.046875,-0.125 0,-0.0625 -0.0625,-0.09375 -0.15625,-0.09375 -0.21875,0 -1.984375,1.53125 -2.984375,3.796875 -1.046875,2.296875 -1.328125,4.53125 -1.328125,6.5 0,1.5 0.140625,4.015625 1.390625,6.6875 0.984375,2.140625 2.671875,3.65625 2.921875,3.65625 0.109375,0 0.15625,-0.046875 0.15625,-0.125 z m 0,0"
                 id="path160" />
            </g>
          </g>
        </g>
        <g
           fill="#000000"
           fill-opacity="1"
           id="g86"
           transform="matrix(0.352778,0,0,0.352778,43.718183,131.06948)">
          <g
             id="use84"
             transform="translate(93.323997,15.479)">
            <path
               d="m 7.59375,-12.578125 c 0.1875,-0.71875 0.234375,-0.9375 1.75,-0.9375 0.453125,0 0.609375,0 0.609375,-0.390625 0,-0.203125 -0.21875,-0.203125 -0.28125,-0.203125 -0.375,0 -0.828125,0.04687 -1.203125,0.04687 H 5.921875 c -0.40625,0 -0.875,-0.04687 -1.296875,-0.04687 -0.15625,0 -0.390625,0 -0.390625,0.390625 0,0.203125 0.171875,0.203125 0.578125,0.203125 1.28125,0 1.28125,0.171875 1.28125,0.40625 0,0.140625 -0.046875,0.265625 -0.078125,0.453125 L 3.21875,-1.53125 C 3.03125,-0.8125 3,-0.59375 1.484375,-0.59375 c -0.453125,0 -0.640625,0 -0.640625,0.390625 C 0.84375,0 1.046875,0 1.15625,0 c 0.375,0 0.828125,-0.046875 1.203125,-0.046875 h 2.53125 C 5.3125,-0.046875 5.765625,0 6.171875,0 6.34375,0 6.59375,0 6.59375,-0.375 c 0,-0.21875 -0.125,-0.21875 -0.578125,-0.21875 -1.28125,0 -1.28125,-0.171875 -1.28125,-0.421875 0,-0.03125 0,-0.140625 0.078125,-0.46875 z m 0,0"
               id="path164" />
          </g>
        </g>
        <g
           fill="#000000"
           fill-opacity="1"
           id="g90"
           transform="matrix(0.352778,0,0,0.352778,43.718183,131.06948)">
          <g
             id="use88"
             transform="translate(108.464,15.479)">
            <path
               d="m 8.03125,-5.75 -4.125,-4.109375 c -0.25,-0.234375 -0.296875,-0.28125 -0.453125,-0.28125 -0.203125,0 -0.421875,0.1875 -0.421875,0.40625 0,0.15625 0.046875,0.1875 0.28125,0.421875 l 4.125,4.140625 -4.125,4.15625 C 3.078125,-0.78125 3.03125,-0.75 3.03125,-0.59375 c 0,0.21875 0.21875,0.40625 0.421875,0.40625 0.15625,0 0.203125,-0.046875 0.453125,-0.28125 l 4.109375,-4.109375 4.28125,4.265625 c 0.03125,0.015625 0.171875,0.125 0.296875,0.125 0.25,0 0.421875,-0.1875 0.421875,-0.40625 0,-0.046875 0,-0.125 -0.0625,-0.234375 -0.01563,-0.046875 -3.3125,-3.28125 -4.34375,-4.34375 L 12.390625,-8.9375 C 12.5,-9.0625 12.8125,-9.34375 12.90625,-9.453125 c 0.03125,-0.046875 0.109375,-0.125 0.109375,-0.28125 0,-0.21875 -0.171875,-0.40625 -0.421875,-0.40625 -0.15625,0 -0.234375,0.07813 -0.46875,0.3125 z m 0,0"
               id="path168" />
          </g>
        </g>
        <g
           fill="#000000"
           fill-opacity="1"
           id="g94"
           transform="matrix(0.352778,0,0,0.352778,43.718183,131.06948)">
          <g
             id="use92"
             transform="translate(129.12601,15.479)">
            <path
               d="m 7.59375,-12.578125 c 0.1875,-0.71875 0.234375,-0.9375 1.75,-0.9375 0.453125,0 0.609375,0 0.609375,-0.390625 0,-0.203125 -0.21875,-0.203125 -0.28125,-0.203125 -0.375,0 -0.828125,0.04687 -1.203125,0.04687 H 5.921875 c -0.40625,0 -0.875,-0.04687 -1.296875,-0.04687 -0.15625,0 -0.390625,0 -0.390625,0.390625 0,0.203125 0.171875,0.203125 0.578125,0.203125 1.28125,0 1.28125,0.171875 1.28125,0.40625 0,0.140625 -0.046875,0.265625 -0.078125,0.453125 L 3.21875,-1.53125 C 3.03125,-0.8125 3,-0.59375 1.484375,-0.59375 c -0.453125,0 -0.640625,0 -0.640625,0.390625 C 0.84375,0 1.046875,0 1.15625,0 c 0.375,0 0.828125,-0.046875 1.203125,-0.046875 h 2.53125 C 5.3125,-0.046875 5.765625,0 6.171875,0 6.34375,0 6.59375,0 6.59375,-0.375 c 0,-0.21875 -0.125,-0.21875 -0.578125,-0.21875 -1.28125,0 -1.28125,-0.171875 -1.28125,-0.421875 0,-0.03125 0,-0.140625 0.078125,-0.46875 z m 0,0"
               id="path172" />
          </g>
        </g>
        <g
           clip-path="url(#clipPath5505)"
           id="g100"
           transform="matrix(0.352778,0,0,0.352778,43.718183,131.06948)">
          <g
             fill="#000000"
             fill-opacity="1"
             id="g98">
            <g
               id="use96"
               transform="translate(139.674,15.479)">
              <path
                 d="m 5.4375,-5.140625 c 0,-1.484375 -0.15625,-4.015625 -1.390625,-6.671875 -0.984375,-2.15625 -2.6875,-3.65625 -2.9375,-3.65625 -0.0625,0 -0.140625,0.01563 -0.140625,0.125 0,0.03125 0.015625,0.0625 0.046875,0.09375 C 2,-14.21875 4.53125,-11.59375 4.53125,-5.171875 4.53125,1.28125 2.03125,3.90625 1.015625,4.9375 0.984375,4.984375 0.96875,5 0.96875,5.046875 c 0,0.09375 0.078125,0.125 0.140625,0.125 0.234375,0 1.984375,-1.53125 3,-3.8125 1.03125,-2.28125 1.328125,-4.515625 1.328125,-6.5 z m 0,0"
                 id="path176" />
            </g>
          </g>
        </g>
      </g>
    </g>
    <g
       id="g1859"
       transform="matrix(0.73551942,0,0,0.73551942,133.20531,3.3036726)">
      <g
         fill="#000000"
         fill-opacity="1"
         id="g54"
         transform="matrix(0.352778,0,0,0.352778,43.718183,131.06948)">
        <g
           id="use52"
           transform="translate(0,15.479)">
          <path
             d="M 7.8125,-2.515625 C 7.765625,-3.53125 7.71875,-5.125 6.9375,-6.984375 c -0.40625,-1.03125 -1.109375,-2.125 -2.625,-2.125 -2.53125,0 -3.921875,3.25 -3.921875,3.78125 0,0.1875 0.140625,0.1875 0.203125,0.1875 0.1875,0 0.1875,-0.046875 0.296875,-0.3125 0.4375,-1.28125 1.75,-2.296875 3.171875,-2.296875 2.875,0 3.296875,3.203125 3.296875,5.25 0,1.296875 -0.15625,1.734375 -0.28125,2.15625 -0.390625,1.265625 -1.0625,3.828125 -1.0625,4.40625 0,0.171875 0.0625,0.359375 0.21875,0.359375 0.3125,0 0.5,-0.6875 0.734375,-1.515625 0.484375,-1.8125 0.609375,-2.71875 0.71875,-3.546875 0.0625,-0.5 1.234375,-3.90625 2.875,-7.140625 0.140625,-0.34375 0.421875,-0.890625 0.421875,-0.953125 0,-0.03125 -0.01563,-0.171875 -0.203125,-0.171875 -0.04687,0 -0.140625,0 -0.1875,0.09375 -0.03125,0.03125 -0.765625,1.4375 -1.375,2.84375 -0.3125,0.703125 -0.734375,1.625 -1.40625,3.453125 z m 0,0"
             id="path132" />
        </g>
      </g>
      <g
         fill="#000000"
         fill-opacity="1"
         id="g58"
         transform="matrix(0.352778,0,0,0.352778,43.718183,131.06948)">
        <g
           id="use56"
           transform="translate(10.494,18.577999)">
          <path
             d="m 6.421875,-4.59375 c 0,-1.1875 -0.0625,-2.34375 -0.578125,-3.4375 -0.59375,-1.1875 -1.625,-1.5 -2.328125,-1.5 -0.828125,0 -1.859375,0.40625 -2.375,1.59375 -0.40625,0.90625 -0.546875,1.796875 -0.546875,3.34375 0,1.390625 0.09375,2.4375 0.609375,3.453125 0.5625,1.09375 1.546875,1.4375 2.296875,1.4375 1.25,0 1.96875,-0.734375 2.375,-1.578125 0.515625,-1.078125 0.546875,-2.484375 0.546875,-3.3125 z M 3.5,0.015625 C 3.046875,0.015625 2.109375,-0.25 1.84375,-1.8125 1.671875,-2.671875 1.671875,-3.765625 1.671875,-4.765625 1.671875,-5.9375 1.671875,-7 1.90625,-7.84375 2.15625,-8.8125 2.890625,-9.25 3.5,-9.25 c 0.546875,0 1.375,0.328125 1.65625,1.5625 0.171875,0.8125 0.171875,1.953125 0.171875,2.921875 0,0.96875 0,2.046875 -0.15625,2.921875 C 4.90625,-0.265625 4,0.015625 3.5,0.015625 Z m 0,0"
             id="path136" />
        </g>
      </g>
    </g>
    <g
       id="g1867"
       transform="matrix(0.73551942,0,0,0.73551942,140.80149,17.543578)">
      <g
         fill="#000000"
         fill-opacity="1"
         id="g62"
         transform="matrix(0.352778,0,0,0.352778,43.718183,131.06948)">
        <g
           id="use60"
           transform="translate(24.254,15.479)">
          <path
             d="M 7.8125,-2.515625 C 7.765625,-3.53125 7.71875,-5.125 6.9375,-6.984375 c -0.40625,-1.03125 -1.109375,-2.125 -2.625,-2.125 -2.53125,0 -3.921875,3.25 -3.921875,3.78125 0,0.1875 0.140625,0.1875 0.203125,0.1875 0.1875,0 0.1875,-0.046875 0.296875,-0.3125 0.4375,-1.28125 1.75,-2.296875 3.171875,-2.296875 2.875,0 3.296875,3.203125 3.296875,5.25 0,1.296875 -0.15625,1.734375 -0.28125,2.15625 -0.390625,1.265625 -1.0625,3.828125 -1.0625,4.40625 0,0.171875 0.0625,0.359375 0.21875,0.359375 0.3125,0 0.5,-0.6875 0.734375,-1.515625 0.484375,-1.8125 0.609375,-2.71875 0.71875,-3.546875 0.0625,-0.5 1.234375,-3.90625 2.875,-7.140625 0.140625,-0.34375 0.421875,-0.890625 0.421875,-0.953125 0,-0.03125 -0.01563,-0.171875 -0.203125,-0.171875 -0.04687,0 -0.140625,0 -0.1875,0.09375 -0.03125,0.03125 -0.765625,1.4375 -1.375,2.84375 -0.3125,0.703125 -0.734375,1.625 -1.40625,3.453125 z m 0,0"
             id="path140" />
        </g>
      </g>
      <g
         fill="#000000"
         fill-opacity="1"
         id="g66"
         transform="matrix(0.352778,0,0,0.352778,43.718183,131.06948)">
        <g
           id="use64"
           transform="translate(34.748001,18.577999)">
          <path
             d="m 4.125,-9.1875 c 0,-0.34375 0,-0.34375 -0.28125,-0.34375 C 3.5,-9.15625 2.78125,-8.625 1.3125,-8.625 v 0.421875 c 0.328125,0 1.046875,0 1.828125,-0.375 v 7.46875 c 0,0.515625 -0.046875,0.6875 -1.296875,0.6875 H 1.390625 V 0 c 0.390625,-0.03125 1.78125,-0.03125 2.25,-0.03125 0.46875,0 1.859375,0 2.234375,0.03125 V -0.421875 H 5.4375 c -1.265625,0 -1.3125,-0.171875 -1.3125,-0.6875 z m 0,0"
             id="path144" />
        </g>
      </g>
    </g>
    <g
       id="use102-1"
       transform="matrix(0.352778,0,0,0.352778,47.353053,100.01455)"
       style="fill:#000000;fill-opacity:1"
       clip-path="url(#clipPath2545)">
      <path
         d="m 10.703125,-14.0625 h -9.65625 v 0.53125 c 1.4375,0 1.65625,0 1.65625,0.9375 v 11.125 c 0,0.9375 -0.21875,0.9375 -1.65625,0.9375 V 0 c 0.609375,-0.046875 1.765625,-0.046875 2.40625,-0.046875 0.84375,0 1.828125,0 2.6875,0.046875 V -0.53125 H 5.6875 c -1.578125,0 -1.625,-0.21875 -1.625,-0.953125 V -12.71875 c 0,-0.703125 0.046875,-0.8125 0.875,-0.8125 h 2.265625 c 3.140625,0 3.3125,1.453125 3.625,4.03125 h 0.375 z m 0,0"
         id="path180-2"
         style="fill:#000000" />
    </g>
    <g
       id="use76-9"
       transform="matrix(0.352778,0,0,0.352778,47.182177,73.31303)"
       style="fill:#000000;fill-opacity:1"
       clip-path="url(#clipPath2485)">
      <path
         d="m 6.9375,-14.25 c -0.09375,-0.328125 -0.125,-0.359375 -0.328125,-0.359375 -0.203125,0 -0.234375,0.03125 -0.328125,0.359375 L 2.203125,-1.90625 C 1.84375,-0.8125 1.15625,-0.5625 0.46875,-0.53125 V 0 c 0.359375,-0.015625 1.078125,-0.046875 1.453125,-0.046875 0.515625,0 1.328125,0 1.8125,0.046875 v -0.53125 c -1.09375,-0.046875 -1.15625,-0.828125 -1.15625,-0.984375 0,-0.140625 0.046875,-0.265625 0.109375,-0.46875 l 3.421875,-10.4375 3.59375,10.90625 c 0.109375,0.296875 0.109375,0.34375 0.109375,0.40625 0,0.578125 -0.875,0.578125 -1.296875,0.578125 V 0 c 0.59375,-0.046875 1.640625,-0.046875 2.28125,-0.046875 0.515625,0 1.46875,0 1.953125,0.046875 v -0.53125 c -0.90625,0 -1.28125,0 -1.53125,-0.734375 z m 0,0"
         id="path156-7" />
    </g>
    <g
       fill="#000000"
       fill-opacity="1"
       id="g29"
       transform="matrix(0.352778,0,0,0.352778,19.580559,110.2183)">
      <g
         id="use27"
         transform="translate(0,17.381001)">
        <path
           d="m 8.671875,-6.625 c 0,-1.265625 -0.015625,-3.40625 -0.890625,-5.0625 -0.765625,-1.453125 -1.984375,-1.96875 -3.046875,-1.96875 -1,0 -2.25,0.453125 -3.046875,1.9375 -0.8125,1.5625 -0.90625,3.484375 -0.90625,5.09375 0,1.171875 0.03125,2.96875 0.671875,4.53125 0.875,2.140625 2.46875,2.421875 3.28125,2.421875 C 5.6875,0.328125 7.125,-0.0625 7.96875,-2.03125 8.59375,-3.453125 8.671875,-5.125 8.671875,-6.625 Z M 4.734375,0 C 3.40625,0 2.625,-1.140625 2.328125,-2.703125 c -0.21875,-1.21875 -0.21875,-3 -0.21875,-4.15625 0,-1.59375 0,-2.90625 0.265625,-4.171875 0.390625,-1.75 1.546875,-2.296875 2.359375,-2.296875 0.84375,0 1.9375,0.5625 2.328125,2.25 0.265625,1.1875 0.296875,2.5625 0.296875,4.21875 0,1.34375 0,3 -0.25,4.21875 C 6.671875,-0.390625 5.453125,0 4.734375,0 Z m 0,0"
           id="path59" />
      </g>
    </g>
    <g
       fill="#000000"
       fill-opacity="1"
       id="g33"
       transform="matrix(0.352778,0,0,0.352778,14.295407,51.652652)">
      <g
         id="use31"
         transform="translate(15.715897,17.381001)">
        <path
           d="m 5.5,-13.203125 c 0,-0.4375 -0.03125,-0.453125 -0.3125,-0.453125 C 4.375,-12.6875 3.15625,-12.375 2,-12.328125 c -0.0625,0 -0.15625,0 -0.1875,0.03125 -0.015625,0.04687 -0.015625,0.09375 -0.015625,0.515625 0.640625,0 1.71875,-0.109375 2.546875,-0.609375 v 10.875 c 0,0.734375 -0.046875,0.984375 -1.828125,0.984375 H 1.90625 V 0 C 2.890625,-0.015625 3.921875,-0.046875 4.921875,-0.046875 5.90625,-0.046875 6.9375,-0.015625 7.9375,0 V -0.53125 H 7.3125 C 5.53125,-0.53125 5.5,-0.765625 5.5,-1.515625 Z m 0,0"
           id="path63" />
      </g>
    </g>
    <g
       id="g2856"
       transform="translate(-73.142504,-40.978549)">
      <g
         fill="#000000"
         fill-opacity="1"
         id="g37"
         transform="matrix(0.352778,0,0,0.352778,80.251121,121.36475)">
        <g
           id="use35"
           transform="translate(32.623001,9.2449999)">
          <path
             d="m 4.125,-9.1875 c 0,-0.34375 0,-0.34375 -0.28125,-0.34375 C 3.5,-9.15625 2.78125,-8.625 1.3125,-8.625 v 0.421875 c 0.328125,0 1.046875,0 1.828125,-0.375 v 7.46875 c 0,0.515625 -0.046875,0.6875 -1.296875,0.6875 H 1.390625 V 0 c 0.390625,-0.03125 1.78125,-0.03125 2.25,-0.03125 0.46875,0 1.859375,0 2.234375,0.03125 V -0.421875 H 5.4375 c -1.265625,0 -1.3125,-0.171875 -1.3125,-0.6875 z m 0,0"
             id="path67" />
        </g>
      </g>
      <path
         fill="none"
         stroke-width="0.291395"
         stroke-linecap="butt"
         stroke-linejoin="miter"
         stroke="#000000"
         stroke-opacity="1"
         stroke-miterlimit="10"
         d="m 91.759125,125.67388 h 2.479092"
         id="path39" />
      <g
         clip-path="url(#clipPath3669)"
         id="g45"
         transform="matrix(0.352778,0,0,0.352778,80.251121,121.36475)">
        <g
           fill="#000000"
           fill-opacity="1"
           id="g43">
          <g
             id="use41"
             transform="translate(32.623001,24.506001)">
            <path
               d="M 6.3125,-2.40625 H 6 c -0.046875,0.234375 -0.15625,1.03125 -0.3125,1.265625 -0.09375,0.125 -0.90625,0.125 -1.34375,0.125 H 1.6875 c 0.390625,-0.328125 1.265625,-1.25 1.640625,-1.59375 2.1875,-2.015625 2.984375,-2.75 2.984375,-4.171875 0,-1.65625 -1.3125,-2.75 -2.96875,-2.75 -1.671875,0 -2.640625,1.40625 -2.640625,2.640625 0,0.734375 0.625,0.734375 0.671875,0.734375 0.296875,0 0.671875,-0.21875 0.671875,-0.671875 C 2.046875,-7.234375 1.78125,-7.5 1.375,-7.5 1.25,-7.5 1.21875,-7.5 1.171875,-7.484375 1.453125,-8.46875 2.21875,-9.125 3.15625,-9.125 4.375,-9.125 5.125,-8.109375 5.125,-6.78125 5.125,-5.5625 4.421875,-4.5 3.59375,-3.578125 L 0.703125,-0.34375 V 0 H 5.9375 Z m 0,0"
               id="path71" />
          </g>
        </g>
      </g>
    </g>
    <g
       fill="#000000"
       fill-opacity="1"
       id="g49"
       transform="matrix(0.352778,0,0,0.352778,29.209129,112.82279)">
      <g
         id="use47"
         transform="translate(47.080002,17.381001)">
        <path
           d="m 7.59375,-12.578125 c 0.1875,-0.71875 0.234375,-0.9375 1.75,-0.9375 0.453125,0 0.609375,0 0.609375,-0.390625 0,-0.203125 -0.21875,-0.203125 -0.28125,-0.203125 -0.375,0 -0.828125,0.04687 -1.203125,0.04687 H 5.921875 c -0.40625,0 -0.875,-0.04687 -1.296875,-0.04687 -0.15625,0 -0.390625,0 -0.390625,0.390625 0,0.203125 0.171875,0.203125 0.578125,0.203125 1.28125,0 1.28125,0.171875 1.28125,0.40625 0,0.140625 -0.046875,0.265625 -0.078125,0.453125 L 3.21875,-1.53125 C 3.03125,-0.8125 3,-0.59375 1.484375,-0.59375 c -0.453125,0 -0.640625,0 -0.640625,0.390625 C 0.84375,0 1.046875,0 1.15625,0 c 0.375,0 0.828125,-0.046875 1.203125,-0.046875 h 2.53125 C 5.3125,-0.046875 5.765625,0 6.171875,0 6.34375,0 6.59375,0 6.59375,-0.375 c 0,-0.21875 -0.125,-0.21875 -0.578125,-0.21875 -1.28125,0 -1.28125,-0.171875 -1.28125,-0.421875 0,-0.03125 0,-0.140625 0.078125,-0.46875 z m 0,0"
           id="path75" />
      </g>
    </g>
    <g
       fill="#000000"
       fill-opacity="1"
       id="g53"
       transform="matrix(0.352778,0,0,0.352778,57.230822,80.765406)">
      <g
         id="use51"
         transform="translate(63.855885,17.381001)">
        <path
           d="m 7.59375,-12.578125 c 0.1875,-0.71875 0.234375,-0.9375 1.75,-0.9375 0.453125,0 0.609375,0 0.609375,-0.390625 0,-0.203125 -0.21875,-0.203125 -0.28125,-0.203125 -0.375,0 -0.828125,0.04687 -1.203125,0.04687 H 5.921875 c -0.40625,0 -0.875,-0.04687 -1.296875,-0.04687 -0.15625,0 -0.390625,0 -0.390625,0.390625 0,0.203125 0.171875,0.203125 0.578125,0.203125 1.28125,0 1.28125,0.171875 1.28125,0.40625 0,0.140625 -0.046875,0.265625 -0.078125,0.453125 L 3.21875,-1.53125 C 3.03125,-0.8125 3,-0.59375 1.484375,-0.59375 c -0.453125,0 -0.640625,0 -0.640625,0.390625 C 0.84375,0 1.046875,0 1.15625,0 c 0.375,0 0.828125,-0.046875 1.203125,-0.046875 h 2.53125 C 5.3125,-0.046875 5.765625,0 6.171875,0 6.34375,0 6.59375,0 6.59375,-0.375 c 0,-0.21875 -0.125,-0.21875 -0.578125,-0.21875 -1.28125,0 -1.28125,-0.171875 -1.28125,-0.421875 0,-0.03125 0,-0.140625 0.078125,-0.46875 z m 0,0"
           id="path79" />
      </g>
    </g>
  </g>
</svg>
