<?xml version="1.0" encoding="UTF-8" standalone="no"?>
<!-- Created with Inkscape (http://www.inkscape.org/) -->

<svg
   width="210mm"
   height="297mm"
   viewBox="0 0 210 297"
   version="1.1"
   id="svg5"
   inkscape:version="1.2.2 (b0a8486541, 2022-12-01)"
   sodipodi:docname="rectifiable_curve.svg"
   xmlns:inkscape="http://www.inkscape.org/namespaces/inkscape"
   xmlns:sodipodi="http://sodipodi.sourceforge.net/DTD/sodipodi-0.dtd"
   xmlns="http://www.w3.org/2000/svg"
   xmlns:svg="http://www.w3.org/2000/svg">
  <sodipodi:namedview
     id="namedview7"
     pagecolor="#ffffff"
     bordercolor="#000000"
     borderopacity="0.25"
     inkscape:showpageshadow="2"
     inkscape:pageopacity="0.0"
     inkscape:pagecheckerboard="0"
     inkscape:deskcolor="#d1d1d1"
     inkscape:document-units="mm"
     showgrid="false"
     inkscape:zoom="1.017006"
     inkscape:cx="499.50543"
     inkscape:cy="506.38838"
     inkscape:window-width="1888"
     inkscape:window-height="1008"
     inkscape:window-x="13"
     inkscape:window-y="53"
     inkscape:window-maximized="1"
     inkscape:current-layer="layer1" />
  <defs
     id="defs2">
    <clipPath
       id="clipPath7307">
      <path
         clip-rule="nonzero"
         d="m 13,0 h 5 v 20.628906 h -5 z m 0,0"
         id="path1915" />
    </clipPath>
    <clipPath
       id="clipPath8717">
      <path
         clip-rule="nonzero"
         d="m 30,0 h 5 v 20.628906 h -5 z m 0,0"
         id="path6072" />
    </clipPath>
    <clipPath
       id="clipPath3738">
      <path
         clip-rule="nonzero"
         d="m 56,0 h 6 v 20.628906 h -6 z m 0,0"
         id="path6233" />
    </clipPath>
    <clipPath
       id="clipPath7088">
      <path
         clip-rule="nonzero"
         d="m 71,0 h 6 v 20.628906 h -6 z m 0,0"
         id="path9702" />
    </clipPath>
  </defs>
  <g
     inkscape:label="Layer 1"
     inkscape:groupmode="layer"
     id="layer1">
    <path
       style="fill:none;stroke:#000000;stroke-width:0.499999"
       d="m 18.753593,192.08812 c 0,0 -5.228534,-22.47014 1.576113,-39.06853 3.263892,-7.96152 17.649044,-10.72172 20.968423,-16.25866 4.892595,-8.16117 9.939131,-17.3072 18.240214,-21.95845 10.247708,-5.74198 23.129787,-5.11758 34.876337,-5.05111 12.17045,0.0689 24.52007,1.81506 36.07338,5.642 12.21761,4.04698 29.81768,5.87313 34.16588,17.98681 2.71074,7.55188 -4.68567,15.63953 -9.3062,22.19923 -7.71039,10.94633 -16.31407,28.28137 -29.65089,27.09753 -11.3061,-1.00358 -20.94762,-15.69211 -20.69685,-27.03989 0.18466,-8.35615 8.76968,-15.21251 16.10524,-19.21861 6.91106,-3.77427 16.81662,1.28836 23.43502,-2.97832 8.42811,-5.43335 15.6564,-15.58853 15.77449,-25.61551 C 160.54268,88.470246 149.72511,62.725397 131.03924,57.677478 114.20951,53.130989 85.515573,83.422179 85.515573,83.422179"
       id="path792"
       sodipodi:nodetypes="csssssssssssssc" />
    <path
       style="fill:none;stroke:#000000;stroke-width:0.5;stroke-dasharray:3, 3;stroke-dashoffset:0"
       d="m 18.753588,192.08812 12.411745,-30.46002 10.132791,-24.86718 18.240214,-21.95844 34.876342,-5.05111 36.07337,5.642 34.16589,17.98681 -9.3062,22.19923 -29.65089,27.09753 L 105,155.63704 l 16.10524,-19.21861 23.43502,-2.97832 15.77449,-25.61551 -29.27551,-50.14713 -45.523672,25.7447"
       id="path792-3"
       sodipodi:nodetypes="ccccccccccccccc" />
    <g
       id="g1131"
       transform="translate(-30.710387,3.6407792)">
      <g
         fill="#000000"
         fill-opacity="1"
         id="g37"
         transform="matrix(0.352778,0,0,0.352778,54.097523,192.17884)">
        <g
           id="use35"
           transform="translate(0,15.479)">
          <path
             d="M 7.8125,-2.515625 C 7.765625,-3.53125 7.71875,-5.125 6.9375,-6.984375 c -0.40625,-1.03125 -1.109375,-2.125 -2.625,-2.125 -2.53125,0 -3.921875,3.25 -3.921875,3.78125 0,0.1875 0.140625,0.1875 0.203125,0.1875 0.1875,0 0.1875,-0.046875 0.296875,-0.3125 0.4375,-1.28125 1.75,-2.296875 3.171875,-2.296875 2.875,0 3.296875,3.203125 3.296875,5.25 0,1.296875 -0.15625,1.734375 -0.28125,2.15625 -0.390625,1.265625 -1.0625,3.828125 -1.0625,4.40625 0,0.171875 0.0625,0.359375 0.21875,0.359375 0.3125,0 0.5,-0.6875 0.734375,-1.515625 0.484375,-1.8125 0.609375,-2.71875 0.71875,-3.546875 0.0625,-0.5 1.234375,-3.90625 2.875,-7.140625 0.140625,-0.34375 0.421875,-0.890625 0.421875,-0.953125 0,-0.03125 -0.01563,-0.171875 -0.203125,-0.171875 -0.04687,0 -0.140625,0 -0.1875,0.09375 -0.03125,0.03125 -0.765625,1.4375 -1.375,2.84375 -0.3125,0.703125 -0.734375,1.625 -1.40625,3.453125 z m 0,0"
             id="path79" />
        </g>
      </g>
      <g
         clip-path="url(#clipPath7307)"
         id="g43"
         transform="matrix(0.352778,0,0,0.352778,54.097523,192.17884)">
        <g
           fill="#000000"
           fill-opacity="1"
           id="g41">
          <g
             id="use39"
             transform="translate(11.618,15.479)">
            <path
               d="m 6.328125,5.046875 c 0,-0.03125 0,-0.0625 -0.0625,-0.125 -0.953125,-0.96875 -3.5,-3.625 -3.5,-10.0625 0,-6.453125 2.5,-9.078125 3.515625,-10.109375 0,-0.01563 0.046875,-0.0625 0.046875,-0.125 0,-0.0625 -0.0625,-0.09375 -0.15625,-0.09375 -0.21875,0 -1.984375,1.53125 -2.984375,3.796875 -1.046875,2.296875 -1.328125,4.53125 -1.328125,6.5 0,1.5 0.140625,4.015625 1.390625,6.6875 0.984375,2.140625 2.671875,3.65625 2.921875,3.65625 0.109375,0 0.15625,-0.046875 0.15625,-0.125 z m 0,0"
               id="path83" />
          </g>
        </g>
      </g>
      <g
         fill="#000000"
         fill-opacity="1"
         id="g47"
         transform="matrix(0.352778,0,0,0.352778,54.097523,192.17884)">
        <g
           id="use45"
           transform="translate(18.934999,15.479)">
          <path
             d="m 6.21875,-2.453125 c -0.109375,0.34375 -0.109375,0.390625 -0.390625,0.78125 -0.453125,0.578125 -1.359375,1.46875 -2.34375,1.46875 -0.84375,0 -1.3125,-0.765625 -1.3125,-1.984375 0,-1.140625 0.640625,-3.453125 1.03125,-4.3125 C 3.90625,-7.953125 4.875,-8.703125 5.6875,-8.703125 c 1.359375,0 1.625,1.703125 1.625,1.859375 0,0.03125 -0.0625,0.296875 -0.078125,0.34375 z M 7.546875,-7.75 C 7.3125,-8.28125 6.75,-9.109375 5.6875,-9.109375 c -2.34375,0 -4.859375,3.015625 -4.859375,6.078125 0,2.046875 1.203125,3.234375 2.59375,3.234375 1.140625,0 2.109375,-0.890625 2.6875,-1.5625 0.21875,1.21875 1.1875,1.5625 1.796875,1.5625 0.625,0 1.125,-0.375 1.5,-1.109375 0.328125,-0.703125 0.609375,-1.96875 0.609375,-2.046875 0,-0.109375 -0.078125,-0.1875 -0.203125,-0.1875 -0.1875,0 -0.203125,0.109375 -0.296875,0.40625 -0.296875,1.21875 -0.703125,2.53125 -1.546875,2.53125 -0.59375,0 -0.640625,-0.546875 -0.640625,-0.953125 0,-0.46875 0.0625,-0.703125 0.25,-1.515625 0.140625,-0.515625 0.25,-0.96875 0.421875,-1.5625 0.765625,-3.09375 0.9375,-3.84375 0.9375,-3.96875 0,-0.28125 -0.21875,-0.515625 -0.53125,-0.515625 C 7.75,-8.71875 7.578125,-8 7.546875,-7.75 Z m 0,0"
             id="path87" />
        </g>
      </g>
      <g
         clip-path="url(#clipPath8717)"
         id="g53"
         transform="matrix(0.352778,0,0,0.352778,54.097523,192.17884)">
        <g
           fill="#000000"
           fill-opacity="1"
           id="g51">
          <g
             id="use49"
             transform="translate(29.556,15.479)">
            <path
               d="m 5.4375,-5.140625 c 0,-1.484375 -0.15625,-4.015625 -1.390625,-6.671875 -0.984375,-2.15625 -2.6875,-3.65625 -2.9375,-3.65625 -0.0625,0 -0.140625,0.01563 -0.140625,0.125 0,0.03125 0.015625,0.0625 0.046875,0.09375 C 2,-14.21875 4.53125,-11.59375 4.53125,-5.171875 4.53125,1.28125 2.03125,3.90625 1.015625,4.9375 0.984375,4.984375 0.96875,5 0.96875,5.046875 c 0,0.09375 0.078125,0.125 0.140625,0.125 0.234375,0 1.984375,-1.53125 3,-3.8125 1.03125,-2.28125 1.328125,-4.515625 1.328125,-6.5 z m 0,0"
               id="path91" />
          </g>
        </g>
      </g>
    </g>
    <g
       id="g1147"
       transform="translate(10.808386,-105.69004)">
      <g
         fill="#000000"
         fill-opacity="1"
         id="g57"
         transform="matrix(0.352778,0,0,0.352778,54.097523,192.17884)">
        <g
           id="use55"
           transform="translate(43.111,15.479)">
          <path
             d="M 7.8125,-2.515625 C 7.765625,-3.53125 7.71875,-5.125 6.9375,-6.984375 c -0.40625,-1.03125 -1.109375,-2.125 -2.625,-2.125 -2.53125,0 -3.921875,3.25 -3.921875,3.78125 0,0.1875 0.140625,0.1875 0.203125,0.1875 0.1875,0 0.1875,-0.046875 0.296875,-0.3125 0.4375,-1.28125 1.75,-2.296875 3.171875,-2.296875 2.875,0 3.296875,3.203125 3.296875,5.25 0,1.296875 -0.15625,1.734375 -0.28125,2.15625 -0.390625,1.265625 -1.0625,3.828125 -1.0625,4.40625 0,0.171875 0.0625,0.359375 0.21875,0.359375 0.3125,0 0.5,-0.6875 0.734375,-1.515625 0.484375,-1.8125 0.609375,-2.71875 0.71875,-3.546875 0.0625,-0.5 1.234375,-3.90625 2.875,-7.140625 0.140625,-0.34375 0.421875,-0.890625 0.421875,-0.953125 0,-0.03125 -0.01563,-0.171875 -0.203125,-0.171875 -0.04687,0 -0.140625,0 -0.1875,0.09375 -0.03125,0.03125 -0.765625,1.4375 -1.375,2.84375 -0.3125,0.703125 -0.734375,1.625 -1.40625,3.453125 z m 0,0"
             id="path95" />
        </g>
      </g>
      <g
         clip-path="url(#clipPath3738)"
         id="g63"
         transform="matrix(0.352778,0,0,0.352778,54.097523,192.17884)">
        <g
           fill="#000000"
           fill-opacity="1"
           id="g61">
          <g
             id="use59"
             transform="translate(54.729,15.479)">
            <path
               d="m 6.328125,5.046875 c 0,-0.03125 0,-0.0625 -0.0625,-0.125 -0.953125,-0.96875 -3.5,-3.625 -3.5,-10.0625 0,-6.453125 2.5,-9.078125 3.515625,-10.109375 0,-0.01563 0.046875,-0.0625 0.046875,-0.125 0,-0.0625 -0.0625,-0.09375 -0.15625,-0.09375 -0.21875,0 -1.984375,1.53125 -2.984375,3.796875 -1.046875,2.296875 -1.328125,4.53125 -1.328125,6.5 0,1.5 0.140625,4.015625 1.390625,6.6875 0.984375,2.140625 2.671875,3.65625 2.921875,3.65625 0.109375,0 0.15625,-0.046875 0.15625,-0.125 z m 0,0"
               id="path99" />
          </g>
        </g>
      </g>
      <g
         fill="#000000"
         fill-opacity="1"
         id="g67"
         transform="matrix(0.352778,0,0,0.352778,54.097523,192.17884)">
        <g
           id="use65"
           transform="translate(62.046001,15.479)">
          <path
             d="m 4.765625,-13.8125 c 0.03125,-0.09375 0.0625,-0.21875 0.0625,-0.3125 0,-0.203125 -0.203125,-0.203125 -0.25,-0.203125 -0.015625,0 -0.75,0.04687 -1.125,0.09375 -0.359375,0.01563 -0.671875,0.0625 -1.03125,0.07813 -0.5,0.04687 -0.640625,0.0625 -0.640625,0.4375 0,0.203125 0.203125,0.203125 0.40625,0.203125 1.0625,0 1.0625,0.1875 1.0625,0.40625 C 3.25,-12.96875 3.078125,-12.375 3,-12 l -0.5,1.984375 C 2.296875,-9.1875 1.109375,-4.5 1.03125,-4.125 0.921875,-3.609375 0.921875,-3.265625 0.921875,-3 c 0,2.109375 1.1875,3.203125 2.53125,3.203125 2.390625,0 4.875,-3.078125 4.875,-6.0625 0,-1.90625 -1.078125,-3.25 -2.625,-3.25 -1.078125,0 -2.046875,0.890625 -2.4375,1.296875 z M 3.46875,-0.203125 c -0.65625,0 -1.375,-0.5 -1.375,-2.109375 0,-0.6875 0.046875,-1.078125 0.421875,-2.515625 C 2.578125,-5.109375 2.90625,-6.421875 3,-6.6875 c 0.03125,-0.171875 1.25,-2.015625 2.65625,-2.015625 0.90625,0 1.328125,0.921875 1.328125,1.984375 0,1 -0.578125,3.328125 -1.09375,4.40625 C 5.375,-1.203125 4.421875,-0.203125 3.46875,-0.203125 Z m 0,0"
             id="path103" />
        </g>
      </g>
      <g
         clip-path="url(#clipPath7088)"
         id="g73"
         transform="matrix(0.352778,0,0,0.352778,54.097523,192.17884)">
        <g
           fill="#000000"
           fill-opacity="1"
           id="g71">
          <g
             id="use69"
             transform="translate(70.649002,15.479)">
            <path
               d="m 5.4375,-5.140625 c 0,-1.484375 -0.15625,-4.015625 -1.390625,-6.671875 -0.984375,-2.15625 -2.6875,-3.65625 -2.9375,-3.65625 -0.0625,0 -0.140625,0.01563 -0.140625,0.125 0,0.03125 0.015625,0.0625 0.046875,0.09375 C 2,-14.21875 4.53125,-11.59375 4.53125,-5.171875 4.53125,1.28125 2.03125,3.90625 1.015625,4.9375 0.984375,4.984375 0.96875,5 0.96875,5.046875 c 0,0.09375 0.078125,0.125 0.140625,0.125 0.234375,0 1.984375,-1.53125 3,-3.8125 1.03125,-2.28125 1.328125,-4.515625 1.328125,-6.5 z m 0,0"
               id="path107" />
          </g>
        </g>
      </g>
    </g>
    <circle
       style="fill:#000000;fill-opacity:1;stroke:none;stroke-width:0.255166;stroke-dasharray:none;stroke-dashoffset:0"
       id="path1201"
       cx="18.753593"
       cy="192.08812"
       r="1.5" />
    <circle
       style="fill:#000000;fill-opacity:1;stroke:none;stroke-width:0.255166;stroke-dasharray:none;stroke-dashoffset:0"
       id="path1201-3"
       cx="85.515572"
       cy="83.42218"
       r="1.5" />
  </g>
</svg>
