<?xml version="1.0" encoding="UTF-8" standalone="no"?>
<!-- Created with Inkscape (http://www.inkscape.org/) -->

<svg
   width="210mm"
   height="297mm"
   viewBox="0 0 210 297"
   version="1.1"
   id="svg5"
   sodipodi:docname="extended_real_numbers.svg"
   inkscape:version="1.2.2 (b0a8486541, 2022-12-01)"
   xmlns:inkscape="http://www.inkscape.org/namespaces/inkscape"
   xmlns:sodipodi="http://sodipodi.sourceforge.net/DTD/sodipodi-0.dtd"
   xmlns="http://www.w3.org/2000/svg"
   xmlns:svg="http://www.w3.org/2000/svg">
  <sodipodi:namedview
     id="namedview7"
     pagecolor="#ffffff"
     bordercolor="#000000"
     borderopacity="0.25"
     inkscape:showpageshadow="2"
     inkscape:pageopacity="0.0"
     inkscape:pagecheckerboard="0"
     inkscape:deskcolor="#d1d1d1"
     inkscape:document-units="mm"
     showgrid="false"
     showguides="true"
     inkscape:zoom="1.2407155"
     inkscape:cx="474.32307"
     inkscape:cy="585.9522"
     inkscape:window-width="1888"
     inkscape:window-height="1008"
     inkscape:window-x="13"
     inkscape:window-y="53"
     inkscape:window-maximized="1"
     inkscape:current-layer="layer2" />
  <defs
     id="defs2" />
  <g
     inkscape:groupmode="layer"
     id="layer3"
     inkscape:label="Layer 3" />
  <g
     inkscape:label="Layer 1"
     inkscape:groupmode="layer"
     id="layer1" />
  <g
     inkscape:groupmode="layer"
     id="layer2"
     inkscape:label="Layer 2">
    <rect
       style="fill:#d40000;fill-opacity:0.74901998;stroke:#000000;stroke-width:0.550135"
       id="rect1477"
       width="127.49899"
       height="108.88905"
       x="214.96512"
       y="176.51944"
       transform="matrix(1,0,-0.75308654,0.65792148,0,0)" />
    <path
       style="fill:none;fill-opacity:0.74902;stroke:#000000;stroke-width:0.4;stroke-dasharray:1.60000002,1.60000002;stroke-dashoffset:0"
       id="path1535"
       sodipodi:type="arc"
       sodipodi:cx="105.62808"
       sodipodi:cy="151.95616"
       sodipodi:rx="19.195236"
       sodipodi:ry="19.195236"
       sodipodi:start="0"
       sodipodi:end="3.1415927"
       sodipodi:open="true"
       sodipodi:arc-type="arc"
       d="m 124.82332,151.95616 a 19.195236,19.195236 0 0 1 -9.59762,16.62356 19.195236,19.195236 0 0 1 -19.195236,0 19.195236,19.195236 0 0 1 -9.597618,-16.62356" />
    <path
       style="fill:#d40000;fill-opacity:0.74901998;stroke:#000000;stroke-width:0.4"
       id="path1535-6"
       sodipodi:type="arc"
       sodipodi:cx="-105.62808"
       sodipodi:cy="-151.95616"
       sodipodi:rx="19.195236"
       sodipodi:ry="19.195236"
       sodipodi:start="0"
       sodipodi:end="3.1415927"
       sodipodi:open="true"
       sodipodi:arc-type="arc"
       d="m -86.432846,-151.95616 a 19.195236,19.195236 0 0 1 -9.597618,16.62356 19.195236,19.195236 0 0 1 -19.195236,0 19.195236,19.195236 0 0 1 -9.59762,-16.62356"
       transform="scale(-1)" />
    <path
       style="fill:#d40000;fill-opacity:0.74901998;stroke:#000000;stroke-width:0.403679"
       id="path1568"
       sodipodi:type="arc"
       sodipodi:cx="105.62808"
       sodipodi:cy="151.9575"
       sodipodi:rx="19.192846"
       sodipodi:ry="11.386413"
       sodipodi:start="0"
       sodipodi:end="3.1415927"
       sodipodi:open="true"
       sodipodi:arc-type="arc"
       d="m 124.82093,151.9575 a 19.192846,11.386413 0 0 1 -9.59642,9.86093 19.192846,11.386413 0 0 1 -19.192851,0 19.192846,11.386413 0 0 1 -9.596423,-9.86093" />
    <g
       fill="#000000"
       fill-opacity="1"
       id="g16"
       transform="matrix(1.1952225,0,0,1.1952225,47.605924,82.977366)">
      <g
         id="use14"
         transform="translate(72.719232,94.848631)">
        <path
           d="m 6.546875,-6.6875 c 0,-0.171875 0,-0.328125 -0.171875,-0.328125 0,0 -0.15625,0 -0.171875,0.171875 C 6.171875,-6.5625 5.9375,-6.5625 5.875,-6.5625 c -0.359375,0 -0.703125,-0.140625 -0.90625,-0.234375 -0.5,-0.21875 -0.9375,-0.21875 -1.09375,-0.21875 -1.65625,0 -3.5,1.046875 -3.5,3.59375 0,2.546875 1.796875,3.609375 3.515625,3.609375 0.53125,0 1.25,-0.109375 1.96875,-0.546875 0.453125,-0.28125 0.96875,-0.78125 0.96875,-0.921875 0,-0.140625 -0.15625,-0.203125 -0.203125,-0.203125 -0.078125,0 -0.109375,0.03125 -0.21875,0.140625 -0.578125,0.65625 -1.46875,1.046875 -2.34375,1.046875 -1.546875,0 -1.9375,-1.5625 -1.9375,-3.109375 0,-1.953125 0.71875,-3.265625 1.78125,-3.265625 0.75,0 1.953125,0.734375 2.28125,1.78125 0.03125,0.09375 0.0625,0.203125 0.1875,0.203125 0.171875,0 0.171875,-0.171875 0.171875,-0.34375 z m -0.34375,1.03125 c -0.125,-0.171875 -0.25,-0.3125 -0.5,-0.5625 0.046875,0.015625 0.125,0.015625 0.171875,0.015625 0.109375,0 0.25,-0.03125 0.328125,-0.078125 z M 2.65625,-6.4375 c -0.21875,0.234375 -0.875,1.078125 -0.875,3.03125 0,1 0.140625,2.375 1.046875,3.09375 C 1.1875,-0.84375 0.71875,-2.1875 0.71875,-3.40625 c 0,-1.84375 1,-2.71875 1.9375,-3.046875 z m 0,0"
           id="path30" />
      </g>
    </g>
    <g
       id="g1693"
       transform="translate(-46.944574,-55.396299)">
      <g
         fill="#000000"
         fill-opacity="1"
         id="g20"
         transform="matrix(1.1952225,0,0,1.1952225,49.084031,98.378562)">
        <g
           id="use18"
           transform="translate(102.43754,81.962997)">
          <path
             d="m 6.546875,-6.6875 c 0,-0.171875 0,-0.328125 -0.171875,-0.328125 0,0 -0.15625,0 -0.171875,0.171875 C 6.171875,-6.5625 5.9375,-6.5625 5.875,-6.5625 c -0.359375,0 -0.703125,-0.140625 -0.90625,-0.234375 -0.5,-0.21875 -0.9375,-0.21875 -1.09375,-0.21875 -1.65625,0 -3.5,1.046875 -3.5,3.59375 0,2.546875 1.796875,3.609375 3.515625,3.609375 0.53125,0 1.25,-0.109375 1.96875,-0.546875 0.453125,-0.28125 0.96875,-0.78125 0.96875,-0.921875 0,-0.140625 -0.15625,-0.203125 -0.203125,-0.203125 -0.078125,0 -0.109375,0.03125 -0.21875,0.140625 -0.578125,0.65625 -1.46875,1.046875 -2.34375,1.046875 -1.546875,0 -1.9375,-1.5625 -1.9375,-3.109375 0,-1.953125 0.71875,-3.265625 1.78125,-3.265625 0.75,0 1.953125,0.734375 2.28125,1.78125 0.03125,0.09375 0.0625,0.203125 0.1875,0.203125 0.171875,0 0.171875,-0.171875 0.171875,-0.34375 z m -0.34375,1.03125 c -0.125,-0.171875 -0.25,-0.3125 -0.5,-0.5625 0.046875,0.015625 0.125,0.015625 0.171875,0.015625 0.109375,0 0.25,-0.03125 0.328125,-0.078125 z M 2.65625,-6.4375 c -0.21875,0.234375 -0.875,1.078125 -0.875,3.03125 0,1 0.140625,2.375 1.046875,3.09375 C 1.1875,-0.84375 0.71875,-2.1875 0.71875,-3.40625 c 0,-1.84375 1,-2.71875 1.9375,-3.046875 z m 0,0"
             id="path34" />
        </g>
      </g>
      <g
         fill="#000000"
         fill-opacity="1"
         id="g24"
         transform="matrix(1.1952225,0,0,1.1952225,49.084031,98.378562)">
        <g
           id="use22"
           transform="translate(109.637,83.457001)">
          <path
             d="m 4.03125,-1.90625 c -0.375,-0.4375 -0.484375,-0.546875 -0.75,-0.734375 -0.421875,-0.3125 -0.875,-0.4375 -1.25,-0.4375 -0.875,0 -1.5,0.75 -1.5,1.578125 0,0.8125 0.609375,1.5625 1.46875,1.5625 0.96875,0 1.65625,-0.78125 1.90625,-1.15625 0.359375,0.4375 0.484375,0.546875 0.734375,0.734375 0.4375,0.3125 0.875,0.421875 1.265625,0.421875 0.859375,0 1.484375,-0.734375 1.484375,-1.5625 0,-0.828125 -0.59375,-1.578125 -1.46875,-1.578125 -0.96875,0 -1.640625,0.796875 -1.890625,1.171875 z m 0.21875,0.25 c 0.28125,-0.453125 0.890625,-1.15625 1.734375,-1.15625 0.71875,0 1.21875,0.640625 1.21875,1.3125 0,0.65625 -0.546875,1.1875 -1.1875,1.1875 -0.65625,0 -1.09375,-0.53125 -1.765625,-1.34375 z M 3.671875,-1.359375 C 3.40625,-0.90625 2.796875,-0.1875 1.9375,-0.1875 c -0.71875,0 -1.203125,-0.640625 -1.203125,-1.3125 0,-0.671875 0.546875,-1.1875 1.1875,-1.1875 0.640625,0 1.09375,0.53125 1.75,1.328125 z m 0,0"
             id="path38" />
        </g>
      </g>
    </g>
  </g>
</svg>
