<?xml version="1.0" encoding="UTF-8" standalone="no"?>
<!-- Created with Inkscape (http://www.inkscape.org/) -->

<svg
   width="210mm"
   height="297mm"
   viewBox="0 0 210 297"
   version="1.1"
   id="svg5"
   inkscape:version="1.2 (dc2aedaf03, 2022-05-15)"
   sodipodi:docname="non_hausdorff_space.svg"
   xmlns:inkscape="http://www.inkscape.org/namespaces/inkscape"
   xmlns:sodipodi="http://sodipodi.sourceforge.net/DTD/sodipodi-0.dtd"
   xmlns="http://www.w3.org/2000/svg"
   xmlns:svg="http://www.w3.org/2000/svg">
  <sodipodi:namedview
     id="namedview7"
     pagecolor="#ffffff"
     bordercolor="#000000"
     borderopacity="0.25"
     inkscape:showpageshadow="2"
     inkscape:pageopacity="0.0"
     inkscape:pagecheckerboard="0"
     inkscape:deskcolor="#d1d1d1"
     inkscape:document-units="mm"
     showgrid="false"
     inkscape:lockguides="false"
     showguides="true"
     inkscape:zoom="1.4134057"
     inkscape:cx="400.80495"
     inkscape:cy="341.72779"
     inkscape:window-width="1888"
     inkscape:window-height="1008"
     inkscape:window-x="13"
     inkscape:window-y="53"
     inkscape:window-maximized="1"
     inkscape:current-layer="layer1">
    <inkscape:grid
       type="xygrid"
       id="grid132"
       dotted="true"
       empspacing="25" />
  </sodipodi:namedview>
  <defs
     id="defs2">
    <clipPath
       id="clip-0">
      <path
         clip-rule="nonzero"
         d="M 0,0 H 5 V 4.289062 H 0 Z m 0,0"
         id="path8" />
    </clipPath>
    <clipPath
       id="clipPath986">
      <path
         clip-rule="nonzero"
         d="M 0,0 H 4.277344 V 6.917969 H 0 Z m 0,0"
         id="path984" />
    </clipPath>
    <clipPath
       id="clipPath1132">
      <path
         clip-rule="nonzero"
         d="M 0,0 H 4.277344 V 6.917969 H 0 Z m 0,0"
         id="path1130" />
    </clipPath>
    <clipPath
       id="clipPath1221">
      <path
         clip-rule="nonzero"
         d="M 0,0 H 3.273438 V 4.152344 H 0 Z m 0,0"
         id="path1219" />
    </clipPath>
  </defs>
  <g
     inkscape:groupmode="layer"
     id="layer3"
     inkscape:label="Layer 2" />
  <g
     inkscape:label="Layer 1"
     inkscape:groupmode="layer"
     id="layer1">
    <ellipse
       style="fill:#d40000;fill-opacity:0.75;fill-rule:evenodd;stroke:#000000;stroke-width:0.348658"
       id="path360-2"
       cx="105"
       cy="94.499161"
       rx="52.216637"
       ry="30.459703" />
    <ellipse
       style="fill:#800080;fill-opacity:0.75;fill-rule:evenodd;stroke:#000000;stroke-width:0.57742;stroke-opacity:1"
       id="path1516-3"
       cx="90.587166"
       cy="94.499161"
       rx="28.825714"
       ry="14.412857" />
    <ellipse
       style="fill:#008000;fill-opacity:0.75;fill-rule:evenodd;stroke:#000000;stroke-width:0.57742;stroke-opacity:1"
       id="path1516-0"
       cx="119.41289"
       cy="94.499161"
       rx="28.825714"
       ry="14.412857" />
  </g>
  <g
     inkscape:groupmode="layer"
     id="layer6"
     inkscape:label="Layer 5" />
  <g
     inkscape:groupmode="layer"
     id="layer4"
     inkscape:label="Layer 3">
    <circle
       style="fill:#0000ff;fill-opacity:0.75;fill-rule:evenodd;stroke:#000000;stroke-width:0.183493;stroke-opacity:1"
       id="path1514-7"
       cx="105"
       cy="94.499161"
       r="4.5801091" />
    <g
       inkscape:label=""
       transform="matrix(1.5261244,0,0,1.5261244,71.629717,89.284095)"
       id="g941">
      <g
         clip-path="url(#clip-0)"
         id="g17"
         transform="matrix(0.352778,0,0,0.352778,-0.143316,0.0413632)">
        <g
           fill="#000000"
           fill-opacity="1"
           id="g15">
          <g
             id="use13"
             transform="translate(0,4.289)">
            <path
               d="M 3.71875,-3.765625 C 3.53125,-4.140625 3.25,-4.40625 2.796875,-4.40625 c -1.15625,0 -2.390625,1.46875 -2.390625,2.921875 0,0.9375 0.546875,1.59375 1.3125,1.59375 0.203125,0 0.703125,-0.046875 1.296875,-0.75 0.078125,0.421875 0.4375,0.75 0.90625,0.75 0.359375,0 0.578125,-0.234375 0.75,-0.546875 0.15625,-0.359375 0.296875,-0.96875 0.296875,-0.984375 0,-0.109375 -0.09375,-0.109375 -0.125,-0.109375 -0.09375,0 -0.109375,0.046875 -0.140625,0.1875 -0.171875,0.640625 -0.34375,1.234375 -0.75,1.234375 -0.28125,0 -0.296875,-0.265625 -0.296875,-0.453125 0,-0.21875 0.015625,-0.3125 0.125,-0.75 C 3.890625,-1.71875 3.90625,-1.828125 4,-2.203125 L 4.359375,-3.59375 c 0.0625,-0.28125 0.0625,-0.296875 0.0625,-0.34375 0,-0.171875 -0.109375,-0.265625 -0.28125,-0.265625 -0.25,0 -0.390625,0.21875 -0.421875,0.4375 z M 3.078125,-1.1875 C 3.015625,-1 3.015625,-0.984375 2.875,-0.8125 2.4375,-0.265625 2.03125,-0.109375 1.75,-0.109375 c -0.5,0 -0.640625,-0.546875 -0.640625,-0.9375 0,-0.5 0.3125,-1.71875 0.546875,-2.1875 0.3125,-0.578125 0.75,-0.953125 1.15625,-0.953125 0.640625,0 0.78125,0.8125 0.78125,0.875 0,0.0625 -0.015625,0.125 -0.03125,0.171875 z m 0,0"
               id="path23" />
          </g>
        </g>
      </g>
    </g>
    <g
       inkscape:label=""
       transform="matrix(1.4391209,0,0,1.4391209,135.91391,89.35553)"
       id="g1082">
      <g
         fill="#000000"
         fill-opacity="1"
         id="g12"
         transform="matrix(0.352778,0,0,0.352778,-0.143316,0.0413632)">
        <g
           id="use10"
           transform="translate(0,4.289)">
          <path
             d="m 3.953125,-3.78125 c -0.171875,0 -0.296875,0 -0.4375,0.125 -0.171875,0.15625 -0.1875,0.328125 -0.1875,0.390625 0,0.25 0.1875,0.359375 0.375,0.359375 0.28125,0 0.546875,-0.25 0.546875,-0.640625 0,-0.484375 -0.46875,-0.859375 -1.171875,-0.859375 -1.34375,0 -2.671875,1.421875 -2.671875,2.828125 0,0.90625 0.578125,1.6875 1.625,1.6875 1.421875,0 2.25,-1.0625 2.25,-1.171875 0,-0.0625 -0.046875,-0.140625 -0.109375,-0.140625 -0.0625,0 -0.078125,0.03125 -0.140625,0.109375 -0.78125,0.984375 -1.875,0.984375 -1.984375,0.984375 -0.625,0 -0.90625,-0.484375 -0.90625,-1.09375 0,-0.40625 0.203125,-1.375 0.546875,-1.984375 0.3125,-0.578125 0.859375,-1 1.40625,-1 0.328125,0 0.71875,0.125 0.859375,0.40625 z m 0,0"
             id="path18" />
        </g>
      </g>
    </g>
    <g
       inkscape:label=""
       transform="matrix(1.9999998,0,0,1.9999998,110.21435,88.341803)"
       id="g1253">
      <g
         clip-path="url(#clip-0)"
         id="g1251"
         transform="matrix(0.352778,0,0,0.352778,-0.170877,-9.274e-4)">
        <g
           fill="#000000"
           fill-opacity="1"
           id="g1249">
          <g
             id="g1247"
             transform="translate(0,4.151)">
            <path
               d="m 1.6875,-3.96875 c 0,-0.03125 0.015625,-0.0625 0.015625,-0.09375 0,-0.09375 -0.125,-0.09375 -0.1875,-0.078125 L 0.84375,-4.09375 c -0.109375,0 -0.1875,0.015625 -0.1875,0.15625 0,0.09375 0.078125,0.09375 0.171875,0.09375 0.171875,0 0.21875,0.015625 0.296875,0.03125 0,0.109375 0,0.125 -0.03125,0.234375 L 0.8125,-2.46875 c -0.046875,0.171875 -0.28125,1.125 -0.296875,1.203125 -0.03125,0.140625 -0.03125,0.25 -0.03125,0.3125 0,0.671875 0.4375,1.015625 0.9375,1.015625 0.796875,0 1.59375,-0.828125 1.59375,-1.6875 0,-0.609375 -0.421875,-1.015625 -0.96875,-1.015625 -0.359375,0 -0.671875,0.234375 -0.78125,0.328125 z m -0.53125,2.078125 c 0.1875,-0.25 0.53125,-0.546875 0.875,-0.546875 0.3125,0 0.484375,0.234375 0.484375,0.578125 0,0.21875 -0.125,0.859375 -0.34375,1.21875 -0.203125,0.328125 -0.5,0.5 -0.75,0.5 -0.1875,0 -0.5,-0.109375 -0.5,-0.625 0,-0.1875 0.03125,-0.28125 0.09375,-0.59375 C 1.0625,-1.5 1.125,-1.78125 1.15625,-1.890625 Z m 0,0"
               id="path1245" />
          </g>
        </g>
      </g>
    </g>
  </g>
  <g
     inkscape:groupmode="layer"
     id="layer5"
     inkscape:label="Layer 4">
    <circle
       style="fill:#000000;fill-opacity:1;fill-rule:evenodd;stroke:none;stroke-width:0.17433"
       id="path957-3-0"
       cx="105"
       cy="94.499161"
       r="2.1756949" />
    <circle
       style="fill:#000000;fill-opacity:1;fill-rule:evenodd;stroke:none;stroke-width:0.17433"
       id="path957-5"
       cx="76.174286"
       cy="94.499161"
       r="2.1756949" />
    <circle
       style="fill:#000000;fill-opacity:1;fill-rule:evenodd;stroke:none;stroke-width:0.17433"
       id="path957-6-3"
       cx="133.82573"
       cy="94.499161"
       r="2.1756949" />
  </g>
</svg>
