<?xml version="1.0" encoding="UTF-8" standalone="no"?>
<!-- Created with Inkscape (http://www.inkscape.org/) -->

<svg
   width="210mm"
   height="297mm"
   viewBox="0 0 210 297"
   version="1.1"
   id="svg5"
   sodipodi:docname="equiv_def_1.svg"
   inkscape:version="1.4 (e7c3feb100, 2024-10-09)"
   xmlns:inkscape="http://www.inkscape.org/namespaces/inkscape"
   xmlns:sodipodi="http://sodipodi.sourceforge.net/DTD/sodipodi-0.dtd"
   xmlns="http://www.w3.org/2000/svg"
   xmlns:svg="http://www.w3.org/2000/svg">
  <sodipodi:namedview
     id="namedview7"
     pagecolor="#ffffff"
     bordercolor="#666666"
     borderopacity="1.0"
     inkscape:pageshadow="2"
     inkscape:pageopacity="0.0"
     inkscape:pagecheckerboard="0"
     inkscape:document-units="mm"
     showgrid="false"
     inkscape:zoom="2.1221115"
     inkscape:cx="260.11828"
     inkscape:cy="304.88502"
     inkscape:window-width="1900"
     inkscape:window-height="1024"
     inkscape:window-x="0"
     inkscape:window-y="0"
     inkscape:window-maximized="1"
     inkscape:current-layer="layer1"
     showguides="true"
     inkscape:guide-bbox="true"
     inkscape:showpageshadow="2"
     inkscape:deskcolor="#d1d1d1" />
  <defs
     id="defs2">
    <marker
       style="overflow:visible"
       id="marker2024"
       refX="0.0"
       refY="0.0"
       orient="auto"
       inkscape:stockid="Arrow2Lstart"
       inkscape:isstock="true">
      <path
         transform="scale(1.1) translate(1,0)"
         d="M 8.7185878,4.0337352 L -2.2072895,0.016013256 L 8.7185884,-4.0017078 C 6.9730900,-1.6296469 6.9831476,1.6157441 8.7185878,4.0337352 z "
         style="stroke:context-stroke;fill-rule:evenodd;fill:context-stroke;stroke-width:0.62500000;stroke-linejoin:round"
         id="path2022" />
    </marker>
    <marker
       style="overflow:visible;"
       id="Arrow2Lend"
       refX="0.0"
       refY="0.0"
       orient="auto"
       inkscape:stockid="Arrow2Lend"
       inkscape:isstock="true">
      <path
         transform="scale(1.1) rotate(180) translate(1,0)"
         d="M 8.7185878,4.0337352 L -2.2072895,0.016013256 L 8.7185884,-4.0017078 C 6.9730900,-1.6296469 6.9831476,1.6157441 8.7185878,4.0337352 z "
         style="stroke:context-stroke;fill-rule:evenodd;fill:context-stroke;stroke-width:0.62500000;stroke-linejoin:round;"
         id="path1747" />
    </marker>
    <marker
       style="overflow:visible;"
       id="Arrow1Lend"
       refX="0.0"
       refY="0.0"
       orient="auto"
       inkscape:stockid="Arrow1Lend"
       inkscape:isstock="true">
      <path
         transform="scale(0.8) rotate(180) translate(12.5,0)"
         style="fill-rule:evenodd;fill:context-stroke;stroke:context-stroke;stroke-width:1.0pt;"
         d="M 0.0,0.0 L 5.0,-5.0 L -12.5,0.0 L 5.0,5.0 L 0.0,0.0 z "
         id="path1729" />
    </marker>
    <marker
       style="overflow:visible"
       id="Arrow1Lstart"
       refX="0.0"
       refY="0.0"
       orient="auto"
       inkscape:stockid="Arrow1Lstart"
       inkscape:isstock="true">
      <path
         transform="scale(0.8) translate(12.5,0)"
         style="fill-rule:evenodd;fill:context-stroke;stroke:context-stroke;stroke-width:1.0pt"
         d="M 0.0,0.0 L 5.0,-5.0 L -12.5,0.0 L 5.0,5.0 L 0.0,0.0 z "
         id="path1726" />
    </marker>
    <marker
       style="overflow:visible"
       id="Arrow2Lstart"
       refX="0.0"
       refY="0.0"
       orient="auto"
       inkscape:stockid="Arrow2Lstart"
       inkscape:isstock="true">
      <path
         transform="scale(1.1) translate(1,0)"
         d="M 8.7185878,4.0337352 L -2.2072895,0.016013256 L 8.7185884,-4.0017078 C 6.9730900,-1.6296469 6.9831476,1.6157441 8.7185878,4.0337352 z "
         style="stroke:context-stroke;fill-rule:evenodd;fill:context-stroke;stroke-width:0.62500000;stroke-linejoin:round"
         id="path1744" />
    </marker>
    <g
       id="g909">
      <symbol
         overflow="visible"
         id="symbol6247">
        <path
           style="stroke:none;"
           d=""
           id="path4351" />
      </symbol>
      <symbol
         overflow="visible"
         id="symbol3303">
        <path
           style="stroke:none;"
           d="M 3.53125 -6.8125 C 2.296875 -6.8125 1.765625 -6.578125 1.53125 -6.484375 C 0.515625 -6.0625 0.28125 -5.390625 0.28125 -5.25 C 0.28125 -5.1875 0.328125 -5.171875 0.390625 -5.171875 C 0.5625 -5.171875 1.046875 -5.421875 1.125 -5.640625 C 1.25 -6.015625 1.28125 -6.109375 1.9375 -6.203125 C 2.28125 -6.234375 2.609375 -6.265625 2.953125 -6.265625 L 3.859375 -6.265625 C 3.234375 -5.65625 2.9375 -4.578125 2.578125 -3.15625 C 2.296875 -1.96875 2.0625 -1.203125 1.65625 -0.671875 C 1.5625 -0.5625 1.546875 -0.546875 1.28125 -0.546875 L 0.640625 -0.546875 C 0.453125 -0.546875 0.34375 -0.546875 0.09375 -0.40625 C -0.015625 -0.34375 -0.234375 -0.171875 -0.234375 -0.0625 C -0.234375 -0.015625 -0.234375 0 -0.015625 0 L 3.40625 0 C 4.5625 0 5.4375 -0.875 5.4375 -1.21875 C 5.4375 -1.296875 5.359375 -1.296875 5.328125 -1.296875 C 5.15625 -1.296875 4.6875 -1.0625 4.578125 -0.8125 C 4.515625 -0.609375 4.484375 -0.546875 3.984375 -0.546875 L 2.078125 -0.546875 C 2.796875 -1.15625 3.09375 -2.140625 3.421875 -3.5 C 3.703125 -4.578125 3.9375 -5.546875 4.34375 -6.15625 C 4.40625 -6.25 4.421875 -6.265625 4.609375 -6.265625 L 5.46875 -6.265625 C 5.65625 -6.265625 5.75 -6.265625 6.015625 -6.40625 C 6.09375 -6.453125 6.328125 -6.625 6.328125 -6.734375 C 6.328125 -6.796875 6.3125 -6.8125 6.09375 -6.8125 Z M 3.53125 -6.8125 "
           id="path4236" />
      </symbol>
    </g>
    <g
       id="g4935">
      <symbol
         overflow="visible"
         id="symbol3871">
        <path
           style="stroke:none;"
           d=""
           id="path718" />
      </symbol>
      <symbol
         overflow="visible"
         id="symbol5856">
        <path
           style="stroke:none;"
           d="M 2.796875 -6.765625 C 2.8125 -6.875 2.8125 -6.890625 2.8125 -6.921875 C 2.8125 -7 2.796875 -7.03125 2.703125 -7.03125 C 2.59375 -7.03125 2.296875 -6.875 2.09375 -6.78125 C 1.640625 -6.546875 1.25 -6.359375 1.25 -6.1875 C 1.25 -6.125 1.328125 -6.125 1.359375 -6.125 C 1.484375 -6.125 1.75 -6.265625 1.9375 -6.34375 C 1.8125 -5.375 1.578125 -4.09375 1.390625 -3.234375 C 1.03125 -1.546875 0.84375 -0.9375 0.34375 0.03125 C 0.296875 0.125 0.296875 0.140625 0.296875 0.15625 C 0.296875 0.21875 0.375 0.21875 0.40625 0.21875 C 0.5625 0.21875 0.984375 0.046875 1.140625 -0.234375 C 1.265625 -0.46875 1.640625 -1.203125 1.9375 -2.359375 C 2.15625 -3.203125 2.546875 -4.515625 3.25 -5.546875 C 3.703125 -6.1875 4.125 -6.484375 4.75 -6.484375 C 5.296875 -6.484375 5.78125 -6.140625 5.78125 -5.609375 C 5.78125 -4.734375 4.828125 -4.421875 3.796875 -4.0625 C 3.671875 -4.03125 2.984375 -3.78125 2.984375 -3.53125 C 2.984375 -3.484375 3.0625 -3.46875 3.09375 -3.46875 C 3.125 -3.46875 3.359375 -3.515625 3.5625 -3.515625 C 4.578125 -3.515625 5.390625 -2.90625 5.390625 -1.96875 C 5.390625 -0.734375 4.34375 -0.328125 3.421875 -0.328125 C 2.65625 -0.328125 2.296875 -0.75 2.15625 -0.890625 C 2.125 -0.9375 2.109375 -0.953125 2.03125 -0.953125 C 1.8125 -0.953125 1.3125 -0.640625 1.3125 -0.46875 C 1.3125 -0.4375 1.6875 0.21875 2.765625 0.21875 C 4.171875 0.21875 6.234375 -0.78125 6.234375 -2.375 C 6.234375 -3.21875 5.6875 -3.84375 4.671875 -4.03125 C 5.46875 -4.375 6.625 -5.09375 6.625 -6.03125 C 6.625 -6.609375 6.15625 -7.03125 5.40625 -7.03125 C 5.078125 -7.03125 3.796875 -6.953125 2.59375 -5.453125 Z M 2.796875 -6.765625 "
           id="path2738" />
      </symbol>
    </g>
    <g
       id="g3203">
      <symbol
         overflow="visible"
         id="symbol5271">
        <path
           style="stroke:none;"
           d=""
           id="path7519" />
      </symbol>
      <symbol
         overflow="visible"
         id="symbol4668">
        <path
           style="stroke:none;"
           d="M 4.9375 -1.5625 C 4.9375 -1.625 4.890625 -1.640625 4.84375 -1.640625 C 4.671875 -1.640625 4.4375 -1.484375 4.421875 -1.484375 C 4.234375 -1.359375 4.1875 -1.28125 4.0625 -1.109375 C 3.765625 -0.640625 3.3125 -0.3125 2.671875 -0.3125 C 1.78125 -0.3125 0.96875 -0.953125 0.96875 -2.453125 C 0.96875 -3.34375 1.328125 -4.53125 1.859375 -5.328125 C 2.296875 -5.96875 2.828125 -6.484375 3.859375 -6.484375 C 4.234375 -6.484375 4.46875 -6.34375 4.46875 -5.96875 C 4.46875 -5.625 4.109375 -4.921875 3.984375 -4.71875 C 3.921875 -4.609375 3.921875 -4.578125 3.921875 -4.5625 C 3.921875 -4.5 3.984375 -4.5 4.03125 -4.5 C 4.234375 -4.5 4.609375 -4.71875 4.71875 -4.875 C 4.75 -4.921875 5.328125 -5.890625 5.328125 -6.40625 C 5.328125 -6.953125 4.875 -7.03125 4.515625 -7.03125 C 3.078125 -7.03125 1.890625 -6.078125 1.421875 -5.515625 C 0.234375 -4.09375 0.125 -2.546875 0.125 -2.03125 C 0.125 -0.5625 0.859375 0.234375 2.015625 0.234375 C 3.625 0.234375 4.9375 -1.3125 4.9375 -1.5625 Z M 4.9375 -1.5625 "
           id="path7840" />
      </symbol>
    </g>
    <marker
       style="overflow:visible"
       id="Arrow1Lstart-3"
       refX="0"
       refY="0"
       orient="auto"
       inkscape:stockid="Arrow1Lstart"
       inkscape:isstock="true">
      <path
         transform="matrix(0.8,0,0,0.8,10,0)"
         style="fill:context-stroke;fill-rule:evenodd;stroke:context-stroke;stroke-width:1pt"
         d="M 0,0 5,-5 -12.5,0 5,5 Z"
         id="path1726-6" />
    </marker>
    <marker
       style="overflow:visible"
       id="Arrow1Lstart-3-6"
       refX="0"
       refY="0"
       orient="auto"
       inkscape:stockid="Arrow1Lstart"
       inkscape:isstock="true">
      <path
         transform="matrix(0.8,0,0,0.8,10,0)"
         style="fill:context-stroke;fill-rule:evenodd;stroke:context-stroke;stroke-width:1pt"
         d="M 0,0 5,-5 -12.5,0 5,5 Z"
         id="path1726-6-2" />
    </marker>
    <marker
       style="overflow:visible"
       id="Arrow1Lstart-3-1"
       refX="0"
       refY="0"
       orient="auto"
       inkscape:stockid="Arrow1Lstart"
       inkscape:isstock="true">
      <path
         transform="matrix(0.8,0,0,0.8,10,0)"
         style="fill:context-stroke;fill-rule:evenodd;stroke:context-stroke;stroke-width:1pt"
         d="M 0,0 5,-5 -12.5,0 5,5 Z"
         id="path1726-6-27" />
    </marker>
    <marker
       style="overflow:visible"
       id="Arrow1Lstart-3-9"
       refX="0"
       refY="0"
       orient="auto"
       inkscape:stockid="Arrow1Lstart"
       inkscape:isstock="true">
      <path
         transform="matrix(0.8,0,0,0.8,10,0)"
         style="fill:context-stroke;fill-rule:evenodd;stroke:context-stroke;stroke-width:1pt"
         d="M 0,0 5,-5 -12.5,0 5,5 Z"
         id="path1726-6-3" />
    </marker>
    <marker
       style="overflow:visible"
       id="Arrow1Lstart-3-9-0"
       refX="0"
       refY="0"
       orient="auto"
       inkscape:stockid="Arrow1Lstart"
       inkscape:isstock="true">
      <path
         transform="matrix(0.8,0,0,0.8,10,0)"
         style="fill:context-stroke;fill-rule:evenodd;stroke:context-stroke;stroke-width:1pt"
         d="M 0,0 5,-5 -12.5,0 5,5 Z"
         id="path1726-6-3-6" />
    </marker>
    <marker
       style="overflow:visible"
       id="Arrow1Lstart-3-61"
       refX="0"
       refY="0"
       orient="auto"
       inkscape:stockid="Arrow1Lstart"
       inkscape:isstock="true">
      <path
         transform="matrix(0.8,0,0,0.8,10,0)"
         style="fill:context-stroke;fill-rule:evenodd;stroke:context-stroke;stroke-width:1pt"
         d="M 0,0 5,-5 -12.5,0 5,5 Z"
         id="path1726-6-8" />
    </marker>
    <marker
       style="overflow:visible"
       id="Arrow1Lstart-3-1-7"
       refX="0"
       refY="0"
       orient="auto"
       inkscape:stockid="Arrow1Lstart"
       inkscape:isstock="true">
      <path
         transform="matrix(0.8,0,0,0.8,10,0)"
         style="fill:context-stroke;fill-rule:evenodd;stroke:context-stroke;stroke-width:1pt"
         d="M 0,0 5,-5 -12.5,0 5,5 Z"
         id="path1726-6-27-9" />
    </marker>
    <marker
       style="overflow:visible"
       id="Arrow1Lstart-7"
       refX="0"
       refY="0"
       orient="auto"
       inkscape:stockid="Arrow1Lstart"
       inkscape:isstock="true">
      <path
         transform="matrix(0.8,0,0,0.8,10,0)"
         style="fill:context-stroke;fill-rule:evenodd;stroke:context-stroke;stroke-width:1pt"
         d="M 0,0 5,-5 -12.5,0 5,5 Z"
         id="path1726-5" />
    </marker>
    <marker
       style="overflow:visible"
       id="marker4789"
       refX="0"
       refY="0"
       orient="auto"
       inkscape:stockid="Arrow1Lstart"
       inkscape:isstock="true">
      <path
         transform="matrix(0.8,0,0,0.8,10,0)"
         style="fill:context-stroke;fill-rule:evenodd;stroke:context-stroke;stroke-width:1pt"
         d="M 0,0 5,-5 -12.5,0 5,5 Z"
         id="path4787" />
    </marker>
    <marker
       style="overflow:visible"
       id="Arrow1Lstart-8"
       refX="0"
       refY="0"
       orient="auto"
       inkscape:stockid="Arrow1Lstart"
       inkscape:isstock="true">
      <path
         transform="matrix(0.8,0,0,0.8,10,0)"
         style="fill:context-stroke;fill-rule:evenodd;stroke:context-stroke;stroke-width:1pt"
         d="M 0,0 5,-5 -12.5,0 5,5 Z"
         id="path1726-9" />
    </marker>
    <marker
       style="overflow:visible"
       id="marker4789-7"
       refX="0"
       refY="0"
       orient="auto"
       inkscape:stockid="Arrow1Lstart"
       inkscape:isstock="true">
      <path
         transform="matrix(0.8,0,0,0.8,10,0)"
         style="fill:context-stroke;fill-rule:evenodd;stroke:context-stroke;stroke-width:1pt"
         d="M 0,0 5,-5 -12.5,0 5,5 Z"
         id="path4787-3" />
    </marker>
    <g
       id="g1898">
      <symbol
         overflow="visible"
         id="symbol9357">
        <path
           style="stroke:none;"
           d=""
           id="path415" />
      </symbol>
      <symbol
         overflow="visible"
         id="symbol3366">
        <path
           style="stroke:none;"
           d="M 3.296875 2.390625 C 3.296875 2.359375 3.296875 2.34375 3.125 2.171875 C 1.890625 0.921875 1.5625 -0.96875 1.5625 -2.5 C 1.5625 -4.234375 1.9375 -5.96875 3.171875 -7.203125 C 3.296875 -7.328125 3.296875 -7.34375 3.296875 -7.375 C 3.296875 -7.453125 3.265625 -7.484375 3.203125 -7.484375 C 3.09375 -7.484375 2.203125 -6.796875 1.609375 -5.53125 C 1.109375 -4.4375 0.984375 -3.328125 0.984375 -2.5 C 0.984375 -1.71875 1.09375 -0.515625 1.640625 0.625 C 2.25 1.84375 3.09375 2.5 3.203125 2.5 C 3.265625 2.5 3.296875 2.46875 3.296875 2.390625 Z M 3.296875 2.390625 "
           id="path5554" />
      </symbol>
      <symbol
         overflow="visible"
         id="symbol463">
        <path
           style="stroke:none;"
           d="M 2.875 -2.5 C 2.875 -3.265625 2.765625 -4.46875 2.21875 -5.609375 C 1.625 -6.828125 0.765625 -7.484375 0.671875 -7.484375 C 0.609375 -7.484375 0.5625 -7.4375 0.5625 -7.375 C 0.5625 -7.34375 0.5625 -7.328125 0.75 -7.140625 C 1.734375 -6.15625 2.296875 -4.578125 2.296875 -2.5 C 2.296875 -0.78125 1.9375 0.96875 0.703125 2.21875 C 0.5625 2.34375 0.5625 2.359375 0.5625 2.390625 C 0.5625 2.453125 0.609375 2.5 0.671875 2.5 C 0.765625 2.5 1.671875 1.8125 2.25 0.546875 C 2.765625 -0.546875 2.875 -1.65625 2.875 -2.5 Z M 2.875 -2.5 "
           id="path8848" />
      </symbol>
      <symbol
         overflow="visible"
         id="symbol6118">
        <path
           style="stroke:none;"
           d=""
           id="path7087" />
      </symbol>
      <symbol
         overflow="visible"
         id="symbol4674">
        <path
           style="stroke:none;"
           d="M 4.9375 -1.5625 C 4.9375 -1.625 4.890625 -1.640625 4.84375 -1.640625 C 4.671875 -1.640625 4.4375 -1.484375 4.421875 -1.484375 C 4.234375 -1.359375 4.1875 -1.28125 4.0625 -1.109375 C 3.765625 -0.640625 3.3125 -0.3125 2.671875 -0.3125 C 1.78125 -0.3125 0.96875 -0.953125 0.96875 -2.453125 C 0.96875 -3.34375 1.328125 -4.53125 1.859375 -5.328125 C 2.296875 -5.96875 2.828125 -6.484375 3.859375 -6.484375 C 4.234375 -6.484375 4.46875 -6.34375 4.46875 -5.96875 C 4.46875 -5.625 4.109375 -4.921875 3.984375 -4.71875 C 3.921875 -4.609375 3.921875 -4.578125 3.921875 -4.5625 C 3.921875 -4.5 3.984375 -4.5 4.03125 -4.5 C 4.234375 -4.5 4.609375 -4.71875 4.71875 -4.875 C 4.75 -4.921875 5.328125 -5.890625 5.328125 -6.40625 C 5.328125 -6.953125 4.875 -7.03125 4.515625 -7.03125 C 3.078125 -7.03125 1.890625 -6.078125 1.421875 -5.515625 C 0.234375 -4.09375 0.125 -2.546875 0.125 -2.03125 C 0.125 -0.5625 0.859375 0.234375 2.015625 0.234375 C 3.625 0.234375 4.9375 -1.3125 4.9375 -1.5625 Z M 4.9375 -1.5625 "
           id="path4118" />
      </symbol>
    </g>
    <g
       id="g54">
      <symbol
         overflow="visible"
         id="symbol2608">
        <path
           style="stroke:none;"
           d=""
           id="path7597" />
      </symbol>
      <symbol
         overflow="visible"
         id="symbol8983">
        <path
           style="stroke:none;"
           d="M 3.296875 2.390625 C 3.296875 2.359375 3.296875 2.34375 3.125 2.171875 C 1.890625 0.921875 1.5625 -0.96875 1.5625 -2.5 C 1.5625 -4.234375 1.9375 -5.96875 3.171875 -7.203125 C 3.296875 -7.328125 3.296875 -7.34375 3.296875 -7.375 C 3.296875 -7.453125 3.265625 -7.484375 3.203125 -7.484375 C 3.09375 -7.484375 2.203125 -6.796875 1.609375 -5.53125 C 1.109375 -4.4375 0.984375 -3.328125 0.984375 -2.5 C 0.984375 -1.71875 1.09375 -0.515625 1.640625 0.625 C 2.25 1.84375 3.09375 2.5 3.203125 2.5 C 3.265625 2.5 3.296875 2.46875 3.296875 2.390625 Z M 3.296875 2.390625 "
           id="path6492" />
      </symbol>
      <symbol
         overflow="visible"
         id="symbol552">
        <path
           style="stroke:none;"
           d="M 2.875 -2.5 C 2.875 -3.265625 2.765625 -4.46875 2.21875 -5.609375 C 1.625 -6.828125 0.765625 -7.484375 0.671875 -7.484375 C 0.609375 -7.484375 0.5625 -7.4375 0.5625 -7.375 C 0.5625 -7.34375 0.5625 -7.328125 0.75 -7.140625 C 1.734375 -6.15625 2.296875 -4.578125 2.296875 -2.5 C 2.296875 -0.78125 1.9375 0.96875 0.703125 2.21875 C 0.5625 2.34375 0.5625 2.359375 0.5625 2.390625 C 0.5625 2.453125 0.609375 2.5 0.671875 2.5 C 0.765625 2.5 1.671875 1.8125 2.25 0.546875 C 2.765625 -0.546875 2.875 -1.65625 2.875 -2.5 Z M 2.875 -2.5 "
           id="path5401" />
      </symbol>
      <symbol
         overflow="visible"
         id="symbol6521">
        <path
           style="stroke:none;"
           d=""
           id="path7160" />
      </symbol>
      <symbol
         overflow="visible"
         id="symbol6368">
        <path
           style="stroke:none;"
           d="M 2.796875 -6.765625 C 2.8125 -6.875 2.8125 -6.890625 2.8125 -6.921875 C 2.8125 -7 2.796875 -7.03125 2.703125 -7.03125 C 2.59375 -7.03125 2.296875 -6.875 2.09375 -6.78125 C 1.640625 -6.546875 1.25 -6.359375 1.25 -6.1875 C 1.25 -6.125 1.328125 -6.125 1.359375 -6.125 C 1.484375 -6.125 1.75 -6.265625 1.9375 -6.34375 C 1.8125 -5.375 1.578125 -4.09375 1.390625 -3.234375 C 1.03125 -1.546875 0.84375 -0.9375 0.34375 0.03125 C 0.296875 0.125 0.296875 0.140625 0.296875 0.15625 C 0.296875 0.21875 0.375 0.21875 0.40625 0.21875 C 0.5625 0.21875 0.984375 0.046875 1.140625 -0.234375 C 1.265625 -0.46875 1.640625 -1.203125 1.9375 -2.359375 C 2.15625 -3.203125 2.546875 -4.515625 3.25 -5.546875 C 3.703125 -6.1875 4.125 -6.484375 4.75 -6.484375 C 5.296875 -6.484375 5.78125 -6.140625 5.78125 -5.609375 C 5.78125 -4.734375 4.828125 -4.421875 3.796875 -4.0625 C 3.671875 -4.03125 2.984375 -3.78125 2.984375 -3.53125 C 2.984375 -3.484375 3.0625 -3.46875 3.09375 -3.46875 C 3.125 -3.46875 3.359375 -3.515625 3.5625 -3.515625 C 4.578125 -3.515625 5.390625 -2.90625 5.390625 -1.96875 C 5.390625 -0.734375 4.34375 -0.328125 3.421875 -0.328125 C 2.65625 -0.328125 2.296875 -0.75 2.15625 -0.890625 C 2.125 -0.9375 2.109375 -0.953125 2.03125 -0.953125 C 1.8125 -0.953125 1.3125 -0.640625 1.3125 -0.46875 C 1.3125 -0.4375 1.6875 0.21875 2.765625 0.21875 C 4.171875 0.21875 6.234375 -0.78125 6.234375 -2.375 C 6.234375 -3.21875 5.6875 -3.84375 4.671875 -4.03125 C 5.46875 -4.375 6.625 -5.09375 6.625 -6.03125 C 6.625 -6.609375 6.15625 -7.03125 5.40625 -7.03125 C 5.078125 -7.03125 3.796875 -6.953125 2.59375 -5.453125 Z M 2.796875 -6.765625 "
           id="path6210" />
      </symbol>
    </g>
    <g
       id="g7011">
      <symbol
         overflow="visible"
         id="symbol3712">
        <path
           style="stroke:none;"
           d=""
           id="path818" />
      </symbol>
      <symbol
         overflow="visible"
         id="symbol9126">
        <path
           style="stroke:none;"
           d="M 3.296875 2.390625 C 3.296875 2.359375 3.296875 2.34375 3.125 2.171875 C 1.890625 0.921875 1.5625 -0.96875 1.5625 -2.5 C 1.5625 -4.234375 1.9375 -5.96875 3.171875 -7.203125 C 3.296875 -7.328125 3.296875 -7.34375 3.296875 -7.375 C 3.296875 -7.453125 3.265625 -7.484375 3.203125 -7.484375 C 3.09375 -7.484375 2.203125 -6.796875 1.609375 -5.53125 C 1.109375 -4.4375 0.984375 -3.328125 0.984375 -2.5 C 0.984375 -1.71875 1.09375 -0.515625 1.640625 0.625 C 2.25 1.84375 3.09375 2.5 3.203125 2.5 C 3.265625 2.5 3.296875 2.46875 3.296875 2.390625 Z M 3.296875 2.390625 "
           id="path3183" />
      </symbol>
      <symbol
         overflow="visible"
         id="symbol4196">
        <path
           style="stroke:none;"
           d="M 2.875 -2.5 C 2.875 -3.265625 2.765625 -4.46875 2.21875 -5.609375 C 1.625 -6.828125 0.765625 -7.484375 0.671875 -7.484375 C 0.609375 -7.484375 0.5625 -7.4375 0.5625 -7.375 C 0.5625 -7.34375 0.5625 -7.328125 0.75 -7.140625 C 1.734375 -6.15625 2.296875 -4.578125 2.296875 -2.5 C 2.296875 -0.78125 1.9375 0.96875 0.703125 2.21875 C 0.5625 2.34375 0.5625 2.359375 0.5625 2.390625 C 0.5625 2.453125 0.609375 2.5 0.671875 2.5 C 0.765625 2.5 1.671875 1.8125 2.25 0.546875 C 2.765625 -0.546875 2.875 -1.65625 2.875 -2.5 Z M 2.875 -2.5 "
           id="path8188" />
      </symbol>
      <symbol
         overflow="visible"
         id="symbol1050">
        <path
           style="stroke:none;"
           d=""
           id="path1527" />
      </symbol>
      <symbol
         overflow="visible"
         id="symbol9455">
        <path
           style="stroke:none;"
           d="M 3.53125 -6.8125 C 2.296875 -6.8125 1.765625 -6.578125 1.53125 -6.484375 C 0.515625 -6.0625 0.28125 -5.390625 0.28125 -5.25 C 0.28125 -5.1875 0.328125 -5.171875 0.390625 -5.171875 C 0.5625 -5.171875 1.046875 -5.421875 1.125 -5.640625 C 1.25 -6.015625 1.28125 -6.109375 1.9375 -6.203125 C 2.28125 -6.234375 2.609375 -6.265625 2.953125 -6.265625 L 3.859375 -6.265625 C 3.234375 -5.65625 2.9375 -4.578125 2.578125 -3.15625 C 2.296875 -1.96875 2.0625 -1.203125 1.65625 -0.671875 C 1.5625 -0.5625 1.546875 -0.546875 1.28125 -0.546875 L 0.640625 -0.546875 C 0.453125 -0.546875 0.34375 -0.546875 0.09375 -0.40625 C -0.015625 -0.34375 -0.234375 -0.171875 -0.234375 -0.0625 C -0.234375 -0.015625 -0.234375 0 -0.015625 0 L 3.40625 0 C 4.5625 0 5.4375 -0.875 5.4375 -1.21875 C 5.4375 -1.296875 5.359375 -1.296875 5.328125 -1.296875 C 5.15625 -1.296875 4.6875 -1.0625 4.578125 -0.8125 C 4.515625 -0.609375 4.484375 -0.546875 3.984375 -0.546875 L 2.078125 -0.546875 C 2.796875 -1.15625 3.09375 -2.140625 3.421875 -3.5 C 3.703125 -4.578125 3.9375 -5.546875 4.34375 -6.15625 C 4.40625 -6.25 4.421875 -6.265625 4.609375 -6.265625 L 5.46875 -6.265625 C 5.65625 -6.265625 5.75 -6.265625 6.015625 -6.40625 C 6.09375 -6.453125 6.328125 -6.625 6.328125 -6.734375 C 6.328125 -6.796875 6.3125 -6.8125 6.09375 -6.8125 Z M 3.53125 -6.8125 "
           id="path8387" />
      </symbol>
    </g>
    <g
       id="g4915">
      <g
         id="g7671">
        <path
           d="m 3.890625,2.90625 c 0,-0.03125 0,-0.0625 -0.203125,-0.265625 C 2.484375,1.4375 1.8125,-0.53125 1.8125,-2.96875 c 0,-2.328125 0.5625,-4.328125 1.953125,-5.734375 0.125,-0.109375 0.125,-0.125 0.125,-0.171875 0,-0.0625 -0.0625,-0.09375 -0.109375,-0.09375 -0.15625,0 -1.140625,0.859375 -1.71875,2.03125 -0.609375,1.21875 -0.890625,2.484375 -0.890625,3.96875 0,1.0625 0.171875,2.484375 0.78125,3.75 C 2.671875,2.21875 3.640625,3 3.78125,3 3.828125,3 3.890625,2.96875 3.890625,2.90625 Z m 0,0"
           id="path7961" />
      </g>
      <g
         id="g4258">
        <path
           d="M 3.375,-2.96875 C 3.375,-3.890625 3.25,-5.359375 2.578125,-6.75 1.875,-8.1875 0.890625,-8.96875 0.765625,-8.96875 c -0.046875,0 -0.109375,0.03125 -0.109375,0.09375 0,0.046875 0,0.0625 0.203125,0.265625 1.203125,1.203125 1.859375,3.1875 1.859375,5.625 0,2.3125 -0.5625,4.3125 -1.9375,5.71875 C 0.65625,2.84375 0.65625,2.875 0.65625,2.90625 0.65625,2.96875 0.71875,3 0.765625,3 0.921875,3 1.90625,2.140625 2.484375,0.96875 3.09375,-0.25 3.375,-1.546875 3.375,-2.96875 Z m 0,0"
           id="path6324" />
      </g>
      <g
         id="g204">
        <path
           d="M 7.75,-5.671875 C 7.15625,-4.8125 6.671875,-3.96875 6.109375,-3.125 c -0.375,-0.109375 -0.625,-0.359375 -0.703125,-0.671875 -0.03125,-0.09375 -0.046875,-0.1875 -0.046875,-0.28125 0,-0.46875 0.265625,-1.078125 0.71875,-1.71875 0.796875,-1.125 2.1875,-1.546875 3.59375,-1.96875 0.15625,-0.046875 0.3125,-0.09375 0.453125,-0.140625 -0.9375,0.625 -1.78125,1.421875 -2.375,2.234375 z m 0.640625,0.125 c 0.703125,-1 1.75,-1.984375 2.953125,-2.734375 C 11.375,-8.296875 11.375,-8.328125 11.375,-8.359375 V -8.46875 c -0.01563,0 -0.01563,-0.015625 -0.01563,-0.03125 -0.01563,-0.046875 -0.0625,-0.078125 -0.09375,-0.078125 -0.01563,0 -0.03125,0 -0.04687,0.015625 C 9.0625,-7.671875 6.75,-7.75 5.453125,-5.921875 5.03125,-5.3125 4.8125,-4.734375 4.8125,-4.234375 c 0,0.1875 0.046875,0.375 0.09375,0.53125 C 5.078125,-3.28125 5.453125,-3 5.9375,-2.859375 L 5.734375,-2.5625 c -0.890625,1.265625 -2.296875,2.484375 -3.375,2.484375 -0.8125,0 -1.40625,-0.203125 -1.40625,-0.6875 0,-0.109375 0.03125,-0.234375 0.09375,-0.375 0.078125,0.125 0.203125,0.1875 0.359375,0.1875 0.296875,0 0.65625,-0.234375 0.65625,-0.46875 0,-0.296875 -0.171875,-0.40625 -0.390625,-0.40625 -0.25,0 -0.53125,0.140625 -0.6875,0.34375 C 0.78125,-1.1875 0.6875,-0.9375 0.6875,-0.71875 c 0,0.625 0.765625,0.921875 1.625,0.921875 1.453125,0 3.5,-1.15625 4.453125,-2.65625 L 6.984375,-2.78125 C 7.3125,-2.828125 7.703125,-2.953125 8.078125,-3.171875 8.515625,-3.40625 8.9375,-3.75 9.203125,-4.125 c 0.34375,-0.484375 0.4375,-0.9375 0.4375,-1.328125 C 9.640625,-5.59375 9.625,-5.734375 9.609375,-5.875 9.59375,-5.921875 9.5625,-5.953125 9.515625,-5.953125 h -0.03125 c -0.03125,0 -0.0625,0.03125 -0.09375,0.03125 -0.046875,0.03125 -0.0625,0.0625 -0.0625,0.109375 0,0.09375 0.015625,0.1875 0.015625,0.296875 0,0.375 -0.109375,0.8125 -0.4375,1.265625 -0.234375,0.328125 -0.578125,0.65625 -0.96875,0.875 -0.28125,0.15625 -0.546875,0.25 -0.796875,0.296875 0.453125,-0.828125 0.65625,-1.625 1.25,-2.46875 z m 0,0"
           id="path1427" />
      </g>
      <g
         id="g1753">
        <path
           d="M 4.125,-1.046875 C 4.03125,-1.140625 3.96875,-1.25 3.96875,-1.40625 c 0,-0.203125 0.078125,-0.453125 0.28125,-0.734375 0.203125,-0.28125 0.4375,-0.546875 0.765625,-0.78125 0.25,-0.171875 0.515625,-0.296875 0.703125,-0.296875 0.421875,0 0.65625,0.203125 0.671875,0.5 v 0.046875 c 0,0.375 -0.25,0.859375 -0.609375,1.359375 C 5.546875,-0.984375 5.265625,-0.640625 4.875,-0.390625 4.5,-0.15625 4.125,-0.03125 3.84375,-0.03125 c -0.71875,0 -1.03125,-0.40625 -1.03125,-1 v -0.125 c 0.0625,-0.90625 0.75,-2.015625 1.53125,-3.125 0.734375,-0.109375 1.515625,-0.296875 2.34375,-0.625 0.953125,-0.359375 2,-0.9375 2.5625,-1.734375 0.28125,-0.40625 0.453125,-0.796875 0.453125,-1.140625 0,-0.046875 0,-0.109375 -0.015625,-0.15625 C 9.625,-8.3125 9.3125,-8.53125 8.84375,-8.53125 8.03125,-8.53125 7,-7.953125 6.109375,-7.265625 5,-6.421875 4.09375,-5.4375 3.375,-4.453125 c -0.140625,0 -0.265625,0 -0.40625,0 -0.859375,0 -1.5625,-0.1875 -1.890625,-0.640625 -0.109375,-0.125 -0.15625,-0.3125 -0.15625,-0.515625 0,-0.28125 0.125,-0.640625 0.375,-1.03125 0.234375,-0.3125 0.5625,-0.625 0.953125,-0.84375 C 2.703125,-7.71875 3.140625,-7.8125 3.515625,-7.8125 c 0.03125,0 0.0625,-0.015625 0.078125,-0.046875 0.03125,-0.046875 0.0625,-0.078125 0.0625,-0.125 0,-0.046875 -0.03125,-0.09375 -0.09375,-0.09375 -0.484375,0 -1.046875,0.109375 -1.65625,0.375 -0.453125,0.21875 -0.953125,0.5625 -1.21875,0.953125 -0.265625,0.359375 -0.375,0.71875 -0.375,1.015625 0,0.3125 0.125,0.59375 0.3125,0.8125 0.484375,0.53125 1.328125,0.734375 2.296875,0.734375 h 0.25 c -0.6875,0.984375 -1.109375,1.96875 -1.109375,2.796875 0,0.09375 0,0.1875 0.015625,0.265625 0.078125,0.828125 0.6875,1.359375 1.71875,1.359375 0.40625,0 0.921875,-0.15625 1.421875,-0.421875 0.46875,-0.25 0.90625,-0.609375 1.1875,-1 0.328125,-0.46875 0.515625,-0.9375 0.515625,-1.328125 0,-0.109375 -0.015625,-0.1875 -0.03125,-0.265625 -0.125,-0.453125 -0.546875,-0.703125 -1.125,-0.703125 -0.28125,0 -0.625,0.15625 -0.921875,0.359375 -0.359375,0.25 -0.671875,0.5625 -0.890625,0.875 -0.203125,0.296875 -0.3125,0.59375 -0.3125,0.84375 0,0.234375 0.09375,0.4375 0.296875,0.5625 0,0 0.015625,0 0.03125,0 0.015625,0 0.03125,0 0.046875,0 L 4.09375,-0.875 4.140625,-0.90625 c 0,-0.03125 0.015625,-0.03125 0.015625,-0.0625 C 4.15625,-1 4.140625,-1.03125 4.125,-1.046875 Z m 0.015625,0.140625 c 0,-0.015625 0.015625,-0.03125 0.015625,-0.0625 0,-0.015625 0,-0.015625 -0.015625,-0.03125 v -0.015625 c 0,0 0,0.03125 0,0.109375 z m 4.65625,-7.359375 c 0.359375,0 0.546875,0.15625 0.59375,0.40625 V -7.75 c 0,0.265625 -0.15625,0.609375 -0.421875,1 -0.515625,0.71875 -1.484375,1.28125 -2.421875,1.640625 -0.6875,0.25 -1.359375,0.4375 -2,0.53125 0.625,-0.859375 1.28125,-1.703125 2.171875,-2.5 0.6875,-0.625 1.5,-1.1875 2.078125,-1.1875 z m 0,0"
           id="path9997" />
      </g>
    </g>
  </defs>
  <g
     inkscape:label="Layer 1"
     inkscape:groupmode="layer"
     id="layer1">
    <g
       id="g4436"
       transform="matrix(1.3202637,0,0,1.3202637,-27.836439,-112.30118)"
       style="stroke-width:0.757424">
      <path
         style="fill:none;stroke:#000000;stroke-width:0.200718;stroke-linecap:butt;stroke-linejoin:miter;stroke-miterlimit:4;stroke-dasharray:none;stroke-opacity:1;marker-start:url(#Arrow1Lstart)"
         d="m 96.001348,148.08097 c -10.837908,5.37719 -22.211715,9.4018 -38.905074,0"
         id="path1052"
         sodipodi:nodetypes="cc" />
      <path
         style="fill:none;stroke:#000000;stroke-width:0.200401px;stroke-linecap:butt;stroke-linejoin:miter;stroke-opacity:1;marker-start:url(#Arrow1Lstart)"
         d="m 57.625283,147.03959 c 11.810584,-7.73031 23.95068,-9.65289 38.300917,-0.42626"
         id="path1224"
         sodipodi:nodetypes="cc" />
    </g>
    <g
       id="g2"
       inkscape:transform-center-x="-11.345814"
       inkscape:transform-center-y="10.099022"
       transform="translate(-24.262102,-25.780385)">
      <g
         fill="#000000"
         fill-opacity="1"
         id="g5"
         transform="matrix(1.1323882,0,0,1.1323882,43.646223,98.861166)">
        <g
           id="use4"
           transform="translate(1.993,10.959)">
          <path
             d="m 3.890625,2.90625 c 0,-0.03125 0,-0.0625 -0.203125,-0.265625 C 2.484375,1.4375 1.8125,-0.53125 1.8125,-2.96875 c 0,-2.328125 0.5625,-4.328125 1.953125,-5.734375 0.125,-0.109375 0.125,-0.125 0.125,-0.171875 0,-0.0625 -0.0625,-0.09375 -0.109375,-0.09375 -0.15625,0 -1.140625,0.859375 -1.71875,2.03125 -0.609375,1.21875 -0.890625,2.484375 -0.890625,3.96875 0,1.0625 0.171875,2.484375 0.78125,3.75 C 2.671875,2.21875 3.640625,3 3.78125,3 3.828125,3 3.890625,2.96875 3.890625,2.90625 Z m 0,0"
             id="path10" />
        </g>
      </g>
      <g
         fill="#000000"
         fill-opacity="1"
         id="g6"
         transform="matrix(1.1323882,0,0,1.1323882,43.646223,98.861166)">
        <g
           id="use5"
           transform="translate(6.5450001,10.959)">
          <path
             d="M 7.75,-5.671875 C 7.15625,-4.8125 6.671875,-3.96875 6.109375,-3.125 c -0.375,-0.109375 -0.625,-0.359375 -0.703125,-0.671875 -0.03125,-0.09375 -0.046875,-0.1875 -0.046875,-0.28125 0,-0.46875 0.265625,-1.078125 0.71875,-1.71875 0.796875,-1.125 2.1875,-1.546875 3.59375,-1.96875 0.15625,-0.046875 0.3125,-0.09375 0.453125,-0.140625 -0.9375,0.625 -1.78125,1.421875 -2.375,2.234375 z m 0.640625,0.125 c 0.703125,-1 1.75,-1.984375 2.953125,-2.734375 C 11.375,-8.296875 11.375,-8.328125 11.375,-8.359375 V -8.46875 c -0.01563,0 -0.01563,-0.015625 -0.01563,-0.03125 -0.01563,-0.046875 -0.0625,-0.078125 -0.09375,-0.078125 -0.01563,0 -0.03125,0 -0.04687,0.015625 C 9.0625,-7.671875 6.75,-7.75 5.453125,-5.921875 5.03125,-5.3125 4.8125,-4.734375 4.8125,-4.234375 c 0,0.1875 0.046875,0.375 0.09375,0.53125 C 5.078125,-3.28125 5.453125,-3 5.9375,-2.859375 L 5.734375,-2.5625 c -0.890625,1.265625 -2.296875,2.484375 -3.375,2.484375 -0.8125,0 -1.40625,-0.203125 -1.40625,-0.6875 0,-0.109375 0.03125,-0.234375 0.09375,-0.375 0.078125,0.125 0.203125,0.1875 0.359375,0.1875 0.296875,0 0.65625,-0.234375 0.65625,-0.46875 0,-0.296875 -0.171875,-0.40625 -0.390625,-0.40625 -0.25,0 -0.53125,0.140625 -0.6875,0.34375 C 0.78125,-1.1875 0.6875,-0.9375 0.6875,-0.71875 c 0,0.625 0.765625,0.921875 1.625,0.921875 1.453125,0 3.5,-1.15625 4.453125,-2.65625 L 6.984375,-2.78125 C 7.3125,-2.828125 7.703125,-2.953125 8.078125,-3.171875 8.515625,-3.40625 8.9375,-3.75 9.203125,-4.125 c 0.34375,-0.484375 0.4375,-0.9375 0.4375,-1.328125 C 9.640625,-5.59375 9.625,-5.734375 9.609375,-5.875 9.59375,-5.921875 9.5625,-5.953125 9.515625,-5.953125 h -0.03125 c -0.03125,0 -0.0625,0.03125 -0.09375,0.03125 -0.046875,0.03125 -0.0625,0.0625 -0.0625,0.109375 0,0.09375 0.015625,0.1875 0.015625,0.296875 0,0.375 -0.109375,0.8125 -0.4375,1.265625 -0.234375,0.328125 -0.578125,0.65625 -0.96875,0.875 -0.28125,0.15625 -0.546875,0.25 -0.796875,0.296875 0.453125,-0.828125 0.65625,-1.625 1.25,-2.46875 z m 0,0"
             id="path11" />
        </g>
      </g>
      <g
         fill="#000000"
         fill-opacity="1"
         id="g7"
         transform="matrix(1.1323882,0,0,1.1323882,43.646223,98.861166)">
        <g
           id="use6"
           transform="translate(18.511999,10.959)">
          <path
             d="M 3.375,-2.96875 C 3.375,-3.890625 3.25,-5.359375 2.578125,-6.75 1.875,-8.1875 0.890625,-8.96875 0.765625,-8.96875 c -0.046875,0 -0.109375,0.03125 -0.109375,0.09375 0,0.046875 0,0.0625 0.203125,0.265625 1.203125,1.203125 1.859375,3.1875 1.859375,5.625 0,2.3125 -0.5625,4.3125 -1.9375,5.71875 C 0.65625,2.84375 0.65625,2.875 0.65625,2.90625 0.65625,2.96875 0.71875,3 0.765625,3 0.921875,3 1.90625,2.140625 2.484375,0.96875 3.09375,-0.25 3.375,-1.546875 3.375,-2.96875 Z m 0,0"
             id="path12" />
        </g>
      </g>
    </g>
    <g
       id="g1"
       transform="translate(22.59712,-25.780385)">
      <g
         fill="#000000"
         fill-opacity="1"
         id="g8"
         transform="matrix(1.1323882,0,0,1.1323882,43.646223,98.861166)">
        <g
           id="use7"
           transform="translate(30.871286,10.959)">
          <path
             d="m 3.890625,2.90625 c 0,-0.03125 0,-0.0625 -0.203125,-0.265625 C 2.484375,1.4375 1.8125,-0.53125 1.8125,-2.96875 c 0,-2.328125 0.5625,-4.328125 1.953125,-5.734375 0.125,-0.109375 0.125,-0.125 0.125,-0.171875 0,-0.0625 -0.0625,-0.09375 -0.109375,-0.09375 -0.15625,0 -1.140625,0.859375 -1.71875,2.03125 -0.609375,1.21875 -0.890625,2.484375 -0.890625,3.96875 0,1.0625 0.171875,2.484375 0.78125,3.75 C 2.671875,2.21875 3.640625,3 3.78125,3 3.828125,3 3.890625,2.96875 3.890625,2.90625 Z m 0,0"
             id="path13" />
        </g>
      </g>
      <g
         fill="#000000"
         fill-opacity="1"
         id="g9"
         transform="matrix(1.1323882,0,0,1.1323882,43.646223,98.861166)">
        <g
           id="use8"
           transform="translate(35.419998,10.959)">
          <path
             d="M 4.125,-1.046875 C 4.03125,-1.140625 3.96875,-1.25 3.96875,-1.40625 c 0,-0.203125 0.078125,-0.453125 0.28125,-0.734375 0.203125,-0.28125 0.4375,-0.546875 0.765625,-0.78125 0.25,-0.171875 0.515625,-0.296875 0.703125,-0.296875 0.421875,0 0.65625,0.203125 0.671875,0.5 v 0.046875 c 0,0.375 -0.25,0.859375 -0.609375,1.359375 C 5.546875,-0.984375 5.265625,-0.640625 4.875,-0.390625 4.5,-0.15625 4.125,-0.03125 3.84375,-0.03125 c -0.71875,0 -1.03125,-0.40625 -1.03125,-1 v -0.125 c 0.0625,-0.90625 0.75,-2.015625 1.53125,-3.125 0.734375,-0.109375 1.515625,-0.296875 2.34375,-0.625 0.953125,-0.359375 2,-0.9375 2.5625,-1.734375 0.28125,-0.40625 0.453125,-0.796875 0.453125,-1.140625 0,-0.046875 0,-0.109375 -0.015625,-0.15625 C 9.625,-8.3125 9.3125,-8.53125 8.84375,-8.53125 8.03125,-8.53125 7,-7.953125 6.109375,-7.265625 5,-6.421875 4.09375,-5.4375 3.375,-4.453125 c -0.140625,0 -0.265625,0 -0.40625,0 -0.859375,0 -1.5625,-0.1875 -1.890625,-0.640625 -0.109375,-0.125 -0.15625,-0.3125 -0.15625,-0.515625 0,-0.28125 0.125,-0.640625 0.375,-1.03125 0.234375,-0.3125 0.5625,-0.625 0.953125,-0.84375 C 2.703125,-7.71875 3.140625,-7.8125 3.515625,-7.8125 c 0.03125,0 0.0625,-0.015625 0.078125,-0.046875 0.03125,-0.046875 0.0625,-0.078125 0.0625,-0.125 0,-0.046875 -0.03125,-0.09375 -0.09375,-0.09375 -0.484375,0 -1.046875,0.109375 -1.65625,0.375 -0.453125,0.21875 -0.953125,0.5625 -1.21875,0.953125 -0.265625,0.359375 -0.375,0.71875 -0.375,1.015625 0,0.3125 0.125,0.59375 0.3125,0.8125 0.484375,0.53125 1.328125,0.734375 2.296875,0.734375 h 0.25 c -0.6875,0.984375 -1.109375,1.96875 -1.109375,2.796875 0,0.09375 0,0.1875 0.015625,0.265625 0.078125,0.828125 0.6875,1.359375 1.71875,1.359375 0.40625,0 0.921875,-0.15625 1.421875,-0.421875 0.46875,-0.25 0.90625,-0.609375 1.1875,-1 0.328125,-0.46875 0.515625,-0.9375 0.515625,-1.328125 0,-0.109375 -0.015625,-0.1875 -0.03125,-0.265625 -0.125,-0.453125 -0.546875,-0.703125 -1.125,-0.703125 -0.28125,0 -0.625,0.15625 -0.921875,0.359375 -0.359375,0.25 -0.671875,0.5625 -0.890625,0.875 -0.203125,0.296875 -0.3125,0.59375 -0.3125,0.84375 0,0.234375 0.09375,0.4375 0.296875,0.5625 0,0 0.015625,0 0.03125,0 0.015625,0 0.03125,0 0.046875,0 L 4.09375,-0.875 4.140625,-0.90625 c 0,-0.03125 0.015625,-0.03125 0.015625,-0.0625 C 4.15625,-1 4.140625,-1.03125 4.125,-1.046875 Z m 0.015625,0.140625 c 0,-0.015625 0.015625,-0.03125 0.015625,-0.0625 0,-0.015625 0,-0.015625 -0.015625,-0.03125 v -0.015625 c 0,0 0,0.03125 0,0.109375 z m 4.65625,-7.359375 c 0.359375,0 0.546875,0.15625 0.59375,0.40625 V -7.75 c 0,0.265625 -0.15625,0.609375 -0.421875,1 -0.515625,0.71875 -1.484375,1.28125 -2.421875,1.640625 -0.6875,0.25 -1.359375,0.4375 -2,0.53125 0.625,-0.859375 1.28125,-1.703125 2.171875,-2.5 0.6875,-0.625 1.5,-1.1875 2.078125,-1.1875 z m 0,0"
             id="path14" />
        </g>
      </g>
      <g
         fill="#000000"
         fill-opacity="1"
         id="g10"
         transform="matrix(1.1323882,0,0,1.1323882,43.646223,98.861166)">
        <g
           id="use9"
           transform="translate(45.403999,10.959)">
          <path
             d="M 3.375,-2.96875 C 3.375,-3.890625 3.25,-5.359375 2.578125,-6.75 1.875,-8.1875 0.890625,-8.96875 0.765625,-8.96875 c -0.046875,0 -0.109375,0.03125 -0.109375,0.09375 0,0.046875 0,0.0625 0.203125,0.265625 1.203125,1.203125 1.859375,3.1875 1.859375,5.625 0,2.3125 -0.5625,4.3125 -1.9375,5.71875 C 0.65625,2.84375 0.65625,2.875 0.65625,2.90625 0.65625,2.96875 0.71875,3 0.765625,3 0.921875,3 1.90625,2.140625 2.484375,0.96875 3.09375,-0.25 3.375,-1.546875 3.375,-2.96875 Z m 0,0"
             id="path15" />
        </g>
      </g>
    </g>
  </g>
</svg>
