<?xml version="1.0" encoding="UTF-8" standalone="no"?>
<!-- Created with Inkscape (http://www.inkscape.org/) -->

<svg
   width="210mm"
   height="297mm"
   viewBox="0 0 210 297"
   version="1.1"
   id="svg1"
   inkscape:version="1.4 (e7c3feb100, 2024-10-09)"
   sodipodi:docname="smallest_graphs.svg"
   xmlns:inkscape="http://www.inkscape.org/namespaces/inkscape"
   xmlns:sodipodi="http://sodipodi.sourceforge.net/DTD/sodipodi-0.dtd"
   xmlns="http://www.w3.org/2000/svg"
   xmlns:svg="http://www.w3.org/2000/svg">
  <sodipodi:namedview
     id="namedview1"
     pagecolor="#ffffff"
     bordercolor="#000000"
     borderopacity="0.25"
     inkscape:showpageshadow="2"
     inkscape:pageopacity="0.0"
     inkscape:pagecheckerboard="0"
     inkscape:deskcolor="#d1d1d1"
     inkscape:document-units="mm"
     inkscape:zoom="6.3713805"
     inkscape:cx="178.92512"
     inkscape:cy="325.83206"
     inkscape:window-width="1900"
     inkscape:window-height="1024"
     inkscape:window-x="0"
     inkscape:window-y="0"
     inkscape:window-maximized="1"
     inkscape:current-layer="layer1" />
  <defs
     id="defs1">
    <g
       id="g2773">
      <g
         id="g7709">
        <path
           d="m 8.921875,-8.3125 c 0,-0.109375 -0.09375,-0.109375 -0.109375,-0.109375 -0.03125,0 -0.078125,0 -0.171875,0.125 l -0.828125,1 C 7.75,-7.40625 7.515625,-7.8125 7.046875,-8.09375 6.53125,-8.421875 6.03125,-8.421875 5.84375,-8.421875 c -2.5625,0 -5.25,2.609375 -5.25,5.4375 0,1.96875 1.359375,3.234375 3.15625,3.234375 0.859375,0 1.953125,-0.28125 2.546875,-1.03125 0.140625,0.453125 0.390625,0.765625 0.484375,0.765625 0.0625,0 0.0625,-0.03125 0.078125,-0.03125 0.015625,-0.03125 0.109375,-0.4375 0.171875,-0.65625 L 7.21875,-1.46875 C 7.3125,-1.859375 7.359375,-2.03125 7.453125,-2.390625 7.5625,-2.84375 7.59375,-2.875 8.25,-2.890625 c 0.046875,0 0.1875,0 0.1875,-0.234375 0,-0.109375 -0.125,-0.109375 -0.15625,-0.109375 -0.203125,0 -0.421875,0.015625 -0.640625,0.015625 H 7 c -0.515625,0 -1.03125,-0.015625 -1.53125,-0.015625 -0.109375,0 -0.25,0 -0.25,0.203125 0,0.125 0.09375,0.125 0.09375,0.140625 H 5.625 c 0.9375,0 0.9375,0.09375 0.9375,0.265625 0,0.015625 -0.234375,1.21875 -0.453125,1.578125 C 5.65625,-0.375 4.703125,-0.09375 4,-0.09375 c -0.921875,0 -2.40625,-0.484375 -2.40625,-2.546875 0,-0.796875 0.28125,-2.625 1.4375,-3.984375 0.765625,-0.859375 1.875,-1.4375 2.921875,-1.4375 1.40625,0 1.90625,1.203125 1.90625,2.296875 0,0.203125 -0.046875,0.453125 -0.046875,0.625 0,0.109375 0.125,0.109375 0.15625,0.109375 0.140625,0 0.140625,-0.015625 0.1875,-0.234375 z m 0,0"
           id="path8533" />
      </g>
      <g
         id="g9780">
        <path
           d="m 2.5,-5.078125 c 0,-0.21875 -0.015625,-0.21875 -0.234375,-0.21875 -0.328125,0.3125 -0.75,0.5 -1.5,0.5 v 0.265625 c 0.21875,0 0.640625,0 1.109375,-0.203125 v 4.078125 c 0,0.296875 -0.03125,0.390625 -0.78125,0.390625 H 0.8125 V 0 c 0.328125,-0.03125 1.015625,-0.03125 1.375,-0.03125 0.359375,0 1.046875,0 1.375,0.03125 V -0.265625 H 3.28125 c -0.75,0 -0.78125,-0.09375 -0.78125,-0.390625 z m 0,0"
           id="path1245" />
      </g>
      <g
         id="g6831">
        <path
           d="m 2.25,-1.625 c 0.125,-0.125 0.453125,-0.390625 0.59375,-0.5 0.484375,-0.453125 0.953125,-0.890625 0.953125,-1.609375 0,-0.953125 -0.796875,-1.5625 -1.78125,-1.5625 -0.96875,0 -1.59375,0.71875 -1.59375,1.4375 0,0.390625 0.3125,0.4375 0.421875,0.4375 0.171875,0 0.421875,-0.109375 0.421875,-0.421875 0,-0.40625 -0.40625,-0.40625 -0.5,-0.40625 C 1,-4.84375 1.53125,-5.03125 1.921875,-5.03125 c 0.734375,0 1.125,0.625 1.125,1.296875 0,0.828125 -0.578125,1.4375 -1.53125,2.390625 l -1,1.046875 C 0.421875,-0.21875 0.421875,-0.203125 0.421875,0 H 3.5625 l 0.234375,-1.421875 h -0.25 C 3.53125,-1.265625 3.46875,-0.875 3.375,-0.71875 c -0.046875,0.0625 -0.65625,0.0625 -0.78125,0.0625 H 1.171875 Z m 0,0"
           id="path2752" />
      </g>
    </g>
  </defs>
  <g
     inkscape:label="Layer 1"
     inkscape:groupmode="layer"
     id="layer1">
    <ellipse
       style="fill:#000000;stroke:none;stroke-width:0.124889;fill-opacity:1"
       id="path1"
       cx="32.610661"
       cy="75.129608"
       rx="1.4375557"
       ry="1.4375556" />
    <ellipse
       style="fill:#000000;fill-opacity:1;stroke:none;stroke-width:0.124889"
       id="path1-5"
       cx="32.610661"
       cy="91.169289"
       rx="1.4375557"
       ry="1.4375556" />
    <ellipse
       style="fill:#000000;fill-opacity:1;stroke:none;stroke-width:0.124889"
       id="path1-6"
       cx="-91.169289"
       cy="47.766392"
       rx="1.4375557"
       ry="1.4375556"
       transform="rotate(-90)" />
    <ellipse
       style="fill:#000000;fill-opacity:1;stroke:none;stroke-width:0.124889"
       id="path1-5-1"
       cx="-91.169289"
       cy="63.806068"
       rx="1.4375557"
       ry="1.4375556"
       transform="rotate(-90)" />
    <ellipse
       style="fill:#000000;fill-opacity:1;stroke:none;stroke-width:0.124889"
       id="path1-6-5"
       cx="-75.129608"
       cy="55.53006"
       rx="1.4375557"
       ry="1.4375556"
       transform="rotate(-90)" />
    <path
       style="fill:none;fill-opacity:1;stroke:#000000;stroke-width:0.499999;stroke-opacity:1"
       d="m 32.61066,91.169288 c 0,0 3.383397,-5.442455 3.322148,-8.476636 -0.05557,-2.752949 -3.322148,-7.563046 -3.322148,-7.563046"
       id="path2"
       sodipodi:nodetypes="cac" />
    <path
       style="fill:none;fill-opacity:1;stroke:#000000;stroke-width:0.499999;stroke-opacity:1"
       d="m 32.377899,90.817949 c 0,0 -3.383397,-5.442455 -3.322148,-8.476636 0.05557,-2.752949 3.322148,-7.563046 3.322148,-7.563046"
       id="path2-8"
       sodipodi:nodetypes="cac" />
    <path
       style="fill:none;fill-opacity:1;stroke:#000000;stroke-width:0.499999;stroke-opacity:1"
       d="m 47.76639,91.169288 c 0,0 5.082669,2.083672 7.76367,2.101986 2.847657,0.01945 8.276007,-2.119786 8.276007,-2.119786 0,0 -0.01868,-6.46951 -1.437554,-9.247786 -1.45931,-2.85746 -6.838453,-6.774034 -6.838453,-6.774034 0,0 -4.975121,3.995533 -6.326113,6.774034 -1.366708,2.810825 -1.437557,9.265586 -1.437557,9.265586 z"
       id="path3"
       sodipodi:nodetypes="cacacac" />
    <path
       style="fill:none;fill-opacity:1;stroke:#000000;stroke-width:0.499999;stroke-opacity:1"
       d="M 51.648224,83.149447 Z"
       id="path4" />
    <g
       id="g8"
       transform="translate(-11.066138,-2.5311286)">
      <g
         fill="#000000"
         fill-opacity="1"
         id="g4"
         transform="matrix(0.352778,0,0,0.352778,37.022185,94.524095)">
        <g
           id="use3"
           transform="translate(1.993,10.162)">
          <path
             d="m 8.921875,-8.3125 c 0,-0.109375 -0.09375,-0.109375 -0.109375,-0.109375 -0.03125,0 -0.078125,0 -0.171875,0.125 l -0.828125,1 C 7.75,-7.40625 7.515625,-7.8125 7.046875,-8.09375 6.53125,-8.421875 6.03125,-8.421875 5.84375,-8.421875 c -2.5625,0 -5.25,2.609375 -5.25,5.4375 0,1.96875 1.359375,3.234375 3.15625,3.234375 0.859375,0 1.953125,-0.28125 2.546875,-1.03125 0.140625,0.453125 0.390625,0.765625 0.484375,0.765625 0.0625,0 0.0625,-0.03125 0.078125,-0.03125 0.015625,-0.03125 0.109375,-0.4375 0.171875,-0.65625 L 7.21875,-1.46875 C 7.3125,-1.859375 7.359375,-2.03125 7.453125,-2.390625 7.5625,-2.84375 7.59375,-2.875 8.25,-2.890625 c 0.046875,0 0.1875,0 0.1875,-0.234375 0,-0.109375 -0.125,-0.109375 -0.15625,-0.109375 -0.203125,0 -0.421875,0.015625 -0.640625,0.015625 H 7 c -0.515625,0 -1.03125,-0.015625 -1.53125,-0.015625 -0.109375,0 -0.25,0 -0.25,0.203125 0,0.125 0.09375,0.125 0.09375,0.140625 H 5.625 c 0.9375,0 0.9375,0.09375 0.9375,0.265625 0,0.015625 -0.234375,1.21875 -0.453125,1.578125 C 5.65625,-0.375 4.703125,-0.09375 4,-0.09375 c -0.921875,0 -2.40625,-0.484375 -2.40625,-2.546875 0,-0.796875 0.28125,-2.625 1.4375,-3.984375 0.765625,-0.859375 1.875,-1.4375 2.921875,-1.4375 1.40625,0 1.90625,1.203125 1.90625,2.296875 0,0.203125 -0.046875,0.453125 -0.046875,0.625 0,0.109375 0.125,0.109375 0.15625,0.109375 0.140625,0 0.140625,-0.015625 0.1875,-0.234375 z m 0,0"
             id="path7" />
        </g>
      </g>
      <g
         fill="#000000"
         fill-opacity="1"
         id="g5"
         transform="matrix(0.352778,0,0,0.352778,37.022185,94.524095)">
        <g
           id="use4"
           transform="translate(11.226,11.955)">
          <path
             d="m 2.5,-5.078125 c 0,-0.21875 -0.015625,-0.21875 -0.234375,-0.21875 -0.328125,0.3125 -0.75,0.5 -1.5,0.5 v 0.265625 c 0.21875,0 0.640625,0 1.109375,-0.203125 v 4.078125 c 0,0.296875 -0.03125,0.390625 -0.78125,0.390625 H 0.8125 V 0 c 0.328125,-0.03125 1.015625,-0.03125 1.375,-0.03125 0.359375,0 1.046875,0 1.375,0.03125 V -0.265625 H 3.28125 c -0.75,0 -0.78125,-0.09375 -0.78125,-0.390625 z m 0,0"
             id="path8" />
        </g>
      </g>
    </g>
    <g
       id="g9"
       transform="translate(21.005806,-2.5311285)">
      <g
         fill="#000000"
         fill-opacity="1"
         id="g6"
         transform="matrix(0.352778,0,0,0.352778,37.022185,94.524095)">
        <g
           id="use5"
           transform="translate(19.860001,10.162)">
          <path
             d="m 8.921875,-8.3125 c 0,-0.109375 -0.09375,-0.109375 -0.109375,-0.109375 -0.03125,0 -0.078125,0 -0.171875,0.125 l -0.828125,1 C 7.75,-7.40625 7.515625,-7.8125 7.046875,-8.09375 6.53125,-8.421875 6.03125,-8.421875 5.84375,-8.421875 c -2.5625,0 -5.25,2.609375 -5.25,5.4375 0,1.96875 1.359375,3.234375 3.15625,3.234375 0.859375,0 1.953125,-0.28125 2.546875,-1.03125 0.140625,0.453125 0.390625,0.765625 0.484375,0.765625 0.0625,0 0.0625,-0.03125 0.078125,-0.03125 0.015625,-0.03125 0.109375,-0.4375 0.171875,-0.65625 L 7.21875,-1.46875 C 7.3125,-1.859375 7.359375,-2.03125 7.453125,-2.390625 7.5625,-2.84375 7.59375,-2.875 8.25,-2.890625 c 0.046875,0 0.1875,0 0.1875,-0.234375 0,-0.109375 -0.125,-0.109375 -0.15625,-0.109375 -0.203125,0 -0.421875,0.015625 -0.640625,0.015625 H 7 c -0.515625,0 -1.03125,-0.015625 -1.53125,-0.015625 -0.109375,0 -0.25,0 -0.25,0.203125 0,0.125 0.09375,0.125 0.09375,0.140625 H 5.625 c 0.9375,0 0.9375,0.09375 0.9375,0.265625 0,0.015625 -0.234375,1.21875 -0.453125,1.578125 C 5.65625,-0.375 4.703125,-0.09375 4,-0.09375 c -0.921875,0 -2.40625,-0.484375 -2.40625,-2.546875 0,-0.796875 0.28125,-2.625 1.4375,-3.984375 0.765625,-0.859375 1.875,-1.4375 2.921875,-1.4375 1.40625,0 1.90625,1.203125 1.90625,2.296875 0,0.203125 -0.046875,0.453125 -0.046875,0.625 0,0.109375 0.125,0.109375 0.15625,0.109375 0.140625,0 0.140625,-0.015625 0.1875,-0.234375 z m 0,0"
             id="path9" />
        </g>
      </g>
      <g
         fill="#000000"
         fill-opacity="1"
         id="g7"
         transform="matrix(0.352778,0,0,0.352778,37.022185,94.524095)">
        <g
           id="use6"
           transform="translate(29.094,11.955)">
          <path
             d="m 2.25,-1.625 c 0.125,-0.125 0.453125,-0.390625 0.59375,-0.5 0.484375,-0.453125 0.953125,-0.890625 0.953125,-1.609375 0,-0.953125 -0.796875,-1.5625 -1.78125,-1.5625 -0.96875,0 -1.59375,0.71875 -1.59375,1.4375 0,0.390625 0.3125,0.4375 0.421875,0.4375 0.171875,0 0.421875,-0.109375 0.421875,-0.421875 0,-0.40625 -0.40625,-0.40625 -0.5,-0.40625 C 1,-4.84375 1.53125,-5.03125 1.921875,-5.03125 c 0.734375,0 1.125,0.625 1.125,1.296875 0,0.828125 -0.578125,1.4375 -1.53125,2.390625 l -1,1.046875 C 0.421875,-0.21875 0.421875,-0.203125 0.421875,0 H 3.5625 l 0.234375,-1.421875 h -0.25 C 3.53125,-1.265625 3.46875,-0.875 3.375,-0.71875 c -0.046875,0.0625 -0.65625,0.0625 -0.78125,0.0625 H 1.171875 Z m 0,0"
             id="path10" />
        </g>
      </g>
    </g>
  </g>
</svg>
