<?xml version="1.0" encoding="UTF-8" standalone="no"?>
<!-- Created with Inkscape (http://www.inkscape.org/) -->

<svg
   sodipodi:docname="convex.svg"
   inkscape:version="1.1.2 (0a00cf5339, 2022-02-04)"
   id="svg5"
   version="1.1"
   viewBox="0 0 210 297"
   height="297mm"
   width="210mm"
   xmlns:inkscape="http://www.inkscape.org/namespaces/inkscape"
   xmlns:sodipodi="http://sodipodi.sourceforge.net/DTD/sodipodi-0.dtd"
   xmlns:xlink="http://www.w3.org/1999/xlink"
   xmlns="http://www.w3.org/2000/svg"
   xmlns:svg="http://www.w3.org/2000/svg">
  <sodipodi:namedview
     id="namedview7"
     pagecolor="#ffffff"
     bordercolor="#666666"
     borderopacity="1.0"
     inkscape:pageshadow="2"
     inkscape:pageopacity="0.0"
     inkscape:pagecheckerboard="0"
     inkscape:document-units="mm"
     showgrid="false"
     inkscape:snap-global="false"
     inkscape:zoom="1"
     inkscape:cx="388"
     inkscape:cy="568"
     inkscape:window-width="937"
     inkscape:window-height="1008"
     inkscape:window-x="964"
     inkscape:window-y="53"
     inkscape:window-maximized="1"
     inkscape:current-layer="layer1"
     showguides="false" />
  <defs
     id="defs2">
    <linearGradient
       id="linearGradient3085"
       inkscape:swatch="solid">
      <stop
         style="stop-color:#000000;stop-opacity:1;"
         offset="0"
         id="stop3083" />
    </linearGradient>
    <linearGradient
       id="linearGradient3025"
       inkscape:swatch="solid">
      <stop
         style="stop-color:#000000;stop-opacity:1;"
         offset="0"
         id="stop3023" />
    </linearGradient>
    <linearGradient
       id="linearGradient3009"
       inkscape:swatch="solid">
      <stop
         style="stop-color:#000000;stop-opacity:1;"
         offset="0"
         id="stop3007" />
    </linearGradient>
    <marker
       style="overflow:visible"
       id="marker8251"
       refX="0.0"
       refY="0.0"
       orient="auto"
       inkscape:stockid="DotL"
       inkscape:isstock="true">
      <path
         transform="scale(0.8) translate(7.4, 1)"
         style="fill-rule:evenodd;fill:context-stroke;stroke:context-stroke;stroke-width:1.0pt"
         d="M -2.5,-1.0 C -2.5,1.7600000 -4.7400000,4.0 -7.5,4.0 C -10.260000,4.0 -12.5,1.7600000 -12.5,-1.0 C -12.5,-3.7600000 -10.260000,-6.0 -7.5,-6.0 C -4.7400000,-6.0 -2.5,-3.7600000 -2.5,-1.0 z "
         id="path8249" />
    </marker>
    <marker
       style="overflow:visible"
       id="DiamondS"
       refX="0.0"
       refY="0.0"
       orient="auto"
       inkscape:stockid="DiamondS"
       inkscape:isstock="true">
      <path
         transform="scale(0.2)"
         style="fill-rule:evenodd;fill:context-stroke;stroke:context-stroke;stroke-width:1.0pt"
         d="M 0,-7.0710768 L -7.0710894,0 L 0,7.0710589 L 7.0710462,0 L 0,-7.0710768 z "
         id="path3096" />
    </marker>
    <marker
       style="overflow:visible"
       id="DotL"
       refX="0.0"
       refY="0.0"
       orient="auto"
       inkscape:stockid="DotL"
       inkscape:isstock="true">
      <path
         transform="scale(0.8) translate(7.4, 1)"
         style="fill-rule:evenodd;fill:context-stroke;stroke:context-stroke;stroke-width:1.0pt"
         d="M -2.5,-1.0 C -2.5,1.7600000 -4.7400000,4.0 -7.5,4.0 C -10.260000,4.0 -12.5,1.7600000 -12.5,-1.0 C -12.5,-3.7600000 -10.260000,-6.0 -7.5,-6.0 C -4.7400000,-6.0 -2.5,-3.7600000 -2.5,-1.0 z "
         id="path3072" />
    </marker>
    <marker
       style="overflow:visible"
       id="Arrow1Lstart"
       refX="0.0"
       refY="0.0"
       orient="auto"
       inkscape:stockid="Arrow1Lstart"
       inkscape:isstock="true">
      <path
         transform="scale(0.8) translate(12.5,0)"
         style="fill-rule:evenodd;fill:context-stroke;stroke:context-stroke;stroke-width:1.0pt"
         d="M 0.0,0.0 L 5.0,-5.0 L -12.5,0.0 L 5.0,5.0 L 0.0,0.0 z "
         id="path3011" />
    </marker>
    <g
       id="g4694">
      <symbol
         overflow="visible"
         id="symbol3658">
        <path
           style="stroke:none;"
           d=""
           id="path404" />
      </symbol>
      <symbol
         overflow="visible"
         id="symbol4067">
        <path
           style="stroke:none;"
           d="M 2.859375 -2.34375 C 3.15625 -2.71875 3.53125 -3.203125 3.78125 -3.46875 C 4.09375 -3.828125 4.5 -3.984375 4.96875 -3.984375 L 4.96875 -4.296875 C 4.703125 -4.28125 4.40625 -4.265625 4.140625 -4.265625 C 3.84375 -4.265625 3.3125 -4.28125 3.1875 -4.296875 L 3.1875 -3.984375 C 3.40625 -3.96875 3.484375 -3.84375 3.484375 -3.671875 C 3.484375 -3.515625 3.375 -3.390625 3.328125 -3.328125 L 2.71875 -2.546875 L 1.9375 -3.5625 C 1.84375 -3.65625 1.84375 -3.671875 1.84375 -3.734375 C 1.84375 -3.890625 2 -3.984375 2.1875 -3.984375 L 2.1875 -4.296875 C 1.9375 -4.28125 1.28125 -4.265625 1.109375 -4.265625 C 0.90625 -4.265625 0.4375 -4.28125 0.171875 -4.296875 L 0.171875 -3.984375 C 0.875 -3.984375 0.875 -3.984375 1.34375 -3.375 L 2.328125 -2.09375 L 1.390625 -0.90625 C 0.921875 -0.328125 0.328125 -0.3125 0.125 -0.3125 L 0.125 0 C 0.375 -0.015625 0.6875 -0.03125 0.953125 -0.03125 C 1.234375 -0.03125 1.65625 -0.015625 1.890625 0 L 1.890625 -0.3125 C 1.671875 -0.34375 1.609375 -0.46875 1.609375 -0.625 C 1.609375 -0.84375 1.890625 -1.171875 2.5 -1.890625 L 3.265625 -0.890625 C 3.34375 -0.78125 3.46875 -0.625 3.46875 -0.5625 C 3.46875 -0.46875 3.375 -0.3125 3.109375 -0.3125 L 3.109375 0 C 3.40625 -0.015625 3.96875 -0.03125 4.1875 -0.03125 C 4.453125 -0.03125 4.84375 -0.015625 5.140625 0 L 5.140625 -0.3125 C 4.609375 -0.3125 4.421875 -0.328125 4.203125 -0.625 Z M 2.859375 -2.34375 "
           id="path185" />
      </symbol>
    </g>
    <g
       id="g7943">
      <symbol
         overflow="visible"
         id="symbol2566">
        <path
           style="stroke:none;"
           d=""
           id="path3731" />
      </symbol>
      <symbol
         overflow="visible"
         id="symbol6547">
        <path
           style="stroke:none;"
           d="M 3.328125 -3.015625 C 3.390625 -3.265625 3.625 -4.1875 4.3125 -4.1875 C 4.359375 -4.1875 4.609375 -4.1875 4.8125 -4.0625 C 4.53125 -4 4.34375 -3.765625 4.34375 -3.515625 C 4.34375 -3.359375 4.453125 -3.171875 4.71875 -3.171875 C 4.9375 -3.171875 5.25 -3.34375 5.25 -3.75 C 5.25 -4.265625 4.671875 -4.40625 4.328125 -4.40625 C 3.75 -4.40625 3.40625 -3.875 3.28125 -3.65625 C 3.03125 -4.3125 2.5 -4.40625 2.203125 -4.40625 C 1.171875 -4.40625 0.59375 -3.125 0.59375 -2.875 C 0.59375 -2.765625 0.703125 -2.765625 0.71875 -2.765625 C 0.796875 -2.765625 0.828125 -2.796875 0.84375 -2.875 C 1.1875 -3.9375 1.84375 -4.1875 2.1875 -4.1875 C 2.375 -4.1875 2.71875 -4.09375 2.71875 -3.515625 C 2.71875 -3.203125 2.546875 -2.546875 2.1875 -1.140625 C 2.03125 -0.53125 1.671875 -0.109375 1.234375 -0.109375 C 1.171875 -0.109375 0.953125 -0.109375 0.734375 -0.234375 C 0.984375 -0.296875 1.203125 -0.5 1.203125 -0.78125 C 1.203125 -1.046875 0.984375 -1.125 0.84375 -1.125 C 0.53125 -1.125 0.296875 -0.875 0.296875 -0.546875 C 0.296875 -0.09375 0.78125 0.109375 1.21875 0.109375 C 1.890625 0.109375 2.25 -0.59375 2.265625 -0.640625 C 2.390625 -0.28125 2.75 0.109375 3.34375 0.109375 C 4.375 0.109375 4.9375 -1.171875 4.9375 -1.421875 C 4.9375 -1.53125 4.859375 -1.53125 4.828125 -1.53125 C 4.734375 -1.53125 4.71875 -1.484375 4.6875 -1.421875 C 4.359375 -0.34375 3.6875 -0.109375 3.375 -0.109375 C 2.984375 -0.109375 2.828125 -0.421875 2.828125 -0.765625 C 2.828125 -0.984375 2.875 -1.203125 2.984375 -1.640625 Z M 3.328125 -3.015625 "
           id="path3104" />
      </symbol>
    </g>
    <g
       id="g7890">
      <symbol
         overflow="visible"
         id="symbol4664">
        <path
           style="stroke:none;"
           d=""
           id="path7728" />
      </symbol>
      <symbol
         overflow="visible"
         id="symbol1878">
        <path
           style="stroke:none;"
           d="M 4.84375 -3.796875 C 4.890625 -3.9375 4.890625 -3.953125 4.890625 -4.03125 C 4.890625 -4.203125 4.75 -4.296875 4.59375 -4.296875 C 4.5 -4.296875 4.34375 -4.234375 4.25 -4.09375 C 4.234375 -4.03125 4.140625 -3.734375 4.109375 -3.546875 C 4.03125 -3.296875 3.96875 -3.015625 3.90625 -2.75 L 3.453125 -0.953125 C 3.421875 -0.8125 2.984375 -0.109375 2.328125 -0.109375 C 1.828125 -0.109375 1.71875 -0.546875 1.71875 -0.921875 C 1.71875 -1.375 1.890625 -2 2.21875 -2.875 C 2.375 -3.28125 2.421875 -3.390625 2.421875 -3.59375 C 2.421875 -4.03125 2.109375 -4.40625 1.609375 -4.40625 C 0.65625 -4.40625 0.296875 -2.953125 0.296875 -2.875 C 0.296875 -2.765625 0.390625 -2.765625 0.40625 -2.765625 C 0.515625 -2.765625 0.515625 -2.796875 0.5625 -2.953125 C 0.84375 -3.890625 1.234375 -4.1875 1.578125 -4.1875 C 1.65625 -4.1875 1.828125 -4.1875 1.828125 -3.875 C 1.828125 -3.625 1.71875 -3.359375 1.65625 -3.171875 C 1.25 -2.109375 1.078125 -1.546875 1.078125 -1.078125 C 1.078125 -0.1875 1.703125 0.109375 2.296875 0.109375 C 2.6875 0.109375 3.015625 -0.0625 3.296875 -0.34375 C 3.171875 0.171875 3.046875 0.671875 2.65625 1.203125 C 2.390625 1.53125 2.015625 1.828125 1.5625 1.828125 C 1.421875 1.828125 0.96875 1.796875 0.796875 1.40625 C 0.953125 1.40625 1.09375 1.40625 1.21875 1.28125 C 1.328125 1.203125 1.421875 1.0625 1.421875 0.875 C 1.421875 0.5625 1.15625 0.53125 1.0625 0.53125 C 0.828125 0.53125 0.5 0.6875 0.5 1.171875 C 0.5 1.671875 0.9375 2.046875 1.5625 2.046875 C 2.578125 2.046875 3.609375 1.140625 3.890625 0.015625 Z M 4.84375 -3.796875 "
           id="path8564" />
      </symbol>
    </g>
    <g
       id="g4062">
      <symbol
         overflow="visible"
         id="symbol5651">
        <path
           style="stroke:none;"
           d=""
           id="path4898" />
      </symbol>
      <symbol
         overflow="visible"
         id="symbol8749">
        <path
           style="stroke:none;"
           d="M 1.78125 -1.140625 C 1.390625 -0.484375 1 -0.34375 0.5625 -0.3125 C 0.4375 -0.296875 0.34375 -0.296875 0.34375 -0.109375 C 0.34375 -0.046875 0.40625 0 0.484375 0 C 0.75 0 1.0625 -0.03125 1.328125 -0.03125 C 1.671875 -0.03125 2.015625 0 2.328125 0 C 2.390625 0 2.515625 0 2.515625 -0.1875 C 2.515625 -0.296875 2.4375 -0.3125 2.359375 -0.3125 C 2.140625 -0.328125 1.890625 -0.40625 1.890625 -0.65625 C 1.890625 -0.78125 1.953125 -0.890625 2.03125 -1.03125 L 2.796875 -2.296875 L 5.296875 -2.296875 C 5.3125 -2.09375 5.453125 -0.734375 5.453125 -0.640625 C 5.453125 -0.34375 4.9375 -0.3125 4.734375 -0.3125 C 4.59375 -0.3125 4.5 -0.3125 4.5 -0.109375 C 4.5 0 4.609375 0 4.640625 0 C 5.046875 0 5.46875 -0.03125 5.875 -0.03125 C 6.125 -0.03125 6.765625 0 7.015625 0 C 7.0625 0 7.1875 0 7.1875 -0.203125 C 7.1875 -0.3125 7.09375 -0.3125 6.953125 -0.3125 C 6.34375 -0.3125 6.34375 -0.375 6.3125 -0.671875 L 5.703125 -6.890625 C 5.6875 -7.09375 5.6875 -7.140625 5.515625 -7.140625 C 5.359375 -7.140625 5.3125 -7.0625 5.25 -6.96875 Z M 2.984375 -2.609375 L 4.9375 -5.90625 L 5.265625 -2.609375 Z M 2.984375 -2.609375 "
           id="path9143" />
      </symbol>
    </g>
    <g
       id="g4416">
      <symbol
         overflow="visible"
         id="symbol4932">
        <path
           style="stroke:none;"
           d=""
           id="path4755" />
      </symbol>
      <symbol
         overflow="visible"
         id="symbol1317">
        <path
           style="stroke:none;"
           d="M 1.59375 -0.78125 C 1.5 -0.390625 1.46875 -0.3125 0.6875 -0.3125 C 0.515625 -0.3125 0.421875 -0.3125 0.421875 -0.109375 C 0.421875 0 0.515625 0 0.6875 0 L 4.25 0 C 5.828125 0 7 -1.171875 7 -2.15625 C 7 -2.875 6.421875 -3.453125 5.453125 -3.5625 C 6.484375 -3.75 7.53125 -4.484375 7.53125 -5.4375 C 7.53125 -6.171875 6.875 -6.8125 5.6875 -6.8125 L 2.328125 -6.8125 C 2.140625 -6.8125 2.046875 -6.8125 2.046875 -6.609375 C 2.046875 -6.5 2.140625 -6.5 2.328125 -6.5 C 2.34375 -6.5 2.53125 -6.5 2.703125 -6.484375 C 2.875 -6.453125 2.96875 -6.453125 2.96875 -6.3125 C 2.96875 -6.28125 2.953125 -6.25 2.9375 -6.125 Z M 3.09375 -3.65625 L 3.71875 -6.125 C 3.8125 -6.46875 3.828125 -6.5 4.25 -6.5 L 5.546875 -6.5 C 6.421875 -6.5 6.625 -5.90625 6.625 -5.46875 C 6.625 -4.59375 5.765625 -3.65625 4.5625 -3.65625 Z M 2.65625 -0.3125 C 2.515625 -0.3125 2.5 -0.3125 2.4375 -0.3125 C 2.328125 -0.328125 2.296875 -0.34375 2.296875 -0.421875 C 2.296875 -0.453125 2.296875 -0.46875 2.359375 -0.640625 L 3.046875 -3.421875 L 4.921875 -3.421875 C 5.875 -3.421875 6.078125 -2.6875 6.078125 -2.265625 C 6.078125 -1.28125 5.1875 -0.3125 4 -0.3125 Z M 2.65625 -0.3125 "
           id="path6653" />
      </symbol>
    </g>
  </defs>
  <g
     inkscape:label="Layer 1"
     inkscape:groupmode="layer"
     id="layer1">
    <text
       xml:space="preserve"
       style="font-style:normal;font-weight:normal;font-size:10.5833px;line-height:1.25;font-family:sans-serif;fill:#000000;fill-opacity:1;stroke:none;stroke-width:0.264583"
       x="54.290359"
       y="167.23064"
       id="text12201"><tspan
         sodipodi:role="line"
         style="stroke-width:0.264583"
         x="54.290359"
         y="167.23064"
         id="tspan12203" /></text>
    <path
       style="fill:#ff0000;fill-opacity:0;fill-rule:evenodd;stroke-width:0.3;stroke-miterlimit:4;stroke-dasharray:none"
       id="path5537"
       sodipodi:type="arc"
       sodipodi:cx="165.1478"
       sodipodi:cy="158.4213"
       sodipodi:rx="20.132828"
       sodipodi:ry="19.211052"
       sodipodi:start="0"
       sodipodi:end="6.2824348"
       sodipodi:open="true"
       sodipodi:arc-type="arc"
       d="m 185.28062,158.4213 a 20.132828,19.211052 0 0 1 -20.12905,19.21105 20.132828,19.211052 0 0 1 -20.1366,-19.20385 20.132828,19.211052 0 0 1 20.12149,-19.21825 20.132828,19.211052 0 0 1 20.14416,19.19663" />
    <path
       style="fill:#d40000;fill-opacity:0.5;fill-rule:nonzero;stroke:#000000;stroke-width:0.3;stroke-linecap:butt;stroke-linejoin:miter;stroke-miterlimit:4;stroke-dasharray:none;stroke-opacity:1"
       d="m 130.85822,183.50141 c 1.67966,-36.16459 21.78934,-18.78824 21.78934,-18.78824 13.7981,12.14508 34.72931,13.34119 17.53676,-12.10914 -11.47305,-16.26378 -30.06234,-29.29395 -50.98928,-16.1237 -28.335662,17.83288 9.17948,74.05252 11.66321,47.02065 z"
       id="path5982"
       sodipodi:nodetypes="cccscc" />
    <path
       style="fill:none;stroke:#000000;stroke-width:0.3;stroke-linecap:butt;stroke-linejoin:miter;stroke-miterlimit:4;stroke-dasharray:none;stroke-opacity:1;marker-start:url(#DotL);marker-end:url(#marker8251)"
       d="m 125.26135,180.64001 40.36339,-19.42089"
       id="path8159" />
    <g
       inkscape:label=""
       transform="matrix(0.78063881,0,0,0.64816483,95.945713,111.54386)"
       id="g3982"
       style="stroke-width:1.40583">
      <g
         id="g1453"
         style="stroke-width:1.40583">
        <g
           style="fill:#000000;fill-opacity:1;stroke-width:1.40583"
           id="g7103">
          <use
             xlink:href="#symbol1878"
             x="91.925003"
             y="81.962997"
             id="use8306"
             width="100%"
             height="100%"
             style="stroke-width:1.40583" />
        </g>
      </g>
    </g>
    <g
       inkscape:label=""
       transform="translate(67.00084,53.543653)"
       id="g4242">
      <g
         id="g9674">
        <g
           style="fill:#000000;fill-opacity:1"
           id="g8356">
          <use
             xlink:href="#symbol1317"
             x="91.925003"
             y="81.962997"
             id="use1469"
             width="100%"
             height="100%" />
        </g>
      </g>
    </g>
    <g
       inkscape:label=""
       transform="matrix(0.81741429,0,0,0.75866927,43.657613,119.21581)"
       id="g4287"
       style="stroke-width:1.26985">
      <g
         id="g4285"
         style="stroke-width:1.26985">
        <g
           style="fill:#000000;fill-opacity:1;stroke-width:1.26985"
           id="g4283">
          <use
             xlink:href="#symbol6547"
             x="91.925003"
             y="81.962997"
             id="use4281"
             width="100%"
             height="100%"
             style="stroke-width:1.26985" />
        </g>
      </g>
    </g>
    <path
       style="fill:#d40000;fill-opacity:0.5;fill-rule:evenodd;stroke:#000000;stroke-width:0.3;stroke-miterlimit:4;stroke-dasharray:none;stroke-opacity:1"
       id="path8400"
       sodipodi:type="arc"
       sodipodi:cx="-108.30578"
       sodipodi:cy="135.80783"
       sodipodi:rx="25.276001"
       sodipodi:ry="15.024185"
       sodipodi:start="0"
       sodipodi:end="6.2824348"
       sodipodi:open="true"
       sodipodi:arc-type="arc"
       transform="matrix(0.54767557,-0.83669078,0.90418656,0.42713776,0,0)"
       d="m -83.029778,135.80783 a 25.276001,15.024185 0 0 1 -25.271262,15.02419 25.276001,15.024185 0 0 1 -25.28074,-15.01855 25.276001,15.024185 0 0 1 25.26177,-15.02982 25.276001,15.024185 0 0 1 25.290225,15.01291" />
    <path
       style="fill:none;stroke:#000000;stroke-width:0.264583px;stroke-linecap:butt;stroke-linejoin:miter;stroke-opacity:1;marker-start:url(#marker8251);marker-end:url(#DotL)"
       d="m 50.999543,167.11653 26.190802,-31.6304"
       id="path8839" />
    <g
       inkscape:label=""
       transform="translate(-44.963129,50.559491)"
       id="g4103">
      <g
         id="g5497">
        <g
           style="fill:#000000;fill-opacity:1"
           id="g3414">
          <use
             xlink:href="#symbol8749"
             x="91.925003"
             y="81.962997"
             id="use1897"
             width="100%"
             height="100%" />
        </g>
      </g>
    </g>
    <g
       inkscape:label=""
       transform="matrix(0.81741429,0,0,0.75866927,-28.319777,102.93376)"
       id="g4455"
       style="stroke-width:1.26985">
      <g
         id="g4453"
         style="stroke-width:1.26985">
        <g
           style="fill:#000000;fill-opacity:1;stroke-width:1.26985"
           id="g4451">
          <use
             xlink:href="#symbol6547"
             x="91.925003"
             y="81.962997"
             id="use4449"
             width="100%"
             height="100%"
             style="stroke-width:1.26985" />
        </g>
      </g>
    </g>
    <g
       inkscape:label=""
       transform="matrix(0.78063881,0,0,0.64816483,0.03386709,80.703777)"
       id="g4463"
       style="stroke-width:1.40583">
      <g
         id="g4461"
         style="stroke-width:1.40583">
        <g
           style="fill:#000000;fill-opacity:1;stroke-width:1.40583"
           id="g4459">
          <use
             xlink:href="#symbol1878"
             x="91.925003"
             y="81.962997"
             id="use4457"
             width="100%"
             height="100%"
             style="stroke-width:1.40583" />
        </g>
      </g>
    </g>
  </g>
</svg>
