<?xml version="1.0" encoding="UTF-8" standalone="no"?>
<!-- Created with Inkscape (http://www.inkscape.org/) -->

<svg
   width="210mm"
   height="297mm"
   viewBox="0 0 210 297"
   version="1.1"
   id="svg1"
   inkscape:version="1.3.2 (091e20ef0f, 2023-11-25)"
   sodipodi:docname="hamming_box.svg"
   xmlns:inkscape="http://www.inkscape.org/namespaces/inkscape"
   xmlns:sodipodi="http://sodipodi.sourceforge.net/DTD/sodipodi-0.dtd"
   xmlns="http://www.w3.org/2000/svg"
   xmlns:svg="http://www.w3.org/2000/svg">
  <sodipodi:namedview
     id="namedview1"
     pagecolor="#ffffff"
     bordercolor="#000000"
     borderopacity="0.25"
     inkscape:showpageshadow="2"
     inkscape:pageopacity="0.0"
     inkscape:pagecheckerboard="0"
     inkscape:deskcolor="#d1d1d1"
     inkscape:document-units="mm"
     inkscape:zoom="3.1999439"
     inkscape:cx="283.12997"
     inkscape:cy="389.38183"
     inkscape:window-width="1900"
     inkscape:window-height="1024"
     inkscape:window-x="0"
     inkscape:window-y="0"
     inkscape:window-maximized="1"
     inkscape:current-layer="layer1" />
  <defs
     id="defs1" />
  <g
     inkscape:label="Layer 1"
     inkscape:groupmode="layer"
     id="layer1">
    <g
       id="g6">
      <rect
         style="fill:none;stroke:#000000;stroke-width:0.499276;stroke-dasharray:none;stroke-dashoffset:0"
         id="rect1"
         width="49.500725"
         height="49.500725"
         x="66.129051"
         y="81.203751" />
      <ellipse
         style="fill:#000000;fill-opacity:1;stroke:none;stroke-width:0.368438;stroke-dasharray:none;stroke-dashoffset:0"
         id="path1"
         cx="66.129051"
         cy="81.203751"
         rx="1.3157806"
         ry="1.3157809" />
      <ellipse
         style="fill:#000000;fill-opacity:1;stroke:none;stroke-width:0.368438;stroke-dasharray:none;stroke-dashoffset:0"
         id="path1-5"
         cx="115.62978"
         cy="81.203751"
         rx="1.3157806"
         ry="1.3157809" />
      <ellipse
         style="fill:#000000;fill-opacity:1;stroke:none;stroke-width:0.368438;stroke-dasharray:none;stroke-dashoffset:0"
         id="path1-2"
         cx="115.62978"
         cy="130.70447"
         rx="1.3157806"
         ry="1.3157809" />
      <ellipse
         style="fill:#000000;fill-opacity:1;stroke:none;stroke-width:0.368438;stroke-dasharray:none;stroke-dashoffset:0"
         id="path1-7"
         cx="66.129051"
         cy="130.70447"
         rx="1.3157806"
         ry="1.3157809" />
      <path
         style="fill:none;fill-opacity:0.25;stroke:#000000;stroke-width:0.848337;stroke-dasharray:none;stroke-dashoffset:0;stroke-opacity:1"
         id="path2"
         sodipodi:type="arc"
         sodipodi:cx="66.129051"
         sodipodi:cy="81.203751"
         sodipodi:rx="24.575832"
         sodipodi:ry="24.575832"
         sodipodi:start="0"
         sodipodi:end="1.5707963"
         sodipodi:open="true"
         sodipodi:arc-type="arc"
         d="M 90.704884,81.203751 A 24.575832,24.575832 0 0 1 66.129051,105.77958" />
      <path
         style="fill:none;fill-opacity:0.25;stroke:#000000;stroke-width:0.848337;stroke-dasharray:none;stroke-dashoffset:0;stroke-opacity:1"
         id="path2-3"
         sodipodi:type="arc"
         sodipodi:cx="-115.62978"
         sodipodi:cy="81.203751"
         sodipodi:rx="24.575832"
         sodipodi:ry="24.575832"
         sodipodi:start="0"
         sodipodi:end="1.5707963"
         sodipodi:open="true"
         sodipodi:arc-type="arc"
         d="M -91.053951,81.203751 A 24.575832,24.575832 0 0 1 -115.62978,105.77958"
         transform="scale(-1,1)" />
      <path
         style="fill:none;fill-opacity:0.25;stroke:#000000;stroke-width:0.848337;stroke-dasharray:none;stroke-dashoffset:0;stroke-opacity:1"
         id="path2-2"
         sodipodi:type="arc"
         sodipodi:cx="66.129051"
         sodipodi:cy="-130.70447"
         sodipodi:rx="24.575832"
         sodipodi:ry="24.575832"
         sodipodi:start="0"
         sodipodi:end="1.5707963"
         sodipodi:open="true"
         sodipodi:arc-type="arc"
         d="m 90.704884,-130.70447 a 24.575832,24.575832 0 0 1 -24.575833,24.57583"
         transform="scale(1,-1)" />
      <path
         style="fill:none;fill-opacity:0.25;stroke:#000000;stroke-width:0.848337;stroke-dasharray:none;stroke-dashoffset:0;stroke-opacity:1"
         id="path2-7"
         sodipodi:type="arc"
         sodipodi:cx="-115.62978"
         sodipodi:cy="-130.70447"
         sodipodi:rx="24.575832"
         sodipodi:ry="24.575832"
         sodipodi:start="0"
         sodipodi:end="1.5707963"
         sodipodi:open="true"
         sodipodi:arc-type="arc"
         d="m -91.053951,-130.70447 a 24.575832,24.575832 0 0 1 -24.575829,24.57583"
         transform="scale(-1)" />
    </g>
    <path
       style="fill:#808080;fill-opacity:0.25;stroke:#000000;stroke-width:0.590562;stroke-dasharray:none;stroke-dashoffset:0;stroke-opacity:1"
       d="m 250.9419,355.02253 c 0,-34.62953 0.0782,-43.14206 0.39622,-43.14206 0.78984,0 2.65175,-1.55015 3.16759,-2.63721 l 0.52809,-1.11286 h 42.95484 42.95484 v 2.42384 c 0,3.24387 -0.76657,9.61727 -1.73577,14.43149 -6.82475,33.8999 -32.80316,61.39148 -66.15825,70.01179 -6.67018,1.72385 -11.27591,2.43271 -19.37314,2.98168 l -2.73442,0.18539 z"
       id="path6"
       transform="scale(0.26458333)" />
    <path
       style="fill:#808080;fill-opacity:0.25;stroke:#000000;stroke-width:0.590562;stroke-dasharray:none;stroke-dashoffset:0;stroke-opacity:1"
       d="m 430.4763,397.79368 c -31.92544,-2.31297 -60.5385,-21.4904 -74.98679,-50.25867 -4.96606,-9.88801 -8.15471,-21.14974 -9.21041,-32.52949 -0.18337,-1.97659 -0.33388,-4.3321 -0.33447,-5.23446 l -0.001,-1.64066 h 43.12575 c 38.08879,0 43.12576,0.0546 43.12576,0.46786 0,0.70031 2.09041,2.87757 2.97625,3.0999 l 0.77382,0.19422 v 43.1198 43.1198 l -1.01565,-0.0446 c -0.5586,-0.0245 -2.56254,-0.1567 -4.4532,-0.29367 z"
       id="path7"
       transform="scale(0.26458333)" />
    <path
       style="fill:#808080;fill-opacity:0.25;stroke:#000000;stroke-width:0.590562;stroke-dasharray:none;stroke-dashoffset:0;stroke-opacity:1"
       d="m 346.06574,488.99295 c 1.03986,-18.43424 7.42613,-35.57147 18.89508,-50.70401 3.33569,-4.40124 12.49765,-13.48294 16.96323,-16.81465 15.25246,-11.37964 31.30837,-17.23205 50.81791,-18.52325 l 3.20319,-0.21199 -0.0146,43.08789 -0.0146,43.08788 -1.29977,0.63881 c -0.91364,0.44904 -1.48954,1.02494 -1.93858,1.93858 l -0.6388,1.29976 -43.09452,0.0146 -43.09452,0.0146 z"
       id="path8"
       transform="scale(0.26458333)" />
    <path
       style="fill:#808080;fill-opacity:0.25;stroke:#000000;stroke-width:0.590562;stroke-dasharray:none;stroke-dashoffset:0;stroke-opacity:1"
       d="m 254.51074,491.71887 c -0.5832,-1.22899 -1.73301,-2.25479 -2.83835,-2.53221 l -0.73049,-0.18334 v -43.12603 -43.12604 l 3.51569,0.2163 c 13.43095,0.8263 25.33598,4.03184 36.89605,9.9346 24.86948,12.69876 42.68892,36.32891 48.0124,63.66871 0.83719,4.29952 1.57744,10.78793 1.57744,13.82645 v 2.42383 H 297.98864 255.0338 Z"
       id="path9"
       transform="scale(0.26458333)" />
    <g
       id="g17"
       transform="translate(-25.224134,-58.62984)">
      <g
         fill="#000000"
         fill-opacity="1"
         id="g3"
         transform="matrix(0.352778,0,0,0.352778,85.378745,135.00908)">
        <g
           id="use2"
           transform="translate(1.993,9.6960001)">
          <path
             d="m 5.359375,-3.828125 c 0,-0.984375 -0.0625,-1.953125 -0.5,-2.859375 -0.484375,-1 -1.34375,-1.265625 -1.9375,-1.265625 -0.6875,0 -1.53125,0.34375 -1.984375,1.34375 -0.328125,0.75 -0.453125,1.5 -0.453125,2.78125 0,1.15625 0.09375,2.03125 0.515625,2.890625 0.46875,0.90625 1.296875,1.1875 1.921875,1.1875 1.03125,0 1.625,-0.625 1.984375,-1.3125 0.421875,-0.890625 0.453125,-2.0625 0.453125,-2.765625 z m -2.4375,3.84375 C 2.53125,0.015625 1.75,-0.203125 1.53125,-1.5 c -0.125,-0.71875 -0.125,-1.625 -0.125,-2.46875 0,-0.984375 0,-1.859375 0.1875,-2.5625 0.203125,-0.8125 0.8125,-1.171875 1.328125,-1.171875 0.453125,0 1.140625,0.265625 1.375,1.296875 0.15625,0.6875 0.15625,1.625 0.15625,2.4375 0,0.796875 0,1.703125 -0.140625,2.4375 -0.21875,1.3125 -0.984375,1.546875 -1.390625,1.546875 z m 0,0"
             id="path10" />
        </g>
        <g
           id="use3"
           transform="translate(7.8462658,9.6960001)">
          <path
             d="m 5.359375,-3.828125 c 0,-0.984375 -0.0625,-1.953125 -0.5,-2.859375 -0.484375,-1 -1.34375,-1.265625 -1.9375,-1.265625 -0.6875,0 -1.53125,0.34375 -1.984375,1.34375 -0.328125,0.75 -0.453125,1.5 -0.453125,2.78125 0,1.15625 0.09375,2.03125 0.515625,2.890625 0.46875,0.90625 1.296875,1.1875 1.921875,1.1875 1.03125,0 1.625,-0.625 1.984375,-1.3125 0.421875,-0.890625 0.453125,-2.0625 0.453125,-2.765625 z m -2.4375,3.84375 C 2.53125,0.015625 1.75,-0.203125 1.53125,-1.5 c -0.125,-0.71875 -0.125,-1.625 -0.125,-2.46875 0,-0.984375 0,-1.859375 0.1875,-2.5625 0.203125,-0.8125 0.8125,-1.171875 1.328125,-1.171875 0.453125,0 1.140625,0.265625 1.375,1.296875 0.15625,0.6875 0.15625,1.625 0.15625,2.4375 0,0.796875 0,1.703125 -0.140625,2.4375 -0.21875,1.3125 -0.984375,1.546875 -1.390625,1.546875 z m 0,0"
             id="path11" />
        </g>
      </g>
    </g>
    <g
       id="g18"
       transform="translate(25.188133,-58.62984)">
      <g
         fill="#000000"
         fill-opacity="1"
         id="g5"
         transform="matrix(0.352778,0,0,0.352778,85.378745,135.00908)">
        <g
           id="use4"
           transform="translate(17.596928,9.6960001)">
          <path
             d="m 5.359375,-3.828125 c 0,-0.984375 -0.0625,-1.953125 -0.5,-2.859375 -0.484375,-1 -1.34375,-1.265625 -1.9375,-1.265625 -0.6875,0 -1.53125,0.34375 -1.984375,1.34375 -0.328125,0.75 -0.453125,1.5 -0.453125,2.78125 0,1.15625 0.09375,2.03125 0.515625,2.890625 0.46875,0.90625 1.296875,1.1875 1.921875,1.1875 1.03125,0 1.625,-0.625 1.984375,-1.3125 0.421875,-0.890625 0.453125,-2.0625 0.453125,-2.765625 z m -2.4375,3.84375 C 2.53125,0.015625 1.75,-0.203125 1.53125,-1.5 c -0.125,-0.71875 -0.125,-1.625 -0.125,-2.46875 0,-0.984375 0,-1.859375 0.1875,-2.5625 0.203125,-0.8125 0.8125,-1.171875 1.328125,-1.171875 0.453125,0 1.140625,0.265625 1.375,1.296875 0.15625,0.6875 0.15625,1.625 0.15625,2.4375 0,0.796875 0,1.703125 -0.140625,2.4375 -0.21875,1.3125 -0.984375,1.546875 -1.390625,1.546875 z m 0,0"
             id="path12" />
        </g>
        <g
           id="use5"
           transform="translate(23.450193,9.6960001)">
          <path
             d="m 3.4375,-7.65625 c 0,-0.28125 0,-0.296875 -0.234375,-0.296875 C 2.921875,-7.625 2.3125,-7.1875 1.09375,-7.1875 v 0.34375 c 0.265625,0 0.859375,0 1.53125,-0.296875 v 6.21875 c 0,0.4375 -0.046875,0.578125 -1.09375,0.578125 h -0.375 V 0 c 0.328125,-0.03125 1.484375,-0.03125 1.875,-0.03125 0.40625,0 1.546875,0 1.875,0.03125 v -0.34375 h -0.375 c -1.046875,0 -1.09375,-0.140625 -1.09375,-0.578125 z m 0,0"
             id="path13" />
        </g>
      </g>
    </g>
    <g
       id="g19"
       transform="translate(19.464219,-3.6036793)">
      <g
         fill="#000000"
         fill-opacity="1"
         id="g7"
         transform="matrix(0.352778,0,0,0.352778,85.378745,135.00908)">
        <g
           id="use6"
           transform="translate(33.212811,9.6960001)">
          <path
             d="m 3.4375,-7.65625 c 0,-0.28125 0,-0.296875 -0.234375,-0.296875 C 2.921875,-7.625 2.3125,-7.1875 1.09375,-7.1875 v 0.34375 c 0.265625,0 0.859375,0 1.53125,-0.296875 v 6.21875 c 0,0.4375 -0.046875,0.578125 -1.09375,0.578125 h -0.375 V 0 c 0.328125,-0.03125 1.484375,-0.03125 1.875,-0.03125 0.40625,0 1.546875,0 1.875,0.03125 v -0.34375 h -0.375 c -1.046875,0 -1.09375,-0.140625 -1.09375,-0.578125 z m 0,0"
             id="path14" />
        </g>
        <g
           id="use7"
           transform="translate(39.066074,9.6960001)">
          <path
             d="m 5.359375,-3.828125 c 0,-0.984375 -0.0625,-1.953125 -0.5,-2.859375 -0.484375,-1 -1.34375,-1.265625 -1.9375,-1.265625 -0.6875,0 -1.53125,0.34375 -1.984375,1.34375 -0.328125,0.75 -0.453125,1.5 -0.453125,2.78125 0,1.15625 0.09375,2.03125 0.515625,2.890625 0.46875,0.90625 1.296875,1.1875 1.921875,1.1875 1.03125,0 1.625,-0.625 1.984375,-1.3125 0.421875,-0.890625 0.453125,-2.0625 0.453125,-2.765625 z m -2.4375,3.84375 C 2.53125,0.015625 1.75,-0.203125 1.53125,-1.5 c -0.125,-0.71875 -0.125,-1.625 -0.125,-2.46875 0,-0.984375 0,-1.859375 0.1875,-2.5625 0.203125,-0.8125 0.8125,-1.171875 1.328125,-1.171875 0.453125,0 1.140625,0.265625 1.375,1.296875 0.15625,0.6875 0.15625,1.625 0.15625,2.4375 0,0.796875 0,1.703125 -0.140625,2.4375 -0.21875,1.3125 -0.984375,1.546875 -1.390625,1.546875 z m 0,0"
             id="path15" />
        </g>
      </g>
    </g>
    <g
       fill="#000000"
       fill-opacity="1"
       id="g9"
       transform="matrix(0.352778,0,0,0.352778,43.79608,131.4054)">
      <g
         id="use8"
         transform="translate(48.816734,9.6960001)">
        <path
           d="m 3.4375,-7.65625 c 0,-0.28125 0,-0.296875 -0.234375,-0.296875 C 2.921875,-7.625 2.3125,-7.1875 1.09375,-7.1875 v 0.34375 c 0.265625,0 0.859375,0 1.53125,-0.296875 v 6.21875 c 0,0.4375 -0.046875,0.578125 -1.09375,0.578125 h -0.375 V 0 c 0.328125,-0.03125 1.484375,-0.03125 1.875,-0.03125 0.40625,0 1.546875,0 1.875,0.03125 v -0.34375 h -0.375 c -1.046875,0 -1.09375,-0.140625 -1.09375,-0.578125 z m 0,0"
           id="path16" />
      </g>
      <g
         id="use9"
         transform="translate(54.670002,9.6960001)">
        <path
           d="m 3.4375,-7.65625 c 0,-0.28125 0,-0.296875 -0.234375,-0.296875 C 2.921875,-7.625 2.3125,-7.1875 1.09375,-7.1875 v 0.34375 c 0.265625,0 0.859375,0 1.53125,-0.296875 v 6.21875 c 0,0.4375 -0.046875,0.578125 -1.09375,0.578125 h -0.375 V 0 c 0.328125,-0.03125 1.484375,-0.03125 1.875,-0.03125 0.40625,0 1.546875,0 1.875,0.03125 v -0.34375 h -0.375 c -1.046875,0 -1.09375,-0.140625 -1.09375,-0.578125 z m 0,0"
           id="path17" />
      </g>
    </g>
  </g>
</svg>
