<?xml version="1.0" encoding="UTF-8" standalone="no"?>
<svg
   version="1.1"
   width="1500"
   height="955"
   id="svg913"
   sodipodi:docname="jensen_ineq.svg"
   inkscape:version="1.1.1 (3bf5ae0d25, 2021-09-20, custom)"
   xmlns:inkscape="http://www.inkscape.org/namespaces/inkscape"
   xmlns:sodipodi="http://sodipodi.sourceforge.net/DTD/sodipodi-0.dtd"
   xmlns="http://www.w3.org/2000/svg"
   xmlns:svg="http://www.w3.org/2000/svg">
  <sodipodi:namedview
     id="namedview915"
     pagecolor="#ffffff"
     bordercolor="#666666"
     borderopacity="1.0"
     inkscape:pageshadow="2"
     inkscape:pageopacity="0.0"
     inkscape:pagecheckerboard="0"
     showgrid="false"
     showguides="true"
     inkscape:guide-bbox="true"
     inkscape:zoom="0.71"
     inkscape:cx="702.11268"
     inkscape:cy="487.32394"
     inkscape:window-width="1888"
     inkscape:window-height="1008"
     inkscape:window-x="13"
     inkscape:window-y="53"
     inkscape:window-maximized="1"
     inkscape:current-layer="svg913" />
  <defs
     id="defs827">
    <clipPath
       id="nibnuTFcRuWL">
      <path
         fill="none"
         stroke="none"
         d=" M 0 0 L 1500 0 L 1500 955 L 0 955 L 0 0 Z"
         id="path824" />
    </clipPath>
  </defs>
  <g
     id="g1657">
    <path
       fill="none"
       stroke="#006400"
       paint-order="fill stroke markers"
       d="m 524.0454,96.99341 0.54933,4.12 v 0 l 1,7.46 v 0 l 1,7.42 v 0 l 1,7.38 v 0 l 1,7.34 v 0 l 1,7.3 v 0 l 1,7.26 v 0 l 1,7.22 v 0 l 1,7.18 v 0 l 1,7.14 v 0 l 1,7.1 v 0 l 1,7.06 v 0 l 1,7.02 v 0 l 1,6.98 v 0 l 1,6.94 v 0 l 1,6.9 v 0 l 1,6.86 v 0 l 1,6.82 v 0 l 1,6.78 v 0 l 1,6.74 v 0 l 1,6.7 v 0 l 1,6.66 v 0 l 1,6.62 v 0 l 1,6.58 v 0 l 1,6.54 v 0 l 1,6.5 v 0 l 1,6.46 v 0 l 1,6.42 v 0 l 1,6.38 v 0 l 1,6.34 v 0 l 1,6.3 v 0 l 1,6.26 v 0 l 1,6.22 v 0 l 1,6.18 v 0 l 1,6.14 v 0 l 1,6.1 v 0 l 1,6.06 v 0 l 1,6.02 v 0 l 1,5.98 v 0 l 1,5.94 v 0 l 1,5.9 v 0 l 1,5.86 v 0 l 1,5.82 v 0 l 1,5.78 v 0 l 1,5.74 v 0 l 1,5.7 v 0 l 1,5.66 v 0 l 1,5.62 v 0 l 1,5.58 v 0 l 1,5.54 v 0 l 1,5.5 v 0 l 1,5.46 v 0 l 1,5.42 v 0 l 1,5.38 v 0 l 1,5.34 v 0 l 1,5.3 v 0 l 1,5.26 v 0 l 1,5.22 v 0 l 1,5.18 v 0 l 1,5.14 v 0 l 1,5.1 v 0 l 1,5.06 v 0 l 1,5.02 v 0 l 1,4.98 v 0 l 1,4.94 v 0 l 1,4.9 v 0 l 1,4.86 v 0 l 1,4.82 v 0 l 1,4.78 v 0 l 1,4.74 v 0 l 1,4.7 v 0 l 1,4.66 v 0 l 1,4.62 v 0 l 1,4.58 v 0 l 1,4.54 v 0 l 1,4.5 v 0 l 1,4.46 v 0 l 1,4.42 v 0 l 1,4.38 v 0 l 1,4.34 v 0 l 1,4.3 v 0 l 1,4.26 v 0 l 1,4.22 v 0 l 1,4.18 v 0 l 1,4.14 v 0 l 1,4.1 v 0 l 1,4.06 v 0 l 1,4.02 v 0 l 1,3.98 v 0 l 1,3.94 v 0 l 1,3.9 v 0 l 1,3.86 v 0 l 1,3.82 v 0 l 1,3.78 v 0 l 1,3.74 v 0 l 1,3.7 v 0 l 1,3.66 v 0 l 1,3.62 v 0 l 1,3.58 v 0 l 1,3.54 v 0 l 1,3.5 v 0 l 1,3.46 v 0 l 1,3.42 v 0 l 1,3.38 v 0 l 1,3.34 v 0 l 1,3.3 v 0 l 1,3.26 v 0 l 1,3.22 v 0 l 1,3.18 v 0 l 1,3.14 v 0 l 1,3.1 v 0 l 1,3.06 v 0 l 1,3.02 v 0 l 1,2.98 v 0 l 1,2.94 v 0 l 1,2.9 v 0 l 1,2.86 v 0 l 1,2.82 v 0 l 1,2.78 v 0 l 1,2.74 v 0 l 1,2.7 v 0 l 1,2.66 v 0 l 1,2.62 v 0 l 1,2.58 v 0 l 1,2.54 v 0 l 1,2.5 v 0 l 1,2.46 v 0 l 1,2.42 v 0 l 1,2.38 v 0 l 1,2.34 v 0 l 1,2.3 v 0 l 1,2.26 v 0 l 1,2.22 v 0 l 1,2.18 v 0 l 1,2.14 v 0 l 1,2.1 v 0 l 1,2.06 v 0 l 1,2.02 v 0 l 1,1.98 v 0 l 1,1.94 v 0 l 1,1.9 v 0 l 1,1.86 v 0 l 1,1.82 v 0 l 1,1.78 v 0 l 1,1.74 v 0 l 1,1.7 v 0 l 1,1.66 v 0 l 1,1.62 v 0 l 1,1.58 v 0 l 1,1.54 v 0 l 1,1.5 v 0 l 1,1.46 v 0 l 1,1.42 v 0 l 1,1.38 v 0 l 1,1.34 v 0 l 1,1.3 v 0 l 1,1.26 v 0 l 1,1.22 v 0 l 1,1.18 v 0 l 1,1.14 v 0 l 1,1.1 v 0 l 1,1.06 v 0 l 1,1.02 v 0 l 1,0.98 v 0 l 1,0.94 v 0 l 1,0.9 v 0 l 1,0.86 v 0 l 1,0.82 v 0 l 1,0.78 v 0 l 1,0.74 v 0 l 1,0.7 v 0 l 1,0.66 v 0 l 1,0.62 v 0 l 1,0.58 v 0 l 1,0.54 v 0 l 1,0.5 v 0 l 1,0.46 v 0 l 1,0.42 v 0 l 1,0.38 v 0 l 1,0.34 v 0 l 1,0.3 v 0 l 1,0.26 v 0 l 1,0.22 v 0 l 1,0.18 v 0 l 1,0.14 v 0 l 1,0.1 v 0 l 1,0.06 v 0 l 1,0.02 v 0 l 1,-0.02 v 0 l 1,-0.06 v 0 l 1,-0.1 v 0 l 1,-0.14 v 0 l 1,-0.18 v 0 l 1,-0.22 v 0 l 1,-0.26 v 0 l 1,-0.3 v 0 l 1,-0.34 v 0 l 1,-0.38 v 0 l 1,-0.42 v 0 l 1,-0.46 v 0 l 1,-0.5 v 0 l 1,-0.54 v 0 l 1,-0.58 v 0 l 1,-0.62 v 0 l 1,-0.66 v 0 l 1,-0.7 v 0 l 1,-0.74 v 0 l 1,-0.78 v 0 l 1,-0.82 v 0 l 1,-0.86 v 0 l 1,-0.9 v 0 l 1,-0.94 v 0 l 1,-0.98 v 0 l 1,-1.02 v 0 l 1,-1.06 v 0 l 1,-1.1 v 0 l 1,-1.14 v 0 l 1,-1.18 v 0 l 1,-1.22 v 0 l 1,-1.26 v 0 l 1,-1.3 v 0 l 1,-1.34 v 0 l 1,-1.38 v 0 l 1,-1.42 v 0 l 1,-1.46 v 0 l 1,-1.5 v 0 l 1,-1.54 v 0 l 1,-1.58 v 0 l 1,-1.62 v 0 l 1,-1.66 v 0 l 1,-1.7 v 0 l 1,-1.74 v 0 l 1,-1.78 v 0 l 1,-1.82 v 0 l 1,-1.86 v 0 l 1,-1.9 v 0 l 1,-1.94 v 0 l 1,-1.98 v 0 l 1,-2.02 v 0 l 1,-2.06 v 0 l 1,-2.1 v 0 l 1,-2.14 v 0 l 1,-2.18 v 0 l 1,-2.22 v 0 l 1,-2.26 v 0 l 1,-2.3 v 0 l 1,-2.34 v 0 l 1,-2.38 v 0 l 1,-2.42 v 0 l 1,-2.46 v 0 l 1,-2.5 v 0 l 1,-2.54 v 0 l 1,-2.58 v 0 l 1,-2.62 v 0 l 1,-2.66 v 0 l 1,-2.7 v 0 l 1,-2.74 v 0 l 1,-2.78 v 0 l 1,-2.82 v 0 l 1,-2.86 v 0 l 1,-2.9 v 0 l 1,-2.94 v 0 l 1,-2.98 v 0 l 1,-3.02 v 0 l 1,-3.06 v 0 l 1,-3.1 v 0 l 1,-3.14 v 0 l 1,-3.18 v 0 l 1,-3.22 v 0 l 1,-3.26 v 0 l 1,-3.3 v 0 l 1,-3.34 v 0 l 1,-3.38 v 0 l 1,-3.42 v 0 l 1,-3.46 v 0 l 1,-3.5 v 0 l 1,-3.54 v 0 l 1,-3.58 v 0 l 1,-3.62 v 0 l 1,-3.66 v 0 l 1,-3.7 v 0 l 1,-3.74 v 0 l 1,-3.78 v 0 l 1,-3.82 v 0 l 1,-3.86 v 0 l 1,-3.9 v 0 l 1,-3.94 v 0 l 1,-3.98 v 0 l 1,-4.02 v 0 l 1,-4.06 v 0 l 1,-4.1 v 0 l 1,-4.14 v 0 l 1,-4.18 v 0 l 1,-4.22 v 0 l 1,-4.26 v 0 l 1,-4.3 v 0 l 1,-4.34 v 0 l 1,-4.38 v 0 l 1,-4.42 v 0 l 1,-4.46 v 0 l 1,-4.5 v 0 l 1,-4.54 v 0 l 1,-4.58 v 0 l 1,-4.62 v 0 l 1,-4.66 v 0 l 1,-4.7 v 0 l 1,-4.74 v 0 l 1,-4.78 v 0 l 1,-4.82 v 0 l 1,-4.86 v 0 l 1,-4.9 v 0 l 1,-4.94 v 0 l 1,-4.98 v 0 l 1,-5.02 v 0 l 1,-5.06 v 0 l 1,-5.1 v 0 l 1,-5.14 v 0 l 1,-5.18 v 0 l 1,-5.22 v 0 l 1,-5.26 v 0 l 1,-5.3 v 0 l 1,-5.34 v 0 l 1,-5.38 v 0 l 1,-5.42 v 0 l 1,-5.46 v 0 l 1,-5.5 v 0 l 1,-5.54 v 0 l 1,-5.58 v 0 l 1,-5.62 v 0 l 1,-5.66 v 0 l 1,-5.7 v 0 l 1,-5.74 v 0 l 1,-5.78 v 0 l 1,-5.82 v 0 l 1,-5.86 v 0 l 1,-5.9 v 0 l 1,-5.94 v 0 l 1,-5.98 v 0 l 1,-6.02 v 0 l 1,-6.06 v 0 l 1,-6.1 v 0 l 1,-6.14 v 0 l 1,-6.18 v 0 l 1,-6.22 v 0 l 1,-6.26 v 0 l 1,-6.3 v 0 l 1,-6.34 v 0 l 1,-6.38 v 0 l 1,-6.42 v 0 l 1,-6.46 v 0 l 1,-6.5 v 0 l 1,-6.54 v 0 l 1,-6.58 v 0 l 1,-6.62 v 0 l 1,-6.66 v 0 l 1,-6.7 v 0 l 1,-6.74 v 0 l 1,-6.78 v 0 l 1,-6.82 v 0 l 1,-6.86 v 0 l 1,-6.9 v 0 l 1,-6.94 v 0 l 1,-6.98 v 0 l 1,-7.02 v 0 l 1,-7.06 v 0 l 1,-7.1 v 0 l 1,-7.14 v 0 l 1,-7.18 v 0 l 1,-7.22 v 0 l 1,-7.26 v 0 l 1,-7.3 v 0 l 1,-7.34 v 0 l 1,-7.38 v 0 l 1,-7.42 v 0 l 1,-7.46 v 0 l 0.54933,-4.12"
       stroke-opacity="0.698039"
       stroke-linecap="round"
       stroke-linejoin="round"
       stroke-miterlimit="10"
       stroke-width="2.5"
       id="path831"
       style="stroke:#d40000;stroke-opacity:0.69803923" />
    <path
       fill="#000000"
       stroke="none"
       paint-order="stroke fill markers"
       d="m 551.95881,258.39368 c 0,2.76142 -2.23858,5 -5,5 -2.76143,0 -5,-2.23858 -5,-5 0,-2.76143 2.23857,-5 5,-5 2.76142,0 5,2.23857 5,5 z"
       fill-opacity="1"
       id="path833" />
    <path
       fill="none"
       stroke="#000000"
       paint-order="fill stroke markers"
       d="m 551.95881,258.39368 c 0,2.76142 -2.23858,5 -5,5 -2.76143,0 -5,-2.23858 -5,-5 0,-2.76143 2.23857,-5 5,-5 2.76142,0 5,2.23857 5,5 z"
       stroke-opacity="1"
       stroke-linecap="round"
       stroke-linejoin="round"
       stroke-miterlimit="10"
       id="path835" />
    <path
       fill="#000000"
       stroke="none"
       paint-order="stroke fill markers"
       d="m 561.83312,321.47028 c 0,2.76143 -2.23858,5 -5,5 -2.76142,0 -5,-2.23857 -5,-5 0,-2.76142 2.23858,-5 5,-5 2.76142,0 5,2.23858 5,5 z"
       fill-opacity="1"
       id="path837" />
    <path
       fill="none"
       stroke="#000000"
       paint-order="fill stroke markers"
       d="m 561.83312,321.47028 c 0,2.76143 -2.23858,5 -5,5 -2.76142,0 -5,-2.23857 -5,-5 0,-2.76142 2.23858,-5 5,-5 2.76142,0 5,2.23858 5,5 z"
       stroke-opacity="1"
       stroke-linecap="round"
       stroke-linejoin="round"
       stroke-miterlimit="10"
       id="path839" />
    <path
       fill="#000000"
       stroke="none"
       paint-order="stroke fill markers"
       d="m 575.58488,402.81786 c 0,2.76143 -2.23857,5 -5,5 -2.76142,0 -5,-2.23857 -5,-5 0,-2.76142 2.23858,-5 5,-5 2.76143,0 5,2.23858 5,5 z"
       fill-opacity="1"
       id="path841" />
    <path
       fill="none"
       stroke="#000000"
       paint-order="fill stroke markers"
       d="m 575.58488,402.81786 c 0,2.76143 -2.23857,5 -5,5 -2.76142,0 -5,-2.23857 -5,-5 0,-2.76142 2.23858,-5 5,-5 2.76143,0 5,2.23858 5,5 z"
       stroke-opacity="1"
       stroke-linecap="round"
       stroke-linejoin="round"
       stroke-miterlimit="10"
       id="path843" />
    <path
       fill="#000000"
       stroke="none"
       paint-order="stroke fill markers"
       d="m 593.92526,499.53745 c 0,2.76142 -2.23857,5 -5,5 -2.76142,0 -5,-2.23858 -5,-5 0,-2.76143 2.23858,-5 5,-5 2.76143,0 5,2.23857 5,5 z"
       fill-opacity="1"
       id="path845" />
    <path
       fill="none"
       stroke="#000000"
       paint-order="fill stroke markers"
       d="m 593.92526,499.53745 c 0,2.76142 -2.23857,5 -5,5 -2.76142,0 -5,-2.23858 -5,-5 0,-2.76143 2.23858,-5 5,-5 2.76143,0 5,2.23857 5,5 z"
       stroke-opacity="1"
       stroke-linecap="round"
       stroke-linejoin="round"
       stroke-miterlimit="10"
       id="path847" />
    <path
       fill="#000000"
       stroke="none"
       paint-order="stroke fill markers"
       d="m 608.27637,565.83609 c 0,2.76142 -2.23857,5 -5,5 -2.76142,0 -5,-2.23858 -5,-5 0,-2.76143 2.23858,-5 5,-5 2.76143,0 5,2.23857 5,5 z"
       fill-opacity="1"
       id="path849" />
    <path
       fill="none"
       stroke="#000000"
       paint-order="fill stroke markers"
       d="m 608.27637,565.83609 c 0,2.76142 -2.23857,5 -5,5 -2.76142,0 -5,-2.23858 -5,-5 0,-2.76143 2.23858,-5 5,-5 2.76143,0 5,2.23857 5,5 z"
       stroke-opacity="1"
       stroke-linecap="round"
       stroke-linejoin="round"
       stroke-miterlimit="10"
       id="path851" />
    <path
       fill="#000000"
       stroke="none"
       paint-order="stroke fill markers"
       d="m 629.75201,649.66026 c 0,2.76142 -2.23857,5 -5,5 -2.76142,0 -5,-2.23858 -5,-5 0,-2.76143 2.23858,-5 5,-5 2.76143,0 5,2.23857 5,5 z"
       fill-opacity="1"
       id="path853" />
    <path
       fill="none"
       stroke="#000000"
       paint-order="fill stroke markers"
       d="m 629.75201,649.66026 c 0,2.76142 -2.23857,5 -5,5 -2.76142,0 -5,-2.23858 -5,-5 0,-2.76143 2.23858,-5 5,-5 2.76143,0 5,2.23857 5,5 z"
       stroke-opacity="1"
       stroke-linecap="round"
       stroke-linejoin="round"
       stroke-miterlimit="10"
       id="path855" />
    <path
       fill="#000000"
       stroke="none"
       paint-order="stroke fill markers"
       d="m 650.97434,714.3727 c 0,2.76143 -2.23857,5 -5,5 -2.76142,0 -5,-2.23857 -5,-5 0,-2.76142 2.23858,-5 5,-5 2.76143,0 5,2.23858 5,5 z"
       fill-opacity="1"
       id="path857" />
    <path
       fill="none"
       stroke="#000000"
       paint-order="fill stroke markers"
       d="m 650.97434,714.3727 c 0,2.76143 -2.23857,5 -5,5 -2.76142,0 -5,-2.23857 -5,-5 0,-2.76142 2.23858,-5 5,-5 2.76143,0 5,2.23858 5,5 z"
       stroke-opacity="1"
       stroke-linecap="round"
       stroke-linejoin="round"
       stroke-miterlimit="10"
       id="path859" />
    <path
       fill="#000000"
       stroke="none"
       paint-order="stroke fill markers"
       d="m 685.26002,780.85613 c 0,2.76142 -2.23858,5 -5,5 -2.76142,0 -5,-2.23858 -5,-5 0,-2.76142 2.23858,-5 5,-5 2.76142,0 5,2.23858 5,5 z"
       fill-opacity="1"
       id="path861" />
    <path
       fill="none"
       stroke="#000000"
       paint-order="fill stroke markers"
       d="m 685.26002,780.85613 c 0,2.76142 -2.23858,5 -5,5 -2.76142,0 -5,-2.23858 -5,-5 0,-2.76142 2.23858,-5 5,-5 2.76142,0 5,2.23858 5,5 z"
       stroke-opacity="1"
       stroke-linecap="round"
       stroke-linejoin="round"
       stroke-miterlimit="10"
       id="path863" />
    <path
       fill="#cc0000"
       stroke="none"
       paint-order="stroke fill markers"
       d="m 718.59473,800.49341 c 0,3.86599 -3.13401,7 -7,7 -3.86599,0 -7,-3.13401 -7,-7 0,-3.86599 3.13401,-7 7,-7 3.86599,0 7,3.13401 7,7 z"
       fill-opacity="1"
       id="path865" />
    <path
       fill="none"
       stroke="#000000"
       paint-order="fill stroke markers"
       d="m 718.59473,800.49341 c 0,3.86599 -3.13401,7 -7,7 -3.86599,0 -7,-3.13401 -7,-7 0,-3.86599 3.13401,-7 7,-7 3.86599,0 7,3.13401 7,7 z"
       stroke-opacity="1"
       stroke-linecap="round"
       stroke-linejoin="round"
       stroke-miterlimit="10"
       id="path867"
       style="stroke:#d40000;stroke-opacity:1" />
    <path
       fill="#000000"
       stroke="none"
       paint-order="stroke fill markers"
       d="m 750.28379,777.79435 c 0,2.76142 -2.23857,5 -5,5 -2.76142,0 -5,-2.23858 -5,-5 0,-2.76143 2.23858,-5 5,-5 2.76143,0 5,2.23857 5,5 z"
       fill-opacity="1"
       id="path869" />
    <path
       fill="none"
       stroke="#000000"
       paint-order="fill stroke markers"
       d="m 750.28379,777.79435 c 0,2.76142 -2.23857,5 -5,5 -2.76142,0 -5,-2.23858 -5,-5 0,-2.76143 2.23858,-5 5,-5 2.76143,0 5,2.23857 5,5 z"
       stroke-opacity="1"
       stroke-linecap="round"
       stroke-linejoin="round"
       stroke-miterlimit="10"
       id="path871" />
    <path
       fill="#000000"
       stroke="none"
       paint-order="stroke fill markers"
       d="m 765.44148,752.77332 c 0,2.76142 -2.23858,5 -5,5 -2.76143,0 -5,-2.23858 -5,-5 0,-2.76143 2.23857,-5 5,-5 2.76142,0 5,2.23857 5,5 z"
       fill-opacity="1"
       id="path873" />
    <path
       fill="none"
       stroke="#000000"
       paint-order="fill stroke markers"
       d="m 765.44148,752.77332 c 0,2.76142 -2.23858,5 -5,5 -2.76143,0 -5,-2.23858 -5,-5 0,-2.76143 2.23857,-5 5,-5 2.76142,0 5,2.23857 5,5 z"
       stroke-opacity="1"
       stroke-linecap="round"
       stroke-linejoin="round"
       stroke-miterlimit="10"
       id="path875" />
    <path
       fill="#000000"
       stroke="none"
       paint-order="stroke fill markers"
       d="m 781.97836,714.99302 c 0,2.76142 -2.23857,5 -5,5 -2.76142,0 -5,-2.23858 -5,-5 0,-2.76142 2.23858,-5 5,-5 2.76143,0 5,2.23858 5,5 z"
       fill-opacity="1"
       id="path877" />
    <path
       fill="none"
       stroke="#000000"
       paint-order="fill stroke markers"
       d="m 781.97836,714.99302 c 0,2.76142 -2.23857,5 -5,5 -2.76142,0 -5,-2.23858 -5,-5 0,-2.76142 2.23858,-5 5,-5 2.76143,0 5,2.23858 5,5 z"
       stroke-opacity="1"
       stroke-linecap="round"
       stroke-linejoin="round"
       stroke-miterlimit="10"
       id="path879" />
    <path
       fill="#000000"
       stroke="none"
       paint-order="stroke fill markers"
       d="m 795.0302,677.45094 c 0,2.76143 -2.23857,5 -5,5 -2.76142,0 -5,-2.23857 -5,-5 0,-2.76142 2.23858,-5 5,-5 2.76143,0 5,2.23858 5,5 z"
       fill-opacity="1"
       id="path881" />
    <path
       fill="none"
       stroke="#000000"
       paint-order="fill stroke markers"
       d="m 795.0302,677.45094 c 0,2.76143 -2.23857,5 -5,5 -2.76142,0 -5,-2.23857 -5,-5 0,-2.76142 2.23858,-5 5,-5 2.76143,0 5,2.23858 5,5 z"
       stroke-opacity="1"
       stroke-linecap="round"
       stroke-linejoin="round"
       stroke-miterlimit="10"
       id="path883" />
    <path
       fill="#000000"
       stroke="none"
       paint-order="stroke fill markers"
       d="m 817.99998,594.83292 c 0,2.76143 -2.23858,5 -5,5 -2.76143,0 -5,-2.23857 -5,-5 0,-2.76142 2.23857,-5 5,-5 2.76142,0 5,2.23858 5,5 z"
       fill-opacity="1"
       id="path885" />
    <path
       fill="none"
       stroke="#000000"
       paint-order="fill stroke markers"
       d="m 817.99998,594.83292 c 0,2.76143 -2.23858,5 -5,5 -2.76143,0 -5,-2.23857 -5,-5 0,-2.76142 2.23857,-5 5,-5 2.76142,0 5,2.23858 5,5 z"
       stroke-opacity="1"
       stroke-linecap="round"
       stroke-linejoin="round"
       stroke-miterlimit="10"
       id="path887" />
    <path
       fill="#000000"
       stroke="none"
       paint-order="stroke fill markers"
       d="m 833.85881,525.4761 c 0,2.76142 -2.23857,5 -5,5 -2.76142,0 -5,-2.23858 -5,-5 0,-2.76142 2.23858,-5 5,-5 2.76143,0 5,2.23858 5,5 z"
       fill-opacity="1"
       id="path889" />
    <path
       fill="none"
       stroke="#000000"
       paint-order="fill stroke markers"
       d="m 833.85881,525.4761 c 0,2.76142 -2.23857,5 -5,5 -2.76142,0 -5,-2.23858 -5,-5 0,-2.76142 2.23858,-5 5,-5 2.76143,0 5,2.23858 5,5 z"
       stroke-opacity="1"
       stroke-linecap="round"
       stroke-linejoin="round"
       stroke-miterlimit="10"
       id="path891" />
    <path
       fill="#000000"
       stroke="none"
       paint-order="stroke fill markers"
       d="m 848.12772,454.47485 c 0,2.76142 -2.23857,5 -5,5 -2.76142,0 -5,-2.23858 -5,-5 0,-2.76143 2.23858,-5 5,-5 2.76143,0 5,2.23857 5,5 z"
       fill-opacity="1"
       id="path893" />
    <path
       fill="none"
       stroke="#000000"
       paint-order="fill stroke markers"
       d="m 848.12772,454.47485 c 0,2.76142 -2.23857,5 -5,5 -2.76142,0 -5,-2.23858 -5,-5 0,-2.76143 2.23858,-5 5,-5 2.76143,0 5,2.23857 5,5 z"
       stroke-opacity="1"
       stroke-linecap="round"
       stroke-linejoin="round"
       stroke-miterlimit="10"
       id="path895" />
    <path
       fill="#000000"
       stroke="none"
       paint-order="stroke fill markers"
       d="m 861.68126,379.49139 c 0,2.76142 -2.23858,5 -5,5 -2.76142,0 -5,-2.23858 -5,-5 0,-2.76143 2.23858,-5 5,-5 2.76142,0 5,2.23857 5,5 z"
       fill-opacity="1"
       id="path897" />
    <path
       fill="none"
       stroke="#000000"
       paint-order="fill stroke markers"
       d="m 861.68126,379.49139 c 0,2.76142 -2.23858,5 -5,5 -2.76142,0 -5,-2.23858 -5,-5 0,-2.76143 2.23858,-5 5,-5 2.76142,0 5,2.23857 5,5 z"
       stroke-opacity="1"
       stroke-linecap="round"
       stroke-linejoin="round"
       stroke-miterlimit="10"
       id="path899" />
    <path
       fill="#000000"
       stroke="none"
       paint-order="stroke fill markers"
       d="m 869.21992,334.60442 c 0,2.76142 -2.23857,5 -5,5 -2.76142,0 -5,-2.23858 -5,-5 0,-2.76143 2.23858,-5 5,-5 2.76143,0 5,2.23857 5,5 z"
       fill-opacity="1"
       id="path901" />
    <path
       fill="none"
       stroke="#000000"
       paint-order="fill stroke markers"
       d="m 869.21992,334.60442 c 0,2.76142 -2.23857,5 -5,5 -2.76142,0 -5,-2.23858 -5,-5 0,-2.76143 2.23858,-5 5,-5 2.76143,0 5,2.23857 5,5 z"
       stroke-opacity="1"
       stroke-linecap="round"
       stroke-linejoin="round"
       stroke-miterlimit="10"
       id="path903" />
    <path
       fill="#000000"
       stroke="none"
       paint-order="stroke fill markers"
       d="m 883.28258,244.79661 c 0,2.76143 -2.23857,5 -5,5 -2.76142,0 -5,-2.23857 -5,-5 0,-2.76142 2.23858,-5 5,-5 2.76143,0 5,2.23858 5,5 z"
       fill-opacity="1"
       id="path905" />
    <path
       fill="none"
       stroke="#000000"
       paint-order="fill stroke markers"
       d="m 883.28258,244.79661 c 0,2.76143 -2.23857,5 -5,5 -2.76142,0 -5,-2.23857 -5,-5 0,-2.76142 2.23858,-5 5,-5 2.76143,0 5,2.23858 5,5 z"
       stroke-opacity="1"
       stroke-linecap="round"
       stroke-linejoin="round"
       stroke-miterlimit="10"
       id="path907" />
    <path
       style="fill:none;stroke:#000000;stroke-width:0.999999px;stroke-linecap:butt;stroke-linejoin:miter;stroke-opacity:1"
       d="M 387.75637,74.904033 V 844.98056 h 656.45513"
       id="path1277" />
  </g>
</svg>
