<?xml version="1.0" encoding="UTF-8" standalone="no"?>
<!-- Created with Vectornator (http://vectornator.io/) -->

<svg
   height="100%"
   stroke-miterlimit="10"
   style="fill-rule:nonzero;clip-rule:evenodd;stroke-linecap:round;stroke-linejoin:round;"
   version="1.1"
   viewBox="0 0 3370.82 2384.24"
   width="100%"
   xml:space="preserve"
   id="svg732"
   sodipodi:docname="cono_x.svg"
   inkscape:version="1.2.1 (9c6d41e410, 2022-07-14, custom)"
   xmlns:inkscape="http://www.inkscape.org/namespaces/inkscape"
   xmlns:sodipodi="http://sodipodi.sourceforge.net/DTD/sodipodi-0.dtd"
   xmlns="http://www.w3.org/2000/svg"
   xmlns:svg="http://www.w3.org/2000/svg"><sodipodi:namedview
   id="namedview734"
   pagecolor="#ffffff"
   bordercolor="#000000"
   borderopacity="0.25"
   inkscape:showpageshadow="2"
   inkscape:pageopacity="0.0"
   inkscape:pagecheckerboard="0"
   inkscape:deskcolor="#d1d1d1"
   showgrid="false"
   inkscape:zoom="0.35395402"
   inkscape:cx="1736.1012"
   inkscape:cy="1277.002"
   inkscape:window-width="1888"
   inkscape:window-height="1008"
   inkscape:window-x="13"
   inkscape:window-y="53"
   inkscape:window-maximized="1"
   inkscape:current-layer="svg732" />
<defs
   id="defs727">
  
  
  
  
  
  
  
  
</defs>

<path
   style="fill:#ff0000;fill-opacity:0.75;stroke:#000000;stroke-width:0.709029;stroke-dasharray:none"
   d="m 2489.6088,1681.7941 c -161.7775,-5.772 -360.9204,-31.5542 -458.5251,-59.3632 -47.4004,-13.5051 -72.6661,-28.1685 -72.6896,-42.1868 -0.01,-5.766 8.7172,-13.8792 21.7056,-20.1797 24.8178,-12.0384 70.0957,-23.0103 131.6276,-31.8965 179.3801,-25.9054 375.6483,-27.9868 575.58,-6.1041 75.0206,8.2111 151.5635,21.3565 168.9304,29.0121 5.7367,2.5288 6.3858,3.2478 4.5274,5.0143 -3.329,3.1644 -14.4114,6.299 -48.9531,13.8464 -53.6412,11.7207 -77.2053,18.7256 -97.852,29.0887 -20.5256,10.3023 -27.2927,17.9405 -35.7026,40.2985 -8.7943,23.3801 -18.7558,31.4952 -45.2795,36.8867 -27.7947,5.6498 -82.1654,7.7673 -143.3691,5.5836 z"
   id="path1434" /><path
   style="fill:#ff0000;fill-opacity:0.75;stroke:#000000;stroke-width:1.73409;stroke-dasharray:none"
   d="m 1990.7096,1524.4113 c 338.5774,-595.91793 421.3987,-740.11528 423.3966,-737.16144 7.388,10.92294 448.1282,766.24044 447.4577,766.91094 -0.4593,0.4592 0,0 -12.7484,-5.6852 -13.2781,-5.9214 -54.0871,-13.0386 -90.4502,-18.3565 -220.4937,-32.2462 -474.1346,-31.6515 -671.9602,0.8715 -57.6787,9.4825 -99.9253,20.925 -125.251,42.829 -0.5812,0.5026 16.9173,-27.1644 29.5555,-49.4083 z"
   id="path1612"
   sodipodi:nodetypes="ssssssss" /><path
   style="fill:#ff0000;fill-opacity:0.75;stroke:#000000;stroke-width:0.711904;stroke-dasharray:none"
   d="M 2054.5535,1536.8001 2414.1062,787.24986"
   id="path1614" /><path
   style="fill:#ff0000;fill-opacity:0.75;stroke:#000000;stroke-width:0.711904;stroke-dasharray:none"
   d="M 2164.5228,1520.1197 2414.1062,787.24986"
   id="path1616" /><path
   style="fill:#ff0000;fill-opacity:0.75;stroke:#000000;stroke-width:0.711904;stroke-dasharray:none"
   d="m 2334.4434,1507.683 79.6628,-720.43314"
   id="path1618" /><path
   style="fill:#ff0000;fill-opacity:0.75;stroke:#000000;stroke-width:0.711904;stroke-dasharray:none"
   d="M 2464.3513,1506.6976 2414.1062,787.24986"
   id="path1620" /><path
   style="fill:#ff0000;fill-opacity:0.75;stroke:#000000;stroke-width:0.711904;stroke-dasharray:none"
   d="M 2605.9882,1513.3665 2414.1062,787.24986"
   id="path1622" /><path
   style="fill:#ff0000;fill-opacity:0.75;stroke:#000000;stroke-width:0.711904;stroke-dasharray:none"
   d="M 2687.3073,1522.0638 2414.1062,787.24986"
   id="path1624" /><path
   style="fill:#ff0000;fill-opacity:0.75;stroke:#000000;stroke-width:0.711904;stroke-dasharray:none"
   d="M 2758.3653,1530.1191 2414.1062,787.24986"
   id="path1626" /><path
   style="fill:#ff0000;fill-opacity:0.75;stroke:#000000;stroke-width:0.711904;stroke-dasharray:none"
   d="M 2811.812,1569.9366 2414.1062,787.24986"
   id="path1628" /><path
   style="fill:#ff0000;fill-opacity:0.75;stroke:#000000;stroke-width:0.711904;stroke-dasharray:none"
   d="M 2713.96,1599.0253 2414.1062,787.24986"
   id="path1630" /><path
   style="fill:#ff0000;fill-opacity:0.75;stroke:#000000;stroke-width:0.711904;stroke-dasharray:none"
   d="M 2678.2574,1639.3238 2414.1062,787.24986"
   id="path1632" /><path
   style="fill:#ff0000;fill-opacity:0.75;stroke:#000000;stroke-width:0.711904;stroke-dasharray:none"
   d="M 2656.1914,1668.5859 2414.1062,787.24986"
   id="path1634" /><path
   style="fill:#ff0000;fill-opacity:0.75;stroke:#000000;stroke-width:0.711904;stroke-dasharray:none"
   d="M 2569.6366,1682.0921 2414.1062,787.24986"
   id="path1636" /><path
   style="fill:#ff0000;fill-opacity:0.75;stroke:#000000;stroke-width:0.711904;stroke-dasharray:none"
   d="M 2489.6088,1681.7941 2414.1062,787.24986"
   id="path1638" /><path
   style="fill:#ff0000;fill-opacity:0.75;stroke:#000000;stroke-width:0.711904;stroke-dasharray:none"
   d="m 2365.513,1674.1703 48.5932,-886.92044"
   id="path1640" /><path
   style="fill:#ff0000;fill-opacity:0.75;stroke:#000000;stroke-width:0.711904;stroke-dasharray:none"
   d="M 2248.138,1661.8853 2414.1062,787.24986"
   id="path1642" /><path
   style="fill:#ff0000;fill-opacity:0.75;stroke:#000000;stroke-width:0.711904;stroke-dasharray:none"
   d="M 2116.2755,1641.7221 2414.1062,787.24986"
   id="path1644" /><path
   style="fill:#ff0000;fill-opacity:0.75;stroke:#000000;stroke-width:0.711904;stroke-dasharray:none"
   d="M 2031.0837,1622.4309 2414.1062,787.24986"
   id="path1646" /><ellipse
   style="font-variation-settings:normal;fill:#000000;fill-opacity:1;fill-rule:evenodd;stroke:none;stroke-width:0.691883;stroke-linecap:butt;stroke-linejoin:miter;stroke-miterlimit:4;stroke-dasharray:none;stroke-dashoffset:0;stroke-opacity:1;stop-color:#000000"
   id="path1700"
   cx="2414.1062"
   cy="787.24988"
   rx="17.451662"
   ry="17.45166" /><path
   style="clip-rule:evenodd;fill:#ff0000;fill-opacity:0.75;fill-rule:nonzero;stroke:#000000;stroke-width:0.709029;stroke-linecap:round;stroke-linejoin:round;stroke-dasharray:none"
   d="m 910.50534,1579.1264 c -161.7775,-5.772 -360.9204,-31.5542 -458.5251,-59.3632 -47.4004,-13.5051 -72.6661,-28.1685 -72.6896,-42.1868 -0.01,-5.766 8.7172,-13.8792 21.7056,-20.1797 24.8178,-12.0384 70.0957,-23.0103 131.6276,-31.8965 179.3801,-25.9054 375.6483,-27.9868 575.57996,-6.1041 75.0206,8.2111 151.5635,21.3565 168.9304,29.0121 5.7367,2.5288 6.3858,3.2478 4.5274,5.0143 -3.329,3.1644 -14.4114,6.299 -48.9531,13.8464 -53.6412,11.7207 -77.2053,18.7256 -97.852,29.0887 -20.5256,10.3023 -27.2927,17.9405 -35.7026,40.2985 -8.7943,23.3801 -18.7558,31.4952 -45.2795,36.8867 -27.7947,5.6498 -82.16536,7.7673 -143.36906,5.5836 z"
   id="path1434-6" /><path
   style="clip-rule:evenodd;fill:#ff0000;fill-opacity:0.75;fill-rule:nonzero;stroke:#000000;stroke-width:0.709029;stroke-linecap:round;stroke-linejoin:round;stroke-dasharray:none"
   d="m 910.50534,1093.1962 c -161.7775,-5.772 -360.9204,-31.5542 -458.5251,-59.3632 -47.4004,-13.5051 -72.6661,-28.1685 -72.6896,-42.18676 -0.01,-5.766 8.7172,-13.8792 21.7056,-20.1797 24.8178,-12.0384 70.0957,-23.0103 131.6276,-31.8965 179.3801,-25.9054 375.6483,-27.9868 575.57996,-6.1041 75.0206,8.2111 151.5635,21.3565 168.9304,29.0121 5.7367,2.5288 6.3858,3.2478 4.5274,5.0143 -3.329,3.1644 -14.4114,6.299 -48.9531,13.8464 -53.6412,11.7207 -77.2053,18.72556 -97.852,29.08866 -20.5256,10.3023 -27.2927,17.9405 -35.7026,40.2985 -8.7943,23.3801 -18.7558,31.4952 -45.2795,36.8867 -27.7947,5.6498 -82.16536,7.7673 -143.36906,5.5836 z"
   id="path1434-7" /><path
   style="fill:#ff0000;stroke:#000000;stroke-width:0.935628;stroke-opacity:1"
   d="M 379.29064,1234.6129 V 991.64624 l 5.41758,5.28248 c 16.67098,16.25528 59.47736,30.75308 135.63726,45.93818 180.09617,35.9085 455.29666,54.9593 535.40382,37.0636 25.2562,-5.6421 33.843,-13.0433 44.0347,-37.9546 8.528,-20.8449 15.049,-28.2746 32.8828,-37.4653 21.4257,-11.04179 41.4834,-17.11935 100.3839,-30.41672 17.4963,-3.94995 38.1057,-1.24164 42.0831,-3.27095 l 7.3347,-4.31432 -2.1686,241.82569 c -2.1015,234.337 3.5309,243.5305 1.9746,242.8991 -26.2324,-10.638 -126.5999,-22.9424 -223.7183,-31.675 -34.9644,-3.1439 -75.24051,-5.8341 -123.035,-8.2182 -31.87681,-1.59 -164.33144,-1.5883 -196.01397,0 -69.13316,3.4713 -122.64198,8.0292 -178.70485,15.2221 -96.73704,12.4112 -157.45347,28.2637 -176.21859,46.0087 l -5.29315,5.0054 z"
   id="path1158"
   sodipodi:nodetypes="ccssssssscscsscsscc" /><path
   style="fill:#ff0000;stroke:#000000;stroke-opacity:1"
   d="m 1099.1539,1536.6561 0.6301,-494.6802"
   id="path1310" /><path
   style="fill:#ff0000;stroke:#000000;stroke-opacity:1"
   d="M 1232.7085,1467.2689 V 981.33874"
   id="path1312" /><path
   style="fill:#ff0000;stroke:#000000;stroke-opacity:1"
   d="m 1165.8896,1484.0131 -2.6444,-492.12427"
   id="path1314" /><path
   style="fill:#ff0000;stroke:#000000;stroke-opacity:1"
   d="m 910.50534,1579.1264 7.05563,-492.972"
   id="path1316"
   sodipodi:nodetypes="cc" /><path
   style="fill:#ff0000;stroke:#000000;stroke-opacity:1"
   d="m 1053.8744,1573.5428 1.8749,-493.6123"
   id="path1318"
   sodipodi:nodetypes="cc" /><path
   style="fill:#ff0000;stroke:#000000;stroke-opacity:1"
   d="m 663.5199,1558.5222 10.73792,-491.5106"
   id="path1320"
   sodipodi:nodetypes="cc" /><path
   style="fill:#ff0000;stroke:#000000;stroke-opacity:1"
   d="m 502.68179,1532.1643 17.66369,-489.2974"
   id="path1322" /><path
   style="fill:#ff0000;stroke:#000000;stroke-opacity:1"
   d="M 400.99624,1457.3967 V 971.46654"
   id="path1324"
   sodipodi:nodetypes="cc" /><path
   style="fill:#ff0000;stroke:#000000;stroke-opacity:1"
   d="m 560.80238,1426.5623 3.74676,-491.32887"
   id="path1326"
   sodipodi:nodetypes="cc" /><path
   style="fill:#ff0000;stroke:#000000;stroke-opacity:1"
   d="m 739.50723,1411.3402 6.49449,-491.06667"
   id="path1328" /><path
   style="fill:#ff0000;stroke:#000000;stroke-opacity:1"
   d="m 881.03021,1410.3057 0.29984,-491.43604"
   id="path1330"
   sodipodi:nodetypes="cc" /><path
   style="fill:#ff0000;stroke:#000000;stroke-opacity:1"
   d="m 1019.0872,1416.366 6.3256,-490.61098"
   id="path1332"
   sodipodi:nodetypes="cc" /><path
   style="fill:#ff0000;stroke:#000000;stroke-opacity:1"
   d="m 1139.4329,1427.6446 -0.32,-490.53446"
   id="path1334" /><path
   style="fill:#ff0000;fill-opacity:0.74902;stroke:#000000;stroke-width:1.00299;stroke-opacity:1"
   d="m 910.32898,1753.7385 c -179.7068,-7.3446 -384.02547,-35.3043 -473.41051,-64.783 -34.64847,-11.4269 -55.16436,-24.8667 -55.16436,-36.1377 0,-4.0661 9.63277,-12.9579 19.55828,-18.0539 26.7683,-13.7434 78.33297,-25.699 154.9617,-35.9289 133.51399,-17.8241 285.26899,-22.5842 431.28499,-13.5281 93.09302,5.7738 183.91512,16.3815 249.74402,29.1692 26.7586,5.198 45.1345,10.4969 45.1345,13.015 0,2.5814 -13.8516,6.7273 -46.639,13.9593 -50.9006,11.2274 -77.4583,18.9378 -96.4174,27.9927 -23.6964,11.3175 -29.7772,17.9853 -40.5168,44.4279 -5.9673,14.6925 -12.3369,22.3397 -23.3072,27.9822 -9.2537,4.7597 -31.3255,8.816 -59.413,10.9189 -19.62236,1.4691 -80.01962,2.0207 -105.81522,0.9664 z"
   id="path1405" /><g
   fill="#000000"
   fill-opacity="1"
   id="g26"
   transform="matrix(13.312427,0,0,13.312427,55.65809,751.03739)">
    <g
   id="use24"
   transform="translate(91.925003,82.211998)">
      <path
   d="M 4.828125,-4.09375 4,-6.078125 c -0.03125,-0.078125 -0.046875,-0.125 -0.046875,-0.125 0,-0.0625 0.15625,-0.25 0.578125,-0.296875 0.109375,-0.015625 0.203125,-0.015625 0.203125,-0.1875 0,-0.125 -0.125,-0.125 -0.15625,-0.125 -0.40625,0 -0.828125,0.03125 -1.25,0.03125 -0.25,0 -0.859375,-0.03125 -1.109375,-0.03125 -0.0625,0 -0.1875,0 -0.1875,0.203125 C 2.03125,-6.5 2.140625,-6.5 2.265625,-6.5 c 0.59375,0 0.65625,0.09375 0.75,0.3125 l 1.171875,2.78125 -2.109375,2.265625 -0.125,0.109375 C 1.46875,-0.5 1,-0.34375 0.484375,-0.3125 c -0.125,0.015625 -0.21875,0.015625 -0.21875,0.203125 0,0.015625 0,0.109375 0.140625,0.109375 0.296875,0 0.625,-0.03125 0.921875,-0.03125 C 1.703125,-0.03125 2.09375,0 2.453125,0 2.515625,0 2.625,0 2.625,-0.203125 2.625,-0.296875 2.53125,-0.3125 2.515625,-0.3125 c -0.09375,0 -0.40625,-0.03125 -0.40625,-0.3125 0,-0.15625 0.15625,-0.3125 0.265625,-0.4375 L 3.40625,-2.140625 4.296875,-3.125 l 1,2.390625 c 0.046875,0.109375 0.0625,0.109375 0.0625,0.140625 0,0.078125 -0.203125,0.25 -0.578125,0.28125 C 4.671875,-0.296875 4.578125,-0.296875 4.578125,-0.125 4.578125,0 4.6875,0 4.71875,0 5,0 5.703125,-0.03125 5.984375,-0.03125 6.234375,-0.03125 6.84375,0 7.09375,0 c 0.0625,0 0.1875,0 0.1875,-0.1875 0,-0.125 -0.109375,-0.125 -0.1875,-0.125 -0.65625,0 -0.6875,-0.03125 -0.859375,-0.4375 C 5.859375,-1.671875 5.1875,-3.234375 4.953125,-3.828125 5.625,-4.53125 6.671875,-5.71875 7,-5.984375 7.28125,-6.234375 7.671875,-6.46875 8.265625,-6.5 c 0.125,-0.015625 0.21875,-0.015625 0.21875,-0.203125 0,0 0,-0.109375 -0.125,-0.109375 -0.296875,0 -0.640625,0.03125 -0.9375,0.03125 -0.375,0 -0.75,-0.03125 -1.109375,-0.03125 -0.0625,0 -0.1875,0 -0.1875,0.203125 0,0.0625 0.046875,0.09375 0.109375,0.109375 0.09375,0.015625 0.40625,0.03125 0.40625,0.3125 0,0.140625 -0.109375,0.265625 -0.1875,0.359375 z m 0,0"
   id="path64" />
    </g>
  </g><g
   id="g1596"
   transform="translate(-91.957849,317.02533)"><g
     fill="#000000"
     fill-opacity="1"
     id="g30"
     transform="matrix(13.312427,0,0,13.312427,-16.907099,-493.35511)">
    <g
   id="use28"
   transform="translate(104.28361,82.211998)">
      <path
   d="M 4.828125,-4.09375 4,-6.078125 c -0.03125,-0.078125 -0.046875,-0.125 -0.046875,-0.125 0,-0.0625 0.15625,-0.25 0.578125,-0.296875 0.109375,-0.015625 0.203125,-0.015625 0.203125,-0.1875 0,-0.125 -0.125,-0.125 -0.15625,-0.125 -0.40625,0 -0.828125,0.03125 -1.25,0.03125 -0.25,0 -0.859375,-0.03125 -1.109375,-0.03125 -0.0625,0 -0.1875,0 -0.1875,0.203125 C 2.03125,-6.5 2.140625,-6.5 2.265625,-6.5 c 0.59375,0 0.65625,0.09375 0.75,0.3125 l 1.171875,2.78125 -2.109375,2.265625 -0.125,0.109375 C 1.46875,-0.5 1,-0.34375 0.484375,-0.3125 c -0.125,0.015625 -0.21875,0.015625 -0.21875,0.203125 0,0.015625 0,0.109375 0.140625,0.109375 0.296875,0 0.625,-0.03125 0.921875,-0.03125 C 1.703125,-0.03125 2.09375,0 2.453125,0 2.515625,0 2.625,0 2.625,-0.203125 2.625,-0.296875 2.53125,-0.3125 2.515625,-0.3125 c -0.09375,0 -0.40625,-0.03125 -0.40625,-0.3125 0,-0.15625 0.15625,-0.3125 0.265625,-0.4375 L 3.40625,-2.140625 4.296875,-3.125 l 1,2.390625 c 0.046875,0.109375 0.0625,0.109375 0.0625,0.140625 0,0.078125 -0.203125,0.25 -0.578125,0.28125 C 4.671875,-0.296875 4.578125,-0.296875 4.578125,-0.125 4.578125,0 4.6875,0 4.71875,0 5,0 5.703125,-0.03125 5.984375,-0.03125 6.234375,-0.03125 6.84375,0 7.09375,0 c 0.0625,0 0.1875,0 0.1875,-0.1875 0,-0.125 -0.109375,-0.125 -0.1875,-0.125 -0.65625,0 -0.6875,-0.03125 -0.859375,-0.4375 C 5.859375,-1.671875 5.1875,-3.234375 4.953125,-3.828125 5.625,-4.53125 6.671875,-5.71875 7,-5.984375 7.28125,-6.234375 7.671875,-6.46875 8.265625,-6.5 c 0.125,-0.015625 0.21875,-0.015625 0.21875,-0.203125 0,0 0,-0.109375 -0.125,-0.109375 -0.296875,0 -0.640625,0.03125 -0.9375,0.03125 -0.375,0 -0.75,-0.03125 -1.109375,-0.03125 -0.0625,0 -0.1875,0 -0.1875,0.203125 0,0.0625 0.046875,0.09375 0.109375,0.109375 0.09375,0.015625 0.40625,0.03125 0.40625,0.3125 0,0.140625 -0.109375,0.265625 -0.1875,0.359375 z m 0,0"
   id="path68" />
    </g>
  </g><g
     fill="#000000"
     fill-opacity="1"
     id="g34"
     transform="matrix(13.312427,0,0,13.312427,-16.907099,-493.35511)">
    <g
   id="use32"
   transform="translate(115.531,82.211998)">
      <path
   d="M 3.875,-2.765625 1.890625,-4.75 C 1.765625,-4.875 1.75,-4.890625 1.671875,-4.890625 1.5625,-4.890625 1.46875,-4.8125 1.46875,-4.6875 c 0,0.0625 0.015625,0.078125 0.125,0.1875 l 2,2 -2,2.015625 c -0.109375,0.109375 -0.125,0.125 -0.125,0.1875 0,0.125 0.09375,0.203125 0.203125,0.203125 0.078125,0 0.09375,-0.015625 0.21875,-0.140625 L 3.875,-2.21875 l 2.0625,2.0625 c 0.015625,0.015625 0.078125,0.0625 0.140625,0.0625 0.125,0 0.203125,-0.078125 0.203125,-0.203125 0,-0.015625 0,-0.046875 -0.03125,-0.109375 C 6.234375,-0.421875 4.65625,-1.984375 4.15625,-2.5 l 1.828125,-1.8125 c 0.046875,-0.0625 0.203125,-0.1875 0.25,-0.25 0,-0.015625 0.046875,-0.0625 0.046875,-0.125 0,-0.125 -0.078125,-0.203125 -0.203125,-0.203125 C 6,-4.890625 5.96875,-4.859375 5.859375,-4.75 Z m 0,0"
   id="path72" />
    </g>
  </g><g
     fill="#000000"
     fill-opacity="1"
     id="g38"
     transform="matrix(13.312427,0,0,13.312427,-16.907099,-493.35511)">
    <g
   id="use36"
   transform="translate(125.494,82.211998)">
      <path
   d="M 3.734375,-6.046875 C 3.8125,-6.40625 3.84375,-6.5 4.640625,-6.5 c 0.234375,0 0.3125,0 0.3125,-0.1875 0,-0.125 -0.109375,-0.125 -0.140625,-0.125 -0.296875,0 -1.03125,0.03125 -1.328125,0.03125 -0.296875,0 -1.015625,-0.03125 -1.328125,-0.03125 -0.0625,0 -0.1875,0 -0.1875,0.203125 C 1.96875,-6.5 2.046875,-6.5 2.25,-6.5 c 0.40625,0 0.6875,0 0.6875,0.1875 0,0.046875 0,0.078125 -0.03125,0.15625 l -1.34375,5.375 c -0.09375,0.375 -0.109375,0.46875 -0.90625,0.46875 -0.234375,0 -0.3125,0 -0.3125,0.203125 C 0.34375,0 0.453125,0 0.484375,0 0.78125,0 1.5,-0.03125 1.796875,-0.03125 2.09375,-0.03125 2.828125,0 3.125,0 c 0.078125,0 0.203125,0 0.203125,-0.1875 0,-0.125 -0.078125,-0.125 -0.296875,-0.125 -0.1875,0 -0.234375,0 -0.421875,-0.015625 -0.21875,-0.015625 -0.25,-0.0625 -0.25,-0.171875 0,-0.078125 0.015625,-0.15625 0.03125,-0.234375 z m 0,0"
   id="path76" />
    </g>
  </g></g><g
   inkscape:label=""
   transform="matrix(6.7237299,0,0,6.7237299,2431.5578,662.38801)"
   id="g1765"><g
   fill="#000000"
   fill-opacity="1"
   id="g25"
   transform="matrix(1.6,0,0,1.6,-148.955,-119.166)">
    <g
   id="use23"
   transform="translate(91.925003,81.962997)">
      <path
   d="M 2.546875,2.5 V 2.09375 h -0.96875 v -9.171875 h 0.96875 v -0.40625 h -1.375 V 2.5 Z m 0,0"
   id="path43" />
    </g>
  </g>
  <g
   fill="#000000"
   fill-opacity="1"
   id="g31"
   transform="matrix(1.6,0,0,1.6,-148.955,-119.166)">
    <g
   id="use27"
   transform="translate(94.693001,81.962997)">
      <path
   d="M 3.328125,-3.015625 C 3.390625,-3.265625 3.625,-4.1875 4.3125,-4.1875 c 0.046875,0 0.296875,0 0.5,0.125 C 4.53125,-4 4.34375,-3.765625 4.34375,-3.515625 c 0,0.15625 0.109375,0.34375 0.375,0.34375 0.21875,0 0.53125,-0.171875 0.53125,-0.578125 0,-0.515625 -0.578125,-0.65625 -0.921875,-0.65625 -0.578125,0 -0.921875,0.53125 -1.046875,0.75 -0.25,-0.65625 -0.78125,-0.75 -1.078125,-0.75 -1.03125,0 -1.609375,1.28125 -1.609375,1.53125 0,0.109375 0.109375,0.109375 0.125,0.109375 0.078125,0 0.109375,-0.03125 0.125,-0.109375 0.34375,-1.0625 1,-1.3125 1.34375,-1.3125 0.1875,0 0.53125,0.09375 0.53125,0.671875 0,0.3125 -0.171875,0.96875 -0.53125,2.375 -0.15625,0.609375 -0.515625,1.03125 -0.953125,1.03125 -0.0625,0 -0.28125,0 -0.5,-0.125 0.25,-0.0625 0.46875,-0.265625 0.46875,-0.546875 0,-0.265625 -0.21875,-0.34375 -0.359375,-0.34375 -0.3125,0 -0.546875,0.25 -0.546875,0.578125 0,0.453125 0.484375,0.65625 0.921875,0.65625 0.671875,0 1.03125,-0.703125 1.046875,-0.75 0.125,0.359375 0.484375,0.75 1.078125,0.75 1.03125,0 1.59375,-1.28125 1.59375,-1.53125 0,-0.109375 -0.078125,-0.109375 -0.109375,-0.109375 -0.09375,0 -0.109375,0.046875 -0.140625,0.109375 -0.328125,1.078125 -1,1.3125 -1.3125,1.3125 -0.390625,0 -0.546875,-0.3125 -0.546875,-0.65625 0,-0.21875 0.046875,-0.4375 0.15625,-0.875 z m 0,0"
   id="path47" />
    </g>
    <g
   id="use29"
   transform="translate(100.38663,81.962997)">
      <path
   d="m 2.03125,-0.015625 c 0,-0.65625 -0.25,-1.046875 -0.640625,-1.046875 -0.328125,0 -0.53125,0.25 -0.53125,0.53125 C 0.859375,-0.265625 1.0625,0 1.390625,0 1.5,0 1.640625,-0.046875 1.734375,-0.125 1.765625,-0.15625 1.78125,-0.15625 1.78125,-0.15625 c 0.015625,0 0.015625,0 0.015625,0.140625 0,0.75 -0.34375,1.34375 -0.671875,1.671875 -0.109375,0.109375 -0.109375,0.125 -0.109375,0.15625 0,0.078125 0.046875,0.109375 0.09375,0.109375 0.109375,0 0.921875,-0.765625 0.921875,-1.9375 z m 0,0"
   id="path51" />
    </g>
  </g>
  <g
   fill="#000000"
   fill-opacity="1"
   id="g37"
   transform="matrix(1.6,0,0,1.6,-148.955,-119.166)">
    <g
   id="use33"
   transform="translate(104.814,81.962997)">
      <path
   d="m 2.9375,-6.375 c 0,-0.25 0,-0.265625 -0.234375,-0.265625 C 2.078125,-6 1.203125,-6 0.890625,-6 v 0.3125 c 0.203125,0 0.78125,0 1.296875,-0.265625 v 5.171875 c 0,0.359375 -0.03125,0.46875 -0.921875,0.46875 h -0.3125 V 0 c 0.34375,-0.03125 1.203125,-0.03125 1.609375,-0.03125 0.390625,0 1.265625,0 1.609375,0.03125 v -0.3125 h -0.3125 c -0.90625,0 -0.921875,-0.109375 -0.921875,-0.46875 z m 0,0"
   id="path55" />
    </g>
    <g
   id="use35"
   transform="translate(109.7953,81.962997)">
      <path
   d="M 1.578125,-7.484375 H 0.21875 v 0.40625 H 1.1875 V 2.09375 H 0.21875 V 2.5 h 1.359375 z m 0,0"
   id="path59" />
    </g>
  </g>
</g><path
   style="clip-rule:evenodd;fill:#ff0000;fill-opacity:0.74902;fill-rule:nonzero;stroke:#000000;stroke-width:0.622424;stroke-linecap:round;stroke-linejoin:round;stroke-opacity:1"
   d="m 2461.1882,1347.8242 c -113.9861,-4.4592 -243.5831,-21.4349 -300.2792,-39.3327 -21.9771,-6.9378 -34.9901,-15.0977 -34.9901,-21.9408 0,-2.4688 6.11,-7.8674 12.4056,-10.9615 16.9789,-8.3442 49.6858,-15.603 98.2906,-21.814 84.6864,-10.8218 180.943,-13.7119 273.5594,-8.2135 59.0478,3.5055 116.6552,9.946 158.4098,17.71 16.9728,3.1559 28.6283,6.3731 28.6283,7.902 0,1.5672 -8.7858,4.0844 -29.5826,8.4753 -32.2856,6.8167 -49.1309,11.498 -61.1565,16.9956 -15.0304,6.8714 -18.8873,10.9197 -25.6993,26.9743 -3.785,8.9204 -7.8252,13.5634 -14.7836,16.9892 -5.8695,2.8899 -19.8694,5.3526 -37.6849,6.6293 -12.4464,0.892 -50.7556,1.2269 -67.1175,0.5868 z"
   id="path1405-3" /><g
   inkscape:label=""
   transform="matrix(9.2071382,0,0,9.2071382,2862.0426,1682.9961)"
   id="g1047"><g
   fill="#000000"
   fill-opacity="1"
   id="g15"
   transform="matrix(1.6,0,0,1.6,-147.88,-119.891)">
    <g
   id="use13"
   transform="translate(91.925003,81.962997)">
      <path
   d="m 7.578125,-6.921875 c 0,-0.03125 -0.015625,-0.109375 -0.109375,-0.109375 -0.03125,0 -0.046875,0.015625 -0.15625,0.125 L 6.625,-6.140625 C 6.53125,-6.28125 6.078125,-7.03125 4.96875,-7.03125 2.734375,-7.03125 0.5,-4.828125 0.5,-2.515625 0.5,-0.875 1.671875,0.21875 3.203125,0.21875 c 0.859375,0 1.625,-0.390625 2.15625,-0.859375 0.921875,-0.8125 1.09375,-1.71875 1.09375,-1.75 C 6.453125,-2.5 6.34375,-2.5 6.328125,-2.5 c -0.0625,0 -0.109375,0.03125 -0.125,0.109375 -0.09375,0.28125 -0.328125,1 -1.015625,1.578125 -0.6875,0.546875 -1.3125,0.71875 -1.828125,0.71875 -0.890625,0 -1.953125,-0.515625 -1.953125,-2.0625 0,-0.578125 0.203125,-2.1875 1.203125,-3.359375 0.609375,-0.703125 1.546875,-1.203125 2.4375,-1.203125 1.015625,0 1.609375,0.765625 1.609375,1.921875 0,0.40625 -0.03125,0.40625 -0.03125,0.515625 0,0.09375 0.109375,0.09375 0.140625,0.09375 0.125,0 0.125,-0.015625 0.1875,-0.203125 z m 0,0"
   id="path25" />
    </g>
  </g>
  <g
   fill="#000000"
   fill-opacity="1"
   id="g19"
   transform="matrix(1.6,0,0,1.6,-147.88,-119.891)">
    <g
   id="use17"
   transform="translate(99.762573,81.962997)">
      <path
   d="M 4.828125,-4.09375 4,-6.078125 c -0.03125,-0.078125 -0.046875,-0.125 -0.046875,-0.125 0,-0.0625 0.15625,-0.25 0.578125,-0.296875 0.109375,-0.015625 0.203125,-0.015625 0.203125,-0.1875 0,-0.125 -0.125,-0.125 -0.15625,-0.125 -0.40625,0 -0.828125,0.03125 -1.25,0.03125 -0.25,0 -0.859375,-0.03125 -1.109375,-0.03125 -0.0625,0 -0.1875,0 -0.1875,0.203125 C 2.03125,-6.5 2.140625,-6.5 2.265625,-6.5 c 0.59375,0 0.65625,0.09375 0.75,0.3125 l 1.171875,2.78125 -2.109375,2.265625 -0.125,0.109375 C 1.46875,-0.5 1,-0.34375 0.484375,-0.3125 c -0.125,0.015625 -0.21875,0.015625 -0.21875,0.203125 0,0.015625 0,0.109375 0.140625,0.109375 0.296875,0 0.625,-0.03125 0.921875,-0.03125 C 1.703125,-0.03125 2.09375,0 2.453125,0 2.515625,0 2.625,0 2.625,-0.203125 2.625,-0.296875 2.53125,-0.3125 2.515625,-0.3125 c -0.09375,0 -0.40625,-0.03125 -0.40625,-0.3125 0,-0.15625 0.15625,-0.3125 0.265625,-0.4375 L 3.40625,-2.140625 4.296875,-3.125 l 1,2.390625 c 0.046875,0.109375 0.0625,0.109375 0.0625,0.140625 0,0.078125 -0.203125,0.25 -0.578125,0.28125 C 4.671875,-0.296875 4.578125,-0.296875 4.578125,-0.125 4.578125,0 4.6875,0 4.71875,0 5,0 5.703125,-0.03125 5.984375,-0.03125 6.234375,-0.03125 6.84375,0 7.09375,0 c 0.0625,0 0.1875,0 0.1875,-0.1875 0,-0.125 -0.109375,-0.125 -0.1875,-0.125 -0.65625,0 -0.6875,-0.03125 -0.859375,-0.4375 C 5.859375,-1.671875 5.1875,-3.234375 4.953125,-3.828125 5.625,-4.53125 6.671875,-5.71875 7,-5.984375 7.28125,-6.234375 7.671875,-6.46875 8.265625,-6.5 c 0.125,-0.015625 0.21875,-0.015625 0.21875,-0.203125 0,0 0,-0.109375 -0.125,-0.109375 -0.296875,0 -0.640625,0.03125 -0.9375,0.03125 -0.375,0 -0.75,-0.03125 -1.109375,-0.03125 -0.0625,0 -0.1875,0 -0.1875,0.203125 0,0.0625 0.046875,0.09375 0.109375,0.109375 0.09375,0.015625 0.40625,0.03125 0.40625,0.3125 0,0.140625 -0.109375,0.265625 -0.1875,0.359375 z m 0,0"
   id="path29" />
    </g>
  </g>
</g></svg>
