<?xml version="1.0" encoding="UTF-8" standalone="no"?>
<!-- Created with Inkscape (http://www.inkscape.org/) -->

<svg
   width="210mm"
   height="297mm"
   viewBox="0 0 210 297"
   version="1.1"
   id="svg5"
   inkscape:version="1.2 (dc2aedaf03, 2022-05-15)"
   sodipodi:docname="paraboloid_cylinder.svg"
   xmlns:inkscape="http://www.inkscape.org/namespaces/inkscape"
   xmlns:sodipodi="http://sodipodi.sourceforge.net/DTD/sodipodi-0.dtd"
   xmlns="http://www.w3.org/2000/svg"
   xmlns:svg="http://www.w3.org/2000/svg">
  <sodipodi:namedview
     id="namedview7"
     pagecolor="#ffffff"
     bordercolor="#cccccc"
     borderopacity="1"
     inkscape:showpageshadow="0"
     inkscape:pageopacity="1"
     inkscape:pagecheckerboard="0"
     inkscape:deskcolor="#d1d1d1"
     inkscape:document-units="mm"
     showgrid="false"
     inkscape:zoom="1.3930129"
     inkscape:cx="435.38722"
     inkscape:cy="564.60355"
     inkscape:window-width="1888"
     inkscape:window-height="1008"
     inkscape:window-x="13"
     inkscape:window-y="53"
     inkscape:window-maximized="1"
     inkscape:current-layer="layer1" />
  <defs
     id="defs2">
    <inkscape:path-effect
       effect="fill_between_many"
       method="originald"
       linkedpaths="#path795-7,0,1|#path795-6,0,1|#path1149,0,1|"
       id="path-effect1222" />
  </defs>
  <g
     inkscape:label="Layer 1"
     inkscape:groupmode="layer"
     id="layer1">
    <path
       inkscape:original-d="M 0,0"
       inkscape:path-effect="#path-effect1222"
       d="M 0,0"
       id="path1224"
       class="UnoptimicedTransforms" />
    <path
       style="color:#000000;fill:#000000"
       d="m 133.86914,160.82812 c -11.42101,-0.41508 -34.849087,5.63491 -76.689453,22.2793 l 0.07227,0.17774 c 41.832318,-16.64119 65.267697,-22.67595 76.611327,-22.26368 2.83591,0.10307 4.91199,0.60779 6.33008,1.44141 1.41809,0.83362 2.18177,1.98858 2.4082,3.42188 0.45286,2.86659 -1.28575,6.86946 -4.46094,11.45312 -6.35036,9.16732 -18.40345,20.66321 -29.79492,30.32617 -5.69573,4.83149 -11.22632,9.20529 -15.796872,12.60352 -4.570552,3.39822 -8.185663,5.8231 -10.029297,6.74609 l 0.08594,0.17188 c 1.873932,-0.93816 5.48425,-3.36263 10.058593,-6.76368 4.574344,-3.40104 10.107738,-7.77716 15.806638,-12.61132 11.3978,-9.66834 23.45582,-21.16428 29.82813,-30.36328 3.18615,-4.59951 4.96102,-8.6241 4.49219,-11.5918 -0.23442,-1.48385 -1.04069,-2.69879 -2.5,-3.55664 -1.45932,-0.85786 -3.56663,-1.36693 -6.42188,-1.47071 z"
       id="path795-7"
       class="UnoptimicedTransforms" />
    <path
       style="color:#000000;fill:#000000;fill-opacity:1"
       d="m 149.4082,87.015625 c -11.42101,-0.415086 -34.84908,5.632949 -76.68945,22.277345 l -0.04687,0.0195 -15.550781,73.86523 0.189453,0.0391 15.52539,-73.76172 C 114.6366,92.829122 138.06328,86.794923 149.40234,87.207031 c 2.83591,0.103069 4.91199,0.609736 6.33008,1.44336 1.41809,0.833624 2.18177,1.986625 2.4082,3.419921 0.45287,2.866593 -1.28575,6.869465 -4.46093,11.453128 -6.35037,9.16732 -18.40345,20.6632 -29.79492,30.32617 -5.69574,4.83148 -11.22633,9.20529 -15.79688,12.60351 -4.57055,3.39823 -8.185662,5.82311 -10.029296,6.7461 l -0.04102,0.0215 -15.548828,73.85742 0.1875,0.041 15.53125,-73.77734 c 1.88071,-0.94682 5.46091,-3.34792 10.01563,-6.73438 4.57434,-3.40104 10.10774,-7.77716 15.80664,-12.61133 11.39779,-9.66833 23.45581,-21.16427 29.82812,-30.36328 3.18616,-4.599499 4.96102,-8.624092 4.49219,-11.591794 -0.23442,-1.483852 -1.04069,-2.698787 -2.5,-3.556641 -1.45931,-0.857854 -3.56662,-1.364978 -6.42188,-1.46875 z"
       id="path795-6"
       class="UnoptimicedTransforms" />
    <path
       style="color:#000000;fill:#000000;-inkscape-stroke:none"
       d="M 158.10742,94.279297 142.77148,167.96094 142.96094,168 158.29687,94.318359 Z"
       id="path1149"
       class="UnoptimicedTransforms" />
  </g>
</svg>
