<?xml version="1.0" encoding="UTF-8" standalone="no"?>
<!-- Created with Inkscape (http://www.inkscape.org/) -->

<svg
   width="210mm"
   height="297mm"
   viewBox="0 0 210 297"
   version="1.1"
   id="svg5"
   inkscape:version="1.2.1 (9c6d41e410, 2022-07-14)"
   sodipodi:docname="R_mod_Z.svg"
   xmlns:inkscape="http://www.inkscape.org/namespaces/inkscape"
   xmlns:sodipodi="http://sodipodi.sourceforge.net/DTD/sodipodi-0.dtd"
   xmlns="http://www.w3.org/2000/svg"
   xmlns:svg="http://www.w3.org/2000/svg">
  <sodipodi:namedview
     id="namedview7"
     pagecolor="#ffffff"
     bordercolor="#000000"
     borderopacity="0.25"
     inkscape:showpageshadow="2"
     inkscape:pageopacity="0.0"
     inkscape:pagecheckerboard="0"
     inkscape:deskcolor="#d1d1d1"
     inkscape:document-units="mm"
     showgrid="false"
     showguides="true"
     inkscape:zoom="2.0457938"
     inkscape:cx="461.92339"
     inkscape:cy="592.19067"
     inkscape:window-width="1888"
     inkscape:window-height="1008"
     inkscape:window-x="13"
     inkscape:window-y="53"
     inkscape:window-maximized="1"
     inkscape:current-layer="layer1" />
  <defs
     id="defs2">
    <marker
       style="overflow:visible"
       id="Arrow5"
       refX="0"
       refY="0"
       orient="auto-start-reverse"
       inkscape:stockid="Arrow5"
       markerWidth="5.8874264"
       markerHeight="6.6094756"
       viewBox="0 0 5.8874262 6.6094758"
       inkscape:isstock="true"
       inkscape:collect="always"
       preserveAspectRatio="xMidYMid">
      <path
         transform="scale(0.5)"
         style="fill:context-stroke;fill-rule:evenodd;stroke:context-stroke;stroke-width:1pt"
         d="m 6,0 c -3,1 -7,3 -9,5 0,0 0,-4 2,-5 -2,-1 -2,-5 -2,-5 2,2 6,4 9,5 z"
         id="path8893" />
    </marker>
  </defs>
  <g
     inkscape:label="Layer 1"
     inkscape:groupmode="layer"
     id="layer1">
    <path
       style="fill:none;fill-opacity:1;stroke:#d40000;stroke-width:0.321;stroke-opacity:0.74901962;stroke-dasharray:none"
       d="m 101.41872,7.7566728 c 17.77018,-0.02349 28.69275,9.7306122 28.29553,17.8624702 -0.26289,8.915375 -10.61526,17.660758 -28.29553,17.862473 -15.20481,-0.637102 -17.093922,-3.942603 -17.088456,-7.979436 -0.154788,-6.692615 3.66527,-9.339064 17.088456,-9.82254 17.71522,0.365553 28.10353,8.872967 28.29553,17.862473 -0.15639,10.884816 -13.98201,17.804246 -28.29553,17.862473"
       id="path1911"
       sodipodi:nodetypes="ccccccc" />
    <path
       style="fill:none;fill-opacity:1;stroke:#d40000;stroke-width:0.321;stroke-opacity:0.74901962;stroke-dasharray:none"
       d="m 101.28939,115.2735 c -17.770179,0.0235 -28.692751,-9.73061 -28.295524,-17.862466 0.262884,-8.91538 10.615257,-17.66076 28.295524,-17.86248 15.20481,0.63711 17.09393,3.94261 17.08846,7.97944 0.15479,6.69261 -3.66527,9.33906 -17.08846,9.82254 -17.715212,-0.36555 -28.103531,-8.87297 -28.295524,-17.86247 0.156392,-10.88482 13.98201,-17.80425 28.295524,-17.86248"
       id="path1911-7"
       sodipodi:nodetypes="ccccccc" />
    <circle
       style="fill:#000000;fill-opacity:1;stroke:none;stroke-width:0.0390436;stroke-opacity:1"
       id="path1953"
       cx="101.28939"
       cy="25.900637"
       r="1.4804782" />
    <circle
       style="fill:#000000;fill-opacity:1;stroke:none;stroke-width:0.0390436;stroke-opacity:1"
       id="path1953-9"
       cx="101.28939"
       cy="43.702618"
       r="1.4804782" />
    <circle
       style="fill:#000000;fill-opacity:1;stroke:none;stroke-width:0.0390436;stroke-opacity:1"
       id="path1953-3"
       cx="101.28939"
       cy="61.625584"
       r="1.4804782" />
    <circle
       style="fill:#000000;fill-opacity:1;stroke:none;stroke-width:0.0390436;stroke-opacity:1"
       id="path1953-6"
       cx="101.28939"
       cy="79.548553"
       r="1.4804782" />
    <circle
       style="fill:#000000;fill-opacity:1;stroke:none;stroke-width:0.0390436;stroke-opacity:1"
       id="path1953-0"
       cx="101.28939"
       cy="97.350533"
       r="1.4804782" />
    <circle
       style="fill:#000000;fill-opacity:1;stroke:none;stroke-width:0.0390436;stroke-opacity:1"
       id="path1953-62"
       cx="101.28939"
       cy="115.2735"
       r="1.4804782" />
    <circle
       style="fill:#000000;fill-opacity:1;stroke:none;stroke-width:0.0390436;stroke-opacity:1"
       id="path1953-61"
       cx="101.28939"
       cy="7.9776711"
       r="1.4804782" />
    <ellipse
       style="fill:none;fill-opacity:1;stroke:#d40000;stroke-width:0.321;stroke-opacity:0.74901962;stroke-dasharray:none"
       id="path2107"
       cx="106.89595"
       cy="189.53493"
       rx="35.604973"
       ry="13.135659" />
    <circle
       style="fill:#000000;fill-opacity:1;stroke:none;stroke-width:0.0390436;stroke-opacity:0.74902"
       id="path1953-62-8"
       cx="101.07819"
       cy="176.33948"
       r="1.4804782" />
    <path
       style="fill:#000000;fill-opacity:1;stroke:#000000;stroke-width:0.521;stroke-opacity:1;marker-end:url(#Arrow5);stroke-dasharray:none"
       d="m 102.76987,126.15786 -0.2112,38.22007"
       id="path2170" />
    <g
       inkscape:label=""
       transform="matrix(2.0778058,0,0,2.0778058,129.65583,7.9170896)"
       id="g1034">
      <g
         fill="#000000"
         fill-opacity="1"
         id="g18"
         transform="matrix(0.352778,0,0,0.352778,-32.4842,-25.4123)">
        <g
           id="use16"
           transform="translate(91.925003,78.862999)">
          <path
             d="M 2.671875,-3.125 H 3.03125 l 1.5,2.3125 C 4.625,-0.65625 4.859375,-0.265625 4.96875,-0.125 5.046875,0 5.078125,0 5.296875,0 h 1.375 c 0.1875,0 0.34375,0 0.34375,-0.171875 0,-0.09375 -0.0625,-0.15625 -0.15625,-0.171875 C 6.484375,-0.421875 6,-1.09375 5.765625,-1.40625 5.6875,-1.5 5.1875,-2.15625 4.53125,-3.234375 5.40625,-3.40625 6.265625,-3.78125 6.265625,-4.96875 6.265625,-6.34375 4.8125,-6.828125 3.625,-6.828125 H 0.5 c -0.1875,0 -0.34375,0 -0.34375,0.171875 0,0.171875 0.1875,0.171875 0.265625,0.171875 0.578125,0 0.625,0.078125 0.625,0.578125 v 4.984375 c 0,0.5 -0.046875,0.578125 -0.625,0.578125 -0.078125,0 -0.265625,0 -0.265625,0.171875 C 0.15625,0 0.3125,0 0.5,0 H 3.234375 C 3.40625,0 3.5625,0 3.5625,-0.171875 c 0,-0.171875 -0.171875,-0.171875 -0.28125,-0.171875 -0.5625,0 -0.609375,-0.078125 -0.609375,-0.578125 z m 1.921875,-0.5 c 0.28125,-0.359375 0.3125,-0.890625 0.3125,-1.328125 0,-0.484375 -0.0625,-1.015625 -0.375,-1.421875 0.40625,0.09375 1.390625,0.40625 1.390625,1.40625 0,0.65625 -0.296875,1.15625 -1.328125,1.34375 z M 2.671875,-5.9375 c 0,-0.21875 0,-0.546875 0.625,-0.546875 0.84375,0 1.265625,0.359375 1.265625,1.53125 0,1.28125 -0.3125,1.46875 -1.890625,1.46875 z M 1.3125,-0.34375 C 1.390625,-0.53125 1.390625,-0.8125 1.390625,-0.890625 V -5.9375 c 0,-0.09375 0,-0.359375 -0.078125,-0.546875 h 1.140625 c -0.125,0.171875 -0.125,0.359375 -0.125,0.515625 v 5.078125 c 0,0.09375 0,0.359375 0.078125,0.546875 z M 3.4375,-3.125 c 0.078125,-0.015625 0.109375,-0.03125 0.1875,-0.03125 0.15625,0 0.375,-0.015625 0.515625,-0.03125 0.15625,0.234375 1.234375,2.015625 2.0625,2.84375 h -0.96875 z m 0,0"
             id="path32" />
        </g>
      </g>
      <g
         fill="#000000"
         fill-opacity="1"
         id="g22"
         transform="matrix(0.352778,0,0,0.352778,-32.4842,-25.4123)">
        <g
           id="use20"
           transform="translate(96.352997,82.294998)">
          <path
             d="m 8.4375,-6.515625 c 0.109375,-0.09375 0.140625,-0.125 0.140625,-0.203125 0,-0.109375 -0.109375,-0.203125 -0.203125,-0.203125 -0.09375,0 -0.109375,0.03125 -0.203125,0.140625 L 0.125,1.53125 C 0.046875,1.609375 0,1.671875 0,1.734375 0,1.796875 0.0625,1.9375 0.203125,1.9375 c 0.09375,0 0.109375,-0.03125 0.21875,-0.140625 z m 0,0"
             id="path36" />
        </g>
      </g>
      <g
         fill="#000000"
         fill-opacity="1"
         id="g26"
         transform="matrix(0.352778,0,0,0.352778,-32.4842,-25.4123)">
        <g
           id="use24"
           transform="translate(102.995,85.726997)">
          <path
             d="m 5.9375,-6.46875 c 0.09375,-0.125 0.09375,-0.15625 0.09375,-0.1875 0,-0.171875 -0.15625,-0.171875 -0.328125,-0.171875 h -4.5625 c -0.328125,0 -0.328125,0.03125 -0.359375,0.28125 L 0.640625,-5.1875 0.625,-5.0625 c 0,0.140625 0.109375,0.1875 0.171875,0.1875 0.09375,0 0.15625,-0.0625 0.171875,-0.15625 0.03125,-0.234375 0.125,-0.671875 0.734375,-1.046875 0.5625,-0.375 1.265625,-0.40625 1.609375,-0.40625 h 0.796875 l -3.734375,6.125 c -0.09375,0.125 -0.09375,0.15625 -0.09375,0.1875 C 0.28125,0 0.4375,0 0.625,0 H 5.734375 C 6.03125,0 6.03125,-0.015625 6.078125,-0.28125 L 6.34375,-2.25 C 6.34375,-2.359375 6.25,-2.421875 6.171875,-2.421875 6.015625,-2.421875 6,-2.328125 5.96875,-2.125 5.796875,-1.3125 5.03125,-0.34375 3.609375,-0.34375 H 2.1875 Z M 1.125,-6.484375 h 0.53125 v 0.015625 c -0.265625,0.15625 -0.453125,0.328125 -0.578125,0.4375 z m 3.40625,0 H 5.546875 L 1.78125,-0.34375 H 0.765625 Z m 0.515625,6.125 c 0.28125,-0.15625 0.546875,-0.375 0.78125,-0.65625 -0.03125,0.203125 -0.046875,0.3125 -0.09375,0.671875 h -0.6875 z m 0,0"
             id="path40" />
        </g>
      </g>
    </g>
    <g
       inkscape:label=""
       transform="matrix(2.2353311,0,0,2.2353311,135.0966,169.669)"
       id="g1114">
      <g
         fill="#000000"
         fill-opacity="1"
         id="g16"
         transform="matrix(0.352778,0,0,0.352778,-32.611,-26.0078)">
        <g
           id="use14"
           transform="translate(91.925003,81.962997)">
          <path
             d="m 6.4375,-6.921875 c 0,-0.03125 -0.03125,-0.109375 -0.125,-0.109375 -0.046875,0 -0.046875,0.015625 -0.171875,0.15625 L 5.65625,-6.3125 c -0.25,-0.46875 -0.765625,-0.71875 -1.421875,-0.71875 -1.265625,0 -2.453125,1.15625 -2.453125,2.359375 0,0.796875 0.515625,1.265625 1.03125,1.40625 l 1.0625,0.28125 c 0.375,0.09375 0.921875,0.25 0.921875,1.0625 0,0.890625 -0.8125,1.828125 -1.796875,1.828125 -0.640625,0 -1.75,-0.21875 -1.75,-1.453125 0,-0.234375 0.0625,-0.484375 0.0625,-0.53125 0.015625,-0.046875 0.015625,-0.0625 0.015625,-0.078125 0,-0.09375 -0.0625,-0.109375 -0.109375,-0.109375 -0.046875,0 -0.078125,0.015625 -0.109375,0.046875 -0.03125,0.03125 -0.59375,2.3125 -0.59375,2.34375 0,0.046875 0.046875,0.09375 0.109375,0.09375 0.046875,0 0.0625,-0.015625 0.1875,-0.15625 L 1.296875,-0.5 c 0.421875,0.578125 1.109375,0.71875 1.6875,0.71875 1.359375,0 2.53125,-1.328125 2.53125,-2.5625 0,-0.6875 -0.34375,-1.03125 -0.484375,-1.171875 C 4.796875,-3.734375 4.640625,-3.78125 3.765625,-4 3.53125,-4.0625 3.1875,-4.171875 3.09375,-4.1875 2.828125,-4.28125 2.484375,-4.5625 2.484375,-5.09375 c 0,-0.8125 0.796875,-1.65625 1.75,-1.65625 0.8125,0 1.421875,0.4375 1.421875,1.546875 0,0.3125 -0.03125,0.5 -0.03125,0.5625 0,0 0,0.09375 0.109375,0.09375 0.109375,0 0.125,-0.03125 0.15625,-0.203125 z m 0,0"
             id="path26" />
        </g>
      </g>
      <g
         fill="#000000"
         fill-opacity="1"
         id="g20"
         transform="matrix(0.352778,0,0,0.352778,-32.611,-26.0078)">
        <g
           id="use18"
           transform="translate(98.609001,78.348)">
          <path
             d="m 2.328125,-4.4375 c 0,-0.1875 0,-0.1875 -0.203125,-0.1875 -0.453125,0.4375 -1.078125,0.4375 -1.359375,0.4375 v 0.25 c 0.15625,0 0.625,0 1,-0.1875 v 3.546875 c 0,0.234375 0,0.328125 -0.6875,0.328125 H 0.8125 V 0 c 0.125,0 0.984375,-0.03125 1.234375,-0.03125 0.21875,0 1.09375,0.03125 1.25,0.03125 V -0.25 H 3.03125 c -0.703125,0 -0.703125,-0.09375 -0.703125,-0.328125 z m 0,0"
             id="path30" />
        </g>
      </g>
    </g>
  </g>
</svg>
