<?xml version="1.0" encoding="UTF-8" standalone="no"?>
<!-- Created with Inkscape (http://www.inkscape.org/) -->

<svg
   width="210mm"
   height="297mm"
   viewBox="0 0 210 297"
   version="1.1"
   id="svg1"
   inkscape:version="1.3.2 (091e20ef0f, 2023-11-25)"
   sodipodi:docname="up_down_sets.svg"
   xmlns:inkscape="http://www.inkscape.org/namespaces/inkscape"
   xmlns:sodipodi="http://sodipodi.sourceforge.net/DTD/sodipodi-0.dtd"
   xmlns="http://www.w3.org/2000/svg"
   xmlns:svg="http://www.w3.org/2000/svg">
  <sodipodi:namedview
     id="namedview1"
     pagecolor="#ffffff"
     bordercolor="#000000"
     borderopacity="0.25"
     inkscape:showpageshadow="2"
     inkscape:pageopacity="0.0"
     inkscape:pagecheckerboard="0"
     inkscape:deskcolor="#d1d1d1"
     inkscape:document-units="mm"
     inkscape:zoom="1.131351"
     inkscape:cx="461.39527"
     inkscape:cy="382.72826"
     inkscape:window-width="1900"
     inkscape:window-height="1024"
     inkscape:window-x="0"
     inkscape:window-y="0"
     inkscape:window-maximized="1"
     inkscape:current-layer="layer1" />
  <defs
     id="defs1" />
  <g
     inkscape:label="Layer 1"
     inkscape:groupmode="layer"
     id="layer1">
    <rect
       style="fill:none;stroke:#000000;stroke-width:0.5;stroke-dasharray:none"
       id="rect1"
       width="134.24707"
       height="82.969254"
       x="45.536133"
       y="80.681244" />
    <path
       style="fill:none;stroke:#000000;stroke-width:0.499999;stroke-dasharray:none"
       d="m 45.536133,135.85003 c 0,0 15.060941,-20.73553 26.345107,-21.33434 11.895287,-0.63124 18.101718,18.77633 29.99611,19.42422 8.87855,0.48361 15.0714,-13.49728 23.83294,-11.98139 12.52142,2.16641 13.62164,27.38062 26.32767,27.57115 12.98818,0.19476 27.74524,-27.3638 27.74524,-27.3638"
       id="path1"
       sodipodi:nodetypes="caaaac" />
    <circle
       style="fill:#000000;fill-opacity:1;stroke:none;stroke-width:0.227367;stroke-dasharray:none"
       id="path2"
       cx="68.173134"
       cy="107.60133"
       r="1.5" />
    <circle
       style="fill:#000000;fill-opacity:1;stroke:none;stroke-width:0.227367;stroke-dasharray:none"
       id="path2-5"
       cx="68.173134"
       cy="92.610062"
       r="1.5" />
    <circle
       style="fill:#000000;fill-opacity:1;stroke:none;stroke-width:0.227367;stroke-dasharray:none"
       id="path2-2"
       cx="125.58958"
       cy="132.20416"
       r="1.5" />
    <circle
       style="fill:#000000;fill-opacity:1;stroke:none;stroke-width:0.227367;stroke-dasharray:none"
       id="path2-7"
       cx="125.58958"
       cy="157.53026"
       r="1.5" />
    <circle
       style="fill:#000000;fill-opacity:1;stroke:none;stroke-width:0.227367;stroke-dasharray:none"
       id="path2-6"
       cx="100.71875"
       cy="151.78333"
       r="1.5" />
    <circle
       style="fill:#000000;fill-opacity:1;stroke:none;stroke-width:0.227367;stroke-dasharray:none"
       id="path2-61"
       cx="100.78905"
       cy="139.34792"
       r="1.5" />
    <circle
       style="fill:#000000;fill-opacity:1;stroke:none;stroke-width:0.227367;stroke-dasharray:none"
       id="path2-20"
       cx="100.78905"
       cy="121.90054"
       r="1.5" />
    <circle
       style="fill:#000000;fill-opacity:1;stroke:none;stroke-width:0.227367;stroke-dasharray:none"
       id="path2-59"
       cx="100.78905"
       cy="103.81654"
       r="1.5" />
    <path
       style="fill:#000000;fill-opacity:1;stroke:#000000;stroke-width:0.499999;stroke-dasharray:none;stroke-opacity:1"
       d="m 100.71875,151.78332 0.0703,-12.43541"
       id="path3" />
    <path
       style="fill:#000000;fill-opacity:1;stroke:#000000;stroke-width:0.499999;stroke-dasharray:none;stroke-opacity:1"
       d="M 100.78905,139.34791 V 121.90054"
       id="path4" />
    <path
       style="fill:#000000;fill-opacity:1;stroke:#000000;stroke-width:0.499999;stroke-dasharray:none;stroke-opacity:1"
       d="m 100.78905,121.90054 v -18.084"
       id="path5" />
    <path
       style="fill:#000000;fill-opacity:1;stroke:#000000;stroke-width:0.499999;stroke-dasharray:none;stroke-opacity:1"
       d="M 68.173133,107.60133 V 92.610058"
       id="path6" />
    <path
       style="fill:#000000;fill-opacity:1;stroke:#000000;stroke-width:0.499999;stroke-dasharray:none;stroke-opacity:1"
       d="m 125.58958,132.20416 v 25.3261"
       id="path7" />
    <g
       fill="#000000"
       fill-opacity="1"
       id="g9"
       transform="matrix(0.53236581,0,0,0.53236581,71.773612,106.42387)">
      <g
         id="use8"
         transform="translate(1.993,10.295)">
        <path
           d="m -2.8291792,-1.4218819 c -0.0625,0.203125 -0.0625,0.234375 -0.21875,0.45312499 -0.265625,0.328125 -0.796875,0.84375 -1.359375,0.84375 -0.484375,0 -0.765625,-0.4375 -0.765625,-1.14062499 0,-0.65625 0.375,-2 0.609375,-2.5 0.40625,-0.84375 0.96875,-1.265625 1.421875,-1.265625 0.796875,0 0.953125,0.984375 0.953125,1.078125 0,0.015625 -0.03125,0.15625 -0.046875,0.1875 z m 0.765625,-3.0625 c -0.125,-0.3125 -0.453125,-0.78125 -1.078125,-0.78125 -1.34375,0 -2.796875,1.734375 -2.796875,3.515625 0,1.17187499 0.6875,1.87499999 1.5,1.87499999 0.65625,0 1.21875,-0.515625 1.546875,-0.90625 0.125,0.703125 0.6875,0.90625 1.046875,0.90625 0.359375,0 0.640625,-0.21875 0.85937501,-0.65625 0.1875,-0.40625 0.359375,-1.12499999 0.359375,-1.17187499 0,-0.0625 -0.046875,-0.109375 -0.125,-0.109375 -0.109375,0 -0.109375,0.0625 -0.15625,0.234375 -0.18750001,0.70312499 -0.40625001,1.45312499 -0.90625001,1.45312499 -0.34375,0 -0.359375,-0.3125 -0.359375,-0.546875 0,-0.265625 0.03125,-0.40624999 0.140625,-0.87499999 0.078125,-0.296875 0.140625,-0.5625 0.234375,-0.90625 0.4375,-1.796875 0.546875,-2.21875 0.546875,-2.296875 0,-0.15625 -0.125,-0.296875 -0.3125,-0.296875 -0.375,0 -0.46875,0.421875 -0.5,0.5625 z m 0,0"
           id="path16" />
      </g>
    </g>
    <g
       fill="#000000"
       fill-opacity="1"
       id="g10"
       transform="matrix(0.53236581,0,0,0.53236581,62.983096,85.56281)">
      <g
         id="use9"
         transform="translate(12.035368,10.295)">
        <path
           d="m 2.765625,-8 c 0,-0.046875 0.03125,-0.109375 0.03125,-0.171875 0,-0.125 -0.125,-0.125 -0.140625,-0.125 -0.015625,0 -0.4375,0.03125 -0.65625,0.0625 -0.203125,0.015625 -0.390625,0.03125 -0.59375,0.046875 -0.296875,0.03125 -0.375,0.03125 -0.375,0.25 0,0.125 0.109375,0.125 0.234375,0.125 0.609375,0 0.609375,0.109375 0.609375,0.21875 0,0.09375 -0.09375,0.4375 -0.140625,0.65625 l -0.28125,1.140625 c -0.125,0.484375 -0.8125,3.1875 -0.859375,3.40625 -0.0625,0.296875 -0.0625,0.5 -0.0625,0.65625 0,1.21875 0.6875,1.859375 1.46875,1.859375 1.375,0 2.8125,-1.78125 2.8125,-3.515625 0,-1.109375 -0.609375,-1.875 -1.515625,-1.875 -0.625,0 -1.1875,0.515625 -1.40625,0.75 z m -0.75,7.875 c -0.390625,0 -0.8125,-0.28125 -0.8125,-1.21875 0,-0.390625 0.046875,-0.609375 0.25,-1.453125 C 1.5,-2.953125 1.6875,-3.71875 1.734375,-3.875 1.75,-3.96875 2.46875,-5.03125 3.28125,-5.03125 c 0.515625,0 0.765625,0.53125 0.765625,1.140625 0,0.578125 -0.34375,1.9375 -0.640625,2.546875 C 3.109375,-0.6875 2.5625,-0.125 2.015625,-0.125 Z m 0,0"
           id="path17" />
      </g>
    </g>
    <g
       fill="#000000"
       fill-opacity="1"
       id="g11"
       transform="matrix(0.53236581,0,0,0.53236581,115.77691,154.9179)">
      <g
         id="use10"
         transform="translate(20.921667,10.295)">
        <path
           d="m 5.671875,-4.875 c -0.390625,0.0625 -0.53125,0.359375 -0.53125,0.578125 0,0.296875 0.21875,0.390625 0.390625,0.390625 0.359375,0 0.609375,-0.3125 0.609375,-0.640625 0,-0.5 -0.578125,-0.71875 -1.078125,-0.71875 -0.71875,0 -1.125,0.71875 -1.234375,0.9375 -0.28125,-0.890625 -1.015625,-0.9375 -1.234375,-0.9375 -1.21875,0 -1.859375,1.5625 -1.859375,1.828125 0,0.046875 0.046875,0.109375 0.125,0.109375 0.09375,0 0.125,-0.078125 0.140625,-0.125 0.40625,-1.328125 1.21875,-1.578125 1.5625,-1.578125 0.53125,0 0.640625,0.5 0.640625,0.78125 0,0.265625 -0.078125,0.546875 -0.21875,1.125 L 2.578125,-1.5 c -0.171875,0.71875 -0.515625,1.375 -1.15625,1.375 -0.0625,0 -0.359375,0 -0.609375,-0.15625 C 1.25,-0.359375 1.34375,-0.71875 1.34375,-0.859375 1.34375,-1.09375 1.15625,-1.25 0.9375,-1.25 c -0.296875,0 -0.609375,0.265625 -0.609375,0.640625 0,0.5 0.5625,0.734375 1.078125,0.734375 0.578125,0 0.984375,-0.453125 1.234375,-0.953125 C 2.828125,-0.125 3.4375,0.125 3.875,0.125 5.09375,0.125 5.734375,-1.453125 5.734375,-1.703125 5.734375,-1.765625 5.6875,-1.8125 5.625,-1.8125 5.515625,-1.8125 5.5,-1.75 5.46875,-1.65625 5.140625,-0.609375 4.453125,-0.125 3.90625,-0.125 3.484375,-0.125 3.265625,-0.4375 3.265625,-0.921875 3.265625,-1.1875 3.3125,-1.375 3.5,-2.15625 L 3.921875,-3.796875 C 4.09375,-4.5 4.5,-5.03125 5.0625,-5.03125 c 0.015625,0 0.359375,0 0.609375,0.15625 z m 0,0"
           id="path18" />
      </g>
    </g>
    <g
       fill="#000000"
       fill-opacity="1"
       id="g12"
       transform="matrix(0.53236581,0,0,0.53236581,110.16084,123.92581)">
      <g
         id="use11"
         transform="translate(31.470938,10.295)">
        <path
           d="m 3.140625,1.34375 c -0.3125,0.453125 -0.78125,0.859375 -1.375,0.859375 C 1.625,2.203125 1.046875,2.171875 0.875,1.625 c 0.03125,0.015625 0.09375,0.015625 0.109375,0.015625 0.359375,0 0.609375,-0.3125 0.609375,-0.59375 C 1.59375,0.78125 1.359375,0.6875 1.1875,0.6875 c -0.203125,0 -0.609375,0.140625 -0.609375,0.71875 0,0.609375 0.515625,1.03125 1.1875,1.03125 C 2.96875,2.4375 4.171875,1.34375 4.5,0.015625 L 5.671875,-4.65625 C 5.6875,-4.703125 5.71875,-4.78125 5.71875,-4.859375 5.71875,-5.03125 5.5625,-5.15625 5.390625,-5.15625 5.28125,-5.15625 5.03125,-5.109375 4.9375,-4.75 L 4.046875,-1.234375 C 4,-1.015625 4,-0.984375 3.890625,-0.859375 3.65625,-0.53125 3.265625,-0.125 2.6875,-0.125 c -0.671875,0 -0.734375,-0.65625 -0.734375,-0.96875 0,-0.6875 0.328125,-1.609375 0.65625,-2.46875 0.125,-0.34375 0.203125,-0.515625 0.203125,-0.75 0,-0.5 -0.359375,-0.953125 -0.953125,-0.953125 -1.09375,0 -1.53125,1.734375 -1.53125,1.828125 0,0.046875 0.046875,0.109375 0.125,0.109375 0.109375,0 0.125,-0.046875 0.171875,-0.21875 0.28125,-1 0.734375,-1.484375 1.203125,-1.484375 0.109375,0 0.3125,0 0.3125,0.390625 0,0.3125 -0.125,0.65625 -0.3125,1.109375 C 1.25,-1.953125 1.25,-1.5625 1.25,-1.28125 1.25,-0.140625 2.0625,0.125 2.65625,0.125 3,0.125 3.4375,0.015625 3.84375,-0.4375 l 0.015625,0.015625 C 3.6875,0.28125 3.5625,0.75 3.140625,1.34375 Z m 0,0"
           id="path19" />
      </g>
    </g>
    <g
       fill="#000000"
       fill-opacity="1"
       id="g13"
       transform="matrix(0.53236581,0,0,0.53236581,80.01792,102.63908)">
      <g
         id="use12"
         transform="translate(41.50613,10.295)">
        <path
           d="M 4.078125,-0.6875 C 4.234375,-0.03125 4.8125,0.125 5.09375,0.125 c 0.375,0 0.671875,-0.25 0.859375,-0.65625 0.203125,-0.4375 0.359375,-1.140625 0.359375,-1.171875 0,-0.0625 -0.046875,-0.109375 -0.125,-0.109375 -0.109375,0 -0.109375,0.0625 -0.15625,0.234375 C 5.8125,-0.75 5.59375,-0.125 5.109375,-0.125 4.75,-0.125 4.75,-0.515625 4.75,-0.671875 4.75,-0.9375 4.796875,-1.0625 4.90625,-1.5625 5,-1.890625 5.078125,-2.21875 5.15625,-2.546875 L 5.640625,-4.5 C 5.71875,-4.796875 5.71875,-4.8125 5.71875,-4.859375 c 0,-0.171875 -0.140625,-0.296875 -0.3125,-0.296875 -0.34375,0 -0.4375,0.296875 -0.5,0.609375 -0.125,0.453125 -0.765625,3.03125 -0.859375,3.453125 0,0 -0.46875,0.96875 -1.34375,0.96875 -0.625,0 -0.75,-0.53125 -0.75,-0.96875 0,-0.6875 0.34375,-1.640625 0.65625,-2.4375 C 2.75,-3.921875 2.8125,-4.078125 2.8125,-4.3125 c 0,-0.515625 -0.375,-0.953125 -0.953125,-0.953125 -1.09375,0 -1.53125,1.734375 -1.53125,1.828125 0,0.046875 0.046875,0.109375 0.125,0.109375 0.109375,0 0.125,-0.046875 0.171875,-0.21875 0.28125,-1.03125 0.75,-1.484375 1.203125,-1.484375 0.125,0 0.3125,0.015625 0.3125,0.390625 0,0.3125 -0.125,0.65625 -0.3125,1.109375 C 1.296875,-2.109375 1.25,-1.65625 1.25,-1.296875 1.25,-0.078125 2.15625,0.125 2.65625,0.125 c 0.765625,0 1.1875,-0.53125 1.421875,-0.8125 z m 0,0"
           id="path20" />
      </g>
    </g>
    <g
       fill="#000000"
       fill-opacity="1"
       id="g14"
       transform="matrix(0.53236581,0,0,0.53236581,74.389757,119.28818)">
      <g
         id="use13"
         transform="translate(52.078114,10.295)">
        <path
           d="m 5.46875,-4.46875 c 0,-0.75 -0.390625,-0.796875 -0.484375,-0.796875 -0.28125,0 -0.546875,0.28125 -0.546875,0.515625 0,0.140625 0.078125,0.234375 0.125,0.28125 C 4.6875,-4.359375 5,-4.046875 5,-3.421875 c 0,0.5 -0.71875,3.296875 -2.15625,3.296875 -0.734375,0 -0.875,-0.609375 -0.875,-1.046875 0,-0.59375 0.28125,-1.4375 0.59375,-2.296875 0.203125,-0.484375 0.25,-0.609375 0.25,-0.84375 0,-0.5 -0.359375,-0.953125 -0.953125,-0.953125 -1.09375,0 -1.53125,1.734375 -1.53125,1.828125 0,0.046875 0.046875,0.109375 0.125,0.109375 0.109375,0 0.125,-0.046875 0.171875,-0.21875 0.28125,-1.03125 0.75,-1.484375 1.203125,-1.484375 0.109375,0 0.3125,0 0.3125,0.390625 0,0.3125 -0.125,0.65625 -0.3125,1.109375 C 1.25,-2 1.25,-1.625 1.25,-1.34375 c 0,0.265625 0.046875,0.765625 0.40625,1.09375 0.4375,0.375 1.03125,0.375 1.140625,0.375 1.984375,0 2.671875,-3.921875 2.671875,-4.59375 z m 0,0"
           id="path21" />
      </g>
    </g>
    <g
       fill="#000000"
       fill-opacity="1"
       id="g15"
       transform="matrix(0.53236581,0,0,0.53236581,69.072819,136.73556)">
      <g
         id="use14"
         transform="translate(62.065491,10.295)">
        <path
           d="M 4.109375,-0.734375 C 4.375,-0.015625 5.109375,0.125 5.5625,0.125 6.484375,0.125 7.015625,-0.671875 7.34375,-1.5 7.625,-2.1875 8.0625,-3.765625 8.0625,-4.46875 c 0,-0.734375 -0.359375,-0.796875 -0.46875,-0.796875 -0.296875,0 -0.546875,0.28125 -0.546875,0.515625 0,0.140625 0.078125,0.234375 0.140625,0.28125 0.109375,0.109375 0.421875,0.421875 0.421875,1.046875 0,0.40625 -0.34375,1.53125 -0.59375,2.09375 C 6.6875,-0.59375 6.234375,-0.125 5.625,-0.125 c -0.671875,0 -0.890625,-0.5 -0.890625,-1.046875 0,-0.34375 0.109375,-0.765625 0.15625,-0.96875 l 0.5,-2 c 0.0625,-0.25 0.171875,-0.671875 0.171875,-0.71875 0,-0.171875 -0.140625,-0.296875 -0.328125,-0.296875 -0.34375,0 -0.421875,0.296875 -0.5,0.59375 -0.125,0.46875 -0.625,2.484375 -0.671875,2.75 -0.046875,0.203125 -0.046875,0.328125 -0.046875,0.59375 0,0.28125 -0.375,0.734375 -0.390625,0.765625 -0.140625,0.125 -0.328125,0.328125 -0.703125,0.328125 -0.9375,0 -0.9375,-0.890625 -0.9375,-1.09375 0,-0.390625 0.078125,-0.90625 0.625,-2.328125 C 2.75,-3.921875 2.8125,-4.078125 2.8125,-4.3125 c 0,-0.5 -0.359375,-0.953125 -0.953125,-0.953125 -1.09375,0 -1.53125,1.734375 -1.53125,1.828125 0,0.046875 0.046875,0.109375 0.125,0.109375 0.109375,0 0.125,-0.046875 0.171875,-0.21875 0.296875,-1.0625 0.765625,-1.484375 1.203125,-1.484375 0.125,0 0.3125,0.015625 0.3125,0.390625 0,0.0625 0,0.3125 -0.203125,0.84375 C 1.375,-2.3125 1.25,-1.8125 1.25,-1.359375 c 0,1.25 1.03125,1.484375 1.640625,1.484375 0.203125,0 0.75,0 1.21875,-0.859375 z m 0,0"
           id="path22" />
      </g>
    </g>
    <g
       fill="#000000"
       fill-opacity="1"
       id="g16"
       transform="matrix(0.53236581,0,0,0.53236581,62.201479,150.60586)">
      <g
         id="use15"
         transform="translate(74.653122,10.295)">
        <path
           d="m 1.515625,-0.96875 c 0.515625,-0.578125 0.9375,-0.953125 1.53125,-1.5 C 3.765625,-3.078125 4.078125,-3.375 4.25,-3.5625 5.078125,-4.390625 5.5,-5.078125 5.5,-5.171875 c 0,-0.09375 -0.09375,-0.09375 -0.125,-0.09375 -0.078125,0 -0.109375,0.046875 -0.15625,0.125 C 4.90625,-4.625 4.625,-4.375 4.3125,-4.375 c -0.25,0 -0.375,-0.109375 -0.609375,-0.390625 -0.25,-0.296875 -0.453125,-0.5 -0.796875,-0.5 -0.875,0 -1.40625,1.078125 -1.40625,1.328125 0,0.046875 0.015625,0.109375 0.125,0.109375 0.09375,0 0.109375,-0.046875 0.140625,-0.125 0.203125,-0.484375 0.78125,-0.5625 1,-0.5625 0.265625,0 0.5,0.078125 0.75,0.1875 0.453125,0.1875 0.640625,0.1875 0.765625,0.1875 0.078125,0 0.125,0 0.1875,0 C 4.078125,-3.6875 3.4375,-3.109375 2.890625,-2.625 L 1.6875,-1.5 c -0.734375,0.734375 -1.171875,1.4375 -1.171875,1.53125 0,0.0625 0.0625,0.09375 0.125,0.09375 0.078125,0 0.09375,-0.015625 0.171875,-0.15625 0.1875,-0.296875 0.578125,-0.75 1.015625,-0.75 0.25,0 0.375,0.09375 0.609375,0.390625 C 2.671875,-0.125 2.875,0.125 3.25,0.125 c 1.171875,0 1.84375,-1.53125 1.84375,-1.796875 0,-0.046875 -0.015625,-0.125 -0.140625,-0.125 -0.09375,0 -0.09375,0.046875 -0.140625,0.171875 -0.265625,0.703125 -0.96875,0.984375 -1.4375,0.984375 -0.25,0 -0.484375,-0.078125 -0.734375,-0.1875 -0.484375,-0.1875 -0.609375,-0.1875 -0.765625,-0.1875 -0.125,0 -0.25,0 -0.359375,0.046875 z m 0,0"
           id="path23" />
      </g>
    </g>
    <g
       id="g76"
       transform="translate(-62.947581,-9.1961262)">
      <g
         fill="#000000"
         fill-opacity="1"
         id="g47"
         transform="matrix(0.352778,0,0,0.352778,116.82075,106.84406)">
        <g
           id="g46"
           transform="translate(1.993,10.295)">
          <path
             d="M 3.59375,-1.421875 C 3.53125,-1.21875 3.53125,-1.1875 3.375,-0.96875 3.109375,-0.640625 2.578125,-0.125 2.015625,-0.125 1.53125,-0.125 1.25,-0.5625 1.25,-1.265625 c 0,-0.65625 0.375,-2 0.609375,-2.5 0.40625,-0.84375 0.96875,-1.265625 1.421875,-1.265625 0.796875,0 0.953125,0.984375 0.953125,1.078125 0,0.015625 -0.03125,0.15625 -0.046875,0.1875 z m 0.765625,-3.0625 c -0.125,-0.3125 -0.453125,-0.78125 -1.078125,-0.78125 -1.34375,0 -2.796875,1.734375 -2.796875,3.515625 0,1.171875 0.6875,1.875 1.5,1.875 0.65625,0 1.21875,-0.515625 1.546875,-0.90625 0.125,0.703125 0.6875,0.90625 1.046875,0.90625 0.359375,0 0.640625,-0.21875 0.859375,-0.65625 0.1875,-0.40625 0.359375,-1.125 0.359375,-1.171875 0,-0.0625 -0.046875,-0.109375 -0.125,-0.109375 C 5.5625,-1.8125 5.5625,-1.75 5.515625,-1.578125 5.328125,-0.875 5.109375,-0.125 4.609375,-0.125 4.265625,-0.125 4.25,-0.4375 4.25,-0.671875 c 0,-0.265625 0.03125,-0.40625 0.140625,-0.875 C 4.46875,-1.84375 4.53125,-2.109375 4.625,-2.453125 5.0625,-4.25 5.171875,-4.671875 5.171875,-4.75 c 0,-0.15625 -0.125,-0.296875 -0.3125,-0.296875 -0.375,0 -0.46875,0.421875 -0.5,0.5625 z m 0,0"
             id="path45" />
        </g>
      </g>
      <g
         fill="#000000"
         fill-opacity="1"
         id="g49"
         transform="matrix(0.352778,0,0,0.352778,116.82075,106.84406)">
        <g
           id="g48"
           transform="translate(11.458,10.295)">
          <path
             d="m 8.0625,-7.09375 c 0.140625,-0.0625 0.234375,-0.125 0.234375,-0.265625 0,-0.140625 -0.09375,-0.25 -0.234375,-0.25 -0.0625,0 -0.171875,0.0625 -0.21875,0.078125 l -6.609375,3.125 c -0.203125,0.09375 -0.25,0.171875 -0.25,0.265625 0,0.109375 0.078125,0.203125 0.25,0.265625 L 7.84375,-0.765625 C 8,-0.6875 8.015625,-0.6875 8.0625,-0.6875 c 0.125,0 0.234375,-0.09375 0.234375,-0.234375 0,-0.109375 -0.046875,-0.171875 -0.25,-0.265625 l -6.25,-2.953125 z M 7.875,1.640625 c 0.203125,0 0.421875,0 0.421875,-0.234375 0,-0.25 -0.25,-0.25 -0.4375,-0.25 h -6.4375 c -0.171875,0 -0.4375,0 -0.4375,0.25 0,0.234375 0.21875,0.234375 0.421875,0.234375 z m 0,0"
             id="path47" />
        </g>
      </g>
      <g
         fill="#000000"
         fill-opacity="1"
         id="g51"
         transform="matrix(0.352778,0,0,0.352778,116.82075,106.84406)">
        <g
           id="g50"
           transform="translate(24.077999,10.295)">
          <path
             d="m 2.765625,-8 c 0,-0.046875 0.03125,-0.109375 0.03125,-0.171875 0,-0.125 -0.125,-0.125 -0.140625,-0.125 -0.015625,0 -0.4375,0.03125 -0.65625,0.0625 -0.203125,0.015625 -0.390625,0.03125 -0.59375,0.046875 -0.296875,0.03125 -0.375,0.03125 -0.375,0.25 0,0.125 0.109375,0.125 0.234375,0.125 0.609375,0 0.609375,0.109375 0.609375,0.21875 0,0.09375 -0.09375,0.4375 -0.140625,0.65625 l -0.28125,1.140625 c -0.125,0.484375 -0.8125,3.1875 -0.859375,3.40625 -0.0625,0.296875 -0.0625,0.5 -0.0625,0.65625 0,1.21875 0.6875,1.859375 1.46875,1.859375 1.375,0 2.8125,-1.78125 2.8125,-3.515625 0,-1.109375 -0.609375,-1.875 -1.515625,-1.875 -0.625,0 -1.1875,0.515625 -1.40625,0.75 z m -0.75,7.875 c -0.390625,0 -0.8125,-0.28125 -0.8125,-1.21875 0,-0.390625 0.046875,-0.609375 0.25,-1.453125 C 1.5,-2.953125 1.6875,-3.71875 1.734375,-3.875 1.75,-3.96875 2.46875,-5.03125 3.28125,-5.03125 c 0.515625,0 0.765625,0.53125 0.765625,1.140625 0,0.578125 -0.34375,1.9375 -0.640625,2.546875 C 3.109375,-0.6875 2.5625,-0.125 2.015625,-0.125 Z m 0,0"
             id="path49" />
        </g>
      </g>
    </g>
    <g
       id="g77"
       transform="translate(1.2058661,34.586115)">
      <g
         fill="#000000"
         fill-opacity="1"
         id="g53"
         transform="matrix(0.352778,0,0,0.352778,116.82075,106.84406)">
        <g
           id="g52"
           transform="translate(32.952347,10.295)">
          <path
             d="m 3.140625,1.34375 c -0.3125,0.453125 -0.78125,0.859375 -1.375,0.859375 C 1.625,2.203125 1.046875,2.171875 0.875,1.625 c 0.03125,0.015625 0.09375,0.015625 0.109375,0.015625 0.359375,0 0.609375,-0.3125 0.609375,-0.59375 C 1.59375,0.78125 1.359375,0.6875 1.1875,0.6875 c -0.203125,0 -0.609375,0.140625 -0.609375,0.71875 0,0.609375 0.515625,1.03125 1.1875,1.03125 C 2.96875,2.4375 4.171875,1.34375 4.5,0.015625 L 5.671875,-4.65625 C 5.6875,-4.703125 5.71875,-4.78125 5.71875,-4.859375 5.71875,-5.03125 5.5625,-5.15625 5.390625,-5.15625 5.28125,-5.15625 5.03125,-5.109375 4.9375,-4.75 L 4.046875,-1.234375 C 4,-1.015625 4,-0.984375 3.890625,-0.859375 3.65625,-0.53125 3.265625,-0.125 2.6875,-0.125 c -0.671875,0 -0.734375,-0.65625 -0.734375,-0.96875 0,-0.6875 0.328125,-1.609375 0.65625,-2.46875 0.125,-0.34375 0.203125,-0.515625 0.203125,-0.75 0,-0.5 -0.359375,-0.953125 -0.953125,-0.953125 -1.09375,0 -1.53125,1.734375 -1.53125,1.828125 0,0.046875 0.046875,0.109375 0.125,0.109375 0.109375,0 0.125,-0.046875 0.171875,-0.21875 0.28125,-1 0.734375,-1.484375 1.203125,-1.484375 0.109375,0 0.3125,0 0.3125,0.390625 0,0.3125 -0.125,0.65625 -0.3125,1.109375 C 1.25,-1.953125 1.25,-1.5625 1.25,-1.28125 1.25,-0.140625 2.0625,0.125 2.65625,0.125 3,0.125 3.4375,0.015625 3.84375,-0.4375 l 0.015625,0.015625 C 3.6875,0.28125 3.5625,0.75 3.140625,1.34375 Z m 0,0"
             id="path51" />
        </g>
      </g>
      <g
         fill="#000000"
         fill-opacity="1"
         id="g55"
         transform="matrix(0.352778,0,0,0.352778,116.82075,106.84406)">
        <g
           id="g54"
           transform="translate(42.414001,10.295)">
          <path
             d="m 8.0625,-7.09375 c 0.140625,-0.0625 0.234375,-0.125 0.234375,-0.265625 0,-0.140625 -0.09375,-0.25 -0.234375,-0.25 -0.0625,0 -0.171875,0.0625 -0.21875,0.078125 l -6.609375,3.125 c -0.203125,0.09375 -0.25,0.171875 -0.25,0.265625 0,0.109375 0.078125,0.203125 0.25,0.265625 L 7.84375,-0.765625 C 8,-0.6875 8.015625,-0.6875 8.0625,-0.6875 c 0.125,0 0.234375,-0.09375 0.234375,-0.234375 0,-0.109375 -0.046875,-0.171875 -0.25,-0.265625 l -6.25,-2.953125 z M 7.875,1.640625 c 0.203125,0 0.421875,0 0.421875,-0.234375 0,-0.25 -0.25,-0.25 -0.4375,-0.25 h -6.4375 c -0.171875,0 -0.4375,0 -0.4375,0.25 0,0.234375 0.21875,0.234375 0.421875,0.234375 z m 0,0"
             id="path53" />
        </g>
      </g>
      <g
         fill="#000000"
         fill-opacity="1"
         id="g57"
         transform="matrix(0.352778,0,0,0.352778,116.82075,106.84406)">
        <g
           id="g56"
           transform="translate(55.033001,10.295)">
          <path
             d="m 5.671875,-4.875 c -0.390625,0.0625 -0.53125,0.359375 -0.53125,0.578125 0,0.296875 0.21875,0.390625 0.390625,0.390625 0.359375,0 0.609375,-0.3125 0.609375,-0.640625 0,-0.5 -0.578125,-0.71875 -1.078125,-0.71875 -0.71875,0 -1.125,0.71875 -1.234375,0.9375 -0.28125,-0.890625 -1.015625,-0.9375 -1.234375,-0.9375 -1.21875,0 -1.859375,1.5625 -1.859375,1.828125 0,0.046875 0.046875,0.109375 0.125,0.109375 0.09375,0 0.125,-0.078125 0.140625,-0.125 0.40625,-1.328125 1.21875,-1.578125 1.5625,-1.578125 0.53125,0 0.640625,0.5 0.640625,0.78125 0,0.265625 -0.078125,0.546875 -0.21875,1.125 L 2.578125,-1.5 c -0.171875,0.71875 -0.515625,1.375 -1.15625,1.375 -0.0625,0 -0.359375,0 -0.609375,-0.15625 C 1.25,-0.359375 1.34375,-0.71875 1.34375,-0.859375 1.34375,-1.09375 1.15625,-1.25 0.9375,-1.25 c -0.296875,0 -0.609375,0.265625 -0.609375,0.640625 0,0.5 0.5625,0.734375 1.078125,0.734375 0.578125,0 0.984375,-0.453125 1.234375,-0.953125 C 2.828125,-0.125 3.4375,0.125 3.875,0.125 5.09375,0.125 5.734375,-1.453125 5.734375,-1.703125 5.734375,-1.765625 5.6875,-1.8125 5.625,-1.8125 5.515625,-1.8125 5.5,-1.75 5.46875,-1.65625 5.140625,-0.609375 4.453125,-0.125 3.90625,-0.125 3.484375,-0.125 3.265625,-0.4375 3.265625,-0.921875 3.265625,-1.1875 3.3125,-1.375 3.5,-2.15625 L 3.921875,-3.796875 C 4.09375,-4.5 4.5,-5.03125 5.0625,-5.03125 c 0.015625,0 0.359375,0 0.609375,0.15625 z m 0,0"
             id="path55" />
        </g>
      </g>
    </g>
    <g
       id="g78"
       transform="translate(-36.402539,3.4354523)">
      <g
         fill="#000000"
         fill-opacity="1"
         id="g59"
         transform="matrix(0.352778,0,0,0.352778,116.82075,106.84406)">
        <g
           id="g58"
           transform="translate(65.582268,10.295)">
          <path
             d="m 5.46875,-4.46875 c 0,-0.75 -0.390625,-0.796875 -0.484375,-0.796875 -0.28125,0 -0.546875,0.28125 -0.546875,0.515625 0,0.140625 0.078125,0.234375 0.125,0.28125 C 4.6875,-4.359375 5,-4.046875 5,-3.421875 c 0,0.5 -0.71875,3.296875 -2.15625,3.296875 -0.734375,0 -0.875,-0.609375 -0.875,-1.046875 0,-0.59375 0.28125,-1.4375 0.59375,-2.296875 0.203125,-0.484375 0.25,-0.609375 0.25,-0.84375 0,-0.5 -0.359375,-0.953125 -0.953125,-0.953125 -1.09375,0 -1.53125,1.734375 -1.53125,1.828125 0,0.046875 0.046875,0.109375 0.125,0.109375 0.109375,0 0.125,-0.046875 0.171875,-0.21875 0.28125,-1.03125 0.75,-1.484375 1.203125,-1.484375 0.109375,0 0.3125,0 0.3125,0.390625 0,0.3125 -0.125,0.65625 -0.3125,1.109375 C 1.25,-2 1.25,-1.625 1.25,-1.34375 c 0,0.265625 0.046875,0.765625 0.40625,1.09375 0.4375,0.375 1.03125,0.375 1.140625,0.375 1.984375,0 2.671875,-3.921875 2.671875,-4.59375 z m 0,0"
             id="path57" />
        </g>
      </g>
      <g
         fill="#000000"
         fill-opacity="1"
         id="g61"
         transform="matrix(0.352778,0,0,0.352778,116.82075,106.84406)">
        <g
           id="g60"
           transform="translate(74.997002,10.295)">
          <path
             d="m 8.0625,-7.09375 c 0.140625,-0.0625 0.234375,-0.125 0.234375,-0.265625 0,-0.140625 -0.09375,-0.25 -0.234375,-0.25 -0.0625,0 -0.171875,0.0625 -0.21875,0.078125 l -6.609375,3.125 c -0.203125,0.09375 -0.25,0.171875 -0.25,0.265625 0,0.109375 0.078125,0.203125 0.25,0.265625 L 7.84375,-0.765625 C 8,-0.6875 8.015625,-0.6875 8.0625,-0.6875 c 0.125,0 0.234375,-0.09375 0.234375,-0.234375 0,-0.109375 -0.046875,-0.171875 -0.25,-0.265625 l -6.25,-2.953125 z M 7.875,1.640625 c 0.203125,0 0.421875,0 0.421875,-0.234375 0,-0.25 -0.25,-0.25 -0.4375,-0.25 h -6.4375 c -0.171875,0 -0.4375,0 -0.4375,0.25 0,0.234375 0.21875,0.234375 0.421875,0.234375 z m 0,0"
             id="path59" />
        </g>
      </g>
      <g
         fill="#000000"
         fill-opacity="1"
         id="g63"
         transform="matrix(0.352778,0,0,0.352778,116.82075,106.84406)">
        <g
           id="g62"
           transform="translate(87.615997,10.295)">
          <path
             d="M 4.078125,-0.6875 C 4.234375,-0.03125 4.8125,0.125 5.09375,0.125 c 0.375,0 0.671875,-0.25 0.859375,-0.65625 0.203125,-0.4375 0.359375,-1.140625 0.359375,-1.171875 0,-0.0625 -0.046875,-0.109375 -0.125,-0.109375 -0.109375,0 -0.109375,0.0625 -0.15625,0.234375 C 5.8125,-0.75 5.59375,-0.125 5.109375,-0.125 4.75,-0.125 4.75,-0.515625 4.75,-0.671875 4.75,-0.9375 4.796875,-1.0625 4.90625,-1.5625 5,-1.890625 5.078125,-2.21875 5.15625,-2.546875 L 5.640625,-4.5 C 5.71875,-4.796875 5.71875,-4.8125 5.71875,-4.859375 c 0,-0.171875 -0.140625,-0.296875 -0.3125,-0.296875 -0.34375,0 -0.4375,0.296875 -0.5,0.609375 -0.125,0.453125 -0.765625,3.03125 -0.859375,3.453125 0,0 -0.46875,0.96875 -1.34375,0.96875 -0.625,0 -0.75,-0.53125 -0.75,-0.96875 0,-0.6875 0.34375,-1.640625 0.65625,-2.4375 C 2.75,-3.921875 2.8125,-4.078125 2.8125,-4.3125 c 0,-0.515625 -0.375,-0.953125 -0.953125,-0.953125 -1.09375,0 -1.53125,1.734375 -1.53125,1.828125 0,0.046875 0.046875,0.109375 0.125,0.109375 0.109375,0 0.125,-0.046875 0.171875,-0.21875 0.28125,-1.03125 0.75,-1.484375 1.203125,-1.484375 0.125,0 0.3125,0.015625 0.3125,0.390625 0,0.3125 -0.125,0.65625 -0.3125,1.109375 C 1.296875,-2.109375 1.25,-1.65625 1.25,-1.296875 1.25,-0.078125 2.15625,0.125 2.65625,0.125 c 0.765625,0 1.1875,-0.53125 1.421875,-0.8125 z m 0,0"
             id="path61" />
        </g>
      </g>
    </g>
    <g
       id="g79"
       transform="translate(-63.946531,26.79323)">
      <g
         fill="#000000"
         fill-opacity="1"
         id="g65"
         transform="matrix(0.352778,0,0,0.352778,116.82075,106.84406)">
        <g
           id="g64"
           transform="translate(98.176025,10.295)">
          <path
             d="M 4.109375,-0.734375 C 4.375,-0.015625 5.109375,0.125 5.5625,0.125 6.484375,0.125 7.015625,-0.671875 7.34375,-1.5 7.625,-2.1875 8.0625,-3.765625 8.0625,-4.46875 c 0,-0.734375 -0.359375,-0.796875 -0.46875,-0.796875 -0.296875,0 -0.546875,0.28125 -0.546875,0.515625 0,0.140625 0.078125,0.234375 0.140625,0.28125 0.109375,0.109375 0.421875,0.421875 0.421875,1.046875 0,0.40625 -0.34375,1.53125 -0.59375,2.09375 C 6.6875,-0.59375 6.234375,-0.125 5.625,-0.125 c -0.671875,0 -0.890625,-0.5 -0.890625,-1.046875 0,-0.34375 0.109375,-0.765625 0.15625,-0.96875 l 0.5,-2 c 0.0625,-0.25 0.171875,-0.671875 0.171875,-0.71875 0,-0.171875 -0.140625,-0.296875 -0.328125,-0.296875 -0.34375,0 -0.421875,0.296875 -0.5,0.59375 -0.125,0.46875 -0.625,2.484375 -0.671875,2.75 -0.046875,0.203125 -0.046875,0.328125 -0.046875,0.59375 0,0.28125 -0.375,0.734375 -0.390625,0.765625 -0.140625,0.125 -0.328125,0.328125 -0.703125,0.328125 -0.9375,0 -0.9375,-0.890625 -0.9375,-1.09375 0,-0.390625 0.078125,-0.90625 0.625,-2.328125 C 2.75,-3.921875 2.8125,-4.078125 2.8125,-4.3125 c 0,-0.5 -0.359375,-0.953125 -0.953125,-0.953125 -1.09375,0 -1.53125,1.734375 -1.53125,1.828125 0,0.046875 0.046875,0.109375 0.125,0.109375 0.109375,0 0.125,-0.046875 0.171875,-0.21875 0.296875,-1.0625 0.765625,-1.484375 1.203125,-1.484375 0.125,0 0.3125,0.015625 0.3125,0.390625 0,0.0625 0,0.3125 -0.203125,0.84375 C 1.375,-2.3125 1.25,-1.8125 1.25,-1.359375 c 0,1.25 1.03125,1.484375 1.640625,1.484375 0.203125,0 0.75,0 1.21875,-0.859375 z m 0,0"
             id="path63" />
        </g>
      </g>
      <g
         fill="#000000"
         fill-opacity="1"
         id="g67"
         transform="matrix(0.352778,0,0,0.352778,116.82075,106.84406)">
        <g
           id="g66"
           transform="translate(110.191,10.295)">
          <path
             d="m 8.0625,-7.09375 c 0.140625,-0.0625 0.234375,-0.125 0.234375,-0.265625 0,-0.140625 -0.09375,-0.25 -0.234375,-0.25 -0.0625,0 -0.171875,0.0625 -0.21875,0.078125 l -6.609375,3.125 c -0.203125,0.09375 -0.25,0.171875 -0.25,0.265625 0,0.109375 0.078125,0.203125 0.25,0.265625 L 7.84375,-0.765625 C 8,-0.6875 8.015625,-0.6875 8.0625,-0.6875 c 0.125,0 0.234375,-0.09375 0.234375,-0.234375 0,-0.109375 -0.046875,-0.171875 -0.25,-0.265625 l -6.25,-2.953125 z M 7.875,1.640625 c 0.203125,0 0.421875,0 0.421875,-0.234375 0,-0.25 -0.25,-0.25 -0.4375,-0.25 h -6.4375 c -0.171875,0 -0.4375,0 -0.4375,0.25 0,0.234375 0.21875,0.234375 0.421875,0.234375 z m 0,0"
             id="path65" />
        </g>
      </g>
      <g
         fill="#000000"
         fill-opacity="1"
         id="g69"
         transform="matrix(0.352778,0,0,0.352778,116.82075,106.84406)">
        <g
           id="g68"
           transform="translate(122.81,10.295)">
          <path
             d="m 5.46875,-4.46875 c 0,-0.75 -0.390625,-0.796875 -0.484375,-0.796875 -0.28125,0 -0.546875,0.28125 -0.546875,0.515625 0,0.140625 0.078125,0.234375 0.125,0.28125 C 4.6875,-4.359375 5,-4.046875 5,-3.421875 c 0,0.5 -0.71875,3.296875 -2.15625,3.296875 -0.734375,0 -0.875,-0.609375 -0.875,-1.046875 0,-0.59375 0.28125,-1.4375 0.59375,-2.296875 0.203125,-0.484375 0.25,-0.609375 0.25,-0.84375 0,-0.5 -0.359375,-0.953125 -0.953125,-0.953125 -1.09375,0 -1.53125,1.734375 -1.53125,1.828125 0,0.046875 0.046875,0.109375 0.125,0.109375 0.109375,0 0.125,-0.046875 0.171875,-0.21875 0.28125,-1.03125 0.75,-1.484375 1.203125,-1.484375 0.109375,0 0.3125,0 0.3125,0.390625 0,0.3125 -0.125,0.65625 -0.3125,1.109375 C 1.25,-2 1.25,-1.625 1.25,-1.34375 c 0,0.265625 0.046875,0.765625 0.40625,1.09375 0.4375,0.375 1.03125,0.375 1.140625,0.375 1.984375,0 2.671875,-3.921875 2.671875,-4.59375 z m 0,0"
             id="path67" />
        </g>
      </g>
    </g>
    <g
       id="g80"
       transform="translate(-76.11552,38.078419)">
      <g
         fill="#000000"
         fill-opacity="1"
         id="g71"
         transform="matrix(0.352778,0,0,0.352778,116.82075,106.84406)">
        <g
           id="g70"
           transform="translate(132.79738,10.295)">
          <path
             d="m 1.515625,-0.96875 c 0.515625,-0.578125 0.9375,-0.953125 1.53125,-1.5 C 3.765625,-3.078125 4.078125,-3.375 4.25,-3.5625 5.078125,-4.390625 5.5,-5.078125 5.5,-5.171875 c 0,-0.09375 -0.09375,-0.09375 -0.125,-0.09375 -0.078125,0 -0.109375,0.046875 -0.15625,0.125 C 4.90625,-4.625 4.625,-4.375 4.3125,-4.375 c -0.25,0 -0.375,-0.109375 -0.609375,-0.390625 -0.25,-0.296875 -0.453125,-0.5 -0.796875,-0.5 -0.875,0 -1.40625,1.078125 -1.40625,1.328125 0,0.046875 0.015625,0.109375 0.125,0.109375 0.09375,0 0.109375,-0.046875 0.140625,-0.125 0.203125,-0.484375 0.78125,-0.5625 1,-0.5625 0.265625,0 0.5,0.078125 0.75,0.1875 0.453125,0.1875 0.640625,0.1875 0.765625,0.1875 0.078125,0 0.125,0 0.1875,0 C 4.078125,-3.6875 3.4375,-3.109375 2.890625,-2.625 L 1.6875,-1.5 c -0.734375,0.734375 -1.171875,1.4375 -1.171875,1.53125 0,0.0625 0.0625,0.09375 0.125,0.09375 0.078125,0 0.09375,-0.015625 0.171875,-0.15625 0.1875,-0.296875 0.578125,-0.75 1.015625,-0.75 0.25,0 0.375,0.09375 0.609375,0.390625 C 2.671875,-0.125 2.875,0.125 3.25,0.125 c 1.171875,0 1.84375,-1.53125 1.84375,-1.796875 0,-0.046875 -0.015625,-0.125 -0.140625,-0.125 -0.09375,0 -0.09375,0.046875 -0.140625,0.171875 -0.265625,0.703125 -0.96875,0.984375 -1.4375,0.984375 -0.25,0 -0.484375,-0.078125 -0.734375,-0.1875 -0.484375,-0.1875 -0.609375,-0.1875 -0.765625,-0.1875 -0.125,0 -0.25,0 -0.359375,0.046875 z m 0,0"
             id="path69" />
        </g>
      </g>
      <g
         fill="#000000"
         fill-opacity="1"
         id="g73"
         transform="matrix(0.352778,0,0,0.352778,116.82075,106.84406)">
        <g
           id="g72"
           transform="translate(142.092,10.295)">
          <path
             d="m 8.0625,-7.09375 c 0.140625,-0.0625 0.234375,-0.125 0.234375,-0.265625 0,-0.140625 -0.09375,-0.25 -0.234375,-0.25 -0.0625,0 -0.171875,0.0625 -0.21875,0.078125 l -6.609375,3.125 c -0.203125,0.09375 -0.25,0.171875 -0.25,0.265625 0,0.109375 0.078125,0.203125 0.25,0.265625 L 7.84375,-0.765625 C 8,-0.6875 8.015625,-0.6875 8.0625,-0.6875 c 0.125,0 0.234375,-0.09375 0.234375,-0.234375 0,-0.109375 -0.046875,-0.171875 -0.25,-0.265625 l -6.25,-2.953125 z M 7.875,1.640625 c 0.203125,0 0.421875,0 0.421875,-0.234375 0,-0.25 -0.25,-0.25 -0.4375,-0.25 h -6.4375 c -0.171875,0 -0.4375,0 -0.4375,0.25 0,0.234375 0.21875,0.234375 0.421875,0.234375 z m 0,0"
             id="path71" />
        </g>
      </g>
      <g
         fill="#000000"
         fill-opacity="1"
         id="g75"
         transform="matrix(0.352778,0,0,0.352778,116.82075,106.84406)">
        <g
           id="g74"
           transform="translate(154.711,10.295)">
          <path
             d="M 4.109375,-0.734375 C 4.375,-0.015625 5.109375,0.125 5.5625,0.125 6.484375,0.125 7.015625,-0.671875 7.34375,-1.5 7.625,-2.1875 8.0625,-3.765625 8.0625,-4.46875 c 0,-0.734375 -0.359375,-0.796875 -0.46875,-0.796875 -0.296875,0 -0.546875,0.28125 -0.546875,0.515625 0,0.140625 0.078125,0.234375 0.140625,0.28125 0.109375,0.109375 0.421875,0.421875 0.421875,1.046875 0,0.40625 -0.34375,1.53125 -0.59375,2.09375 C 6.6875,-0.59375 6.234375,-0.125 5.625,-0.125 c -0.671875,0 -0.890625,-0.5 -0.890625,-1.046875 0,-0.34375 0.109375,-0.765625 0.15625,-0.96875 l 0.5,-2 c 0.0625,-0.25 0.171875,-0.671875 0.171875,-0.71875 0,-0.171875 -0.140625,-0.296875 -0.328125,-0.296875 -0.34375,0 -0.421875,0.296875 -0.5,0.59375 -0.125,0.46875 -0.625,2.484375 -0.671875,2.75 -0.046875,0.203125 -0.046875,0.328125 -0.046875,0.59375 0,0.28125 -0.375,0.734375 -0.390625,0.765625 -0.140625,0.125 -0.328125,0.328125 -0.703125,0.328125 -0.9375,0 -0.9375,-0.890625 -0.9375,-1.09375 0,-0.390625 0.078125,-0.90625 0.625,-2.328125 C 2.75,-3.921875 2.8125,-4.078125 2.8125,-4.3125 c 0,-0.5 -0.359375,-0.953125 -0.953125,-0.953125 -1.09375,0 -1.53125,1.734375 -1.53125,1.828125 0,0.046875 0.046875,0.109375 0.125,0.109375 0.109375,0 0.125,-0.046875 0.171875,-0.21875 0.296875,-1.0625 0.765625,-1.484375 1.203125,-1.484375 0.125,0 0.3125,0.015625 0.3125,0.390625 0,0.0625 0,0.3125 -0.203125,0.84375 C 1.375,-2.3125 1.25,-1.8125 1.25,-1.359375 c 0,1.25 1.03125,1.484375 1.640625,1.484375 0.203125,0 0.75,0 1.21875,-0.859375 z m 0,0"
             id="path73" />
        </g>
      </g>
    </g>
    <g
       fill="#000000"
       fill-opacity="1"
       id="g3"
       transform="matrix(0.72542689,0,0,0.72542689,178.17937,73.059456)">
      <g
         id="use2"
         transform="translate(1.993,10.162)">
        <path
           d="m 3.53125,-3.796875 h 2.015625 c 1.65625,0 3.296875,-1.21875 3.296875,-2.59375 0,-0.921875 -0.78125,-1.765625 -2.296875,-1.765625 h -3.6875 c -0.234375,0 -0.34375,0 -0.34375,0.21875 0,0.125 0.109375,0.125 0.296875,0.125 0.71875,0 0.71875,0.09375 0.71875,0.21875 0,0.03125 0,0.09375 -0.046875,0.28125 L 1.875,-0.890625 C 1.765625,-0.46875 1.75,-0.34375 0.90625,-0.34375 c -0.21875,0 -0.34375,0 -0.34375,0.21875 C 0.5625,0 0.671875,0 0.734375,0 0.96875,0 1.203125,-0.03125 1.4375,-0.03125 H 2.828125 C 3.0625,-0.03125 3.3125,0 3.53125,0 3.640625,0 3.765625,0 3.765625,-0.234375 3.765625,-0.34375 3.65625,-0.34375 3.484375,-0.34375 2.765625,-0.34375 2.75,-0.4375 2.75,-0.546875 2.75,-0.609375 2.765625,-0.6875 2.765625,-0.75 Z m 0.875,-3.546875 C 4.5,-7.796875 4.546875,-7.8125 5.015625,-7.8125 h 1.1875 c 0.890625,0 1.640625,0.28125 1.640625,1.171875 0,0.3125 -0.15625,1.328125 -0.703125,1.890625 -0.203125,0.203125 -0.78125,0.65625 -1.875,0.65625 h -1.6875 z m 0,0"
           id="path80" />
      </g>
    </g>
    <g
       fill="#000000"
       fill-opacity="1"
       id="g4"
       transform="matrix(0.72542689,0,0,0.72542689,152.44727,144.62487)">
      <g
         id="use3"
         transform="translate(15.061229,10.162)">
        <path
           d="m 5.09375,-0.078125 c 2.046875,-0.8125 3.578125,-3 3.578125,-5.15625 0,-1.96875 -1.28125,-3.1875 -2.953125,-3.1875 -2.5625,0 -5.140625,2.75 -5.140625,5.515625 0,1.875 1.234375,3.15625 2.96875,3.15625 0.40625,0 0.796875,-0.0625 1.1875,-0.171875 -0.078125,0.703125 -0.078125,0.765625 -0.078125,1 0,0.34375 0,1.234375 0.96875,1.234375 1.421875,0 1.9375,-2.234375 1.9375,-2.296875 0,-0.078125 -0.046875,-0.125 -0.109375,-0.125 -0.0625,0 -0.09375,0.0625 -0.125,0.1875 C 7.0625,0.84375 6.4375,1.265625 5.921875,1.265625 5.3125,1.265625 5.15625,0.84375 5.09375,-0.078125 Z M 2.9375,-0.125 C 2,-0.453125 1.546875,-1.453125 1.546875,-2.546875 c 0,-0.828125 0.3125,-2.421875 1.09375,-3.640625 0.890625,-1.359375 2.0625,-1.96875 3,-1.96875 1.25,0 2.078125,1.015625 2.078125,2.5625 0,0.890625 -0.421875,3.84375 -2.65625,5.15625 C 5,-1.046875 4.828125,-1.75 4.046875,-1.75 c -0.65625,0 -1.203125,0.640625 -1.203125,1.21875 0,0.140625 0.046875,0.3125 0.09375,0.40625 z M 4.75,-0.28125 c -0.421875,0.203125 -0.796875,0.265625 -1.125,0.265625 -0.125,0 -0.546875,0 -0.546875,-0.515625 0,-0.4375 0.421875,-0.984375 0.96875,-0.984375 0.59375,0 0.71875,0.40625 0.71875,1 0,0.078125 0,0.171875 -0.015625,0.234375 z m 0,0"
           id="path81" />
      </g>
    </g>
  </g>
</svg>
