<?xml version="1.0" encoding="UTF-8" standalone="no"?>
<!-- Created with Inkscape (http://www.inkscape.org/) -->

<svg
   width="210mm"
   height="297mm"
   viewBox="0 0 210 297"
   version="1.1"
   id="svg5"
   inkscape:version="1.1.2 (0a00cf5339, 2022-02-04, custom)"
   sodipodi:docname="second_iso_thm.svg"
   xmlns:inkscape="http://www.inkscape.org/namespaces/inkscape"
   xmlns:sodipodi="http://sodipodi.sourceforge.net/DTD/sodipodi-0.dtd"
   xmlns:xlink="http://www.w3.org/1999/xlink"
   xmlns="http://www.w3.org/2000/svg"
   xmlns:svg="http://www.w3.org/2000/svg">
  <sodipodi:namedview
     id="namedview7"
     pagecolor="#ffffff"
     bordercolor="#666666"
     borderopacity="1.0"
     inkscape:pageshadow="2"
     inkscape:pageopacity="0.0"
     inkscape:pagecheckerboard="0"
     inkscape:document-units="mm"
     showgrid="false"
     showguides="true"
     inkscape:guide-bbox="true"
     inkscape:zoom="1.2129429"
     inkscape:cx="402.32727"
     inkscape:cy="303.39433"
     inkscape:window-width="937"
     inkscape:window-height="1008"
     inkscape:window-x="13"
     inkscape:window-y="53"
     inkscape:window-maximized="1"
     inkscape:current-layer="layer1" />
  <defs
     id="defs2">
    <g
       id="g2801">
      <symbol
         overflow="visible"
         id="symbol2523">
        <path
           style="stroke:none;"
           d=""
           id="path8852" />
      </symbol>
      <symbol
         overflow="visible"
         id="symbol99">
        <path
           style="stroke:none;"
           d="M 7.578125 -6.921875 C 7.578125 -6.953125 7.5625 -7.03125 7.46875 -7.03125 C 7.4375 -7.03125 7.421875 -7.015625 7.3125 -6.90625 L 6.625 -6.140625 C 6.53125 -6.28125 6.078125 -7.03125 4.96875 -7.03125 C 2.734375 -7.03125 0.5 -4.828125 0.5 -2.515625 C 0.5 -0.921875 1.609375 0.21875 3.21875 0.21875 C 3.65625 0.21875 4.109375 0.125 4.46875 -0.015625 C 4.96875 -0.21875 5.15625 -0.421875 5.328125 -0.625 C 5.421875 -0.375 5.6875 -0.015625 5.78125 -0.015625 C 5.828125 -0.015625 5.859375 -0.046875 5.859375 -0.046875 C 5.875 -0.0625 5.96875 -0.453125 6.015625 -0.65625 L 6.203125 -1.421875 C 6.25 -1.59375 6.296875 -1.765625 6.34375 -1.9375 C 6.453125 -2.375 6.453125 -2.40625 7.03125 -2.40625 C 7.078125 -2.40625 7.1875 -2.421875 7.1875 -2.609375 C 7.1875 -2.6875 7.140625 -2.71875 7.0625 -2.71875 C 6.828125 -2.71875 6.234375 -2.6875 6.015625 -2.6875 C 5.703125 -2.6875 4.921875 -2.71875 4.609375 -2.71875 C 4.53125 -2.71875 4.40625 -2.71875 4.40625 -2.515625 C 4.40625 -2.40625 4.484375 -2.40625 4.703125 -2.40625 C 4.71875 -2.40625 5 -2.40625 5.234375 -2.390625 C 5.5 -2.359375 5.546875 -2.328125 5.546875 -2.203125 C 5.546875 -2.109375 5.4375 -1.671875 5.328125 -1.296875 C 5.046875 -0.203125 3.765625 -0.09375 3.40625 -0.09375 C 2.453125 -0.09375 1.40625 -0.65625 1.40625 -2.1875 C 1.40625 -2.5 1.5 -4.140625 2.546875 -5.4375 C 3.09375 -6.109375 4.0625 -6.71875 5.046875 -6.71875 C 6.0625 -6.71875 6.65625 -5.953125 6.65625 -4.796875 C 6.65625 -4.390625 6.625 -4.390625 6.625 -4.28125 C 6.625 -4.1875 6.734375 -4.1875 6.765625 -4.1875 C 6.890625 -4.1875 6.890625 -4.203125 6.953125 -4.390625 Z M 7.578125 -6.921875 "
           id="path8059" />
      </symbol>
    </g>
    <g
       id="g3938">
      <symbol
         overflow="visible"
         id="symbol7626">
        <path
           style="stroke:none;"
           d=""
           id="path4944" />
      </symbol>
      <symbol
         overflow="visible"
         id="symbol2970">
        <path
           style="stroke:none;"
           d="M 1.78125 -1.140625 C 1.390625 -0.484375 1 -0.34375 0.5625 -0.3125 C 0.4375 -0.296875 0.34375 -0.296875 0.34375 -0.109375 C 0.34375 -0.046875 0.40625 0 0.484375 0 C 0.75 0 1.0625 -0.03125 1.328125 -0.03125 C 1.671875 -0.03125 2.015625 0 2.328125 0 C 2.390625 0 2.515625 0 2.515625 -0.1875 C 2.515625 -0.296875 2.4375 -0.3125 2.359375 -0.3125 C 2.140625 -0.328125 1.890625 -0.40625 1.890625 -0.65625 C 1.890625 -0.78125 1.953125 -0.890625 2.03125 -1.03125 L 2.796875 -2.296875 L 5.296875 -2.296875 C 5.3125 -2.09375 5.453125 -0.734375 5.453125 -0.640625 C 5.453125 -0.34375 4.9375 -0.3125 4.734375 -0.3125 C 4.59375 -0.3125 4.5 -0.3125 4.5 -0.109375 C 4.5 0 4.609375 0 4.640625 0 C 5.046875 0 5.46875 -0.03125 5.875 -0.03125 C 6.125 -0.03125 6.765625 0 7.015625 0 C 7.0625 0 7.1875 0 7.1875 -0.203125 C 7.1875 -0.3125 7.09375 -0.3125 6.953125 -0.3125 C 6.34375 -0.3125 6.34375 -0.375 6.3125 -0.671875 L 5.703125 -6.890625 C 5.6875 -7.09375 5.6875 -7.140625 5.515625 -7.140625 C 5.359375 -7.140625 5.3125 -7.0625 5.25 -6.96875 Z M 2.984375 -2.609375 L 4.9375 -5.90625 L 5.265625 -2.609375 Z M 2.984375 -2.609375 "
           id="path6769" />
      </symbol>
    </g>
    <g
       id="g8242">
      <symbol
         overflow="visible"
         id="symbol3015">
        <path
           style="stroke:none;"
           d=""
           id="path8619" />
      </symbol>
      <symbol
         overflow="visible"
         id="symbol6286">
        <path
           style="stroke:none;"
           d="M 1.59375 -0.78125 C 1.5 -0.390625 1.46875 -0.3125 0.6875 -0.3125 C 0.515625 -0.3125 0.421875 -0.3125 0.421875 -0.109375 C 0.421875 0 0.515625 0 0.6875 0 L 4.25 0 C 5.828125 0 7 -1.171875 7 -2.15625 C 7 -2.875 6.421875 -3.453125 5.453125 -3.5625 C 6.484375 -3.75 7.53125 -4.484375 7.53125 -5.4375 C 7.53125 -6.171875 6.875 -6.8125 5.6875 -6.8125 L 2.328125 -6.8125 C 2.140625 -6.8125 2.046875 -6.8125 2.046875 -6.609375 C 2.046875 -6.5 2.140625 -6.5 2.328125 -6.5 C 2.34375 -6.5 2.53125 -6.5 2.703125 -6.484375 C 2.875 -6.453125 2.96875 -6.453125 2.96875 -6.3125 C 2.96875 -6.28125 2.953125 -6.25 2.9375 -6.125 Z M 3.09375 -3.65625 L 3.71875 -6.125 C 3.8125 -6.46875 3.828125 -6.5 4.25 -6.5 L 5.546875 -6.5 C 6.421875 -6.5 6.625 -5.90625 6.625 -5.46875 C 6.625 -4.59375 5.765625 -3.65625 4.5625 -3.65625 Z M 2.65625 -0.3125 C 2.515625 -0.3125 2.5 -0.3125 2.4375 -0.3125 C 2.328125 -0.328125 2.296875 -0.34375 2.296875 -0.421875 C 2.296875 -0.453125 2.296875 -0.46875 2.359375 -0.640625 L 3.046875 -3.421875 L 4.921875 -3.421875 C 5.875 -3.421875 6.078125 -2.6875 6.078125 -2.265625 C 6.078125 -1.28125 5.1875 -0.3125 4 -0.3125 Z M 2.65625 -0.3125 "
           id="path5694" />
      </symbol>
    </g>
    <g
       id="g4347">
      <symbol
         overflow="visible"
         id="symbol9938">
        <path
           style="stroke:none;"
           d=""
           id="path4965" />
      </symbol>
      <symbol
         overflow="visible"
         id="symbol8247">
        <path
           style="stroke:none;"
           d="M 1.78125 -1.140625 C 1.390625 -0.484375 1 -0.34375 0.5625 -0.3125 C 0.4375 -0.296875 0.34375 -0.296875 0.34375 -0.109375 C 0.34375 -0.046875 0.40625 0 0.484375 0 C 0.75 0 1.0625 -0.03125 1.328125 -0.03125 C 1.671875 -0.03125 2.015625 0 2.328125 0 C 2.390625 0 2.515625 0 2.515625 -0.1875 C 2.515625 -0.296875 2.4375 -0.3125 2.359375 -0.3125 C 2.140625 -0.328125 1.890625 -0.40625 1.890625 -0.65625 C 1.890625 -0.78125 1.953125 -0.890625 2.03125 -1.03125 L 2.796875 -2.296875 L 5.296875 -2.296875 C 5.3125 -2.09375 5.453125 -0.734375 5.453125 -0.640625 C 5.453125 -0.34375 4.9375 -0.3125 4.734375 -0.3125 C 4.59375 -0.3125 4.5 -0.3125 4.5 -0.109375 C 4.5 0 4.609375 0 4.640625 0 C 5.046875 0 5.46875 -0.03125 5.875 -0.03125 C 6.125 -0.03125 6.765625 0 7.015625 0 C 7.0625 0 7.1875 0 7.1875 -0.203125 C 7.1875 -0.3125 7.09375 -0.3125 6.953125 -0.3125 C 6.34375 -0.3125 6.34375 -0.375 6.3125 -0.671875 L 5.703125 -6.890625 C 5.6875 -7.09375 5.6875 -7.140625 5.515625 -7.140625 C 5.359375 -7.140625 5.3125 -7.0625 5.25 -6.96875 Z M 2.984375 -2.609375 L 4.9375 -5.90625 L 5.265625 -2.609375 Z M 2.984375 -2.609375 "
           id="path4539" />
      </symbol>
      <symbol
         overflow="visible"
         id="symbol2313">
        <path
           style="stroke:none;"
           d="M 1.59375 -0.78125 C 1.5 -0.390625 1.46875 -0.3125 0.6875 -0.3125 C 0.515625 -0.3125 0.421875 -0.3125 0.421875 -0.109375 C 0.421875 0 0.515625 0 0.6875 0 L 4.25 0 C 5.828125 0 7 -1.171875 7 -2.15625 C 7 -2.875 6.421875 -3.453125 5.453125 -3.5625 C 6.484375 -3.75 7.53125 -4.484375 7.53125 -5.4375 C 7.53125 -6.171875 6.875 -6.8125 5.6875 -6.8125 L 2.328125 -6.8125 C 2.140625 -6.8125 2.046875 -6.8125 2.046875 -6.609375 C 2.046875 -6.5 2.140625 -6.5 2.328125 -6.5 C 2.34375 -6.5 2.53125 -6.5 2.703125 -6.484375 C 2.875 -6.453125 2.96875 -6.453125 2.96875 -6.3125 C 2.96875 -6.28125 2.953125 -6.25 2.9375 -6.125 Z M 3.09375 -3.65625 L 3.71875 -6.125 C 3.8125 -6.46875 3.828125 -6.5 4.25 -6.5 L 5.546875 -6.5 C 6.421875 -6.5 6.625 -5.90625 6.625 -5.46875 C 6.625 -4.59375 5.765625 -3.65625 4.5625 -3.65625 Z M 2.65625 -0.3125 C 2.515625 -0.3125 2.5 -0.3125 2.4375 -0.3125 C 2.328125 -0.328125 2.296875 -0.34375 2.296875 -0.421875 C 2.296875 -0.453125 2.296875 -0.46875 2.359375 -0.640625 L 3.046875 -3.421875 L 4.921875 -3.421875 C 5.875 -3.421875 6.078125 -2.6875 6.078125 -2.265625 C 6.078125 -1.28125 5.1875 -0.3125 4 -0.3125 Z M 2.65625 -0.3125 "
           id="path5097" />
      </symbol>
    </g>
    <g
       id="g9648">
      <symbol
         overflow="visible"
         id="symbol7498">
        <path
           style="stroke:none;"
           d=""
           id="path3736" />
      </symbol>
      <symbol
         overflow="visible"
         id="symbol9622">
        <path
           style="stroke:none;"
           d="M 1.78125 -1.140625 C 1.390625 -0.484375 1 -0.34375 0.5625 -0.3125 C 0.4375 -0.296875 0.34375 -0.296875 0.34375 -0.109375 C 0.34375 -0.046875 0.40625 0 0.484375 0 C 0.75 0 1.0625 -0.03125 1.328125 -0.03125 C 1.671875 -0.03125 2.015625 0 2.328125 0 C 2.390625 0 2.515625 0 2.515625 -0.1875 C 2.515625 -0.296875 2.4375 -0.3125 2.359375 -0.3125 C 2.140625 -0.328125 1.890625 -0.40625 1.890625 -0.65625 C 1.890625 -0.78125 1.953125 -0.890625 2.03125 -1.03125 L 2.796875 -2.296875 L 5.296875 -2.296875 C 5.3125 -2.09375 5.453125 -0.734375 5.453125 -0.640625 C 5.453125 -0.34375 4.9375 -0.3125 4.734375 -0.3125 C 4.59375 -0.3125 4.5 -0.3125 4.5 -0.109375 C 4.5 0 4.609375 0 4.640625 0 C 5.046875 0 5.46875 -0.03125 5.875 -0.03125 C 6.125 -0.03125 6.765625 0 7.015625 0 C 7.0625 0 7.1875 0 7.1875 -0.203125 C 7.1875 -0.3125 7.09375 -0.3125 6.953125 -0.3125 C 6.34375 -0.3125 6.34375 -0.375 6.3125 -0.671875 L 5.703125 -6.890625 C 5.6875 -7.09375 5.6875 -7.140625 5.515625 -7.140625 C 5.359375 -7.140625 5.3125 -7.0625 5.25 -6.96875 Z M 2.984375 -2.609375 L 4.9375 -5.90625 L 5.265625 -2.609375 Z M 2.984375 -2.609375 "
           id="path7993" />
      </symbol>
      <symbol
         overflow="visible"
         id="symbol9662">
        <path
           style="stroke:none;"
           d="M 1.59375 -0.78125 C 1.5 -0.390625 1.46875 -0.3125 0.6875 -0.3125 C 0.515625 -0.3125 0.421875 -0.3125 0.421875 -0.109375 C 0.421875 0 0.515625 0 0.6875 0 L 4.25 0 C 5.828125 0 7 -1.171875 7 -2.15625 C 7 -2.875 6.421875 -3.453125 5.453125 -3.5625 C 6.484375 -3.75 7.53125 -4.484375 7.53125 -5.4375 C 7.53125 -6.171875 6.875 -6.8125 5.6875 -6.8125 L 2.328125 -6.8125 C 2.140625 -6.8125 2.046875 -6.8125 2.046875 -6.609375 C 2.046875 -6.5 2.140625 -6.5 2.328125 -6.5 C 2.34375 -6.5 2.53125 -6.5 2.703125 -6.484375 C 2.875 -6.453125 2.96875 -6.453125 2.96875 -6.3125 C 2.96875 -6.28125 2.953125 -6.25 2.9375 -6.125 Z M 3.09375 -3.65625 L 3.71875 -6.125 C 3.8125 -6.46875 3.828125 -6.5 4.25 -6.5 L 5.546875 -6.5 C 6.421875 -6.5 6.625 -5.90625 6.625 -5.46875 C 6.625 -4.59375 5.765625 -3.65625 4.5625 -3.65625 Z M 2.65625 -0.3125 C 2.515625 -0.3125 2.5 -0.3125 2.4375 -0.3125 C 2.328125 -0.328125 2.296875 -0.34375 2.296875 -0.421875 C 2.296875 -0.453125 2.296875 -0.46875 2.359375 -0.640625 L 3.046875 -3.421875 L 4.921875 -3.421875 C 5.875 -3.421875 6.078125 -2.6875 6.078125 -2.265625 C 6.078125 -1.28125 5.1875 -0.3125 4 -0.3125 Z M 2.65625 -0.3125 "
           id="path7772" />
      </symbol>
      <symbol
         overflow="visible"
         id="symbol3765">
        <path
           style="stroke:none;"
           d=""
           id="path4311" />
      </symbol>
      <symbol
         overflow="visible"
         id="symbol4609">
        <path
           style="stroke:none;"
           d="M 6.09375 -3.78125 C 6.09375 -5.296875 4.5625 -5.96875 3.3125 -5.96875 C 2.03125 -5.96875 0.546875 -5.265625 0.546875 -3.796875 L 0.546875 -0.140625 C 0.546875 0.046875 0.546875 0.21875 0.75 0.21875 C 0.953125 0.21875 0.953125 0.046875 0.953125 -0.140625 L 0.953125 -3.75 C 0.953125 -5.25 2.578125 -5.5625 3.3125 -5.5625 C 3.765625 -5.5625 4.390625 -5.46875 4.921875 -5.140625 C 5.6875 -4.640625 5.6875 -4 5.6875 -3.734375 L 5.6875 -0.140625 C 5.6875 0.046875 5.6875 0.21875 5.890625 0.21875 C 6.09375 0.21875 6.09375 0.046875 6.09375 -0.140625 Z M 6.09375 -3.78125 "
           id="path898" />
      </symbol>
    </g>
    <g
       id="g628">
      <symbol
         overflow="visible"
         id="symbol1084">
        <path
           style="stroke:none;"
           d=""
           id="path8087" />
      </symbol>
      <symbol
         overflow="visible"
         id="symbol7363">
        <path
           style="stroke:none;"
           d="M 3.265625 -7.09375 C 3.3125 -7.203125 3.3125 -7.234375 3.3125 -7.28125 C 3.3125 -7.390625 3.234375 -7.484375 3.125 -7.484375 C 3.03125 -7.484375 2.953125 -7.421875 2.890625 -7.25 L 1.140625 -2.671875 C 1.125 -2.609375 1.09375 -2.546875 1.09375 -2.5 C 1.09375 -2.46875 1.09375 -2.4375 1.140625 -2.328125 L 2.890625 2.25 C 2.9375 2.359375 2.984375 2.5 3.125 2.5 C 3.234375 2.5 3.3125 2.40625 3.3125 2.296875 C 3.3125 2.265625 3.3125 2.25 3.265625 2.140625 L 1.5 -2.5 Z M 3.265625 -7.09375 "
           id="path7356" />
      </symbol>
      <symbol
         overflow="visible"
         id="symbol8954">
        <path
           style="stroke:none;"
           d="M 2.71875 -2.328125 C 2.765625 -2.4375 2.765625 -2.46875 2.765625 -2.5 C 2.765625 -2.515625 2.765625 -2.546875 2.71875 -2.65625 L 0.984375 -7.25 C 0.921875 -7.421875 0.859375 -7.484375 0.75 -7.484375 C 0.640625 -7.484375 0.546875 -7.390625 0.546875 -7.28125 C 0.546875 -7.25 0.546875 -7.234375 0.59375 -7.125 L 2.359375 -2.5 L 0.59375 2.109375 C 0.546875 2.21875 0.546875 2.25 0.546875 2.296875 C 0.546875 2.40625 0.640625 2.5 0.75 2.5 C 0.875 2.5 0.921875 2.390625 0.953125 2.296875 Z M 2.71875 -2.328125 "
           id="path4231" />
      </symbol>
      <symbol
         overflow="visible"
         id="symbol4592">
        <path
           style="stroke:none;"
           d=""
           id="path3893" />
      </symbol>
      <symbol
         overflow="visible"
         id="symbol2005">
        <path
           style="stroke:none;"
           d="M 1.859375 -2.296875 C 2.15625 -2.296875 2.890625 -2.328125 3.390625 -2.53125 C 4.09375 -2.828125 4.140625 -3.421875 4.140625 -3.5625 C 4.140625 -4 3.765625 -4.40625 3.078125 -4.40625 C 1.96875 -4.40625 0.453125 -3.4375 0.453125 -1.6875 C 0.453125 -0.671875 1.046875 0.109375 2.03125 0.109375 C 3.453125 0.109375 4.28125 -0.953125 4.28125 -1.0625 C 4.28125 -1.125 4.234375 -1.203125 4.171875 -1.203125 C 4.109375 -1.203125 4.09375 -1.171875 4.03125 -1.09375 C 3.25 -0.109375 2.15625 -0.109375 2.046875 -0.109375 C 1.265625 -0.109375 1.171875 -0.953125 1.171875 -1.265625 C 1.171875 -1.390625 1.1875 -1.6875 1.328125 -2.296875 Z M 1.390625 -2.515625 C 1.78125 -4.03125 2.8125 -4.1875 3.078125 -4.1875 C 3.53125 -4.1875 3.8125 -3.890625 3.8125 -3.5625 C 3.8125 -2.515625 2.21875 -2.515625 1.796875 -2.515625 Z M 1.390625 -2.515625 "
           id="path8744" />
      </symbol>
    </g>
  </defs>
  <g
     inkscape:label="Layer 1"
     inkscape:groupmode="layer"
     id="layer1">
    <path
       style="fill:none;stroke:#000000;stroke-width:0.264583px;stroke-linecap:butt;stroke-linejoin:miter;stroke-opacity:1"
       d="m 100.0626,57.486229 v 35.36311 0"
       id="path871" />
    <path
       style="fill:none;stroke:#000000;stroke-width:0.264583px;stroke-linecap:butt;stroke-linejoin:miter;stroke-opacity:1"
       d="M 95.1754,107.56124 57.440041,150.0939"
       id="path1367" />
    <path
       style="fill:none;stroke:#000000;stroke-width:0.264583px;stroke-linecap:butt;stroke-linejoin:miter;stroke-opacity:1"
       d="m 105.17099,107.56124 37.37482,42.53266"
       id="path1369" />
    <path
       style="fill:none;stroke:#000000;stroke-width:0.264583px;stroke-linecap:butt;stroke-linejoin:miter;stroke-opacity:1"
       d="M 57.440041,160.14674 95.1754,195.06371"
       id="path1488" />
    <path
       style="fill:none;stroke:#000000;stroke-width:0.264583px;stroke-linecap:butt;stroke-linejoin:miter;stroke-opacity:1"
       d="m 142.54581,160.14674 -37.37482,34.91697"
       id="path1490" />
    <path
       style="fill:none;stroke:#000000;stroke-width:0.264583px;stroke-linecap:butt;stroke-linejoin:miter;stroke-opacity:1"
       d="m 100.0626,208.37024 v 49.87475"
       id="path1607" />
    <g
       inkscape:label=""
       transform="translate(4.2587171,-27.289747)"
       id="g1715">
      <g
         id="g4045">
        <g
           style="fill:#000000;fill-opacity:1"
           id="g1266">
          <use
             xlink:href="#symbol99"
             x="91.925003"
             y="81.962997"
             id="use2519"
             width="100%"
             height="100%" />
        </g>
      </g>
    </g>
    <g
       inkscape:label=""
       transform="translate(-39.956689,76.183948)"
       id="g1790">
      <g
         id="g4832">
        <g
           style="fill:#000000;fill-opacity:1"
           id="g9106">
          <use
             xlink:href="#symbol2970"
             x="91.925003"
             y="81.962997"
             id="use4765"
             width="100%"
             height="100%" />
        </g>
      </g>
    </g>
    <g
       inkscape:label=""
       transform="translate(46.682132,76.032124)"
       id="g1883">
      <g
         id="g9341">
        <g
           style="fill:#000000;fill-opacity:1"
           id="g9686">
          <use
             xlink:href="#symbol6286"
             x="91.925003"
             y="81.962997"
             id="use837"
             width="100%"
             height="100%" />
        </g>
      </g>
    </g>
    <g
       inkscape:label=""
       transform="translate(0.48545158,21.001727)"
       id="g1997">
      <g
         id="g886">
        <g
           style="fill:#000000;fill-opacity:1"
           id="g1459">
          <use
             xlink:href="#symbol8247"
             x="91.925003"
             y="81.962997"
             id="use211"
             width="100%"
             height="100%" />
          <use
             xlink:href="#symbol2313"
             x="99.39695"
             y="81.962997"
             id="use2472"
             width="100%"
             height="100%" />
        </g>
      </g>
    </g>
    <g
       inkscape:label=""
       transform="translate(-5.0845382,122.32733)"
       id="g2145">
      <g
         id="g9352">
        <g
           style="fill:#000000;fill-opacity:1"
           id="g314">
          <use
             xlink:href="#symbol9622"
             x="91.925003"
             y="81.962997"
             id="use1678"
             width="100%"
             height="100%" />
        </g>
        <g
           style="fill:#000000;fill-opacity:1"
           id="g1594">
          <use
             xlink:href="#symbol4609"
             x="101.611"
             y="81.962997"
             id="use6711"
             width="100%"
             height="100%" />
        </g>
        <g
           style="fill:#000000;fill-opacity:1"
           id="g5457">
          <use
             xlink:href="#symbol9662"
             x="110.467"
             y="81.962997"
             id="use1999"
             width="100%"
             height="100%" />
        </g>
      </g>
    </g>
    <g
       inkscape:label=""
       transform="translate(1.6370421,185.69464)"
       id="g2338">
      <g
         id="g448">
        <g
           style="fill:#000000;fill-opacity:1"
           id="g1692">
          <use
             xlink:href="#symbol7363"
             x="91.925003"
             y="81.962997"
             id="use8096"
             width="100%"
             height="100%" />
        </g>
        <g
           style="fill:#000000;fill-opacity:1"
           id="g486">
          <use
             xlink:href="#symbol2005"
             x="95.800003"
             y="81.962997"
             id="use835"
             width="100%"
             height="100%" />
        </g>
        <g
           style="fill:#000000;fill-opacity:1"
           id="g2410">
          <use
             xlink:href="#symbol8954"
             x="100.439"
             y="81.962997"
             id="use2710"
             width="100%"
             height="100%" />
        </g>
      </g>
    </g>
  </g>
</svg>
