<?xml version="1.0" encoding="UTF-8" standalone="no"?>
<svg
   version="1.1"
   width="1888"
   height="955"
   id="svg1098"
   sodipodi:docname="bec_1.svg"
   inkscape:version="1.1.1 (3bf5ae0d25, 2021-09-20, custom)"
   xmlns:inkscape="http://www.inkscape.org/namespaces/inkscape"
   xmlns:sodipodi="http://sodipodi.sourceforge.net/DTD/sodipodi-0.dtd"
   xmlns:xlink="http://www.w3.org/1999/xlink"
   xmlns="http://www.w3.org/2000/svg"
   xmlns:svg="http://www.w3.org/2000/svg">
  <sodipodi:namedview
     id="namedview1100"
     pagecolor="#ffffff"
     bordercolor="#666666"
     borderopacity="1.0"
     inkscape:pageshadow="2"
     inkscape:pageopacity="0.0"
     inkscape:pagecheckerboard="0"
     showgrid="false"
     showguides="true"
     inkscape:guide-bbox="true"
     inkscape:zoom="0.66154661"
     inkscape:cx="944"
     inkscape:cy="477.66853"
     inkscape:window-width="1888"
     inkscape:window-height="1008"
     inkscape:window-x="13"
     inkscape:window-y="53"
     inkscape:window-maximized="1"
     inkscape:current-layer="svg1098" />
  <defs
     id="defs1070">
    <clipPath
       id="GaMBbBHpzTDr">
      <path
         fill="none"
         stroke="none"
         d=" M 0 0 L 1888 0 L 1888 955 L 0 955 L 0 0 Z"
         id="path1067" />
    </clipPath>
    <g
       id="g827">
      <symbol
         overflow="visible"
         id="symbol5813">
        <path
           style="stroke:none;"
           d=""
           id="path1623" />
      </symbol>
      <symbol
         overflow="visible"
         id="symbol9782">
        <path
           style="stroke:none;"
           d="M 4.578125 -3.1875 C 4.578125 -3.984375 4.53125 -4.78125 4.1875 -5.515625 C 3.734375 -6.484375 2.90625 -6.640625 2.5 -6.640625 C 1.890625 -6.640625 1.171875 -6.375 0.75 -5.453125 C 0.4375 -4.765625 0.390625 -3.984375 0.390625 -3.1875 C 0.390625 -2.4375 0.421875 -1.546875 0.84375 -0.78125 C 1.265625 0.015625 2 0.21875 2.484375 0.21875 C 3.015625 0.21875 3.78125 0.015625 4.21875 -0.9375 C 4.53125 -1.625 4.578125 -2.40625 4.578125 -3.1875 Z M 2.484375 0 C 2.09375 0 1.5 -0.25 1.328125 -1.203125 C 1.21875 -1.796875 1.21875 -2.71875 1.21875 -3.3125 C 1.21875 -3.953125 1.21875 -4.609375 1.296875 -5.140625 C 1.484375 -6.328125 2.234375 -6.421875 2.484375 -6.421875 C 2.8125 -6.421875 3.46875 -6.234375 3.65625 -5.25 C 3.765625 -4.6875 3.765625 -3.9375 3.765625 -3.3125 C 3.765625 -2.5625 3.765625 -1.890625 3.65625 -1.25 C 3.5 -0.296875 2.9375 0 2.484375 0 Z M 2.484375 0 "
           id="path2964" />
      </symbol>
    </g>
    <g
       id="g377">
      <symbol
         overflow="visible"
         id="symbol9093">
        <path
           style="stroke:none;"
           d=""
           id="path3787" />
      </symbol>
      <symbol
         overflow="visible"
         id="symbol7954">
        <path
           style="stroke:none;"
           d="M 4.578125 -3.1875 C 4.578125 -3.984375 4.53125 -4.78125 4.1875 -5.515625 C 3.734375 -6.484375 2.90625 -6.640625 2.5 -6.640625 C 1.890625 -6.640625 1.171875 -6.375 0.75 -5.453125 C 0.4375 -4.765625 0.390625 -3.984375 0.390625 -3.1875 C 0.390625 -2.4375 0.421875 -1.546875 0.84375 -0.78125 C 1.265625 0.015625 2 0.21875 2.484375 0.21875 C 3.015625 0.21875 3.78125 0.015625 4.21875 -0.9375 C 4.53125 -1.625 4.578125 -2.40625 4.578125 -3.1875 Z M 2.484375 0 C 2.09375 0 1.5 -0.25 1.328125 -1.203125 C 1.21875 -1.796875 1.21875 -2.71875 1.21875 -3.3125 C 1.21875 -3.953125 1.21875 -4.609375 1.296875 -5.140625 C 1.484375 -6.328125 2.234375 -6.421875 2.484375 -6.421875 C 2.8125 -6.421875 3.46875 -6.234375 3.65625 -5.25 C 3.765625 -4.6875 3.765625 -3.9375 3.765625 -3.3125 C 3.765625 -2.5625 3.765625 -1.890625 3.65625 -1.25 C 3.5 -0.296875 2.9375 0 2.484375 0 Z M 2.484375 0 "
           id="path7106" />
      </symbol>
    </g>
    <g
       id="g5708">
      <symbol
         overflow="visible"
         id="symbol1534">
        <path
           style="stroke:none;"
           d=""
           id="path2407" />
      </symbol>
      <symbol
         overflow="visible"
         id="symbol3917">
        <path
           style="stroke:none;"
           d="M 2.9375 -6.375 C 2.9375 -6.625 2.9375 -6.640625 2.703125 -6.640625 C 2.078125 -6 1.203125 -6 0.890625 -6 L 0.890625 -5.6875 C 1.09375 -5.6875 1.671875 -5.6875 2.1875 -5.953125 L 2.1875 -0.78125 C 2.1875 -0.421875 2.15625 -0.3125 1.265625 -0.3125 L 0.953125 -0.3125 L 0.953125 0 C 1.296875 -0.03125 2.15625 -0.03125 2.5625 -0.03125 C 2.953125 -0.03125 3.828125 -0.03125 4.171875 0 L 4.171875 -0.3125 L 3.859375 -0.3125 C 2.953125 -0.3125 2.9375 -0.421875 2.9375 -0.78125 Z M 2.9375 -6.375 "
           id="path4449" />
      </symbol>
    </g>
    <g
       id="g909">
      <symbol
         overflow="visible"
         id="symbol8277">
        <path
           style="stroke:none;"
           d=""
           id="path7990" />
      </symbol>
      <symbol
         overflow="visible"
         id="symbol1016">
        <path
           style="stroke:none;"
           d="M 2.9375 -6.375 C 2.9375 -6.625 2.9375 -6.640625 2.703125 -6.640625 C 2.078125 -6 1.203125 -6 0.890625 -6 L 0.890625 -5.6875 C 1.09375 -5.6875 1.671875 -5.6875 2.1875 -5.953125 L 2.1875 -0.78125 C 2.1875 -0.421875 2.15625 -0.3125 1.265625 -0.3125 L 0.953125 -0.3125 L 0.953125 0 C 1.296875 -0.03125 2.15625 -0.03125 2.5625 -0.03125 C 2.953125 -0.03125 3.828125 -0.03125 4.171875 0 L 4.171875 -0.3125 L 3.859375 -0.3125 C 2.953125 -0.3125 2.9375 -0.421875 2.9375 -0.78125 Z M 2.9375 -6.375 "
           id="path3039" />
      </symbol>
    </g>
    <g
       id="g5216">
      <symbol
         overflow="visible"
         id="symbol2526">
        <path
           style="stroke:none;"
           d=""
           id="path7423" />
      </symbol>
      <symbol
         overflow="visible"
         id="symbol812">
        <path
           style="stroke:none;"
           d="M 1.265625 -0.765625 L 2.328125 -1.796875 C 3.875 -3.171875 4.46875 -3.703125 4.46875 -4.703125 C 4.46875 -5.84375 3.578125 -6.640625 2.359375 -6.640625 C 1.234375 -6.640625 0.5 -5.71875 0.5 -4.828125 C 0.5 -4.28125 1 -4.28125 1.03125 -4.28125 C 1.203125 -4.28125 1.546875 -4.390625 1.546875 -4.8125 C 1.546875 -5.0625 1.359375 -5.328125 1.015625 -5.328125 C 0.9375 -5.328125 0.921875 -5.328125 0.890625 -5.3125 C 1.109375 -5.96875 1.65625 -6.328125 2.234375 -6.328125 C 3.140625 -6.328125 3.5625 -5.515625 3.5625 -4.703125 C 3.5625 -3.90625 3.078125 -3.125 2.515625 -2.5 L 0.609375 -0.375 C 0.5 -0.265625 0.5 -0.234375 0.5 0 L 4.203125 0 L 4.46875 -1.734375 L 4.234375 -1.734375 C 4.171875 -1.4375 4.109375 -1 4 -0.84375 C 3.9375 -0.765625 3.28125 -0.765625 3.0625 -0.765625 Z M 1.265625 -0.765625 "
           id="path343" />
      </symbol>
    </g>
    <g
       id="g5323">
      <symbol
         overflow="visible"
         id="symbol5865">
        <path
           style="stroke:none;"
           d=""
           id="path210" />
      </symbol>
      <symbol
         overflow="visible"
         id="symbol8927">
        <path
           style="stroke:none;"
           d="M 1.90625 -2.328125 C 2.453125 -2.328125 2.84375 -1.953125 2.84375 -1.203125 C 2.84375 -0.34375 2.328125 -0.078125 1.9375 -0.078125 C 1.65625 -0.078125 1.03125 -0.15625 0.75 -0.578125 C 1.078125 -0.578125 1.15625 -0.8125 1.15625 -0.96875 C 1.15625 -1.1875 0.984375 -1.34375 0.765625 -1.34375 C 0.578125 -1.34375 0.375 -1.21875 0.375 -0.9375 C 0.375 -0.28125 1.09375 0.140625 1.9375 0.140625 C 2.90625 0.140625 3.578125 -0.515625 3.578125 -1.203125 C 3.578125 -1.75 3.140625 -2.296875 2.375 -2.453125 C 3.09375 -2.71875 3.359375 -3.234375 3.359375 -3.671875 C 3.359375 -4.21875 2.734375 -4.625 1.953125 -4.625 C 1.1875 -4.625 0.59375 -4.25 0.59375 -3.6875 C 0.59375 -3.453125 0.75 -3.328125 0.953125 -3.328125 C 1.171875 -3.328125 1.3125 -3.484375 1.3125 -3.671875 C 1.3125 -3.875 1.171875 -4.03125 0.953125 -4.046875 C 1.203125 -4.34375 1.671875 -4.421875 1.9375 -4.421875 C 2.25 -4.421875 2.6875 -4.265625 2.6875 -3.671875 C 2.6875 -3.375 2.59375 -3.046875 2.40625 -2.84375 C 2.1875 -2.578125 1.984375 -2.5625 1.640625 -2.53125 C 1.46875 -2.515625 1.453125 -2.515625 1.421875 -2.515625 C 1.40625 -2.515625 1.34375 -2.5 1.34375 -2.421875 C 1.34375 -2.328125 1.40625 -2.328125 1.53125 -2.328125 Z M 1.90625 -2.328125 "
           id="path5110" />
      </symbol>
      <symbol
         overflow="visible"
         id="symbol1071">
        <path
           style="stroke:none;"
           d="M 3.6875 -1.140625 L 3.6875 -1.390625 L 2.90625 -1.390625 L 2.90625 -4.5 C 2.90625 -4.640625 2.90625 -4.703125 2.765625 -4.703125 C 2.671875 -4.703125 2.640625 -4.703125 2.578125 -4.59375 L 0.265625 -1.390625 L 0.265625 -1.140625 L 2.328125 -1.140625 L 2.328125 -0.578125 C 2.328125 -0.328125 2.328125 -0.25 1.75 -0.25 L 1.5625 -0.25 L 1.5625 0 C 1.921875 -0.015625 2.359375 -0.03125 2.609375 -0.03125 C 2.875 -0.03125 3.3125 -0.015625 3.671875 0 L 3.671875 -0.25 L 3.484375 -0.25 C 2.90625 -0.25 2.90625 -0.328125 2.90625 -0.578125 L 2.90625 -1.140625 Z M 2.375 -3.9375 L 2.375 -1.390625 L 0.53125 -1.390625 Z M 2.375 -3.9375 "
           id="path9280" />
      </symbol>
    </g>
    <g
       id="g9912">
      <symbol
         overflow="visible"
         id="symbol3811">
        <path
           style="stroke:none;"
           d=""
           id="path1044" />
      </symbol>
      <symbol
         overflow="visible"
         id="symbol6059">
        <path
           style="stroke:none;"
           d="M 2.328125 -4.4375 C 2.328125 -4.625 2.328125 -4.625 2.125 -4.625 C 1.671875 -4.1875 1.046875 -4.1875 0.765625 -4.1875 L 0.765625 -3.9375 C 0.921875 -3.9375 1.390625 -3.9375 1.765625 -4.125 L 1.765625 -0.578125 C 1.765625 -0.34375 1.765625 -0.25 1.078125 -0.25 L 0.8125 -0.25 L 0.8125 0 C 0.9375 0 1.796875 -0.03125 2.046875 -0.03125 C 2.265625 -0.03125 3.140625 0 3.296875 0 L 3.296875 -0.25 L 3.03125 -0.25 C 2.328125 -0.25 2.328125 -0.34375 2.328125 -0.578125 Z M 2.328125 -4.4375 "
           id="path4468" />
      </symbol>
      <symbol
         overflow="visible"
         id="symbol2304">
        <path
           style="stroke:none;"
           d="M 3.515625 -1.265625 L 3.28125 -1.265625 C 3.265625 -1.109375 3.1875 -0.703125 3.09375 -0.640625 C 3.046875 -0.59375 2.515625 -0.59375 2.40625 -0.59375 L 1.125 -0.59375 C 1.859375 -1.234375 2.109375 -1.4375 2.515625 -1.765625 C 3.03125 -2.171875 3.515625 -2.609375 3.515625 -3.265625 C 3.515625 -4.109375 2.78125 -4.625 1.890625 -4.625 C 1.03125 -4.625 0.4375 -4.015625 0.4375 -3.375 C 0.4375 -3.03125 0.734375 -2.984375 0.8125 -2.984375 C 0.96875 -2.984375 1.171875 -3.109375 1.171875 -3.359375 C 1.171875 -3.484375 1.125 -3.734375 0.765625 -3.734375 C 0.984375 -4.21875 1.453125 -4.375 1.78125 -4.375 C 2.484375 -4.375 2.84375 -3.828125 2.84375 -3.265625 C 2.84375 -2.65625 2.40625 -2.1875 2.1875 -1.9375 L 0.515625 -0.265625 C 0.4375 -0.203125 0.4375 -0.1875 0.4375 0 L 3.3125 0 Z M 3.515625 -1.265625 "
           id="path2492" />
      </symbol>
    </g>
    <g
       id="g9648">
      <symbol
         overflow="visible"
         id="symbol1256">
        <path
           style="stroke:none;"
           d=""
           id="path4613" />
      </symbol>
      <symbol
         overflow="visible"
         id="symbol4810">
        <path
           style="stroke:none;"
           d="M 2.328125 -4.4375 C 2.328125 -4.625 2.328125 -4.625 2.125 -4.625 C 1.671875 -4.1875 1.046875 -4.1875 0.765625 -4.1875 L 0.765625 -3.9375 C 0.921875 -3.9375 1.390625 -3.9375 1.765625 -4.125 L 1.765625 -0.578125 C 1.765625 -0.34375 1.765625 -0.25 1.078125 -0.25 L 0.8125 -0.25 L 0.8125 0 C 0.9375 0 1.796875 -0.03125 2.046875 -0.03125 C 2.265625 -0.03125 3.140625 0 3.296875 0 L 3.296875 -0.25 L 3.03125 -0.25 C 2.328125 -0.25 2.328125 -0.34375 2.328125 -0.578125 Z M 2.328125 -4.4375 "
           id="path1984" />
      </symbol>
      <symbol
         overflow="visible"
         id="symbol9065">
        <path
           style="stroke:none;"
           d="M 3.6875 -1.140625 L 3.6875 -1.390625 L 2.90625 -1.390625 L 2.90625 -4.5 C 2.90625 -4.640625 2.90625 -4.703125 2.765625 -4.703125 C 2.671875 -4.703125 2.640625 -4.703125 2.578125 -4.59375 L 0.265625 -1.390625 L 0.265625 -1.140625 L 2.328125 -1.140625 L 2.328125 -0.578125 C 2.328125 -0.328125 2.328125 -0.25 1.75 -0.25 L 1.5625 -0.25 L 1.5625 0 C 1.921875 -0.015625 2.359375 -0.03125 2.609375 -0.03125 C 2.875 -0.03125 3.3125 -0.015625 3.671875 0 L 3.671875 -0.25 L 3.484375 -0.25 C 2.90625 -0.25 2.90625 -0.328125 2.90625 -0.578125 L 2.90625 -1.140625 Z M 2.375 -3.9375 L 2.375 -1.390625 L 0.53125 -1.390625 Z M 2.375 -3.9375 "
           id="path9027" />
      </symbol>
    </g>
    <g
       id="g4035">
      <symbol
         overflow="visible"
         id="symbol492">
        <path
           style="stroke:none;"
           d=""
           id="path8616" />
      </symbol>
      <symbol
         overflow="visible"
         id="symbol5690">
        <path
           style="stroke:none;"
           d="M 2.328125 -4.4375 C 2.328125 -4.625 2.328125 -4.625 2.125 -4.625 C 1.671875 -4.1875 1.046875 -4.1875 0.765625 -4.1875 L 0.765625 -3.9375 C 0.921875 -3.9375 1.390625 -3.9375 1.765625 -4.125 L 1.765625 -0.578125 C 1.765625 -0.34375 1.765625 -0.25 1.078125 -0.25 L 0.8125 -0.25 L 0.8125 0 C 0.9375 0 1.796875 -0.03125 2.046875 -0.03125 C 2.265625 -0.03125 3.140625 0 3.296875 0 L 3.296875 -0.25 L 3.03125 -0.25 C 2.328125 -0.25 2.328125 -0.34375 2.328125 -0.578125 Z M 2.328125 -4.4375 "
           id="path1636" />
      </symbol>
      <symbol
         overflow="visible"
         id="symbol87">
        <path
           style="stroke:none;"
           d="M 3.6875 -1.140625 L 3.6875 -1.390625 L 2.90625 -1.390625 L 2.90625 -4.5 C 2.90625 -4.640625 2.90625 -4.703125 2.765625 -4.703125 C 2.671875 -4.703125 2.640625 -4.703125 2.578125 -4.59375 L 0.265625 -1.390625 L 0.265625 -1.140625 L 2.328125 -1.140625 L 2.328125 -0.578125 C 2.328125 -0.328125 2.328125 -0.25 1.75 -0.25 L 1.5625 -0.25 L 1.5625 0 C 1.921875 -0.015625 2.359375 -0.03125 2.609375 -0.03125 C 2.875 -0.03125 3.3125 -0.015625 3.671875 0 L 3.671875 -0.25 L 3.484375 -0.25 C 2.90625 -0.25 2.90625 -0.328125 2.90625 -0.578125 L 2.90625 -1.140625 Z M 2.375 -3.9375 L 2.375 -1.390625 L 0.53125 -1.390625 Z M 2.375 -3.9375 "
           id="path7618" />
      </symbol>
    </g>
  </defs>
  <path
     fill="#000000"
     stroke="none"
     paint-order="stroke fill markers"
     d="m 525.25,140.75 c 0,2.76142 -2.23858,5 -5,5 -2.76142,0 -5,-2.23858 -5,-5 0,-2.76142 2.23858,-5 5,-5 2.76142,0 5,2.23858 5,5 z"
     fill-opacity="1"
     id="path1074" />
  <path
     fill="none"
     stroke="#000000"
     paint-order="fill stroke markers"
     d="m 525.25,140.75 c 0,2.76142 -2.23858,5 -5,5 -2.76142,0 -5,-2.23858 -5,-5 0,-2.76142 2.23858,-5 5,-5 2.76142,0 5,2.23858 5,5 z"
     stroke-opacity="1"
     stroke-linecap="round"
     stroke-linejoin="round"
     stroke-miterlimit="10"
     id="path1076" />
  <path
     fill="#000000"
     stroke="none"
     paint-order="stroke fill markers"
     d="m 525.25,647 c 0,2.76142 -2.23858,5 -5,5 -2.76142,0 -5,-2.23858 -5,-5 0,-2.76142 2.23858,-5 5,-5 2.76142,0 5,2.23858 5,5 z"
     fill-opacity="1"
     id="path1078" />
  <path
     fill="none"
     stroke="#000000"
     paint-order="fill stroke markers"
     d="m 525.25,647 c 0,2.76142 -2.23858,5 -5,5 -2.76142,0 -5,-2.23858 -5,-5 0,-2.76142 2.23858,-5 5,-5 2.76142,0 5,2.23858 5,5 z"
     stroke-opacity="1"
     stroke-linecap="round"
     stroke-linejoin="round"
     stroke-miterlimit="10"
     id="path1080" />
  <path
     fill="#000000"
     stroke="none"
     paint-order="stroke fill markers"
     d="m 1284.625,140.75 c 0,2.76142 -2.2386,5 -5,5 -2.7614,0 -5,-2.23858 -5,-5 0,-2.76142 2.2386,-5 5,-5 2.7614,0 5,2.23858 5,5 z"
     fill-opacity="1"
     id="path1082" />
  <path
     fill="none"
     stroke="#000000"
     paint-order="fill stroke markers"
     d="m 1284.625,140.75 c 0,2.76142 -2.2386,5 -5,5 -2.7614,0 -5,-2.23858 -5,-5 0,-2.76142 2.2386,-5 5,-5 2.7614,0 5,2.23858 5,5 z"
     stroke-opacity="1"
     stroke-linecap="round"
     stroke-linejoin="round"
     stroke-miterlimit="10"
     id="path1084" />
  <path
     fill="#000000"
     stroke="none"
     paint-order="stroke fill markers"
     d="m 1284.625,393.875 c 0,2.76142 -2.2386,5 -5,5 -2.7614,0 -5,-2.23858 -5,-5 0,-2.76142 2.2386,-5 5,-5 2.7614,0 5,2.23858 5,5 z"
     fill-opacity="1"
     id="path1086" />
  <path
     fill="none"
     stroke="#000000"
     paint-order="fill stroke markers"
     d="m 1284.625,393.875 c 0,2.76142 -2.2386,5 -5,5 -2.7614,0 -5,-2.23858 -5,-5 0,-2.76142 2.2386,-5 5,-5 2.7614,0 5,2.23858 5,5 z"
     stroke-opacity="1"
     stroke-linecap="round"
     stroke-linejoin="round"
     stroke-miterlimit="10"
     id="path1088" />
  <path
     fill="#000000"
     stroke="none"
     paint-order="stroke fill markers"
     d="m 1284.625,647 c 0,2.76142 -2.2386,5 -5,5 -2.7614,0 -5,-2.23858 -5,-5 0,-2.76142 2.2386,-5 5,-5 2.7614,0 5,2.23858 5,5 z"
     fill-opacity="1"
     id="path1090" />
  <path
     fill="none"
     stroke="#000000"
     paint-order="fill stroke markers"
     d="m 1284.625,647 c 0,2.76142 -2.2386,5 -5,5 -2.7614,0 -5,-2.23858 -5,-5 0,-2.76142 2.2386,-5 5,-5 2.7614,0 5,2.23858 5,5 z"
     stroke-opacity="1"
     stroke-linecap="round"
     stroke-linejoin="round"
     stroke-miterlimit="10"
     id="path1092" />
  <path
     style="fill:none;stroke:#000000;stroke-width:1px;stroke-linecap:butt;stroke-linejoin:miter;stroke-opacity:1"
     d="M 1284.625,140.75 H 525.25 L 1284.625,393.875 525.25,647 h 759.375"
     id="path1344" />
  <g
     inkscape:label=""
     transform="matrix(5.689174,0,0,5.689174,-48.569327,-309.106)"
     id="g1489"
     style="stroke-width:0.175772">
    <g
       id="g8500"
       style="stroke-width:0.175772">
      <g
         style="fill:#000000;fill-opacity:1;stroke-width:0.175772"
         id="g4060">
        <use
           xlink:href="#symbol9782"
           x="91.925003"
           y="81.962997"
           id="use3788"
           width="100%"
           height="100%"
           style="stroke-width:0.175772" />
      </g>
    </g>
  </g>
  <g
     inkscape:label=""
     transform="matrix(5.4848237,0,0,5.4848237,794.25816,-292.18655)"
     id="g1612"
     style="stroke-width:0.182321">
    <g
       id="g6410"
       style="stroke-width:0.182321">
      <g
         style="fill:#000000;fill-opacity:1;stroke-width:0.182321"
         id="g707">
        <use
           xlink:href="#symbol7954"
           x="91.925003"
           y="81.962997"
           id="use9334"
           width="100%"
           height="100%"
           style="stroke-width:0.182321" />
      </g>
    </g>
  </g>
  <g
     inkscape:label=""
     transform="matrix(6.3927109,0,0,6.3927109,707.64579,142.74772)"
     id="g1753"
     style="stroke-width:0.156428">
    <g
       id="g9523"
       style="stroke-width:0.156428">
      <g
         style="fill:#000000;fill-opacity:1;stroke-width:0.156428"
         id="g2909">
        <use
           xlink:href="#symbol3917"
           x="91.925003"
           y="81.962997"
           id="use5682"
           width="100%"
           height="100%"
           style="stroke-width:0.156428" />
      </g>
    </g>
  </g>
  <g
     inkscape:label=""
     transform="matrix(6.5771019,0,0,6.5771019,-125.74677,124.97073)"
     id="g1912"
     style="stroke-width:0.152043">
    <g
       id="g3093"
       style="stroke-width:0.152043">
      <g
         style="fill:#000000;fill-opacity:1;stroke-width:0.152043"
         id="g5649">
        <use
           xlink:href="#symbol1016"
           x="91.925003"
           y="81.962997"
           id="use3423"
           width="100%"
           height="100%"
           style="stroke-width:0.152043" />
      </g>
    </g>
  </g>
  <g
     inkscape:label=""
     transform="matrix(5.917454,0,0,5.917454,767.74975,-74.10771)"
     id="g2089"
     style="stroke-width:0.168992">
    <g
       id="g824"
       style="stroke-width:0.168992">
      <g
         style="fill:#000000;fill-opacity:1;stroke-width:0.168992"
         id="g1494">
        <use
           xlink:href="#symbol812"
           x="91.925003"
           y="81.962997"
           id="use685"
           width="100%"
           height="100%"
           style="stroke-width:0.168992" />
      </g>
    </g>
  </g>
  <g
     inkscape:label=""
     transform="matrix(5.5702708,0,0,5.5702708,394.14429,-359.51757)"
     id="g2289"
     style="stroke-width:0.179524">
    <g
       id="g1074"
       style="stroke-width:0.179524">
      <g
         style="fill:#000000;fill-opacity:1;stroke-width:0.179524"
         id="g5636">
        <use
           xlink:href="#symbol8927"
           x="93.121002"
           y="78.040001"
           id="use353"
           width="100%"
           height="100%"
           style="stroke-width:0.179524" />
      </g>
      <path
         style="fill:none;stroke:#000000;stroke-width:0.0714507;stroke-linecap:butt;stroke-linejoin:miter;stroke-miterlimit:10;stroke-opacity:1"
         d="M 9.375e-5,-6.5625e-4 H 3.97275"
         transform="matrix(1,0,0,-1,93.121,79.472)"
         id="path2995" />
      <g
         style="fill:#000000;fill-opacity:1;stroke-width:0.179524"
         id="g8795">
        <use
           xlink:href="#symbol1071"
           x="93.121002"
           y="85.398003"
           id="use1310"
           width="100%"
           height="100%"
           style="stroke-width:0.179524" />
      </g>
    </g>
  </g>
  <g
     inkscape:label=""
     transform="matrix(4.8660663,0,0,4.8660663,459.72058,319.20233)"
     id="g2522"
     style="stroke-width:0.205505">
    <g
       id="g6981"
       style="stroke-width:0.205505">
      <g
         style="fill:#000000;fill-opacity:1;stroke-width:0.205505"
         id="g8529">
        <use
           xlink:href="#symbol6059"
           x="93.121002"
           y="78.040001"
           id="use9195"
           width="100%"
           height="100%"
           style="stroke-width:0.205505" />
      </g>
      <path
         style="fill:none;stroke:#000000;stroke-width:0.0817909;stroke-linecap:butt;stroke-linejoin:miter;stroke-miterlimit:10;stroke-opacity:1"
         d="M 9.375e-5,-6.5625e-4 H 3.97275"
         transform="matrix(1,0,0,-1,93.121,79.472)"
         id="path6810" />
      <g
         style="fill:#000000;fill-opacity:1;stroke-width:0.205505"
         id="g1757">
        <use
           xlink:href="#symbol2304"
           x="93.121002"
           y="85.398003"
           id="use3573"
           width="100%"
           height="100%"
           style="stroke-width:0.205505" />
      </g>
    </g>
  </g>
  <g
     inkscape:label=""
     transform="matrix(5.5165367,0,0,5.5165367,326.3948,146.86045)"
     id="g2783"
     style="stroke-width:0.181273">
    <g
       id="g3265"
       style="stroke-width:0.181273">
      <g
         style="fill:#000000;fill-opacity:1;stroke-width:0.181273"
         id="g7285">
        <use
           xlink:href="#symbol4810"
           x="93.121002"
           y="78.040001"
           id="use5337"
           width="100%"
           height="100%"
           style="stroke-width:0.181273" />
      </g>
      <path
         style="fill:none;stroke:#000000;stroke-width:0.0721467;stroke-linecap:butt;stroke-linejoin:miter;stroke-miterlimit:10;stroke-opacity:1"
         d="M 9.375e-5,-6.5625e-4 H 3.97275"
         transform="matrix(1,0,0,-1,93.121,79.472)"
         id="path4315" />
      <g
         style="fill:#000000;fill-opacity:1;stroke-width:0.181273"
         id="g9755">
        <use
           xlink:href="#symbol9065"
           x="93.121002"
           y="85.398003"
           id="use3715"
           width="100%"
           height="100%"
           style="stroke-width:0.181273" />
      </g>
    </g>
  </g>
  <g
     inkscape:label=""
     transform="matrix(5.8523788,0,0,5.8523788,580.09358,-164.80258)"
     id="g3072"
     style="stroke-width:0.170871">
    <g
       id="g9273"
       style="stroke-width:0.170871">
      <g
         style="fill:#000000;fill-opacity:1;stroke-width:0.170871"
         id="g977">
        <use
           xlink:href="#symbol5690"
           x="93.121002"
           y="78.040001"
           id="use7462"
           width="100%"
           height="100%"
           style="stroke-width:0.170871" />
      </g>
      <path
         style="fill:none;stroke:#000000;stroke-width:0.0680065;stroke-linecap:butt;stroke-linejoin:miter;stroke-miterlimit:10;stroke-opacity:1"
         d="M 9.375e-5,-6.5625e-4 H 3.97275"
         transform="matrix(1,0,0,-1,93.121,79.472)"
         id="path2666" />
      <g
         style="fill:#000000;fill-opacity:1;stroke-width:0.170871"
         id="g3932">
        <use
           xlink:href="#symbol87"
           x="93.121002"
           y="85.398003"
           id="use1232"
           width="100%"
           height="100%"
           style="stroke-width:0.170871" />
      </g>
    </g>
  </g>
</svg>
