<?xml version="1.0" encoding="UTF-8" standalone="no"?>
<svg
   version="1.1"
   width="1500"
   height="955"
   id="svg895"
   sodipodi:docname="binary_entropy.svg"
   inkscape:version="1.1.1 (3bf5ae0d25, 2021-09-20, custom)"
   xmlns:inkscape="http://www.inkscape.org/namespaces/inkscape"
   xmlns:sodipodi="http://sodipodi.sourceforge.net/DTD/sodipodi-0.dtd"
   xmlns="http://www.w3.org/2000/svg"
   xmlns:svg="http://www.w3.org/2000/svg">
  <sodipodi:namedview
     id="namedview897"
     pagecolor="#ffffff"
     bordercolor="#666666"
     borderopacity="1.0"
     inkscape:pageshadow="2"
     inkscape:pageopacity="0.0"
     inkscape:pagecheckerboard="0"
     showgrid="false"
     showguides="true"
     inkscape:guide-bbox="true"
     inkscape:zoom="1"
     inkscape:cx="736.5"
     inkscape:cy="474"
     inkscape:window-width="1888"
     inkscape:window-height="1008"
     inkscape:window-x="13"
     inkscape:window-y="53"
     inkscape:window-maximized="1"
     inkscape:current-layer="svg895" />
  <defs
     id="defs827">
    <clipPath
       id="ZJTCCxfJqRmB">
      <path
         fill="none"
         stroke="none"
         d=" M 0 0 L 1500 0 L 1500 955 L 0 955 L 0 0 Z"
         id="path824" />
    </clipPath>
  </defs>
  <path
     fill="none"
     stroke="#006400"
     paint-order="fill stroke markers"
     d="m 463.73422,772.59971 0.63216,-7.11635 0.63217,-5.851 0.63216,-5.37278 0.63216,-5.06187 1.26432,-9.47615 1.26432,-8.85228 m 0,0 1.46485,-9.68154 1.46484,-9.19733 1.46485,-8.80201 1.46484,-8.46765 m 0,0 1.46484,-8.17767 1.46485,-7.9215 1.46484,-7.69194 1.46484,-7.48385 1.46485,-7.2935 1.46484,-7.11798 1.46485,-6.95511 1.46484,-6.80312 1.46484,-6.66061 1.46485,-6.5264 1.46484,-6.39955 1.46484,-6.27926 1.46485,-6.16485 1.46484,-6.05574 1.46485,-5.95144 1.46484,-5.85152 1.46484,-5.7556 1.46485,-5.66334 1.46484,-5.57448 1.46484,-5.48874 1.46485,-5.40588 1.46484,-5.32574 1.46485,-5.24808 1.46484,-5.17278 1.46484,-5.09966 1.46485,-5.0286 2.92968,-9.85162 2.92969,-9.58913 2.92969,-9.33926 2.92969,-9.10071 2.92968,-8.87236 2.92969,-8.65327 2.92969,-8.44261 2.92969,-8.23965 2.92968,-8.04376 2.92969,-7.85436 2.92969,-7.67098 2.92969,-7.49313 2.92968,-7.32047 2.92969,-7.15258 2.92969,-6.98917 2.92969,-6.82995 2.92968,-6.67464 2.92969,-6.52298 2.92969,-6.37479 m 0,0 2.92969,-6.22983 2.92968,-6.08792 2.92969,-5.94889 2.92969,-5.81259 2.92969,-5.67886 2.92968,-5.54757 2.92969,-5.41857 2.92969,-5.29177 2.92969,-5.16706 2.92968,-5.0443 5.85938,-9.72778 5.85937,-9.25817 5.85938,-8.80122 5.85937,-8.35579 5.85938,-7.92085 5.85937,-7.49548 5.85938,-7.07884 5.85937,-6.67018 5.85938,-6.26879 5.85937,-5.87407 5.85938,-5.48541 5.85937,-5.10226 5.85938,-4.72415 5.85937,-4.35059 5.85938,-3.98113 5.85937,-3.61538 5.85938,-3.25293 5.85937,-2.89341 5.85938,-2.53646 5.85937,-2.18175 5.85938,-1.82893 5.85937,-1.4777 5.85938,-1.12774 5.85937,-0.77872 5.85938,-0.43039 5.85937,-0.0824 5.85938,0.26549 5.85937,0.61363 5.85938,0.96228 5.85937,1.31176 5.85938,1.66235 5.85937,2.01437 5.85938,2.36815 5.85937,2.724 5.85938,3.08225 5.85937,3.44327 5.85938,3.80741 5.85937,4.17506 5.85938,4.54663 5.85937,4.92252 5.85938,5.30323 5.85937,5.6892 5.85938,6.081 5.85937,6.47914 5.85938,6.88427 5.85937,7.29704 5.85938,7.71818 5.85937,8.14848 5.85938,8.58881 5.85937,9.04017 5.85938,9.50364 5.85937,9.98042 2.92969,5.17354 2.92969,5.29838 2.92969,5.42528 2.92968,5.55439 2.92969,5.68581 2.92969,5.81967 2.92969,5.95612 2.92968,6.09529 2.92969,6.23735 2.92969,6.38248 2.92969,6.53085 2.92968,6.68269 2.92969,6.8382 2.92969,6.99764 m 0,0 2.92969,7.16127 2.92968,7.3294 2.92969,7.50233 2.92969,7.68045 2.92969,7.86414 2.92968,8.05387 2.92969,8.25011 2.92969,8.45346 2.92969,8.66455 2.92968,8.8841 2.92969,9.11295 2.92969,9.35207 2.92969,9.60257 2.92968,9.86577 1.46485,5.03596 1.46484,5.10723 1.46485,5.18057 1.46484,5.25612 m 0,0 1.46484,5.33402 1.46485,5.41444 1.46484,5.49759 1.46484,5.58365 1.46485,5.67286 1.46484,5.76548 1.46485,5.8618 1.4648,5.96217 1.4649,6.06696 1.4648,6.17659 1.4649,6.29159 1.4648,6.41254 1.4649,6.54011 1.4648,6.67514 1.4649,6.8186 1.4648,6.97166 m 0,0 1.4648,7.13576 1.4649,7.31272 1.4648,7.5048 1.4649,7.71493 1.4648,7.94702 1.4648,8.20635 1.4649,8.5004 1.4648,8.84026 m 0,0 1.4649,9.2433 1.4648,9.73927 0.7324,5.09896 0.7325,5.28684 0.7324,5.51499 0.7324,5.80591 m 0,0 0.987,8.49936 0.4935,4.74409 0.4935,5.73169"
     stroke-opacity="0.698039"
     stroke-linecap="round"
     stroke-linejoin="round"
     stroke-miterlimit="10"
     stroke-width="2.5"
     id="path831"
     style="stroke:#d40000;stroke-opacity:0.69803923" />
  <path
     fill="#000000"
     stroke="none"
     paint-order="stroke fill markers"
     d="m 467.73422,772.59971 c 0,2.20914 -1.79086,4 -4,4 -2.20914,0 -4,-1.79086 -4,-4 0,-2.20914 1.79086,-4 4,-4 2.20914,0 4,1.79086 4,4 z"
     fill-opacity="1"
     id="path833" />
  <path
     fill="none"
     stroke="#000000"
     paint-order="fill stroke markers"
     d="m 467.73422,772.59971 c 0,2.20914 -1.79086,4 -4,4 -2.20914,0 -4,-1.79086 -4,-4 0,-2.20914 1.79086,-4 4,-4 2.20914,0 4,1.79086 4,4 z"
     stroke-opacity="1"
     stroke-linecap="round"
     stroke-linejoin="round"
     stroke-miterlimit="10"
     id="path835" />
  <g
     transform="matrix(19,0,0,19,193.40089,12.96429)"
     id="g841">
    <g
       transform="translate(14.526316,41.170316)"
       id="g839">
      <path
         fill="#000000"
         stroke="none"
         paint-order="stroke fill markers"
         d="m 0.46,-0.32 q 0,0.146 -0.037,0.226 Q 0.364,0.018 0.249,0.022 0.158,0.022 0.103,-0.05 0.092,-0.063 0.084,-0.079 0.039,-0.162 0.039,-0.32 q 0,-0.147 0.037,-0.227 0.05,-0.112 0.162,-0.119 H 0.25 q 0.089,0 0.145,0.071 v 0.001 q 0.014,0.018 0.025,0.04 0.04,0.085 0.04,0.234 M 0.249,0 v 0 q 0.063,0 0.097,-0.061 0.014,-0.027 0.02,-0.064 0.011,-0.064 0.011,-0.207 0,-0.139 -0.01,-0.195 -0.018,-0.095 -0.092,-0.114 -0.013,-0.003 -0.026,-0.003 -0.07,0 -0.102,0.07 -0.011,0.024 -0.017,0.058 -0.008,0.054 -0.008,0.184 0,0.151 0.011,0.211 0.018,0.096 0.088,0.117 Q 0.235,0 0.249,0 Z"
         id="path837" />
    </g>
  </g>
  <path
     fill="#000000"
     stroke="none"
     paint-order="stroke fill markers"
     d="m 1038.2655,772.59971 c 0,2.76142 -2.2386,5 -5,5 -2.7614,0 -5,-2.23858 -5,-5 0,-2.76143 2.2386,-5 5,-5 2.7614,0 5,2.23857 5,5 z"
     fill-opacity="1"
     id="path843" />
  <path
     fill="none"
     stroke="#000000"
     paint-order="fill stroke markers"
     d="m 1038.2655,772.59971 c 0,2.76142 -2.2386,5 -5,5 -2.7614,0 -5,-2.23858 -5,-5 0,-2.76143 2.2386,-5 5,-5 2.7614,0 5,2.23857 5,5 z"
     stroke-opacity="1"
     stroke-linecap="round"
     stroke-linejoin="round"
     stroke-miterlimit="10"
     id="path845" />
  <g
     transform="matrix(19,0,0,19,193.40089,12.96429)"
     id="g851">
    <g
       transform="translate(43.789474,41.591368)"
       id="g849">
      <path
         fill="#000000"
         stroke="none"
         paint-order="stroke fill markers"
         d="m 0.294,-0.64 v 0.561 q 0,0.03 0.012,0.038 0.017,0.01 0.081,0.01 H 0.419 V 0 Q 0.384,-0.003 0.257,-0.003 0.13,-0.003 0.095,0 v -0.031 h 0.032 q 0.077,0 0.088,-0.018 L 0.216,-0.05 Q 0.22,-0.058 0.22,-0.079 v -0.518 q -0.052,0.026 -0.131,0.026 v -0.031 q 0.12,0 0.182,-0.064 0.019,0 0.022,0.007 v 0 0.001 q 0.001,0.003 0.001,0.018 z"
         id="path847" />
    </g>
  </g>
  <path
     fill="#000000"
     stroke="none"
     paint-order="stroke fill markers"
     d="m 753.49985,203.06846 c 0,2.76142 -2.23858,5 -5,5 -2.76143,0 -5,-2.23858 -5,-5 0,-2.76143 2.23857,-5 5,-5 2.76142,0 5,2.23857 5,5 z"
     fill-opacity="1"
     id="path853" />
  <path
     fill="none"
     stroke="#000000"
     paint-order="fill stroke markers"
     d="m 753.49985,203.06846 c 0,2.76142 -2.23858,5 -5,5 -2.76143,0 -5,-2.23858 -5,-5 0,-2.76143 2.23857,-5 5,-5 2.76142,0 5,2.23857 5,5 z"
     stroke-opacity="1"
     stroke-linecap="round"
     stroke-linejoin="round"
     stroke-miterlimit="10"
     id="path855" />
  <g
     transform="matrix(19,0,0,19,193.40089,12.96429)"
     id="g889">
    <g
       transform="translate(30.263158,9.6447368)"
       id="g859">
      <path
         fill="#000000"
         stroke="none"
         paint-order="stroke fill markers"
         d="m 0.177,-0.694 v 0.618 q 0,0.034 0.016,0.04 0.011,0.005 0.062,0.005 V 0 L 0.144,-0.003 Q 0.132,-0.003 0.033,0 v -0.031 q 0.059,0 0.069,-0.009 L 0.104,-0.042 Q 0.111,-0.05 0.111,-0.076 v -0.52 q 0,-0.039 -0.014,-0.048 H 0.096 Q 0.085,-0.65 0.058,-0.652 H 0.033 v -0.031 z"
         id="path857" />
    </g>
    <g
       transform="translate(30.541158,9.6447368)"
       id="g863">
      <path
         fill="#000000"
         stroke="none"
         paint-order="stroke fill markers"
         d="m 0.471,-0.214 v 0 q 0,0.103 -0.076,0.17 -0.063,0.055 -0.146,0.055 -0.096,0 -0.162,-0.072 -0.059,-0.065 -0.059,-0.153 0,-0.102 0.073,-0.172 0.063,-0.062 0.149,-0.062 0.097,0 0.163,0.077 0.058,0.067 0.058,0.157 m -0.221,0.2 v 0 q 0.067,0 0.106,-0.056 l 0.01,-0.018 q 0.022,-0.044 0.022,-0.134 0,-0.096 -0.026,-0.139 -0.043,-0.062 -0.113,-0.065 -0.062,0 -0.102,0.05 -0.007,0.008 -0.012,0.017 -0.024,0.044 -0.024,0.137 0,0.097 0.025,0.141 0.042,0.065 0.114,0.067 z"
         id="path861" />
    </g>
    <g
       transform="translate(31.041158,9.6447368)"
       id="g867">
      <path
         fill="#000000"
         stroke="none"
         paint-order="stroke fill markers"
         d="m 0.222,-0.172 q 0.044,0 0.071,-0.04 0.016,-0.027 0.016,-0.084 -0.004,-0.12 -0.087,-0.123 -0.044,0 -0.071,0.04 -0.016,0.027 -0.016,0.084 0.004,0.12 0.087,0.123 M 0.123,-0.18 q -0.017,0.02 -0.017,0.047 0,0.041 0.032,0.06 0.01,0.006 0.021,0.007 0.007,0.001 0.075,0.001 0.103,0 0.15,0.018 0.011,0.004 0.022,0.01 0.061,0.04 0.065,0.114 0,0.065 -0.084,0.102 -0.06,0.027 -0.138,0.027 -0.116,0 -0.181,-0.054 -0.04,-0.032 -0.04,-0.073 0,-0.05 0.051,-0.082 0.018,-0.012 0.041,-0.018 -0.041,-0.032 -0.044,-0.089 0,-0.047 0.031,-0.083 -0.045,-0.043 -0.047,-0.103 0,-0.069 0.06,-0.113 0.044,-0.033 0.102,-0.033 0.06,0 0.106,0.036 0.048,-0.047 0.106,-0.047 0.039,0 0.049,0.036 0.002,0.006 0.002,0.013 -0.004,0.026 -0.029,0.03 -0.022,0 -0.028,-0.021 -0.001,-0.004 -0.001,-0.008 0,-0.021 0.016,-0.027 -0.003,-0.001 -0.01,-0.001 -0.049,0 -0.09,0.039 0.041,0.038 0.041,0.097 0,0.069 -0.06,0.113 -0.044,0.033 -0.102,0.033 -0.056,0 -0.099,-0.031 M 0.25,0.183 v 0 q 0.095,0 0.144,-0.05 0.025,-0.025 0.025,-0.054 0,-0.074 -0.118,-0.084 v 0 H 0.3 Q 0.274,-0.007 0.221,-0.007 H 0.162 Q 0.115,-0.004 0.091,0.038 0.08,0.057 0.08,0.079 q 0,0.047 0.058,0.078 0.047,0.026 0.112,0.026 z"
         id="path865" />
    </g>
    <g
       transform="translate(31.555158,9.6447368)"
       id="g871">
      <path
         fill="#000000"
         stroke="none"
         paint-order="stroke fill markers"
         d="m 0.331,0.24 v 0 q 0,0.01 -0.01,0.01 Q 0.309,0.25 0.268,0.209 0.206,0.147 0.165,0.062 0.099,-0.074 0.099,-0.25 q 0,-0.169 0.063,-0.305 0.052,-0.111 0.132,-0.178 0.021,-0.017 0.027,-0.017 0.01,0 0.01,0.01 0,0.005 -0.013,0.017 -0.161,0.164 -0.161,0.473 0,0.308 0.157,0.468 0.017,0.017 0.017,0.022 z"
         id="path869" />
    </g>
    <g
       transform="translate(31.944158,9.6447368)"
       id="g875">
      <path
         fill="#000000"
         stroke="none"
         paint-order="stroke fill markers"
         d="m 0.449,-0.174 v 0 L 0.421,0 H 0.05 q 0,-0.025 0.006,-0.032 l 0.005,-0.005 0.192,-0.214 q 0.105,-0.118 0.105,-0.221 0,-0.089 -0.054,-0.135 L 0.303,-0.608 H 0.302 Q 0.27,-0.635 0.224,-0.635 q -0.072,0 -0.115,0.062 -0.012,0.018 -0.02,0.04 0.003,-0.001 0.013,-0.001 0.04,0 0.051,0.036 v 0.001 q 0.002,0.007 0.002,0.015 0,0.04 -0.038,0.051 -0.008,0.002 -0.014,0.002 -0.037,0 -0.049,-0.031 -0.004,-0.011 -0.004,-0.025 0,-0.077 0.059,-0.132 0.053,-0.049 0.128,-0.049 0.11,0 0.171,0.074 0.035,0.043 0.04,0.102 0.001,0.009 0.001,0.018 0,0.073 -0.055,0.139 -0.029,0.034 -0.09,0.09 l -0.061,0.054 -0.01,0.009 -0.106,0.103 h 0.18 q 0.088,0 0.095,-0.008 0.01,-0.014 0.022,-0.089 z"
         id="path873" />
    </g>
    <g
       transform="translate(32.444158,9.6447368)"
       id="g879">
      <path
         fill="#000000"
         stroke="none"
         paint-order="stroke fill markers"
         d="m 0.289,-0.25 v 0 q 0,0.169 -0.063,0.305 Q 0.174,0.166 0.094,0.233 0.073,0.25 0.067,0.25 q -0.01,0 -0.01,-0.01 0,-0.005 0.013,-0.017 0.161,-0.164 0.161,-0.473 0,-0.305 -0.15,-0.462 L 0.076,-0.717 Q 0.057,-0.735 0.057,-0.74 q 0,-0.01 0.01,-0.01 0.012,0 0.053,0.041 0.062,0.062 0.103,0.147 0.066,0.136 0.066,0.312 z"
         id="path877" />
    </g>
    <g
       transform="translate(33.110936,9.6447368)"
       id="g883">
      <path
         fill="#000000"
         stroke="none"
         paint-order="stroke fill markers"
         d="M 0.687,-0.327 H 0.09 q -0.032,0 -0.034,-0.02 0,-0.02 0.033,-0.02 h 0.599 q 0.032,0 0.033,0.02 0,0.02 -0.034,0.02 m 10e-4,0.194 H 0.089 q -0.032,0 -0.033,-0.02 0,-0.02 0.034,-0.02 h 0.597 q 0.032,0 0.034,0.02 0,0.02 -0.033,0.02 z"
         id="path881" />
    </g>
    <g
       transform="translate(34.166713,9.6447368)"
       id="g887">
      <path
         fill="#000000"
         stroke="none"
         paint-order="stroke fill markers"
         d="m 0.294,-0.64 v 0.561 q 0,0.03 0.012,0.038 0.017,0.01 0.081,0.01 H 0.419 V 0 Q 0.384,-0.003 0.257,-0.003 0.13,-0.003 0.095,0 v -0.031 h 0.032 q 0.077,0 0.088,-0.018 L 0.216,-0.05 Q 0.22,-0.058 0.22,-0.079 v -0.518 q -0.052,0.026 -0.131,0.026 v -0.031 q 0.12,0 0.182,-0.064 0.019,0 0.022,0.007 v 0 0.001 q 0.001,0.003 0.001,0.018 z"
         id="path885" />
    </g>
  </g>
  <path
     style="fill:none;stroke:#000000;stroke-width:1px;stroke-linecap:butt;stroke-linejoin:miter;stroke-opacity:1"
     d="m 463.73422,158.00482 c 0,614.59489 0,614.59489 0,614.59489 h 670.78628"
     id="path1396" />
</svg>
