<svg version="1.1" xmlns="http://www.w3.org/2000/svg" xmlns:xlink="http://www.w3.org/1999/xlink" width="1500" height="955"><defs><clipPath id="cRWpxGTUdPCn"><path fill="none" stroke="none" d=" M 0 0 L 1500 0 L 1500 955 L 0 955 L 0 0 Z"/></clipPath></defs><g transform="scale(1,1)" clip-path="url(#cRWpxGTUdPCn)"><g><rect fill="rgb(255,255,255)" stroke="none" x="0" y="0" width="1500" height="955" fill-opacity="1"/><path fill="rgb(0,0,0)" stroke="none" paint-order="stroke fill markers" d=" M 445 252.49999999999994 C 445 255.26142374915392 442.76142374915395 257.49999999999994 440 257.49999999999994 C 437.23857625084605 257.49999999999994 435 255.26142374915392 435 252.49999999999994 C 435 249.73857625084597 437.23857625084605 247.49999999999994 440 247.49999999999994 C 442.76142374915395 247.49999999999994 445 249.73857625084597 445 252.49999999999994 Z" fill-opacity="1"/><path fill="none" stroke="rgb(0,0,0)" paint-order="fill stroke markers" d=" M 445 252.49999999999994 C 445 255.26142374915392 442.76142374915395 257.49999999999994 440 257.49999999999994 C 437.23857625084605 257.49999999999994 435 255.26142374915392 435 252.49999999999994 C 435 249.73857625084597 437.23857625084605 247.49999999999994 440 247.49999999999994 C 442.76142374915395 247.49999999999994 445 249.73857625084597 445 252.49999999999994 Z" stroke-opacity="1" stroke-linecap="round" stroke-linejoin="round" stroke-miterlimit="10"/><path fill="rgb(0,0,0)" stroke="none" paint-order="stroke fill markers" d=" M 445 352.4999999999999 C 445 355.26142374915383 442.76142374915395 357.4999999999999 440 357.4999999999999 C 437.23857625084605 357.4999999999999 435 355.26142374915383 435 352.4999999999999 C 435 349.73857625084594 437.23857625084605 347.4999999999999 440 347.4999999999999 C 442.76142374915395 347.4999999999999 445 349.73857625084594 445 352.4999999999999 Z" fill-opacity="1"/><path fill="none" stroke="rgb(0,0,0)" paint-order="fill stroke markers" d=" M 445 352.4999999999999 C 445 355.26142374915383 442.76142374915395 357.4999999999999 440 357.4999999999999 C 437.23857625084605 357.4999999999999 435 355.26142374915383 435 352.4999999999999 C 435 349.73857625084594 437.23857625084605 347.4999999999999 440 347.4999999999999 C 442.76142374915395 347.4999999999999 445 349.73857625084594 445 352.4999999999999 Z" stroke-opacity="1" stroke-linecap="round" stroke-linejoin="round" stroke-miterlimit="10"/><path fill="rgb(0,0,0)" stroke="none" paint-order="stroke fill markers" d=" M 445 452.4999999999999 C 445 455.26142374915383 442.76142374915395 457.4999999999999 440 457.4999999999999 C 437.23857625084605 457.4999999999999 435 455.26142374915383 435 452.4999999999999 C 435 449.73857625084594 437.23857625084605 447.4999999999999 440 447.4999999999999 C 442.76142374915395 447.4999999999999 445 449.73857625084594 445 452.4999999999999 Z" fill-opacity="1"/><path fill="none" stroke="rgb(0,0,0)" paint-order="fill stroke markers" d=" M 445 452.4999999999999 C 445 455.26142374915383 442.76142374915395 457.4999999999999 440 457.4999999999999 C 437.23857625084605 457.4999999999999 435 455.26142374915383 435 452.4999999999999 C 435 449.73857625084594 437.23857625084605 447.4999999999999 440 447.4999999999999 C 442.76142374915395 447.4999999999999 445 449.73857625084594 445 452.4999999999999 Z" stroke-opacity="1" stroke-linecap="round" stroke-linejoin="round" stroke-miterlimit="10"/><path fill="rgb(0,0,0)" stroke="none" paint-order="stroke fill markers" d=" M 445 552.4999999999998 C 445 555.2614237491538 442.76142374915395 557.4999999999998 440 557.4999999999998 C 437.23857625084605 557.4999999999998 435 555.2614237491538 435 552.4999999999998 C 435 549.7385762508458 437.23857625084605 547.4999999999998 440 547.4999999999998 C 442.76142374915395 547.4999999999998 445 549.7385762508458 445 552.4999999999998 Z" fill-opacity="1"/><path fill="none" stroke="rgb(0,0,0)" paint-order="fill stroke markers" d=" M 445 552.4999999999998 C 445 555.2614237491538 442.76142374915395 557.4999999999998 440 557.4999999999998 C 437.23857625084605 557.4999999999998 435 555.2614237491538 435 552.4999999999998 C 435 549.7385762508458 437.23857625084605 547.4999999999998 440 547.4999999999998 C 442.76142374915395 547.4999999999998 445 549.7385762508458 445 552.4999999999998 Z" stroke-opacity="1" stroke-linecap="round" stroke-linejoin="round" stroke-miterlimit="10"/><path fill="rgb(0,0,0)" stroke="none" paint-order="stroke fill markers" d=" M 445 652.4999999999998 C 445 655.2614237491538 442.76142374915395 657.4999999999998 440 657.4999999999998 C 437.23857625084605 657.4999999999998 435 655.2614237491538 435 652.4999999999998 C 435 649.7385762508458 437.23857625084605 647.4999999999998 440 647.4999999999998 C 442.76142374915395 647.4999999999998 445 649.7385762508458 445 652.4999999999998 Z" fill-opacity="1"/><path fill="none" stroke="rgb(0,0,0)" paint-order="fill stroke markers" d=" M 445 652.4999999999998 C 445 655.2614237491538 442.76142374915395 657.4999999999998 440 657.4999999999998 C 437.23857625084605 657.4999999999998 435 655.2614237491538 435 652.4999999999998 C 435 649.7385762508458 437.23857625084605 647.4999999999998 440 647.4999999999998 C 442.76142374915395 647.4999999999998 445 649.7385762508458 445 652.4999999999998 Z" stroke-opacity="1" stroke-linecap="round" stroke-linejoin="round" stroke-miterlimit="10"/><path fill="rgb(0,0,0)" stroke="none" paint-order="stroke fill markers" d=" M 845 652.4999999999998 C 845 655.2614237491538 842.761423749154 657.4999999999998 840 657.4999999999998 C 837.238576250846 657.4999999999998 835 655.2614237491538 835 652.4999999999998 C 835 649.7385762508458 837.238576250846 647.4999999999998 840 647.4999999999998 C 842.761423749154 647.4999999999998 845 649.7385762508458 845 652.4999999999998 Z" fill-opacity="1"/><path fill="none" stroke="rgb(0,0,0)" paint-order="fill stroke markers" d=" M 845 652.4999999999998 C 845 655.2614237491538 842.761423749154 657.4999999999998 840 657.4999999999998 C 837.238576250846 657.4999999999998 835 655.2614237491538 835 652.4999999999998 C 835 649.7385762508458 837.238576250846 647.4999999999998 840 647.4999999999998 C 842.761423749154 647.4999999999998 845 649.7385762508458 845 652.4999999999998 Z" stroke-opacity="1" stroke-linecap="round" stroke-linejoin="round" stroke-miterlimit="10"/><path fill="rgb(0,0,0)" stroke="none" paint-order="stroke fill markers" d=" M 845 552.4999999999998 C 845 555.2614237491538 842.761423749154 557.4999999999998 840 557.4999999999998 C 837.238576250846 557.4999999999998 835 555.2614237491538 835 552.4999999999998 C 835 549.7385762508458 837.238576250846 547.4999999999998 840 547.4999999999998 C 842.761423749154 547.4999999999998 845 549.7385762508458 845 552.4999999999998 Z" fill-opacity="1"/><path fill="none" stroke="rgb(0,0,0)" paint-order="fill stroke markers" d=" M 845 552.4999999999998 C 845 555.2614237491538 842.761423749154 557.4999999999998 840 557.4999999999998 C 837.238576250846 557.4999999999998 835 555.2614237491538 835 552.4999999999998 C 835 549.7385762508458 837.238576250846 547.4999999999998 840 547.4999999999998 C 842.761423749154 547.4999999999998 845 549.7385762508458 845 552.4999999999998 Z" stroke-opacity="1" stroke-linecap="round" stroke-linejoin="round" stroke-miterlimit="10"/><path fill="rgb(0,0,0)" stroke="none" paint-order="stroke fill markers" d=" M 845 452.4999999999999 C 845 455.26142374915383 842.761423749154 457.4999999999999 840 457.4999999999999 C 837.238576250846 457.4999999999999 835 455.26142374915383 835 452.4999999999999 C 835 449.73857625084594 837.238576250846 447.4999999999999 840 447.4999999999999 C 842.761423749154 447.4999999999999 845 449.73857625084594 845 452.4999999999999 Z" fill-opacity="1"/><path fill="none" stroke="rgb(0,0,0)" paint-order="fill stroke markers" d=" M 845 452.4999999999999 C 845 455.26142374915383 842.761423749154 457.4999999999999 840 457.4999999999999 C 837.238576250846 457.4999999999999 835 455.26142374915383 835 452.4999999999999 C 835 449.73857625084594 837.238576250846 447.4999999999999 840 447.4999999999999 C 842.761423749154 447.4999999999999 845 449.73857625084594 845 452.4999999999999 Z" stroke-opacity="1" stroke-linecap="round" stroke-linejoin="round" stroke-miterlimit="10"/><path fill="rgb(0,0,0)" stroke="none" paint-order="stroke fill markers" d=" M 845 352.4999999999999 C 845 355.26142374915383 842.761423749154 357.4999999999999 840 357.4999999999999 C 837.238576250846 357.4999999999999 835 355.26142374915383 835 352.4999999999999 C 835 349.73857625084594 837.238576250846 347.4999999999999 840 347.4999999999999 C 842.761423749154 347.4999999999999 845 349.73857625084594 845 352.4999999999999 Z" fill-opacity="1"/><path fill="none" stroke="rgb(0,0,0)" paint-order="fill stroke markers" d=" M 845 352.4999999999999 C 845 355.26142374915383 842.761423749154 357.4999999999999 840 357.4999999999999 C 837.238576250846 357.4999999999999 835 355.26142374915383 835 352.4999999999999 C 835 349.73857625084594 837.238576250846 347.4999999999999 840 347.4999999999999 C 842.761423749154 347.4999999999999 845 349.73857625084594 845 352.4999999999999 Z" stroke-opacity="1" stroke-linecap="round" stroke-linejoin="round" stroke-miterlimit="10"/><path fill="rgb(0,0,0)" stroke="none" paint-order="stroke fill markers" d=" M 845 252.49999999999994 C 845 255.26142374915392 842.761423749154 257.49999999999994 840 257.49999999999994 C 837.238576250846 257.49999999999994 835 255.26142374915392 835 252.49999999999994 C 835 249.73857625084597 837.238576250846 247.49999999999994 840 247.49999999999994 C 842.761423749154 247.49999999999994 845 249.73857625084597 845 252.49999999999994 Z" fill-opacity="1"/><path fill="none" stroke="rgb(0,0,0)" paint-order="fill stroke markers" d=" M 845 252.49999999999994 C 845 255.26142374915392 842.761423749154 257.49999999999994 840 257.49999999999994 C 837.238576250846 257.49999999999994 835 255.26142374915392 835 252.49999999999994 C 835 249.73857625084597 837.238576250846 247.49999999999994 840 247.49999999999994 C 842.761423749154 247.49999999999994 845 249.73857625084597 845 252.49999999999994 Z" stroke-opacity="1" stroke-linecap="round" stroke-linejoin="round" stroke-miterlimit="10"/></g></g></svg>