<?xml version="1.0" encoding="UTF-8" standalone="no"?>
<svg
   version="1.1"
   width="1500"
   height="955"
   id="svg1058"
   sodipodi:docname="dmc_4.svg"
   inkscape:version="1.1.1 (3bf5ae0d25, 2021-09-20, custom)"
   xmlns:inkscape="http://www.inkscape.org/namespaces/inkscape"
   xmlns:sodipodi="http://sodipodi.sourceforge.net/DTD/sodipodi-0.dtd"
   xmlns:xlink="http://www.w3.org/1999/xlink"
   xmlns="http://www.w3.org/2000/svg"
   xmlns:svg="http://www.w3.org/2000/svg">
  <sodipodi:namedview
     id="namedview1060"
     pagecolor="#ffffff"
     bordercolor="#666666"
     borderopacity="1.0"
     inkscape:pageshadow="2"
     inkscape:pageopacity="0.0"
     inkscape:pagecheckerboard="0"
     showgrid="false"
     showguides="true"
     inkscape:guide-bbox="true"
     inkscape:zoom="0.78743455"
     inkscape:cx="749.90359"
     inkscape:cy="477.5"
     inkscape:window-width="1888"
     inkscape:window-height="1008"
     inkscape:window-x="13"
     inkscape:window-y="53"
     inkscape:window-maximized="1"
     inkscape:current-layer="svg1058" />
  <defs
     id="defs1026">
    <clipPath
       id="BfiQofIJaZSf">
      <path
         fill="none"
         stroke="none"
         d=" M 0 0 L 1500 0 L 1500 955 L 0 955 L 0 0 Z"
         id="path1023" />
    </clipPath>
    <g
       id="g1322">
      <symbol
         overflow="visible"
         id="symbol7665">
        <path
           style="stroke:none;"
           d=""
           id="path1331" />
      </symbol>
      <symbol
         overflow="visible"
         id="symbol2369">
        <path
           style="stroke:none;"
           d="M 2.9375 -6.375 C 2.9375 -6.625 2.9375 -6.640625 2.703125 -6.640625 C 2.078125 -6 1.203125 -6 0.890625 -6 L 0.890625 -5.6875 C 1.09375 -5.6875 1.671875 -5.6875 2.1875 -5.953125 L 2.1875 -0.78125 C 2.1875 -0.421875 2.15625 -0.3125 1.265625 -0.3125 L 0.953125 -0.3125 L 0.953125 0 C 1.296875 -0.03125 2.15625 -0.03125 2.5625 -0.03125 C 2.953125 -0.03125 3.828125 -0.03125 4.171875 0 L 4.171875 -0.3125 L 3.859375 -0.3125 C 2.953125 -0.3125 2.9375 -0.421875 2.9375 -0.78125 Z M 2.9375 -6.375 "
           id="path2627" />
      </symbol>
    </g>
    <g
       id="g5080">
      <symbol
         overflow="visible"
         id="symbol2541">
        <path
           style="stroke:none;"
           d=""
           id="path8960" />
      </symbol>
      <symbol
         overflow="visible"
         id="symbol958">
        <path
           style="stroke:none;"
           d="M 6.5625 -2.296875 C 6.734375 -2.296875 6.921875 -2.296875 6.921875 -2.5 C 6.921875 -2.6875 6.734375 -2.6875 6.5625 -2.6875 L 1.171875 -2.6875 C 1 -2.6875 0.828125 -2.6875 0.828125 -2.5 C 0.828125 -2.296875 1 -2.296875 1.171875 -2.296875 Z M 6.5625 -2.296875 "
           id="path8616" />
      </symbol>
      <symbol
         overflow="visible"
         id="symbol8943">
        <path
           style="stroke:none;"
           d=""
           id="path1507" />
      </symbol>
      <symbol
         overflow="visible"
         id="symbol5133">
        <path
           style="stroke:none;"
           d="M 2.9375 -6.375 C 2.9375 -6.625 2.9375 -6.640625 2.703125 -6.640625 C 2.078125 -6 1.203125 -6 0.890625 -6 L 0.890625 -5.6875 C 1.09375 -5.6875 1.671875 -5.6875 2.1875 -5.953125 L 2.1875 -0.78125 C 2.1875 -0.421875 2.15625 -0.3125 1.265625 -0.3125 L 0.953125 -0.3125 L 0.953125 0 C 1.296875 -0.03125 2.15625 -0.03125 2.5625 -0.03125 C 2.953125 -0.03125 3.828125 -0.03125 4.171875 0 L 4.171875 -0.3125 L 3.859375 -0.3125 C 2.953125 -0.3125 2.9375 -0.421875 2.9375 -0.78125 Z M 2.9375 -6.375 "
           id="path5482" />
      </symbol>
    </g>
    <g
       id="g4631">
      <symbol
         overflow="visible"
         id="symbol6929">
        <path
           style="stroke:none;"
           d=""
           id="path6789" />
      </symbol>
      <symbol
         overflow="visible"
         id="symbol5186">
        <path
           style="stroke:none;"
           d="M 1.265625 -0.765625 L 2.328125 -1.796875 C 3.875 -3.171875 4.46875 -3.703125 4.46875 -4.703125 C 4.46875 -5.84375 3.578125 -6.640625 2.359375 -6.640625 C 1.234375 -6.640625 0.5 -5.71875 0.5 -4.828125 C 0.5 -4.28125 1 -4.28125 1.03125 -4.28125 C 1.203125 -4.28125 1.546875 -4.390625 1.546875 -4.8125 C 1.546875 -5.0625 1.359375 -5.328125 1.015625 -5.328125 C 0.9375 -5.328125 0.921875 -5.328125 0.890625 -5.3125 C 1.109375 -5.96875 1.65625 -6.328125 2.234375 -6.328125 C 3.140625 -6.328125 3.5625 -5.515625 3.5625 -4.703125 C 3.5625 -3.90625 3.078125 -3.125 2.515625 -2.5 L 0.609375 -0.375 C 0.5 -0.265625 0.5 -0.234375 0.5 0 L 4.203125 0 L 4.46875 -1.734375 L 4.234375 -1.734375 C 4.171875 -1.4375 4.109375 -1 4 -0.84375 C 3.9375 -0.765625 3.28125 -0.765625 3.0625 -0.765625 Z M 1.265625 -0.765625 "
           id="path2405" />
      </symbol>
    </g>
    <g
       id="g4291">
      <symbol
         overflow="visible"
         id="symbol1835">
        <path
           style="stroke:none;"
           d=""
           id="path6854" />
      </symbol>
      <symbol
         overflow="visible"
         id="symbol248">
        <path
           style="stroke:none;"
           d="M 6.5625 -2.296875 C 6.734375 -2.296875 6.921875 -2.296875 6.921875 -2.5 C 6.921875 -2.6875 6.734375 -2.6875 6.5625 -2.6875 L 1.171875 -2.6875 C 1 -2.6875 0.828125 -2.6875 0.828125 -2.5 C 0.828125 -2.296875 1 -2.296875 1.171875 -2.296875 Z M 6.5625 -2.296875 "
           id="path231" />
      </symbol>
      <symbol
         overflow="visible"
         id="symbol8628">
        <path
           style="stroke:none;"
           d=""
           id="path364" />
      </symbol>
      <symbol
         overflow="visible"
         id="symbol7239">
        <path
           style="stroke:none;"
           d="M 1.265625 -0.765625 L 2.328125 -1.796875 C 3.875 -3.171875 4.46875 -3.703125 4.46875 -4.703125 C 4.46875 -5.84375 3.578125 -6.640625 2.359375 -6.640625 C 1.234375 -6.640625 0.5 -5.71875 0.5 -4.828125 C 0.5 -4.28125 1 -4.28125 1.03125 -4.28125 C 1.203125 -4.28125 1.546875 -4.390625 1.546875 -4.8125 C 1.546875 -5.0625 1.359375 -5.328125 1.015625 -5.328125 C 0.9375 -5.328125 0.921875 -5.328125 0.890625 -5.3125 C 1.109375 -5.96875 1.65625 -6.328125 2.234375 -6.328125 C 3.140625 -6.328125 3.5625 -5.515625 3.5625 -4.703125 C 3.5625 -3.90625 3.078125 -3.125 2.515625 -2.5 L 0.609375 -0.375 C 0.5 -0.265625 0.5 -0.234375 0.5 0 L 4.203125 0 L 4.46875 -1.734375 L 4.234375 -1.734375 C 4.171875 -1.4375 4.109375 -1 4 -0.84375 C 3.9375 -0.765625 3.28125 -0.765625 3.0625 -0.765625 Z M 1.265625 -0.765625 "
           id="path7095" />
      </symbol>
    </g>
    <g
       id="g2154">
      <symbol
         overflow="visible"
         id="symbol2808">
        <path
           style="stroke:none;"
           d=""
           id="path7040" />
      </symbol>
      <symbol
         overflow="visible"
         id="symbol5460">
        <path
           style="stroke:none;"
           d="M 2.9375 -1.640625 L 2.9375 -0.78125 C 2.9375 -0.421875 2.90625 -0.3125 2.171875 -0.3125 L 1.96875 -0.3125 L 1.96875 0 C 2.375 -0.03125 2.890625 -0.03125 3.3125 -0.03125 C 3.734375 -0.03125 4.25 -0.03125 4.671875 0 L 4.671875 -0.3125 L 4.453125 -0.3125 C 3.71875 -0.3125 3.703125 -0.421875 3.703125 -0.78125 L 3.703125 -1.640625 L 4.6875 -1.640625 L 4.6875 -1.953125 L 3.703125 -1.953125 L 3.703125 -6.484375 C 3.703125 -6.6875 3.703125 -6.75 3.53125 -6.75 C 3.453125 -6.75 3.421875 -6.75 3.34375 -6.625 L 0.28125 -1.953125 L 0.28125 -1.640625 Z M 2.984375 -1.953125 L 0.5625 -1.953125 L 2.984375 -5.671875 Z M 2.984375 -1.953125 "
           id="path2178" />
      </symbol>
    </g>
    <g
       id="g6494">
      <symbol
         overflow="visible"
         id="symbol1019">
        <path
           style="stroke:none;"
           d=""
           id="path4939" />
      </symbol>
      <symbol
         overflow="visible"
         id="symbol3369">
        <path
           style="stroke:none;"
           d="M 2.9375 -6.375 C 2.9375 -6.625 2.9375 -6.640625 2.703125 -6.640625 C 2.078125 -6 1.203125 -6 0.890625 -6 L 0.890625 -5.6875 C 1.09375 -5.6875 1.671875 -5.6875 2.1875 -5.953125 L 2.1875 -0.78125 C 2.1875 -0.421875 2.15625 -0.3125 1.265625 -0.3125 L 0.953125 -0.3125 L 0.953125 0 C 1.296875 -0.03125 2.15625 -0.03125 2.5625 -0.03125 C 2.953125 -0.03125 3.828125 -0.03125 4.171875 0 L 4.171875 -0.3125 L 3.859375 -0.3125 C 2.953125 -0.3125 2.9375 -0.421875 2.9375 -0.78125 Z M 2.9375 -6.375 "
           id="path8009" />
      </symbol>
    </g>
    <g
       id="g5662">
      <symbol
         overflow="visible"
         id="symbol2352">
        <path
           style="stroke:none;"
           d=""
           id="path6077" />
      </symbol>
      <symbol
         overflow="visible"
         id="symbol2506">
        <path
           style="stroke:none;"
           d="M 3.015625 -3.15625 L 4.71875 -3.15625 C 6.125 -3.15625 7.515625 -4.1875 7.515625 -5.296875 C 7.515625 -6.078125 6.859375 -6.8125 5.546875 -6.8125 L 2.328125 -6.8125 C 2.140625 -6.8125 2.03125 -6.8125 2.03125 -6.625 C 2.03125 -6.5 2.109375 -6.5 2.3125 -6.5 C 2.4375 -6.5 2.625 -6.484375 2.734375 -6.484375 C 2.90625 -6.453125 2.953125 -6.4375 2.953125 -6.3125 C 2.953125 -6.28125 2.953125 -6.25 2.921875 -6.125 L 1.578125 -0.78125 C 1.484375 -0.390625 1.46875 -0.3125 0.671875 -0.3125 C 0.515625 -0.3125 0.40625 -0.3125 0.40625 -0.125 C 0.40625 0 0.515625 0 0.546875 0 C 0.828125 0 1.53125 -0.03125 1.8125 -0.03125 C 2.03125 -0.03125 2.25 -0.015625 2.453125 -0.015625 C 2.671875 -0.015625 2.890625 0 3.09375 0 C 3.171875 0 3.296875 0 3.296875 -0.203125 C 3.296875 -0.3125 3.203125 -0.3125 3.015625 -0.3125 C 2.65625 -0.3125 2.375 -0.3125 2.375 -0.484375 C 2.375 -0.546875 2.390625 -0.59375 2.40625 -0.65625 Z M 3.734375 -6.125 C 3.828125 -6.46875 3.84375 -6.5 4.28125 -6.5 L 5.234375 -6.5 C 6.0625 -6.5 6.59375 -6.234375 6.59375 -5.546875 C 6.59375 -5.15625 6.390625 -4.296875 6 -3.9375 C 5.5 -3.484375 4.90625 -3.40625 4.46875 -3.40625 L 3.0625 -3.40625 Z M 3.734375 -6.125 "
           id="path9770" />
      </symbol>
      <symbol
         overflow="visible"
         id="symbol9204">
        <path
           style="stroke:none;"
           d="M 4.828125 -4.09375 L 4 -6.078125 C 3.96875 -6.15625 3.953125 -6.203125 3.953125 -6.203125 C 3.953125 -6.265625 4.109375 -6.453125 4.53125 -6.5 C 4.640625 -6.515625 4.734375 -6.515625 4.734375 -6.6875 C 4.734375 -6.8125 4.609375 -6.8125 4.578125 -6.8125 C 4.171875 -6.8125 3.75 -6.78125 3.328125 -6.78125 C 3.078125 -6.78125 2.46875 -6.8125 2.21875 -6.8125 C 2.15625 -6.8125 2.03125 -6.8125 2.03125 -6.609375 C 2.03125 -6.5 2.140625 -6.5 2.265625 -6.5 C 2.859375 -6.5 2.921875 -6.40625 3.015625 -6.1875 L 4.1875 -3.40625 L 2.078125 -1.140625 L 1.953125 -1.03125 C 1.46875 -0.5 1 -0.34375 0.484375 -0.3125 C 0.359375 -0.296875 0.265625 -0.296875 0.265625 -0.109375 C 0.265625 -0.09375 0.265625 0 0.40625 0 C 0.703125 0 1.03125 -0.03125 1.328125 -0.03125 C 1.703125 -0.03125 2.09375 0 2.453125 0 C 2.515625 0 2.625 0 2.625 -0.203125 C 2.625 -0.296875 2.53125 -0.3125 2.515625 -0.3125 C 2.421875 -0.3125 2.109375 -0.34375 2.109375 -0.625 C 2.109375 -0.78125 2.265625 -0.9375 2.375 -1.0625 L 3.40625 -2.140625 L 4.296875 -3.125 L 5.296875 -0.734375 C 5.34375 -0.625 5.359375 -0.625 5.359375 -0.59375 C 5.359375 -0.515625 5.15625 -0.34375 4.78125 -0.3125 C 4.671875 -0.296875 4.578125 -0.296875 4.578125 -0.125 C 4.578125 0 4.6875 0 4.71875 0 C 5 0 5.703125 -0.03125 5.984375 -0.03125 C 6.234375 -0.03125 6.84375 0 7.09375 0 C 7.15625 0 7.28125 0 7.28125 -0.1875 C 7.28125 -0.3125 7.171875 -0.3125 7.09375 -0.3125 C 6.4375 -0.3125 6.40625 -0.34375 6.234375 -0.75 C 5.859375 -1.671875 5.1875 -3.234375 4.953125 -3.828125 C 5.625 -4.53125 6.671875 -5.71875 7 -5.984375 C 7.28125 -6.234375 7.671875 -6.46875 8.265625 -6.5 C 8.390625 -6.515625 8.484375 -6.515625 8.484375 -6.703125 C 8.484375 -6.703125 8.484375 -6.8125 8.359375 -6.8125 C 8.0625 -6.8125 7.71875 -6.78125 7.421875 -6.78125 C 7.046875 -6.78125 6.671875 -6.8125 6.3125 -6.8125 C 6.25 -6.8125 6.125 -6.8125 6.125 -6.609375 C 6.125 -6.546875 6.171875 -6.515625 6.234375 -6.5 C 6.328125 -6.484375 6.640625 -6.46875 6.640625 -6.1875 C 6.640625 -6.046875 6.53125 -5.921875 6.453125 -5.828125 Z M 4.828125 -4.09375 "
           id="path558" />
      </symbol>
      <symbol
         overflow="visible"
         id="symbol5164">
        <path
           style="stroke:none;"
           d=""
           id="path1922" />
      </symbol>
      <symbol
         overflow="visible"
         id="symbol70">
        <path
           style="stroke:none;"
           d="M 3.296875 2.390625 C 3.296875 2.359375 3.296875 2.34375 3.125 2.171875 C 1.890625 0.921875 1.5625 -0.96875 1.5625 -2.5 C 1.5625 -4.234375 1.9375 -5.96875 3.171875 -7.203125 C 3.296875 -7.328125 3.296875 -7.34375 3.296875 -7.375 C 3.296875 -7.453125 3.265625 -7.484375 3.203125 -7.484375 C 3.09375 -7.484375 2.203125 -6.796875 1.609375 -5.53125 C 1.109375 -4.4375 0.984375 -3.328125 0.984375 -2.5 C 0.984375 -1.71875 1.09375 -0.515625 1.640625 0.625 C 2.25 1.84375 3.09375 2.5 3.203125 2.5 C 3.265625 2.5 3.296875 2.46875 3.296875 2.390625 Z M 3.296875 2.390625 "
           id="path8492" />
      </symbol>
      <symbol
         overflow="visible"
         id="symbol7454">
        <path
           style="stroke:none;"
           d="M 6.84375 -3.265625 C 7 -3.265625 7.1875 -3.265625 7.1875 -3.453125 C 7.1875 -3.65625 7 -3.65625 6.859375 -3.65625 L 0.890625 -3.65625 C 0.75 -3.65625 0.5625 -3.65625 0.5625 -3.453125 C 0.5625 -3.265625 0.75 -3.265625 0.890625 -3.265625 Z M 6.859375 -1.328125 C 7 -1.328125 7.1875 -1.328125 7.1875 -1.53125 C 7.1875 -1.71875 7 -1.71875 6.84375 -1.71875 L 0.890625 -1.71875 C 0.75 -1.71875 0.5625 -1.71875 0.5625 -1.53125 C 0.5625 -1.328125 0.75 -1.328125 0.890625 -1.328125 Z M 6.859375 -1.328125 "
           id="path5713" />
      </symbol>
      <symbol
         overflow="visible"
         id="symbol6811">
        <path
           style="stroke:none;"
           d="M 2.9375 -6.375 C 2.9375 -6.625 2.9375 -6.640625 2.703125 -6.640625 C 2.078125 -6 1.203125 -6 0.890625 -6 L 0.890625 -5.6875 C 1.09375 -5.6875 1.671875 -5.6875 2.1875 -5.953125 L 2.1875 -0.78125 C 2.1875 -0.421875 2.15625 -0.3125 1.265625 -0.3125 L 0.953125 -0.3125 L 0.953125 0 C 1.296875 -0.03125 2.15625 -0.03125 2.5625 -0.03125 C 2.953125 -0.03125 3.828125 -0.03125 4.171875 0 L 4.171875 -0.3125 L 3.859375 -0.3125 C 2.953125 -0.3125 2.9375 -0.421875 2.9375 -0.78125 Z M 2.9375 -6.375 "
           id="path4759" />
      </symbol>
      <symbol
         overflow="visible"
         id="symbol6558">
        <path
           style="stroke:none;"
           d="M 2.875 -2.5 C 2.875 -3.265625 2.765625 -4.46875 2.21875 -5.609375 C 1.625 -6.828125 0.765625 -7.484375 0.671875 -7.484375 C 0.609375 -7.484375 0.5625 -7.4375 0.5625 -7.375 C 0.5625 -7.34375 0.5625 -7.328125 0.75 -7.140625 C 1.734375 -6.15625 2.296875 -4.578125 2.296875 -2.5 C 2.296875 -0.78125 1.9375 0.96875 0.703125 2.21875 C 0.5625 2.34375 0.5625 2.359375 0.5625 2.390625 C 0.5625 2.453125 0.609375 2.5 0.671875 2.5 C 0.765625 2.5 1.671875 1.8125 2.25 0.546875 C 2.765625 -0.546875 2.875 -1.65625 2.875 -2.5 Z M 2.875 -2.5 "
           id="path7300" />
      </symbol>
      <symbol
         overflow="visible"
         id="symbol9684">
        <path
           style="stroke:none;"
           d=""
           id="path6374" />
      </symbol>
      <symbol
         overflow="visible"
         id="symbol1461">
        <path
           style="stroke:none;"
           d="M 4.078125 -3.125 L 6.84375 -3.125 C 7.015625 -3.125 7.203125 -3.125 7.203125 -3.3125 C 7.203125 -3.515625 7.015625 -3.515625 6.84375 -3.515625 L 4.078125 -3.515625 L 4.078125 -6.265625 C 4.078125 -6.4375 4.078125 -6.640625 3.875 -6.640625 C 3.671875 -6.640625 3.671875 -6.453125 3.671875 -6.296875 L 3.671875 -3.515625 L 0.890625 -3.515625 C 0.734375 -3.515625 0.546875 -3.515625 0.546875 -3.3125 C 0.546875 -3.125 0.734375 -3.125 0.890625 -3.125 L 3.671875 -3.125 L 3.671875 -0.40625 L 0.890625 -0.40625 C 0.734375 -0.40625 0.546875 -0.40625 0.546875 -0.203125 C 0.546875 0 0.734375 0 0.890625 0 L 6.84375 0 C 7.015625 0 7.203125 0 7.203125 -0.203125 C 7.203125 -0.40625 7.015625 -0.40625 6.84375 -0.40625 L 4.078125 -0.40625 Z M 4.078125 -3.125 "
           id="path8307" />
      </symbol>
      <symbol
         overflow="visible"
         id="symbol8060">
        <path
           style="stroke:none;"
           d=""
           id="path9716" />
      </symbol>
      <symbol
         overflow="visible"
         id="symbol3874">
        <path
           style="stroke:none;"
           d="M 2.328125 -4.4375 C 2.328125 -4.625 2.328125 -4.625 2.125 -4.625 C 1.671875 -4.1875 1.046875 -4.1875 0.765625 -4.1875 L 0.765625 -3.9375 C 0.921875 -3.9375 1.390625 -3.9375 1.765625 -4.125 L 1.765625 -0.578125 C 1.765625 -0.34375 1.765625 -0.25 1.078125 -0.25 L 0.8125 -0.25 L 0.8125 0 C 0.9375 0 1.796875 -0.03125 2.046875 -0.03125 C 2.265625 -0.03125 3.140625 0 3.296875 0 L 3.296875 -0.25 L 3.03125 -0.25 C 2.328125 -0.25 2.328125 -0.34375 2.328125 -0.578125 Z M 2.328125 -4.4375 "
           id="path955" />
      </symbol>
      <symbol
         overflow="visible"
         id="symbol606">
        <path
           style="stroke:none;"
           d="M 3.6875 -1.140625 L 3.6875 -1.390625 L 2.90625 -1.390625 L 2.90625 -4.5 C 2.90625 -4.640625 2.90625 -4.703125 2.765625 -4.703125 C 2.671875 -4.703125 2.640625 -4.703125 2.578125 -4.59375 L 0.265625 -1.390625 L 0.265625 -1.140625 L 2.328125 -1.140625 L 2.328125 -0.578125 C 2.328125 -0.328125 2.328125 -0.25 1.75 -0.25 L 1.5625 -0.25 L 1.5625 0 C 1.921875 -0.015625 2.359375 -0.03125 2.609375 -0.03125 C 2.875 -0.03125 3.3125 -0.015625 3.671875 0 L 3.671875 -0.25 L 3.484375 -0.25 C 2.90625 -0.25 2.90625 -0.328125 2.90625 -0.578125 L 2.90625 -1.140625 Z M 2.375 -3.9375 L 2.375 -1.390625 L 0.53125 -1.390625 Z M 2.375 -3.9375 "
           id="path2048" />
      </symbol>
    </g>
    <g
       id="g6619">
      <symbol
         overflow="visible"
         id="symbol988">
        <path
           style="stroke:none;"
           d=""
           id="path7525" />
      </symbol>
      <symbol
         overflow="visible"
         id="symbol9786">
        <path
           style="stroke:none;"
           d="M 3.015625 -3.15625 L 4.71875 -3.15625 C 6.125 -3.15625 7.515625 -4.1875 7.515625 -5.296875 C 7.515625 -6.078125 6.859375 -6.8125 5.546875 -6.8125 L 2.328125 -6.8125 C 2.140625 -6.8125 2.03125 -6.8125 2.03125 -6.625 C 2.03125 -6.5 2.109375 -6.5 2.3125 -6.5 C 2.4375 -6.5 2.625 -6.484375 2.734375 -6.484375 C 2.90625 -6.453125 2.953125 -6.4375 2.953125 -6.3125 C 2.953125 -6.28125 2.953125 -6.25 2.921875 -6.125 L 1.578125 -0.78125 C 1.484375 -0.390625 1.46875 -0.3125 0.671875 -0.3125 C 0.515625 -0.3125 0.40625 -0.3125 0.40625 -0.125 C 0.40625 0 0.515625 0 0.546875 0 C 0.828125 0 1.53125 -0.03125 1.8125 -0.03125 C 2.03125 -0.03125 2.25 -0.015625 2.453125 -0.015625 C 2.671875 -0.015625 2.890625 0 3.09375 0 C 3.171875 0 3.296875 0 3.296875 -0.203125 C 3.296875 -0.3125 3.203125 -0.3125 3.015625 -0.3125 C 2.65625 -0.3125 2.375 -0.3125 2.375 -0.484375 C 2.375 -0.546875 2.390625 -0.59375 2.40625 -0.65625 Z M 3.734375 -6.125 C 3.828125 -6.46875 3.84375 -6.5 4.28125 -6.5 L 5.234375 -6.5 C 6.0625 -6.5 6.59375 -6.234375 6.59375 -5.546875 C 6.59375 -5.15625 6.390625 -4.296875 6 -3.9375 C 5.5 -3.484375 4.90625 -3.40625 4.46875 -3.40625 L 3.0625 -3.40625 Z M 3.734375 -6.125 "
           id="path5721" />
      </symbol>
      <symbol
         overflow="visible"
         id="symbol1945">
        <path
           style="stroke:none;"
           d="M 4.828125 -4.09375 L 4 -6.078125 C 3.96875 -6.15625 3.953125 -6.203125 3.953125 -6.203125 C 3.953125 -6.265625 4.109375 -6.453125 4.53125 -6.5 C 4.640625 -6.515625 4.734375 -6.515625 4.734375 -6.6875 C 4.734375 -6.8125 4.609375 -6.8125 4.578125 -6.8125 C 4.171875 -6.8125 3.75 -6.78125 3.328125 -6.78125 C 3.078125 -6.78125 2.46875 -6.8125 2.21875 -6.8125 C 2.15625 -6.8125 2.03125 -6.8125 2.03125 -6.609375 C 2.03125 -6.5 2.140625 -6.5 2.265625 -6.5 C 2.859375 -6.5 2.921875 -6.40625 3.015625 -6.1875 L 4.1875 -3.40625 L 2.078125 -1.140625 L 1.953125 -1.03125 C 1.46875 -0.5 1 -0.34375 0.484375 -0.3125 C 0.359375 -0.296875 0.265625 -0.296875 0.265625 -0.109375 C 0.265625 -0.09375 0.265625 0 0.40625 0 C 0.703125 0 1.03125 -0.03125 1.328125 -0.03125 C 1.703125 -0.03125 2.09375 0 2.453125 0 C 2.515625 0 2.625 0 2.625 -0.203125 C 2.625 -0.296875 2.53125 -0.3125 2.515625 -0.3125 C 2.421875 -0.3125 2.109375 -0.34375 2.109375 -0.625 C 2.109375 -0.78125 2.265625 -0.9375 2.375 -1.0625 L 3.40625 -2.140625 L 4.296875 -3.125 L 5.296875 -0.734375 C 5.34375 -0.625 5.359375 -0.625 5.359375 -0.59375 C 5.359375 -0.515625 5.15625 -0.34375 4.78125 -0.3125 C 4.671875 -0.296875 4.578125 -0.296875 4.578125 -0.125 C 4.578125 0 4.6875 0 4.71875 0 C 5 0 5.703125 -0.03125 5.984375 -0.03125 C 6.234375 -0.03125 6.84375 0 7.09375 0 C 7.15625 0 7.28125 0 7.28125 -0.1875 C 7.28125 -0.3125 7.171875 -0.3125 7.09375 -0.3125 C 6.4375 -0.3125 6.40625 -0.34375 6.234375 -0.75 C 5.859375 -1.671875 5.1875 -3.234375 4.953125 -3.828125 C 5.625 -4.53125 6.671875 -5.71875 7 -5.984375 C 7.28125 -6.234375 7.671875 -6.46875 8.265625 -6.5 C 8.390625 -6.515625 8.484375 -6.515625 8.484375 -6.703125 C 8.484375 -6.703125 8.484375 -6.8125 8.359375 -6.8125 C 8.0625 -6.8125 7.71875 -6.78125 7.421875 -6.78125 C 7.046875 -6.78125 6.671875 -6.8125 6.3125 -6.8125 C 6.25 -6.8125 6.125 -6.8125 6.125 -6.609375 C 6.125 -6.546875 6.171875 -6.515625 6.234375 -6.5 C 6.328125 -6.484375 6.640625 -6.46875 6.640625 -6.1875 C 6.640625 -6.046875 6.53125 -5.921875 6.453125 -5.828125 Z M 4.828125 -4.09375 "
           id="path7647" />
      </symbol>
      <symbol
         overflow="visible"
         id="symbol8241">
        <path
           style="stroke:none;"
           d=""
           id="path3540" />
      </symbol>
      <symbol
         overflow="visible"
         id="symbol9092">
        <path
           style="stroke:none;"
           d="M 3.296875 2.390625 C 3.296875 2.359375 3.296875 2.34375 3.125 2.171875 C 1.890625 0.921875 1.5625 -0.96875 1.5625 -2.5 C 1.5625 -4.234375 1.9375 -5.96875 3.171875 -7.203125 C 3.296875 -7.328125 3.296875 -7.34375 3.296875 -7.375 C 3.296875 -7.453125 3.265625 -7.484375 3.203125 -7.484375 C 3.09375 -7.484375 2.203125 -6.796875 1.609375 -5.53125 C 1.109375 -4.4375 0.984375 -3.328125 0.984375 -2.5 C 0.984375 -1.71875 1.09375 -0.515625 1.640625 0.625 C 2.25 1.84375 3.09375 2.5 3.203125 2.5 C 3.265625 2.5 3.296875 2.46875 3.296875 2.390625 Z M 3.296875 2.390625 "
           id="path4007" />
      </symbol>
      <symbol
         overflow="visible"
         id="symbol6095">
        <path
           style="stroke:none;"
           d="M 6.84375 -3.265625 C 7 -3.265625 7.1875 -3.265625 7.1875 -3.453125 C 7.1875 -3.65625 7 -3.65625 6.859375 -3.65625 L 0.890625 -3.65625 C 0.75 -3.65625 0.5625 -3.65625 0.5625 -3.453125 C 0.5625 -3.265625 0.75 -3.265625 0.890625 -3.265625 Z M 6.859375 -1.328125 C 7 -1.328125 7.1875 -1.328125 7.1875 -1.53125 C 7.1875 -1.71875 7 -1.71875 6.84375 -1.71875 L 0.890625 -1.71875 C 0.75 -1.71875 0.5625 -1.71875 0.5625 -1.53125 C 0.5625 -1.328125 0.75 -1.328125 0.890625 -1.328125 Z M 6.859375 -1.328125 "
           id="path106" />
      </symbol>
      <symbol
         overflow="visible"
         id="symbol7337">
        <path
           style="stroke:none;"
           d="M 1.265625 -0.765625 L 2.328125 -1.796875 C 3.875 -3.171875 4.46875 -3.703125 4.46875 -4.703125 C 4.46875 -5.84375 3.578125 -6.640625 2.359375 -6.640625 C 1.234375 -6.640625 0.5 -5.71875 0.5 -4.828125 C 0.5 -4.28125 1 -4.28125 1.03125 -4.28125 C 1.203125 -4.28125 1.546875 -4.390625 1.546875 -4.8125 C 1.546875 -5.0625 1.359375 -5.328125 1.015625 -5.328125 C 0.9375 -5.328125 0.921875 -5.328125 0.890625 -5.3125 C 1.109375 -5.96875 1.65625 -6.328125 2.234375 -6.328125 C 3.140625 -6.328125 3.5625 -5.515625 3.5625 -4.703125 C 3.5625 -3.90625 3.078125 -3.125 2.515625 -2.5 L 0.609375 -0.375 C 0.5 -0.265625 0.5 -0.234375 0.5 0 L 4.203125 0 L 4.46875 -1.734375 L 4.234375 -1.734375 C 4.171875 -1.4375 4.109375 -1 4 -0.84375 C 3.9375 -0.765625 3.28125 -0.765625 3.0625 -0.765625 Z M 1.265625 -0.765625 "
           id="path612" />
      </symbol>
      <symbol
         overflow="visible"
         id="symbol3012">
        <path
           style="stroke:none;"
           d="M 2.875 -2.5 C 2.875 -3.265625 2.765625 -4.46875 2.21875 -5.609375 C 1.625 -6.828125 0.765625 -7.484375 0.671875 -7.484375 C 0.609375 -7.484375 0.5625 -7.4375 0.5625 -7.375 C 0.5625 -7.34375 0.5625 -7.328125 0.75 -7.140625 C 1.734375 -6.15625 2.296875 -4.578125 2.296875 -2.5 C 2.296875 -0.78125 1.9375 0.96875 0.703125 2.21875 C 0.5625 2.34375 0.5625 2.359375 0.5625 2.390625 C 0.5625 2.453125 0.609375 2.5 0.671875 2.5 C 0.765625 2.5 1.671875 1.8125 2.25 0.546875 C 2.765625 -0.546875 2.875 -1.65625 2.875 -2.5 Z M 2.875 -2.5 "
           id="path3592" />
      </symbol>
      <symbol
         overflow="visible"
         id="symbol4805">
        <path
           style="stroke:none;"
           d=""
           id="path8549" />
      </symbol>
      <symbol
         overflow="visible"
         id="symbol5530">
        <path
           style="stroke:none;"
           d="M 4.078125 -3.125 L 6.84375 -3.125 C 7.015625 -3.125 7.203125 -3.125 7.203125 -3.3125 C 7.203125 -3.515625 7.015625 -3.515625 6.84375 -3.515625 L 4.078125 -3.515625 L 4.078125 -6.265625 C 4.078125 -6.4375 4.078125 -6.640625 3.875 -6.640625 C 3.671875 -6.640625 3.671875 -6.453125 3.671875 -6.296875 L 3.671875 -3.515625 L 0.890625 -3.515625 C 0.734375 -3.515625 0.546875 -3.515625 0.546875 -3.3125 C 0.546875 -3.125 0.734375 -3.125 0.890625 -3.125 L 3.671875 -3.125 L 3.671875 -0.40625 L 0.890625 -0.40625 C 0.734375 -0.40625 0.546875 -0.40625 0.546875 -0.203125 C 0.546875 0 0.734375 0 0.890625 0 L 6.84375 0 C 7.015625 0 7.203125 0 7.203125 -0.203125 C 7.203125 -0.40625 7.015625 -0.40625 6.84375 -0.40625 L 4.078125 -0.40625 Z M 4.078125 -3.125 "
           id="path6600" />
      </symbol>
      <symbol
         overflow="visible"
         id="symbol5405">
        <path
           style="stroke:none;"
           d=""
           id="path6710" />
      </symbol>
      <symbol
         overflow="visible"
         id="symbol3521">
        <path
           style="stroke:none;"
           d="M 2.328125 -4.4375 C 2.328125 -4.625 2.328125 -4.625 2.125 -4.625 C 1.671875 -4.1875 1.046875 -4.1875 0.765625 -4.1875 L 0.765625 -3.9375 C 0.921875 -3.9375 1.390625 -3.9375 1.765625 -4.125 L 1.765625 -0.578125 C 1.765625 -0.34375 1.765625 -0.25 1.078125 -0.25 L 0.8125 -0.25 L 0.8125 0 C 0.9375 0 1.796875 -0.03125 2.046875 -0.03125 C 2.265625 -0.03125 3.140625 0 3.296875 0 L 3.296875 -0.25 L 3.03125 -0.25 C 2.328125 -0.25 2.328125 -0.34375 2.328125 -0.578125 Z M 2.328125 -4.4375 "
           id="path9430" />
      </symbol>
      <symbol
         overflow="visible"
         id="symbol6134">
        <path
           style="stroke:none;"
           d="M 3.6875 -1.140625 L 3.6875 -1.390625 L 2.90625 -1.390625 L 2.90625 -4.5 C 2.90625 -4.640625 2.90625 -4.703125 2.765625 -4.703125 C 2.671875 -4.703125 2.640625 -4.703125 2.578125 -4.59375 L 0.265625 -1.390625 L 0.265625 -1.140625 L 2.328125 -1.140625 L 2.328125 -0.578125 C 2.328125 -0.328125 2.328125 -0.25 1.75 -0.25 L 1.5625 -0.25 L 1.5625 0 C 1.921875 -0.015625 2.359375 -0.03125 2.609375 -0.03125 C 2.875 -0.03125 3.3125 -0.015625 3.671875 0 L 3.671875 -0.25 L 3.484375 -0.25 C 2.90625 -0.25 2.90625 -0.328125 2.90625 -0.578125 L 2.90625 -1.140625 Z M 2.375 -3.9375 L 2.375 -1.390625 L 0.53125 -1.390625 Z M 2.375 -3.9375 "
           id="path5412" />
      </symbol>
    </g>
    <g
       id="g7165">
      <symbol
         overflow="visible"
         id="symbol2376">
        <path
           style="stroke:none;"
           d=""
           id="path8057" />
      </symbol>
      <symbol
         overflow="visible"
         id="symbol33">
        <path
           style="stroke:none;"
           d="M 3.015625 -3.15625 L 4.71875 -3.15625 C 6.125 -3.15625 7.515625 -4.1875 7.515625 -5.296875 C 7.515625 -6.078125 6.859375 -6.8125 5.546875 -6.8125 L 2.328125 -6.8125 C 2.140625 -6.8125 2.03125 -6.8125 2.03125 -6.625 C 2.03125 -6.5 2.109375 -6.5 2.3125 -6.5 C 2.4375 -6.5 2.625 -6.484375 2.734375 -6.484375 C 2.90625 -6.453125 2.953125 -6.4375 2.953125 -6.3125 C 2.953125 -6.28125 2.953125 -6.25 2.921875 -6.125 L 1.578125 -0.78125 C 1.484375 -0.390625 1.46875 -0.3125 0.671875 -0.3125 C 0.515625 -0.3125 0.40625 -0.3125 0.40625 -0.125 C 0.40625 0 0.515625 0 0.546875 0 C 0.828125 0 1.53125 -0.03125 1.8125 -0.03125 C 2.03125 -0.03125 2.25 -0.015625 2.453125 -0.015625 C 2.671875 -0.015625 2.890625 0 3.09375 0 C 3.171875 0 3.296875 0 3.296875 -0.203125 C 3.296875 -0.3125 3.203125 -0.3125 3.015625 -0.3125 C 2.65625 -0.3125 2.375 -0.3125 2.375 -0.484375 C 2.375 -0.546875 2.390625 -0.59375 2.40625 -0.65625 Z M 3.734375 -6.125 C 3.828125 -6.46875 3.84375 -6.5 4.28125 -6.5 L 5.234375 -6.5 C 6.0625 -6.5 6.59375 -6.234375 6.59375 -5.546875 C 6.59375 -5.15625 6.390625 -4.296875 6 -3.9375 C 5.5 -3.484375 4.90625 -3.40625 4.46875 -3.40625 L 3.0625 -3.40625 Z M 3.734375 -6.125 "
           id="path5556" />
      </symbol>
      <symbol
         overflow="visible"
         id="symbol3054">
        <path
           style="stroke:none;"
           d="M 5.953125 -5.671875 L 6.09375 -5.8125 C 6.390625 -6.109375 6.71875 -6.453125 7.390625 -6.5 C 7.5 -6.515625 7.59375 -6.515625 7.59375 -6.6875 C 7.59375 -6.765625 7.546875 -6.8125 7.46875 -6.8125 C 7.203125 -6.8125 6.921875 -6.78125 6.65625 -6.78125 C 6.3125 -6.78125 5.96875 -6.8125 5.65625 -6.8125 C 5.59375 -6.8125 5.46875 -6.8125 5.46875 -6.625 C 5.46875 -6.515625 5.5625 -6.5 5.609375 -6.5 C 5.6875 -6.5 5.96875 -6.484375 5.96875 -6.265625 C 5.96875 -6.09375 5.734375 -5.84375 5.703125 -5.796875 L 3.390625 -3.125 L 2.296875 -6.09375 C 2.234375 -6.234375 2.234375 -6.25 2.234375 -6.265625 C 2.234375 -6.5 2.71875 -6.5 2.828125 -6.5 C 2.953125 -6.5 3.0625 -6.5 3.0625 -6.703125 C 3.0625 -6.8125 2.9375 -6.8125 2.90625 -6.8125 C 2.625 -6.8125 1.9375 -6.78125 1.65625 -6.78125 C 1.40625 -6.78125 0.78125 -6.8125 0.53125 -6.8125 C 0.484375 -6.8125 0.34375 -6.8125 0.34375 -6.609375 C 0.34375 -6.5 0.453125 -6.5 0.578125 -6.5 C 1.171875 -6.5 1.21875 -6.40625 1.3125 -6.15625 L 2.53125 -2.875 C 2.546875 -2.84375 2.578125 -2.734375 2.578125 -2.71875 C 2.578125 -2.6875 2.171875 -1.078125 2.125 -0.890625 C 2 -0.34375 1.984375 -0.3125 1.1875 -0.3125 C 1 -0.3125 0.921875 -0.3125 0.921875 -0.109375 C 0.921875 0 1.03125 0 1.0625 0 C 1.328125 0 2.03125 -0.03125 2.3125 -0.03125 C 2.59375 -0.03125 3.3125 0 3.59375 0 C 3.65625 0 3.78125 0 3.78125 -0.203125 C 3.78125 -0.3125 3.6875 -0.3125 3.5 -0.3125 C 3.484375 -0.3125 3.296875 -0.3125 3.125 -0.328125 C 2.90625 -0.34375 2.84375 -0.375 2.84375 -0.484375 C 2.84375 -0.5625 2.9375 -0.90625 2.984375 -1.109375 L 3.34375 -2.515625 C 3.390625 -2.71875 3.40625 -2.734375 3.484375 -2.828125 Z M 5.953125 -5.671875 "
           id="path5849" />
      </symbol>
      <symbol
         overflow="visible"
         id="symbol7892">
        <path
           style="stroke:none;"
           d=""
           id="path4461" />
      </symbol>
      <symbol
         overflow="visible"
         id="symbol1735">
        <path
           style="stroke:none;"
           d="M 3.296875 2.390625 C 3.296875 2.359375 3.296875 2.34375 3.125 2.171875 C 1.890625 0.921875 1.5625 -0.96875 1.5625 -2.5 C 1.5625 -4.234375 1.9375 -5.96875 3.171875 -7.203125 C 3.296875 -7.328125 3.296875 -7.34375 3.296875 -7.375 C 3.296875 -7.453125 3.265625 -7.484375 3.203125 -7.484375 C 3.09375 -7.484375 2.203125 -6.796875 1.609375 -5.53125 C 1.109375 -4.4375 0.984375 -3.328125 0.984375 -2.5 C 0.984375 -1.71875 1.09375 -0.515625 1.640625 0.625 C 2.25 1.84375 3.09375 2.5 3.203125 2.5 C 3.265625 2.5 3.296875 2.46875 3.296875 2.390625 Z M 3.296875 2.390625 "
           id="path6560" />
      </symbol>
      <symbol
         overflow="visible"
         id="symbol9066">
        <path
           style="stroke:none;"
           d="M 6.84375 -3.265625 C 7 -3.265625 7.1875 -3.265625 7.1875 -3.453125 C 7.1875 -3.65625 7 -3.65625 6.859375 -3.65625 L 0.890625 -3.65625 C 0.75 -3.65625 0.5625 -3.65625 0.5625 -3.453125 C 0.5625 -3.265625 0.75 -3.265625 0.890625 -3.265625 Z M 6.859375 -1.328125 C 7 -1.328125 7.1875 -1.328125 7.1875 -1.53125 C 7.1875 -1.71875 7 -1.71875 6.84375 -1.71875 L 0.890625 -1.71875 C 0.75 -1.71875 0.5625 -1.71875 0.5625 -1.53125 C 0.5625 -1.328125 0.75 -1.328125 0.890625 -1.328125 Z M 6.859375 -1.328125 "
           id="path2289" />
      </symbol>
      <symbol
         overflow="visible"
         id="symbol5017">
        <path
           style="stroke:none;"
           d="M 2.9375 -6.375 C 2.9375 -6.625 2.9375 -6.640625 2.703125 -6.640625 C 2.078125 -6 1.203125 -6 0.890625 -6 L 0.890625 -5.6875 C 1.09375 -5.6875 1.671875 -5.6875 2.1875 -5.953125 L 2.1875 -0.78125 C 2.1875 -0.421875 2.15625 -0.3125 1.265625 -0.3125 L 0.953125 -0.3125 L 0.953125 0 C 1.296875 -0.03125 2.15625 -0.03125 2.5625 -0.03125 C 2.953125 -0.03125 3.828125 -0.03125 4.171875 0 L 4.171875 -0.3125 L 3.859375 -0.3125 C 2.953125 -0.3125 2.9375 -0.421875 2.9375 -0.78125 Z M 2.9375 -6.375 "
           id="path2320" />
      </symbol>
      <symbol
         overflow="visible"
         id="symbol2465">
        <path
           style="stroke:none;"
           d="M 2.875 -2.5 C 2.875 -3.265625 2.765625 -4.46875 2.21875 -5.609375 C 1.625 -6.828125 0.765625 -7.484375 0.671875 -7.484375 C 0.609375 -7.484375 0.5625 -7.4375 0.5625 -7.375 C 0.5625 -7.34375 0.5625 -7.328125 0.75 -7.140625 C 1.734375 -6.15625 2.296875 -4.578125 2.296875 -2.5 C 2.296875 -0.78125 1.9375 0.96875 0.703125 2.21875 C 0.5625 2.34375 0.5625 2.359375 0.5625 2.390625 C 0.5625 2.453125 0.609375 2.5 0.671875 2.5 C 0.765625 2.5 1.671875 1.8125 2.25 0.546875 C 2.765625 -0.546875 2.875 -1.65625 2.875 -2.5 Z M 2.875 -2.5 "
           id="path527" />
      </symbol>
      <symbol
         overflow="visible"
         id="symbol9578">
        <path
           style="stroke:none;"
           d=""
           id="path9004" />
      </symbol>
      <symbol
         overflow="visible"
         id="symbol5645">
        <path
           style="stroke:none;"
           d="M 2.328125 -4.4375 C 2.328125 -4.625 2.328125 -4.625 2.125 -4.625 C 1.671875 -4.1875 1.046875 -4.1875 0.765625 -4.1875 L 0.765625 -3.9375 C 0.921875 -3.9375 1.390625 -3.9375 1.765625 -4.125 L 1.765625 -0.578125 C 1.765625 -0.34375 1.765625 -0.25 1.078125 -0.25 L 0.8125 -0.25 L 0.8125 0 C 0.9375 0 1.796875 -0.03125 2.046875 -0.03125 C 2.265625 -0.03125 3.140625 0 3.296875 0 L 3.296875 -0.25 L 3.03125 -0.25 C 2.328125 -0.25 2.328125 -0.34375 2.328125 -0.578125 Z M 2.328125 -4.4375 "
           id="path8023" />
      </symbol>
      <symbol
         overflow="visible"
         id="symbol2167">
        <path
           style="stroke:none;"
           d="M 3.515625 -1.265625 L 3.28125 -1.265625 C 3.265625 -1.109375 3.1875 -0.703125 3.09375 -0.640625 C 3.046875 -0.59375 2.515625 -0.59375 2.40625 -0.59375 L 1.125 -0.59375 C 1.859375 -1.234375 2.109375 -1.4375 2.515625 -1.765625 C 3.03125 -2.171875 3.515625 -2.609375 3.515625 -3.265625 C 3.515625 -4.109375 2.78125 -4.625 1.890625 -4.625 C 1.03125 -4.625 0.4375 -4.015625 0.4375 -3.375 C 0.4375 -3.03125 0.734375 -2.984375 0.8125 -2.984375 C 0.96875 -2.984375 1.171875 -3.109375 1.171875 -3.359375 C 1.171875 -3.484375 1.125 -3.734375 0.765625 -3.734375 C 0.984375 -4.21875 1.453125 -4.375 1.78125 -4.375 C 2.484375 -4.375 2.84375 -3.828125 2.84375 -3.265625 C 2.84375 -2.65625 2.40625 -2.1875 2.1875 -1.9375 L 0.515625 -0.265625 C 0.4375 -0.203125 0.4375 -0.1875 0.4375 0 L 3.3125 0 Z M 3.515625 -1.265625 "
           id="path7728" />
      </symbol>
    </g>
    <g
       id="g7982">
      <symbol
         overflow="visible"
         id="symbol4749">
        <path
           style="stroke:none;"
           d=""
           id="path6728" />
      </symbol>
      <symbol
         overflow="visible"
         id="symbol5879">
        <path
           style="stroke:none;"
           d="M 3.015625 -3.15625 L 4.71875 -3.15625 C 6.125 -3.15625 7.515625 -4.1875 7.515625 -5.296875 C 7.515625 -6.078125 6.859375 -6.8125 5.546875 -6.8125 L 2.328125 -6.8125 C 2.140625 -6.8125 2.03125 -6.8125 2.03125 -6.625 C 2.03125 -6.5 2.109375 -6.5 2.3125 -6.5 C 2.4375 -6.5 2.625 -6.484375 2.734375 -6.484375 C 2.90625 -6.453125 2.953125 -6.4375 2.953125 -6.3125 C 2.953125 -6.28125 2.953125 -6.25 2.921875 -6.125 L 1.578125 -0.78125 C 1.484375 -0.390625 1.46875 -0.3125 0.671875 -0.3125 C 0.515625 -0.3125 0.40625 -0.3125 0.40625 -0.125 C 0.40625 0 0.515625 0 0.546875 0 C 0.828125 0 1.53125 -0.03125 1.8125 -0.03125 C 2.03125 -0.03125 2.25 -0.015625 2.453125 -0.015625 C 2.671875 -0.015625 2.890625 0 3.09375 0 C 3.171875 0 3.296875 0 3.296875 -0.203125 C 3.296875 -0.3125 3.203125 -0.3125 3.015625 -0.3125 C 2.65625 -0.3125 2.375 -0.3125 2.375 -0.484375 C 2.375 -0.546875 2.390625 -0.59375 2.40625 -0.65625 Z M 3.734375 -6.125 C 3.828125 -6.46875 3.84375 -6.5 4.28125 -6.5 L 5.234375 -6.5 C 6.0625 -6.5 6.59375 -6.234375 6.59375 -5.546875 C 6.59375 -5.15625 6.390625 -4.296875 6 -3.9375 C 5.5 -3.484375 4.90625 -3.40625 4.46875 -3.40625 L 3.0625 -3.40625 Z M 3.734375 -6.125 "
           id="path3329" />
      </symbol>
      <symbol
         overflow="visible"
         id="symbol5633">
        <path
           style="stroke:none;"
           d="M 5.953125 -5.671875 L 6.09375 -5.8125 C 6.390625 -6.109375 6.71875 -6.453125 7.390625 -6.5 C 7.5 -6.515625 7.59375 -6.515625 7.59375 -6.6875 C 7.59375 -6.765625 7.546875 -6.8125 7.46875 -6.8125 C 7.203125 -6.8125 6.921875 -6.78125 6.65625 -6.78125 C 6.3125 -6.78125 5.96875 -6.8125 5.65625 -6.8125 C 5.59375 -6.8125 5.46875 -6.8125 5.46875 -6.625 C 5.46875 -6.515625 5.5625 -6.5 5.609375 -6.5 C 5.6875 -6.5 5.96875 -6.484375 5.96875 -6.265625 C 5.96875 -6.09375 5.734375 -5.84375 5.703125 -5.796875 L 3.390625 -3.125 L 2.296875 -6.09375 C 2.234375 -6.234375 2.234375 -6.25 2.234375 -6.265625 C 2.234375 -6.5 2.71875 -6.5 2.828125 -6.5 C 2.953125 -6.5 3.0625 -6.5 3.0625 -6.703125 C 3.0625 -6.8125 2.9375 -6.8125 2.90625 -6.8125 C 2.625 -6.8125 1.9375 -6.78125 1.65625 -6.78125 C 1.40625 -6.78125 0.78125 -6.8125 0.53125 -6.8125 C 0.484375 -6.8125 0.34375 -6.8125 0.34375 -6.609375 C 0.34375 -6.5 0.453125 -6.5 0.578125 -6.5 C 1.171875 -6.5 1.21875 -6.40625 1.3125 -6.15625 L 2.53125 -2.875 C 2.546875 -2.84375 2.578125 -2.734375 2.578125 -2.71875 C 2.578125 -2.6875 2.171875 -1.078125 2.125 -0.890625 C 2 -0.34375 1.984375 -0.3125 1.1875 -0.3125 C 1 -0.3125 0.921875 -0.3125 0.921875 -0.109375 C 0.921875 0 1.03125 0 1.0625 0 C 1.328125 0 2.03125 -0.03125 2.3125 -0.03125 C 2.59375 -0.03125 3.3125 0 3.59375 0 C 3.65625 0 3.78125 0 3.78125 -0.203125 C 3.78125 -0.3125 3.6875 -0.3125 3.5 -0.3125 C 3.484375 -0.3125 3.296875 -0.3125 3.125 -0.328125 C 2.90625 -0.34375 2.84375 -0.375 2.84375 -0.484375 C 2.84375 -0.5625 2.9375 -0.90625 2.984375 -1.109375 L 3.34375 -2.515625 C 3.390625 -2.71875 3.40625 -2.734375 3.484375 -2.828125 Z M 5.953125 -5.671875 "
           id="path1624" />
      </symbol>
      <symbol
         overflow="visible"
         id="symbol8479">
        <path
           style="stroke:none;"
           d=""
           id="path6012" />
      </symbol>
      <symbol
         overflow="visible"
         id="symbol1962">
        <path
           style="stroke:none;"
           d="M 3.296875 2.390625 C 3.296875 2.359375 3.296875 2.34375 3.125 2.171875 C 1.890625 0.921875 1.5625 -0.96875 1.5625 -2.5 C 1.5625 -4.234375 1.9375 -5.96875 3.171875 -7.203125 C 3.296875 -7.328125 3.296875 -7.34375 3.296875 -7.375 C 3.296875 -7.453125 3.265625 -7.484375 3.203125 -7.484375 C 3.09375 -7.484375 2.203125 -6.796875 1.609375 -5.53125 C 1.109375 -4.4375 0.984375 -3.328125 0.984375 -2.5 C 0.984375 -1.71875 1.09375 -0.515625 1.640625 0.625 C 2.25 1.84375 3.09375 2.5 3.203125 2.5 C 3.265625 2.5 3.296875 2.46875 3.296875 2.390625 Z M 3.296875 2.390625 "
           id="path9790" />
      </symbol>
      <symbol
         overflow="visible"
         id="symbol7865">
        <path
           style="stroke:none;"
           d="M 6.84375 -3.265625 C 7 -3.265625 7.1875 -3.265625 7.1875 -3.453125 C 7.1875 -3.65625 7 -3.65625 6.859375 -3.65625 L 0.890625 -3.65625 C 0.75 -3.65625 0.5625 -3.65625 0.5625 -3.453125 C 0.5625 -3.265625 0.75 -3.265625 0.890625 -3.265625 Z M 6.859375 -1.328125 C 7 -1.328125 7.1875 -1.328125 7.1875 -1.53125 C 7.1875 -1.71875 7 -1.71875 6.84375 -1.71875 L 0.890625 -1.71875 C 0.75 -1.71875 0.5625 -1.71875 0.5625 -1.53125 C 0.5625 -1.328125 0.75 -1.328125 0.890625 -1.328125 Z M 6.859375 -1.328125 "
           id="path8797" />
      </symbol>
      <symbol
         overflow="visible"
         id="symbol3638">
        <path
           style="stroke:none;"
           d="M 2.9375 -1.640625 L 2.9375 -0.78125 C 2.9375 -0.421875 2.90625 -0.3125 2.171875 -0.3125 L 1.96875 -0.3125 L 1.96875 0 C 2.375 -0.03125 2.890625 -0.03125 3.3125 -0.03125 C 3.734375 -0.03125 4.25 -0.03125 4.671875 0 L 4.671875 -0.3125 L 4.453125 -0.3125 C 3.71875 -0.3125 3.703125 -0.421875 3.703125 -0.78125 L 3.703125 -1.640625 L 4.6875 -1.640625 L 4.6875 -1.953125 L 3.703125 -1.953125 L 3.703125 -6.484375 C 3.703125 -6.6875 3.703125 -6.75 3.53125 -6.75 C 3.453125 -6.75 3.421875 -6.75 3.34375 -6.625 L 0.28125 -1.953125 L 0.28125 -1.640625 Z M 2.984375 -1.953125 L 0.5625 -1.953125 L 2.984375 -5.671875 Z M 2.984375 -1.953125 "
           id="path3831" />
      </symbol>
      <symbol
         overflow="visible"
         id="symbol4353">
        <path
           style="stroke:none;"
           d="M 2.875 -2.5 C 2.875 -3.265625 2.765625 -4.46875 2.21875 -5.609375 C 1.625 -6.828125 0.765625 -7.484375 0.671875 -7.484375 C 0.609375 -7.484375 0.5625 -7.4375 0.5625 -7.375 C 0.5625 -7.34375 0.5625 -7.328125 0.75 -7.140625 C 1.734375 -6.15625 2.296875 -4.578125 2.296875 -2.5 C 2.296875 -0.78125 1.9375 0.96875 0.703125 2.21875 C 0.5625 2.34375 0.5625 2.359375 0.5625 2.390625 C 0.5625 2.453125 0.609375 2.5 0.671875 2.5 C 0.765625 2.5 1.671875 1.8125 2.25 0.546875 C 2.765625 -0.546875 2.875 -1.65625 2.875 -2.5 Z M 2.875 -2.5 "
           id="path8454" />
      </symbol>
      <symbol
         overflow="visible"
         id="symbol4421">
        <path
           style="stroke:none;"
           d=""
           id="path4397" />
      </symbol>
      <symbol
         overflow="visible"
         id="symbol4393">
        <path
           style="stroke:none;"
           d="M 2.328125 -4.4375 C 2.328125 -4.625 2.328125 -4.625 2.125 -4.625 C 1.671875 -4.1875 1.046875 -4.1875 0.765625 -4.1875 L 0.765625 -3.9375 C 0.921875 -3.9375 1.390625 -3.9375 1.765625 -4.125 L 1.765625 -0.578125 C 1.765625 -0.34375 1.765625 -0.25 1.078125 -0.25 L 0.8125 -0.25 L 0.8125 0 C 0.9375 0 1.796875 -0.03125 2.046875 -0.03125 C 2.265625 -0.03125 3.140625 0 3.296875 0 L 3.296875 -0.25 L 3.03125 -0.25 C 2.328125 -0.25 2.328125 -0.34375 2.328125 -0.578125 Z M 2.328125 -4.4375 "
           id="path7981" />
      </symbol>
      <symbol
         overflow="visible"
         id="symbol6515">
        <path
           style="stroke:none;"
           d="M 3.515625 -1.265625 L 3.28125 -1.265625 C 3.265625 -1.109375 3.1875 -0.703125 3.09375 -0.640625 C 3.046875 -0.59375 2.515625 -0.59375 2.40625 -0.59375 L 1.125 -0.59375 C 1.859375 -1.234375 2.109375 -1.4375 2.515625 -1.765625 C 3.03125 -2.171875 3.515625 -2.609375 3.515625 -3.265625 C 3.515625 -4.109375 2.78125 -4.625 1.890625 -4.625 C 1.03125 -4.625 0.4375 -4.015625 0.4375 -3.375 C 0.4375 -3.03125 0.734375 -2.984375 0.8125 -2.984375 C 0.96875 -2.984375 1.171875 -3.109375 1.171875 -3.359375 C 1.171875 -3.484375 1.125 -3.734375 0.765625 -3.734375 C 0.984375 -4.21875 1.453125 -4.375 1.78125 -4.375 C 2.484375 -4.375 2.84375 -3.828125 2.84375 -3.265625 C 2.84375 -2.65625 2.40625 -2.1875 2.1875 -1.9375 L 0.515625 -0.265625 C 0.4375 -0.203125 0.4375 -0.1875 0.4375 0 L 3.3125 0 Z M 3.515625 -1.265625 "
           id="path8697" />
      </symbol>
    </g>
  </defs>
  <path
     fill="#000000"
     stroke="none"
     paint-order="stroke fill markers"
     d="m 537.5,158 c 0,2.76142 -2.23858,5 -5,5 -2.76142,0 -5,-2.23858 -5,-5 0,-2.76142 2.23858,-5 5,-5 2.76142,0 5,2.23858 5,5 z"
     fill-opacity="1"
     id="path1030" />
  <path
     fill="none"
     stroke="#000000"
     paint-order="fill stroke markers"
     d="m 537.5,158 c 0,2.76142 -2.23858,5 -5,5 -2.76142,0 -5,-2.23858 -5,-5 0,-2.76142 2.23858,-5 5,-5 2.76142,0 5,2.23858 5,5 z"
     stroke-opacity="1"
     stroke-linecap="round"
     stroke-linejoin="round"
     stroke-miterlimit="10"
     id="path1032" />
  <path
     fill="#000000"
     stroke="none"
     paint-order="stroke fill markers"
     d="m 537.5,308 c 0,2.76142 -2.23858,5 -5,5 -2.76142,0 -5,-2.23858 -5,-5 0,-2.76142 2.23858,-5 5,-5 2.76142,0 5,2.23858 5,5 z"
     fill-opacity="1"
     id="path1034" />
  <path
     fill="none"
     stroke="#000000"
     paint-order="fill stroke markers"
     d="m 537.5,308 c 0,2.76142 -2.23858,5 -5,5 -2.76142,0 -5,-2.23858 -5,-5 0,-2.76142 2.23858,-5 5,-5 2.76142,0 5,2.23858 5,5 z"
     stroke-opacity="1"
     stroke-linecap="round"
     stroke-linejoin="round"
     stroke-miterlimit="10"
     id="path1036" />
  <path
     fill="#000000"
     stroke="none"
     paint-order="stroke fill markers"
     d="m 762.5,233 c 0,2.76142 -2.23858,5 -5,5 -2.76142,0 -5,-2.23858 -5,-5 0,-2.76142 2.23858,-5 5,-5 2.76142,0 5,2.23858 5,5 z"
     fill-opacity="1"
     id="path1038" />
  <path
     fill="none"
     stroke="#000000"
     paint-order="fill stroke markers"
     d="m 762.5,233 c 0,2.76142 -2.23858,5 -5,5 -2.76142,0 -5,-2.23858 -5,-5 0,-2.76142 2.23858,-5 5,-5 2.76142,0 5,2.23858 5,5 z"
     stroke-opacity="1"
     stroke-linecap="round"
     stroke-linejoin="round"
     stroke-miterlimit="10"
     id="path1040" />
  <path
     fill="#000000"
     stroke="none"
     paint-order="stroke fill markers"
     d="m 537.5,533 c 0,2.76142 -2.23858,5 -5,5 -2.76142,0 -5,-2.23858 -5,-5 0,-2.76142 2.23858,-5 5,-5 2.76142,0 5,2.23858 5,5 z"
     fill-opacity="1"
     id="path1042" />
  <path
     fill="none"
     stroke="#000000"
     paint-order="fill stroke markers"
     d="m 537.5,533 c 0,2.76142 -2.23858,5 -5,5 -2.76142,0 -5,-2.23858 -5,-5 0,-2.76142 2.23858,-5 5,-5 2.76142,0 5,2.23858 5,5 z"
     stroke-opacity="1"
     stroke-linecap="round"
     stroke-linejoin="round"
     stroke-miterlimit="10"
     id="path1044" />
  <path
     fill="#000000"
     stroke="none"
     paint-order="stroke fill markers"
     d="m 537.5,683 c 0,2.76142 -2.23858,5 -5,5 -2.76142,0 -5,-2.23858 -5,-5 0,-2.76142 2.23858,-5 5,-5 2.76142,0 5,2.23858 5,5 z"
     fill-opacity="1"
     id="path1046" />
  <path
     fill="none"
     stroke="#000000"
     paint-order="fill stroke markers"
     d="m 537.5,683 c 0,2.76142 -2.23858,5 -5,5 -2.76142,0 -5,-2.23858 -5,-5 0,-2.76142 2.23858,-5 5,-5 2.76142,0 5,2.23858 5,5 z"
     stroke-opacity="1"
     stroke-linecap="round"
     stroke-linejoin="round"
     stroke-miterlimit="10"
     id="path1048" />
  <path
     fill="#000000"
     stroke="none"
     paint-order="stroke fill markers"
     d="m 762.5,608 c 0,2.76142 -2.23858,5 -5,5 -2.76142,0 -5,-2.23858 -5,-5 0,-2.76142 2.23858,-5 5,-5 2.76142,0 5,2.23858 5,5 z"
     fill-opacity="1"
     id="path1050" />
  <path
     fill="none"
     stroke="#000000"
     paint-order="fill stroke markers"
     d="m 762.5,608 c 0,2.76142 -2.23858,5 -5,5 -2.76142,0 -5,-2.23858 -5,-5 0,-2.76142 2.23858,-5 5,-5 2.76142,0 5,2.23858 5,5 z"
     stroke-opacity="1"
     stroke-linecap="round"
     stroke-linejoin="round"
     stroke-miterlimit="10"
     id="path1052" />
  <path
     style="fill:none;stroke:#000000;stroke-width:1px;stroke-linecap:butt;stroke-linejoin:miter;stroke-opacity:1"
     d="m 537.5,158 225,75 -225,75"
     id="path1294" />
  <path
     style="fill:none;stroke:#000000;stroke-width:1px;stroke-linecap:butt;stroke-linejoin:miter;stroke-opacity:1"
     d="m 537.5,533 225,75 -225,75"
     id="path1296" />
  <g
     inkscape:label=""
     transform="matrix(6.0484947,0,0,6.0484947,-61.698492,-344.74543)"
     id="g1355"
     style="stroke-width:0.16533">
    <g
       id="g4834"
       style="stroke-width:0.16533">
      <g
         style="fill:#000000;fill-opacity:1;stroke-width:0.16533"
         id="g9805">
        <use
           xlink:href="#symbol2369"
           x="91.925003"
           y="81.962997"
           id="use3666"
           width="100%"
           height="100%"
           style="stroke-width:0.16533" />
      </g>
    </g>
  </g>
  <g
     inkscape:label=""
     transform="matrix(4.8712528,0,0,4.8712528,15.845901,-48.774848)"
     id="g1487"
     style="stroke-width:0.205286">
    <g
       id="g3499"
       style="stroke-width:0.205286">
      <g
         style="fill:#000000;fill-opacity:1;stroke-width:0.205286"
         id="g7310">
        <use
           xlink:href="#symbol958"
           x="91.925003"
           y="81.962997"
           id="use362"
           width="100%"
           height="100%"
           style="stroke-width:0.205286" />
      </g>
      <g
         style="fill:#000000;fill-opacity:1;stroke-width:0.205286"
         id="g493">
        <use
           xlink:href="#symbol5133"
           x="99.674004"
           y="81.962997"
           id="use4871"
           width="100%"
           height="100%"
           style="stroke-width:0.205286" />
      </g>
    </g>
  </g>
  <g
     inkscape:label=""
     transform="matrix(5.3916638,0,0,5.3916638,-2.802013,85.794874)"
     id="g1649"
     style="stroke-width:0.185472">
    <g
       id="g7249"
       style="stroke-width:0.185472">
      <g
         style="fill:#000000;fill-opacity:1;stroke-width:0.185472"
         id="g7783">
        <use
           xlink:href="#symbol5186"
           x="91.925003"
           y="81.962997"
           id="use7301"
           width="100%"
           height="100%"
           style="stroke-width:0.185472" />
      </g>
    </g>
  </g>
  <g
     inkscape:label=""
     transform="matrix(5.0021976,0,0,5.0021976,-4.3876432,308)"
     id="g1829"
     style="stroke-width:0.199912">
    <g
       id="g2836"
       style="stroke-width:0.199912">
      <g
         style="fill:#000000;fill-opacity:1;stroke-width:0.199912"
         id="g4963">
        <use
           xlink:href="#symbol248"
           x="91.925003"
           y="81.962997"
           id="use8000"
           width="100%"
           height="100%"
           style="stroke-width:0.199912" />
      </g>
      <g
         style="fill:#000000;fill-opacity:1;stroke-width:0.199912"
         id="g457">
        <use
           xlink:href="#symbol7239"
           x="99.674004"
           y="81.962997"
           id="use9275"
           width="100%"
           height="100%"
           style="stroke-width:0.199912" />
      </g>
    </g>
  </g>
  <g
     inkscape:label=""
     transform="matrix(5.5795688,0,0,5.5795688,269.96537,167.15398)"
     id="g2119"
     style="stroke-width:0.179225">
    <g
       id="g913"
       style="stroke-width:0.179225">
      <g
         style="fill:#000000;fill-opacity:1;stroke-width:0.179225"
         id="g6058">
        <use
           xlink:href="#symbol5460"
           x="91.925003"
           y="81.962997"
           id="use551"
           width="100%"
           height="100%"
           style="stroke-width:0.179225" />
      </g>
    </g>
  </g>
  <g
     inkscape:label=""
     transform="matrix(5.0815782,0,0,5.0815782,310.42584,-169.0113)"
     id="g2326"
     style="stroke-width:0.196789">
    <g
       id="g2660"
       style="stroke-width:0.196789">
      <g
         style="fill:#000000;fill-opacity:1;stroke-width:0.196789"
         id="g4189">
        <use
           xlink:href="#symbol3369"
           x="91.925003"
           y="81.962997"
           id="use9827"
           width="100%"
           height="100%"
           style="stroke-width:0.196789" />
      </g>
    </g>
  </g>
  <g
     inkscape:label=""
     transform="matrix(3.0396671,0,0,3.0396671,49.859564,-162.83372)"
     id="g2591"
     style="stroke-width:0.328983">
    <g
       id="g1686"
       style="stroke-width:0.328983">
      <g
         style="fill:#000000;fill-opacity:1;stroke-width:0.328983"
         id="g288">
        <use
           xlink:href="#symbol2506"
           x="91.925003"
           y="81.962997"
           id="use5925"
           width="100%"
           height="100%"
           style="stroke-width:0.328983" />
      </g>
      <g
         style="fill:#000000;fill-opacity:1;stroke-width:0.328983"
         id="g3165">
        <use
           xlink:href="#symbol70"
           x="99.705002"
           y="81.962997"
           id="use621"
           width="100%"
           height="100%"
           style="stroke-width:0.328983" />
      </g>
      <g
         style="fill:#000000;fill-opacity:1;stroke-width:0.328983"
         id="g7507">
        <use
           xlink:href="#symbol9204"
           x="103.579"
           y="81.962997"
           id="use4153"
           width="100%"
           height="100%"
           style="stroke-width:0.328983" />
      </g>
      <g
         style="fill:#000000;fill-opacity:1;stroke-width:0.328983"
         id="g5331">
        <use
           xlink:href="#symbol7454"
           x="115.382"
           y="81.962997"
           id="use5695"
           width="100%"
           height="100%"
           style="stroke-width:0.328983" />
      </g>
      <g
         style="fill:#000000;fill-opacity:1;stroke-width:0.328983"
         id="g8611">
        <use
           xlink:href="#symbol1461"
           x="125.898"
           y="81.962997"
           id="use5017"
           width="100%"
           height="100%"
           style="stroke-width:0.328983" />
      </g>
      <g
         style="fill:#000000;fill-opacity:1;stroke-width:0.328983"
         id="g7006">
        <use
           xlink:href="#symbol6811"
           x="133.647"
           y="81.962997"
           id="use1782"
           width="100%"
           height="100%"
           style="stroke-width:0.328983" />
        <use
           xlink:href="#symbol6558"
           x="138.6283"
           y="81.962997"
           id="use751"
           width="100%"
           height="100%"
           style="stroke-width:0.328983" />
      </g>
      <g
         style="fill:#000000;fill-opacity:1;stroke-width:0.328983"
         id="g5805">
        <use
           xlink:href="#symbol7454"
           x="145.27235"
           y="81.962997"
           id="use9094"
           width="100%"
           height="100%"
           style="stroke-width:0.328983" />
      </g>
      <g
         style="fill:#000000;fill-opacity:1;stroke-width:0.328983"
         id="g5256">
        <use
           xlink:href="#symbol3874"
           x="156.98199"
           y="78.040001"
           id="use6121"
           width="100%"
           height="100%"
           style="stroke-width:0.328983" />
      </g>
      <path
         style="fill:none;stroke:#000000;stroke-width:0.130935;stroke-linecap:butt;stroke-linejoin:miter;stroke-miterlimit:10;stroke-opacity:1"
         d="M -0.00153125,-6.5625e-4 H 3.971125"
         transform="matrix(1,0,0,-1,156.982,79.472)"
         id="path1942" />
      <g
         style="fill:#000000;fill-opacity:1;stroke-width:0.328983"
         id="g7462">
        <use
           xlink:href="#symbol606"
           x="156.98199"
           y="85.398003"
           id="use3849"
           width="100%"
           height="100%"
           style="stroke-width:0.328983" />
      </g>
    </g>
  </g>
  <g
     inkscape:label=""
     transform="matrix(2.5299488,0,0,2.5299488,129.87538,249.76937)"
     id="g2994"
     style="stroke-width:0.395265">
    <g
       id="g3249"
       style="stroke-width:0.395265">
      <g
         style="fill:#000000;fill-opacity:1;stroke-width:0.395265"
         id="g5460">
        <use
           xlink:href="#symbol9786"
           x="91.925003"
           y="81.962997"
           id="use8244"
           width="100%"
           height="100%"
           style="stroke-width:0.395265" />
      </g>
      <g
         style="fill:#000000;fill-opacity:1;stroke-width:0.395265"
         id="g6202">
        <use
           xlink:href="#symbol9092"
           x="99.705002"
           y="81.962997"
           id="use2232"
           width="100%"
           height="100%"
           style="stroke-width:0.395265" />
      </g>
      <g
         style="fill:#000000;fill-opacity:1;stroke-width:0.395265"
         id="g3720">
        <use
           xlink:href="#symbol1945"
           x="103.579"
           y="81.962997"
           id="use9687"
           width="100%"
           height="100%"
           style="stroke-width:0.395265" />
      </g>
      <g
         style="fill:#000000;fill-opacity:1;stroke-width:0.395265"
         id="g1180">
        <use
           xlink:href="#symbol6095"
           x="115.382"
           y="81.962997"
           id="use2837"
           width="100%"
           height="100%"
           style="stroke-width:0.395265" />
      </g>
      <g
         style="fill:#000000;fill-opacity:1;stroke-width:0.395265"
         id="g950">
        <use
           xlink:href="#symbol5530"
           x="125.898"
           y="81.962997"
           id="use1674"
           width="100%"
           height="100%"
           style="stroke-width:0.395265" />
      </g>
      <g
         style="fill:#000000;fill-opacity:1;stroke-width:0.395265"
         id="g1773">
        <use
           xlink:href="#symbol7337"
           x="133.647"
           y="81.962997"
           id="use6793"
           width="100%"
           height="100%"
           style="stroke-width:0.395265" />
        <use
           xlink:href="#symbol3012"
           x="138.6283"
           y="81.962997"
           id="use3564"
           width="100%"
           height="100%"
           style="stroke-width:0.395265" />
      </g>
      <g
         style="fill:#000000;fill-opacity:1;stroke-width:0.395265"
         id="g4409">
        <use
           xlink:href="#symbol6095"
           x="145.27235"
           y="81.962997"
           id="use7437"
           width="100%"
           height="100%"
           style="stroke-width:0.395265" />
      </g>
      <g
         style="fill:#000000;fill-opacity:1;stroke-width:0.395265"
         id="g6102">
        <use
           xlink:href="#symbol3521"
           x="156.98199"
           y="78.040001"
           id="use4755"
           width="100%"
           height="100%"
           style="stroke-width:0.395265" />
      </g>
      <path
         style="fill:none;stroke:#000000;stroke-width:0.157315;stroke-linecap:butt;stroke-linejoin:miter;stroke-miterlimit:10;stroke-opacity:1"
         d="M -0.00153125,-6.5625e-4 H 3.971125"
         transform="matrix(1,0,0,-1,156.982,79.472)"
         id="path5103" />
      <g
         style="fill:#000000;fill-opacity:1;stroke-width:0.395265"
         id="g9449">
        <use
           xlink:href="#symbol6134"
           x="156.98199"
           y="85.398003"
           id="use7893"
           width="100%"
           height="100%"
           style="stroke-width:0.395265" />
      </g>
    </g>
  </g>
  <g
     inkscape:label=""
     transform="matrix(2.750332,0,0,2.750332,487.66525,-139.83949)"
     id="g3489"
     style="stroke-width:0.363592">
    <g
       id="g8940"
       style="stroke-width:0.363592">
      <g
         style="fill:#000000;fill-opacity:1;stroke-width:0.363592"
         id="g2166">
        <use
           xlink:href="#symbol33"
           x="91.925003"
           y="81.962997"
           id="use2020"
           width="100%"
           height="100%"
           style="stroke-width:0.363592" />
      </g>
      <g
         style="fill:#000000;fill-opacity:1;stroke-width:0.363592"
         id="g5004">
        <use
           xlink:href="#symbol1735"
           x="99.705002"
           y="81.962997"
           id="use5472"
           width="100%"
           height="100%"
           style="stroke-width:0.363592" />
      </g>
      <g
         style="fill:#000000;fill-opacity:1;stroke-width:0.363592"
         id="g8119">
        <use
           xlink:href="#symbol3054"
           x="103.579"
           y="81.962997"
           id="use290"
           width="100%"
           height="100%"
           style="stroke-width:0.363592" />
      </g>
      <g
         style="fill:#000000;fill-opacity:1;stroke-width:0.363592"
         id="g6943">
        <use
           xlink:href="#symbol9066"
           x="114.345"
           y="81.962997"
           id="use4887"
           width="100%"
           height="100%"
           style="stroke-width:0.363592" />
      </g>
      <g
         style="fill:#000000;fill-opacity:1;stroke-width:0.363592"
         id="g3211">
        <use
           xlink:href="#symbol5017"
           x="124.86351"
           y="81.962997"
           id="use1054"
           width="100%"
           height="100%"
           style="stroke-width:0.363592" />
        <use
           xlink:href="#symbol2465"
           x="129.84482"
           y="81.962997"
           id="use1023"
           width="100%"
           height="100%"
           style="stroke-width:0.363592" />
      </g>
      <g
         style="fill:#000000;fill-opacity:1;stroke-width:0.363592"
         id="g1802">
        <use
           xlink:href="#symbol9066"
           x="136.47891"
           y="81.962997"
           id="use8052"
           width="100%"
           height="100%"
           style="stroke-width:0.363592" />
      </g>
      <g
         style="fill:#000000;fill-opacity:1;stroke-width:0.363592"
         id="g9899">
        <use
           xlink:href="#symbol5645"
           x="148.19501"
           y="78.040001"
           id="use7368"
           width="100%"
           height="100%"
           style="stroke-width:0.363592" />
      </g>
      <path
         style="fill:none;stroke:#000000;stroke-width:0.14471;stroke-linecap:butt;stroke-linejoin:miter;stroke-miterlimit:10;stroke-opacity:1"
         d="M 3.125e-4,-6.5625e-4 H 3.969063"
         transform="matrix(1,0,0,-1,148.195,79.472)"
         id="path4672" />
      <g
         style="fill:#000000;fill-opacity:1;stroke-width:0.363592"
         id="g9484">
        <use
           xlink:href="#symbol2167"
           x="148.19501"
           y="85.398003"
           id="use7309"
           width="100%"
           height="100%"
           style="stroke-width:0.363592" />
      </g>
    </g>
  </g>
  <g
     inkscape:label=""
     transform="matrix(2.4830708,0,0,2.4830708,508.67648,249.13996)"
     id="g4064"
     style="stroke-width:0.402727">
    <g
       id="g5095"
       style="stroke-width:0.402727">
      <g
         style="fill:#000000;fill-opacity:1;stroke-width:0.402727"
         id="g8594">
        <use
           xlink:href="#symbol5879"
           x="91.925003"
           y="81.962997"
           id="use5668"
           width="100%"
           height="100%"
           style="stroke-width:0.402727" />
      </g>
      <g
         style="fill:#000000;fill-opacity:1;stroke-width:0.402727"
         id="g8315">
        <use
           xlink:href="#symbol1962"
           x="99.705002"
           y="81.962997"
           id="use425"
           width="100%"
           height="100%"
           style="stroke-width:0.402727" />
      </g>
      <g
         style="fill:#000000;fill-opacity:1;stroke-width:0.402727"
         id="g5022">
        <use
           xlink:href="#symbol5633"
           x="103.579"
           y="81.962997"
           id="use8570"
           width="100%"
           height="100%"
           style="stroke-width:0.402727" />
      </g>
      <g
         style="fill:#000000;fill-opacity:1;stroke-width:0.402727"
         id="g3356">
        <use
           xlink:href="#symbol7865"
           x="114.345"
           y="81.962997"
           id="use8993"
           width="100%"
           height="100%"
           style="stroke-width:0.402727" />
      </g>
      <g
         style="fill:#000000;fill-opacity:1;stroke-width:0.402727"
         id="g6802">
        <use
           xlink:href="#symbol3638"
           x="124.86351"
           y="81.962997"
           id="use689"
           width="100%"
           height="100%"
           style="stroke-width:0.402727" />
        <use
           xlink:href="#symbol4353"
           x="129.84482"
           y="81.962997"
           id="use1914"
           width="100%"
           height="100%"
           style="stroke-width:0.402727" />
      </g>
      <g
         style="fill:#000000;fill-opacity:1;stroke-width:0.402727"
         id="g3275">
        <use
           xlink:href="#symbol7865"
           x="136.47891"
           y="81.962997"
           id="use809"
           width="100%"
           height="100%"
           style="stroke-width:0.402727" />
      </g>
      <g
         style="fill:#000000;fill-opacity:1;stroke-width:0.402727"
         id="g3366">
        <use
           xlink:href="#symbol4393"
           x="148.19501"
           y="78.040001"
           id="use4260"
           width="100%"
           height="100%"
           style="stroke-width:0.402727" />
      </g>
      <path
         style="fill:none;stroke:#000000;stroke-width:0.160285;stroke-linecap:butt;stroke-linejoin:miter;stroke-miterlimit:10;stroke-opacity:1"
         d="M 3.125e-4,-6.5625e-4 H 3.969063"
         transform="matrix(1,0,0,-1,148.195,79.472)"
         id="path8742" />
      <g
         style="fill:#000000;fill-opacity:1;stroke-width:0.402727"
         id="g8032">
        <use
           xlink:href="#symbol6515"
           x="148.19501"
           y="85.398003"
           id="use4306"
           width="100%"
           height="100%"
           style="stroke-width:0.402727" />
      </g>
    </g>
  </g>
</svg>
