<?xml version="1.0" encoding="UTF-8" standalone="no"?>
<svg
   version="1.1"
   width="1888"
   height="955"
   id="svg994"
   sodipodi:docname="dmc_1.svg"
   inkscape:version="1.1.1 (3bf5ae0d25, 2021-09-20, custom)"
   xmlns:inkscape="http://www.inkscape.org/namespaces/inkscape"
   xmlns:sodipodi="http://sodipodi.sourceforge.net/DTD/sodipodi-0.dtd"
   xmlns:xlink="http://www.w3.org/1999/xlink"
   xmlns="http://www.w3.org/2000/svg"
   xmlns:svg="http://www.w3.org/2000/svg">
  <sodipodi:namedview
     id="namedview996"
     pagecolor="#ffffff"
     bordercolor="#666666"
     borderopacity="1.0"
     inkscape:pageshadow="2"
     inkscape:pageopacity="0.0"
     inkscape:pagecheckerboard="0"
     showgrid="false"
     showguides="true"
     inkscape:guide-bbox="true"
     inkscape:zoom="0.81"
     inkscape:cx="961.11111"
     inkscape:cy="490.12346"
     inkscape:window-width="1888"
     inkscape:window-height="1008"
     inkscape:window-x="13"
     inkscape:window-y="53"
     inkscape:window-maximized="1"
     inkscape:current-layer="svg994" />
  <defs
     id="defs930">
    <clipPath
       id="bCiLHQkMAUvu">
      <path
         fill="none"
         stroke="none"
         d=" M 0 0 L 1888 0 L 1888 955 L 0 955 L 0 0 Z"
         id="path927" />
    </clipPath>
    <g
       id="g5474">
      <symbol
         overflow="visible"
         id="symbol1382">
        <path
           style="stroke:none;"
           d=""
           id="path7264" />
      </symbol>
      <symbol
         overflow="visible"
         id="symbol1537">
        <path
           style="stroke:none;"
           d="M 4.578125 -3.1875 C 4.578125 -3.984375 4.53125 -4.78125 4.1875 -5.515625 C 3.734375 -6.484375 2.90625 -6.640625 2.5 -6.640625 C 1.890625 -6.640625 1.171875 -6.375 0.75 -5.453125 C 0.4375 -4.765625 0.390625 -3.984375 0.390625 -3.1875 C 0.390625 -2.4375 0.421875 -1.546875 0.84375 -0.78125 C 1.265625 0.015625 2 0.21875 2.484375 0.21875 C 3.015625 0.21875 3.78125 0.015625 4.21875 -0.9375 C 4.53125 -1.625 4.578125 -2.40625 4.578125 -3.1875 Z M 2.484375 0 C 2.09375 0 1.5 -0.25 1.328125 -1.203125 C 1.21875 -1.796875 1.21875 -2.71875 1.21875 -3.3125 C 1.21875 -3.953125 1.21875 -4.609375 1.296875 -5.140625 C 1.484375 -6.328125 2.234375 -6.421875 2.484375 -6.421875 C 2.8125 -6.421875 3.46875 -6.234375 3.65625 -5.25 C 3.765625 -4.6875 3.765625 -3.9375 3.765625 -3.3125 C 3.765625 -2.5625 3.765625 -1.890625 3.65625 -1.25 C 3.5 -0.296875 2.9375 0 2.484375 0 Z M 2.484375 0 "
           id="path9818" />
      </symbol>
    </g>
    <g
       id="g1461">
      <symbol
         overflow="visible"
         id="symbol864">
        <path
           style="stroke:none;"
           d=""
           id="path506" />
      </symbol>
      <symbol
         overflow="visible"
         id="symbol4406">
        <path
           style="stroke:none;"
           d="M 4.578125 -3.1875 C 4.578125 -3.984375 4.53125 -4.78125 4.1875 -5.515625 C 3.734375 -6.484375 2.90625 -6.640625 2.5 -6.640625 C 1.890625 -6.640625 1.171875 -6.375 0.75 -5.453125 C 0.4375 -4.765625 0.390625 -3.984375 0.390625 -3.1875 C 0.390625 -2.4375 0.421875 -1.546875 0.84375 -0.78125 C 1.265625 0.015625 2 0.21875 2.484375 0.21875 C 3.015625 0.21875 3.78125 0.015625 4.21875 -0.9375 C 4.53125 -1.625 4.578125 -2.40625 4.578125 -3.1875 Z M 2.484375 0 C 2.09375 0 1.5 -0.25 1.328125 -1.203125 C 1.21875 -1.796875 1.21875 -2.71875 1.21875 -3.3125 C 1.21875 -3.953125 1.21875 -4.609375 1.296875 -5.140625 C 1.484375 -6.328125 2.234375 -6.421875 2.484375 -6.421875 C 2.8125 -6.421875 3.46875 -6.234375 3.65625 -5.25 C 3.765625 -4.6875 3.765625 -3.9375 3.765625 -3.3125 C 3.765625 -2.5625 3.765625 -1.890625 3.65625 -1.25 C 3.5 -0.296875 2.9375 0 2.484375 0 Z M 2.484375 0 "
           id="path3480" />
      </symbol>
    </g>
    <g
       id="g5217">
      <symbol
         overflow="visible"
         id="symbol6821">
        <path
           style="stroke:none;"
           d=""
           id="path1601" />
      </symbol>
      <symbol
         overflow="visible"
         id="symbol1398">
        <path
           style="stroke:none;"
           d="M 2.9375 -6.375 C 2.9375 -6.625 2.9375 -6.640625 2.703125 -6.640625 C 2.078125 -6 1.203125 -6 0.890625 -6 L 0.890625 -5.6875 C 1.09375 -5.6875 1.671875 -5.6875 2.1875 -5.953125 L 2.1875 -0.78125 C 2.1875 -0.421875 2.15625 -0.3125 1.265625 -0.3125 L 0.953125 -0.3125 L 0.953125 0 C 1.296875 -0.03125 2.15625 -0.03125 2.5625 -0.03125 C 2.953125 -0.03125 3.828125 -0.03125 4.171875 0 L 4.171875 -0.3125 L 3.859375 -0.3125 C 2.953125 -0.3125 2.9375 -0.421875 2.9375 -0.78125 Z M 2.9375 -6.375 "
           id="path1023" />
      </symbol>
    </g>
    <g
       id="g2490">
      <symbol
         overflow="visible"
         id="symbol5171">
        <path
           style="stroke:none;"
           d=""
           id="path5232" />
      </symbol>
      <symbol
         overflow="visible"
         id="symbol8511">
        <path
           style="stroke:none;"
           d="M 2.9375 -6.375 C 2.9375 -6.625 2.9375 -6.640625 2.703125 -6.640625 C 2.078125 -6 1.203125 -6 0.890625 -6 L 0.890625 -5.6875 C 1.09375 -5.6875 1.671875 -5.6875 2.1875 -5.953125 L 2.1875 -0.78125 C 2.1875 -0.421875 2.15625 -0.3125 1.265625 -0.3125 L 0.953125 -0.3125 L 0.953125 0 C 1.296875 -0.03125 2.15625 -0.03125 2.5625 -0.03125 C 2.953125 -0.03125 3.828125 -0.03125 4.171875 0 L 4.171875 -0.3125 L 3.859375 -0.3125 C 2.953125 -0.3125 2.9375 -0.421875 2.9375 -0.78125 Z M 2.9375 -6.375 "
           id="path1091" />
      </symbol>
    </g>
    <g
       id="g9025">
      <symbol
         overflow="visible"
         id="symbol7314">
        <path
           style="stroke:none;"
           d=""
           id="path8665" />
      </symbol>
      <symbol
         overflow="visible"
         id="symbol4600">
        <path
           style="stroke:none;"
           d="M 0.875 -0.59375 C 0.84375 -0.4375 0.78125 -0.203125 0.78125 -0.15625 C 0.78125 0.015625 0.921875 0.109375 1.078125 0.109375 C 1.203125 0.109375 1.375 0.03125 1.453125 -0.171875 C 1.46875 -0.203125 1.796875 -1.5625 1.84375 -1.75 C 1.921875 -2.078125 2.109375 -2.765625 2.15625 -3.046875 C 2.203125 -3.171875 2.484375 -3.640625 2.71875 -3.859375 C 2.796875 -3.921875 3.09375 -4.1875 3.515625 -4.1875 C 3.78125 -4.1875 3.921875 -4.0625 3.9375 -4.0625 C 3.640625 -4.015625 3.421875 -3.78125 3.421875 -3.515625 C 3.421875 -3.359375 3.53125 -3.171875 3.796875 -3.171875 C 4.0625 -3.171875 4.34375 -3.40625 4.34375 -3.765625 C 4.34375 -4.109375 4.03125 -4.40625 3.515625 -4.40625 C 2.875 -4.40625 2.4375 -3.921875 2.25 -3.640625 C 2.15625 -4.09375 1.796875 -4.40625 1.328125 -4.40625 C 0.875 -4.40625 0.6875 -4.015625 0.59375 -3.84375 C 0.421875 -3.5 0.296875 -2.90625 0.296875 -2.875 C 0.296875 -2.765625 0.390625 -2.765625 0.40625 -2.765625 C 0.515625 -2.765625 0.515625 -2.78125 0.578125 -3 C 0.75 -3.703125 0.953125 -4.1875 1.3125 -4.1875 C 1.46875 -4.1875 1.609375 -4.109375 1.609375 -3.734375 C 1.609375 -3.515625 1.578125 -3.40625 1.453125 -2.890625 Z M 0.875 -0.59375 "
           id="path6328" />
      </symbol>
      <symbol
         overflow="visible"
         id="symbol59">
        <path
           style="stroke:none;"
           d=""
           id="path9661" />
      </symbol>
      <symbol
         overflow="visible"
         id="symbol5313">
        <path
           style="stroke:none;"
           d="M 6.5625 -2.296875 C 6.734375 -2.296875 6.921875 -2.296875 6.921875 -2.5 C 6.921875 -2.6875 6.734375 -2.6875 6.5625 -2.6875 L 1.171875 -2.6875 C 1 -2.6875 0.828125 -2.6875 0.828125 -2.5 C 0.828125 -2.296875 1 -2.296875 1.171875 -2.296875 Z M 6.5625 -2.296875 "
           id="path6232" />
      </symbol>
      <symbol
         overflow="visible"
         id="symbol5600">
        <path
           style="stroke:none;"
           d=""
           id="path7466" />
      </symbol>
      <symbol
         overflow="visible"
         id="symbol9013">
        <path
           style="stroke:none;"
           d="M 2.9375 -6.375 C 2.9375 -6.625 2.9375 -6.640625 2.703125 -6.640625 C 2.078125 -6 1.203125 -6 0.890625 -6 L 0.890625 -5.6875 C 1.09375 -5.6875 1.671875 -5.6875 2.1875 -5.953125 L 2.1875 -0.78125 C 2.1875 -0.421875 2.15625 -0.3125 1.265625 -0.3125 L 0.953125 -0.3125 L 0.953125 0 C 1.296875 -0.03125 2.15625 -0.03125 2.5625 -0.03125 C 2.953125 -0.03125 3.828125 -0.03125 4.171875 0 L 4.171875 -0.3125 L 3.859375 -0.3125 C 2.953125 -0.3125 2.9375 -0.421875 2.9375 -0.78125 Z M 2.9375 -6.375 "
           id="path3760" />
      </symbol>
    </g>
    <g
       id="g5988">
      <symbol
         overflow="visible"
         id="symbol425">
        <path
           style="stroke:none;"
           d=""
           id="path1488" />
      </symbol>
      <symbol
         overflow="visible"
         id="symbol4539">
        <path
           style="stroke:none;"
           d="M 3.890625 -3.734375 C 3.625 -3.71875 3.421875 -3.5 3.421875 -3.28125 C 3.421875 -3.140625 3.515625 -2.984375 3.734375 -2.984375 C 3.953125 -2.984375 4.1875 -3.15625 4.1875 -3.546875 C 4.1875 -4 3.765625 -4.40625 3 -4.40625 C 1.6875 -4.40625 1.3125 -3.390625 1.3125 -2.953125 C 1.3125 -2.171875 2.046875 -2.03125 2.34375 -1.96875 C 2.859375 -1.859375 3.375 -1.75 3.375 -1.203125 C 3.375 -0.953125 3.15625 -0.109375 1.953125 -0.109375 C 1.8125 -0.109375 1.046875 -0.109375 0.8125 -0.640625 C 1.203125 -0.59375 1.453125 -0.890625 1.453125 -1.171875 C 1.453125 -1.390625 1.28125 -1.515625 1.078125 -1.515625 C 0.8125 -1.515625 0.515625 -1.3125 0.515625 -0.859375 C 0.515625 -0.296875 1.09375 0.109375 1.9375 0.109375 C 3.5625 0.109375 3.953125 -1.09375 3.953125 -1.546875 C 3.953125 -1.90625 3.765625 -2.15625 3.640625 -2.265625 C 3.375 -2.546875 3.078125 -2.609375 2.640625 -2.6875 C 2.28125 -2.765625 1.890625 -2.84375 1.890625 -3.296875 C 1.890625 -3.578125 2.125 -4.1875 3 -4.1875 C 3.25 -4.1875 3.75 -4.109375 3.890625 -3.734375 Z M 3.890625 -3.734375 "
           id="path7930" />
      </symbol>
      <symbol
         overflow="visible"
         id="symbol8430">
        <path
           style="stroke:none;"
           d=""
           id="path6185" />
      </symbol>
      <symbol
         overflow="visible"
         id="symbol3799">
        <path
           style="stroke:none;"
           d="M 6.5625 -2.296875 C 6.734375 -2.296875 6.921875 -2.296875 6.921875 -2.5 C 6.921875 -2.6875 6.734375 -2.6875 6.5625 -2.6875 L 1.171875 -2.6875 C 1 -2.6875 0.828125 -2.6875 0.828125 -2.5 C 0.828125 -2.296875 1 -2.296875 1.171875 -2.296875 Z M 6.5625 -2.296875 "
           id="path3639" />
      </symbol>
      <symbol
         overflow="visible"
         id="symbol583">
        <path
           style="stroke:none;"
           d=""
           id="path7922" />
      </symbol>
      <symbol
         overflow="visible"
         id="symbol4072">
        <path
           style="stroke:none;"
           d="M 2.9375 -6.375 C 2.9375 -6.625 2.9375 -6.640625 2.703125 -6.640625 C 2.078125 -6 1.203125 -6 0.890625 -6 L 0.890625 -5.6875 C 1.09375 -5.6875 1.671875 -5.6875 2.1875 -5.953125 L 2.1875 -0.78125 C 2.1875 -0.421875 2.15625 -0.3125 1.265625 -0.3125 L 0.953125 -0.3125 L 0.953125 0 C 1.296875 -0.03125 2.15625 -0.03125 2.5625 -0.03125 C 2.953125 -0.03125 3.828125 -0.03125 4.171875 0 L 4.171875 -0.3125 L 3.859375 -0.3125 C 2.953125 -0.3125 2.9375 -0.421875 2.9375 -0.78125 Z M 2.9375 -6.375 "
           id="path2694" />
      </symbol>
    </g>
  </defs>
  <path
     fill="#000000"
     stroke="none"
     paint-order="stroke fill markers"
     d="m 415.44426,227.9529 c 0,2.76142 -2.23858,5 -5,5 -2.76142,0 -5,-2.23858 -5,-5 0,-2.76142 2.23858,-5 5,-5 2.76142,0 5,2.23858 5,5 z"
     fill-opacity="1"
     id="path934" />
  <path
     fill="none"
     stroke="#000000"
     paint-order="fill stroke markers"
     d="m 415.44426,227.9529 c 0,2.76142 -2.23858,5 -5,5 -2.76142,0 -5,-2.23858 -5,-5 0,-2.76142 2.23858,-5 5,-5 2.76142,0 5,2.23858 5,5 z"
     stroke-opacity="1"
     stroke-linecap="round"
     stroke-linejoin="round"
     stroke-miterlimit="10"
     id="path936" />
  <path
     fill="#000000"
     stroke="none"
     paint-order="stroke fill markers"
     d="m 415.44426,327.9529 c 0,2.76142 -2.23858,5 -5,5 -2.76142,0 -5,-2.23858 -5,-5 0,-2.76142 2.23858,-5 5,-5 2.76142,0 5,2.23858 5,5 z"
     fill-opacity="1"
     id="path938" />
  <path
     fill="none"
     stroke="#000000"
     paint-order="fill stroke markers"
     d="m 415.44426,327.9529 c 0,2.76142 -2.23858,5 -5,5 -2.76142,0 -5,-2.23858 -5,-5 0,-2.76142 2.23858,-5 5,-5 2.76142,0 5,2.23858 5,5 z"
     stroke-opacity="1"
     stroke-linecap="round"
     stroke-linejoin="round"
     stroke-miterlimit="10"
     id="path940" />
  <path
     fill="#000000"
     stroke="none"
     paint-order="stroke fill markers"
     d="m 415.44426,727.9529 c 0,2.76142 -2.23858,5 -5,5 -2.76142,0 -5,-2.23858 -5,-5 0,-2.76142 2.23858,-5 5,-5 2.76142,0 5,2.23858 5,5 z"
     fill-opacity="1"
     id="path946" />
  <path
     fill="none"
     stroke="#000000"
     paint-order="fill stroke markers"
     d="m 415.44426,727.9529 c 0,2.76142 -2.23858,5 -5,5 -2.76142,0 -5,-2.23858 -5,-5 0,-2.76142 2.23858,-5 5,-5 2.76142,0 5,2.23858 5,5 z"
     stroke-opacity="1"
     stroke-linecap="round"
     stroke-linejoin="round"
     stroke-miterlimit="10"
     id="path948" />
  <g
     id="g5421"
     transform="translate(4,-64.835461)">
    <path
       fill="#000000"
       stroke="none"
       paint-order="stroke fill markers"
       d="m 411.44426,527.9529 c 0,0.55228 -0.44772,1 -1,1 -0.55228,0 -1,-0.44772 -1,-1 0,-0.55228 0.44772,-1 1,-1 0.55228,0 1,0.44772 1,1 z"
       fill-opacity="1"
       id="path950" />
    <path
       fill="none"
       stroke="#000000"
       paint-order="fill stroke markers"
       d="m 411.44426,527.9529 c 0,0.55228 -0.44772,1 -1,1 -0.55228,0 -1,-0.44772 -1,-1 0,-0.55228 0.44772,-1 1,-1 0.55228,0 1,0.44772 1,1 z"
       stroke-opacity="1"
       stroke-linecap="round"
       stroke-linejoin="round"
       stroke-miterlimit="10"
       id="path952" />
    <path
       fill="#000000"
       stroke="none"
       paint-order="stroke fill markers"
       d="m 411.44426,577.9529 c 0,0.55228 -0.44772,1 -1,1 -0.55228,0 -1,-0.44772 -1,-1 0,-0.55228 0.44772,-1 1,-1 0.55228,0 1,0.44772 1,1 z"
       fill-opacity="1"
       id="path954" />
    <path
       fill="none"
       stroke="#000000"
       paint-order="fill stroke markers"
       d="m 411.44426,577.9529 c 0,0.55228 -0.44772,1 -1,1 -0.55228,0 -1,-0.44772 -1,-1 0,-0.55228 0.44772,-1 1,-1 0.55228,0 1,0.44772 1,1 z"
       stroke-opacity="1"
       stroke-linecap="round"
       stroke-linejoin="round"
       stroke-miterlimit="10"
       id="path956" />
    <path
       fill="#000000"
       stroke="none"
       paint-order="stroke fill markers"
       d="m 411.44426,627.9529 c 0,0.55228 -0.44772,1 -1,1 -0.55228,0 -1,-0.44772 -1,-1 0,-0.55228 0.44772,-1 1,-1 0.55228,0 1,0.44772 1,1 z"
       fill-opacity="1"
       id="path958" />
    <path
       fill="none"
       stroke="#000000"
       paint-order="fill stroke markers"
       d="m 411.44426,627.9529 c 0,0.55228 -0.44772,1 -1,1 -0.55228,0 -1,-0.44772 -1,-1 0,-0.55228 0.44772,-1 1,-1 0.55228,0 1,0.44772 1,1 z"
       stroke-opacity="1"
       stroke-linecap="round"
       stroke-linejoin="round"
       stroke-miterlimit="10"
       id="path960" />
  </g>
  <g
     id="g5409"
     transform="translate(4,-64.83546)">
    <path
       fill="#000000"
       stroke="none"
       paint-order="stroke fill markers"
       d="m 1522.703,527.9529 c 0,0.55228 -0.4477,1 -1,1 -0.5523,0 -1,-0.44772 -1,-1 0,-0.55228 0.4477,-1 1,-1 0.5523,0 1,0.44772 1,1 z"
       fill-opacity="1"
       id="path962" />
    <path
       fill="none"
       stroke="#000000"
       paint-order="fill stroke markers"
       d="m 1522.703,527.9529 c 0,0.55228 -0.4477,1 -1,1 -0.5523,0 -1,-0.44772 -1,-1 0,-0.55228 0.4477,-1 1,-1 0.5523,0 1,0.44772 1,1 z"
       stroke-opacity="1"
       stroke-linecap="round"
       stroke-linejoin="round"
       stroke-miterlimit="10"
       id="path964" />
    <path
       fill="#000000"
       stroke="none"
       paint-order="stroke fill markers"
       d="m 1522.703,577.9529 c 0,0.55228 -0.4477,1 -1,1 -0.5523,0 -1,-0.44772 -1,-1 0,-0.55228 0.4477,-1 1,-1 0.5523,0 1,0.44772 1,1 z"
       fill-opacity="1"
       id="path966" />
    <path
       fill="none"
       stroke="#000000"
       paint-order="fill stroke markers"
       d="m 1522.703,577.9529 c 0,0.55228 -0.4477,1 -1,1 -0.5523,0 -1,-0.44772 -1,-1 0,-0.55228 0.4477,-1 1,-1 0.5523,0 1,0.44772 1,1 z"
       stroke-opacity="1"
       stroke-linecap="round"
       stroke-linejoin="round"
       stroke-miterlimit="10"
       id="path968" />
    <path
       fill="#000000"
       stroke="none"
       paint-order="stroke fill markers"
       d="m 1522.703,627.9529 c 0,0.55228 -0.4477,1 -1,1 -0.5523,0 -1,-0.44772 -1,-1 0,-0.55228 0.4477,-1 1,-1 0.5523,0 1,0.44772 1,1 z"
       fill-opacity="1"
       id="path970" />
    <path
       fill="none"
       stroke="#000000"
       paint-order="fill stroke markers"
       d="m 1522.703,627.9529 c 0,0.55228 -0.4477,1 -1,1 -0.5523,0 -1,-0.44772 -1,-1 0,-0.55228 0.4477,-1 1,-1 0.5523,0 1,0.44772 1,1 z"
       stroke-opacity="1"
       stroke-linecap="round"
       stroke-linejoin="round"
       stroke-miterlimit="10"
       id="path972" />
  </g>
  <path
     fill="#000000"
     stroke="none"
     paint-order="stroke fill markers"
     d="m 1526.703,727.9529 c 0,2.76142 -2.2386,5 -5,5 -2.7614,0 -5,-2.23858 -5,-5 0,-2.76142 2.2386,-5 5,-5 2.7614,0 5,2.23858 5,5 z"
     fill-opacity="1"
     id="path974" />
  <path
     fill="none"
     stroke="#000000"
     paint-order="fill stroke markers"
     d="m 1526.703,727.9529 c 0,2.76142 -2.2386,5 -5,5 -2.7614,0 -5,-2.23858 -5,-5 0,-2.76142 2.2386,-5 5,-5 2.7614,0 5,2.23858 5,5 z"
     stroke-opacity="1"
     stroke-linecap="round"
     stroke-linejoin="round"
     stroke-miterlimit="10"
     id="path976" />
  <path
     fill="#000000"
     stroke="none"
     paint-order="stroke fill markers"
     d="m 1526.703,327.9529 c 0,2.76142 -2.2386,5 -5,5 -2.7614,0 -5,-2.23858 -5,-5 0,-2.76142 2.2386,-5 5,-5 2.7614,0 5,2.23858 5,5 z"
     fill-opacity="1"
     id="path982" />
  <path
     fill="none"
     stroke="#000000"
     paint-order="fill stroke markers"
     d="m 1526.703,327.9529 c 0,2.76142 -2.2386,5 -5,5 -2.7614,0 -5,-2.23858 -5,-5 0,-2.76142 2.2386,-5 5,-5 2.7614,0 5,2.23858 5,5 z"
     stroke-opacity="1"
     stroke-linecap="round"
     stroke-linejoin="round"
     stroke-miterlimit="10"
     id="path984" />
  <path
     fill="#000000"
     stroke="none"
     paint-order="stroke fill markers"
     d="m 1526.703,227.9529 c 0,2.76142 -2.2386,5 -5,5 -2.7614,0 -5,-2.23858 -5,-5 0,-2.76142 2.2386,-5 5,-5 2.7614,0 5,2.23858 5,5 z"
     fill-opacity="1"
     id="path986" />
  <path
     fill="none"
     stroke="#000000"
     paint-order="fill stroke markers"
     d="m 1526.703,227.9529 c 0,2.76142 -2.2386,5 -5,5 -2.7614,0 -5,-2.23858 -5,-5 0,-2.76142 2.2386,-5 5,-5 2.7614,0 5,2.23858 5,5 z"
     stroke-opacity="1"
     stroke-linecap="round"
     stroke-linejoin="round"
     stroke-miterlimit="10"
     id="path988" />
  <rect
     style="font-variation-settings:normal;vector-effect:none;fill:#000000;fill-opacity:0.75;fill-rule:evenodd;stroke:#000000;stroke-width:1.00157;stroke-linecap:butt;stroke-linejoin:miter;stroke-miterlimit:4;stroke-dasharray:none;stroke-dashoffset:0;stroke-opacity:1;-inkscape-stroke:none;stop-color:#000000"
     id="rect1441"
     width="574.48816"
     height="574.48816"
     x="668.83411"
     y="192.91286" />
  <path
     style="fill:none;stroke:#000000;stroke-width:1px;stroke-linecap:butt;stroke-linejoin:miter;stroke-opacity:1"
     d="M 415.44426,227.9529 H 668.83411"
     id="path1664" />
  <path
     style="fill:none;stroke:#000000;stroke-width:1px;stroke-linecap:butt;stroke-linejoin:miter;stroke-opacity:1"
     d="M 415.44426,327.9529 H 668.83411"
     id="path1666" />
  <path
     style="fill:none;stroke:#000000;stroke-width:1px;stroke-linecap:butt;stroke-linejoin:miter;stroke-opacity:1"
     d="M 415.44426,727.9529 H 668.83411"
     id="path1670" />
  <path
     style="fill:none;stroke:#000000;stroke-width:1px;stroke-linecap:butt;stroke-linejoin:miter;stroke-opacity:1"
     d="M 1526.703,227.9529 H 1243.3223"
     id="path1672" />
  <path
     style="fill:none;stroke:#000000;stroke-width:1px;stroke-linecap:butt;stroke-linejoin:miter;stroke-opacity:1"
     d="M 1526.703,327.9529 H 1243.3223"
     id="path1674" />
  <path
     style="fill:none;stroke:#000000;stroke-width:1px;stroke-linecap:butt;stroke-linejoin:miter;stroke-opacity:1"
     d="M 1526.703,727.9529 H 1243.3223"
     id="path1678" />
  <g
     inkscape:label=""
     transform="matrix(4.8271195,0,0,4.8271195,-69.094797,-153.48967)"
     id="g3843"
     style="stroke-width:0.207163">
    <g
       id="g1703"
       style="stroke-width:0.207163">
      <g
         style="fill:#000000;fill-opacity:1;stroke-width:0.207163"
         id="g893">
        <use
           xlink:href="#symbol1537"
           x="91.925003"
           y="81.962997"
           id="use5472"
           width="100%"
           height="100%"
           style="stroke-width:0.207163" />
      </g>
    </g>
  </g>
  <g
     inkscape:label=""
     transform="matrix(4.4738476,0,0,4.4737477,1124.2332,-124.86657)"
     id="g3988"
     style="stroke-width:0.223524">
    <g
       id="g4510"
       style="stroke-width:0.223524">
      <g
         style="fill:#000000;fill-opacity:1;stroke-width:0.223524"
         id="g4313">
        <use
           xlink:href="#symbol4406"
           x="91.925003"
           y="81.962997"
           id="use209"
           width="100%"
           height="100%"
           style="stroke-width:0.223524" />
      </g>
    </g>
  </g>
  <g
     inkscape:label=""
     transform="matrix(6.7434667,0,0,6.7436424,-251.16166,-203.9405)"
     id="g4151"
     style="stroke-width:0.14829">
    <g
       id="g5611"
       style="stroke-width:0.14829">
      <g
         style="fill:#000000;fill-opacity:1;stroke-width:0.14829"
         id="g9036">
        <use
           xlink:href="#symbol1398"
           x="91.925003"
           y="81.962997"
           id="use4643"
           width="100%"
           height="100%"
           style="stroke-width:0.14829" />
      </g>
    </g>
  </g>
  <g
     inkscape:label=""
     transform="matrix(6.7435687,0,0,6.7435687,912.20979,-204.69161)"
     id="g4332"
     style="stroke-width:0.148289">
    <g
       id="g1097"
       style="stroke-width:0.148289">
      <g
         style="fill:#000000;fill-opacity:1;stroke-width:0.148289"
         id="g2304">
        <use
           xlink:href="#symbol8511"
           x="91.925003"
           y="81.962997"
           id="use1326"
           width="100%"
           height="100%"
           style="stroke-width:0.148289" />
      </g>
    </g>
  </g>
  <g
     inkscape:label=""
     transform="matrix(3.4869138,0,0,3.5413333,0.77292067,427.74991)"
     id="g4543"
     style="stroke-width:0.284575">
    <g
       id="g4570"
       style="stroke-width:0.284575">
      <g
         style="fill:#000000;fill-opacity:1;stroke-width:0.284575"
         id="g4682">
        <use
           xlink:href="#symbol4600"
           x="91.925003"
           y="81.962997"
           id="use7498"
           width="100%"
           height="100%"
           style="stroke-width:0.284575" />
      </g>
      <g
         style="fill:#000000;fill-opacity:1;stroke-width:0.284575"
         id="g1899">
        <use
           xlink:href="#symbol5313"
           x="98.911003"
           y="81.962997"
           id="use3776"
           width="100%"
           height="100%"
           style="stroke-width:0.284575" />
      </g>
      <g
         style="fill:#000000;fill-opacity:1;stroke-width:0.284575"
         id="g1937">
        <use
           xlink:href="#symbol9013"
           x="108.873"
           y="81.962997"
           id="use7365"
           width="100%"
           height="100%"
           style="stroke-width:0.284575" />
      </g>
    </g>
  </g>
  <g
     inkscape:label=""
     transform="matrix(3.5413094,0,0,3.5413094,1220.0825,436.08685)"
     id="g4808"
     style="stroke-width:0.282381">
    <g
       id="g4980"
       style="stroke-width:0.282381">
      <g
         style="fill:#000000;fill-opacity:1;stroke-width:0.282381"
         id="g1309">
        <use
           xlink:href="#symbol4539"
           x="91.925003"
           y="81.962997"
           id="use715"
           width="100%"
           height="100%"
           style="stroke-width:0.282381" />
      </g>
      <g
         style="fill:#000000;fill-opacity:1;stroke-width:0.282381"
         id="g6694">
        <use
           xlink:href="#symbol3799"
           x="98.808998"
           y="81.962997"
           id="use8647"
           width="100%"
           height="100%"
           style="stroke-width:0.282381" />
      </g>
      <g
         style="fill:#000000;fill-opacity:1;stroke-width:0.282381"
         id="g1542">
        <use
           xlink:href="#symbol4072"
           x="108.772"
           y="81.962997"
           id="use1375"
           width="100%"
           height="100%"
           style="stroke-width:0.282381" />
      </g>
    </g>
  </g>
</svg>
