<?xml version="1.0" encoding="UTF-8" standalone="no"?>
<!-- Created with Inkscape (http://www.inkscape.org/) -->

<svg
   sodipodi:docname="isolated_sigularities.svg"
   id="svg5"
   version="1.1"
   viewBox="0 0 210 297"
   height="297mm"
   width="210mm"
   inkscape:version="1.2.2 (b0a8486541, 2022-12-01)"
   xmlns:inkscape="http://www.inkscape.org/namespaces/inkscape"
   xmlns:sodipodi="http://sodipodi.sourceforge.net/DTD/sodipodi-0.dtd"
   xmlns="http://www.w3.org/2000/svg"
   xmlns:svg="http://www.w3.org/2000/svg">
  <sodipodi:namedview
     id="namedview7"
     pagecolor="#ffffff"
     bordercolor="#000000"
     borderopacity="0.25"
     inkscape:showpageshadow="2"
     inkscape:pageopacity="0.0"
     inkscape:pagecheckerboard="0"
     inkscape:deskcolor="#d1d1d1"
     inkscape:document-units="mm"
     showgrid="false"
     inkscape:zoom="1.4778489"
     inkscape:cx="374.86919"
     inkscape:cy="500.72779"
     inkscape:window-width="1888"
     inkscape:window-height="1008"
     inkscape:window-x="13"
     inkscape:window-y="53"
     inkscape:window-maximized="1"
     inkscape:current-layer="layer1" />
  <defs
     id="defs2">
    <clipPath
       id="clipPath7074">
      <path
         clip-rule="nonzero"
         d="M 66,0 H 77 V 12.914062 H 66 Z m 0,0"
         id="path3111" />
    </clipPath>
    <clipPath
       id="clipPath5604">
      <path
         clip-rule="nonzero"
         d="M 64,5 H 74.984375 V 18.367188 H 64 Z m 0,0"
         id="path87" />
    </clipPath>
    <clipPath
       id="clipPath4541">
      <path
         clip-rule="nonzero"
         d="M 18,0 H 28 V 12.914062 H 18 Z m 0,0"
         id="path6379" />
    </clipPath>
    <clipPath
       id="clipPath2712">
      <path
         clip-rule="nonzero"
         d="M 51,0 H 61.757812 V 10 H 51 Z m 0,0"
         id="path7158" />
    </clipPath>
    <clipPath
       id="clipPath2941">
      <path
         clip-rule="nonzero"
         d="M 18,0 H 28 V 12.914062 H 18 Z m 0,0"
         id="path3810" />
    </clipPath>
    <clipPath
       id="clipPath1815">
      <path
         clip-rule="nonzero"
         d="M 51,0 H 61.757812 V 10 H 51 Z m 0,0"
         id="path1063" />
    </clipPath>
  </defs>
  <g
     inkscape:label="Layer 1"
     inkscape:groupmode="layer"
     id="layer1">
    <path
       style="fill:none;stroke:#000000;stroke-width:0.499999;stroke-opacity:1"
       d="M 9.6906144,133.74441 H 106.06226 L 53.910243,81.592388 Z"
       id="path236" />
    <path
       style="fill:none;stroke:#000000;stroke-width:0.499999;stroke-opacity:1"
       d="m 23.039042,118.00146 5.529068,15.74295"
       id="path900" />
    <path
       style="fill:none;stroke:#000000;stroke-width:0.499999;stroke-opacity:1"
       d="m 103.43806,168.04832 h 77.52208 L 144.30395,98.449684 Z"
       id="path902" />
    <path
       style="fill:none;stroke:#000000;stroke-width:0.499999;stroke-opacity:1"
       d="M 103.43806,168.04832 138.55285,150.8062"
       id="path904" />
    <path
       style="fill:none;stroke:#000000;stroke-width:0.499999;stroke-opacity:1"
       d="m 144.30395,98.449682 -5.7511,52.356518"
       id="path906" />
    <path
       style="fill:none;stroke:#000000;stroke-width:0.499999;stroke-opacity:1"
       d="M 180.96014,168.04832 138.55285,150.8062"
       id="path908" />
    <g
       fill="#000000"
       fill-opacity="1"
       id="g27"
       transform="matrix(0.352778,0,0,0.352778,4.7765566,133.27676)">
      <g
         id="use25"
         transform="translate(0,14.349)">
        <path
           d="m 6.21875,-2.453125 c -0.109375,0.34375 -0.109375,0.390625 -0.390625,0.78125 -0.453125,0.578125 -1.359375,1.46875 -2.34375,1.46875 -0.84375,0 -1.3125,-0.765625 -1.3125,-1.984375 0,-1.140625 0.640625,-3.453125 1.03125,-4.3125 C 3.90625,-7.953125 4.875,-8.703125 5.6875,-8.703125 c 1.359375,0 1.625,1.703125 1.625,1.859375 0,0.03125 -0.0625,0.296875 -0.078125,0.34375 z M 7.546875,-7.75 C 7.3125,-8.28125 6.75,-9.109375 5.6875,-9.109375 c -2.34375,0 -4.859375,3.015625 -4.859375,6.078125 0,2.046875 1.203125,3.234375 2.59375,3.234375 1.140625,0 2.109375,-0.890625 2.6875,-1.5625 0.21875,1.21875 1.1875,1.5625 1.796875,1.5625 0.625,0 1.125,-0.375 1.5,-1.109375 0.328125,-0.703125 0.609375,-1.96875 0.609375,-2.046875 0,-0.109375 -0.078125,-0.1875 -0.203125,-0.1875 -0.1875,0 -0.203125,0.109375 -0.296875,0.40625 -0.296875,1.21875 -0.703125,2.53125 -1.546875,2.53125 -0.59375,0 -0.640625,-0.546875 -0.640625,-0.953125 0,-0.46875 0.0625,-0.703125 0.25,-1.515625 0.140625,-0.515625 0.25,-0.96875 0.421875,-1.5625 0.765625,-3.09375 0.9375,-3.84375 0.9375,-3.96875 0,-0.28125 -0.21875,-0.515625 -0.53125,-0.515625 C 7.75,-8.71875 7.578125,-8 7.546875,-7.75 Z m 0,0"
           id="path51" />
      </g>
    </g>
    <g
       fill="#000000"
       fill-opacity="1"
       id="g31"
       transform="matrix(0.352778,0,0,0.352778,101.16976,135.11782)">
      <g
         id="use29"
         transform="translate(16.8606,14.349)">
        <path
           d="m 4.765625,-13.8125 c 0.03125,-0.09375 0.0625,-0.21875 0.0625,-0.3125 0,-0.203125 -0.203125,-0.203125 -0.25,-0.203125 -0.015625,0 -0.75,0.04687 -1.125,0.09375 -0.359375,0.01563 -0.671875,0.0625 -1.03125,0.07813 -0.5,0.04687 -0.640625,0.0625 -0.640625,0.4375 0,0.203125 0.203125,0.203125 0.40625,0.203125 1.0625,0 1.0625,0.1875 1.0625,0.40625 C 3.25,-12.96875 3.078125,-12.375 3,-12 l -0.5,1.984375 C 2.296875,-9.1875 1.109375,-4.5 1.03125,-4.125 0.921875,-3.609375 0.921875,-3.265625 0.921875,-3 c 0,2.109375 1.1875,3.203125 2.53125,3.203125 2.390625,0 4.875,-3.078125 4.875,-6.0625 0,-1.90625 -1.078125,-3.25 -2.625,-3.25 -1.078125,0 -2.046875,0.890625 -2.4375,1.296875 z M 3.46875,-0.203125 c -0.65625,0 -1.375,-0.5 -1.375,-2.109375 0,-0.6875 0.046875,-1.078125 0.421875,-2.515625 C 2.578125,-5.109375 2.90625,-6.421875 3,-6.6875 c 0.03125,-0.171875 1.25,-2.015625 2.65625,-2.015625 0.90625,0 1.328125,0.921875 1.328125,1.984375 0,1 -0.578125,3.328125 -1.09375,4.40625 C 5.375,-1.203125 4.421875,-0.203125 3.46875,-0.203125 Z m 0,0"
           id="path55" />
      </g>
    </g>
    <g
       fill="#000000"
       fill-opacity="1"
       id="g35"
       transform="matrix(0.352778,0,0,0.352778,43.81493,75.077949)">
      <g
         id="use33"
         transform="translate(31.702475,14.349)">
        <path
           d="m 8.078125,-7.765625 c -0.390625,0 -0.578125,0 -0.875,0.25 -0.125,0.09375 -0.34375,0.40625 -0.34375,0.734375 0,0.421875 0.3125,0.671875 0.703125,0.671875 0.5,0 1.046875,-0.421875 1.046875,-1.25 0,-0.984375 -0.953125,-1.75 -2.375,-1.75 -2.703125,0 -5.40625,2.953125 -5.40625,5.890625 0,1.796875 1.109375,3.421875 3.21875,3.421875 2.8125,0 4.59375,-2.1875 4.59375,-2.453125 0,-0.125 -0.125,-0.234375 -0.21875,-0.234375 -0.0625,0 -0.078125,0.03125 -0.265625,0.21875 -1.3125,1.75 -3.28125,2.0625 -4.0625,2.0625 -1.421875,0 -1.890625,-1.25 -1.890625,-2.28125 0,-0.71875 0.359375,-2.71875 1.109375,-4.125 0.53125,-0.96875 1.640625,-2.09375 2.953125,-2.09375 0.265625,0 1.390625,0.046875 1.8125,0.9375 z m 0,0"
           id="path59" />
      </g>
    </g>
    <g
       fill="#000000"
       fill-opacity="1"
       id="g39"
       transform="matrix(0.352778,0,0,0.352778,1.453012,111.48702)">
      <g
         id="use37"
         transform="translate(46.649727,14.349)">
        <path
           d="m 9.796875,-8.421875 c -0.671875,0.125 -0.921875,0.609375 -0.921875,1 0,0.5 0.40625,0.671875 0.6875,0.671875 0.625,0 1.0625,-0.546875 1.0625,-1.09375 0,-0.875 -1,-1.265625 -1.859375,-1.265625 -1.265625,0 -1.96875,1.234375 -2.15625,1.625 -0.46875,-1.546875 -1.75,-1.625 -2.125,-1.625 -2.109375,0 -3.21875,2.703125 -3.21875,3.15625 0,0.09375 0.078125,0.1875 0.21875,0.1875 0.171875,0 0.203125,-0.125 0.25,-0.203125 0.703125,-2.296875 2.09375,-2.734375 2.6875,-2.734375 0.921875,0 1.109375,0.875 1.109375,1.375 0,0.453125 -0.125,0.921875 -0.359375,1.921875 L 4.46875,-2.578125 c -0.3125,1.234375 -0.921875,2.375 -2.015625,2.375 -0.09375,0 -0.609375,0 -1.046875,-0.265625 C 2.140625,-0.625 2.3125,-1.234375 2.3125,-1.484375 2.3125,-1.90625 2,-2.140625 1.609375,-2.140625 c -0.5,0 -1.03125,0.421875 -1.03125,1.09375 0,0.859375 0.96875,1.25 1.859375,1.25 0.984375,0 1.6875,-0.78125 2.125,-1.625 0.328125,1.21875 1.359375,1.625 2.125,1.625 2.109375,0 3.234375,-2.703125 3.234375,-3.15625 0,-0.109375 -0.09375,-0.1875 -0.21875,-0.1875 -0.1875,0 -0.203125,0.109375 -0.265625,0.265625 -0.5625,1.828125 -1.75,2.671875 -2.6875,2.671875 -0.71875,0 -1.109375,-0.546875 -1.109375,-1.390625 0,-0.453125 0.078125,-0.78125 0.40625,-2.140625 l 0.734375,-2.8125 c 0.296875,-1.234375 1,-2.15625 1.953125,-2.15625 0.046875,0 0.625,0 1.0625,0.28125 z m 0,0"
           id="path63" />
      </g>
    </g>
    <g
       clip-path="url(#clipPath5604)"
       id="g45"
       transform="matrix(0.352778,0,0,0.352778,7.0363274,133.27676)">
      <g
         fill="#000000"
         fill-opacity="1"
         id="g43">
        <g
           id="use41"
           transform="translate(64.386414,14.349)">
          <path
             d="m 5.4375,2.3125 c -0.5625,0.78125 -1.375,1.484375 -2.375,1.484375 -0.25,0 -1.25,-0.03125 -1.546875,-0.984375 C 1.5625,2.828125 1.671875,2.828125 1.71875,2.828125 2.328125,2.828125 2.75,2.296875 2.75,1.8125 2.75,1.34375 2.359375,1.171875 2.046875,1.171875 c -0.328125,0 -1.0625,0.25 -1.0625,1.265625 0,1.046875 0.890625,1.78125 2.078125,1.78125 2.0625,0 4.140625,-1.90625 4.71875,-4.203125 L 9.8125,-8.03125 c 0.015625,-0.109375 0.0625,-0.234375 0.0625,-0.359375 0,-0.3125 -0.25,-0.515625 -0.5625,-0.515625 -0.1875,0 -0.609375,0.09375 -0.78125,0.703125 L 7,-2.125 c -0.09375,0.375 -0.09375,0.40625 -0.265625,0.640625 -0.40625,0.578125 -1.09375,1.28125 -2.09375,1.28125 -1.15625,0 -1.25,-1.140625 -1.25,-1.703125 0,-1.171875 0.5625,-2.765625 1.109375,-4.25 0.234375,-0.59375 0.359375,-0.890625 0.359375,-1.296875 0,-0.875 -0.625,-1.65625 -1.640625,-1.65625 -1.890625,0 -2.65625,3 -2.65625,3.15625 0,0.09375 0.078125,0.1875 0.21875,0.1875 0.1875,0 0.203125,-0.078125 0.296875,-0.375 0.484375,-1.734375 1.28125,-2.5625 2.078125,-2.5625 0.1875,0 0.546875,0 0.546875,0.6875 0,0.53125 -0.234375,1.140625 -0.546875,1.921875 -1.015625,2.703125 -1.015625,3.390625 -1.015625,3.890625 0,1.953125 1.40625,2.40625 2.4375,2.40625 0.609375,0 1.34375,-0.1875 2.078125,-0.953125 l 0.015625,0.03125 C 6.359375,0.5 6.15625,1.296875 5.4375,2.3125 Z m 0,0"
             id="path67" />
        </g>
      </g>
    </g>
    <ellipse
       style="fill:#000000;fill-opacity:1;stroke:none;stroke-width:0.238468;stroke-opacity:1"
       id="path1185"
       cx="106.06226"
       cy="133.74442"
       rx="1.3807659"
       ry="1.3807662" />
    <ellipse
       style="fill:#000000;fill-opacity:1;stroke:none;stroke-width:0.238468;stroke-opacity:1"
       id="path1185-3"
       cx="9.6906147"
       cy="133.74442"
       rx="1.3807659"
       ry="1.3807662" />
    <ellipse
       style="fill:#000000;fill-opacity:1;stroke:none;stroke-width:0.238468;stroke-opacity:1"
       id="path1185-6"
       cx="53.910244"
       cy="81.592384"
       rx="1.3807659"
       ry="1.3807662" />
    <ellipse
       style="fill:#000000;fill-opacity:1;stroke:none;stroke-width:0.238468;stroke-opacity:1"
       id="path1185-7"
       cx="28.56811"
       cy="133.74442"
       rx="1.3807659"
       ry="1.3807662" />
    <ellipse
       style="fill:#000000;fill-opacity:1;stroke:none;stroke-width:0.238468;stroke-opacity:1"
       id="path1185-5"
       cx="23.039042"
       cy="118.00146"
       rx="1.3807659"
       ry="1.3807662" />
    <ellipse
       style="fill:#000000;fill-opacity:1;stroke:none;stroke-width:0.238468;stroke-opacity:1"
       id="path1185-35"
       cx="103.43806"
       cy="168.04832"
       rx="1.3807659"
       ry="1.3807662" />
    <ellipse
       style="fill:#000000;fill-opacity:1;stroke:none;stroke-width:0.238468;stroke-opacity:1"
       id="path1185-62"
       cx="180.96014"
       cy="168.04832"
       rx="1.3807659"
       ry="1.3807662" />
    <ellipse
       style="fill:#000000;fill-opacity:1;stroke:none;stroke-width:0.238468;stroke-opacity:1"
       id="path1185-9"
       cx="144.30396"
       cy="98.449684"
       rx="1.3807659"
       ry="1.3807662" />
    <ellipse
       style="fill:#000000;fill-opacity:1;stroke:none;stroke-width:0.238468;stroke-opacity:1"
       id="path1185-1"
       cx="138.55286"
       cy="150.8062"
       rx="1.3807659"
       ry="1.3807662" />
    <g
       fill="#000000"
       fill-opacity="1"
       id="g1686"
       transform="matrix(0.352778,0,0,0.352778,98.309025,169.50436)">
      <g
         id="g1684"
         transform="translate(0,8.8959999)">
        <path
           d="m 9.796875,-8.421875 c -0.671875,0.125 -0.921875,0.609375 -0.921875,1 0,0.5 0.40625,0.671875 0.6875,0.671875 0.625,0 1.0625,-0.546875 1.0625,-1.09375 0,-0.875 -1,-1.265625 -1.859375,-1.265625 -1.265625,0 -1.96875,1.234375 -2.15625,1.625 -0.46875,-1.546875 -1.75,-1.625 -2.125,-1.625 -2.109375,0 -3.21875,2.703125 -3.21875,3.15625 0,0.09375 0.078125,0.1875 0.21875,0.1875 0.171875,0 0.203125,-0.125 0.25,-0.203125 0.703125,-2.296875 2.09375,-2.734375 2.6875,-2.734375 0.921875,0 1.109375,0.875 1.109375,1.375 0,0.453125 -0.125,0.921875 -0.359375,1.921875 L 4.46875,-2.578125 c -0.3125,1.234375 -0.921875,2.375 -2.015625,2.375 -0.09375,0 -0.609375,0 -1.046875,-0.265625 C 2.140625,-0.625 2.3125,-1.234375 2.3125,-1.484375 2.3125,-1.90625 2,-2.140625 1.609375,-2.140625 c -0.5,0 -1.03125,0.421875 -1.03125,1.09375 0,0.859375 0.96875,1.25 1.859375,1.25 0.984375,0 1.6875,-0.78125 2.125,-1.625 0.328125,1.21875 1.359375,1.625 2.125,1.625 2.109375,0 3.234375,-2.703125 3.234375,-3.15625 0,-0.109375 -0.09375,-0.1875 -0.21875,-0.1875 -0.1875,0 -0.203125,0.109375 -0.265625,0.265625 -0.5625,1.828125 -1.75,2.671875 -2.6875,2.671875 -0.71875,0 -1.109375,-0.546875 -1.109375,-1.390625 0,-0.453125 0.078125,-0.78125 0.40625,-2.140625 l 0.734375,-2.8125 c 0.296875,-1.234375 1,-2.15625 1.953125,-2.15625 0.046875,0 0.625,0 1.0625,0.28125 z m 0,0"
           id="path49" />
      </g>
    </g>
    <g
       clip-path="url(#clipPath2941)"
       id="g33"
       transform="matrix(0.352778,0,0,0.352778,175.88536,169.42909)">
      <g
         fill="#000000"
         fill-opacity="1"
         id="g1691">
        <g
           id="g1689"
           transform="translate(17.736691,8.8959999)">
          <path
             d="m 5.4375,2.3125 c -0.5625,0.78125 -1.375,1.484375 -2.375,1.484375 -0.25,0 -1.25,-0.03125 -1.546875,-0.984375 C 1.5625,2.828125 1.671875,2.828125 1.71875,2.828125 2.328125,2.828125 2.75,2.296875 2.75,1.8125 2.75,1.34375 2.359375,1.171875 2.046875,1.171875 c -0.328125,0 -1.0625,0.25 -1.0625,1.265625 0,1.046875 0.890625,1.78125 2.078125,1.78125 2.0625,0 4.140625,-1.90625 4.71875,-4.203125 L 9.8125,-8.03125 c 0.015625,-0.109375 0.0625,-0.234375 0.0625,-0.359375 0,-0.3125 -0.25,-0.515625 -0.5625,-0.515625 -0.1875,0 -0.609375,0.09375 -0.78125,0.703125 L 7,-2.125 c -0.09375,0.375 -0.09375,0.40625 -0.265625,0.640625 -0.40625,0.578125 -1.09375,1.28125 -2.09375,1.28125 -1.15625,0 -1.25,-1.140625 -1.25,-1.703125 0,-1.171875 0.5625,-2.765625 1.109375,-4.25 0.234375,-0.59375 0.359375,-0.890625 0.359375,-1.296875 0,-0.875 -0.625,-1.65625 -1.640625,-1.65625 -1.890625,0 -2.65625,3 -2.65625,3.15625 0,0.09375 0.078125,0.1875 0.21875,0.1875 0.1875,0 0.203125,-0.078125 0.296875,-0.375 0.484375,-1.734375 1.28125,-2.5625 2.078125,-2.5625 0.1875,0 0.546875,0 0.546875,0.6875 0,0.53125 -0.234375,1.140625 -0.546875,1.921875 -1.015625,2.703125 -1.015625,3.390625 -1.015625,3.890625 0,1.953125 1.40625,2.40625 2.4375,2.40625 0.609375,0 1.34375,-0.1875 2.078125,-0.953125 l 0.015625,0.03125 C 6.359375,0.5 6.15625,1.296875 5.4375,2.3125 Z m 0,0"
             id="path53" />
        </g>
      </g>
    </g>
    <g
       fill="#000000"
       fill-opacity="1"
       id="g37"
       transform="matrix(0.352778,0,0,0.352778,133.16974,93.858947)">
      <g
         id="use35"
         transform="translate(34.584892,8.8959999)">
        <path
           d="M 2.625,-1.671875 C 3.515625,-2.6875 4.234375,-3.328125 5.265625,-4.25 6.5,-5.328125 7.046875,-5.84375 7.328125,-6.15625 8.78125,-7.578125 9.5,-8.78125 9.5,-8.9375 9.5,-9.109375 9.34375,-9.109375 9.296875,-9.109375 9.15625,-9.109375 9.109375,-9.03125 9,-8.875 8.484375,-8 8,-7.5625 7.453125,-7.5625 c -0.4375,0 -0.65625,-0.1875 -1.046875,-0.671875 -0.4375,-0.53125 -0.78125,-0.875 -1.390625,-0.875 -1.5,0 -2.40625,1.875 -2.40625,2.3125 0,0.0625 0.015625,0.1875 0.203125,0.1875 0.15625,0 0.1875,-0.078125 0.25,-0.234375 0.34375,-0.8125 1.34375,-0.96875 1.734375,-0.96875 0.421875,0 0.84375,0.15625 1.28125,0.328125 0.78125,0.34375 1.109375,0.34375 1.3125,0.34375 0.15625,0 0.234375,0 0.328125,-0.03125 C 7.046875,-6.359375 5.921875,-5.375 5,-4.53125 l -2.09375,1.921875 c -1.25,1.28125 -2.015625,2.5 -2.015625,2.65625 0,0.125 0.09375,0.15625 0.21875,0.15625 0.125,0 0.15625,-0.015625 0.296875,-0.265625 0.328125,-0.515625 0.984375,-1.28125 1.75,-1.28125 0.4375,0 0.640625,0.140625 1.0625,0.65625 0.390625,0.453125 0.734375,0.890625 1.40625,0.890625 2.015625,0 3.171875,-2.625 3.171875,-3.09375 0,-0.078125 -0.015625,-0.203125 -0.21875,-0.203125 -0.171875,0 -0.1875,0.078125 -0.25,0.28125 C 7.875,-1.59375 6.65625,-1.09375 5.84375,-1.09375 5.40625,-1.09375 5,-1.234375 4.5625,-1.421875 3.734375,-1.75 3.515625,-1.75 3.25,-1.75 c -0.21875,0 -0.4375,0 -0.625,0.078125 z m 0,0"
           id="path57" />
      </g>
    </g>
    <g
       clip-path="url(#clipPath1815)"
       id="g1700"
       transform="matrix(0.352778,0,0,0.352778,120.12778,155.84217)">
      <g
         fill="#000000"
         fill-opacity="1"
         id="g41">
        <g
           id="use39"
           transform="translate(51.133488,8.8959999)">
          <path
             d="m 6.21875,-2.453125 c -0.109375,0.34375 -0.109375,0.390625 -0.390625,0.78125 -0.453125,0.578125 -1.359375,1.46875 -2.34375,1.46875 -0.84375,0 -1.3125,-0.765625 -1.3125,-1.984375 0,-1.140625 0.640625,-3.453125 1.03125,-4.3125 C 3.90625,-7.953125 4.875,-8.703125 5.6875,-8.703125 c 1.359375,0 1.625,1.703125 1.625,1.859375 0,0.03125 -0.0625,0.296875 -0.078125,0.34375 z M 7.546875,-7.75 C 7.3125,-8.28125 6.75,-9.109375 5.6875,-9.109375 c -2.34375,0 -4.859375,3.015625 -4.859375,6.078125 0,2.046875 1.203125,3.234375 2.59375,3.234375 1.140625,0 2.109375,-0.890625 2.6875,-1.5625 0.21875,1.21875 1.1875,1.5625 1.796875,1.5625 0.625,0 1.125,-0.375 1.5,-1.109375 0.328125,-0.703125 0.609375,-1.96875 0.609375,-2.046875 0,-0.109375 -0.078125,-0.1875 -0.203125,-0.1875 -0.1875,0 -0.203125,0.109375 -0.296875,0.40625 -0.296875,1.21875 -0.703125,2.53125 -1.546875,2.53125 -0.59375,0 -0.640625,-0.546875 -0.640625,-0.953125 0,-0.46875 0.0625,-0.703125 0.25,-1.515625 0.140625,-0.515625 0.25,-0.96875 0.421875,-1.5625 0.765625,-3.09375 0.9375,-3.84375 0.9375,-3.96875 0,-0.28125 -0.21875,-0.515625 -0.53125,-0.515625 C 7.75,-8.71875 7.578125,-8 7.546875,-7.75 Z m 0,0"
             id="path61" />
        </g>
      </g>
    </g>
  </g>
</svg>
