<?xml version="1.0" encoding="UTF-8" standalone="no"?>
<!-- Created with Inkscape (http://www.inkscape.org/) -->

<svg
   width="210mm"
   height="297mm"
   viewBox="0 0 210 297"
   version="1.1"
   id="svg5"
   sodipodi:docname="homotopic.svg"
   inkscape:version="1.2.2 (b0a8486541, 2022-12-01)"
   xmlns:inkscape="http://www.inkscape.org/namespaces/inkscape"
   xmlns:sodipodi="http://sodipodi.sourceforge.net/DTD/sodipodi-0.dtd"
   xmlns="http://www.w3.org/2000/svg"
   xmlns:svg="http://www.w3.org/2000/svg">
  <sodipodi:namedview
     id="namedview7"
     pagecolor="#ffffff"
     bordercolor="#000000"
     borderopacity="0.25"
     inkscape:showpageshadow="2"
     inkscape:pageopacity="0.0"
     inkscape:pagecheckerboard="0"
     inkscape:deskcolor="#d1d1d1"
     inkscape:document-units="mm"
     showgrid="false"
     showguides="true"
     inkscape:zoom="1.4275405"
     inkscape:cx="378.97349"
     inkscape:cy="350.25277"
     inkscape:window-width="1888"
     inkscape:window-height="1008"
     inkscape:window-x="13"
     inkscape:window-y="53"
     inkscape:window-maximized="1"
     inkscape:current-layer="layer1" />
  <defs
     id="defs2">
    <clipPath
       id="clipPath9975">
      <path
         clip-rule="nonzero"
         d="m 13,0 h 5 v 20.628906 h -5 z m 0,0"
         id="path262" />
    </clipPath>
    <clipPath
       id="clipPath1842">
      <path
         clip-rule="nonzero"
         d="m 30,0 h 5 v 20.628906 h -5 z m 0,0"
         id="path8770" />
    </clipPath>
    <clipPath
       id="clipPath7804">
      <path
         clip-rule="nonzero"
         d="m 56,0 h 6 v 20.628906 h -6 z m 0,0"
         id="path8132" />
    </clipPath>
    <clipPath
       id="clipPath1053">
      <path
         clip-rule="nonzero"
         d="m 71,0 h 6 v 20.628906 h -6 z m 0,0"
         id="path7844" />
    </clipPath>
    <clipPath
       id="clipPath1411">
      <path
         clip-rule="nonzero"
         d="m 99,0 h 6 v 20.628906 h -6 z m 0,0"
         id="path937" />
    </clipPath>
    <clipPath
       id="clipPath5231">
      <path
         clip-rule="nonzero"
         d="m 131,0 h 5 v 20.628906 h -5 z m 0,0"
         id="path9041" />
    </clipPath>
    <clipPath
       id="clipPath9831">
      <path
         clip-rule="nonzero"
         d="m 177,0 h 6 v 20.628906 h -6 z m 0,0"
         id="path7649" />
    </clipPath>
    <clipPath
       id="clipPath6613">
      <path
         clip-rule="nonzero"
         d="m 191,0 h 5 v 20.628906 h -5 z m 0,0"
         id="path8037" />
    </clipPath>
    <clipPath
       id="clipPath6508">
      <path
         clip-rule="nonzero"
         d="m 219,0 h 6 v 20.628906 h -6 z m 0,0"
         id="path3756" />
    </clipPath>
    <clipPath
       id="clipPath5480">
      <path
         clip-rule="nonzero"
         d="m 253,0 h 5 v 20.628906 h -5 z m 0,0"
         id="path6860" />
    </clipPath>
    <clipPath
       id="clipPath9987">
      <path
         clip-rule="nonzero"
         d="m 298,0 h 5 v 20.628906 h -5 z m 0,0"
         id="path1427" />
    </clipPath>
    <clipPath
       id="clipPath2455">
      <path
         clip-rule="nonzero"
         d="m 312,0 h 5 v 20.628906 h -5 z m 0,0"
         id="path3918" />
    </clipPath>
    <clipPath
       id="clipPath8807">
      <path
         clip-rule="nonzero"
         d="m 15,0 h 6 v 20.628906 h -6 z m 0,0"
         id="path3667" />
    </clipPath>
    <clipPath
       id="clipPath5109">
      <path
         clip-rule="nonzero"
         d="m 48,0 h 5 v 20.628906 h -5 z m 0,0"
         id="path7156" />
    </clipPath>
  </defs>
  <g
     inkscape:label="Layer 1"
     inkscape:groupmode="layer"
     id="layer1">
    <g
       id="g1676"
       transform="translate(35.635676,6.897556)">
      <path
         style="fill:none;fill-opacity:1;stroke:#000000;stroke-width:0.499999;stroke-opacity:1"
         d="m 9.2116684,116.15705 c 0,0 26.0312666,-22.655691 42.2097336,-26.141182 19.757859,-4.256636 39.911517,8.123558 60.121068,7.866685 9.11048,-0.115799 27.00372,-4.234024 27.00372,-4.234024"
         id="path1117"
         sodipodi:nodetypes="cssc" />
      <path
         style="fill:none;fill-opacity:1;stroke:#000000;stroke-width:0.499999;stroke-opacity:1"
         d="m 9.2116684,116.15705 c 0,0 28.9697206,11.28154 36.5215736,11.04596 21.779942,-0.6794 29.352752,13.62453 48.228255,2.73679 14.605553,-8.42475 44.584693,-36.291271 44.584693,-36.291271"
         id="path1119"
         sodipodi:nodetypes="cssc" />
      <path
         style="fill:none;fill-opacity:1;stroke:#000000;stroke-width:0.499999;stroke-opacity:1"
         d="m 9.2116684,116.15705 c 0,0 59.7006016,14.52446 74.6688896,10.11228 24.857912,-7.32734 54.665632,-32.620801 54.665632,-32.620801"
         id="path1121"
         sodipodi:nodetypes="csc" />
      <path
         style="fill:none;fill-opacity:1;stroke:#000000;stroke-width:0.499999;stroke-opacity:1"
         d="m 9.2116684,116.15705 c 0,0 18.9402186,-15.49283 39.8702926,-19.591114 11.041336,-2.161987 30.542321,6.423464 51.688839,6.261864 17.25069,-0.13182 37.77539,-9.179271 37.77539,-9.179271"
         id="path1123"
         sodipodi:nodetypes="cssc" />
      <path
         style="fill:none;fill-opacity:1;stroke:#000000;stroke-width:0.499999;stroke-opacity:1"
         d="m 9.2116684,116.15705 c 0,0 13.3702986,-8.07272 20.2064156,-8.21599 8.083125,-0.1694 9.113824,3.02007 17.105837,4.24209 10.080398,1.54135 11.853521,-10.19708 21.971536,-8.92588 6.465252,0.81228 15.281192,5.91356 21.797243,5.89447 9.94429,-0.0291 13.49164,-0.48555 23.08522,-3.10332 4.19933,-1.14586 25.16827,-12.399891 25.16827,-12.399891"
         id="path1125"
         sodipodi:nodetypes="csssssc" />
      <path
         style="fill:none;fill-opacity:1;stroke:#000000;stroke-width:0.499999;stroke-opacity:1"
         d="m 9.2116684,116.15705 c 0,0 14.8897886,-1.77437 22.3625206,-1.63409 14.327241,0.26895 28.420123,5.54604 42.727194,4.73988 10.747607,-0.6056 21.451048,-3.2684 31.493907,-7.14381 11.69303,-4.51219 32.7509,-18.470501 32.7509,-18.470501"
         id="path1129"
         sodipodi:nodetypes="csssc" />
      <ellipse
         style="fill:#000000;fill-opacity:1;stroke:none;stroke-width:0.321185;stroke-opacity:1"
         id="path1131"
         cx="9.211668"
         cy="116.15705"
         rx="1.3394074"
         ry="1.3394076" />
      <ellipse
         style="fill:#000000;fill-opacity:1;stroke:none;stroke-width:0.321185;stroke-opacity:1"
         id="path1131-6"
         cx="138.54619"
         cy="93.648529"
         rx="1.3394074"
         ry="1.3394076" />
    </g>
    <g
       id="g1565"
       transform="translate(-27.033151,56.753185)">
      <g
         fill="#000000"
         fill-opacity="1"
         id="g82"
         transform="matrix(0.352778,0,0,0.352778,58.196151,67.637214)">
        <g
           id="use80"
           transform="translate(0,15.479)">
          <path
             d="M 7.8125,-2.515625 C 7.765625,-3.53125 7.71875,-5.125 6.9375,-6.984375 c -0.40625,-1.03125 -1.109375,-2.125 -2.625,-2.125 -2.53125,0 -3.921875,3.25 -3.921875,3.78125 0,0.1875 0.140625,0.1875 0.203125,0.1875 0.1875,0 0.1875,-0.046875 0.296875,-0.3125 0.4375,-1.28125 1.75,-2.296875 3.171875,-2.296875 2.875,0 3.296875,3.203125 3.296875,5.25 0,1.296875 -0.15625,1.734375 -0.28125,2.15625 -0.390625,1.265625 -1.0625,3.828125 -1.0625,4.40625 0,0.171875 0.0625,0.359375 0.21875,0.359375 0.3125,0 0.5,-0.6875 0.734375,-1.515625 0.484375,-1.8125 0.609375,-2.71875 0.71875,-3.546875 0.0625,-0.5 1.234375,-3.90625 2.875,-7.140625 0.140625,-0.34375 0.421875,-0.890625 0.421875,-0.953125 0,-0.03125 -0.01563,-0.171875 -0.203125,-0.171875 -0.04687,0 -0.140625,0 -0.1875,0.09375 -0.03125,0.03125 -0.765625,1.4375 -1.375,2.84375 -0.3125,0.703125 -0.734375,1.625 -1.40625,3.453125 z m 0,0"
             id="path224" />
        </g>
      </g>
      <g
         clip-path="url(#clipPath9975)"
         id="g88"
         transform="matrix(0.352778,0,0,0.352778,58.196151,67.637214)">
        <g
           fill="#000000"
           fill-opacity="1"
           id="g86">
          <g
             id="use84"
             transform="translate(11.618,15.479)">
            <path
               d="m 6.328125,5.046875 c 0,-0.03125 0,-0.0625 -0.0625,-0.125 -0.953125,-0.96875 -3.5,-3.625 -3.5,-10.0625 0,-6.453125 2.5,-9.078125 3.515625,-10.109375 0,-0.01563 0.046875,-0.0625 0.046875,-0.125 0,-0.0625 -0.0625,-0.09375 -0.15625,-0.09375 -0.21875,0 -1.984375,1.53125 -2.984375,3.796875 -1.046875,2.296875 -1.328125,4.53125 -1.328125,6.5 0,1.5 0.140625,4.015625 1.390625,6.6875 0.984375,2.140625 2.671875,3.65625 2.921875,3.65625 0.109375,0 0.15625,-0.046875 0.15625,-0.125 z m 0,0"
               id="path228" />
          </g>
        </g>
      </g>
      <g
         fill="#000000"
         fill-opacity="1"
         id="g92"
         transform="matrix(0.352778,0,0,0.352778,58.196151,67.637214)">
        <g
           id="use90"
           transform="translate(18.934999,15.479)">
          <path
             d="m 6.21875,-2.453125 c -0.109375,0.34375 -0.109375,0.390625 -0.390625,0.78125 -0.453125,0.578125 -1.359375,1.46875 -2.34375,1.46875 -0.84375,0 -1.3125,-0.765625 -1.3125,-1.984375 0,-1.140625 0.640625,-3.453125 1.03125,-4.3125 C 3.90625,-7.953125 4.875,-8.703125 5.6875,-8.703125 c 1.359375,0 1.625,1.703125 1.625,1.859375 0,0.03125 -0.0625,0.296875 -0.078125,0.34375 z M 7.546875,-7.75 C 7.3125,-8.28125 6.75,-9.109375 5.6875,-9.109375 c -2.34375,0 -4.859375,3.015625 -4.859375,6.078125 0,2.046875 1.203125,3.234375 2.59375,3.234375 1.140625,0 2.109375,-0.890625 2.6875,-1.5625 0.21875,1.21875 1.1875,1.5625 1.796875,1.5625 0.625,0 1.125,-0.375 1.5,-1.109375 0.328125,-0.703125 0.609375,-1.96875 0.609375,-2.046875 0,-0.109375 -0.078125,-0.1875 -0.203125,-0.1875 -0.1875,0 -0.203125,0.109375 -0.296875,0.40625 -0.296875,1.21875 -0.703125,2.53125 -1.546875,2.53125 -0.59375,0 -0.640625,-0.546875 -0.640625,-0.953125 0,-0.46875 0.0625,-0.703125 0.25,-1.515625 0.140625,-0.515625 0.25,-0.96875 0.421875,-1.5625 0.765625,-3.09375 0.9375,-3.84375 0.9375,-3.96875 0,-0.28125 -0.21875,-0.515625 -0.53125,-0.515625 C 7.75,-8.71875 7.578125,-8 7.546875,-7.75 Z m 0,0"
             id="path232" />
        </g>
      </g>
      <g
         clip-path="url(#clipPath1842)"
         id="g98"
         transform="matrix(0.352778,0,0,0.352778,58.196151,67.637214)">
        <g
           fill="#000000"
           fill-opacity="1"
           id="g96">
          <g
             id="use94"
             transform="translate(29.556,15.479)">
            <path
               d="m 5.4375,-5.140625 c 0,-1.484375 -0.15625,-4.015625 -1.390625,-6.671875 -0.984375,-2.15625 -2.6875,-3.65625 -2.9375,-3.65625 -0.0625,0 -0.140625,0.01563 -0.140625,0.125 0,0.03125 0.015625,0.0625 0.046875,0.09375 C 2,-14.21875 4.53125,-11.59375 4.53125,-5.171875 4.53125,1.28125 2.03125,3.90625 1.015625,4.9375 0.984375,4.984375 0.96875,5 0.96875,5.046875 c 0,0.09375 0.078125,0.125 0.140625,0.125 0.234375,0 1.984375,-1.53125 3,-3.8125 1.03125,-2.28125 1.328125,-4.515625 1.328125,-6.5 z m 0,0"
               id="path236" />
          </g>
        </g>
      </g>
    </g>
    <g
       id="g1581"
       transform="translate(101.9787,24.292039)">
      <g
         fill="#000000"
         fill-opacity="1"
         id="g102"
         transform="matrix(0.352778,0,0,0.352778,58.196151,67.637214)">
        <g
           id="use100"
           transform="translate(43.111,15.479)">
          <path
             d="M 7.8125,-2.515625 C 7.765625,-3.53125 7.71875,-5.125 6.9375,-6.984375 c -0.40625,-1.03125 -1.109375,-2.125 -2.625,-2.125 -2.53125,0 -3.921875,3.25 -3.921875,3.78125 0,0.1875 0.140625,0.1875 0.203125,0.1875 0.1875,0 0.1875,-0.046875 0.296875,-0.3125 0.4375,-1.28125 1.75,-2.296875 3.171875,-2.296875 2.875,0 3.296875,3.203125 3.296875,5.25 0,1.296875 -0.15625,1.734375 -0.28125,2.15625 -0.390625,1.265625 -1.0625,3.828125 -1.0625,4.40625 0,0.171875 0.0625,0.359375 0.21875,0.359375 0.3125,0 0.5,-0.6875 0.734375,-1.515625 0.484375,-1.8125 0.609375,-2.71875 0.71875,-3.546875 0.0625,-0.5 1.234375,-3.90625 2.875,-7.140625 0.140625,-0.34375 0.421875,-0.890625 0.421875,-0.953125 0,-0.03125 -0.01563,-0.171875 -0.203125,-0.171875 -0.04687,0 -0.140625,0 -0.1875,0.09375 -0.03125,0.03125 -0.765625,1.4375 -1.375,2.84375 -0.3125,0.703125 -0.734375,1.625 -1.40625,3.453125 z m 0,0"
             id="path240" />
        </g>
      </g>
      <g
         clip-path="url(#clipPath7804)"
         id="g108"
         transform="matrix(0.352778,0,0,0.352778,58.196151,67.637214)">
        <g
           fill="#000000"
           fill-opacity="1"
           id="g106">
          <g
             id="use104"
             transform="translate(54.729,15.479)">
            <path
               d="m 6.328125,5.046875 c 0,-0.03125 0,-0.0625 -0.0625,-0.125 -0.953125,-0.96875 -3.5,-3.625 -3.5,-10.0625 0,-6.453125 2.5,-9.078125 3.515625,-10.109375 0,-0.01563 0.046875,-0.0625 0.046875,-0.125 0,-0.0625 -0.0625,-0.09375 -0.15625,-0.09375 -0.21875,0 -1.984375,1.53125 -2.984375,3.796875 -1.046875,2.296875 -1.328125,4.53125 -1.328125,6.5 0,1.5 0.140625,4.015625 1.390625,6.6875 0.984375,2.140625 2.671875,3.65625 2.921875,3.65625 0.109375,0 0.15625,-0.046875 0.15625,-0.125 z m 0,0"
               id="path244" />
          </g>
        </g>
      </g>
      <g
         fill="#000000"
         fill-opacity="1"
         id="g112"
         transform="matrix(0.352778,0,0,0.352778,58.196151,67.637214)">
        <g
           id="use110"
           transform="translate(62.046001,15.479)">
          <path
             d="m 4.765625,-13.8125 c 0.03125,-0.09375 0.0625,-0.21875 0.0625,-0.3125 0,-0.203125 -0.203125,-0.203125 -0.25,-0.203125 -0.015625,0 -0.75,0.04687 -1.125,0.09375 -0.359375,0.01563 -0.671875,0.0625 -1.03125,0.07813 -0.5,0.04687 -0.640625,0.0625 -0.640625,0.4375 0,0.203125 0.203125,0.203125 0.40625,0.203125 1.0625,0 1.0625,0.1875 1.0625,0.40625 C 3.25,-12.96875 3.078125,-12.375 3,-12 l -0.5,1.984375 C 2.296875,-9.1875 1.109375,-4.5 1.03125,-4.125 0.921875,-3.609375 0.921875,-3.265625 0.921875,-3 c 0,2.109375 1.1875,3.203125 2.53125,3.203125 2.390625,0 4.875,-3.078125 4.875,-6.0625 0,-1.90625 -1.078125,-3.25 -2.625,-3.25 -1.078125,0 -2.046875,0.890625 -2.4375,1.296875 z M 3.46875,-0.203125 c -0.65625,0 -1.375,-0.5 -1.375,-2.109375 0,-0.6875 0.046875,-1.078125 0.421875,-2.515625 C 2.578125,-5.109375 2.90625,-6.421875 3,-6.6875 c 0.03125,-0.171875 1.25,-2.015625 2.65625,-2.015625 0.90625,0 1.328125,0.921875 1.328125,1.984375 0,1 -0.578125,3.328125 -1.09375,4.40625 C 5.375,-1.203125 4.421875,-0.203125 3.46875,-0.203125 Z m 0,0"
             id="path248" />
        </g>
      </g>
      <g
         clip-path="url(#clipPath1053)"
         id="g118"
         transform="matrix(0.352778,0,0,0.352778,58.196151,67.637214)">
        <g
           fill="#000000"
           fill-opacity="1"
           id="g116">
          <g
             id="use114"
             transform="translate(70.649002,15.479)">
            <path
               d="m 5.4375,-5.140625 c 0,-1.484375 -0.15625,-4.015625 -1.390625,-6.671875 -0.984375,-2.15625 -2.6875,-3.65625 -2.9375,-3.65625 -0.0625,0 -0.140625,0.01563 -0.140625,0.125 0,0.03125 0.015625,0.0625 0.046875,0.09375 C 2,-14.21875 4.53125,-11.59375 4.53125,-5.171875 4.53125,1.28125 2.03125,3.90625 1.015625,4.9375 0.984375,4.984375 0.96875,5 0.96875,5.046875 c 0,0.09375 0.078125,0.125 0.140625,0.125 0.234375,0 1.984375,-1.53125 3,-3.8125 1.03125,-2.28125 1.328125,-4.515625 1.328125,-6.5 z m 0,0"
               id="path252" />
          </g>
        </g>
      </g>
    </g>
    <g
       id="g1619"
       transform="translate(-13.270127,20.856579)">
      <g
         fill="#000000"
         fill-opacity="1"
         id="g122"
         transform="matrix(0.352778,0,0,0.352778,58.196151,67.637214)">
        <g
           id="use120"
           transform="translate(84.203003,15.479)">
          <path
             d="m 9.703125,-13.84375 c 0,-0.01563 0.09375,-0.28125 0.09375,-0.3125 0,-0.171875 -0.171875,-0.171875 -0.234375,-0.171875 -0.1875,0 -0.203125,0.09375 -0.28125,0.40625 L 5.859375,-0.25 c -1.703125,-0.203125 -2.34375,-1.078125 -2.34375,-2.3125 0,-0.453125 0,-0.921875 0.96875,-3.484375 0.265625,-0.75 0.375,-1.015625 0.375,-1.390625 0,-0.921875 -0.671875,-1.671875 -1.640625,-1.671875 -1.890625,0 -2.65625,3 -2.65625,3.15625 0,0.09375 0.078125,0.1875 0.21875,0.1875 0.1875,0 0.203125,-0.078125 0.296875,-0.375 0.484375,-1.796875 1.3125,-2.5625 2.078125,-2.5625 0.1875,0 0.546875,0.03125 0.546875,0.6875 0,0.078125 0,0.53125 -0.359375,1.453125 -1.109375,2.921875 -1.109375,3.375 -1.109375,3.859375 0,1.984375 1.65625,2.75 3.515625,2.890625 C 5.578125,0.828125 5.4375,1.484375 5.265625,2.125 4.9375,3.359375 4.796875,3.953125 4.796875,4.03125 c 0,0.1875 0.15625,0.1875 0.21875,0.1875 0.046875,0 0.125,0 0.171875,-0.09375 0.078125,-0.078125 0.921875,-3.546875 1.015625,-3.921875 0.765625,0 2.390625,0 4.25,-1.921875 0.6875,-0.734375 1.296875,-1.6875 1.65625,-2.578125 0.203125,-0.53125 0.703125,-2.375 0.703125,-3.421875 0,-1.25 -0.625,-1.390625 -0.828125,-1.390625 -0.5,0 -0.953125,0.5 -0.953125,0.90625 0,0.25 0.140625,0.390625 0.21875,0.484375 0.1875,0.171875 0.75,0.734375 0.75,1.8125 0,0.734375 -0.40625,2.265625 -1.734375,3.765625 -1.734375,1.9375 -3.328125,1.9375 -3.9375,1.9375 z m 0,0"
             id="path256" />
        </g>
      </g>
      <g
         clip-path="url(#clipPath1411)"
         id="g128"
         transform="matrix(0.352778,0,0,0.352778,58.196151,67.637214)">
        <g
           fill="#000000"
           fill-opacity="1"
           id="g126">
          <g
             id="use124"
             transform="translate(98.098,15.479)">
            <path
               d="m 6.328125,5.046875 c 0,-0.03125 0,-0.0625 -0.0625,-0.125 -0.953125,-0.96875 -3.5,-3.625 -3.5,-10.0625 0,-6.453125 2.5,-9.078125 3.515625,-10.109375 0,-0.01563 0.046875,-0.0625 0.046875,-0.125 0,-0.0625 -0.0625,-0.09375 -0.15625,-0.09375 -0.21875,0 -1.984375,1.53125 -2.984375,3.796875 -1.046875,2.296875 -1.328125,4.53125 -1.328125,6.5 0,1.5 0.140625,4.015625 1.390625,6.6875 0.984375,2.140625 2.671875,3.65625 2.921875,3.65625 0.109375,0 0.15625,-0.046875 0.15625,-0.125 z m 0,0"
               id="path260" />
          </g>
        </g>
      </g>
      <g
         fill="#000000"
         fill-opacity="1"
         id="g134"
         transform="matrix(0.352778,0,0,0.352778,58.196151,67.637214)">
        <g
           id="use130"
           transform="translate(105.415,15.479)">
          <path
             d="m 4.15625,-8.296875 h 1.890625 c 0.390625,0 0.609375,0 0.609375,-0.375 0,-0.234375 -0.125,-0.234375 -0.546875,-0.234375 h -1.8125 L 5.0625,-11.921875 c 0.078125,-0.28125 0.078125,-0.328125 0.078125,-0.46875 0,-0.328125 -0.265625,-0.515625 -0.53125,-0.515625 -0.171875,0 -0.640625,0.0625 -0.8125,0.71875 L 3,-8.90625 H 1.046875 c -0.40625,0 -0.59375,0 -0.59375,0.390625 0,0.21875 0.140625,0.21875 0.53125,0.21875 h 1.84375 L 1.46875,-2.84375 c -0.171875,0.71875 -0.234375,0.921875 -0.234375,1.1875 0,0.96875 0.6875,1.859375 1.84375,1.859375 2.09375,0 3.203125,-3.015625 3.203125,-3.15625 0,-0.125 -0.078125,-0.1875 -0.203125,-0.1875 -0.046875,0 -0.125,0 -0.171875,0.078125 -0.015625,0.03125 -0.046875,0.046875 -0.1875,0.375 -0.4375,1.03125 -1.375,2.484375 -2.578125,2.484375 -0.625,0 -0.65625,-0.515625 -0.65625,-0.96875 0,-0.03125 0,-0.421875 0.0625,-0.671875 z m 0,0"
             id="path264" />
        </g>
        <g
           id="use132"
           transform="translate(112.72126,15.479)">
          <path
             d="M 4.03125,0.078125 C 4.03125,-1.109375 3.640625,-2 2.78125,-2 2.125,-2 1.796875,-1.46875 1.796875,-1.015625 1.796875,-0.5625 2.109375,0 2.8125,0 3.078125,0 3.3125,-0.078125 3.484375,-0.265625 3.53125,-0.3125 3.546875,-0.3125 3.578125,-0.3125 c 0.03125,0 0.03125,0.296875 0.03125,0.390625 0,0.6875 -0.125,2.03125 -1.3125,3.375 C 2.0625,3.703125 2.0625,3.734375 2.0625,3.78125 c 0,0.109375 0.109375,0.203125 0.203125,0.203125 0.171875,0 1.765625,-1.53125 1.765625,-3.90625 z m 0,0"
             id="path268" />
        </g>
      </g>
      <g
         fill="#000000"
         fill-opacity="1"
         id="g138"
         transform="matrix(0.352778,0,0,0.352778,58.196151,67.637214)">
        <g
           id="use136"
           transform="translate(121.7921,15.479)">
          <path
             d="m 8.078125,-7.765625 c -0.390625,0 -0.578125,0 -0.875,0.25 -0.125,0.09375 -0.34375,0.40625 -0.34375,0.734375 0,0.421875 0.3125,0.671875 0.703125,0.671875 0.5,0 1.046875,-0.421875 1.046875,-1.25 0,-0.984375 -0.953125,-1.75 -2.375,-1.75 -2.703125,0 -5.40625,2.953125 -5.40625,5.890625 0,1.796875 1.109375,3.421875 3.21875,3.421875 2.8125,0 4.59375,-2.1875 4.59375,-2.453125 0,-0.125 -0.125,-0.234375 -0.21875,-0.234375 -0.0625,0 -0.078125,0.03125 -0.265625,0.21875 -1.3125,1.75 -3.28125,2.0625 -4.0625,2.0625 -1.421875,0 -1.890625,-1.25 -1.890625,-2.28125 0,-0.71875 0.359375,-2.71875 1.109375,-4.125 0.53125,-0.96875 1.640625,-2.09375 2.953125,-2.09375 0.265625,0 1.390625,0.046875 1.8125,0.9375 z m 0,0"
             id="path272" />
        </g>
      </g>
      <g
         clip-path="url(#clipPath5231)"
         id="g144"
         transform="matrix(0.352778,0,0,0.352778,58.196151,67.637214)">
        <g
           fill="#000000"
           fill-opacity="1"
           id="g142">
          <g
             id="use140"
             transform="translate(130.492,15.479)">
            <path
               d="m 5.4375,-5.140625 c 0,-1.484375 -0.15625,-4.015625 -1.390625,-6.671875 -0.984375,-2.15625 -2.6875,-3.65625 -2.9375,-3.65625 -0.0625,0 -0.140625,0.01563 -0.140625,0.125 0,0.03125 0.015625,0.0625 0.046875,0.09375 C 2,-14.21875 4.53125,-11.59375 4.53125,-5.171875 4.53125,1.28125 2.03125,3.90625 1.015625,4.9375 0.984375,4.984375 0.96875,5 0.96875,5.046875 c 0,0.09375 0.078125,0.125 0.140625,0.125 0.234375,0 1.984375,-1.53125 3,-3.8125 1.03125,-2.28125 1.328125,-4.515625 1.328125,-6.5 z m 0,0"
               id="path276" />
          </g>
        </g>
      </g>
      <g
         fill="#000000"
         fill-opacity="1"
         id="g148"
         transform="matrix(0.352778,0,0,0.352778,58.196151,67.637214)">
        <g
           id="use146"
           transform="translate(143.55276,15.479)">
          <path
             d="m 13.28125,-6.625 c 0.3125,0 0.625,0 0.625,-0.359375 0,-0.375 -0.359375,-0.375 -0.703125,-0.375 H 1.65625 c -0.359375,0 -0.703125,0 -0.703125,0.375 0,0.359375 0.3125,0.359375 0.609375,0.359375 z m -0.07813,3.671875 c 0.34375,0 0.703125,0 0.703125,-0.375 0,-0.34375 -0.3125,-0.34375 -0.625,-0.34375 H 1.5625 c -0.296875,0 -0.609375,0 -0.609375,0.34375 0,0.375 0.34375,0.375 0.703125,0.375 z m 0,0"
             id="path280" />
        </g>
      </g>
      <g
         fill="#000000"
         fill-opacity="1"
         id="g152"
         transform="matrix(0.352778,0,0,0.352778,58.196151,67.637214)">
        <g
           id="use150"
           transform="translate(164.162,15.479)">
          <path
             d="M 7.8125,-2.515625 C 7.765625,-3.53125 7.71875,-5.125 6.9375,-6.984375 c -0.40625,-1.03125 -1.109375,-2.125 -2.625,-2.125 -2.53125,0 -3.921875,3.25 -3.921875,3.78125 0,0.1875 0.140625,0.1875 0.203125,0.1875 0.1875,0 0.1875,-0.046875 0.296875,-0.3125 0.4375,-1.28125 1.75,-2.296875 3.171875,-2.296875 2.875,0 3.296875,3.203125 3.296875,5.25 0,1.296875 -0.15625,1.734375 -0.28125,2.15625 -0.390625,1.265625 -1.0625,3.828125 -1.0625,4.40625 0,0.171875 0.0625,0.359375 0.21875,0.359375 0.3125,0 0.5,-0.6875 0.734375,-1.515625 0.484375,-1.8125 0.609375,-2.71875 0.71875,-3.546875 0.0625,-0.5 1.234375,-3.90625 2.875,-7.140625 0.140625,-0.34375 0.421875,-0.890625 0.421875,-0.953125 0,-0.03125 -0.01563,-0.171875 -0.203125,-0.171875 -0.04687,0 -0.140625,0 -0.1875,0.09375 -0.03125,0.03125 -0.765625,1.4375 -1.375,2.84375 -0.3125,0.703125 -0.734375,1.625 -1.40625,3.453125 z m 0,0"
             id="path284" />
        </g>
      </g>
      <g
         clip-path="url(#clipPath9831)"
         id="g158"
         transform="matrix(0.352778,0,0,0.352778,58.196151,67.637214)">
        <g
           fill="#000000"
           fill-opacity="1"
           id="g156">
          <g
             id="use154"
             transform="translate(175.78,15.479)">
            <path
               d="m 6.328125,5.046875 c 0,-0.03125 0,-0.0625 -0.0625,-0.125 -0.953125,-0.96875 -3.5,-3.625 -3.5,-10.0625 0,-6.453125 2.5,-9.078125 3.515625,-10.109375 0,-0.01563 0.046875,-0.0625 0.046875,-0.125 0,-0.0625 -0.0625,-0.09375 -0.15625,-0.09375 -0.21875,0 -1.984375,1.53125 -2.984375,3.796875 -1.046875,2.296875 -1.328125,4.53125 -1.328125,6.5 0,1.5 0.140625,4.015625 1.390625,6.6875 0.984375,2.140625 2.671875,3.65625 2.921875,3.65625 0.109375,0 0.15625,-0.046875 0.15625,-0.125 z m 0,0"
               id="path288" />
          </g>
        </g>
      </g>
      <g
         fill="#000000"
         fill-opacity="1"
         id="g162"
         transform="matrix(0.352778,0,0,0.352778,58.196151,67.637214)">
        <g
           id="use160"
           transform="translate(183.09801,15.479)">
          <path
             d="m 4.15625,-8.296875 h 1.890625 c 0.390625,0 0.609375,0 0.609375,-0.375 0,-0.234375 -0.125,-0.234375 -0.546875,-0.234375 h -1.8125 L 5.0625,-11.921875 c 0.078125,-0.28125 0.078125,-0.328125 0.078125,-0.46875 0,-0.328125 -0.265625,-0.515625 -0.53125,-0.515625 -0.171875,0 -0.640625,0.0625 -0.8125,0.71875 L 3,-8.90625 H 1.046875 c -0.40625,0 -0.59375,0 -0.59375,0.390625 0,0.21875 0.140625,0.21875 0.53125,0.21875 h 1.84375 L 1.46875,-2.84375 c -0.171875,0.71875 -0.234375,0.921875 -0.234375,1.1875 0,0.96875 0.6875,1.859375 1.84375,1.859375 2.09375,0 3.203125,-3.015625 3.203125,-3.15625 0,-0.125 -0.078125,-0.1875 -0.203125,-0.1875 -0.046875,0 -0.125,0 -0.171875,0.078125 -0.015625,0.03125 -0.046875,0.046875 -0.1875,0.375 -0.4375,1.03125 -1.375,2.484375 -2.578125,2.484375 -0.625,0 -0.65625,-0.515625 -0.65625,-0.96875 0,-0.03125 0,-0.421875 0.0625,-0.671875 z m 0,0"
             id="path292" />
        </g>
      </g>
      <g
         clip-path="url(#clipPath6613)"
         id="g168"
         transform="matrix(0.352778,0,0,0.352778,58.196151,67.637214)">
        <g
           fill="#000000"
           fill-opacity="1"
           id="g166">
          <g
             id="use164"
             transform="translate(190.40401,15.479)">
            <path
               d="m 5.4375,-5.140625 c 0,-1.484375 -0.15625,-4.015625 -1.390625,-6.671875 -0.984375,-2.15625 -2.6875,-3.65625 -2.9375,-3.65625 -0.0625,0 -0.140625,0.01563 -0.140625,0.125 0,0.03125 0.015625,0.0625 0.046875,0.09375 C 2,-14.21875 4.53125,-11.59375 4.53125,-5.171875 4.53125,1.28125 2.03125,3.90625 1.015625,4.9375 0.984375,4.984375 0.96875,5 0.96875,5.046875 c 0,0.09375 0.078125,0.125 0.140625,0.125 0.234375,0 1.984375,-1.53125 3,-3.8125 1.03125,-2.28125 1.328125,-4.515625 1.328125,-6.5 z m 0,0"
               id="path296" />
          </g>
        </g>
      </g>
    </g>
    <g
       id="g1657"
       transform="translate(-43.17008,73.542258)">
      <g
         fill="#000000"
         fill-opacity="1"
         id="g172"
         transform="matrix(0.352778,0,0,0.352778,58.196151,67.637214)">
        <g
           id="use170"
           transform="translate(203.959,15.479)">
          <path
             d="m 9.703125,-13.84375 c 0,-0.01563 0.09375,-0.28125 0.09375,-0.3125 0,-0.171875 -0.171875,-0.171875 -0.234375,-0.171875 -0.1875,0 -0.203125,0.09375 -0.28125,0.40625 L 5.859375,-0.25 c -1.703125,-0.203125 -2.34375,-1.078125 -2.34375,-2.3125 0,-0.453125 0,-0.921875 0.96875,-3.484375 0.265625,-0.75 0.375,-1.015625 0.375,-1.390625 0,-0.921875 -0.671875,-1.671875 -1.640625,-1.671875 -1.890625,0 -2.65625,3 -2.65625,3.15625 0,0.09375 0.078125,0.1875 0.21875,0.1875 0.1875,0 0.203125,-0.078125 0.296875,-0.375 0.484375,-1.796875 1.3125,-2.5625 2.078125,-2.5625 0.1875,0 0.546875,0.03125 0.546875,0.6875 0,0.078125 0,0.53125 -0.359375,1.453125 -1.109375,2.921875 -1.109375,3.375 -1.109375,3.859375 0,1.984375 1.65625,2.75 3.515625,2.890625 C 5.578125,0.828125 5.4375,1.484375 5.265625,2.125 4.9375,3.359375 4.796875,3.953125 4.796875,4.03125 c 0,0.1875 0.15625,0.1875 0.21875,0.1875 0.046875,0 0.125,0 0.171875,-0.09375 0.078125,-0.078125 0.921875,-3.546875 1.015625,-3.921875 0.765625,0 2.390625,0 4.25,-1.921875 0.6875,-0.734375 1.296875,-1.6875 1.65625,-2.578125 0.203125,-0.53125 0.703125,-2.375 0.703125,-3.421875 0,-1.25 -0.625,-1.390625 -0.828125,-1.390625 -0.5,0 -0.953125,0.5 -0.953125,0.90625 0,0.25 0.140625,0.390625 0.21875,0.484375 0.1875,0.171875 0.75,0.734375 0.75,1.8125 0,0.734375 -0.40625,2.265625 -1.734375,3.765625 -1.734375,1.9375 -3.328125,1.9375 -3.9375,1.9375 z m 0,0"
             id="path300" />
        </g>
      </g>
      <g
         clip-path="url(#clipPath6508)"
         id="g178"
         transform="matrix(0.352778,0,0,0.352778,58.196151,67.637214)">
        <g
           fill="#000000"
           fill-opacity="1"
           id="g176">
          <g
             id="use174"
             transform="translate(217.853,15.479)">
            <path
               d="m 6.328125,5.046875 c 0,-0.03125 0,-0.0625 -0.0625,-0.125 -0.953125,-0.96875 -3.5,-3.625 -3.5,-10.0625 0,-6.453125 2.5,-9.078125 3.515625,-10.109375 0,-0.01563 0.046875,-0.0625 0.046875,-0.125 0,-0.0625 -0.0625,-0.09375 -0.15625,-0.09375 -0.21875,0 -1.984375,1.53125 -2.984375,3.796875 -1.046875,2.296875 -1.328125,4.53125 -1.328125,6.5 0,1.5 0.140625,4.015625 1.390625,6.6875 0.984375,2.140625 2.671875,3.65625 2.921875,3.65625 0.109375,0 0.15625,-0.046875 0.15625,-0.125 z m 0,0"
               id="path304" />
          </g>
        </g>
      </g>
      <g
         fill="#000000"
         fill-opacity="1"
         id="g184"
         transform="matrix(0.352778,0,0,0.352778,58.196151,67.637214)">
        <g
           id="use180"
           transform="translate(225.17,15.479)">
          <path
             d="m 4.15625,-8.296875 h 1.890625 c 0.390625,0 0.609375,0 0.609375,-0.375 0,-0.234375 -0.125,-0.234375 -0.546875,-0.234375 h -1.8125 L 5.0625,-11.921875 c 0.078125,-0.28125 0.078125,-0.328125 0.078125,-0.46875 0,-0.328125 -0.265625,-0.515625 -0.53125,-0.515625 -0.171875,0 -0.640625,0.0625 -0.8125,0.71875 L 3,-8.90625 H 1.046875 c -0.40625,0 -0.59375,0 -0.59375,0.390625 0,0.21875 0.140625,0.21875 0.53125,0.21875 h 1.84375 L 1.46875,-2.84375 c -0.171875,0.71875 -0.234375,0.921875 -0.234375,1.1875 0,0.96875 0.6875,1.859375 1.84375,1.859375 2.09375,0 3.203125,-3.015625 3.203125,-3.15625 0,-0.125 -0.078125,-0.1875 -0.203125,-0.1875 -0.046875,0 -0.125,0 -0.171875,0.078125 -0.015625,0.03125 -0.046875,0.046875 -0.1875,0.375 -0.4375,1.03125 -1.375,2.484375 -2.578125,2.484375 -0.625,0 -0.65625,-0.515625 -0.65625,-0.96875 0,-0.03125 0,-0.421875 0.0625,-0.671875 z m 0,0"
             id="path308" />
        </g>
        <g
           id="use182"
           transform="translate(232.47626,15.479)">
          <path
             d="M 4.03125,0.078125 C 4.03125,-1.109375 3.640625,-2 2.78125,-2 2.125,-2 1.796875,-1.46875 1.796875,-1.015625 1.796875,-0.5625 2.109375,0 2.8125,0 3.078125,0 3.3125,-0.078125 3.484375,-0.265625 3.53125,-0.3125 3.546875,-0.3125 3.578125,-0.3125 c 0.03125,0 0.03125,0.296875 0.03125,0.390625 0,0.6875 -0.125,2.03125 -1.3125,3.375 C 2.0625,3.703125 2.0625,3.734375 2.0625,3.78125 c 0,0.109375 0.109375,0.203125 0.203125,0.203125 0.171875,0 1.765625,-1.53125 1.765625,-3.90625 z m 0,0"
             id="path312" />
        </g>
      </g>
      <g
         fill="#000000"
         fill-opacity="1"
         id="g188"
         transform="matrix(0.352778,0,0,0.352778,58.196151,67.637214)">
        <g
           id="use186"
           transform="translate(241.5471,15.479)">
          <path
             d="m 10.390625,-13.8125 c 0.01563,-0.09375 0.0625,-0.21875 0.0625,-0.3125 0,-0.203125 -0.203125,-0.203125 -0.25,-0.203125 -0.01563,0 -1.03125,0.07813 -1.140625,0.09375 -0.34375,0.01563 -0.65625,0.0625 -1.03125,0.07813 -0.515625,0.04687 -0.65625,0.0625 -0.65625,0.4375 0,0.203125 0.171875,0.203125 0.453125,0.203125 1.015625,0 1.03125,0.1875 1.03125,0.40625 0,0.109375 -0.046875,0.28125 -0.0625,0.34375 l -1.25,5.01562 C 7.3125,-8.28125 6.75,-9.109375 5.6875,-9.109375 c -2.34375,0 -4.859375,3.015625 -4.859375,6.078125 0,2.046875 1.203125,3.234375 2.59375,3.234375 1.140625,0 2.109375,-0.890625 2.6875,-1.5625 0.21875,1.21875 1.1875,1.5625 1.796875,1.5625 0.625,0 1.125,-0.375 1.5,-1.109375 0.328125,-0.703125 0.609375,-1.96875 0.609375,-2.046875 0,-0.109375 -0.078125,-0.1875 -0.203125,-0.1875 -0.1875,0 -0.203125,0.109375 -0.296875,0.40625 -0.296875,1.21875 -0.703125,2.53125 -1.546875,2.53125 -0.59375,0 -0.640625,-0.546875 -0.640625,-0.953125 0,-0.078125 0,-0.515625 0.15625,-1.09375 z M 6.21875,-2.453125 c -0.109375,0.34375 -0.109375,0.390625 -0.390625,0.78125 -0.453125,0.578125 -1.359375,1.46875 -2.34375,1.46875 -0.84375,0 -1.3125,-0.765625 -1.3125,-1.984375 0,-1.140625 0.640625,-3.453125 1.03125,-4.3125 C 3.90625,-7.953125 4.875,-8.703125 5.6875,-8.703125 c 1.359375,0 1.625,1.703125 1.625,1.859375 0,0.03125 -0.0625,0.296875 -0.078125,0.34375 z m 0,0"
             id="path316" />
        </g>
      </g>
      <g
         clip-path="url(#clipPath5480)"
         id="g194"
         transform="matrix(0.352778,0,0,0.352778,58.196151,67.637214)">
        <g
           fill="#000000"
           fill-opacity="1"
           id="g192">
          <g
             id="use190"
             transform="translate(252.05299,15.479)">
            <path
               d="m 5.4375,-5.140625 c 0,-1.484375 -0.15625,-4.015625 -1.390625,-6.671875 -0.984375,-2.15625 -2.6875,-3.65625 -2.9375,-3.65625 -0.0625,0 -0.140625,0.01563 -0.140625,0.125 0,0.03125 0.015625,0.0625 0.046875,0.09375 C 2,-14.21875 4.53125,-11.59375 4.53125,-5.171875 4.53125,1.28125 2.03125,3.90625 1.015625,4.9375 0.984375,4.984375 0.96875,5 0.96875,5.046875 c 0,0.09375 0.078125,0.125 0.140625,0.125 0.234375,0 1.984375,-1.53125 3,-3.8125 1.03125,-2.28125 1.328125,-4.515625 1.328125,-6.5 z m 0,0"
               id="path320" />
          </g>
        </g>
      </g>
      <g
         fill="#000000"
         fill-opacity="1"
         id="g198"
         transform="matrix(0.352778,0,0,0.352778,58.196151,67.637214)">
        <g
           id="use196"
           transform="translate(265.11377,15.479)">
          <path
             d="m 13.28125,-6.625 c 0.3125,0 0.625,0 0.625,-0.359375 0,-0.375 -0.359375,-0.375 -0.703125,-0.375 H 1.65625 c -0.359375,0 -0.703125,0 -0.703125,0.375 0,0.359375 0.3125,0.359375 0.609375,0.359375 z m -0.07813,3.671875 c 0.34375,0 0.703125,0 0.703125,-0.375 0,-0.34375 -0.3125,-0.34375 -0.625,-0.34375 H 1.5625 c -0.296875,0 -0.609375,0 -0.609375,0.34375 0,0.375 0.34375,0.375 0.703125,0.375 z m 0,0"
             id="path324" />
        </g>
      </g>
      <g
         fill="#000000"
         fill-opacity="1"
         id="g202"
         transform="matrix(0.352778,0,0,0.352778,58.196151,67.637214)">
        <g
           id="use200"
           transform="translate(285.72299,15.479)">
          <path
             d="M 9.8125,-5.71875 C 9.921875,-6.140625 9.984375,-6.375 9.984375,-6.9375 c 0,-1.25 -0.734375,-2.171875 -2.296875,-2.171875 -1.84375,0 -2.8125,1.296875 -3.1875,1.8125 -0.0625,-1.171875 -0.90625,-1.8125 -1.8125,-1.8125 -0.59375,0 -1.078125,0.296875 -1.46875,1.078125 -0.375,0.734375 -0.65625,2 -0.65625,2.078125 0,0.09375 0.078125,0.1875 0.21875,0.1875 0.171875,0 0.1875,-0.015625 0.3125,-0.5 0.3125,-1.21875 0.703125,-2.4375 1.53125,-2.4375 0.46875,0 0.640625,0.34375 0.640625,0.953125 0,0.453125 -0.203125,1.265625 -0.359375,1.90625 l -0.578125,2.234375 c -0.078125,0.390625 -0.296875,1.3125 -0.40625,1.6875 -0.140625,0.53125 -0.375,1.515625 -0.375,1.609375 0,0.296875 0.234375,0.515625 0.546875,0.515625 0.234375,0 0.53125,-0.125 0.6875,-0.4375 0.046875,-0.09375 0.234375,-0.8125 0.34375,-1.234375 L 3.578125,-3.328125 4.25,-6.046875 C 4.296875,-6.171875 4.8125,-7.203125 5.578125,-7.875 6.109375,-8.359375 6.8125,-8.703125 7.625,-8.703125 c 0.828125,0 1.109375,0.625 1.109375,1.453125 0,0.59375 -0.078125,0.921875 -0.1875,1.328125 l -2.390625,9.5 c -0.015625,0.09375 -0.0625,0.21875 -0.0625,0.34375 0,0.3125 0.25,0.515625 0.5625,0.515625 0.1875,0 0.609375,-0.078125 0.78125,-0.703125 z m 0,0"
             id="path328" />
        </g>
      </g>
      <g
         clip-path="url(#clipPath9987)"
         id="g208"
         transform="matrix(0.352778,0,0,0.352778,58.196151,67.637214)">
        <g
           fill="#000000"
           fill-opacity="1"
           id="g206">
          <g
             id="use204"
             transform="translate(296.44601,15.479)">
            <path
               d="m 6.328125,5.046875 c 0,-0.03125 0,-0.0625 -0.0625,-0.125 -0.953125,-0.96875 -3.5,-3.625 -3.5,-10.0625 0,-6.453125 2.5,-9.078125 3.515625,-10.109375 0,-0.01563 0.046875,-0.0625 0.046875,-0.125 0,-0.0625 -0.0625,-0.09375 -0.15625,-0.09375 -0.21875,0 -1.984375,1.53125 -2.984375,3.796875 -1.046875,2.296875 -1.328125,4.53125 -1.328125,6.5 0,1.5 0.140625,4.015625 1.390625,6.6875 0.984375,2.140625 2.671875,3.65625 2.921875,3.65625 0.109375,0 0.15625,-0.046875 0.15625,-0.125 z m 0,0"
               id="path332" />
          </g>
        </g>
      </g>
      <g
         fill="#000000"
         fill-opacity="1"
         id="g212"
         transform="matrix(0.352778,0,0,0.352778,58.196151,67.637214)">
        <g
           id="use210"
           transform="translate(303.763,15.479)">
          <path
             d="m 4.15625,-8.296875 h 1.890625 c 0.390625,0 0.609375,0 0.609375,-0.375 0,-0.234375 -0.125,-0.234375 -0.546875,-0.234375 h -1.8125 L 5.0625,-11.921875 c 0.078125,-0.28125 0.078125,-0.328125 0.078125,-0.46875 0,-0.328125 -0.265625,-0.515625 -0.53125,-0.515625 -0.171875,0 -0.640625,0.0625 -0.8125,0.71875 L 3,-8.90625 H 1.046875 c -0.40625,0 -0.59375,0 -0.59375,0.390625 0,0.21875 0.140625,0.21875 0.53125,0.21875 h 1.84375 L 1.46875,-2.84375 c -0.171875,0.71875 -0.234375,0.921875 -0.234375,1.1875 0,0.96875 0.6875,1.859375 1.84375,1.859375 2.09375,0 3.203125,-3.015625 3.203125,-3.15625 0,-0.125 -0.078125,-0.1875 -0.203125,-0.1875 -0.046875,0 -0.125,0 -0.171875,0.078125 -0.015625,0.03125 -0.046875,0.046875 -0.1875,0.375 -0.4375,1.03125 -1.375,2.484375 -2.578125,2.484375 -0.625,0 -0.65625,-0.515625 -0.65625,-0.96875 0,-0.03125 0,-0.421875 0.0625,-0.671875 z m 0,0"
             id="path336" />
        </g>
      </g>
      <g
         clip-path="url(#clipPath2455)"
         id="g218"
         transform="matrix(0.352778,0,0,0.352778,58.196151,67.637214)">
        <g
           fill="#000000"
           fill-opacity="1"
           id="g216">
          <g
             id="use214"
             transform="translate(311.069,15.479)">
            <path
               d="m 5.4375,-5.140625 c 0,-1.484375 -0.15625,-4.015625 -1.390625,-6.671875 -0.984375,-2.15625 -2.6875,-3.65625 -2.9375,-3.65625 -0.0625,0 -0.140625,0.01563 -0.140625,0.125 0,0.03125 0.015625,0.0625 0.046875,0.09375 C 2,-14.21875 4.53125,-11.59375 4.53125,-5.171875 4.53125,1.28125 2.03125,3.90625 1.015625,4.9375 0.984375,4.984375 0.96875,5 0.96875,5.046875 c 0,0.09375 0.078125,0.125 0.140625,0.125 0.234375,0 1.984375,-1.53125 3,-3.8125 1.03125,-2.28125 1.328125,-4.515625 1.328125,-6.5 z m 0,0"
               id="path340" />
          </g>
        </g>
      </g>
    </g>
    <g
       inkscape:label=""
       transform="translate(94.74553,115.96938)"
       id="g1981">
      <g
         fill="#000000"
         fill-opacity="1"
         id="g34"
         transform="matrix(0.352778,0,0,0.352778,-0.198437,-0.003616)">
        <g
           id="use32"
           transform="translate(0,15.479)">
          <path
             d="m 9.703125,-13.84375 c 0,-0.01563 0.09375,-0.28125 0.09375,-0.3125 0,-0.171875 -0.171875,-0.171875 -0.234375,-0.171875 -0.1875,0 -0.203125,0.09375 -0.28125,0.40625 L 5.859375,-0.25 c -1.703125,-0.203125 -2.34375,-1.078125 -2.34375,-2.3125 0,-0.453125 0,-0.921875 0.96875,-3.484375 0.265625,-0.75 0.375,-1.015625 0.375,-1.390625 0,-0.921875 -0.671875,-1.671875 -1.640625,-1.671875 -1.890625,0 -2.65625,3 -2.65625,3.15625 0,0.09375 0.078125,0.1875 0.21875,0.1875 0.1875,0 0.203125,-0.078125 0.296875,-0.375 0.484375,-1.796875 1.3125,-2.5625 2.078125,-2.5625 0.1875,0 0.546875,0.03125 0.546875,0.6875 0,0.078125 0,0.53125 -0.359375,1.453125 -1.109375,2.921875 -1.109375,3.375 -1.109375,3.859375 0,1.984375 1.65625,2.75 3.515625,2.890625 C 5.578125,0.828125 5.4375,1.484375 5.265625,2.125 4.9375,3.359375 4.796875,3.953125 4.796875,4.03125 c 0,0.1875 0.15625,0.1875 0.21875,0.1875 0.046875,0 0.125,0 0.171875,-0.09375 0.078125,-0.078125 0.921875,-3.546875 1.015625,-3.921875 0.765625,0 2.390625,0 4.25,-1.921875 0.6875,-0.734375 1.296875,-1.6875 1.65625,-2.578125 0.203125,-0.53125 0.703125,-2.375 0.703125,-3.421875 0,-1.25 -0.625,-1.390625 -0.828125,-1.390625 -0.5,0 -0.953125,0.5 -0.953125,0.90625 0,0.25 0.140625,0.390625 0.21875,0.484375 0.1875,0.171875 0.75,0.734375 0.75,1.8125 0,0.734375 -0.40625,2.265625 -1.734375,3.765625 -1.734375,1.9375 -3.328125,1.9375 -3.9375,1.9375 z m 0,0"
             id="path62" />
        </g>
      </g>
      <g
         clip-path="url(#clipPath8807)"
         id="g40"
         transform="matrix(0.352778,0,0,0.352778,-0.198437,-0.003616)">
        <g
           fill="#000000"
           fill-opacity="1"
           id="g38">
          <g
             id="use36"
             transform="translate(13.894,15.479)">
            <path
               d="m 6.328125,5.046875 c 0,-0.03125 0,-0.0625 -0.0625,-0.125 -0.953125,-0.96875 -3.5,-3.625 -3.5,-10.0625 0,-6.453125 2.5,-9.078125 3.515625,-10.109375 0,-0.01563 0.046875,-0.0625 0.046875,-0.125 0,-0.0625 -0.0625,-0.09375 -0.15625,-0.09375 -0.21875,0 -1.984375,1.53125 -2.984375,3.796875 -1.046875,2.296875 -1.328125,4.53125 -1.328125,6.5 0,1.5 0.140625,4.015625 1.390625,6.6875 0.984375,2.140625 2.671875,3.65625 2.921875,3.65625 0.109375,0 0.15625,-0.046875 0.15625,-0.125 z m 0,0"
               id="path66" />
          </g>
        </g>
      </g>
      <g
         fill="#000000"
         fill-opacity="1"
         id="g46"
         transform="matrix(0.352778,0,0,0.352778,-0.198437,-0.003616)">
        <g
           id="use42"
           transform="translate(21.212,15.479)">
          <path
             d="m 4.15625,-8.296875 h 1.890625 c 0.390625,0 0.609375,0 0.609375,-0.375 0,-0.234375 -0.125,-0.234375 -0.546875,-0.234375 h -1.8125 L 5.0625,-11.921875 c 0.078125,-0.28125 0.078125,-0.328125 0.078125,-0.46875 0,-0.328125 -0.265625,-0.515625 -0.53125,-0.515625 -0.171875,0 -0.640625,0.0625 -0.8125,0.71875 L 3,-8.90625 H 1.046875 c -0.40625,0 -0.59375,0 -0.59375,0.390625 0,0.21875 0.140625,0.21875 0.53125,0.21875 h 1.84375 L 1.46875,-2.84375 c -0.171875,0.71875 -0.234375,0.921875 -0.234375,1.1875 0,0.96875 0.6875,1.859375 1.84375,1.859375 2.09375,0 3.203125,-3.015625 3.203125,-3.15625 0,-0.125 -0.078125,-0.1875 -0.203125,-0.1875 -0.046875,0 -0.125,0 -0.171875,0.078125 -0.015625,0.03125 -0.046875,0.046875 -0.1875,0.375 -0.4375,1.03125 -1.375,2.484375 -2.578125,2.484375 -0.625,0 -0.65625,-0.515625 -0.65625,-0.96875 0,-0.03125 0,-0.421875 0.0625,-0.671875 z m 0,0"
             id="path70" />
        </g>
        <g
           id="use44"
           transform="translate(28.518259,15.479)">
          <path
             d="M 4.03125,0.078125 C 4.03125,-1.109375 3.640625,-2 2.78125,-2 2.125,-2 1.796875,-1.46875 1.796875,-1.015625 1.796875,-0.5625 2.109375,0 2.8125,0 3.078125,0 3.3125,-0.078125 3.484375,-0.265625 3.53125,-0.3125 3.546875,-0.3125 3.578125,-0.3125 c 0.03125,0 0.03125,0.296875 0.03125,0.390625 0,0.6875 -0.125,2.03125 -1.3125,3.375 C 2.0625,3.703125 2.0625,3.734375 2.0625,3.78125 c 0,0.109375 0.109375,0.203125 0.203125,0.203125 0.171875,0 1.765625,-1.53125 1.765625,-3.90625 z m 0,0"
             id="path74" />
        </g>
      </g>
      <g
         fill="#000000"
         fill-opacity="1"
         id="g50"
         transform="matrix(0.352778,0,0,0.352778,-0.198437,-0.003616)">
        <g
           id="use48"
           transform="translate(37.589096,15.479)">
          <path
             d="M 4.703125,-4.125 C 5.0625,-4.0625 5.625,-3.953125 5.75,-3.921875 c 0.265625,0.078125 1.1875,0.40625 1.1875,1.40625 0,0.640625 -0.578125,2.3125 -2.96875,2.3125 -0.4375,0 -1.984375,-0.0625 -2.40625,-1.203125 0.828125,0.109375 1.25,-0.53125 1.25,-0.984375 0,-0.4375 -0.296875,-0.671875 -0.703125,-0.671875 -0.453125,0 -1.0625,0.359375 -1.0625,1.28125 0,1.21875 1.25,1.984375 2.90625,1.984375 3.125,0 4.0625,-2.3125 4.0625,-3.390625 0,-0.296875 0,-0.875 -0.65625,-1.546875 C 6.84375,-5.21875 6.34375,-5.328125 5.21875,-5.5625 c -0.546875,-0.125 -1.4375,-0.296875 -1.4375,-1.234375 0,-0.40625 0.375,-1.90625 2.328125,-1.90625 0.875,0 1.71875,0.34375 1.921875,1.078125 -0.90625,0 -0.953125,0.78125 -0.953125,0.8125 0,0.4375 0.40625,0.546875 0.578125,0.546875 0.296875,0 0.875,-0.21875 0.875,-1.09375 0,-0.859375 -0.78125,-1.75 -2.390625,-1.75 -2.71875,0 -3.4375,2.125 -3.4375,2.96875 0,1.578125 1.53125,1.90625 2,2.015625 z m 0,0"
             id="path78" />
        </g>
      </g>
      <g
         clip-path="url(#clipPath5109)"
         id="g56"
         transform="matrix(0.352778,0,0,0.352778,-0.198437,-0.003616)">
        <g
           fill="#000000"
           fill-opacity="1"
           id="g54">
          <g
             id="use52"
             transform="translate(47.111,15.479)">
            <path
               d="m 5.4375,-5.140625 c 0,-1.484375 -0.15625,-4.015625 -1.390625,-6.671875 -0.984375,-2.15625 -2.6875,-3.65625 -2.9375,-3.65625 -0.0625,0 -0.140625,0.01563 -0.140625,0.125 0,0.03125 0.015625,0.0625 0.046875,0.09375 C 2,-14.21875 4.53125,-11.59375 4.53125,-5.171875 4.53125,1.28125 2.03125,3.90625 1.015625,4.9375 0.984375,4.984375 0.96875,5 0.96875,5.046875 c 0,0.09375 0.078125,0.125 0.140625,0.125 0.234375,0 1.984375,-1.53125 3,-3.8125 1.03125,-2.28125 1.328125,-4.515625 1.328125,-6.5 z m 0,0"
               id="path82" />
          </g>
        </g>
      </g>
    </g>
  </g>
</svg>
