<?xml version="1.0" encoding="UTF-8" standalone="no"?>
<!-- Created with Inkscape (http://www.inkscape.org/) -->

<svg
   inkscape:version="1.2.2 (b0a8486541, 2022-12-01)"
   sodipodi:docname="morse_func_torus.svg"
   id="svg5"
   version="1.1"
   viewBox="0 0 210 297"
   height="297mm"
   width="210mm"
   xmlns:inkscape="http://www.inkscape.org/namespaces/inkscape"
   xmlns:sodipodi="http://sodipodi.sourceforge.net/DTD/sodipodi-0.dtd"
   xmlns="http://www.w3.org/2000/svg"
   xmlns:svg="http://www.w3.org/2000/svg">
  <sodipodi:namedview
     id="namedview7"
     pagecolor="#ffffff"
     bordercolor="#000000"
     borderopacity="0.25"
     inkscape:showpageshadow="2"
     inkscape:pageopacity="0.0"
     inkscape:pagecheckerboard="0"
     inkscape:deskcolor="#d1d1d1"
     inkscape:document-units="mm"
     showgrid="false"
     inkscape:zoom="1.535"
     inkscape:cx="499.67427"
     inkscape:cy="390.22801"
     inkscape:window-width="1920"
     inkscape:window-height="1080"
     inkscape:window-x="0"
     inkscape:window-y="0"
     inkscape:window-maximized="1"
     inkscape:current-layer="layer1" />
  <defs
     id="defs2">
    <marker
       style="overflow:visible"
       id="Arrow5"
       refX="0"
       refY="0"
       orient="auto-start-reverse"
       inkscape:stockid="Arrow5"
       markerWidth="5.8874264"
       markerHeight="6.6094756"
       viewBox="0 0 5.8874262 6.6094758"
       inkscape:isstock="true"
       inkscape:collect="always"
       preserveAspectRatio="xMidYMid">
      <path
         transform="scale(0.5)"
         style="fill:context-stroke;fill-rule:evenodd;stroke:context-stroke;stroke-width:1pt"
         d="m 6,0 c -3,1 -7,3 -9,5 0,0 0,-4 2,-5 -2,-1 -2,-5 -2,-5 2,2 6,4 9,5 z"
         id="path8893" />
    </marker>
    <clipPath
       id="clipPath3183">
      <path
         clip-rule="nonzero"
         d="m 10,5 h 5 v 3.359375 h -5 z m 0,0"
         id="path659" />
    </clipPath>
    <clipPath
       id="clipPath1796">
      <path
         clip-rule="nonzero"
         d="m 34,0 h 7.796875 V 7 H 34 Z m 0,0"
         id="path9167" />
    </clipPath>
    <clipPath
       id="clipPath9636">
      <path
         clip-rule="nonzero"
         d="M 0,0 H 6 V 9.964844 H 0 Z m 0,0"
         id="path9817" />
    </clipPath>
    <clipPath
       id="clipPath1155">
      <path
         clip-rule="nonzero"
         d="m 6,5 h 5 V 9.964844 H 6 Z m 0,0"
         id="path3885" />
    </clipPath>
    <clipPath
       id="clipPath8740">
      <path
         clip-rule="nonzero"
         d="m 12,0 h 3 v 9.964844 h -3 z m 0,0"
         id="path1723" />
    </clipPath>
    <clipPath
       id="clipPath3881">
      <path
         clip-rule="nonzero"
         d="m 21,0 h 4 v 9.964844 h -4 z m 0,0"
         id="path9409" />
    </clipPath>
    <clipPath
       id="clipPath6754">
      <path
         clip-rule="nonzero"
         d="m 44,0 h 5.851562 V 4 H 44 Z m 0,0"
         id="path3778" />
    </clipPath>
    <clipPath
       id="clipPath2235">
      <path
         clip-rule="nonzero"
         d="m 9,1 h 6 v 9.574219 H 9 Z m 0,0"
         id="path9651" />
    </clipPath>
    <clipPath
       id="clipPath5195">
      <path
         clip-rule="nonzero"
         d="m 18,1 h 6 v 9.574219 h -6 z m 0,0"
         id="path5335" />
    </clipPath>
    <clipPath
       id="clipPath5461">
      <path
         clip-rule="nonzero"
         d="m 33,1 h 6 v 9.574219 h -6 z m 0,0"
         id="path6934" />
    </clipPath>
    <clipPath
       id="clipPath2329">
      <path
         clip-rule="nonzero"
         d="m 49,1 h 6 v 9.574219 h -6 z m 0,0"
         id="path9777" />
    </clipPath>
    <clipPath
       id="clipPath8063">
      <path
         clip-rule="nonzero"
         d="m 54,7 h 6 v 3.574219 h -6 z m 0,0"
         id="path6470" />
    </clipPath>
    <clipPath
       id="clipPath1137">
      <path
         clip-rule="nonzero"
         d="m 9,1 h 6 v 9.574219 H 9 Z m 0,0"
         id="path4415" />
    </clipPath>
    <clipPath
       id="clipPath5308">
      <path
         clip-rule="nonzero"
         d="m 18,1 h 6 v 9.574219 h -6 z m 0,0"
         id="path998" />
    </clipPath>
    <clipPath
       id="clipPath4866">
      <path
         clip-rule="nonzero"
         d="m 33,1 h 6 v 9.574219 h -6 z m 0,0"
         id="path7268" />
    </clipPath>
    <clipPath
       id="clipPath5281">
      <path
         clip-rule="nonzero"
         d="m 49,1 h 6 v 9.574219 h -6 z m 0,0"
         id="path9996" />
    </clipPath>
    <clipPath
       id="clipPath8386">
      <path
         clip-rule="nonzero"
         d="m 54,7 h 6 v 3.574219 h -6 z m 0,0"
         id="path4025" />
    </clipPath>
    <clipPath
       id="clipPath5968">
      <path
         clip-rule="nonzero"
         d="m 9,0 h 6 V 8.855469 H 9 Z m 0,0"
         id="path161" />
    </clipPath>
    <clipPath
       id="clipPath8320">
      <path
         clip-rule="nonzero"
         d="m 18,0 h 6 v 8.855469 h -6 z m 0,0"
         id="path5417" />
    </clipPath>
    <clipPath
       id="clipPath17">
      <path
         clip-rule="nonzero"
         d="m 24,5 h 5 v 3.855469 h -5 z m 0,0"
         id="path399" />
    </clipPath>
    <clipPath
       id="clipPath175">
      <path
         clip-rule="nonzero"
         d="m 9,0 h 6 V 8.855469 H 9 Z m 0,0"
         id="path4659" />
    </clipPath>
    <clipPath
       id="clipPath9652">
      <path
         clip-rule="nonzero"
         d="m 15,0 h 6 v 8.855469 h -6 z m 0,0"
         id="path7127" />
    </clipPath>
    <clipPath
       id="clipPath9326">
      <path
         clip-rule="nonzero"
         d="m 21,5 h 5 v 3.855469 h -5 z m 0,0"
         id="path7000" />
    </clipPath>
    <clipPath
       id="clipPath5020">
      <path
         clip-rule="nonzero"
         d="m 9,0 h 6 V 8.855469 H 9 Z m 0,0"
         id="path7747" />
    </clipPath>
    <clipPath
       id="clipPath9148">
      <path
         clip-rule="nonzero"
         d="m 15,0 h 6 v 8.855469 h -6 z m 0,0"
         id="path2427" />
    </clipPath>
    <clipPath
       id="clipPath6159">
      <path
         clip-rule="nonzero"
         d="m 21,5 h 5 v 3.855469 h -5 z m 0,0"
         id="path1740" />
    </clipPath>
    <clipPath
       id="clipPath9099">
      <path
         clip-rule="nonzero"
         d="m 9,0 h 6 V 8.855469 H 9 Z m 0,0"
         id="path2525" />
    </clipPath>
    <clipPath
       id="clipPath4643">
      <path
         clip-rule="nonzero"
         d="m 15,0 h 6 v 8.855469 h -6 z m 0,0"
         id="path2174" />
    </clipPath>
    <clipPath
       id="clipPath6444">
      <path
         clip-rule="nonzero"
         d="m 21,5 h 5 v 3.855469 h -5 z m 0,0"
         id="path4501" />
    </clipPath>
    <clipPath
       id="clipPath5210">
      <path
         clip-rule="nonzero"
         d="m 9,0 h 6 V 8.855469 H 9 Z m 0,0"
         id="path6115" />
    </clipPath>
    <clipPath
       id="clipPath1035">
      <path
         clip-rule="nonzero"
         d="m 18,0 h 6 v 8.855469 h -6 z m 0,0"
         id="path5669" />
    </clipPath>
    <clipPath
       id="clipPath9749">
      <path
         clip-rule="nonzero"
         d="m 24,5 h 5 v 3.855469 h -5 z m 0,0"
         id="path8854" />
    </clipPath>
    <clipPath
       id="clipPath2589">
      <path
         clip-rule="nonzero"
         d="m 9,0 h 5.964844 V 8.855469 H 9 Z m 0,0"
         id="path9301" />
    </clipPath>
    <clipPath
       id="clipPath5216">
      <path
         clip-rule="nonzero"
         d="m 9,0 h 5.964844 V 8.855469 H 9 Z m 0,0"
         id="path6936" />
    </clipPath>
    <clipPath
       id="clipPath2874">
      <path
         clip-rule="nonzero"
         d="m 9,0 h 5.964844 V 8.855469 H 9 Z m 0,0"
         id="path3593" />
    </clipPath>
    <clipPath
       id="clipPath6953">
      <path
         clip-rule="nonzero"
         d="M 0,0 H 5.949219 V 8.855469 H 0 Z m 0,0"
         id="path2996" />
    </clipPath>
    <clipPath
       id="clipPath1715">
      <path
         clip-rule="nonzero"
         d="m 0,1 h 6 v 9.574219 H 0 Z m 0,0"
         id="path6518" />
    </clipPath>
    <clipPath
       id="clipPath2906">
      <path
         clip-rule="nonzero"
         d="m 6,7 h 5 v 3.574219 H 6 Z m 0,0"
         id="path9795" />
    </clipPath>
    <clipPath
       id="clipPath1499">
      <path
         clip-rule="nonzero"
         d="m 0,1 h 6 v 9.574219 H 0 Z m 0,0"
         id="path8286" />
    </clipPath>
    <clipPath
       id="clipPath4412">
      <path
         clip-rule="nonzero"
         d="m 15,1 h 7 v 9.574219 h -7 z m 0,0"
         id="path9568" />
    </clipPath>
    <clipPath
       id="clipPath9150">
      <path
         clip-rule="nonzero"
         d="m 21,7 h 6 v 3.574219 h -6 z m 0,0"
         id="path3658" />
    </clipPath>
    <clipPath
       id="clipPath9636-5">
      <path
         clip-rule="nonzero"
         d="M 0,0 H 6 V 9.964844 H 0 Z m 0,0"
         id="path9817-3" />
    </clipPath>
    <clipPath
       id="clipPath1155-5">
      <path
         clip-rule="nonzero"
         d="m 6,5 h 5 V 9.964844 H 6 Z m 0,0"
         id="path3885-6" />
    </clipPath>
    <clipPath
       id="clipPath9149">
      <path
         clip-rule="nonzero"
         d="m 11,0 h 5.464844 V 8.855469 H 11 Z m 0,0"
         id="path2280" />
    </clipPath>
    <clipPath
       id="clipPath6360">
      <path
         clip-rule="nonzero"
         d="M 0,0 H 5 V 6.226562 H 0 Z m 0,0"
         id="path4450" />
    </clipPath>
    <clipPath
       id="clipPath338">
      <path
         clip-rule="nonzero"
         d="m 12,0 h 6 v 6.226562 h -6 z m 0,0"
         id="path2350" />
    </clipPath>
    <clipPath
       id="clipPath1991">
      <path
         clip-rule="nonzero"
         d="m 25,0 h 6 v 6.226562 h -6 z m 0,0"
         id="path9324" />
    </clipPath>
    <clipPath
       id="clipPath6957">
      <path
         clip-rule="nonzero"
         d="m 38,0 h 6 v 6.226562 h -6 z m 0,0"
         id="path5939" />
    </clipPath>
    <clipPath
       id="clipPath9376">
      <path
         clip-rule="nonzero"
         d="m 43,1 h 4.890625 V 6 H 43 Z m 0,0"
         id="path3619" />
    </clipPath>
    <clipPath
       id="clipPath3789">
      <path
         clip-rule="nonzero"
         d="M 0,0 H 6 V 9.964844 H 0 Z m 0,0"
         id="path9624" />
    </clipPath>
    <clipPath
       id="clipPath8737">
      <path
         clip-rule="nonzero"
         d="m 6,0 h 4 V 9.964844 H 6 Z m 0,0"
         id="path6754" />
    </clipPath>
    <clipPath
       id="clipPath5716">
      <path
         clip-rule="nonzero"
         d="m 9,3 h 6 V 9.964844 H 9 Z m 0,0"
         id="path6777" />
    </clipPath>
    <clipPath
       id="clipPath4826">
      <path
         clip-rule="nonzero"
         d="m 19,0 h 4 v 9.964844 h -4 z m 0,0"
         id="path9089" />
    </clipPath>
    <clipPath
       id="clipPath8972">
      <path
         clip-rule="nonzero"
         d="m 27,0 h 5 v 9.964844 h -5 z m 0,0"
         id="path6940" />
    </clipPath>
    <clipPath
       id="clipPath1043">
      <path
         clip-rule="nonzero"
         d="m 33,0 h 3 v 9.964844 h -3 z m 0,0"
         id="path765" />
    </clipPath>
    <clipPath
       id="clipPath4817">
      <path
         clip-rule="nonzero"
         d="m 36,3 h 6 v 6.964844 h -6 z m 0,0"
         id="path2125" />
    </clipPath>
    <clipPath
       id="clipPath4771">
      <path
         clip-rule="nonzero"
         d="m 46,0 h 3 v 9.964844 h -3 z m 0,0"
         id="path5307" />
    </clipPath>
    <clipPath
       id="clipPath6154">
      <path
         clip-rule="nonzero"
         d="m 53,0 h 6 v 9.964844 h -6 z m 0,0"
         id="path4265" />
    </clipPath>
    <clipPath
       id="clipPath9968">
      <path
         clip-rule="nonzero"
         d="m 59,0 h 4 v 9.964844 h -4 z m 0,0"
         id="path4597" />
    </clipPath>
    <clipPath
       id="clipPath5263">
      <path
         clip-rule="nonzero"
         d="m 62,3 h 6 v 6.964844 h -6 z m 0,0"
         id="path6457" />
    </clipPath>
    <clipPath
       id="clipPath1341">
      <path
         clip-rule="nonzero"
         d="m 68,4 h 4 v 5.964844 h -4 z m 0,0"
         id="path9076" />
    </clipPath>
    <clipPath
       id="clipPath1427">
      <path
         clip-rule="nonzero"
         d="m 72,0 h 4 v 9.964844 h -4 z m 0,0"
         id="path3834" />
    </clipPath>
    <clipPath
       id="clipPath459">
      <path
         clip-rule="nonzero"
         d="m 80,0 h 6 v 9.964844 h -6 z m 0,0"
         id="path4557" />
    </clipPath>
    <clipPath
       id="clipPath1414">
      <path
         clip-rule="nonzero"
         d="m 86,0 h 3 v 9.964844 h -3 z m 0,0"
         id="path6926" />
    </clipPath>
    <clipPath
       id="clipPath8066">
      <path
         clip-rule="nonzero"
         d="m 89,3 h 6 v 6.964844 h -6 z m 0,0"
         id="path2450" />
    </clipPath>
    <clipPath
       id="clipPath2720">
      <path
         clip-rule="nonzero"
         d="m 99,0 h 3 v 9.964844 h -3 z m 0,0"
         id="path56" />
    </clipPath>
  </defs>
  <g
     inkscape:label="Layer 1"
     inkscape:groupmode="layer"
     id="layer1">
    <g
       id="g1133"
       transform="translate(-23.575649,40.251778)">
      <ellipse
         style="fill:none;stroke:#000000;stroke-width:0.499999"
         id="path788"
         cx="103.0711"
         cy="69.817787"
         rx="43.694313"
         ry="21.847157" />
      <path
         style="fill:none;stroke:#000000;stroke-width:0.192257"
         id="path788-3"
         sodipodi:type="arc"
         sodipodi:cx="103.0711"
         sodipodi:cy="65.569138"
         sodipodi:rx="16.801138"
         sodipodi:ry="8.400569"
         sodipodi:start="0"
         sodipodi:end="3.1415927"
         sodipodi:open="true"
         sodipodi:arc-type="arc"
         d="m 119.87224,65.569138 a 16.801138,8.400569 0 0 1 -8.40057,7.275106 16.801138,8.400569 0 0 1 -16.801141,0 16.801138,8.400569 0 0 1 -8.400569,-7.275106" />
      <path
         style="fill:none;stroke:#000000;stroke-width:0.140377"
         id="path788-3-6"
         sodipodi:type="arc"
         sodipodi:cx="-103.0711"
         sodipodi:cy="-71.336998"
         sodipodi:rx="12.267397"
         sodipodi:ry="6.1336985"
         sodipodi:start="0"
         sodipodi:end="3.1415927"
         sodipodi:open="true"
         sodipodi:arc-type="arc"
         d="m -90.803701,-71.336998 a 12.267397,6.1336985 0 0 1 -6.133699,5.311939 12.267397,6.1336985 0 0 1 -12.2674,0 12.267397,6.1336985 0 0 1 -6.1337,-5.311939"
         transform="scale(-1)" />
      <path
         style="fill:#d40000;stroke:none;stroke-width:1.14494"
         d="m 371.3956,344.68529 c -44.1907,-2.49285 -86.71621,-14.60735 -112.84753,-32.14759 -36.31046,-24.37281 -42.95298,-55.46328 -17.64066,-82.56747 41.74349,-44.69851 152.27876,-61.0092 235.9088,-34.81093 51.99998,16.28972 81.81942,46.31474 75.76903,76.2914 -2.00852,9.95124 -6.45028,17.92323 -15.04556,27.00356 -29.67376,31.34827 -97.14684,50.12325 -166.14408,46.23103 z m 37.56367,-65.95936 c 22.49807,-3.66845 39.66668,-13.44309 43.6032,-24.82471 1.05757,-3.05774 1.21825,-6.1022 0.32205,-6.1022 -0.33323,0 -0.60587,0.77437 -0.60587,1.72083 0,4.56565 -7.04331,13.69919 -13.50335,17.5107 l -2.21834,1.30886 -0.61948,-2.30057 c -3.07882,-11.43386 -23.00412,-20.05027 -46.36591,-20.05027 -23.83699,0 -43.84968,8.90111 -46.58557,20.72002 l -0.38019,1.6424 -2.22816,-1.31465 c -1.22549,-0.72305 -3.99159,-2.96165 -6.1469,-4.97465 -4.12039,-3.84835 -7.36488,-9.39688 -7.36579,-12.59654 -2.6e-4,-0.91637 -0.27312,-1.66613 -0.60635,-1.66613 -0.89619,0 -0.73552,3.04446 0.32205,6.1022 4.69349,13.5702 28.09583,24.58812 55.05389,25.9196 8.85274,0.43724 20.88523,-0.0449 27.32472,-1.09489 z"
         id="path1127"
         transform="scale(0.26458333)" />
    </g>
    <path
       style="fill:none;stroke:#000000;stroke-width:0.499999"
       d="M 159.55214,62.848161 V 157.29097"
       id="path1921" />
    <ellipse
       style="fill:#000000;fill-opacity:1;stroke:none;stroke-width:0.158245"
       id="path1975"
       cx="79.495453"
       cy="88.222412"
       rx="1.4208776"
       ry="1.4208777" />
    <ellipse
       style="fill:#000000;fill-opacity:1;stroke:none;stroke-width:0.158245"
       id="path1975-3"
       cx="79.495453"
       cy="105.45508"
       rx="1.4208776"
       ry="1.4208777" />
    <ellipse
       style="fill:#000000;fill-opacity:1;stroke:none;stroke-width:0.158245"
       id="path1975-6"
       cx="79.495453"
       cy="114.22148"
       rx="1.4208776"
       ry="1.4208777" />
    <ellipse
       style="fill:#000000;fill-opacity:1;stroke:none;stroke-width:0.158245"
       id="path1975-7"
       cx="79.495453"
       cy="131.91672"
       rx="1.4208776"
       ry="1.4208777" />
    <path
       style="fill:#000000;fill-opacity:1;stroke:#000000;stroke-width:0.5;stroke-opacity:1;stroke-dasharray:3,3;stroke-dashoffset:0"
       d="M 79.495448,88.222406 H 159.55214"
       id="path2031" />
    <path
       style="fill:#000000;fill-opacity:1;stroke:#000000;stroke-width:0.499999;stroke-opacity:1;stroke-dasharray:2.99999392,2.99999392;stroke-dashoffset:0"
       d="M 79.498493,105.33625 H 159.55214"
       id="path2033" />
    <path
       style="fill:#000000;fill-opacity:1;stroke:#000000;stroke-width:0.499999;stroke-opacity:1;stroke-dasharray:2.99999392,2.99999392;stroke-dashoffset:0"
       d="M 79.495448,114.22148 H 159.55214"
       id="path2035" />
    <path
       style="fill:#000000;fill-opacity:1;stroke:#000000;stroke-width:0.499999;stroke-opacity:1;stroke-dasharray:2.99999392,2.99999392;stroke-dashoffset:0"
       d="M 79.495448,131.91672 H 159.55214"
       id="path2037" />
    <path
       style="fill:none;fill-opacity:1;stroke:#000000;stroke-width:0.5;stroke-opacity:1;stroke-dasharray:none;marker-end:url(#Arrow5)"
       d="m 113.90584,81.732474 c 0,0 12.6738,-3.033512 20.35993,-3.033513 7.99747,-2e-6 20.38725,3.500521 20.38725,3.500521"
       id="path2090"
       sodipodi:nodetypes="csc" />
    <ellipse
       style="fill:#000000;fill-opacity:1;stroke:none;stroke-width:0.158245"
       id="path1975-35"
       cx="159.55214"
       cy="88.222404"
       rx="1.4208776"
       ry="1.4208777" />
    <ellipse
       style="fill:#000000;fill-opacity:1;stroke:none;stroke-width:0.158245"
       id="path1975-62"
       cx="159.55214"
       cy="105.33625"
       rx="1.4208776"
       ry="1.4208777" />
    <ellipse
       style="fill:#000000;fill-opacity:1;stroke:none;stroke-width:0.158245"
       id="path1975-9"
       cx="159.55214"
       cy="114.22148"
       rx="1.4208776"
       ry="1.4208777" />
    <ellipse
       style="fill:#000000;fill-opacity:1;stroke:none;stroke-width:0.158245"
       id="path1975-1"
       cx="159.55214"
       cy="131.91672"
       rx="1.4208776"
       ry="1.4208777" />
    <g
       fill="#000000"
       fill-opacity="1"
       id="g19"
       transform="matrix(0.81780808,0,0,0.81780808,164.6479,59.981795)">
      <g
         id="use17"
         transform="translate(0,6.9190001)">
        <path
           d="M 2.671875,-3.125 H 3.03125 l 1.5,2.3125 C 4.625,-0.65625 4.859375,-0.265625 4.96875,-0.125 5.046875,0 5.078125,0 5.296875,0 h 1.375 c 0.1875,0 0.34375,0 0.34375,-0.171875 0,-0.09375 -0.0625,-0.15625 -0.15625,-0.171875 C 6.484375,-0.421875 6,-1.09375 5.765625,-1.40625 5.6875,-1.5 5.1875,-2.15625 4.53125,-3.234375 5.40625,-3.40625 6.265625,-3.78125 6.265625,-4.96875 6.265625,-6.34375 4.8125,-6.828125 3.625,-6.828125 H 0.5 c -0.1875,0 -0.34375,0 -0.34375,0.171875 0,0.171875 0.1875,0.171875 0.265625,0.171875 0.578125,0 0.625,0.078125 0.625,0.578125 v 4.984375 c 0,0.5 -0.046875,0.578125 -0.625,0.578125 -0.078125,0 -0.265625,0 -0.265625,0.171875 C 0.15625,0 0.3125,0 0.5,0 H 3.234375 C 3.40625,0 3.5625,0 3.5625,-0.171875 c 0,-0.171875 -0.171875,-0.171875 -0.28125,-0.171875 -0.5625,0 -0.609375,-0.078125 -0.609375,-0.578125 z m 1.921875,-0.5 c 0.28125,-0.359375 0.3125,-0.890625 0.3125,-1.328125 0,-0.484375 -0.0625,-1.015625 -0.375,-1.421875 0.40625,0.09375 1.390625,0.40625 1.390625,1.40625 0,0.65625 -0.296875,1.15625 -1.328125,1.34375 z M 2.671875,-5.9375 c 0,-0.21875 0,-0.546875 0.625,-0.546875 0.84375,0 1.265625,0.359375 1.265625,1.53125 0,1.28125 -0.3125,1.46875 -1.890625,1.46875 z M 1.3125,-0.34375 C 1.390625,-0.53125 1.390625,-0.8125 1.390625,-0.890625 V -5.9375 c 0,-0.09375 0,-0.359375 -0.078125,-0.546875 h 1.140625 c -0.125,0.171875 -0.125,0.359375 -0.125,0.515625 v 5.078125 c 0,0.09375 0,0.359375 0.078125,0.546875 z M 3.4375,-3.125 c 0.078125,-0.015625 0.109375,-0.03125 0.1875,-0.03125 0.15625,0 0.375,-0.015625 0.515625,-0.03125 0.15625,0.234375 1.234375,2.015625 2.0625,2.84375 h -0.96875 z m 0,0"
           id="path31" />
      </g>
    </g>
    <g
       clip-path="url(#clipPath9149)"
       id="g25"
       transform="matrix(0.81780808,0,0,0.81780808,124.1594,68.500153)">
      <g
         fill="#000000"
         fill-opacity="1"
         id="g23">
        <g
           id="use21"
           transform="translate(10.516,6.9190001)">
          <path
             d="m 3.65625,-3.984375 h 0.859375 c 0.203125,0 0.296875,0 0.296875,-0.203125 0,-0.109375 -0.09375,-0.109375 -0.265625,-0.109375 H 3.71875 L 3.921875,-5.4375 c 0.046875,-0.203125 0.1875,-0.90625 0.25,-1.03125 0.078125,-0.1875 0.25,-0.34375 0.46875,-0.34375 0.03125,0 0.296875,0 0.484375,0.1875 -0.4375,0.03125 -0.546875,0.390625 -0.546875,0.53125 0,0.234375 0.1875,0.359375 0.375,0.359375 C 5.21875,-5.734375 5.5,-5.96875 5.5,-6.34375 c 0,-0.453125 -0.453125,-0.6875 -0.859375,-0.6875 -0.34375,0 -0.96875,0.1875 -1.265625,1.171875 -0.0625,0.203125 -0.09375,0.3125 -0.328125,1.5625 h -0.6875 c -0.203125,0 -0.3125,0 -0.3125,0.1875 0,0.125 0.09375,0.125 0.28125,0.125 h 0.65625 L 2.25,-0.046875 c -0.1875,0.96875 -0.359375,1.875 -0.875,1.875 -0.046875,0 -0.28125,0 -0.484375,-0.1875 C 1.359375,1.609375 1.453125,1.25 1.453125,1.109375 1.453125,0.875 1.265625,0.75 1.078125,0.75 0.8125,0.75 0.53125,0.984375 0.53125,1.359375 c 0,0.4375 0.4375,0.6875 0.84375,0.6875 0.546875,0 0.953125,-0.59375 1.125,-0.96875 0.328125,-0.625 0.546875,-1.828125 0.5625,-1.90625 z m 0,0"
             id="path35" />
        </g>
      </g>
    </g>
    <g
       id="g4110"
       transform="matrix(1.6404457,0,0,1.6404457,-38.665477,-30.122453)">
      <g
         clip-path="url(#clipPath6360)"
         id="g42"
         transform="matrix(0.352778,0,0,0.352778,72.606909,69.161979)">
        <g
           fill="#000000"
           fill-opacity="1"
           id="g40">
          <g
             id="use38"
             transform="translate(0,4.29)">
            <path
               d="M 0.453125,1.21875 C 0.375,1.5625 0.34375,1.625 -0.09375,1.625 c -0.109375,0 -0.21875,0 -0.21875,0.1875 0,0.078125 0.046875,0.125 0.125,0.125 0.265625,0 0.5625,-0.03125 0.828125,-0.03125 0.34375,0 0.671875,0.03125 1,0.03125 0.046875,0 0.171875,0 0.171875,-0.203125 C 1.8125,1.625 1.71875,1.625 1.578125,1.625 c -0.5,0 -0.5,-0.0625 -0.5,-0.15625 0,-0.125 0.421875,-1.75 0.484375,-2 0.125,0.296875 0.40625,0.640625 0.921875,0.640625 1.15625,0 2.40625,-1.453125 2.40625,-2.921875 0,-0.9375 -0.578125,-1.59375 -1.328125,-1.59375 -0.5,0 -0.984375,0.359375 -1.3125,0.75 -0.09375,-0.546875 -0.53125,-0.75 -0.890625,-0.75 -0.46875,0 -0.65625,0.390625 -0.734375,0.5625 C 0.4375,-3.5 0.3125,-2.90625 0.3125,-2.875 c 0,0.109375 0.09375,0.109375 0.109375,0.109375 0.109375,0 0.109375,-0.015625 0.171875,-0.234375 0.171875,-0.703125 0.375,-1.1875 0.734375,-1.1875 0.171875,0 0.3125,0.078125 0.3125,0.453125 0,0.234375 -0.03125,0.34375 -0.078125,0.515625 z m 1.75,-4.328125 C 2.265625,-3.375 2.546875,-3.65625 2.71875,-3.8125 c 0.359375,-0.296875 0.640625,-0.375 0.8125,-0.375 0.390625,0 0.640625,0.34375 0.640625,0.9375 0,0.59375 -0.328125,1.734375 -0.515625,2.109375 -0.34375,0.703125 -0.8125,1.03125 -1.1875,1.03125 C 1.8125,-0.109375 1.6875,-0.9375 1.6875,-1 c 0,-0.015625 0,-0.03125 0.03125,-0.15625 z m 0,0"
               id="path84" />
          </g>
        </g>
      </g>
      <g
         fill="#000000"
         fill-opacity="1"
         id="g46"
         transform="matrix(0.352778,0,0,0.352778,72.606909,69.161979)">
        <g
           id="use44"
           transform="translate(5.0120001,5.7839999)">
          <path
             d="m 2.328125,-4.4375 c 0,-0.1875 0,-0.1875 -0.203125,-0.1875 -0.453125,0.4375 -1.078125,0.4375 -1.359375,0.4375 v 0.25 c 0.15625,0 0.625,0 1,-0.1875 v 3.546875 c 0,0.234375 0,0.328125 -0.6875,0.328125 H 0.8125 V 0 c 0.125,0 0.984375,-0.03125 1.234375,-0.03125 0.21875,0 1.09375,0.03125 1.25,0.03125 V -0.25 H 3.03125 c -0.703125,0 -0.703125,-0.09375 -0.703125,-0.328125 z m 0,0"
             id="path88" />
        </g>
      </g>
    </g>
    <g
       id="g4095"
       transform="matrix(1.6404457,0,0,1.6404457,-45.621573,-6.7715558)">
      <g
         id="g4079">
        <g
           clip-path="url(#clipPath338)"
           id="g52"
           transform="matrix(0.352778,0,0,0.352778,72.606909,69.161979)">
          <g
             fill="#000000"
             fill-opacity="1"
             id="g50">
            <g
               id="use48"
               transform="translate(12.803,4.29)">
              <path
                 d="M 0.453125,1.21875 C 0.375,1.5625 0.34375,1.625 -0.09375,1.625 c -0.109375,0 -0.21875,0 -0.21875,0.1875 0,0.078125 0.046875,0.125 0.125,0.125 0.265625,0 0.5625,-0.03125 0.828125,-0.03125 0.34375,0 0.671875,0.03125 1,0.03125 0.046875,0 0.171875,0 0.171875,-0.203125 C 1.8125,1.625 1.71875,1.625 1.578125,1.625 c -0.5,0 -0.5,-0.0625 -0.5,-0.15625 0,-0.125 0.421875,-1.75 0.484375,-2 0.125,0.296875 0.40625,0.640625 0.921875,0.640625 1.15625,0 2.40625,-1.453125 2.40625,-2.921875 0,-0.9375 -0.578125,-1.59375 -1.328125,-1.59375 -0.5,0 -0.984375,0.359375 -1.3125,0.75 -0.09375,-0.546875 -0.53125,-0.75 -0.890625,-0.75 -0.46875,0 -0.65625,0.390625 -0.734375,0.5625 C 0.4375,-3.5 0.3125,-2.90625 0.3125,-2.875 c 0,0.109375 0.09375,0.109375 0.109375,0.109375 0.109375,0 0.109375,-0.015625 0.171875,-0.234375 0.171875,-0.703125 0.375,-1.1875 0.734375,-1.1875 0.171875,0 0.3125,0.078125 0.3125,0.453125 0,0.234375 -0.03125,0.34375 -0.078125,0.515625 z m 1.75,-4.328125 C 2.265625,-3.375 2.546875,-3.65625 2.71875,-3.8125 c 0.359375,-0.296875 0.640625,-0.375 0.8125,-0.375 0.390625,0 0.640625,0.34375 0.640625,0.9375 0,0.59375 -0.328125,1.734375 -0.515625,2.109375 -0.34375,0.703125 -0.8125,1.03125 -1.1875,1.03125 C 1.8125,-0.109375 1.6875,-0.9375 1.6875,-1 c 0,-0.015625 0,-0.03125 0.03125,-0.15625 z m 0,0"
                 id="path92" />
            </g>
          </g>
        </g>
      </g>
      <g
         fill="#000000"
         fill-opacity="1"
         id="g56"
         transform="matrix(0.352778,0,0,0.352778,72.606909,69.161979)">
        <g
           id="use54"
           transform="translate(17.815001,5.7839999)">
          <path
             d="M 3.515625,-1.265625 H 3.28125 c -0.015625,0.15625 -0.09375,0.5625 -0.1875,0.625 C 3.046875,-0.59375 2.515625,-0.59375 2.40625,-0.59375 H 1.125 c 0.734375,-0.640625 0.984375,-0.84375 1.390625,-1.171875 0.515625,-0.40625 1,-0.84375 1,-1.5 0,-0.84375 -0.734375,-1.359375 -1.625,-1.359375 -0.859375,0 -1.453125,0.609375 -1.453125,1.25 0,0.34375 0.296875,0.390625 0.375,0.390625 0.15625,0 0.359375,-0.125 0.359375,-0.375 0,-0.125 -0.046875,-0.375 -0.40625,-0.375 C 0.984375,-4.21875 1.453125,-4.375 1.78125,-4.375 c 0.703125,0 1.0625,0.546875 1.0625,1.109375 0,0.609375 -0.4375,1.078125 -0.65625,1.328125 L 0.515625,-0.265625 C 0.4375,-0.203125 0.4375,-0.1875 0.4375,0 h 2.875 z m 0,0"
             id="path96" />
        </g>
      </g>
    </g>
    <g
       id="g4067"
       transform="matrix(1.6404457,0,0,1.6404457,-59.698764,-4.2592608)">
      <g
         clip-path="url(#clipPath1991)"
         id="g62"
         transform="matrix(0.352778,0,0,0.352778,72.606909,69.161979)">
        <g
           fill="#000000"
           fill-opacity="1"
           id="g60">
          <g
             id="use58"
             transform="translate(25.605,4.29)">
            <path
               d="M 0.453125,1.21875 C 0.375,1.5625 0.34375,1.625 -0.09375,1.625 c -0.109375,0 -0.21875,0 -0.21875,0.1875 0,0.078125 0.046875,0.125 0.125,0.125 0.265625,0 0.5625,-0.03125 0.828125,-0.03125 0.34375,0 0.671875,0.03125 1,0.03125 0.046875,0 0.171875,0 0.171875,-0.203125 C 1.8125,1.625 1.71875,1.625 1.578125,1.625 c -0.5,0 -0.5,-0.0625 -0.5,-0.15625 0,-0.125 0.421875,-1.75 0.484375,-2 0.125,0.296875 0.40625,0.640625 0.921875,0.640625 1.15625,0 2.40625,-1.453125 2.40625,-2.921875 0,-0.9375 -0.578125,-1.59375 -1.328125,-1.59375 -0.5,0 -0.984375,0.359375 -1.3125,0.75 -0.09375,-0.546875 -0.53125,-0.75 -0.890625,-0.75 -0.46875,0 -0.65625,0.390625 -0.734375,0.5625 C 0.4375,-3.5 0.3125,-2.90625 0.3125,-2.875 c 0,0.109375 0.09375,0.109375 0.109375,0.109375 0.109375,0 0.109375,-0.015625 0.171875,-0.234375 0.171875,-0.703125 0.375,-1.1875 0.734375,-1.1875 0.171875,0 0.3125,0.078125 0.3125,0.453125 0,0.234375 -0.03125,0.34375 -0.078125,0.515625 z m 1.75,-4.328125 C 2.265625,-3.375 2.546875,-3.65625 2.71875,-3.8125 c 0.359375,-0.296875 0.640625,-0.375 0.8125,-0.375 0.390625,0 0.640625,0.34375 0.640625,0.9375 0,0.59375 -0.328125,1.734375 -0.515625,2.109375 -0.34375,0.703125 -0.8125,1.03125 -1.1875,1.03125 C 1.8125,-0.109375 1.6875,-0.9375 1.6875,-1 c 0,-0.015625 0,-0.03125 0.03125,-0.15625 z m 0,0"
               id="path100" />
          </g>
        </g>
      </g>
      <g
         id="g4057">
        <g
           fill="#000000"
           fill-opacity="1"
           id="g66"
           transform="matrix(0.352778,0,0,0.352778,72.606909,69.161979)">
          <g
             id="use64"
             transform="translate(30.618,5.7839999)">
            <path
               d="m 1.90625,-2.328125 c 0.546875,0 0.9375,0.375 0.9375,1.125 0,0.859375 -0.515625,1.125 -0.90625,1.125 -0.28125,0 -0.90625,-0.078125 -1.1875,-0.5 0.328125,0 0.40625,-0.234375 0.40625,-0.390625 0,-0.21875 -0.171875,-0.375 -0.390625,-0.375 -0.1875,0 -0.390625,0.125 -0.390625,0.40625 0,0.65625 0.71875,1.078125 1.5625,1.078125 0.96875,0 1.640625,-0.65625 1.640625,-1.34375 0,-0.546875 -0.4375,-1.09375 -1.203125,-1.25 0.71875,-0.265625 0.984375,-0.78125 0.984375,-1.21875 0,-0.546875 -0.625,-0.953125 -1.40625,-0.953125 -0.765625,0 -1.359375,0.375 -1.359375,0.9375 0,0.234375 0.15625,0.359375 0.359375,0.359375 0.21875,0 0.359375,-0.15625 0.359375,-0.34375 0,-0.203125 -0.140625,-0.359375 -0.359375,-0.375 0.25,-0.296875 0.71875,-0.375 0.984375,-0.375 0.3125,0 0.75,0.15625 0.75,0.75 0,0.296875 -0.09375,0.625 -0.28125,0.828125 -0.21875,0.265625 -0.421875,0.28125 -0.765625,0.3125 -0.171875,0.015625 -0.1875,0.015625 -0.21875,0.015625 -0.015625,0 -0.078125,0.015625 -0.078125,0.09375 0,0.09375 0.0625,0.09375 0.1875,0.09375 z m 0,0"
               id="path104" />
          </g>
        </g>
      </g>
    </g>
    <g
       id="g4127"
       transform="translate(-14.39191,65.945747)">
      <g
         clip-path="url(#clipPath6957)"
         id="g72"
         transform="matrix(0.57871315,0,0,0.57871315,72.606909,69.161979)">
        <g
           fill="#000000"
           fill-opacity="1"
           id="g70">
          <g
             id="use68"
             transform="translate(38.408001,4.29)">
            <path
               d="M 0.453125,1.21875 C 0.375,1.5625 0.34375,1.625 -0.09375,1.625 c -0.109375,0 -0.21875,0 -0.21875,0.1875 0,0.078125 0.046875,0.125 0.125,0.125 0.265625,0 0.5625,-0.03125 0.828125,-0.03125 0.34375,0 0.671875,0.03125 1,0.03125 0.046875,0 0.171875,0 0.171875,-0.203125 C 1.8125,1.625 1.71875,1.625 1.578125,1.625 c -0.5,0 -0.5,-0.0625 -0.5,-0.15625 0,-0.125 0.421875,-1.75 0.484375,-2 0.125,0.296875 0.40625,0.640625 0.921875,0.640625 1.15625,0 2.40625,-1.453125 2.40625,-2.921875 0,-0.9375 -0.578125,-1.59375 -1.328125,-1.59375 -0.5,0 -0.984375,0.359375 -1.3125,0.75 -0.09375,-0.546875 -0.53125,-0.75 -0.890625,-0.75 -0.46875,0 -0.65625,0.390625 -0.734375,0.5625 C 0.4375,-3.5 0.3125,-2.90625 0.3125,-2.875 c 0,0.109375 0.09375,0.109375 0.109375,0.109375 0.109375,0 0.109375,-0.015625 0.171875,-0.234375 0.171875,-0.703125 0.375,-1.1875 0.734375,-1.1875 0.171875,0 0.3125,0.078125 0.3125,0.453125 0,0.234375 -0.03125,0.34375 -0.078125,0.515625 z m 1.75,-4.328125 C 2.265625,-3.375 2.546875,-3.65625 2.71875,-3.8125 c 0.359375,-0.296875 0.640625,-0.375 0.8125,-0.375 0.390625,0 0.640625,0.34375 0.640625,0.9375 0,0.59375 -0.328125,1.734375 -0.515625,2.109375 -0.34375,0.703125 -0.8125,1.03125 -1.1875,1.03125 C 1.8125,-0.109375 1.6875,-0.9375 1.6875,-1 c 0,-0.015625 0,-0.03125 0.03125,-0.15625 z m 0,0"
               id="path108" />
          </g>
        </g>
      </g>
      <g
         id="g4046"
         transform="matrix(1.6404457,0,0,1.6404457,-46.500783,-44.294492)">
        <g
           clip-path="url(#clipPath9376)"
           id="g78"
           transform="matrix(0.352778,0,0,0.352778,72.606909,69.161979)">
          <g
             fill="#000000"
             fill-opacity="1"
             id="g76">
            <g
               id="use74"
               transform="translate(43.421001,5.7839999)">
              <path
                 d="m 3.6875,-1.140625 v -0.25 H 2.90625 V -4.5 c 0,-0.140625 0,-0.203125 -0.140625,-0.203125 -0.09375,0 -0.125,0 -0.1875,0.109375 l -2.3125,3.203125 v 0.25 h 2.0625 v 0.5625 c 0,0.25 0,0.328125 -0.578125,0.328125 H 1.5625 V 0 C 1.921875,-0.015625 2.359375,-0.03125 2.609375,-0.03125 2.875,-0.03125 3.3125,-0.015625 3.671875,0 v -0.25 h -0.1875 C 2.90625,-0.25 2.90625,-0.328125 2.90625,-0.578125 v -0.5625 z M 2.375,-3.9375 v 2.546875 H 0.53125 Z m 0,0"
                 id="path112" />
            </g>
          </g>
        </g>
      </g>
    </g>
    <g
       id="g3904"
       transform="matrix(1.5071699,0,0,1.5071699,-92.646242,-36.749453)">
      <g
         clip-path="url(#clipPath3789)"
         id="g88"
         transform="matrix(0.352778,0,0,0.352778,171.38603,80.994667)">
        <g
           fill="#000000"
           fill-opacity="1"
           id="g86">
          <g
             id="use84"
             transform="translate(0,7.4720001)">
            <path
               d="m 3.65625,-3.984375 h 0.859375 c 0.203125,0 0.296875,0 0.296875,-0.203125 0,-0.109375 -0.09375,-0.109375 -0.265625,-0.109375 H 3.71875 L 3.921875,-5.4375 c 0.046875,-0.203125 0.1875,-0.90625 0.25,-1.03125 0.078125,-0.1875 0.25,-0.34375 0.46875,-0.34375 0.03125,0 0.296875,0 0.484375,0.1875 -0.4375,0.03125 -0.546875,0.390625 -0.546875,0.53125 0,0.234375 0.1875,0.359375 0.375,0.359375 C 5.21875,-5.734375 5.5,-5.96875 5.5,-6.34375 c 0,-0.453125 -0.453125,-0.6875 -0.859375,-0.6875 -0.34375,0 -0.96875,0.1875 -1.265625,1.171875 -0.0625,0.203125 -0.09375,0.3125 -0.328125,1.5625 h -0.6875 c -0.203125,0 -0.3125,0 -0.3125,0.1875 0,0.125 0.09375,0.125 0.28125,0.125 h 0.65625 L 2.25,-0.046875 c -0.1875,0.96875 -0.359375,1.875 -0.875,1.875 -0.046875,0 -0.28125,0 -0.484375,-0.1875 C 1.359375,1.609375 1.453125,1.25 1.453125,1.109375 1.453125,0.875 1.265625,0.75 1.078125,0.75 0.8125,0.75 0.53125,0.984375 0.53125,1.359375 c 0,0.4375 0.4375,0.6875 0.84375,0.6875 0.546875,0 0.953125,-0.59375 1.125,-0.96875 0.328125,-0.625 0.546875,-1.828125 0.5625,-1.90625 z m 0,0"
               id="path202" />
          </g>
        </g>
      </g>
      <g
         clip-path="url(#clipPath8737)"
         id="g94"
         transform="matrix(0.352778,0,0,0.352778,171.38603,80.994667)">
        <g
           fill="#000000"
           fill-opacity="1"
           id="g92">
          <g
             id="use90"
             transform="translate(5.9499998,7.4720001)">
            <path
               d="m 3.296875,2.390625 c 0,-0.03125 0,-0.046875 -0.171875,-0.21875 C 1.890625,0.921875 1.5625,-0.96875 1.5625,-2.5 c 0,-1.734375 0.375,-3.46875 1.609375,-4.703125 0.125,-0.125 0.125,-0.140625 0.125,-0.171875 0,-0.078125 -0.03125,-0.109375 -0.09375,-0.109375 -0.109375,0 -1,0.6875 -1.59375,1.953125 -0.5,1.09375 -0.625,2.203125 -0.625,3.03125 0,0.78125 0.109375,1.984375 0.65625,3.125 C 2.25,1.84375 3.09375,2.5 3.203125,2.5 c 0.0625,0 0.09375,-0.03125 0.09375,-0.109375 z m 0,0"
               id="path206" />
          </g>
        </g>
      </g>
      <g
         clip-path="url(#clipPath5716)"
         id="g100"
         transform="matrix(0.352778,0,0,0.352778,171.38603,80.994667)">
        <g
           fill="#000000"
           fill-opacity="1"
           id="g98">
          <g
             id="use96"
             transform="translate(9.8240004,7.4720001)">
            <path
               d="M 0.453125,1.21875 C 0.375,1.5625 0.34375,1.625 -0.09375,1.625 c -0.109375,0 -0.21875,0 -0.21875,0.1875 0,0.078125 0.046875,0.125 0.125,0.125 0.265625,0 0.5625,-0.03125 0.828125,-0.03125 0.34375,0 0.671875,0.03125 1,0.03125 0.046875,0 0.171875,0 0.171875,-0.203125 C 1.8125,1.625 1.71875,1.625 1.578125,1.625 c -0.5,0 -0.5,-0.0625 -0.5,-0.15625 0,-0.125 0.421875,-1.75 0.484375,-2 0.125,0.296875 0.40625,0.640625 0.921875,0.640625 1.15625,0 2.40625,-1.453125 2.40625,-2.921875 0,-0.9375 -0.578125,-1.59375 -1.328125,-1.59375 -0.5,0 -0.984375,0.359375 -1.3125,0.75 -0.09375,-0.546875 -0.53125,-0.75 -0.890625,-0.75 -0.46875,0 -0.65625,0.390625 -0.734375,0.5625 C 0.4375,-3.5 0.3125,-2.90625 0.3125,-2.875 c 0,0.109375 0.09375,0.109375 0.109375,0.109375 0.109375,0 0.109375,-0.015625 0.171875,-0.234375 0.171875,-0.703125 0.375,-1.1875 0.734375,-1.1875 0.171875,0 0.3125,0.078125 0.3125,0.453125 0,0.234375 -0.03125,0.34375 -0.078125,0.515625 z m 1.75,-4.328125 C 2.265625,-3.375 2.546875,-3.65625 2.71875,-3.8125 c 0.359375,-0.296875 0.640625,-0.375 0.8125,-0.375 0.390625,0 0.640625,0.34375 0.640625,0.9375 0,0.59375 -0.328125,1.734375 -0.515625,2.109375 -0.34375,0.703125 -0.8125,1.03125 -1.1875,1.03125 C 1.8125,-0.109375 1.6875,-0.9375 1.6875,-1 c 0,-0.015625 0,-0.03125 0.03125,-0.15625 z m 0,0"
               id="path210" />
          </g>
        </g>
      </g>
      <g
         fill="#000000"
         fill-opacity="1"
         id="g104"
         transform="matrix(0.352778,0,0,0.352778,171.38603,80.994667)">
        <g
           id="use102"
           transform="translate(14.837,8.967)">
          <path
             d="m 2.328125,-4.4375 c 0,-0.1875 0,-0.1875 -0.203125,-0.1875 -0.453125,0.4375 -1.078125,0.4375 -1.359375,0.4375 v 0.25 c 0.15625,0 0.625,0 1,-0.1875 v 3.546875 c 0,0.234375 0,0.328125 -0.6875,0.328125 H 0.8125 V 0 c 0.125,0 0.984375,-0.03125 1.234375,-0.03125 0.21875,0 1.09375,0.03125 1.25,0.03125 V -0.25 H 3.03125 c -0.703125,0 -0.703125,-0.09375 -0.703125,-0.328125 z m 0,0"
             id="path214" />
        </g>
      </g>
      <g
         clip-path="url(#clipPath4826)"
         id="g110"
         transform="matrix(0.352778,0,0,0.352778,171.38603,80.994667)">
        <g
           fill="#000000"
           fill-opacity="1"
           id="g108">
          <g
             id="use106"
             transform="translate(19.306,7.4720001)">
            <path
               d="m 2.875,-2.5 c 0,-0.765625 -0.109375,-1.96875 -0.65625,-3.109375 -0.59375,-1.21875 -1.453125,-1.875 -1.546875,-1.875 -0.0625,0 -0.109375,0.046875 -0.109375,0.109375 0,0.03125 0,0.046875 0.1875,0.234375 0.984375,0.984375 1.546875,2.5625 1.546875,4.640625 0,1.71875 -0.359375,3.46875 -1.59375,4.71875 C 0.5625,2.34375 0.5625,2.359375 0.5625,2.390625 0.5625,2.453125 0.609375,2.5 0.671875,2.5 0.765625,2.5 1.671875,1.8125 2.25,0.546875 2.765625,-0.546875 2.875,-1.65625 2.875,-2.5 Z m 0,0"
               id="path218" />
          </g>
        </g>
      </g>
    </g>
    <g
       id="g3931"
       transform="matrix(1.5071699,0,0,1.5071699,-107.13972,-19.841368)">
      <g
         clip-path="url(#clipPath8972)"
         id="g116"
         transform="matrix(0.352778,0,0,0.352778,171.38603,80.994667)">
        <g
           fill="#000000"
           fill-opacity="1"
           id="g114">
          <g
             id="use112"
             transform="translate(26.500999,7.4720001)">
            <path
               d="m 3.65625,-3.984375 h 0.859375 c 0.203125,0 0.296875,0 0.296875,-0.203125 0,-0.109375 -0.09375,-0.109375 -0.265625,-0.109375 H 3.71875 L 3.921875,-5.4375 c 0.046875,-0.203125 0.1875,-0.90625 0.25,-1.03125 0.078125,-0.1875 0.25,-0.34375 0.46875,-0.34375 0.03125,0 0.296875,0 0.484375,0.1875 -0.4375,0.03125 -0.546875,0.390625 -0.546875,0.53125 0,0.234375 0.1875,0.359375 0.375,0.359375 C 5.21875,-5.734375 5.5,-5.96875 5.5,-6.34375 c 0,-0.453125 -0.453125,-0.6875 -0.859375,-0.6875 -0.34375,0 -0.96875,0.1875 -1.265625,1.171875 -0.0625,0.203125 -0.09375,0.3125 -0.328125,1.5625 h -0.6875 c -0.203125,0 -0.3125,0 -0.3125,0.1875 0,0.125 0.09375,0.125 0.28125,0.125 h 0.65625 L 2.25,-0.046875 c -0.1875,0.96875 -0.359375,1.875 -0.875,1.875 -0.046875,0 -0.28125,0 -0.484375,-0.1875 C 1.359375,1.609375 1.453125,1.25 1.453125,1.109375 1.453125,0.875 1.265625,0.75 1.078125,0.75 0.8125,0.75 0.53125,0.984375 0.53125,1.359375 c 0,0.4375 0.4375,0.6875 0.84375,0.6875 0.546875,0 0.953125,-0.59375 1.125,-0.96875 0.328125,-0.625 0.546875,-1.828125 0.5625,-1.90625 z m 0,0"
               id="path222" />
          </g>
        </g>
      </g>
      <g
         clip-path="url(#clipPath1043)"
         id="g122"
         transform="matrix(0.352778,0,0,0.352778,171.38603,80.994667)">
        <g
           fill="#000000"
           fill-opacity="1"
           id="g120">
          <g
             id="use118"
             transform="translate(32.451,7.4720001)">
            <path
               d="m 3.296875,2.390625 c 0,-0.03125 0,-0.046875 -0.171875,-0.21875 C 1.890625,0.921875 1.5625,-0.96875 1.5625,-2.5 c 0,-1.734375 0.375,-3.46875 1.609375,-4.703125 0.125,-0.125 0.125,-0.140625 0.125,-0.171875 0,-0.078125 -0.03125,-0.109375 -0.09375,-0.109375 -0.109375,0 -1,0.6875 -1.59375,1.953125 -0.5,1.09375 -0.625,2.203125 -0.625,3.03125 0,0.78125 0.109375,1.984375 0.65625,3.125 C 2.25,1.84375 3.09375,2.5 3.203125,2.5 c 0.0625,0 0.09375,-0.03125 0.09375,-0.109375 z m 0,0"
               id="path226" />
          </g>
        </g>
      </g>
      <g
         clip-path="url(#clipPath4817)"
         id="g128"
         transform="matrix(0.352778,0,0,0.352778,171.38603,80.994667)">
        <g
           fill="#000000"
           fill-opacity="1"
           id="g126">
          <g
             id="use124"
             transform="translate(36.326,7.4720001)">
            <path
               d="M 0.453125,1.21875 C 0.375,1.5625 0.34375,1.625 -0.09375,1.625 c -0.109375,0 -0.21875,0 -0.21875,0.1875 0,0.078125 0.046875,0.125 0.125,0.125 0.265625,0 0.5625,-0.03125 0.828125,-0.03125 0.34375,0 0.671875,0.03125 1,0.03125 0.046875,0 0.171875,0 0.171875,-0.203125 C 1.8125,1.625 1.71875,1.625 1.578125,1.625 c -0.5,0 -0.5,-0.0625 -0.5,-0.15625 0,-0.125 0.421875,-1.75 0.484375,-2 0.125,0.296875 0.40625,0.640625 0.921875,0.640625 1.15625,0 2.40625,-1.453125 2.40625,-2.921875 0,-0.9375 -0.578125,-1.59375 -1.328125,-1.59375 -0.5,0 -0.984375,0.359375 -1.3125,0.75 -0.09375,-0.546875 -0.53125,-0.75 -0.890625,-0.75 -0.46875,0 -0.65625,0.390625 -0.734375,0.5625 C 0.4375,-3.5 0.3125,-2.90625 0.3125,-2.875 c 0,0.109375 0.09375,0.109375 0.109375,0.109375 0.109375,0 0.109375,-0.015625 0.171875,-0.234375 0.171875,-0.703125 0.375,-1.1875 0.734375,-1.1875 0.171875,0 0.3125,0.078125 0.3125,0.453125 0,0.234375 -0.03125,0.34375 -0.078125,0.515625 z m 1.75,-4.328125 C 2.265625,-3.375 2.546875,-3.65625 2.71875,-3.8125 c 0.359375,-0.296875 0.640625,-0.375 0.8125,-0.375 0.390625,0 0.640625,0.34375 0.640625,0.9375 0,0.59375 -0.328125,1.734375 -0.515625,2.109375 -0.34375,0.703125 -0.8125,1.03125 -1.1875,1.03125 C 1.8125,-0.109375 1.6875,-0.9375 1.6875,-1 c 0,-0.015625 0,-0.03125 0.03125,-0.15625 z m 0,0"
               id="path230" />
          </g>
        </g>
      </g>
      <g
         fill="#000000"
         fill-opacity="1"
         id="g132"
         transform="matrix(0.352778,0,0,0.352778,171.38603,80.994667)">
        <g
           id="use130"
           transform="translate(41.338001,8.967)">
          <path
             d="M 3.515625,-1.265625 H 3.28125 c -0.015625,0.15625 -0.09375,0.5625 -0.1875,0.625 C 3.046875,-0.59375 2.515625,-0.59375 2.40625,-0.59375 H 1.125 c 0.734375,-0.640625 0.984375,-0.84375 1.390625,-1.171875 0.515625,-0.40625 1,-0.84375 1,-1.5 0,-0.84375 -0.734375,-1.359375 -1.625,-1.359375 -0.859375,0 -1.453125,0.609375 -1.453125,1.25 0,0.34375 0.296875,0.390625 0.375,0.390625 0.15625,0 0.359375,-0.125 0.359375,-0.375 0,-0.125 -0.046875,-0.375 -0.40625,-0.375 C 0.984375,-4.21875 1.453125,-4.375 1.78125,-4.375 c 0.703125,0 1.0625,0.546875 1.0625,1.109375 0,0.609375 -0.4375,1.078125 -0.65625,1.328125 L 0.515625,-0.265625 C 0.4375,-0.203125 0.4375,-0.1875 0.4375,0 h 2.875 z m 0,0"
             id="path234" />
        </g>
      </g>
      <g
         clip-path="url(#clipPath4771)"
         id="g138"
         transform="matrix(0.352778,0,0,0.352778,171.38603,80.994667)">
        <g
           fill="#000000"
           fill-opacity="1"
           id="g136">
          <g
             id="use134"
             transform="translate(45.807999,7.4720001)">
            <path
               d="m 2.875,-2.5 c 0,-0.765625 -0.109375,-1.96875 -0.65625,-3.109375 -0.59375,-1.21875 -1.453125,-1.875 -1.546875,-1.875 -0.0625,0 -0.109375,0.046875 -0.109375,0.109375 0,0.03125 0,0.046875 0.1875,0.234375 0.984375,0.984375 1.546875,2.5625 1.546875,4.640625 0,1.71875 -0.359375,3.46875 -1.59375,4.71875 C 0.5625,2.34375 0.5625,2.359375 0.5625,2.390625 0.5625,2.453125 0.609375,2.5 0.671875,2.5 0.765625,2.5 1.671875,1.8125 2.25,0.546875 2.765625,-0.546875 2.875,-1.65625 2.875,-2.5 Z m 0,0"
               id="path238" />
          </g>
        </g>
      </g>
    </g>
    <g
       id="g3959"
       transform="matrix(1.5071699,0,0,1.5071699,-122.55167,-10.433346)">
      <g
         clip-path="url(#clipPath6154)"
         id="g144"
         transform="matrix(0.352778,0,0,0.352778,171.38603,80.994667)">
        <g
           fill="#000000"
           fill-opacity="1"
           id="g142">
          <g
             id="use140"
             transform="translate(53.002998,7.4720001)">
            <path
               d="m 3.65625,-3.984375 h 0.859375 c 0.203125,0 0.296875,0 0.296875,-0.203125 0,-0.109375 -0.09375,-0.109375 -0.265625,-0.109375 H 3.71875 L 3.921875,-5.4375 c 0.046875,-0.203125 0.1875,-0.90625 0.25,-1.03125 0.078125,-0.1875 0.25,-0.34375 0.46875,-0.34375 0.03125,0 0.296875,0 0.484375,0.1875 -0.4375,0.03125 -0.546875,0.390625 -0.546875,0.53125 0,0.234375 0.1875,0.359375 0.375,0.359375 C 5.21875,-5.734375 5.5,-5.96875 5.5,-6.34375 c 0,-0.453125 -0.453125,-0.6875 -0.859375,-0.6875 -0.34375,0 -0.96875,0.1875 -1.265625,1.171875 -0.0625,0.203125 -0.09375,0.3125 -0.328125,1.5625 h -0.6875 c -0.203125,0 -0.3125,0 -0.3125,0.1875 0,0.125 0.09375,0.125 0.28125,0.125 h 0.65625 L 2.25,-0.046875 c -0.1875,0.96875 -0.359375,1.875 -0.875,1.875 -0.046875,0 -0.28125,0 -0.484375,-0.1875 C 1.359375,1.609375 1.453125,1.25 1.453125,1.109375 1.453125,0.875 1.265625,0.75 1.078125,0.75 0.8125,0.75 0.53125,0.984375 0.53125,1.359375 c 0,0.4375 0.4375,0.6875 0.84375,0.6875 0.546875,0 0.953125,-0.59375 1.125,-0.96875 0.328125,-0.625 0.546875,-1.828125 0.5625,-1.90625 z m 0,0"
               id="path242" />
          </g>
        </g>
      </g>
      <g
         clip-path="url(#clipPath9968)"
         id="g150"
         transform="matrix(0.352778,0,0,0.352778,171.38603,80.994667)">
        <g
           fill="#000000"
           fill-opacity="1"
           id="g148">
          <g
             id="use146"
             transform="translate(58.952999,7.4720001)">
            <path
               d="m 3.296875,2.390625 c 0,-0.03125 0,-0.046875 -0.171875,-0.21875 C 1.890625,0.921875 1.5625,-0.96875 1.5625,-2.5 c 0,-1.734375 0.375,-3.46875 1.609375,-4.703125 0.125,-0.125 0.125,-0.140625 0.125,-0.171875 0,-0.078125 -0.03125,-0.109375 -0.09375,-0.109375 -0.109375,0 -1,0.6875 -1.59375,1.953125 -0.5,1.09375 -0.625,2.203125 -0.625,3.03125 0,0.78125 0.109375,1.984375 0.65625,3.125 C 2.25,1.84375 3.09375,2.5 3.203125,2.5 c 0.0625,0 0.09375,-0.03125 0.09375,-0.109375 z m 0,0"
               id="path246" />
          </g>
        </g>
      </g>
      <g
         clip-path="url(#clipPath5263)"
         id="g156"
         transform="matrix(0.352778,0,0,0.352778,171.38603,80.994667)">
        <g
           fill="#000000"
           fill-opacity="1"
           id="g154">
          <g
             id="use152"
             transform="translate(62.827,7.4720001)">
            <path
               d="M 0.453125,1.21875 C 0.375,1.5625 0.34375,1.625 -0.09375,1.625 c -0.109375,0 -0.21875,0 -0.21875,0.1875 0,0.078125 0.046875,0.125 0.125,0.125 0.265625,0 0.5625,-0.03125 0.828125,-0.03125 0.34375,0 0.671875,0.03125 1,0.03125 0.046875,0 0.171875,0 0.171875,-0.203125 C 1.8125,1.625 1.71875,1.625 1.578125,1.625 c -0.5,0 -0.5,-0.0625 -0.5,-0.15625 0,-0.125 0.421875,-1.75 0.484375,-2 0.125,0.296875 0.40625,0.640625 0.921875,0.640625 1.15625,0 2.40625,-1.453125 2.40625,-2.921875 0,-0.9375 -0.578125,-1.59375 -1.328125,-1.59375 -0.5,0 -0.984375,0.359375 -1.3125,0.75 -0.09375,-0.546875 -0.53125,-0.75 -0.890625,-0.75 -0.46875,0 -0.65625,0.390625 -0.734375,0.5625 C 0.4375,-3.5 0.3125,-2.90625 0.3125,-2.875 c 0,0.109375 0.09375,0.109375 0.109375,0.109375 0.109375,0 0.109375,-0.015625 0.171875,-0.234375 0.171875,-0.703125 0.375,-1.1875 0.734375,-1.1875 0.171875,0 0.3125,0.078125 0.3125,0.453125 0,0.234375 -0.03125,0.34375 -0.078125,0.515625 z m 1.75,-4.328125 C 2.265625,-3.375 2.546875,-3.65625 2.71875,-3.8125 c 0.359375,-0.296875 0.640625,-0.375 0.8125,-0.375 0.390625,0 0.640625,0.34375 0.640625,0.9375 0,0.59375 -0.328125,1.734375 -0.515625,2.109375 -0.34375,0.703125 -0.8125,1.03125 -1.1875,1.03125 C 1.8125,-0.109375 1.6875,-0.9375 1.6875,-1 c 0,-0.015625 0,-0.03125 0.03125,-0.15625 z m 0,0"
               id="path250" />
          </g>
        </g>
      </g>
      <g
         clip-path="url(#clipPath1341)"
         id="g162"
         transform="matrix(0.352778,0,0,0.352778,171.38603,80.994667)">
        <g
           fill="#000000"
           fill-opacity="1"
           id="g160">
          <g
             id="use158"
             transform="translate(67.839996,8.967)">
            <path
               d="m 1.90625,-2.328125 c 0.546875,0 0.9375,0.375 0.9375,1.125 0,0.859375 -0.515625,1.125 -0.90625,1.125 -0.28125,0 -0.90625,-0.078125 -1.1875,-0.5 0.328125,0 0.40625,-0.234375 0.40625,-0.390625 0,-0.21875 -0.171875,-0.375 -0.390625,-0.375 -0.1875,0 -0.390625,0.125 -0.390625,0.40625 0,0.65625 0.71875,1.078125 1.5625,1.078125 0.96875,0 1.640625,-0.65625 1.640625,-1.34375 0,-0.546875 -0.4375,-1.09375 -1.203125,-1.25 0.71875,-0.265625 0.984375,-0.78125 0.984375,-1.21875 0,-0.546875 -0.625,-0.953125 -1.40625,-0.953125 -0.765625,0 -1.359375,0.375 -1.359375,0.9375 0,0.234375 0.15625,0.359375 0.359375,0.359375 0.21875,0 0.359375,-0.15625 0.359375,-0.34375 0,-0.203125 -0.140625,-0.359375 -0.359375,-0.375 0.25,-0.296875 0.71875,-0.375 0.984375,-0.375 0.3125,0 0.75,0.15625 0.75,0.75 0,0.296875 -0.09375,0.625 -0.28125,0.828125 -0.21875,0.265625 -0.421875,0.28125 -0.765625,0.3125 -0.171875,0.015625 -0.1875,0.015625 -0.21875,0.015625 -0.015625,0 -0.078125,0.015625 -0.078125,0.09375 0,0.09375 0.0625,0.09375 0.1875,0.09375 z m 0,0"
               id="path254" />
          </g>
        </g>
      </g>
      <g
         clip-path="url(#clipPath1427)"
         id="g168"
         transform="matrix(0.352778,0,0,0.352778,171.38603,80.994667)">
        <g
           fill="#000000"
           fill-opacity="1"
           id="g166">
          <g
             id="use164"
             transform="translate(72.308998,7.4720001)">
            <path
               d="m 2.875,-2.5 c 0,-0.765625 -0.109375,-1.96875 -0.65625,-3.109375 -0.59375,-1.21875 -1.453125,-1.875 -1.546875,-1.875 -0.0625,0 -0.109375,0.046875 -0.109375,0.109375 0,0.03125 0,0.046875 0.1875,0.234375 0.984375,0.984375 1.546875,2.5625 1.546875,4.640625 0,1.71875 -0.359375,3.46875 -1.59375,4.71875 C 0.5625,2.34375 0.5625,2.359375 0.5625,2.390625 0.5625,2.453125 0.609375,2.5 0.671875,2.5 0.765625,2.5 1.671875,1.8125 2.25,0.546875 2.765625,-0.546875 2.875,-1.65625 2.875,-2.5 Z m 0,0"
               id="path258" />
          </g>
        </g>
      </g>
    </g>
    <g
       id="g3986"
       transform="matrix(1.5071699,0,0,1.5071699,-136.38093,6.9448606)">
      <g
         clip-path="url(#clipPath459)"
         id="g174"
         transform="matrix(0.352778,0,0,0.352778,171.38603,80.994667)">
        <g
           fill="#000000"
           fill-opacity="1"
           id="g172">
          <g
             id="use170"
             transform="translate(79.503998,7.4720001)">
            <path
               d="m 3.65625,-3.984375 h 0.859375 c 0.203125,0 0.296875,0 0.296875,-0.203125 0,-0.109375 -0.09375,-0.109375 -0.265625,-0.109375 H 3.71875 L 3.921875,-5.4375 c 0.046875,-0.203125 0.1875,-0.90625 0.25,-1.03125 0.078125,-0.1875 0.25,-0.34375 0.46875,-0.34375 0.03125,0 0.296875,0 0.484375,0.1875 -0.4375,0.03125 -0.546875,0.390625 -0.546875,0.53125 0,0.234375 0.1875,0.359375 0.375,0.359375 C 5.21875,-5.734375 5.5,-5.96875 5.5,-6.34375 c 0,-0.453125 -0.453125,-0.6875 -0.859375,-0.6875 -0.34375,0 -0.96875,0.1875 -1.265625,1.171875 -0.0625,0.203125 -0.09375,0.3125 -0.328125,1.5625 h -0.6875 c -0.203125,0 -0.3125,0 -0.3125,0.1875 0,0.125 0.09375,0.125 0.28125,0.125 h 0.65625 L 2.25,-0.046875 c -0.1875,0.96875 -0.359375,1.875 -0.875,1.875 -0.046875,0 -0.28125,0 -0.484375,-0.1875 C 1.359375,1.609375 1.453125,1.25 1.453125,1.109375 1.453125,0.875 1.265625,0.75 1.078125,0.75 0.8125,0.75 0.53125,0.984375 0.53125,1.359375 c 0,0.4375 0.4375,0.6875 0.84375,0.6875 0.546875,0 0.953125,-0.59375 1.125,-0.96875 0.328125,-0.625 0.546875,-1.828125 0.5625,-1.90625 z m 0,0"
               id="path262" />
          </g>
        </g>
      </g>
      <g
         clip-path="url(#clipPath1414)"
         id="g180"
         transform="matrix(0.352778,0,0,0.352778,171.38603,80.994667)">
        <g
           fill="#000000"
           fill-opacity="1"
           id="g178">
          <g
             id="use176"
             transform="translate(85.454002,7.4720001)">
            <path
               d="m 3.296875,2.390625 c 0,-0.03125 0,-0.046875 -0.171875,-0.21875 C 1.890625,0.921875 1.5625,-0.96875 1.5625,-2.5 c 0,-1.734375 0.375,-3.46875 1.609375,-4.703125 0.125,-0.125 0.125,-0.140625 0.125,-0.171875 0,-0.078125 -0.03125,-0.109375 -0.09375,-0.109375 -0.109375,0 -1,0.6875 -1.59375,1.953125 -0.5,1.09375 -0.625,2.203125 -0.625,3.03125 0,0.78125 0.109375,1.984375 0.65625,3.125 C 2.25,1.84375 3.09375,2.5 3.203125,2.5 c 0.0625,0 0.09375,-0.03125 0.09375,-0.109375 z m 0,0"
               id="path266" />
          </g>
        </g>
      </g>
      <g
         clip-path="url(#clipPath8066)"
         id="g186"
         transform="matrix(0.352778,0,0,0.352778,171.38603,80.994667)">
        <g
           fill="#000000"
           fill-opacity="1"
           id="g184">
          <g
             id="use182"
             transform="translate(89.329002,7.4720001)">
            <path
               d="M 0.453125,1.21875 C 0.375,1.5625 0.34375,1.625 -0.09375,1.625 c -0.109375,0 -0.21875,0 -0.21875,0.1875 0,0.078125 0.046875,0.125 0.125,0.125 0.265625,0 0.5625,-0.03125 0.828125,-0.03125 0.34375,0 0.671875,0.03125 1,0.03125 0.046875,0 0.171875,0 0.171875,-0.203125 C 1.8125,1.625 1.71875,1.625 1.578125,1.625 c -0.5,0 -0.5,-0.0625 -0.5,-0.15625 0,-0.125 0.421875,-1.75 0.484375,-2 0.125,0.296875 0.40625,0.640625 0.921875,0.640625 1.15625,0 2.40625,-1.453125 2.40625,-2.921875 0,-0.9375 -0.578125,-1.59375 -1.328125,-1.59375 -0.5,0 -0.984375,0.359375 -1.3125,0.75 -0.09375,-0.546875 -0.53125,-0.75 -0.890625,-0.75 -0.46875,0 -0.65625,0.390625 -0.734375,0.5625 C 0.4375,-3.5 0.3125,-2.90625 0.3125,-2.875 c 0,0.109375 0.09375,0.109375 0.109375,0.109375 0.109375,0 0.109375,-0.015625 0.171875,-0.234375 0.171875,-0.703125 0.375,-1.1875 0.734375,-1.1875 0.171875,0 0.3125,0.078125 0.3125,0.453125 0,0.234375 -0.03125,0.34375 -0.078125,0.515625 z m 1.75,-4.328125 C 2.265625,-3.375 2.546875,-3.65625 2.71875,-3.8125 c 0.359375,-0.296875 0.640625,-0.375 0.8125,-0.375 0.390625,0 0.640625,0.34375 0.640625,0.9375 0,0.59375 -0.328125,1.734375 -0.515625,2.109375 -0.34375,0.703125 -0.8125,1.03125 -1.1875,1.03125 C 1.8125,-0.109375 1.6875,-0.9375 1.6875,-1 c 0,-0.015625 0,-0.03125 0.03125,-0.15625 z m 0,0"
               id="path270" />
          </g>
        </g>
      </g>
      <g
         fill="#000000"
         fill-opacity="1"
         id="g190"
         transform="matrix(0.352778,0,0,0.352778,171.38603,80.994667)">
        <g
           id="use188"
           transform="translate(94.341003,8.967)">
          <path
             d="m 3.6875,-1.140625 v -0.25 H 2.90625 V -4.5 c 0,-0.140625 0,-0.203125 -0.140625,-0.203125 -0.09375,0 -0.125,0 -0.1875,0.109375 l -2.3125,3.203125 v 0.25 h 2.0625 v 0.5625 c 0,0.25 0,0.328125 -0.578125,0.328125 H 1.5625 V 0 C 1.921875,-0.015625 2.359375,-0.03125 2.609375,-0.03125 2.875,-0.03125 3.3125,-0.015625 3.671875,0 v -0.25 h -0.1875 C 2.90625,-0.25 2.90625,-0.328125 2.90625,-0.578125 v -0.5625 z M 2.375,-3.9375 v 2.546875 H 0.53125 Z m 0,0"
             id="path274" />
        </g>
      </g>
      <g
         clip-path="url(#clipPath2720)"
         id="g196"
         transform="matrix(0.352778,0,0,0.352778,171.38603,80.994667)">
        <g
           fill="#000000"
           fill-opacity="1"
           id="g194">
          <g
             id="use192"
             transform="translate(98.809998,7.4720001)">
            <path
               d="m 2.875,-2.5 c 0,-0.765625 -0.109375,-1.96875 -0.65625,-3.109375 -0.59375,-1.21875 -1.453125,-1.875 -1.546875,-1.875 -0.0625,0 -0.109375,0.046875 -0.109375,0.109375 0,0.03125 0,0.046875 0.1875,0.234375 0.984375,0.984375 1.546875,2.5625 1.546875,4.640625 0,1.71875 -0.359375,3.46875 -1.59375,4.71875 C 0.5625,2.34375 0.5625,2.359375 0.5625,2.390625 0.5625,2.453125 0.609375,2.5 0.671875,2.5 0.765625,2.5 1.671875,1.8125 2.25,0.546875 2.765625,-0.546875 2.875,-1.65625 2.875,-2.5 Z m 0,0"
               id="path278" />
          </g>
        </g>
      </g>
    </g>
  </g>
</svg>
