<?xml version="1.0" encoding="UTF-8" standalone="no"?>
<!-- Created with Inkscape (http://www.inkscape.org/) -->

<svg
   width="210mm"
   height="297mm"
   viewBox="0 0 210 297"
   version="1.1"
   id="svg5"
   sodipodi:docname="escher_matroid_2.svg"
   inkscape:version="1.2.1 (9c6d41e410, 2022-07-14)"
   xmlns:inkscape="http://www.inkscape.org/namespaces/inkscape"
   xmlns:sodipodi="http://sodipodi.sourceforge.net/DTD/sodipodi-0.dtd"
   xmlns="http://www.w3.org/2000/svg"
   xmlns:svg="http://www.w3.org/2000/svg">
  <sodipodi:namedview
     id="namedview7"
     pagecolor="#ffffff"
     bordercolor="#000000"
     borderopacity="0.25"
     inkscape:showpageshadow="2"
     inkscape:pageopacity="0.0"
     inkscape:pagecheckerboard="0"
     inkscape:deskcolor="#d1d1d1"
     inkscape:document-units="mm"
     showgrid="false"
     showguides="true"
     inkscape:zoom="1.754102"
     inkscape:cx="394.7889"
     inkscape:cy="235.44811"
     inkscape:window-width="1888"
     inkscape:window-height="1008"
     inkscape:window-x="13"
     inkscape:window-y="53"
     inkscape:window-maximized="1"
     inkscape:current-layer="layer1" />
  <defs
     id="defs2" />
  <g
     inkscape:label="Layer 1"
     inkscape:groupmode="layer"
     id="layer1">
    <path
       style="fill:#d40000;fill-opacity:0.74902;stroke:#000000;stroke-width:0.282649;stroke-opacity:1"
       d="m 151.08916,30.450001 19.9034,29.741605 -39.05304,-13.854235 z"
       id="path790" />
    <path
       style="fill:#d40000;fill-opacity:0.74902;stroke:#000000;stroke-width:0.203546;stroke-opacity:1"
       d="m 117.06932,46.510781 14.3332,21.418053 -28.12357,-9.976958 z"
       id="path790-3" />
    <path
       style="fill:#d40000;fill-opacity:0.74902;stroke:#000000;stroke-width:0.242705;stroke-opacity:1"
       d="m 170.99256,60.191606 -39.59004,7.737227 -28.12357,-9.976958 28.66057,-11.614504 z"
       id="path1255" />
    <path
       style="fill:#d40000;fill-opacity:0.74902;stroke:#000000;stroke-width:0.242705;stroke-opacity:1"
       d="M 131.65787,68.127404 29.529997,87.838149 103.27895,57.951875 131.65787,68.127404"
       id="path1330" />
    <path
       style="fill:#d40000;fill-opacity:0.74902;stroke:#000000;stroke-width:0.330999;stroke-opacity:1"
       d="m 117.06932,46.510781 34.01984,-16.06078 19.9034,29.741603 -39.33469,7.935799 z"
       id="path1332" />
    <path
       style="fill:#d40000;fill-opacity:0.74902;stroke:#000000;stroke-width:0.330999;stroke-opacity:1"
       d="M 103.27895,57.951875 117.06932,46.510781 151.08916,30.450001 131.93952,46.33737 103.27895,57.951875"
       id="path1334" />
    <circle
       style="fill:#000000;fill-opacity:1;stroke:none;stroke-width:0.210483;stroke-opacity:1"
       id="path1388-56"
       cx="170.99255"
       cy="60.191605"
       r="2.3947582" />
    <circle
       style="fill:#000000;fill-opacity:1;stroke:none;stroke-width:0.210483;stroke-opacity:1"
       id="path1388-2"
       cx="131.93951"
       cy="46.337372"
       r="2.3947582" />
    <circle
       style="fill:#000000;fill-opacity:1;stroke:none;stroke-width:0.210483;stroke-opacity:1"
       id="path1388-9"
       cx="151.08916"
       cy="30.450001"
       r="2.3947582" />
    <g
       fill="#000000"
       fill-opacity="1"
       id="g30"
       transform="matrix(0.640615,0,0,0.640615,-34.471439,42.099423)">
      <g
         id="use28"
         transform="translate(91.925003,81.962997)">
        <path
           d="m 2.9375,-6.375 c 0,-0.25 0,-0.265625 -0.234375,-0.265625 C 2.078125,-6 1.203125,-6 0.890625,-6 v 0.3125 c 0.203125,0 0.78125,0 1.296875,-0.265625 v 5.171875 c 0,0.359375 -0.03125,0.46875 -0.921875,0.46875 h -0.3125 V 0 c 0.34375,-0.03125 1.203125,-0.03125 1.609375,-0.03125 0.390625,0 1.265625,0 1.609375,0.03125 v -0.3125 h -0.3125 c -0.90625,0 -0.921875,-0.109375 -0.921875,-0.46875 z m 0,0"
           id="path60" />
      </g>
    </g>
    <g
       fill="#000000"
       fill-opacity="1"
       id="g34"
       transform="matrix(0.640615,0,0,0.640615,68.256196,22.509972)">
      <g
         id="use32"
         transform="translate(100.22385,81.962997)">
        <path
           d="m 1.265625,-0.765625 1.0625,-1.03125 c 1.546875,-1.375 2.140625,-1.90625 2.140625,-2.90625 0,-1.140625 -0.890625,-1.9375 -2.109375,-1.9375 -1.125,0 -1.859375,0.921875 -1.859375,1.8125 0,0.546875 0.5,0.546875 0.53125,0.546875 0.171875,0 0.515625,-0.109375 0.515625,-0.53125 0,-0.25 -0.1875,-0.515625 -0.53125,-0.515625 -0.078125,0 -0.09375,0 -0.125,0.015625 0.21875,-0.65625 0.765625,-1.015625 1.34375,-1.015625 0.90625,0 1.328125,0.8125 1.328125,1.625 C 3.5625,-3.90625 3.078125,-3.125 2.515625,-2.5 l -1.90625,2.125 C 0.5,-0.265625 0.5,-0.234375 0.5,0 H 4.203125 L 4.46875,-1.734375 H 4.234375 C 4.171875,-1.4375 4.109375,-1 4,-0.84375 3.9375,-0.765625 3.28125,-0.765625 3.0625,-0.765625 Z m 0,0"
           id="path64" />
      </g>
    </g>
    <g
       fill="#000000"
       fill-opacity="1"
       id="g38"
       transform="matrix(0.640615,0,0,0.640615,101.65343,15.407438)">
      <g
         id="use36"
         transform="translate(108.53265,81.962997)">
        <path
           d="m 2.890625,-3.515625 c 0.8125,-0.265625 1.390625,-0.953125 1.390625,-1.75 0,-0.8125 -0.875,-1.375 -1.828125,-1.375 -1,0 -1.765625,0.59375 -1.765625,1.359375 0,0.328125 0.21875,0.515625 0.515625,0.515625 0.296875,0 0.5,-0.21875 0.5,-0.515625 0,-0.484375 -0.46875,-0.484375 -0.609375,-0.484375 0.296875,-0.5 0.953125,-0.625 1.3125,-0.625 0.421875,0 0.96875,0.21875 0.96875,1.109375 0,0.125 -0.03125,0.703125 -0.28125,1.140625 C 2.796875,-3.65625 2.453125,-3.625 2.203125,-3.625 2.125,-3.609375 1.890625,-3.59375 1.8125,-3.59375 c -0.078125,0.015625 -0.140625,0.03125 -0.140625,0.125 0,0.109375 0.0625,0.109375 0.234375,0.109375 h 0.4375 c 0.8125,0 1.1875,0.671875 1.1875,1.65625 0,1.359375 -0.6875,1.640625 -1.125,1.640625 -0.4375,0 -1.1875,-0.171875 -1.53125,-0.75 0.34375,0.046875 0.65625,-0.171875 0.65625,-0.546875 0,-0.359375 -0.265625,-0.5625 -0.546875,-0.5625 -0.25,0 -0.5625,0.140625 -0.5625,0.578125 0,0.90625 0.921875,1.5625 2.015625,1.5625 1.21875,0 2.125,-0.90625 2.125,-1.921875 0,-0.8125 -0.640625,-1.59375 -1.671875,-1.8125 z m 0,0"
           id="path68" />
      </g>
    </g>
    <g
       fill="#000000"
       fill-opacity="1"
       id="g46"
       transform="matrix(0.640615,0,0,0.640615,52.582365,0.78321368)">
      <g
         id="use44"
         transform="translate(125.13035,81.962997)">
        <path
           d="m 4.46875,-2 c 0,-1.1875 -0.8125,-2.1875 -1.890625,-2.1875 -0.46875,0 -0.90625,0.15625 -1.265625,0.515625 V -5.625 c 0.203125,0.0625 0.53125,0.125 0.84375,0.125 1.234375,0 1.9375,-0.90625 1.9375,-1.03125 0,-0.0625 -0.03125,-0.109375 -0.109375,-0.109375 0,0 -0.03125,0 -0.078125,0.03125 C 3.703125,-6.515625 3.21875,-6.3125 2.546875,-6.3125 2.15625,-6.3125 1.6875,-6.390625 1.21875,-6.59375 1.140625,-6.625 1.125,-6.625 1.109375,-6.625 1,-6.625 1,-6.546875 1,-6.390625 V -3.4375 c 0,0.171875 0,0.25 0.140625,0.25 0.078125,0 0.09375,-0.015625 0.140625,-0.078125 C 1.390625,-3.421875 1.75,-3.96875 2.5625,-3.96875 c 0.515625,0 0.765625,0.453125 0.84375,0.640625 0.15625,0.375 0.1875,0.75 0.1875,1.25 0,0.359375 0,0.953125 -0.25,1.375 C 3.109375,-0.3125 2.734375,-0.0625 2.28125,-0.0625 c -0.71875,0 -1.296875,-0.53125 -1.46875,-1.109375 0.03125,0 0.0625,0.015625 0.171875,0.015625 0.328125,0 0.5,-0.25 0.5,-0.484375 0,-0.25 -0.171875,-0.5 -0.5,-0.5 C 0.84375,-2.140625 0.5,-2.0625 0.5,-1.609375 0.5,-0.75 1.1875,0.21875 2.296875,0.21875 3.453125,0.21875 4.46875,-0.734375 4.46875,-2 Z m 0,0"
           id="path76" />
      </g>
    </g>
    <g
       fill="#000000"
       fill-opacity="1"
       id="g50"
       transform="matrix(0.640615,0,0,0.640615,26.268635,-8.5308377)">
      <g
         id="use48"
         transform="translate(133.43915,81.962997)">
        <path
           d="m 1.3125,-3.265625 v -0.25 c 0,-2.515625 1.234375,-2.875 1.75,-2.875 0.234375,0 0.65625,0.0625 0.875,0.40625 -0.15625,0 -0.546875,0 -0.546875,0.4375 0,0.3125 0.234375,0.46875 0.453125,0.46875 0.15625,0 0.46875,-0.09375 0.46875,-0.484375 0,-0.59375 -0.4375,-1.078125 -1.265625,-1.078125 -1.28125,0 -2.625,1.28125 -2.625,3.484375 0,2.671875 1.15625,3.375 2.078125,3.375 1.109375,0 2.0625,-0.9375 2.0625,-2.25 0,-1.265625 -0.890625,-2.21875 -2,-2.21875 -0.671875,0 -1.046875,0.5 -1.25,0.984375 z M 2.5,-0.0625 c -0.625,0 -0.921875,-0.59375 -0.984375,-0.75 -0.1875,-0.46875 -0.1875,-1.265625 -0.1875,-1.4375 0,-0.78125 0.328125,-1.78125 1.21875,-1.78125 0.171875,0 0.625,0 0.9375,0.625 0.171875,0.359375 0.171875,0.875 0.171875,1.359375 0,0.484375 0,0.984375 -0.171875,1.34375 C 3.1875,-0.109375 2.734375,-0.0625 2.5,-0.0625 Z m 0,0"
           id="path80" />
      </g>
    </g>
    <g
       fill="#000000"
       fill-opacity="1"
       id="g54"
       transform="matrix(0.640615,0,0,0.640615,54.801934,-24.591617)">
      <g
         id="use52"
         transform="translate(141.73801,81.962997)">
        <path
           d="m 4.75,-6.078125 c 0.078125,-0.109375 0.078125,-0.125 0.078125,-0.34375 H 2.40625 c -1.203125,0 -1.234375,-0.125 -1.265625,-0.3125 h -0.25 L 0.5625,-4.6875 h 0.25 c 0.03125,-0.15625 0.109375,-0.78125 0.25,-0.90625 0.0625,-0.0625 0.84375,-0.0625 0.96875,-0.0625 h 2.0625 C 3.984375,-5.5 3.203125,-4.40625 2.984375,-4.078125 2.078125,-2.734375 1.75,-1.34375 1.75,-0.328125 c 0,0.09375 0,0.546875 0.46875,0.546875 0.453125,0 0.453125,-0.453125 0.453125,-0.546875 V -0.84375 c 0,-0.546875 0.03125,-1.09375 0.109375,-1.625 0.046875,-0.234375 0.171875,-1.09375 0.625,-1.703125 z m 0,0"
           id="path84" />
      </g>
    </g>
    <path
       style="fill:#d40000;stroke-width:0.330999;fill-opacity:0.74901962;stroke:#000000;stroke-opacity:1"
       d="M 29.529997,87.838147 117.06932,46.510781 131.40252,67.928833 29.529997,87.838147"
       id="path936" />
    <path
       style="fill:#d40000;fill-opacity:0.74902;stroke:#000000;stroke-width:0.330999;stroke-opacity:1"
       d="M 29.529997,87.838147 117.06932,46.510781 103.27895,57.951875 Z"
       id="path1262" />
    <g
       fill="#000000"
       fill-opacity="1"
       id="g42"
       transform="matrix(0.640615,0,0,0.640615,25.278253,13.31543)">
      <g
         id="use40"
         transform="translate(116.8315,81.962997)">
        <path
           d="m 2.9375,-1.640625 v 0.859375 c 0,0.359375 -0.03125,0.46875 -0.765625,0.46875 H 1.96875 V 0 C 2.375,-0.03125 2.890625,-0.03125 3.3125,-0.03125 c 0.421875,0 0.9375,0 1.359375,0.03125 v -0.3125 h -0.21875 c -0.734375,0 -0.75,-0.109375 -0.75,-0.46875 V -1.640625 H 4.6875 v -0.3125 H 3.703125 v -4.53125 c 0,-0.203125 0,-0.265625 -0.171875,-0.265625 -0.078125,0 -0.109375,0 -0.1875,0.125 l -3.0625,4.671875 v 0.3125 z m 0.046875,-0.3125 H 0.5625 l 2.421875,-3.71875 z m 0,0"
           id="path72" />
      </g>
    </g>
    <circle
       style="fill:#000000;fill-opacity:1;stroke:none;stroke-width:0.210483;stroke-opacity:1"
       id="path1388-7"
       cx="117.06932"
       cy="46.51078"
       r="2.3947582" />
    <circle
       style="fill:#000000;fill-opacity:1;stroke:none;stroke-width:0.210483;stroke-opacity:1"
       id="path1388-7-3"
       cx="131.65787"
       cy="68.127403"
       r="2.3947582" />
    <circle
       style="fill:#000000;fill-opacity:1;stroke:none;stroke-width:0.210483;stroke-opacity:1"
       id="path1388-7-6"
       cx="103.27895"
       cy="57.951874"
       r="2.3947582" />
    <circle
       style="fill:#000000;fill-opacity:1;stroke:none;stroke-width:0.210483;stroke-opacity:1"
       id="path1388-7-7"
       cx="29.529997"
       cy="87.83815"
       r="2.3947582" />
  </g>
</svg>
