<?xml version="1.0" encoding="UTF-8" standalone="no"?>
<svg
   version="1.1"
   width="1500"
   height="955"
   id="svg857"
   sodipodi:docname="graphic_matroid.svg"
   inkscape:version="1.1.2 (0a00cf5339, 2022-02-04)"
   xmlns:inkscape="http://www.inkscape.org/namespaces/inkscape"
   xmlns:sodipodi="http://sodipodi.sourceforge.net/DTD/sodipodi-0.dtd"
   xmlns:xlink="http://www.w3.org/1999/xlink"
   xmlns="http://www.w3.org/2000/svg"
   xmlns:svg="http://www.w3.org/2000/svg">
  <sodipodi:namedview
     id="namedview859"
     pagecolor="#ffffff"
     bordercolor="#666666"
     borderopacity="1.0"
     inkscape:pageshadow="2"
     inkscape:pageopacity="0.0"
     inkscape:pagecheckerboard="0"
     showgrid="false"
     showguides="false"
     inkscape:zoom="1.2003863"
     inkscape:cx="343.63938"
     inkscape:cy="367.38174"
     inkscape:window-width="1888"
     inkscape:window-height="1008"
     inkscape:window-x="13"
     inkscape:window-y="53"
     inkscape:window-maximized="1"
     inkscape:current-layer="svg857" />
  <defs
     id="defs827">
    <clipPath
       id="TatlPHnBBdXi">
      <path
         fill="none"
         stroke="none"
         d=" M 0 0 L 1500 0 L 1500 955 L 0 955 L 0 0 Z"
         id="path824" />
    </clipPath>
    <g
       id="g1447">
      <symbol
         overflow="visible"
         id="symbol3518">
        <path
           style="stroke:none;"
           d=""
           id="path7328" />
      </symbol>
      <symbol
         overflow="visible"
         id="symbol2757">
        <path
           style="stroke:none;"
           d="M 1.859375 -2.296875 C 2.15625 -2.296875 2.890625 -2.328125 3.390625 -2.53125 C 4.09375 -2.828125 4.140625 -3.421875 4.140625 -3.5625 C 4.140625 -4 3.765625 -4.40625 3.078125 -4.40625 C 1.96875 -4.40625 0.453125 -3.4375 0.453125 -1.6875 C 0.453125 -0.671875 1.046875 0.109375 2.03125 0.109375 C 3.453125 0.109375 4.28125 -0.953125 4.28125 -1.0625 C 4.28125 -1.125 4.234375 -1.203125 4.171875 -1.203125 C 4.109375 -1.203125 4.09375 -1.171875 4.03125 -1.09375 C 3.25 -0.109375 2.15625 -0.109375 2.046875 -0.109375 C 1.265625 -0.109375 1.171875 -0.953125 1.171875 -1.265625 C 1.171875 -1.390625 1.1875 -1.6875 1.328125 -2.296875 Z M 1.390625 -2.515625 C 1.78125 -4.03125 2.8125 -4.1875 3.078125 -4.1875 C 3.53125 -4.1875 3.8125 -3.890625 3.8125 -3.5625 C 3.8125 -2.515625 2.21875 -2.515625 1.796875 -2.515625 Z M 1.390625 -2.515625 "
           id="path2827" />
      </symbol>
      <symbol
         overflow="visible"
         id="symbol6285">
        <path
           style="stroke:none;"
           d=""
           id="path4472" />
      </symbol>
      <symbol
         overflow="visible"
         id="symbol1589">
        <path
           style="stroke:none;"
           d="M 2.328125 -4.4375 C 2.328125 -4.625 2.328125 -4.625 2.125 -4.625 C 1.671875 -4.1875 1.046875 -4.1875 0.765625 -4.1875 L 0.765625 -3.9375 C 0.921875 -3.9375 1.390625 -3.9375 1.765625 -4.125 L 1.765625 -0.578125 C 1.765625 -0.34375 1.765625 -0.25 1.078125 -0.25 L 0.8125 -0.25 L 0.8125 0 C 0.9375 0 1.796875 -0.03125 2.046875 -0.03125 C 2.265625 -0.03125 3.140625 0 3.296875 0 L 3.296875 -0.25 L 3.03125 -0.25 C 2.328125 -0.25 2.328125 -0.34375 2.328125 -0.578125 Z M 2.328125 -4.4375 "
           id="path3522" />
      </symbol>
    </g>
    <g
       id="g1262">
      <symbol
         overflow="visible"
         id="symbol67">
        <path
           style="stroke:none;"
           d=""
           id="path9447" />
      </symbol>
      <symbol
         overflow="visible"
         id="symbol1634">
        <path
           style="stroke:none;"
           d="M 1.859375 -2.296875 C 2.15625 -2.296875 2.890625 -2.328125 3.390625 -2.53125 C 4.09375 -2.828125 4.140625 -3.421875 4.140625 -3.5625 C 4.140625 -4 3.765625 -4.40625 3.078125 -4.40625 C 1.96875 -4.40625 0.453125 -3.4375 0.453125 -1.6875 C 0.453125 -0.671875 1.046875 0.109375 2.03125 0.109375 C 3.453125 0.109375 4.28125 -0.953125 4.28125 -1.0625 C 4.28125 -1.125 4.234375 -1.203125 4.171875 -1.203125 C 4.109375 -1.203125 4.09375 -1.171875 4.03125 -1.09375 C 3.25 -0.109375 2.15625 -0.109375 2.046875 -0.109375 C 1.265625 -0.109375 1.171875 -0.953125 1.171875 -1.265625 C 1.171875 -1.390625 1.1875 -1.6875 1.328125 -2.296875 Z M 1.390625 -2.515625 C 1.78125 -4.03125 2.8125 -4.1875 3.078125 -4.1875 C 3.53125 -4.1875 3.8125 -3.890625 3.8125 -3.5625 C 3.8125 -2.515625 2.21875 -2.515625 1.796875 -2.515625 Z M 1.390625 -2.515625 "
           id="path9283" />
      </symbol>
      <symbol
         overflow="visible"
         id="symbol8636">
        <path
           style="stroke:none;"
           d=""
           id="path321" />
      </symbol>
      <symbol
         overflow="visible"
         id="symbol583">
        <path
           style="stroke:none;"
           d="M 3.515625 -1.265625 L 3.28125 -1.265625 C 3.265625 -1.109375 3.1875 -0.703125 3.09375 -0.640625 C 3.046875 -0.59375 2.515625 -0.59375 2.40625 -0.59375 L 1.125 -0.59375 C 1.859375 -1.234375 2.109375 -1.4375 2.515625 -1.765625 C 3.03125 -2.171875 3.515625 -2.609375 3.515625 -3.265625 C 3.515625 -4.109375 2.78125 -4.625 1.890625 -4.625 C 1.03125 -4.625 0.4375 -4.015625 0.4375 -3.375 C 0.4375 -3.03125 0.734375 -2.984375 0.8125 -2.984375 C 0.96875 -2.984375 1.171875 -3.109375 1.171875 -3.359375 C 1.171875 -3.484375 1.125 -3.734375 0.765625 -3.734375 C 0.984375 -4.21875 1.453125 -4.375 1.78125 -4.375 C 2.484375 -4.375 2.84375 -3.828125 2.84375 -3.265625 C 2.84375 -2.65625 2.40625 -2.1875 2.1875 -1.9375 L 0.515625 -0.265625 C 0.4375 -0.203125 0.4375 -0.1875 0.4375 0 L 3.3125 0 Z M 3.515625 -1.265625 "
           id="path8740" />
      </symbol>
    </g>
    <g
       id="g5323">
      <symbol
         overflow="visible"
         id="symbol7516">
        <path
           style="stroke:none;"
           d=""
           id="path6344" />
      </symbol>
      <symbol
         overflow="visible"
         id="symbol9752">
        <path
           style="stroke:none;"
           d="M 1.859375 -2.296875 C 2.15625 -2.296875 2.890625 -2.328125 3.390625 -2.53125 C 4.09375 -2.828125 4.140625 -3.421875 4.140625 -3.5625 C 4.140625 -4 3.765625 -4.40625 3.078125 -4.40625 C 1.96875 -4.40625 0.453125 -3.4375 0.453125 -1.6875 C 0.453125 -0.671875 1.046875 0.109375 2.03125 0.109375 C 3.453125 0.109375 4.28125 -0.953125 4.28125 -1.0625 C 4.28125 -1.125 4.234375 -1.203125 4.171875 -1.203125 C 4.109375 -1.203125 4.09375 -1.171875 4.03125 -1.09375 C 3.25 -0.109375 2.15625 -0.109375 2.046875 -0.109375 C 1.265625 -0.109375 1.171875 -0.953125 1.171875 -1.265625 C 1.171875 -1.390625 1.1875 -1.6875 1.328125 -2.296875 Z M 1.390625 -2.515625 C 1.78125 -4.03125 2.8125 -4.1875 3.078125 -4.1875 C 3.53125 -4.1875 3.8125 -3.890625 3.8125 -3.5625 C 3.8125 -2.515625 2.21875 -2.515625 1.796875 -2.515625 Z M 1.390625 -2.515625 "
           id="path4225" />
      </symbol>
      <symbol
         overflow="visible"
         id="symbol6260">
        <path
           style="stroke:none;"
           d=""
           id="path1784" />
      </symbol>
      <symbol
         overflow="visible"
         id="symbol1819">
        <path
           style="stroke:none;"
           d="M 1.90625 -2.328125 C 2.453125 -2.328125 2.84375 -1.953125 2.84375 -1.203125 C 2.84375 -0.34375 2.328125 -0.078125 1.9375 -0.078125 C 1.65625 -0.078125 1.03125 -0.15625 0.75 -0.578125 C 1.078125 -0.578125 1.15625 -0.8125 1.15625 -0.96875 C 1.15625 -1.1875 0.984375 -1.34375 0.765625 -1.34375 C 0.578125 -1.34375 0.375 -1.21875 0.375 -0.9375 C 0.375 -0.28125 1.09375 0.140625 1.9375 0.140625 C 2.90625 0.140625 3.578125 -0.515625 3.578125 -1.203125 C 3.578125 -1.75 3.140625 -2.296875 2.375 -2.453125 C 3.09375 -2.71875 3.359375 -3.234375 3.359375 -3.671875 C 3.359375 -4.21875 2.734375 -4.625 1.953125 -4.625 C 1.1875 -4.625 0.59375 -4.25 0.59375 -3.6875 C 0.59375 -3.453125 0.75 -3.328125 0.953125 -3.328125 C 1.171875 -3.328125 1.3125 -3.484375 1.3125 -3.671875 C 1.3125 -3.875 1.171875 -4.03125 0.953125 -4.046875 C 1.203125 -4.34375 1.671875 -4.421875 1.9375 -4.421875 C 2.25 -4.421875 2.6875 -4.265625 2.6875 -3.671875 C 2.6875 -3.375 2.59375 -3.046875 2.40625 -2.84375 C 2.1875 -2.578125 1.984375 -2.5625 1.640625 -2.53125 C 1.46875 -2.515625 1.453125 -2.515625 1.421875 -2.515625 C 1.40625 -2.515625 1.34375 -2.5 1.34375 -2.421875 C 1.34375 -2.328125 1.40625 -2.328125 1.53125 -2.328125 Z M 1.90625 -2.328125 "
           id="path2249" />
      </symbol>
    </g>
    <g
       id="g1580">
      <symbol
         overflow="visible"
         id="symbol7822">
        <path
           style="stroke:none;"
           d=""
           id="path2222" />
      </symbol>
      <symbol
         overflow="visible"
         id="symbol1980">
        <path
           style="stroke:none;"
           d="M 1.859375 -2.296875 C 2.15625 -2.296875 2.890625 -2.328125 3.390625 -2.53125 C 4.09375 -2.828125 4.140625 -3.421875 4.140625 -3.5625 C 4.140625 -4 3.765625 -4.40625 3.078125 -4.40625 C 1.96875 -4.40625 0.453125 -3.4375 0.453125 -1.6875 C 0.453125 -0.671875 1.046875 0.109375 2.03125 0.109375 C 3.453125 0.109375 4.28125 -0.953125 4.28125 -1.0625 C 4.28125 -1.125 4.234375 -1.203125 4.171875 -1.203125 C 4.109375 -1.203125 4.09375 -1.171875 4.03125 -1.09375 C 3.25 -0.109375 2.15625 -0.109375 2.046875 -0.109375 C 1.265625 -0.109375 1.171875 -0.953125 1.171875 -1.265625 C 1.171875 -1.390625 1.1875 -1.6875 1.328125 -2.296875 Z M 1.390625 -2.515625 C 1.78125 -4.03125 2.8125 -4.1875 3.078125 -4.1875 C 3.53125 -4.1875 3.8125 -3.890625 3.8125 -3.5625 C 3.8125 -2.515625 2.21875 -2.515625 1.796875 -2.515625 Z M 1.390625 -2.515625 "
           id="path9351" />
      </symbol>
      <symbol
         overflow="visible"
         id="symbol8095">
        <path
           style="stroke:none;"
           d=""
           id="path1404" />
      </symbol>
      <symbol
         overflow="visible"
         id="symbol4958">
        <path
           style="stroke:none;"
           d="M 3.6875 -1.140625 L 3.6875 -1.390625 L 2.90625 -1.390625 L 2.90625 -4.5 C 2.90625 -4.640625 2.90625 -4.703125 2.765625 -4.703125 C 2.671875 -4.703125 2.640625 -4.703125 2.578125 -4.59375 L 0.265625 -1.390625 L 0.265625 -1.140625 L 2.328125 -1.140625 L 2.328125 -0.578125 C 2.328125 -0.328125 2.328125 -0.25 1.75 -0.25 L 1.5625 -0.25 L 1.5625 0 C 1.921875 -0.015625 2.359375 -0.03125 2.609375 -0.03125 C 2.875 -0.03125 3.3125 -0.015625 3.671875 0 L 3.671875 -0.25 L 3.484375 -0.25 C 2.90625 -0.25 2.90625 -0.328125 2.90625 -0.578125 L 2.90625 -1.140625 Z M 2.375 -3.9375 L 2.375 -1.390625 L 0.53125 -1.390625 Z M 2.375 -3.9375 "
           id="path3202" />
      </symbol>
    </g>
    <g
       id="g8123">
      <symbol
         overflow="visible"
         id="symbol1907">
        <path
           style="stroke:none;"
           d=""
           id="path3052" />
      </symbol>
      <symbol
         overflow="visible"
         id="symbol5916">
        <path
           style="stroke:none;"
           d="M 1.859375 -2.296875 C 2.15625 -2.296875 2.890625 -2.328125 3.390625 -2.53125 C 4.09375 -2.828125 4.140625 -3.421875 4.140625 -3.5625 C 4.140625 -4 3.765625 -4.40625 3.078125 -4.40625 C 1.96875 -4.40625 0.453125 -3.4375 0.453125 -1.6875 C 0.453125 -0.671875 1.046875 0.109375 2.03125 0.109375 C 3.453125 0.109375 4.28125 -0.953125 4.28125 -1.0625 C 4.28125 -1.125 4.234375 -1.203125 4.171875 -1.203125 C 4.109375 -1.203125 4.09375 -1.171875 4.03125 -1.09375 C 3.25 -0.109375 2.15625 -0.109375 2.046875 -0.109375 C 1.265625 -0.109375 1.171875 -0.953125 1.171875 -1.265625 C 1.171875 -1.390625 1.1875 -1.6875 1.328125 -2.296875 Z M 1.390625 -2.515625 C 1.78125 -4.03125 2.8125 -4.1875 3.078125 -4.1875 C 3.53125 -4.1875 3.8125 -3.890625 3.8125 -3.5625 C 3.8125 -2.515625 2.21875 -2.515625 1.796875 -2.515625 Z M 1.390625 -2.515625 "
           id="path5745" />
      </symbol>
      <symbol
         overflow="visible"
         id="symbol1728">
        <path
           style="stroke:none;"
           d=""
           id="path1239" />
      </symbol>
      <symbol
         overflow="visible"
         id="symbol3220">
        <path
           style="stroke:none;"
           d="M 1.078125 -3.890625 C 1.4375 -3.796875 1.640625 -3.796875 1.75 -3.796875 C 2.671875 -3.796875 3.21875 -4.421875 3.21875 -4.53125 C 3.21875 -4.609375 3.171875 -4.625 3.140625 -4.625 C 3.125 -4.625 3.109375 -4.625 3.078125 -4.609375 C 2.90625 -4.546875 2.546875 -4.40625 2.03125 -4.40625 C 1.828125 -4.40625 1.46875 -4.421875 1.015625 -4.59375 C 0.9375 -4.625 0.921875 -4.625 0.921875 -4.625 C 0.828125 -4.625 0.828125 -4.546875 0.828125 -4.4375 L 0.828125 -2.390625 C 0.828125 -2.265625 0.828125 -2.1875 0.9375 -2.1875 C 1 -2.1875 1.015625 -2.1875 1.078125 -2.28125 C 1.375 -2.65625 1.8125 -2.71875 2.046875 -2.71875 C 2.46875 -2.71875 2.65625 -2.390625 2.6875 -2.328125 C 2.8125 -2.09375 2.859375 -1.828125 2.859375 -1.421875 C 2.859375 -1.21875 2.859375 -0.8125 2.640625 -0.5 C 2.46875 -0.25 2.171875 -0.078125 1.828125 -0.078125 C 1.375 -0.078125 0.90625 -0.328125 0.734375 -0.796875 C 1 -0.78125 1.140625 -0.953125 1.140625 -1.140625 C 1.140625 -1.4375 0.875 -1.484375 0.78125 -1.484375 C 0.78125 -1.484375 0.4375 -1.484375 0.4375 -1.109375 C 0.4375 -0.484375 1.015625 0.140625 1.84375 0.140625 C 2.734375 0.140625 3.515625 -0.515625 3.515625 -1.40625 C 3.515625 -2.1875 2.921875 -2.90625 2.0625 -2.90625 C 1.75 -2.90625 1.390625 -2.84375 1.078125 -2.578125 Z M 1.078125 -3.890625 "
           id="path2393" />
      </symbol>
    </g>
  </defs>
  <path
     fill="none"
     stroke="#cc0000"
     paint-order="fill stroke markers"
     d="M 296,551.40381 C 342.41016,524.60889 371,475.08984 371,421.5 371,367.91016 342.41016,318.39111 296,291.59619"
     stroke-opacity="0.698039"
     stroke-linecap="round"
     stroke-linejoin="round"
     stroke-miterlimit="10"
     stroke-width="2.5"
     id="path831"
     style="stroke:#d40000;stroke-opacity:0.69803923" />
  <path
     fill="none"
     stroke="#cc0000"
     paint-order="fill stroke markers"
     d="m 296,291.59619 c -46.41016,26.79492 -75,76.31397 -75,129.90381 0,53.58984 28.58984,103.10889 75,129.90381"
     stroke-opacity="0.698039"
     stroke-linecap="round"
     stroke-linejoin="round"
     stroke-miterlimit="10"
     stroke-width="2.5"
     id="path833"
     style="stroke:#d40000;stroke-opacity:0.69803923" />
  <path
     fill="none"
     stroke="#cc0000"
     paint-order="fill stroke markers"
     d="m 677.35145,421.50002 c 0,15.56102 -12.6147,28.17571 -28.17572,28.17571 -15.56102,0 -28.17571,-12.61469 -28.17571,-28.17571 0,-15.56102 12.61469,-28.17572 28.17571,-28.17572 15.56102,0 28.17572,12.6147 28.17572,28.17572 z"
     stroke-opacity="0.698039"
     stroke-linecap="round"
     stroke-linejoin="round"
     stroke-miterlimit="10"
     stroke-width="2.5"
     id="path835"
     style="stroke:#d40000;stroke-opacity:0.69803923" />
  <path
     fill="none"
     stroke="#cc0000"
     paint-order="fill stroke markers"
     d="M 296,291.59619 621,421.5"
     stroke-opacity="0.698039"
     stroke-linecap="round"
     stroke-linejoin="round"
     stroke-miterlimit="10"
     stroke-width="2.5"
     id="path837"
     style="fill:#000000;fill-opacity:1;stroke:#d40000;stroke-opacity:0.69803923" />
  <path
     fill="none"
     stroke="#cc0000"
     paint-order="fill stroke markers"
     d="M 296,551.40381 621,421.5"
     stroke-opacity="0.698039"
     stroke-linecap="round"
     stroke-linejoin="round"
     stroke-miterlimit="10"
     stroke-width="2.5"
     id="path839"
     style="stroke:#d40000;stroke-opacity:0.69803923" />
  <path
     fill="#000000"
     stroke="none"
     paint-order="stroke fill markers"
     d="m 301,291.59619 c 0,2.76142 -2.23858,5 -5,5 -2.76142,0 -5,-2.23858 -5,-5 0,-2.76142 2.23858,-5 5,-5 2.76142,0 5,2.23858 5,5 z"
     fill-opacity="1"
     id="path841" />
  <path
     fill="none"
     stroke="#000000"
     paint-order="fill stroke markers"
     d="m 301,291.59619 c 0,2.76142 -2.23858,5 -5,5 -2.76142,0 -5,-2.23858 -5,-5 0,-2.76142 2.23858,-5 5,-5 2.76142,0 5,2.23858 5,5 z"
     stroke-opacity="1"
     stroke-linecap="round"
     stroke-linejoin="round"
     stroke-miterlimit="10"
     id="path843" />
  <path
     fill="#000000"
     stroke="none"
     paint-order="stroke fill markers"
     d="m 301,551.40381 c 0,2.76142 -2.23858,5 -5,5 -2.76142,0 -5,-2.23858 -5,-5 0,-2.76142 2.23858,-5 5,-5 2.76142,0 5,2.23858 5,5 z"
     fill-opacity="1"
     id="path845" />
  <path
     fill="none"
     stroke="#000000"
     paint-order="fill stroke markers"
     d="m 301,551.40381 c 0,2.76142 -2.23858,5 -5,5 -2.76142,0 -5,-2.23858 -5,-5 0,-2.76142 2.23858,-5 5,-5 2.76142,0 5,2.23858 5,5 z"
     stroke-opacity="1"
     stroke-linecap="round"
     stroke-linejoin="round"
     stroke-miterlimit="10"
     id="path847" />
  <path
     fill="#000000"
     stroke="none"
     paint-order="stroke fill markers"
     d="m 626,421.5 c 0,2.76142 -2.23858,5 -5,5 -2.76142,0 -5,-2.23858 -5,-5 0,-2.76142 2.23858,-5 5,-5 2.76142,0 5,2.23858 5,5 z"
     fill-opacity="1"
     id="path849" />
  <path
     fill="none"
     stroke="#000000"
     paint-order="fill stroke markers"
     d="m 626,421.5 c 0,2.76142 -2.23858,5 -5,5 -2.76142,0 -5,-2.23858 -5,-5 0,-2.76142 2.23858,-5 5,-5 2.76142,0 5,2.23858 5,5 z"
     stroke-opacity="1"
     stroke-linecap="round"
     stroke-linejoin="round"
     stroke-miterlimit="10"
     id="path851" />
  <g
     inkscape:label=""
     transform="matrix(2.5709799,0,0,2.5575173,-45.460102,220.19386)"
     id="g2152"
     style="stroke-width:0.389979">
    <g
       id="g1310"
       style="stroke-width:0.389979">
      <g
         style="fill:#000000;fill-opacity:1;stroke-width:0.389979"
         id="g7555">
        <use
           xlink:href="#symbol2757"
           x="91.925003"
           y="81.962997"
           id="use5619"
           width="100%"
           height="100%"
           style="stroke-width:0.389979" />
      </g>
      <g
         style="fill:#000000;fill-opacity:1;stroke-width:0.389979"
         id="g2954">
        <use
           xlink:href="#symbol1589"
           x="96.564003"
           y="83.457001"
           id="use1705"
           width="100%"
           height="100%"
           style="stroke-width:0.389979" />
      </g>
    </g>
  </g>
  <g
     inkscape:label=""
     transform="matrix(2.497955,0,0,2.5575173,254.90167,282.68605)"
     id="g2263"
     style="stroke-width:0.395638">
    <g
       id="g2187"
       style="stroke-width:0.395638">
      <g
         style="fill:#000000;fill-opacity:1;stroke-width:0.395638"
         id="g1806">
        <use
           xlink:href="#symbol1634"
           x="91.925003"
           y="81.962997"
           id="use8328"
           width="100%"
           height="100%"
           style="stroke-width:0.395638" />
      </g>
      <g
         style="fill:#000000;fill-opacity:1;stroke-width:0.395638"
         id="g958">
        <use
           xlink:href="#symbol583"
           x="96.564003"
           y="83.457001"
           id="use4368"
           width="100%"
           height="100%"
           style="stroke-width:0.395638" />
      </g>
    </g>
  </g>
  <g
     inkscape:label=""
     transform="matrix(2.4778465,0,0,2.4979811,453.50551,213.3117)"
     id="g2404"
     style="stroke-width:0.401945">
    <g
       id="g9761"
       style="stroke-width:0.401945">
      <g
         style="fill:#000000;fill-opacity:1;stroke-width:0.401945"
         id="g7440">
        <use
           xlink:href="#symbol9752"
           x="91.925003"
           y="81.962997"
           id="use2606"
           width="100%"
           height="100%"
           style="stroke-width:0.401945" />
      </g>
      <g
         style="fill:#000000;fill-opacity:1;stroke-width:0.401945"
         id="g2378">
        <use
           xlink:href="#symbol1819"
           x="96.564003"
           y="83.457001"
           id="use3530"
           width="100%"
           height="100%"
           style="stroke-width:0.401945" />
      </g>
    </g>
  </g>
  <g
     inkscape:label=""
     transform="matrix(2.4434249,0,0,2.5575173,154.41284,216.92465)"
     id="g2575"
     style="stroke-width:0.400028">
    <g
       id="g9471"
       style="stroke-width:0.400028">
      <g
         style="fill:#000000;fill-opacity:1;stroke-width:0.400028"
         id="g5327">
        <use
           xlink:href="#symbol1980"
           x="91.925003"
           y="81.962997"
           id="use8440"
           width="100%"
           height="100%"
           style="stroke-width:0.400028" />
      </g>
      <g
         style="fill:#000000;fill-opacity:1;stroke-width:0.400028"
         id="g8907">
        <use
           xlink:href="#symbol4958"
           x="96.564003"
           y="83.457001"
           id="use3715"
           width="100%"
           height="100%"
           style="stroke-width:0.400028" />
      </g>
    </g>
  </g>
  <g
     inkscape:label=""
     transform="matrix(2.4979621,0,0,2.4979621,241.53395,129.71546)"
     id="g2776"
     style="stroke-width:0.400326">
    <g
       id="g9528"
       style="stroke-width:0.400326">
      <g
         style="fill:#000000;fill-opacity:1;stroke-width:0.400326"
         id="g1881">
        <use
           xlink:href="#symbol5916"
           x="91.925003"
           y="81.962997"
           id="use7554"
           width="100%"
           height="100%"
           style="stroke-width:0.400326" />
      </g>
      <g
         style="fill:#000000;fill-opacity:1;stroke-width:0.400326"
         id="g6282">
        <use
           xlink:href="#symbol3220"
           x="96.564003"
           y="83.457001"
           id="use7166"
           width="100%"
           height="100%"
           style="stroke-width:0.400326" />
      </g>
    </g>
  </g>
</svg>
