<?xml version="1.0" encoding="UTF-8" standalone="no"?>
<svg
   version="1.1"
   width="1500"
   height="955"
   id="svg760"
   sodipodi:docname="pg(2,2)_pg(2,3).svg"
   inkscape:version="1.2.1 (9c6d41e410, 2022-07-14)"
   xmlns:inkscape="http://www.inkscape.org/namespaces/inkscape"
   xmlns:sodipodi="http://sodipodi.sourceforge.net/DTD/sodipodi-0.dtd"
   xmlns="http://www.w3.org/2000/svg"
   xmlns:svg="http://www.w3.org/2000/svg">
  <sodipodi:namedview
     id="namedview762"
     pagecolor="#ffffff"
     bordercolor="#000000"
     borderopacity="0.25"
     inkscape:showpageshadow="2"
     inkscape:pageopacity="0.0"
     inkscape:pagecheckerboard="0"
     inkscape:deskcolor="#d1d1d1"
     showgrid="false"
     inkscape:zoom="3.1099998"
     inkscape:cx="831.67208"
     inkscape:cy="466.23797"
     inkscape:window-width="1888"
     inkscape:window-height="1008"
     inkscape:window-x="13"
     inkscape:window-y="53"
     inkscape:window-maximized="1"
     inkscape:current-layer="svg760" />
  <defs
     id="defs744">
    <clipPath
       clipPathUnits="userSpaceOnUse"
       id="clipPath949">
      <g
         id="g955">
        <g
           id="g953">
          <path
             fill="none"
             stroke="none"
             d="M 0,0 H 1500 V 955 H 0 Z"
             id="path951" />
        </g>
      </g>
    </clipPath>
    <clipPath
       clipPathUnits="userSpaceOnUse"
       id="clipPath957">
      <g
         id="g963">
        <g
           id="g961">
          <path
             fill="none"
             stroke="none"
             d="M 0,0 H 1500 V 955 H 0 Z"
             id="path959" />
        </g>
      </g>
    </clipPath>
    <clipPath
       clipPathUnits="userSpaceOnUse"
       id="clipPath965">
      <g
         id="g971">
        <g
           id="g969">
          <path
             fill="none"
             stroke="none"
             d="M 0,0 H 1500 V 955 H 0 Z"
             id="path967" />
        </g>
      </g>
    </clipPath>
    <clipPath
       clipPathUnits="userSpaceOnUse"
       id="clipPath973">
      <g
         id="g979">
        <g
           id="g977">
          <path
             fill="none"
             stroke="none"
             d="M 0,0 H 1500 V 955 H 0 Z"
             id="path975" />
        </g>
      </g>
    </clipPath>
    <clipPath
       clipPathUnits="userSpaceOnUse"
       id="clipPath981">
      <g
         id="g987">
        <g
           id="g985">
          <path
             fill="none"
             stroke="none"
             d="M 0,0 H 1500 V 955 H 0 Z"
             id="path983" />
        </g>
      </g>
    </clipPath>
  </defs>
  <g
     id="g1653">
    <circle
       style="fill:none;stroke:#d40000;stroke-width:1;stroke-dasharray:none;stroke-opacity:0.74902"
       id="path1141"
       cx="370.08722"
       cy="245.12012"
       r="68.062416" />
    <path
       style="fill:none;stroke:#d40000;stroke-width:1;stroke-dasharray:none;stroke-opacity:0.74902"
       d="M 251.56868,313.5468 H 488.60572"
       id="path1197" />
    <path
       style="fill:none;stroke:#d40000;stroke-width:1;stroke-dasharray:none;stroke-opacity:0.74902"
       d="M 370.0872,108.26671 251.56868,313.5468"
       id="path1199" />
    <path
       style="fill:none;stroke:#d40000;stroke-width:1;stroke-dasharray:none;stroke-opacity:0.74902"
       d="M 370.0872,108.26671 488.60572,313.5468"
       id="path1201" />
    <path
       style="fill:none;stroke:#d40000;stroke-width:1;stroke-dasharray:none;stroke-opacity:0.74902"
       d="M 251.56868,313.5468 429.34646,210.90676"
       id="path1203" />
    <path
       style="fill:none;stroke:#d40000;stroke-width:1;stroke-dasharray:none;stroke-opacity:0.74902"
       d="M 488.60572,313.5468 310.82794,210.90676"
       id="path1205" />
    <path
       style="fill:none;stroke:#d40000;stroke-width:1;stroke-dasharray:none;stroke-opacity:0.74902"
       d="m 370.0872,108.26671 1e-5,204.91581"
       id="path1207" />
    <circle
       style="fill:#000000;fill-opacity:1;stroke:none;stroke-width:0.322979;stroke-dasharray:none;stroke-opacity:0.74902"
       id="path1211"
       cx="310.82794"
       cy="210.90677"
       r="4.8385105" />
    <circle
       style="fill:#000000;fill-opacity:1;stroke:none;stroke-width:0.322979;stroke-dasharray:none;stroke-opacity:0.74902"
       id="path1211-3"
       cx="429.3465"
       cy="210.90677"
       r="4.8385105" />
    <circle
       style="fill:#000000;fill-opacity:1;stroke:none;stroke-width:0.322979;stroke-dasharray:none;stroke-opacity:0.74902"
       id="path1211-6"
       cx="370.08722"
       cy="313.54681"
       r="4.8385105" />
    <circle
       style="fill:#000000;fill-opacity:1;stroke:none;stroke-width:0.322979;stroke-dasharray:none;stroke-opacity:0.74902"
       id="path1211-7"
       cx="251.56868"
       cy="313.54681"
       r="4.8385105" />
    <circle
       style="fill:#000000;fill-opacity:1;stroke:none;stroke-width:0.322979;stroke-dasharray:none;stroke-opacity:0.74902"
       id="path1211-5"
       cx="488.60571"
       cy="313.54681"
       r="4.8385105" />
    <circle
       style="fill:#000000;fill-opacity:1;stroke:none;stroke-width:0.322979;stroke-dasharray:none;stroke-opacity:0.74902"
       id="path1211-35"
       cx="370.08722"
       cy="108.26672"
       r="4.8385105" />
    <circle
       style="fill:#000000;fill-opacity:1;stroke:none;stroke-width:0.322979;stroke-dasharray:none;stroke-opacity:0.74902"
       id="path1211-62"
       cx="370.08722"
       cy="245.12012"
       r="4.8385105" />
  </g>
  <rect
     style="fill:none;fill-opacity:0.74902;stroke:#d40000;stroke-width:1.25102;stroke-opacity:0.74901962"
     id="rect1018"
     width="174.87666"
     height="174.87666"
     x="639.17755"
     y="254.92632" />
  <path
     style="fill:none;fill-opacity:0.74902;stroke:#d40000;stroke-width:1.25102;stroke-opacity:0.74902"
     d="M 726.61588,254.92632 V 429.80298"
     id="path1438" />
  <path
     style="fill:none;fill-opacity:0.74902;stroke:#d40000;stroke-width:1.25102;stroke-opacity:0.74902"
     d="M 639.17755,342.36465 H 814.0542"
     id="path1440" />
  <path
     style="fill:none;fill-opacity:0.74902;stroke:#d40000;stroke-width:1.25102;stroke-opacity:0.74902"
     d="m 814.0542,254.92632 c 0,0 -261.12677,-148.18591 -218.00171,-30.37379 43.12506,117.81212 43.12506,117.81212 43.12506,117.81212"
     id="path1444" />
  <path
     style="fill:none;fill-opacity:0.74902;stroke:#d40000;stroke-width:1.25102;stroke-opacity:0.74902"
     d="m 726.61588,254.92632 c 0,0 -234.39636,-284.708557 -160.91735,-54.91595 73.47902,229.79261 73.47902,229.79261 73.47902,229.79261"
     id="path1448" />
  <path
     style="fill:none;fill-opacity:0.74902;stroke:#d40000;stroke-width:1.25102;stroke-opacity:0.74902"
     d="M 639.17755,254.92632 814.0542,429.80298"
     id="path1450" />
  <path
     style="fill:none;fill-opacity:0.74902;stroke:#d40000;stroke-width:1.25102;stroke-opacity:0.74902"
     d="M 814.0542,254.92632 639.17755,429.80298"
     id="path1452" />
  <path
     style="fill:none;fill-opacity:0.74902;stroke:#d40000;stroke-width:1.25102;stroke-opacity:0.74902"
     d="m 726.61588,254.92632 -87.43833,87.43833 87.43833,87.43833"
     id="path1454" />
  <path
     style="fill:none;fill-opacity:0.74902;stroke:#d40000;stroke-width:1.25102;stroke-opacity:0.74902"
     d="M 726.61588,429.80298 814.0542,342.36465"
     id="path1456" />
  <path
     style="fill:none;fill-opacity:0.74902;stroke:#d40000;stroke-width:1.25102;stroke-opacity:0.74902"
     d="m 726.61588,254.92632 87.43832,87.43833"
     id="path1458" />
  <path
     style="fill:none;fill-opacity:0.74902;stroke:#d40000;stroke-width:1.25102;stroke-opacity:0.74902"
     d="m 726.61588,254.92632 c 0,0 246.70123,-253.2387496 167.06977,-39.18104 -79.63145,214.0577 -79.63145,214.0577 -79.63145,214.0577"
     id="path1462" />
  <path
     style="fill:none;fill-opacity:0.74902;stroke:#d40000;stroke-width:1.25102;stroke-opacity:0.74902"
     d="m 639.17755,254.92632 c 0,0 285.85642,-211.568587 230.36653,-62.06513 C 814.0542,342.36465 814.0542,342.36465 814.0542,342.36465"
     id="path1464" />
  <path
     style="fill:none;fill-opacity:0.74902;stroke:#d40000;stroke-width:1.25102;stroke-opacity:0.74902"
     d="m 639.17755,342.36465 c 0.45706,0.68932 -154.78816,214.45022 -22.27611,144.96729 l 109.71444,-57.52896 c 0,0 260.18834,150.04291 150.70663,-0.46273 l -63.26831,-86.9756"
     id="path1488"
     sodipodi:nodetypes="cscsc" />
  <circle
     style="fill:#000000;fill-opacity:1;stroke:none;stroke-width:0.322979;stroke-dasharray:none;stroke-opacity:0.74902"
     id="path1211-35-7"
     cx="639.17755"
     cy="254.92632"
     r="4.8385105" />
  <circle
     style="fill:#000000;fill-opacity:1;stroke:none;stroke-width:0.322979;stroke-dasharray:none;stroke-opacity:0.74902"
     id="path1211-35-5"
     cx="726.61584"
     cy="254.92632"
     r="4.8385105" />
  <circle
     style="fill:#000000;fill-opacity:1;stroke:none;stroke-width:0.322979;stroke-dasharray:none;stroke-opacity:0.74902"
     id="path1211-35-56"
     cx="639.17755"
     cy="342.36465"
     r="4.8385105" />
  <circle
     style="fill:#000000;fill-opacity:1;stroke:none;stroke-width:0.322979;stroke-dasharray:none;stroke-opacity:0.74902"
     id="path1211-35-2"
     cx="726.61591"
     cy="342.36465"
     r="4.8385105" />
  <path
     style="fill:none;fill-opacity:0.74902;stroke:#d40000;stroke-width:1.25102;stroke-opacity:0.74902"
     d="m 639.17755,429.80298 c 0,0 74.84127,244.67883 145.4216,72.04478 l 29.45505,-72.04478"
     id="path1796"
     sodipodi:nodetypes="csc" />
  <path
     style="fill:none;fill-opacity:0.74902;stroke:#d40000;stroke-width:1.25102;stroke-opacity:0.74902"
     d="m 726.61588,429.80298 -0.01,134.32934"
     id="path1798" />
  <path
     style="fill:none;fill-opacity:0.74902;stroke:#d40000;stroke-width:1.25102;stroke-opacity:0.74902"
     d="M 639.17755,429.80298 565.95904,496.6721"
     id="path1813" />
  <path
     style="fill:none;fill-opacity:0.74902;stroke:#d40000;stroke-width:1.25102;stroke-opacity:0.74902"
     d="m 814.0542,429.80299 c 0,0 244.6788,-74.84127 72.04482,-145.42157 l -72.04482,-29.4551"
     id="path1796-3"
     sodipodi:nodetypes="csc" />
  <path
     style="fill:none;fill-opacity:0.74902;stroke:#d40000;stroke-width:1.25102;stroke-opacity:0.74902"
     d="m 814.0542,342.36465 134.32934,-0.36796"
     id="path1837" />
  <circle
     style="fill:#000000;fill-opacity:1;stroke:none;stroke-width:0.322979;stroke-dasharray:none;stroke-opacity:0.74902"
     id="path1211-35-5-0"
     cx="813.8175"
     cy="254.34734"
     r="4.8385105" />
  <circle
     style="fill:#000000;fill-opacity:1;stroke:none;stroke-width:0.322979;stroke-dasharray:none;stroke-opacity:0.74902"
     id="path1211-35-5-6"
     cx="814.0542"
     cy="342.36465"
     r="4.8385105" />
  <circle
     style="fill:#000000;fill-opacity:1;stroke:none;stroke-width:0.322979;stroke-dasharray:none;stroke-opacity:0.74902"
     id="path1211-35-5-61"
     cx="726.61584"
     cy="429.80298"
     r="4.8385105" />
  <circle
     style="fill:#000000;fill-opacity:1;stroke:none;stroke-width:0.322979;stroke-dasharray:none;stroke-opacity:0.74902"
     id="path1211-35-5-8"
     cx="639.17755"
     cy="429.80298"
     r="4.8385105" />
  <path
     style="fill:none;fill-opacity:0.74902;stroke:#d40000;stroke-width:1.25102;stroke-opacity:0.74902"
     d="m 565.95904,496.6721 c 34.81209,50.15677 92.66806,66.28303 160.64684,67.46022 57.38136,1.58333 121.94221,-15.2064 174.79635,-72.59207 27.18851,-33.17914 40.77169,-86.03055 46.98131,-149.54356"
     id="path1935"
     sodipodi:nodetypes="cccc" />
  <circle
     style="fill:#000000;fill-opacity:1;stroke:none;stroke-width:0.322979;stroke-dasharray:none;stroke-opacity:0.74902"
     id="path1211-35-5-7"
     cx="565.95905"
     cy="496.67209"
     r="4.8385105" />
  <circle
     style="fill:#000000;fill-opacity:1;stroke:none;stroke-width:0.322979;stroke-dasharray:none;stroke-opacity:0.74902"
     id="path1211-35-5-9"
     cx="726.6059"
     cy="564.13232"
     r="4.8385105" />
  <circle
     style="fill:#000000;fill-opacity:1;stroke:none;stroke-width:0.322979;stroke-dasharray:none;stroke-opacity:0.74902"
     id="path1211-35-5-23"
     cx="948.38354"
     cy="341.9967"
     r="4.8385105" />
  <g
     id="g1190"
     transform="translate(-92.636959,282.08299)">
    <g
       fill="#000000"
       fill-opacity="1"
       id="g31"
       transform="matrix(2.919095,0,0,2.919095,138.81887,-157.01619)">
      <g
         id="use29"
         transform="translate(91.925003,81.962997)">
        <path
           d="M 3.015625,-3.15625 H 4.71875 c 1.40625,0 2.796875,-1.03125 2.796875,-2.140625 0,-0.78125 -0.65625,-1.515625 -1.96875,-1.515625 h -3.21875 c -0.1875,0 -0.296875,0 -0.296875,0.1875 0,0.125 0.078125,0.125 0.28125,0.125 0.125,0 0.3125,0.015625 0.421875,0.015625 0.171875,0.03125 0.21875,0.046875 0.21875,0.171875 0,0.03125 0,0.0625 -0.03125,0.1875 l -1.34375,5.34375 c -0.09375,0.390625 -0.109375,0.46875 -0.90625,0.46875 -0.15625,0 -0.265625,0 -0.265625,0.1875 C 0.40625,0 0.515625,0 0.546875,0 0.828125,0 1.53125,-0.03125 1.8125,-0.03125 c 0.21875,0 0.4375,0.015625 0.640625,0.015625 0.21875,0 0.4375,0.015625 0.640625,0.015625 0.078125,0 0.203125,0 0.203125,-0.203125 0,-0.109375 -0.09375,-0.109375 -0.28125,-0.109375 -0.359375,0 -0.640625,0 -0.640625,-0.171875 0,-0.0625 0.015625,-0.109375 0.03125,-0.171875 z M 3.734375,-6.125 C 3.828125,-6.46875 3.84375,-6.5 4.28125,-6.5 h 0.953125 c 0.828125,0 1.359375,0.265625 1.359375,0.953125 0,0.390625 -0.203125,1.25 -0.59375,1.609375 -0.5,0.453125 -1.09375,0.53125 -1.53125,0.53125 H 3.0625 Z m 0,0"
           id="path81" />
      </g>
    </g>
    <g
       fill="#000000"
       fill-opacity="1"
       id="g35"
       transform="matrix(2.919095,0,0,2.919095,138.81887,-157.01619)">
      <g
         id="use33"
         transform="translate(99.705788,81.962997)">
        <path
           d="m 7.578125,-6.921875 c 0,-0.03125 -0.015625,-0.109375 -0.109375,-0.109375 -0.03125,0 -0.046875,0.015625 -0.15625,0.125 L 6.625,-6.140625 C 6.53125,-6.28125 6.078125,-7.03125 4.96875,-7.03125 2.734375,-7.03125 0.5,-4.828125 0.5,-2.515625 c 0,1.59375 1.109375,2.734375 2.71875,2.734375 0.4375,0 0.890625,-0.09375 1.25,-0.234375 0.5,-0.203125 0.6875,-0.40625 0.859375,-0.609375 0.09375,0.25 0.359375,0.609375 0.453125,0.609375 0.046875,0 0.078125,-0.03125 0.078125,-0.03125 C 5.875,-0.0625 5.96875,-0.453125 6.015625,-0.65625 l 0.1875,-0.765625 C 6.25,-1.59375 6.296875,-1.765625 6.34375,-1.9375 c 0.109375,-0.4375 0.109375,-0.46875 0.6875,-0.46875 0.046875,0 0.15625,-0.015625 0.15625,-0.203125 0,-0.078125 -0.046875,-0.109375 -0.125,-0.109375 -0.234375,0 -0.828125,0.03125 -1.046875,0.03125 -0.3125,0 -1.09375,-0.03125 -1.40625,-0.03125 -0.078125,0 -0.203125,0 -0.203125,0.203125 0,0.109375 0.078125,0.109375 0.296875,0.109375 0.015625,0 0.296875,0 0.53125,0.015625 0.265625,0.03125 0.3125,0.0625 0.3125,0.1875 0,0.09375 -0.109375,0.53125 -0.21875,0.90625 -0.28125,1.09375 -1.5625,1.203125 -1.921875,1.203125 -0.953125,0 -2,-0.5625 -2,-2.09375 0,-0.3125 0.09375,-1.953125 1.140625,-3.25 0.546875,-0.671875 1.515625,-1.28125 2.5,-1.28125 1.015625,0 1.609375,0.765625 1.609375,1.921875 0,0.40625 -0.03125,0.40625 -0.03125,0.515625 0,0.09375 0.109375,0.09375 0.140625,0.09375 0.125,0 0.125,-0.015625 0.1875,-0.203125 z m 0,0"
           id="path85" />
      </g>
    </g>
    <g
       fill="#000000"
       fill-opacity="1"
       id="g41"
       transform="matrix(2.919095,0,0,2.919095,138.81887,-157.01619)">
      <g
         id="use37"
         transform="translate(107.538,81.962997)">
        <path
           d="m 3.296875,2.390625 c 0,-0.03125 0,-0.046875 -0.171875,-0.21875 C 1.890625,0.921875 1.5625,-0.96875 1.5625,-2.5 c 0,-1.734375 0.375,-3.46875 1.609375,-4.703125 0.125,-0.125 0.125,-0.140625 0.125,-0.171875 0,-0.078125 -0.03125,-0.109375 -0.09375,-0.109375 -0.109375,0 -1,0.6875 -1.59375,1.953125 -0.5,1.09375 -0.625,2.203125 -0.625,3.03125 0,0.78125 0.109375,1.984375 0.65625,3.125 C 2.25,1.84375 3.09375,2.5 3.203125,2.5 c 0.0625,0 0.09375,-0.03125 0.09375,-0.109375 z m 0,0"
           id="path89" />
      </g>
      <g
         id="use39"
         transform="translate(111.41245,81.962997)">
        <path
           d="m 1.265625,-0.765625 1.0625,-1.03125 c 1.546875,-1.375 2.140625,-1.90625 2.140625,-2.90625 0,-1.140625 -0.890625,-1.9375 -2.109375,-1.9375 -1.125,0 -1.859375,0.921875 -1.859375,1.8125 0,0.546875 0.5,0.546875 0.53125,0.546875 0.171875,0 0.515625,-0.109375 0.515625,-0.53125 0,-0.25 -0.1875,-0.515625 -0.53125,-0.515625 -0.078125,0 -0.09375,0 -0.125,0.015625 0.21875,-0.65625 0.765625,-1.015625 1.34375,-1.015625 0.90625,0 1.328125,0.8125 1.328125,1.625 C 3.5625,-3.90625 3.078125,-3.125 2.515625,-2.5 l -1.90625,2.125 C 0.5,-0.265625 0.5,-0.234375 0.5,0 H 4.203125 L 4.46875,-1.734375 H 4.234375 C 4.171875,-1.4375 4.109375,-1 4,-0.84375 3.9375,-0.765625 3.28125,-0.765625 3.0625,-0.765625 Z m 0,0"
           id="path93" />
      </g>
    </g>
    <g
       fill="#000000"
       fill-opacity="1"
       id="g45"
       transform="matrix(2.919095,0,0,2.919095,138.81887,-157.01619)">
      <g
         id="use43"
         transform="translate(116.394,81.962997)">
        <path
           d="m 2.03125,-0.015625 c 0,-0.65625 -0.25,-1.046875 -0.640625,-1.046875 -0.328125,0 -0.53125,0.25 -0.53125,0.53125 C 0.859375,-0.265625 1.0625,0 1.390625,0 1.5,0 1.640625,-0.046875 1.734375,-0.125 1.765625,-0.15625 1.78125,-0.15625 1.78125,-0.15625 c 0.015625,0 0.015625,0 0.015625,0.140625 0,0.75 -0.34375,1.34375 -0.671875,1.671875 -0.109375,0.109375 -0.109375,0.125 -0.109375,0.15625 0,0.078125 0.046875,0.109375 0.09375,0.109375 0.109375,0 0.921875,-0.765625 0.921875,-1.9375 z m 0,0"
           id="path97" />
      </g>
    </g>
    <g
       fill="#000000"
       fill-opacity="1"
       id="g51"
       transform="matrix(2.919095,0,0,2.919095,138.81887,-157.01619)">
      <g
         id="use47"
         transform="translate(120.822,81.962997)">
        <path
           d="m 1.265625,-0.765625 1.0625,-1.03125 c 1.546875,-1.375 2.140625,-1.90625 2.140625,-2.90625 0,-1.140625 -0.890625,-1.9375 -2.109375,-1.9375 -1.125,0 -1.859375,0.921875 -1.859375,1.8125 0,0.546875 0.5,0.546875 0.53125,0.546875 0.171875,0 0.515625,-0.109375 0.515625,-0.53125 0,-0.25 -0.1875,-0.515625 -0.53125,-0.515625 -0.078125,0 -0.09375,0 -0.125,0.015625 0.21875,-0.65625 0.765625,-1.015625 1.34375,-1.015625 0.90625,0 1.328125,0.8125 1.328125,1.625 C 3.5625,-3.90625 3.078125,-3.125 2.515625,-2.5 l -1.90625,2.125 C 0.5,-0.265625 0.5,-0.234375 0.5,0 H 4.203125 L 4.46875,-1.734375 H 4.234375 C 4.171875,-1.4375 4.109375,-1 4,-0.84375 3.9375,-0.765625 3.28125,-0.765625 3.0625,-0.765625 Z m 0,0"
           id="path101" />
      </g>
      <g
         id="use49"
         transform="translate(125.8033,81.962997)">
        <path
           d="m 2.875,-2.5 c 0,-0.765625 -0.109375,-1.96875 -0.65625,-3.109375 -0.59375,-1.21875 -1.453125,-1.875 -1.546875,-1.875 -0.0625,0 -0.109375,0.046875 -0.109375,0.109375 0,0.03125 0,0.046875 0.1875,0.234375 0.984375,0.984375 1.546875,2.5625 1.546875,4.640625 0,1.71875 -0.359375,3.46875 -1.59375,4.71875 C 0.5625,2.34375 0.5625,2.359375 0.5625,2.390625 0.5625,2.453125 0.609375,2.5 0.671875,2.5 0.765625,2.5 1.671875,1.8125 2.25,0.546875 2.765625,-0.546875 2.875,-1.65625 2.875,-2.5 Z m 0,0"
           id="path105" />
      </g>
    </g>
  </g>
  <g
     id="g1211"
     transform="translate(145.95259,552.21256)">
    <g
       fill="#000000"
       fill-opacity="1"
       id="g55"
       transform="matrix(2.919095,0,0,2.919095,138.81887,-157.01619)">
      <g
         id="use53"
         transform="translate(132.998,81.962997)">
        <path
           d="M 3.015625,-3.15625 H 4.71875 c 1.40625,0 2.796875,-1.03125 2.796875,-2.140625 0,-0.78125 -0.65625,-1.515625 -1.96875,-1.515625 h -3.21875 c -0.1875,0 -0.296875,0 -0.296875,0.1875 0,0.125 0.078125,0.125 0.28125,0.125 0.125,0 0.3125,0.015625 0.421875,0.015625 0.171875,0.03125 0.21875,0.046875 0.21875,0.171875 0,0.03125 0,0.0625 -0.03125,0.1875 l -1.34375,5.34375 c -0.09375,0.390625 -0.109375,0.46875 -0.90625,0.46875 -0.15625,0 -0.265625,0 -0.265625,0.1875 C 0.40625,0 0.515625,0 0.546875,0 0.828125,0 1.53125,-0.03125 1.8125,-0.03125 c 0.21875,0 0.4375,0.015625 0.640625,0.015625 0.21875,0 0.4375,0.015625 0.640625,0.015625 0.078125,0 0.203125,0 0.203125,-0.203125 0,-0.109375 -0.09375,-0.109375 -0.28125,-0.109375 -0.359375,0 -0.640625,0 -0.640625,-0.171875 0,-0.0625 0.015625,-0.109375 0.03125,-0.171875 z M 3.734375,-6.125 C 3.828125,-6.46875 3.84375,-6.5 4.28125,-6.5 h 0.953125 c 0.828125,0 1.359375,0.265625 1.359375,0.953125 0,0.390625 -0.203125,1.25 -0.59375,1.609375 -0.5,0.453125 -1.09375,0.53125 -1.53125,0.53125 H 3.0625 Z m 0,0"
           id="path109" />
      </g>
    </g>
    <g
       fill="#000000"
       fill-opacity="1"
       id="g59"
       transform="matrix(2.919095,0,0,2.919095,138.81887,-157.01619)">
      <g
         id="use57"
         transform="translate(140.77879,81.962997)">
        <path
           d="m 7.578125,-6.921875 c 0,-0.03125 -0.015625,-0.109375 -0.109375,-0.109375 -0.03125,0 -0.046875,0.015625 -0.15625,0.125 L 6.625,-6.140625 C 6.53125,-6.28125 6.078125,-7.03125 4.96875,-7.03125 2.734375,-7.03125 0.5,-4.828125 0.5,-2.515625 c 0,1.59375 1.109375,2.734375 2.71875,2.734375 0.4375,0 0.890625,-0.09375 1.25,-0.234375 0.5,-0.203125 0.6875,-0.40625 0.859375,-0.609375 0.09375,0.25 0.359375,0.609375 0.453125,0.609375 0.046875,0 0.078125,-0.03125 0.078125,-0.03125 C 5.875,-0.0625 5.96875,-0.453125 6.015625,-0.65625 l 0.1875,-0.765625 C 6.25,-1.59375 6.296875,-1.765625 6.34375,-1.9375 c 0.109375,-0.4375 0.109375,-0.46875 0.6875,-0.46875 0.046875,0 0.15625,-0.015625 0.15625,-0.203125 0,-0.078125 -0.046875,-0.109375 -0.125,-0.109375 -0.234375,0 -0.828125,0.03125 -1.046875,0.03125 -0.3125,0 -1.09375,-0.03125 -1.40625,-0.03125 -0.078125,0 -0.203125,0 -0.203125,0.203125 0,0.109375 0.078125,0.109375 0.296875,0.109375 0.015625,0 0.296875,0 0.53125,0.015625 0.265625,0.03125 0.3125,0.0625 0.3125,0.1875 0,0.09375 -0.109375,0.53125 -0.21875,0.90625 -0.28125,1.09375 -1.5625,1.203125 -1.921875,1.203125 -0.953125,0 -2,-0.5625 -2,-2.09375 0,-0.3125 0.09375,-1.953125 1.140625,-3.25 0.546875,-0.671875 1.515625,-1.28125 2.5,-1.28125 1.015625,0 1.609375,0.765625 1.609375,1.921875 0,0.40625 -0.03125,0.40625 -0.03125,0.515625 0,0.09375 0.109375,0.09375 0.140625,0.09375 0.125,0 0.125,-0.015625 0.1875,-0.203125 z m 0,0"
           id="path113" />
      </g>
    </g>
    <g
       fill="#000000"
       fill-opacity="1"
       id="g65"
       transform="matrix(2.919095,0,0,2.919095,138.81887,-157.01619)">
      <g
         id="use61"
         transform="translate(148.61099,81.962997)">
        <path
           d="m 3.296875,2.390625 c 0,-0.03125 0,-0.046875 -0.171875,-0.21875 C 1.890625,0.921875 1.5625,-0.96875 1.5625,-2.5 c 0,-1.734375 0.375,-3.46875 1.609375,-4.703125 0.125,-0.125 0.125,-0.140625 0.125,-0.171875 0,-0.078125 -0.03125,-0.109375 -0.09375,-0.109375 -0.109375,0 -1,0.6875 -1.59375,1.953125 -0.5,1.09375 -0.625,2.203125 -0.625,3.03125 0,0.78125 0.109375,1.984375 0.65625,3.125 C 2.25,1.84375 3.09375,2.5 3.203125,2.5 c 0.0625,0 0.09375,-0.03125 0.09375,-0.109375 z m 0,0"
           id="path117" />
      </g>
      <g
         id="use63"
         transform="translate(152.48546,81.962997)">
        <path
           d="m 1.265625,-0.765625 1.0625,-1.03125 c 1.546875,-1.375 2.140625,-1.90625 2.140625,-2.90625 0,-1.140625 -0.890625,-1.9375 -2.109375,-1.9375 -1.125,0 -1.859375,0.921875 -1.859375,1.8125 0,0.546875 0.5,0.546875 0.53125,0.546875 0.171875,0 0.515625,-0.109375 0.515625,-0.53125 0,-0.25 -0.1875,-0.515625 -0.53125,-0.515625 -0.078125,0 -0.09375,0 -0.125,0.015625 0.21875,-0.65625 0.765625,-1.015625 1.34375,-1.015625 0.90625,0 1.328125,0.8125 1.328125,1.625 C 3.5625,-3.90625 3.078125,-3.125 2.515625,-2.5 l -1.90625,2.125 C 0.5,-0.265625 0.5,-0.234375 0.5,0 H 4.203125 L 4.46875,-1.734375 H 4.234375 C 4.171875,-1.4375 4.109375,-1 4,-0.84375 3.9375,-0.765625 3.28125,-0.765625 3.0625,-0.765625 Z m 0,0"
           id="path121" />
      </g>
    </g>
    <g
       fill="#000000"
       fill-opacity="1"
       id="g69"
       transform="matrix(2.919095,0,0,2.919095,138.81887,-157.01619)">
      <g
         id="use67"
         transform="translate(157.467,81.962997)">
        <path
           d="m 2.03125,-0.015625 c 0,-0.65625 -0.25,-1.046875 -0.640625,-1.046875 -0.328125,0 -0.53125,0.25 -0.53125,0.53125 C 0.859375,-0.265625 1.0625,0 1.390625,0 1.5,0 1.640625,-0.046875 1.734375,-0.125 1.765625,-0.15625 1.78125,-0.15625 1.78125,-0.15625 c 0.015625,0 0.015625,0 0.015625,0.140625 0,0.75 -0.34375,1.34375 -0.671875,1.671875 -0.109375,0.109375 -0.109375,0.125 -0.109375,0.15625 0,0.078125 0.046875,0.109375 0.09375,0.109375 0.109375,0 0.921875,-0.765625 0.921875,-1.9375 z m 0,0"
           id="path125" />
      </g>
    </g>
    <g
       fill="#000000"
       fill-opacity="1"
       id="g75"
       transform="matrix(2.919095,0,0,2.919095,138.81887,-157.01619)">
      <g
         id="use71"
         transform="translate(161.895,81.962997)">
        <path
           d="m 2.890625,-3.515625 c 0.8125,-0.265625 1.390625,-0.953125 1.390625,-1.75 0,-0.8125 -0.875,-1.375 -1.828125,-1.375 -1,0 -1.765625,0.59375 -1.765625,1.359375 0,0.328125 0.21875,0.515625 0.515625,0.515625 0.296875,0 0.5,-0.21875 0.5,-0.515625 0,-0.484375 -0.46875,-0.484375 -0.609375,-0.484375 0.296875,-0.5 0.953125,-0.625 1.3125,-0.625 0.421875,0 0.96875,0.21875 0.96875,1.109375 0,0.125 -0.03125,0.703125 -0.28125,1.140625 C 2.796875,-3.65625 2.453125,-3.625 2.203125,-3.625 2.125,-3.609375 1.890625,-3.59375 1.8125,-3.59375 c -0.078125,0.015625 -0.140625,0.03125 -0.140625,0.125 0,0.109375 0.0625,0.109375 0.234375,0.109375 h 0.4375 c 0.8125,0 1.1875,0.671875 1.1875,1.65625 0,1.359375 -0.6875,1.640625 -1.125,1.640625 -0.4375,0 -1.1875,-0.171875 -1.53125,-0.75 0.34375,0.046875 0.65625,-0.171875 0.65625,-0.546875 0,-0.359375 -0.265625,-0.5625 -0.546875,-0.5625 -0.25,0 -0.5625,0.140625 -0.5625,0.578125 0,0.90625 0.921875,1.5625 2.015625,1.5625 1.21875,0 2.125,-0.90625 2.125,-1.921875 0,-0.8125 -0.640625,-1.59375 -1.671875,-1.8125 z m 0,0"
           id="path129" />
      </g>
      <g
         id="use73"
         transform="translate(166.8763,81.962997)">
        <path
           d="m 2.875,-2.5 c 0,-0.765625 -0.109375,-1.96875 -0.65625,-3.109375 -0.59375,-1.21875 -1.453125,-1.875 -1.546875,-1.875 -0.0625,0 -0.109375,0.046875 -0.109375,0.109375 0,0.03125 0,0.046875 0.1875,0.234375 0.984375,0.984375 1.546875,2.5625 1.546875,4.640625 0,1.71875 -0.359375,3.46875 -1.59375,4.71875 C 0.5625,2.34375 0.5625,2.359375 0.5625,2.390625 0.5625,2.453125 0.609375,2.5 0.671875,2.5 0.765625,2.5 1.671875,1.8125 2.25,0.546875 2.765625,-0.546875 2.875,-1.65625 2.875,-2.5 Z m 0,0"
           id="path133" />
      </g>
    </g>
  </g>
  <path
     style="fill:none;stroke:#d40000;stroke-width:1.25102;stroke-opacity:0.74902"
     d="m 814.0542,429.80299 87.34803,61.73726"
     id="path1017" />
  <circle
     style="fill:#000000;fill-opacity:1;stroke:none;stroke-width:0.322979;stroke-dasharray:none;stroke-opacity:0.74902"
     id="path1211-35-5-61-3"
     cx="814.0542"
     cy="429.80298"
     r="4.8385105" />
  <circle
     style="fill:#000000;fill-opacity:1;stroke:none;stroke-width:0.322979;stroke-dasharray:none;stroke-opacity:0.74902"
     id="path1211-35-5-61-6"
     cx="901.40222"
     cy="491.54025"
     r="4.8385105" />
</svg>
