<?xml version="1.0" encoding="UTF-8" standalone="no"?>
<!-- Created with Inkscape (http://www.inkscape.org/) -->

<svg
   width="210mm"
   height="297mm"
   viewBox="0 0 210 297"
   version="1.1"
   id="svg1"
   inkscape:version="1.3.2 (091e20ef0f, 2023-11-25)"
   sodipodi:docname="coverin_radius.svg"
   xmlns:inkscape="http://www.inkscape.org/namespaces/inkscape"
   xmlns:sodipodi="http://sodipodi.sourceforge.net/DTD/sodipodi-0.dtd"
   xmlns="http://www.w3.org/2000/svg"
   xmlns:svg="http://www.w3.org/2000/svg">
  <sodipodi:namedview
     id="namedview1"
     pagecolor="#ffffff"
     bordercolor="#000000"
     borderopacity="0.25"
     inkscape:showpageshadow="2"
     inkscape:pageopacity="0.0"
     inkscape:pagecheckerboard="0"
     inkscape:deskcolor="#d1d1d1"
     inkscape:document-units="mm"
     inkscape:zoom="1.5518659"
     inkscape:cx="436.24903"
     inkscape:cy="349.90137"
     inkscape:window-width="1900"
     inkscape:window-height="1024"
     inkscape:window-x="0"
     inkscape:window-y="0"
     inkscape:window-maximized="1"
     inkscape:current-layer="layer1" />
  <defs
     id="defs1" />
  <g
     inkscape:label="Layer 1"
     inkscape:groupmode="layer"
     id="layer1">
    <rect
       style="fill:#000000;stroke:#000000;stroke-width:0.499999;fill-opacity:0"
       id="rect1"
       width="134.53285"
       height="83.145874"
       x="35.880848"
       y="44.473377" />
    <circle
       style="fill:#000000;fill-opacity:0.25;stroke:#000000;stroke-width:0.335867"
       id="path1-2"
       cx="159.77008"
       cy="52.146637"
       r="15.99412" />
    <circle
       style="fill:#000000;fill-opacity:0.25;stroke:#000000;stroke-width:0.335867"
       id="path1-2-2"
       cx="159.77008"
       cy="68.308693"
       r="15.99412" />
    <circle
       style="fill:#000000;fill-opacity:0.25;stroke:#000000;stroke-width:0.335867"
       id="path1-2-3"
       cx="159.03705"
       cy="82.572472"
       r="15.99412" />
    <circle
       style="fill:#000000;fill-opacity:0.25;stroke:#000000;stroke-width:0.335867"
       id="path1-2-26"
       cx="159.56622"
       cy="98.976631"
       r="15.99412" />
    <circle
       style="fill:#000000;fill-opacity:0.25;stroke:#000000;stroke-width:0.335867"
       id="path1-2-9"
       cx="151.8933"
       cy="117.76205"
       r="15.99412" />
    <circle
       style="fill:#000000;fill-opacity:0.25;stroke:#000000;stroke-width:0.335867"
       id="path1-2-37"
       cx="169.62038"
       cy="121.99538"
       r="15.99412" />
    <circle
       style="fill:#000000;fill-opacity:0.25;stroke:#000000;stroke-width:0.335867"
       id="path1-2-28"
       cx="133.37247"
       cy="116.9683"
       r="15.99412" />
    <circle
       style="fill:#000000;fill-opacity:0.25;stroke:#000000;stroke-width:0.335867"
       id="path1-2-6"
       cx="133.90163"
       cy="88.128716"
       r="15.99412" />
    <circle
       style="fill:#000000;fill-opacity:0.25;stroke:#000000;stroke-width:0.335867"
       id="path1-2-31"
       cx="139.1933"
       cy="102.41622"
       r="15.99412" />
    <circle
       style="fill:#000000;fill-opacity:0.25;stroke:#000000;stroke-width:0.335867"
       id="path1-2-8"
       cx="137.87038"
       cy="66.432884"
       r="15.99412" />
    <circle
       style="fill:#000000;fill-opacity:0.25;stroke:#000000;stroke-width:0.335867"
       id="path1-2-36"
       cx="136.54747"
       cy="44.737053"
       r="15.99412" />
    <circle
       style="fill:#000000;fill-opacity:0.25;stroke:#000000;stroke-width:0.335867"
       id="path1-2-32"
       cx="118.82038"
       cy="49.23497"
       r="15.99412" />
    <circle
       style="fill:#000000;fill-opacity:0.25;stroke:#000000;stroke-width:0.335867"
       id="path1-2-5"
       cx="112.47038"
       cy="66.962051"
       r="15.99412" />
    <circle
       style="fill:#000000;fill-opacity:0.25;stroke:#000000;stroke-width:0.335867"
       id="path1-2-65"
       cx="111.67664"
       cy="81.514137"
       r="15.99412" />
    <circle
       style="fill:#000000;fill-opacity:0.25;stroke:#000000;stroke-width:0.335867"
       id="path1-2-7"
       cx="111.67664"
       cy="104.2683"
       r="15.99412" />
    <circle
       style="fill:#000000;fill-opacity:0.25;stroke:#000000;stroke-width:0.335867"
       id="path1-2-54"
       cx="101.35789"
       cy="112.99955"
       r="15.99412" />
    <circle
       style="fill:#000000;fill-opacity:0.25;stroke:#000000;stroke-width:0.335867"
       id="path1-2-30"
       cx="106.91413"
       cy="123.05372"
       r="15.99412" />
    <circle
       style="fill:#000000;fill-opacity:0.25;stroke:#000000;stroke-width:0.335867"
       id="path1-2-88"
       cx="79.926636"
       cy="126.4933"
       r="15.99412" />
    <circle
       style="fill:#000000;fill-opacity:0.25;stroke:#000000;stroke-width:0.335867"
       id="path1-2-4"
       cx="74.105797"
       cy="107.17872"
       r="15.99412" />
    <circle
       style="fill:#000000;fill-opacity:0.25;stroke:#000000;stroke-width:0.335867"
       id="path1-2-68"
       cx="85.2183"
       cy="95.272469"
       r="15.99412" />
    <circle
       style="fill:#000000;fill-opacity:0.25;stroke:#000000;stroke-width:0.335867"
       id="path1-2-64"
       cx="88.393303"
       cy="74.105804"
       r="15.99412" />
    <circle
       style="fill:#000000;fill-opacity:0.25;stroke:#000000;stroke-width:0.335867"
       id="path1-2-48"
       cx="85.482887"
       cy="66.432884"
       r="15.99412" />
    <circle
       style="fill:#000000;fill-opacity:0.25;stroke:#000000;stroke-width:0.335867"
       id="path1-2-27"
       cx="85.482887"
       cy="43.149551"
       r="15.99412" />
    <circle
       style="fill:#000000;fill-opacity:0.25;stroke:#000000;stroke-width:0.335867"
       id="path1-2-1"
       cx="94.743301"
       cy="46.324551"
       r="15.99412" />
    <circle
       style="fill:#000000;fill-opacity:0.25;stroke:#000000;stroke-width:0.335867"
       id="path1-2-59"
       cx="67.491219"
       cy="43.678719"
       r="15.99412" />
    <circle
       style="fill:#000000;fill-opacity:0.25;stroke:#000000;stroke-width:0.335867"
       id="path1-2-91"
       cx="67.491219"
       cy="63.787052"
       r="15.99412" />
    <circle
       style="fill:#000000;fill-opacity:0.25;stroke:#000000;stroke-width:0.335867"
       id="path1-2-15"
       cx="51.616222"
       cy="53.997467"
       r="15.99412" />
    <circle
       style="fill:#000000;fill-opacity:0.25;stroke:#000000;stroke-width:0.335867"
       id="path1-2-67"
       cx="33.88913"
       cy="42.091221"
       r="15.99412" />
    <circle
       style="fill:#000000;fill-opacity:0.25;stroke:#000000;stroke-width:0.335867"
       id="path1-2-63"
       cx="38.122471"
       cy="66.432884"
       r="15.99412" />
    <circle
       style="fill:#000000;fill-opacity:0.25;stroke:#000000;stroke-width:0.335867"
       id="path1-2-12"
       cx="43.149551"
       cy="74.899551"
       r="15.99412" />
    <circle
       style="fill:#000000;fill-opacity:0.25;stroke:#000000;stroke-width:0.335867"
       id="path1-2-0"
       cx="44.737049"
       cy="91.568298"
       r="15.99412" />
    <circle
       style="fill:#000000;fill-opacity:0.25;stroke:#000000;stroke-width:0.335867"
       id="path1-2-09"
       cx="44.207882"
       cy="111.41205"
       r="15.99412" />
    <circle
       style="fill:#000000;fill-opacity:0.25;stroke:#000000;stroke-width:0.335867"
       id="path1-2-56"
       cx="62.993301"
       cy="85.482887"
       r="15.99412" />
    <circle
       style="fill:#000000;fill-opacity:0.25;stroke:#000000;stroke-width:0.335867"
       id="path1-2-98"
       cx="53.997471"
       cy="128.87456"
       r="15.99412" />
    <circle
       style="fill:#000000;fill-opacity:0.25;stroke:#000000;stroke-width:0.335867"
       id="path1-2-03"
       cx="31.77247"
       cy="132.57872"
       r="15.99412" />
    <circle
       style="fill:#000000;fill-opacity:1;stroke:none;stroke-width:0.0311718"
       id="path1-2-44"
       cx="140.65524"
       cy="90.648994"
       r="1.4844141" />
    <circle
       style="fill:#000000;fill-opacity:1;stroke:none;stroke-width:0.0311718"
       id="path1-2-44-1"
       cx="139.1933"
       cy="102.41622"
       r="1.4844141" />
    <circle
       style="fill:#000000;fill-opacity:1;stroke:none;stroke-width:0.0311718"
       id="path1-2-44-7"
       cx="133.90163"
       cy="88.128716"
       r="1.4844141" />
    <path
       style="fill:#000000;fill-opacity:1;stroke:#000000;stroke-width:0.499999;stroke-opacity:1"
       d="m 133.90163,88.128715 6.75361,2.520278"
       id="path1" />
    <path
       style="fill:#000000;fill-opacity:1;stroke:#000000;stroke-width:0.499999;stroke-opacity:1"
       d="M 140.65524,90.648993 139.1933,102.41622"
       id="path2" />
    <g
       id="g20"
       transform="matrix(0.74627072,0,0,0.74627072,-7.3898644,11.047085)">
      <g
         id="g3"
         transform="matrix(0.352778,0,0,0.352778,193.38469,103.26771)"
         style="fill:#000000;fill-opacity:1">
        <path
           d="M 0.375,2.0625 C 0.359375,2.125 0.328125,2.203125 0.328125,2.265625 c 0,0.1875 0.15625,0.296875 0.328125,0.296875 C 0.84375,2.5625 1,2.453125 1.078125,2.28125 1.125,2.171875 1.453125,0.734375 1.84375,-0.734375 2.078125,-0.125 2.515625,0.125 2.984375,0.125 4.34375,0.125 5.875,-1.546875 5.875,-3.359375 c 0,-1.28125 -0.78125,-1.90625 -1.609375,-1.90625 -1.046875,0 -2.328125,1.078125 -2.71875,2.671875 z M 2.96875,-0.125 c -0.8125,0 -1.015625,-0.9375 -1.015625,-1.078125 0,-0.078125 0.3125,-1.21875 0.34375,-1.390625 0.609375,-2.375 1.78125,-2.4375 1.953125,-2.4375 0.546875,0 0.84375,0.484375 0.84375,1.1875 0,0.609375 -0.328125,1.796875 -0.53125,2.296875 C 4.203125,-0.71875 3.578125,-0.125 2.96875,-0.125 Z m 0,0"
           id="path3" />
      </g>
      <g
         id="g9"
         transform="matrix(0.352778,0,0,0.352778,195.51441,103.9006)"
         style="fill:#000000;fill-opacity:1">
        <path
           d="m 4.0625,-1.109375 c 0.75,-0.8125 1,-1.859375 1,-1.921875 0,-0.0625 -0.046875,-0.09375 -0.109375,-0.09375 -0.109375,0 -0.109375,0.03125 -0.15625,0.1875 C 4.5625,-2.125 4.09375,-1.5 4.0625,-1.5 4.046875,-1.5 4.046875,-1.703125 4.046875,-1.828125 4.03125,-3.234375 3.125,-3.515625 2.578125,-3.515625 c -1.125,0 -2.234375,1.09375 -2.234375,2.21875 0,0.78125 0.5625,1.375 1.40625,1.375 0.546875,0 1.140625,-0.203125 1.765625,-0.671875 0.1875,0.640625 0.640625,0.671875 0.78125,0.671875 0.453125,0 0.71875,-0.40625 0.71875,-0.5625 0,-0.09375 -0.09375,-0.09375 -0.109375,-0.09375 -0.09375,0 -0.109375,0.03125 -0.140625,0.078125 -0.125,0.34375 -0.390625,0.359375 -0.4375,0.359375 -0.109375,0 -0.234375,0 -0.265625,-0.96875 z m -0.59375,0.25 C 2.90625,-0.34375 2.234375,-0.140625 1.765625,-0.140625 1.359375,-0.140625 1,-0.375 1,-1.015625 1,-1.296875 1.125,-2.125 1.5,-2.65625 c 0.3125,-0.4375 0.75,-0.640625 1.078125,-0.640625 0.4375,0 0.6875,0.3125 0.78125,0.796875 0.125,0.546875 0.0625,1.1875 0.109375,1.640625 z m 0,0"
           id="path4" />
      </g>
      <g
         id="g11"
         transform="matrix(0.352778,0,0,0.352778,197.43317,104.29077)"
         style="fill:#000000;fill-opacity:1">
        <path
           d="m 2.140625,-3.796875 c 0,-0.1875 -0.015625,-0.1875 -0.203125,-0.1875 -0.390625,0.390625 -1,0.390625 -1.21875,0.390625 v 0.234375 c 0.15625,0 0.5625,0 0.921875,-0.171875 v 3.015625 c 0,0.203125 0,0.28125 -0.625,0.28125 h -0.25 V 0 c 0.328125,-0.03125 0.796875,-0.03125 1.125,-0.03125 0.328125,0 0.796875,0 1.125,0.03125 v -0.234375 h -0.25 c -0.625,0 -0.625,-0.078125 -0.625,-0.28125 z m 0,0"
           id="path12" />
      </g>
    </g>
    <path
       d="m 139.00546,92.271219 c -0.1378,0.0221 -0.18741,0.12678 -0.18741,0.20395 0,0.10473 0.0772,0.1378 0.1378,0.1378 0.12678,0 0.21498,-0.11024 0.21498,-0.226 0,-0.17639 -0.20395,-0.25356 -0.38034,-0.25356 -0.25356,0 -0.39688,0.25356 -0.43546,0.33073 -0.0992,-0.31419 -0.35829,-0.33073 -0.43546,-0.33073 -0.42995,0 -0.65595,0.55122 -0.65595,0.64493 0,0.0165 0.0165,0.0386 0.0441,0.0386 0.0331,0 0.0441,-0.0276 0.0496,-0.0441 0.14331,-0.46853 0.42995,-0.55672 0.55121,-0.55672 0.18742,0 0.226,0.17638 0.226,0.2756 0,0.0937 -0.0276,0.19293 -0.0772,0.39688 l -0.14331,0.57326 c -0.0606,0.25356 -0.18191,0.48507 -0.4079,0.48507 -0.0221,0 -0.12678,0 -0.21498,-0.0551 0.15434,-0.0276 0.18742,-0.15434 0.18742,-0.20395 0,-0.0827 -0.0662,-0.1378 -0.14332,-0.1378 -0.10473,0 -0.21497,0.0937 -0.21497,0.226 0,0.17638 0.19843,0.25907 0.38033,0.25907 0.20395,0 0.34727,-0.15986 0.43546,-0.33624 0.0661,0.24804 0.28112,0.33624 0.43546,0.33624 0.42995,0 0.65595,-0.55673 0.65595,-0.64493 0,-0.022 -0.0165,-0.0386 -0.0386,-0.0386 -0.0386,0 -0.0441,0.022 -0.0551,0.0551 -0.11575,0.36932 -0.35829,0.54019 -0.55121,0.54019 -0.14883,0 -0.226,-0.11024 -0.226,-0.28112 0,-0.0937 0.0165,-0.15985 0.0827,-0.43546 l 0.14883,-0.57877 c 0.0606,-0.24805 0.20395,-0.43546 0.40239,-0.43546 0.006,0 0.12678,0 0.21497,0.0551 z m 0,0"
       id="path8"
       style="fill:#000000;fill-opacity:1;stroke-width:0.352778" />
    <g
       id="g18"
       transform="translate(-4.25752,-52.543707)">
      <path
         d="m 142.85508,158.31816 c -0.0772,0 -0.11575,0 -0.17638,0.0551 -0.0276,0.0165 -0.0717,0.0827 -0.0717,0.14883 0,0.0827 0.0606,0.1378 0.14331,0.1378 0.0992,0 0.21498,-0.0882 0.21498,-0.25356 0,-0.20395 -0.19293,-0.35829 -0.48507,-0.35829 -0.55122,0 -1.10243,0.60083 -1.10243,1.20165 0,0.36381 0.226,0.70005 0.65594,0.70005 0.57327,0 0.93707,-0.44649 0.93707,-0.50161 0,-0.0276 -0.0276,-0.0496 -0.0441,-0.0496 -0.011,0 -0.0165,0.006 -0.0551,0.0441 -0.27009,0.35829 -0.66697,0.41892 -0.83233,0.41892 -0.28664,0 -0.38034,-0.25356 -0.38034,-0.46302 0,-0.14883 0.0717,-0.55673 0.22048,-0.84336 0.11025,-0.19844 0.34176,-0.42443 0.60634,-0.42443 0.0551,0 0.28663,0.006 0.36931,0.18741 z m 0,0"
         id="path10"
         style="fill:#000000;fill-opacity:1;stroke-width:0.352778" />
      <path
         d="m 143.72838,157.04136 c 0.0165,-0.0331 0.0276,-0.0551 0.0276,-0.0827 0,-0.0937 -0.0882,-0.15434 -0.16536,-0.15434 -0.11025,0 -0.14332,0.0992 -0.15434,0.1378 l -0.35829,1.21267 c -0.011,0.0331 -0.011,0.0386 -0.011,0.0441 0,0.022 0.0165,0.0276 0.0441,0.0386 0.0551,0.022 0.0606,0.022 0.0661,0.022 0.006,0 0.022,0 0.0441,-0.0496 z m 0,0"
         id="path11"
         style="fill:#000000;fill-opacity:1;stroke-width:0.352778" />
    </g>
    <path
       d="m 132.30149,85.098436 c -0.0772,0 -0.11575,0 -0.17638,0.0551 -0.0276,0.0165 -0.0717,0.0827 -0.0717,0.14883 0,0.0827 0.0606,0.1378 0.14331,0.1378 0.0992,0 0.21498,-0.0882 0.21498,-0.25356 0,-0.20395 -0.19293,-0.35829 -0.48507,-0.35829 -0.55122,0 -1.10243,0.60083 -1.10243,1.20165 0,0.36381 0.226,0.70005 0.65594,0.70005 0.57327,0 0.93707,-0.44649 0.93707,-0.50161 0,-0.0276 -0.0276,-0.0496 -0.0441,-0.0496 -0.011,0 -0.0165,0.006 -0.0551,0.0441 -0.27009,0.35829 -0.66697,0.41892 -0.83233,0.41892 -0.28664,0 -0.38034,-0.25356 -0.38034,-0.46302 0,-0.14883 0.0717,-0.55673 0.22048,-0.84336 0.11025,-0.19844 0.34176,-0.42443 0.60634,-0.42443 0.0551,0 0.28663,0.006 0.36931,0.18741 z m 0,0"
       id="path10-5"
       style="fill:#000000;fill-opacity:1;stroke-width:0.352778" />
    <g
       id="g19"
       transform="matrix(0.77422672,0,0,0.77422672,-20.125037,19.04851)">
      <g
         id="g13"
         transform="matrix(0.352778,0,0,0.352778,200.44977,103.26771)"
         style="fill:#000000;fill-opacity:1">
        <path
           d="M 0.375,2.0625 C 0.359375,2.125 0.328125,2.203125 0.328125,2.265625 c 0,0.1875 0.15625,0.296875 0.328125,0.296875 C 0.84375,2.5625 1,2.453125 1.078125,2.28125 1.125,2.171875 1.453125,0.734375 1.84375,-0.734375 2.078125,-0.125 2.515625,0.125 2.984375,0.125 4.34375,0.125 5.875,-1.546875 5.875,-3.359375 c 0,-1.28125 -0.78125,-1.90625 -1.609375,-1.90625 -1.046875,0 -2.328125,1.078125 -2.71875,2.671875 z M 2.96875,-0.125 c -0.8125,0 -1.015625,-0.9375 -1.015625,-1.078125 0,-0.078125 0.3125,-1.21875 0.34375,-1.390625 0.609375,-2.375 1.78125,-2.4375 1.953125,-2.4375 0.546875,0 0.84375,0.484375 0.84375,1.1875 0,0.609375 -0.328125,1.796875 -0.53125,2.296875 C 4.203125,-0.71875 3.578125,-0.125 2.96875,-0.125 Z m 0,0"
           id="path13" />
      </g>
      <g
         id="use8"
         transform="matrix(0.352778,0,0,0.352778,202.57985,103.9006)"
         style="fill:#000000;fill-opacity:1">
        <path
           d="m 4.0625,-1.109375 c 0.75,-0.8125 1,-1.859375 1,-1.921875 0,-0.0625 -0.046875,-0.09375 -0.109375,-0.09375 -0.109375,0 -0.109375,0.03125 -0.15625,0.1875 C 4.5625,-2.125 4.09375,-1.5 4.0625,-1.5 4.046875,-1.5 4.046875,-1.703125 4.046875,-1.828125 4.03125,-3.234375 3.125,-3.515625 2.578125,-3.515625 c -1.125,0 -2.234375,1.09375 -2.234375,2.21875 0,0.78125 0.5625,1.375 1.40625,1.375 0.546875,0 1.140625,-0.203125 1.765625,-0.671875 0.1875,0.640625 0.640625,0.671875 0.78125,0.671875 0.453125,0 0.71875,-0.40625 0.71875,-0.5625 0,-0.09375 -0.09375,-0.09375 -0.109375,-0.09375 -0.09375,0 -0.109375,0.03125 -0.140625,0.078125 -0.125,0.34375 -0.390625,0.359375 -0.4375,0.359375 -0.109375,0 -0.234375,0 -0.265625,-0.96875 z m -0.59375,0.25 C 2.90625,-0.34375 2.234375,-0.140625 1.765625,-0.140625 1.359375,-0.140625 1,-0.375 1,-1.015625 1,-1.296875 1.125,-2.125 1.5,-2.65625 c 0.3125,-0.4375 0.75,-0.640625 1.078125,-0.640625 0.4375,0 0.6875,0.3125 0.78125,0.796875 0.125,0.546875 0.0625,1.1875 0.109375,1.640625 z m 0,0"
           id="path14" />
      </g>
      <g
         id="use9"
         transform="matrix(0.352778,0,0,0.352778,204.49861,104.29077)"
         style="fill:#000000;fill-opacity:1">
        <path
           d="M 3.21875,-1.125 H 3 C 2.984375,-1.03125 2.921875,-0.640625 2.84375,-0.578125 2.796875,-0.53125 2.3125,-0.53125 2.21875,-0.53125 H 1.109375 L 1.875,-1.15625 C 2.078125,-1.328125 2.609375,-1.703125 2.796875,-1.890625 2.96875,-2.0625 3.21875,-2.375 3.21875,-2.796875 c 0,-0.75 -0.671875,-1.1875 -1.484375,-1.1875 -0.765625,0 -1.296875,0.515625 -1.296875,1.078125 0,0.296875 0.25,0.34375 0.3125,0.34375 0.15625,0 0.328125,-0.109375 0.328125,-0.328125 C 1.078125,-3.015625 1,-3.21875 0.734375,-3.21875 0.875,-3.515625 1.234375,-3.75 1.65625,-3.75 c 0.625,0 0.953125,0.46875 0.953125,0.953125 0,0.421875 -0.28125,0.859375 -0.6875,1.25 L 0.5,-0.25 C 0.4375,-0.1875 0.4375,-0.1875 0.4375,0 h 2.59375 z m 0,0"
           id="path15" />
      </g>
    </g>
    <g
       inkscape:label=""
       transform="translate(175.93213,35.984583)"
       id="g22">
      <g
         fill="#000000"
         fill-opacity="1"
         id="g21"
         transform="matrix(0.352778,0,0,0.352778,-0.907036,-0.613877)">
        <g
           id="use2"
           transform="translate(1.993,10.162)">
          <path
             d="m 5.09375,-0.078125 c 2.046875,-0.8125 3.578125,-3 3.578125,-5.15625 0,-1.96875 -1.28125,-3.1875 -2.953125,-3.1875 -2.5625,0 -5.140625,2.75 -5.140625,5.515625 0,1.875 1.234375,3.15625 2.96875,3.15625 0.40625,0 0.796875,-0.0625 1.1875,-0.171875 -0.078125,0.703125 -0.078125,0.765625 -0.078125,1 0,0.34375 0,1.234375 0.96875,1.234375 1.421875,0 1.9375,-2.234375 1.9375,-2.296875 0,-0.078125 -0.046875,-0.125 -0.109375,-0.125 -0.0625,0 -0.09375,0.0625 -0.125,0.1875 C 7.0625,0.84375 6.4375,1.265625 5.921875,1.265625 5.3125,1.265625 5.15625,0.84375 5.09375,-0.078125 Z M 2.9375,-0.125 C 2,-0.453125 1.546875,-1.453125 1.546875,-2.546875 c 0,-0.828125 0.3125,-2.421875 1.09375,-3.640625 0.890625,-1.359375 2.0625,-1.96875 3,-1.96875 1.25,0 2.078125,1.015625 2.078125,2.5625 0,0.890625 -0.421875,3.84375 -2.65625,5.15625 C 5,-1.046875 4.828125,-1.75 4.046875,-1.75 c -0.65625,0 -1.203125,0.640625 -1.203125,1.21875 0,0.140625 0.046875,0.3125 0.09375,0.40625 z M 4.75,-0.28125 c -0.421875,0.203125 -0.796875,0.265625 -1.125,0.265625 -0.125,0 -0.546875,0 -0.546875,-0.515625 0,-0.4375 0.421875,-0.984375 0.96875,-0.984375 0.59375,0 0.71875,0.40625 0.71875,1 0,0.078125 0,0.171875 -0.015625,0.234375 z m 0,0"
             id="path20" />
        </g>
      </g>
      <g
         fill="#000000"
         fill-opacity="1"
         id="g4"
         transform="matrix(0.352778,0,0,0.352778,-0.907036,-0.613877)">
        <g
           id="use3"
           transform="translate(11.264,5.823)">
          <path
             d="m 1.59375,-1.3125 c 0.03125,-0.109375 0.109375,-0.421875 0.125,-0.53125 0.109375,-0.4375 0.109375,-0.4375 0.296875,-0.703125 0.265625,-0.390625 0.640625,-0.75 1.171875,-0.75 0.28125,0 0.453125,0.171875 0.453125,0.546875 0,0.4375 -0.328125,1.34375 -0.484375,1.734375 -0.109375,0.265625 -0.109375,0.3125 -0.109375,0.421875 0,0.453125 0.375,0.671875 0.71875,0.671875 0.78125,0 1.109375,-1.109375 1.109375,-1.21875 C 4.875,-1.21875 4.8125,-1.25 4.75,-1.25 c -0.09375,0 -0.109375,0.0625 -0.125,0.140625 -0.1875,0.65625 -0.53125,0.96875 -0.828125,0.96875 -0.125,0 -0.1875,-0.078125 -0.1875,-0.265625 0,-0.1875 0.0625,-0.359375 0.140625,-0.5625 0.109375,-0.296875 0.46875,-1.21875 0.46875,-1.65625 0,-0.609375 -0.421875,-0.890625 -0.984375,-0.890625 -0.65625,0 -1.0625,0.390625 -1.296875,0.6875 -0.0625,-0.4375 -0.40625,-0.6875 -0.8125,-0.6875 -0.28125,0 -0.484375,0.1875 -0.609375,0.4375 -0.203125,0.375 -0.28125,0.765625 -0.28125,0.78125 0,0.078125 0.0625,0.109375 0.125,0.109375 0.109375,0 0.109375,-0.03125 0.171875,-0.25 0.09375,-0.390625 0.234375,-0.859375 0.5625,-0.859375 0.21875,0 0.265625,0.203125 0.265625,0.375 0,0.15625 -0.046875,0.296875 -0.109375,0.5625 -0.015625,0.0625 -0.140625,0.53125 -0.171875,0.640625 L 0.78125,-0.515625 c -0.03125,0.125 -0.078125,0.3125 -0.078125,0.34375 0,0.1875 0.15625,0.25 0.265625,0.25 0.140625,0 0.265625,-0.09375 0.3125,-0.1875 C 1.3125,-0.15625 1.375,-0.4375 1.40625,-0.59375 Z m 0,0"
             id="path5" />
        </g>
      </g>
    </g>
  </g>
</svg>
