<?xml version="1.0" encoding="UTF-8" standalone="no"?>
<!-- Created with Inkscape (http://www.inkscape.org/) -->

<svg
   width="210mm"
   height="297mm"
   viewBox="0 0 210 297"
   version="1.1"
   id="svg2328"
   inkscape:version="1.2.2 (b0a8486541, 2022-12-01)"
   sodipodi:docname="hyperplanes.svg"
   xmlns:inkscape="http://www.inkscape.org/namespaces/inkscape"
   xmlns:sodipodi="http://sodipodi.sourceforge.net/DTD/sodipodi-0.dtd"
   xmlns="http://www.w3.org/2000/svg"
   xmlns:svg="http://www.w3.org/2000/svg">
  <sodipodi:namedview
     id="namedview2330"
     pagecolor="#ffffff"
     bordercolor="#000000"
     borderopacity="0.25"
     inkscape:showpageshadow="2"
     inkscape:pageopacity="0.0"
     inkscape:pagecheckerboard="0"
     inkscape:deskcolor="#d1d1d1"
     inkscape:document-units="mm"
     showgrid="false"
     inkscape:zoom="1.1338707"
     inkscape:cx="138.46376"
     inkscape:cy="454.63738"
     inkscape:window-width="1236"
     inkscape:window-height="649"
     inkscape:window-x="0"
     inkscape:window-y="0"
     inkscape:window-maximized="1"
     inkscape:current-layer="layer1" />
  <defs
     id="defs2325">
    <clipPath
       id="clip7ea9ae16-ac82-40d1-9595-e2de4b76d859">
      <path
         d="M 0,0 V 472 H 579 V 0 Z"
         id="path9961" />
    </clipPath>
    <clipPath
       id="clipa8354961-8971-4774-b192-dc1bcb40759b">
      <path
         d="M 0,0 V 472 H 579 V 0 Z"
         id="path9974" />
    </clipPath>
    <clipPath
       id="clip02f4d2ca-96c5-4e59-bab3-9f46dfcf88fa">
      <path
         d="M 0,0 V 472 H 579 V 0 Z"
         id="path19622" />
    </clipPath>
    <clipPath
       id="clip75db058f-f36a-4248-9825-0fda00389009">
      <path
         d="M 0,0 V 472 H 579 V 0 Z"
         id="path19635" />
    </clipPath>
  </defs>
  <g
     inkscape:label="Layer 1"
     inkscape:groupmode="layer"
     id="layer1">
    <g
       id="layer0"
       style="stroke-width:2.49568;stroke-linecap:square;stroke-linejoin:miter;stroke-miterlimit:10;stroke-dasharray:none;stroke-dashoffset:0"
       transform="matrix(0.20034602,0,0,0.20034602,-16.981186,43.840355)">
      <clipPath
         id="clip02b8d486-3964-4b54-91af-dc82f6f91c5f">
        <path
           d="M 0,0 V 472 H 579 V 0 Z"
           id="path2240" />
      </clipPath>
      <g
         clip-path="url(#clip133)"
         id="g2251"
         transform="translate(33.579989,-71.998482)"
         style="stroke-width:2.49568;stroke-dasharray:none">
        <g
           stroke-opacity="0.69804"
           stroke-linejoin="round"
           stroke-width="2.5"
           fill="none"
           stroke="#000000"
           stroke-linecap="round"
           id="g2249"
           style="stroke-width:2.49568;stroke-dasharray:none">
          <path
             d="m 264.98,315.65 v -1.48 l 0.05,-1.47 0.09,-1.47 0.13,-1.48 0.18,-1.48 0.22,-1.47 0.26,-1.47 0.28,-1.48 0.31,-1.47 0.36,-1.48 0.39,-1.48 0.43,-1.47 0.44,-1.47 0.46,-1.48 0.5,-1.48 0.52,-1.43 0.53,-1.51 0.55,-1.48 0.58,-1.48 0.58,-1.47 0.59,-1.48 0.62,-1.47 0.62,-1.47 0.63,-1.48 0.65,-1.48 0.64,-1.47 0.65,-1.47 0.59,-1.28 0.74,-1.67 0.68,-1.48 0.39,-0.82 0.29,-0.66 0.68,-1.47 0.7,-1.47 0.68,-1.48 0.69,-1.48 0.58,-1.2 0.81,-1.74 0.7,-1.48 0.3,-0.61 0.4,-0.87 0.7,-1.47 0.71,-1.47 0.69,-1.48 0.71,-1.47 0.41,-0.84 0.29,-0.64 0.7,-1.48 0.71,-1.47 0.7,-1.48 0.7,-1.47 0.52,-1.06 0.88,-1.89 0.71,-1.47 0.7,-1.48 0.69,-1.47 0.64,-1.32 0.76,-1.64 0.7,-1.47 0.35,-0.72 0.34,-0.76 0.69,-1.47 0.71,-1.48 0.68,-1.47 0.69,-1.47 0.51,-1.06 0.87,-1.89 0.69,-1.48 0.25,-0.52 0.43,-0.96 0.68,-1.47 0.69,-1.48 0.68,-1.47 0.68,-1.47 0.45,-0.98 0.9,-1.97 0.68,-1.48 0.23,-0.5 0.44,-0.97 0.67,-1.48 0.68,-1.48 0.66,-1.47 0.67,-1.48 0.5,-1.09 0.83,-1.86 0.66,-1.47 0.32,-0.7 0.34,-0.77 0.66,-1.48 0.67,-1.47 0.65,-1.48 0.65,-1.48 0.65,-1.44 0.66,-1.51 0.65,-1.47 0.5,-1.12 0.8,-1.83 0.65,-1.47 0.36,-0.82 0.28,-0.66 0.64,-1.47 0.65,-1.48 0.24,-0.54 0.4,-0.94 0.63,-1.47 0.65,-1.48 0.63,-1.47 0.63,-1.48 0.64,-1.47 0.63,-1.47 0.63,-1.48 0.59,-1.36 0.67,-1.59 0.62,-1.48 0.52,-1.19 0.73,-1.76 0.63,-1.47 0.45,-1.05 0.78,-1.9 0.63,-1.47 0.39,-0.95 0.22,-0.53 0.62,-1.47 0.61,-1.48 0.36,-0.86 0.26,-0.62 0.61,-1.47 0.61,-1.48 0.33,-0.79 0.28,-0.68 0.6,-1.48 0.61,-1.47 0.32,-0.77 0.29,-0.7 0.6,-1.48 0.61,-1.47 0.31,-0.77 0.29,-0.71 0.6,-1.48 0.6,-1.47 0.32,-0.79 0.28,-0.69 0.59,-1.47 0.6,-1.47 0.34,-0.84 0.25,-0.64 0.59,-1.47 0.6,-1.48 0.37,-0.92 0.22,-0.56 0.59,-1.47 0.59,-1.47 0.41,-1.03 0.76,-1.93 0.59,-1.47 0.46,-1.15 0.7,-1.8 0.59,-1.47 0.52,-1.32 0.64,-1.64 0.58,-1.47 0.58,-1.47 0.57,-1.48 0.58,-1.475 0.58,-1.475 0.57,-1.475 0.57,-1.475 0.57,-1.475 0.57,-1.475 0.57,-1.475 0.57,-1.475 0.29,-0.735 0.28,-0.74 0.56,-1.475 0.57,-1.475 0.4,-1.027 0.72,-1.923 0.57,-1.475 0.52,-1.345 0.6,-1.605 0.56,-1.475 0.56,-1.475 0.56,-1.475 0.55,-1.475 0.56,-1.475 0.22,-0.584 0.34,-0.891 0.55,-1.475 0.55,-1.475 0.37,-0.981 0.73,-1.969 0.55,-1.475 0.53,-1.404 0.57,-1.546 0.55,-1.475 0.55,-1.475 0.54,-1.475 0.55,-1.475 0.54,-1.475 0.32,-0.851 0.23,-0.624 0.54,-1.475 0.54,-1.475 0.5,-1.352 0.58,-1.598 0.54,-1.475 0.54,-1.475 0.54,-1.475 0.53,-1.475 0.54,-1.475 0.35,-0.954 0.19,-0.521 0.53,-1.475 0.53,-1.475 0.54,-1.475 0.53,-1.475 0.53,-1.475 0.53,-1.475 0.24,-0.659 0.29,-0.816 0.52,-1.475 0.53,-1.475 0.47,-1.287 0.59,-1.663 0.52,-1.475 0.53,-1.475 0.52,-1.475 0.52,-1.475 0.53,-1.475 0.41,-1.1433 L 387.84,7.375 388.36,5.9 388.88,4.425 389.4,2.95 389.92,1.475 390.44,0 M 165.02,315.65 v -1.48 l 0.05,-1.47 0.09,-1.47 0.14,-1.48 0.18,-1.48 0.23,-1.47 0.27,-1.47 0.32,-1.48 0.16,-0.66 0.23,-0.81 0.46,-1.48 0.5,-1.48 0.56,-1.47 0.69,-1.47 0.74,-1.48 0.44,-0.8 0.42,-0.68 0.99,-1.47 0.4,-0.56 0.76,-0.91 1.05,-1.19 1.81,-1.64 1.81,-1.27 0.59,-0.33 1.22,-0.64 1.81,-0.72 1.81,-0.47 1.81,-0.26 1.81,-0.07 1.81,0.11 1.8,0.28 1.2,0.29 0.61,0.16 1.81,0.62 1.81,0.76 1.81,0.93 0.83,0.48 0.98,0.61 1.27,0.87 0.54,0.39 1.39,1.09 1.68,1.47 0.55,0.52 0.95,0.95 0.86,0.92 1.73,2.04 1.89,2.63 1.1,1.79 0.71,1.29 0.8,1.66 0.62,1.48 0.39,1.06 0.58,1.88 0.36,1.48 0.26,1.48 0.18,1.47 0.1,1.47 v 1.48 m -49.97,0 0.04,1.47 0.09,1.48 0.13,1.48 0.18,1.47 0.22,1.47 0.27,1.48 0.31,1.48 0.2,0.83 0.63,2.11 0.5,1.48 0.55,1.48 1.41,2.95 0.53,0.97 1.29,1.97 0.52,0.74 0.61,0.74 1.2,1.36 1.75,1.59 1.87,1.33 1.81,0.96 1.81,0.72 1.81,0.47 1.81,0.26 1.81,0.07 1.81,-0.11 1.8,-0.29 1.81,-0.44 1.81,-0.62 1.81,-0.76 1.81,-0.93 1.12,-0.66 0.69,-0.43 1.52,-1.04 1.89,-1.48 1.66,-1.48 1.48,-1.47 0.69,-0.74 0.65,-0.73 1.16,-1.41 1.14,-1.54 0.67,-0.99 1.2,-1.97 0.61,-1.11 0.88,-1.83 0.61,-1.48 0.32,-0.89 0.2,-0.59 0.43,-1.47 0.34,-1.47 0.26,-1.48 0.17,-1.48 0.08,-1.47 m 49.99,0 0.04,1.47 0.08,1.48 0.13,1.48 0.17,1.47 0.22,1.47 0.25,1.48 0.11,0.51 0.18,0.97 0.31,1.47 0.34,1.47 0.39,1.48 0.43,1.48 0.16,0.5 0.28,0.97 0.45,1.48 0.5,1.47 0.53,1.47 1.06,2.96 0.58,1.47 0.22,0.52 0.36,0.95 0.59,1.48 0.62,1.47 0.24,0.55 0.37,0.93 0.63,1.48 0.65,1.47 1.29,2.95 0.67,1.46 0.67,1.49 0.67,1.47 0.47,1 0.89,1.96 0.69,1.47 0.69,1.48 0.69,1.47 0.66,1.38 0.73,1.57 0.7,1.48 0.38,0.78 1.02,2.16 0.71,1.48 1.39,2.95 0.5,1.01 0.91,1.94 0.71,1.47 1.4,2.96 0.6,1.23 0.8,1.71 0.71,1.48 0.3,0.62 0.39,0.86 0.7,1.47 0.71,1.48 1.39,2.94 0.43,0.9 0.95,2.06 0.7,1.47 0.69,1.47 0.69,1.48 0.59,1.24 0.78,1.71 0.7,1.48 0.33,0.69 1.03,2.25 0.69,1.48 1.36,2.95 0.53,1.15 0.82,1.8 0.68,1.48 0.31,0.67 0.36,0.8 0.67,1.48 0.68,1.47 0.66,1.47 0.67,1.48 0.58,1.27 0.75,1.68 0.66,1.47 0.4,0.88 0.92,2.07 0.67,1.48 0.65,1.48 0.65,1.47 0.67,1.47 0.64,1.48 0.65,1.48 0.58,1.29 0.72,1.65 0.65,1.48 0.44,0.99 0.85,1.96 0.64,1.48 0.32,0.71 0.96,2.23 0.64,1.48 0.63,1.48 0.64,1.47 0.64,1.47 0.62,1.48 0.63,1.47 0.64,1.48 0.62,1.48 0.63,1.47 0.59,1.37 0.66,1.58"
             id="path2243"
             style="stroke-width:2.49568;stroke-dasharray:none" />
          <title
             id="title2245">Implicit Curve eq1</title>
          <desc
             id="desc2247">eq1: -x³ + x + y² = 0</desc>
        </g>
        <!-- drawing style -->
      </g>
      <!-- clip133 -->
      <clipPath
         id="clip5cedcaea-cf72-49c7-b7fc-135d156eb2ef">
        <path
           d="M 0,0 V 472 H 579 V 0 Z"
           id="path2253" />
      </clipPath>
      <!-- clip134 -->
    </g>
    <g
       clip-path="url(#clip133)"
       id="g9972"
       transform="matrix(0.25725222,0,0,0.25725222,99.36444,8.595863)"
       style="stroke-width:1.94362;stroke-linecap:square;stroke-linejoin:miter;stroke-miterlimit:10;stroke-dasharray:none;stroke-dashoffset:0">
      <g
         stroke-opacity="0.69804"
         stroke-linejoin="round"
         stroke-width="2.5"
         fill="none"
         stroke="#000000"
         stroke-linecap="round"
         id="g9970"
         style="stroke-width:1.94362;stroke-dasharray:none">
        <path
           d="m 215.44,315.65 0.1,-1.48 1.58,-1.28 1.45,-1.66 1.34,-1.48 0.83,-0.77 0.53,-0.71 1.28,-1.36 1.32,-1.58 0.49,-0.51 0.76,-0.97 1.05,-1.19 1.4,-1.76 1.18,-1.48 1.04,-1.25 1.29,-1.69 0.52,-0.62 0.62,-0.86 1.14,-1.48 1.08,-1.47 0.78,-1 1.4,-1.95 0.41,-0.53 0.65,-0.95 1.07,-1.47 1.02,-1.48 0.88,-1.21 1.17,-1.73 0.64,-0.9 0.37,-0.58 1,-1.48 0.44,-0.61 0.55,-0.86 0.98,-1.47 0.97,-1.48 0.97,-1.47 0.94,-1.48 0.96,-1.48 0.92,-1.47 0.94,-1.46 0.92,-1.49 0.89,-1.42 0.93,-1.53 0.88,-1.41 0.92,-1.54 0.89,-1.46 0.88,-1.49 0.89,-1.47 0.86,-1.48 0.87,-1.47 0.85,-1.48 0.87,-1.48 0.84,-1.47 0.85,-1.48 0.33,-0.56 0.5,-0.91 0.84,-1.47 0.47,-0.82 0.36,-0.66 0.82,-1.47 0.63,-1.11 1,-1.84 0.81,-1.45 0.81,-1.51 0.81,-1.47 0.79,-1.48 0.8,-1.47 0.41,-0.74 0.38,-0.74 0.78,-1.47 0.64,-1.19 0.92,-1.76 0.79,-1.47 0.76,-1.48 0.77,-1.48 0.38,-0.72 0.39,-0.75 0.75,-1.48 0.67,-1.28 0.84,-1.66 0.76,-1.48 0.75,-1.47 0.74,-1.48 0.53,-1.04 0.95,-1.91 0.74,-1.48 0.73,-1.47 0.73,-1.48 0.47,-0.94 0.26,-0.53 0.72,-1.48 0.73,-1.47 0.71,-1.47 0.72,-1.48 0.48,-0.98 0.94,-1.97 0.71,-1.48 0.7,-1.47 0.7,-1.48 0.57,-1.16 0.83,-1.78 0.7,-1.48 0.28,-0.57 0.41,-0.9 0.69,-1.48 0.7,-1.47 0.68,-1.48 0.68,-1.48 0.46,-0.96 0.23,-0.51 0.67,-1.48 0.69,-1.47 0.67,-1.48 0.67,-1.47 0.68,-1.47 0.66,-1.48 0.67,-1.47 0.48,-1.06 0.85,-1.9 0.66,-1.47 0.3,-0.67 0.36,-0.81 0.65,-1.47 0.67,-1.47 0.64,-1.48 0.66,-1.47 0.64,-1.46 0.65,-1.49 0.65,-1.48 0.51,-1.15 0.78,-1.8 0.64,-1.48 0.39,-0.88 0.25,-0.59 0.63,-1.48 0.64,-1.47 0.29,-0.66 0.35,-0.81 0.63,-1.48 0.63,-1.47 0.63,-1.48 0.63,-1.48 0.63,-1.47 0.62,-1.48 0.62,-1.47 0.63,-1.47 0.61,-1.48 0.62,-1.47 0.62,-1.48 0.61,-1.48 0.62,-1.47 0.6,-1.43 0.62,-1.52 0.61,-1.48 0.58,-1.37 0.64,-1.58 0.6,-1.47 0.57,-1.36 0.64,-1.59 0.6,-1.48 0.57,-1.37 0.63,-1.57 0.6,-1.48 0.57,-1.412 0.62,-1.538 0.59,-1.475 0.6,-1.475 0.59,-1.475 0.59,-1.475 0.59,-1.475 0.58,-1.475 0.59,-1.475 0.59,-1.475 0.58,-1.475 0.58,-1.475 0.59,-1.475 0.57,-1.475 0.58,-1.475 0.58,-1.475 0.23,-0.576 0.35,-0.899 0.57,-1.475 0.58,-1.475 0.31,-0.791 0.26,-0.684 0.57,-1.475 0.58,-1.475 0.4,-1.034 0.73,-1.916 0.57,-1.475 0.51,-1.305 0.63,-1.645 0.56,-1.475 0.57,-1.475 0.56,-1.475 0.56,-1.475 0.56,-1.475 0.56,-1.475 0.56,-1.475 0.56,-1.475 0.31,-0.81 0.25,-0.665 0.55,-1.475 0.56,-1.475 0.45,-1.193 0.65,-1.757 0.55,-1.475 0.56,-1.475 0.54,-1.475 0.55,-1.475 0.55,-1.475 0.22,-0.565 0.33,-0.91 0.54,-1.475 0.55,-1.475 0.39,-1.029 0.7,-1.921 0.54,-1.475 0.55,-1.475 0.53,-1.475 0.54,-1.475 0.55,-1.475 0.2,-0.563 0.33,-0.912 0.54,-1.475 0.54,-1.475 0.4,-1.108 0.67,-1.842 0.53,-1.475 0.54,-1.475 0.53,-1.475 0.53,-1.475 0.53,-1.475 0.29,-0.8019 L 369.35,2.95 369.88,1.475 370.41,0 m -154.97,315.65 1.61,1.47 1.88,1.91 0.82,1.05 0.99,0.94 0.39,0.53 1.34,1.47 1.89,2.15 1.81,2.18 1.25,1.57 0.56,0.63 1.81,2.29 1.15,1.51 0.66,0.79 1.62,2.16 1.09,1.47 0.91,1.18 1.27,1.78 0.54,0.7 1.59,2.24 1.03,1.48 1,1.39 1.05,1.56 0.76,1.07 1.25,1.88 0.56,0.79 0.43,0.68 0.99,1.48 0.38,0.56 1.55,2.39 0.95,1.47 0.96,1.48 0.92,1.48 0.95,1.47 0.91,1.48 0.93,1.47 0.89,1.47 0.92,1.48 0.88,1.48 0.9,1.47 0.88,1.47 0.88,1.48 0.87,1.47 0.87,1.48 1.71,2.95 0.32,0.53 0.53,0.94 0.84,1.48 0.44,0.74 0.4,0.74 0.84,1.47 0.57,0.99 1.08,1.96 0.73,1.28 0.91,1.67 0.82,1.48 1.6,2.94 0.29,0.51 0.51,0.97 0.79,1.48 0.51,0.91 1.07,2.03 0.73,1.37 0.83,1.58 0.78,1.48 0.77,1.48 0.77,1.47 0.47,0.9 1.05,2.05 0.76,1.46 0.76,1.49 0.75,1.47 0.3,0.58 0.45,0.9 0.74,1.48 0.62,1.21 0.86,1.74 0.74,1.47 0.73,1.47 0.73,1.48 0.56,1.12 0.89,1.83 0.73,1.47 1.43,2.95 0.57,1.16 0.85,1.8 0.72,1.47 1.4,2.95 0.65,1.34 0.75,1.61 0.7,1.47 0.36,0.75 1.02,2.21 0.7,1.47 0.68,1.48 0.68,1.47 0.54,1.14 0.82,1.81 0.68,1.48 0.31,0.64 1.04,2.3 0.68,1.48 1.33,2.95 0.56,1.24 0.77,1.71 0.66,1.47 0.38,0.85 0.28,0.63 m -142.84,-156.35 0.01,-1.48 0.09,-1.47 0.19,-1.47 0.28,-1.48 0.37,-1.48 0.46,-1.47 0.64,-1.47 0.75,-1.48 0.45,-0.78 0.48,-0.69 1.15,-1.48 1.51,-1.48 2.02,-1.47 2.08,-1.04 1.26,-0.43 0.55,-0.18 1.81,-0.36 1.81,-0.16 1.81,0.02 1.81,0.17 1.81,0.32 0.77,0.19 1.04,0.27 1.8,0.58 1.65,0.62 3.2,1.47 0.58,0.32 1.81,1 1.81,1.1 0.86,0.54 0.95,0.65 1.22,0.82 0.59,0.45 1.41,1.03 2.21,1.76 1.48,1.18 2.14,1.93 1.25,1.03 0.56,0.66 1.1,0.81 0.71,1 m -48.48,1.95 0.09,1.47 0.17,1.48 0.27,1.48 0.36,1.47 0.45,1.47 0.61,1.48 0.74,1.48 0.55,0.95 1.49,1.99 2.13,2.07 1.28,0.89 0.53,0.34 1.81,0.88 1.81,0.59 3.62,0.53 1.81,-0.02 1.81,-0.17 1.81,-0.32 1.46,-0.36 2.15,-0.68 1.81,-0.69 1.81,-0.81 1.57,-0.77 2.05,-1.14 0.59,-0.34 1.22,-0.77 1.13,-0.7 0.68,-0.48 1.46,-0.99 1.99,-1.48 1.87,-1.48 1.78,-1.47 1.71,-1.47 1.67,-1.48 1.66,-1.48 0.53,-0.84"
           id="path9964"
           style="stroke-width:1.94362;stroke-dasharray:none" />
        <title
           id="title9966">Implicit Curve eq2</title>
        <desc
           id="desc9968">eq2: -x³ - x² + y² = 0</desc>
      </g>
      <!-- drawing style -->
    </g>
    <g
       clip-path="url(#clip133)"
       id="g19633"
       transform="matrix(0.20034602,0,0,0.20034602,125.16161,200.00877)"
       style="stroke-width:2.49568;stroke-linecap:square;stroke-linejoin:miter;stroke-miterlimit:10;stroke-dasharray:none;stroke-dashoffset:0">
      <g
         stroke-opacity="0.69804"
         stroke-linejoin="round"
         stroke-width="2.5"
         fill="none"
         stroke="#000000"
         stroke-linecap="round"
         id="g19631"
         style="stroke-width:2.49568;stroke-dasharray:none">
        <path
           d="m 65,-135 c 100,600 200,600 300,0"
           id="path19625"
           style="stroke-width:2.49568;stroke-dasharray:none" />
        <title
           id="title19627">Parabola f</title>
        <desc
           id="desc19629">f: y = x²</desc>
      </g>
      <!-- drawing style -->
    </g>
    <path
       style="fill:none;stroke:#000000;stroke-width:0.5;stroke-dasharray:none"
       d="M 75.716949,165.0915 15.060115,263.23633"
       id="path25087" />
    <path
       style="fill:none;stroke:#000000;stroke-width:0.5;stroke-dasharray:none"
       d="m 15.060115,165.0915 60.656834,98.14483"
       id="path25089" />
    <path
       id="path25148"
       style="fill:none;stroke:#000000;stroke-width:0.5;stroke-dasharray:none"
       d="m 75.711468,165.02196 a 30.322937,2.9581828 0 0 1 -30.322937,2.95818 30.322937,2.9581828 0 0 1 -30.322937,-2.95818 30.322937,2.9581828 0 0 1 30.322937,-2.95819 30.322937,2.9581828 0 0 1 30.322937,2.95819 z" />
    <path
       id="path25148-0"
       style="fill:none;stroke:#000000;stroke-width:0.5;stroke-dasharray:none"
       d="m 75.711467,263.30588 a 30.322937,2.9581828 0 0 1 -30.322934,2.95818 30.322937,2.9581828 0 0 1 -30.322937,-2.95818 30.322937,2.9581828 0 0 1 30.322937,-2.95819 30.322937,2.9581828 0 0 1 30.322934,2.95819 z" />
  </g>
</svg>
