<?xml version="1.0" encoding="UTF-8" standalone="no"?>
<!-- Created with Inkscape (http://www.inkscape.org/) -->

<svg
   width="210mm"
   height="297mm"
   viewBox="0 0 210 297"
   version="1.1"
   id="svg416"
   inkscape:version="1.2.2 (b0a8486541, 2022-12-01)"
   sodipodi:docname="hyperplanes.svg"
   xmlns:inkscape="http://www.inkscape.org/namespaces/inkscape"
   xmlns:sodipodi="http://sodipodi.sourceforge.net/DTD/sodipodi-0.dtd"
   xmlns="http://www.w3.org/2000/svg"
   xmlns:svg="http://www.w3.org/2000/svg">
  <sodipodi:namedview
     id="namedview418"
     pagecolor="#ffffff"
     bordercolor="#000000"
     borderopacity="0.25"
     inkscape:showpageshadow="2"
     inkscape:pageopacity="0.0"
     inkscape:pagecheckerboard="0"
     inkscape:deskcolor="#d1d1d1"
     inkscape:document-units="mm"
     showgrid="false"
     inkscape:zoom="0.80176768"
     inkscape:cx="439.65354"
     inkscape:cy="748.97008"
     inkscape:window-width="1876"
     inkscape:window-height="1009"
     inkscape:window-x="0"
     inkscape:window-y="0"
     inkscape:window-maximized="1"
     inkscape:current-layer="layer0" />
  <defs
     id="defs413">
    <clipPath
       id="clip720442e2-bf61-4a80-8b3d-9458053fa8fa">
      <path
         d="M 0,0 V 472 H 579 V 0 Z"
         id="path2920" />
    </clipPath>
    <clipPath
       id="clip104a1023-272c-4812-af89-7db658bde637">
      <path
         d="M 0,0 V 472 H 579 V 0 Z"
         id="path2933" />
    </clipPath>
    <clipPath
       id="clip93d4ba7f-1ad7-4fe5-8355-1dab442679f6">
      <path
         d="M 0,0 V 472 H 579 V 0 Z"
         id="path10797" />
    </clipPath>
    <clipPath
       id="clip68a9d0f8-1236-4b8e-a7c0-1bf972e1d864">
      <path
         d="M 0,0 V 472 H 579 V 0 Z"
         id="path10810" />
    </clipPath>
  </defs>
  <g
     inkscape:label="Layer 1"
     inkscape:groupmode="layer"
     id="layer1">
    <g
       id="layer0"
       style="stroke-width:1;stroke-linecap:square;stroke-linejoin:miter;stroke-miterlimit:10;stroke-dasharray:none;stroke-dashoffset:0"
       transform="matrix(0.14426164,0,0,0.06729651,5.9310419,53.43686)">
      <clipPath
         id="clipbcf268db-e27f-48c8-951f-aa33e37b1273">
        <path
           d="M 0,0 V 952 H 1699 V 0 Z"
           id="path2058" />
      </clipPath>
      <g
         clip-path="url(#clip110)"
         id="g2069"
         transform="matrix(1.0315701,0,0,2.4012505,-474.96368,-512.31269)">
        <g
           stroke-opacity="0.69804"
           stroke-linejoin="round"
           stroke-width="2.5"
           fill="none"
           stroke="#000000"
           stroke-linecap="round"
           id="g2067">
          <path
             d="m 573.93,630.7 0.04,-2.98 0.2,-2.97 0.35,-2.97 0.52,-2.98 0.67,-2.97 0.82,-2.98 0.98,-2.97 1.14,-2.98 1.01,-2.98 1.11,-2.97 1.23,-2.98 1.35,-2.97 0.68,-1.37 0.63,-1.6 1.26,-2.98 1.36,-2.97 1.45,-2.98 0.61,-1.16 0.77,-1.82 1.34,-2.97 1.42,-2.98 1.5,-2.97 0.28,-0.52 1.09,-2.46 1.38,-2.97 1.44,-2.97 1.4,-2.76 1.43,-3.19 1.4,-2.98 1.45,-2.97 1.03,-2.05 0.4,-0.93 1.35,-2.98 1.39,-2.97 1.43,-2.98 0.74,-1.47 0.65,-1.5 1.34,-2.97 1.37,-2.98 1.42,-2.97 0.53,-1.08 0.82,-1.9 1.32,-2.98 1.35,-2.97 1.4,-2.98 0.42,-0.87 0.89,-2.1 1.3,-2.97 1.33,-2.98 1.37,-2.98 0.42,-0.89 0.87,-2.08 1.28,-2.97 1.3,-2.98 1.34,-2.97 0.52,-1.14 0.75,-1.84 1.26,-2.98 1.27,-2.97 1.31,-2.97 0.71,-1.61 0.56,-1.37 1.23,-2.98 1.25,-2.97 1.27,-2.97 1,-2.31 0.27,-0.67 1.2,-2.98 1.22,-2.97 1.24,-2.98 1.27,-2.97 1.18,-2.97 1.19,-2.98 1.22,-2.98 1.23,-2.97 0.6,-1.43 0.6,-1.54 1.16,-2.98 1.19,-2.97 1.2,-2.98 1.16,-2.84 1.19,-3.11 1.16,-2.97 1.17,-2.98 1.19,-2.98 0.6,-1.49 0.56,-1.48 1.12,-2.97 1.15,-2.98 1.16,-2.98 1.17,-2.97 1.11,-2.98 1.12,-2.97 1.13,-2.97 1.14,-2.98 0.96,-2.47 0.18,-0.51 1.09,-2.97 1.1,-2.97 1.12,-2.98 1.13,-2.97 0.69,-1.81 0.42,-1.17 1.07,-2.98 1.09,-2.97 1.1,-2.97 1.11,-2.98 0.52,-1.37 0.57,-1.61 1.06,-2.97 1.07,-2.97 1.09,-2.98 1.09,-2.98 0.43,-1.14 0.63,-1.83 1.05,-2.98 1.06,-2.97 1.07,-2.97 1.08,-2.98 0.42,-1.15 0.63,-1.83 1.03,-2.97 1.04,-2.97 1.05,-2.98 1.07,-2.97 0.49,-1.37 0.54,-1.61 1.02,-2.98 1.03,-2.97 1.03,-2.97 1.05,-2.98 0.64,-1.8 0.39,-1.18 1,-2.97 1.02,-2.97 1.02,-2.98 1.03,-2.98 0.85,-2.43 0.17,-0.54 0.99,-2.98 1,-2.97 1,-2.97 1.02,-2.98 1.02,-2.98 0.98,-2.97 0.98,-2.97 0.99,-2.98 0.99,-2.97 1.01,-2.98 0.47,-1.37 0.51,-1.6 0.97,-2.98 0.97,-2.97 0.98,-2.98 0.99,-2.98 0.88,-2.63 1.07,-3.32 0.95,-2.97 0.97,-2.98 0.97,-2.97 0.98,-2.97 0.37,-1.12 0.59,-1.86 0.94,-2.97 0.95,-2.98 0.96,-2.98 0.97,-2.97 0.9,-2.78 0.99,-3.17 0.94,-2.97 0.94,-2.98 0.95,-2.97 0.95,-2.98 0.54,-1.67 0.41,-1.3 0.92,-2.98 0.92,-2.98 0.94,-2.97 0.94,-2.98 0.94,-2.97 0.24,-0.75 0.68,-2.23 0.91,-2.97 0.92,-2.97 0.93,-2.98 0.93,-2.97 0.93,-2.98 0.9,-2.98 0.91,-2.97 0.91,-2.98 0.91,-2.97 0.92,-2.97 0.77,-2.47 0.15,-0.51 0.89,-2.97 0.9,-2.98 0.9,-2.98 0.9,-2.97 0.92,-2.97 0.65,-2.13 0.25,-0.85 0.88,-2.98 0.89,-2.97 0.89,-2.98 0.9,-2.97 0.9,-2.975 0.6,-1.967 0.29,-1.008 0.88,-2.975 0.87,-2.975 0.89,-2.975 0.88,-2.975 0.9,-2.975 0.6,-1.998 0.28,-0.977 0.87,-2.975 0.86,-2.975 0.88,-2.975 0.88,-2.975 0.88,-2.975 0.66,-2.214 0.22,-0.761 0.85,-2.975 0.86,-2.975 0.87,-2.975 0.86,-2.975 0.88,-2.975 0.77,-2.613 0.95,-3.337 0.85,-2.975 0.85,-2.975 0.86,-2.975 0.87,-2.975 0.86,-2.975 0.84,-2.975 0.85,-2.975 0.84,-2.975 0.85,-2.975 0.86,-2.975 0.85,-2.975 0.29,-0.9754 L 796.96,2.975 797.8,0 m -323.62,630.7 0.05,-2.98 0.24,-2.97 0.44,-2.97 0.62,-2.98 0.81,-2.97 1,-2.98 0.5,-1.26 1.01,-1.71 2.02,-2.98 2.28,-2.96 4.37,-2.99 0.94,-0.58 5.31,-1.3 9.91,1.88 0.71,0.26 4.59,2.71 0.72,0.48 2.95,2.5 2.36,2.28 0.63,0.7 2.34,2.97 1.96,2.98 0.38,0.7 1.16,2.27 1.16,2.98 0.8,2.97 0.45,2.97 0.1,2.98 m 49.94,0 0.11,2.97 0.28,2.98 0.43,2.97 0.58,2.98 0.74,2.98 0.9,2.97 1.06,2.98 0.69,1.69 1.45,4.25 1.17,2.98 1.28,2.97 1.41,2.98 1.21,2.98 1.31,2.97 1.4,2.98 1.39,2.75 1.39,3.2 1.38,2.97 1.46,2.97 1.08,2.1 1.73,3.85 1.41,2.98 1.48,2.97 0.69,1.34 2.08,4.62 1.42,2.97 1.48,2.98 0.33,0.64 2.39,5.3 1.42,2.98 1.46,2.97 2.67,5.96 1.39,2.97 1.29,2.66 1.43,3.29 1.34,2.98 1.37,2.97 1.17,2.46 0.22,0.51 1.28,2.98 1.31,2.97 1.35,2.98 1.15,2.47 1.47,3.48 1.29,2.98 1.32,2.97 1.23,2.71 1.34,3.24 1.26,2.97 1.29,2.98 1.32,2.97 2.46,5.96 1.26,2.97 1.29,2.98 0.39,0.9 2.04,5.05 1.23,2.97 1.26,2.97 0.78,1.85 1.63,4.1 1.2,2.98 1.23,2.97 1.24,2.98 1.15,2.98 1.18,2.97 1.19,2.98 1.21,2.97 0.59,1.43 0.59,1.54 1.14,2.98 1.17,2.97 1.18,2.98 1.19,2.98 2.26,5.95 1.15,2.97 1.17,2.98 0.77,1.95 0.38,1.02 1.11,2.97 1.12,2.98 1.13,2.97 1.15,2.98 0.42,1.07 0.69,1.9 1.1,2.98 1.11,2.98 1.12,2.97 1.13,2.98 2.16,5.94 1.1,2.98 1.1,2.97 1.11,2.95 1.07,3.01 1.06,2.97 1.08,2.98 1.09,2.97 1.01,2.73 1.13,3.22 1.05,2.97 1.06,2.98 1.07,2.97 1,2.73 1.11,3.22 1.04,2.98 1.04,2.98 1.06,2.97 1.06,2.94 1.02,3.01 m -227.68,-321.3 0.14,2.97 0.33,2.98 0.52,2.97 0.71,2.98 0.9,2.98 1.06,2.88 1.92,3.07 2.15,2.97 1.24,1.52 2.01,1.45 3.3,2.15 5.31,1.33 5.31,-0.35 5.31,-1.83 2.29,-1.3 3.02,-1.89 1.35,-1.08 3.28,-2.97 0.68,-0.71 1.91,-2.27 2.14,-2.97 1.26,-2.12 0.49,-0.86 1.32,-2.98 0.98,-2.97 0.61,-2.98 0.27,-2.97"
             id="path2061" />
          <title
             id="title2063">Implicit Curve eq1</title>
          <desc
             id="desc2065">eq1: -x³ + x + y² = 0</desc>
        </g>
        <!-- drawing style -->
      </g>
      <!-- clip110 -->
      <clipPath
         id="clipa9e68ddc-5fa7-47d0-810f-ec60bd79a7b6">
        <path
           d="M 0,0 V 952 H 1699 V 0 Z"
           id="path2071" />
      </clipPath>
      <g
         clip-path="url(#clip111)"
         id="g2082">
        <!-- drawing style -->
      </g>
      <!-- clip111 -->
      <g
         clip-path="url(#clip133)"
         id="g2931"
         transform="matrix(2.1823692,0,0,4.6782835,471.63862,-547.98798)">
        <g
           stroke-opacity="0.69804"
           stroke-linejoin="round"
           stroke-width="2.5"
           fill="none"
           stroke="#000000"
           stroke-linecap="round"
           id="g2929">
          <path
             d="m 215.44,315.65 0.1,-1.48 1.58,-1.28 1.45,-1.66 1.34,-1.48 0.83,-0.77 0.53,-0.71 1.28,-1.36 1.32,-1.58 0.49,-0.51 0.76,-0.97 1.05,-1.19 1.4,-1.76 1.18,-1.48 1.04,-1.25 1.29,-1.69 0.52,-0.62 0.62,-0.86 1.14,-1.48 1.08,-1.47 0.78,-1 1.4,-1.95 0.41,-0.53 0.65,-0.95 1.07,-1.47 1.02,-1.48 0.88,-1.21 1.17,-1.73 0.64,-0.9 0.37,-0.58 1,-1.48 0.44,-0.61 0.55,-0.86 0.98,-1.47 0.97,-1.48 0.97,-1.47 0.94,-1.48 0.96,-1.48 0.92,-1.47 0.94,-1.46 0.92,-1.49 0.89,-1.42 0.93,-1.53 0.88,-1.41 0.92,-1.54 0.89,-1.46 0.88,-1.49 0.89,-1.47 0.86,-1.48 0.87,-1.47 0.85,-1.48 0.87,-1.48 0.84,-1.47 0.85,-1.48 0.33,-0.56 0.5,-0.91 0.84,-1.47 0.47,-0.82 0.36,-0.66 0.82,-1.47 0.63,-1.11 1,-1.84 0.81,-1.45 0.81,-1.51 0.81,-1.47 0.79,-1.48 0.8,-1.47 0.41,-0.74 0.38,-0.74 0.78,-1.47 0.64,-1.19 0.92,-1.76 0.79,-1.47 0.76,-1.48 0.77,-1.48 0.38,-0.72 0.39,-0.75 0.75,-1.48 0.67,-1.28 0.84,-1.66 0.76,-1.48 0.75,-1.47 0.74,-1.48 0.53,-1.04 0.95,-1.91 0.74,-1.48 0.73,-1.47 0.73,-1.48 0.47,-0.94 0.26,-0.53 0.72,-1.48 0.73,-1.47 0.71,-1.47 0.72,-1.48 0.48,-0.98 0.94,-1.97 0.71,-1.48 0.7,-1.47 0.7,-1.48 0.57,-1.16 0.83,-1.78 0.7,-1.48 0.28,-0.57 0.41,-0.9 0.69,-1.48 0.7,-1.47 0.68,-1.48 0.68,-1.48 0.46,-0.96 0.23,-0.51 0.67,-1.48 0.69,-1.47 0.67,-1.48 0.67,-1.47 0.68,-1.47 0.66,-1.48 0.67,-1.47 0.48,-1.06 0.85,-1.9 0.66,-1.47 0.3,-0.67 0.36,-0.81 0.65,-1.47 0.67,-1.47 0.64,-1.48 0.66,-1.47 0.64,-1.46 0.65,-1.49 0.65,-1.48 0.51,-1.15 0.78,-1.8 0.64,-1.48 0.39,-0.88 0.25,-0.59 0.63,-1.48 0.64,-1.47 0.29,-0.66 0.35,-0.81 0.63,-1.48 0.63,-1.47 0.63,-1.48 0.63,-1.48 0.63,-1.47 0.62,-1.48 0.62,-1.47 0.63,-1.47 0.61,-1.48 0.62,-1.47 0.62,-1.48 0.61,-1.48 0.62,-1.47 0.6,-1.43 0.62,-1.52 0.61,-1.48 0.58,-1.37 0.64,-1.58 0.6,-1.47 0.57,-1.36 0.64,-1.59 0.6,-1.48 0.57,-1.37 0.63,-1.57 0.6,-1.48 0.57,-1.412 0.62,-1.538 0.59,-1.475 0.6,-1.475 0.59,-1.475 0.59,-1.475 0.59,-1.475 0.58,-1.475 0.59,-1.475 0.59,-1.475 0.58,-1.475 0.58,-1.475 0.59,-1.475 0.57,-1.475 0.58,-1.475 0.58,-1.475 0.23,-0.576 0.35,-0.899 0.57,-1.475 0.58,-1.475 0.31,-0.791 0.26,-0.684 0.57,-1.475 0.58,-1.475 0.4,-1.034 0.73,-1.916 0.57,-1.475 0.51,-1.305 0.63,-1.645 0.56,-1.475 0.57,-1.475 0.56,-1.475 0.56,-1.475 0.56,-1.475 0.56,-1.475 0.56,-1.475 0.56,-1.475 0.31,-0.81 0.25,-0.665 0.55,-1.475 0.56,-1.475 0.45,-1.193 0.65,-1.757 0.55,-1.475 0.56,-1.475 0.54,-1.475 0.55,-1.475 0.55,-1.475 0.22,-0.565 0.33,-0.91 0.54,-1.475 0.55,-1.475 0.39,-1.029 0.7,-1.921 0.54,-1.475 0.55,-1.475 0.53,-1.475 0.54,-1.475 0.55,-1.475 0.2,-0.563 0.33,-0.912 0.54,-1.475 0.54,-1.475 0.4,-1.108 0.67,-1.842 0.53,-1.475 0.54,-1.475 0.53,-1.475 0.53,-1.475 0.53,-1.475 0.29,-0.8019 L 369.35,2.95 369.88,1.475 370.41,0 m -154.97,315.65 1.61,1.47 1.88,1.91 0.82,1.05 0.99,0.94 0.39,0.53 1.34,1.47 1.89,2.15 1.81,2.18 1.25,1.57 0.56,0.63 1.81,2.29 1.15,1.51 0.66,0.79 1.62,2.16 1.09,1.47 0.91,1.18 1.27,1.78 0.54,0.7 1.59,2.24 1.03,1.48 1,1.39 1.05,1.56 0.76,1.07 1.25,1.88 0.56,0.79 0.43,0.68 0.99,1.48 0.38,0.56 1.55,2.39 0.95,1.47 0.96,1.48 0.92,1.48 0.95,1.47 0.91,1.48 0.93,1.47 0.89,1.47 0.92,1.48 0.88,1.48 0.9,1.47 0.88,1.47 0.88,1.48 0.87,1.47 0.87,1.48 1.71,2.95 0.32,0.53 0.53,0.94 0.84,1.48 0.44,0.74 0.4,0.74 0.84,1.47 0.57,0.99 1.08,1.96 0.73,1.28 0.91,1.67 0.82,1.48 1.6,2.94 0.29,0.51 0.51,0.97 0.79,1.48 0.51,0.91 1.07,2.03 0.73,1.37 0.83,1.58 0.78,1.48 0.77,1.48 0.77,1.47 0.47,0.9 1.05,2.05 0.76,1.46 0.76,1.49 0.75,1.47 0.3,0.58 0.45,0.9 0.74,1.48 0.62,1.21 0.86,1.74 0.74,1.47 0.73,1.47 0.73,1.48 0.56,1.12 0.89,1.83 0.73,1.47 1.43,2.95 0.57,1.16 0.85,1.8 0.72,1.47 1.4,2.95 0.65,1.34 0.75,1.61 0.7,1.47 0.36,0.75 1.02,2.21 0.7,1.47 0.68,1.48 0.68,1.47 0.54,1.14 0.82,1.81 0.68,1.48 0.31,0.64 1.04,2.3 0.68,1.48 1.33,2.95 0.56,1.24 0.77,1.71 0.66,1.47 0.38,0.85 0.28,0.63 m -142.84,-156.35 0.01,-1.48 0.09,-1.47 0.19,-1.47 0.28,-1.48 0.37,-1.48 0.46,-1.47 0.64,-1.47 0.75,-1.48 0.45,-0.78 0.48,-0.69 1.15,-1.48 1.51,-1.48 2.02,-1.47 2.08,-1.04 1.26,-0.43 0.55,-0.18 1.81,-0.36 1.81,-0.16 1.81,0.02 1.81,0.17 1.81,0.32 0.77,0.19 1.04,0.27 1.8,0.58 1.65,0.62 3.2,1.47 0.58,0.32 1.81,1 1.81,1.1 0.86,0.54 0.95,0.65 1.22,0.82 0.59,0.45 1.41,1.03 2.21,1.76 1.48,1.18 2.14,1.93 1.25,1.03 0.56,0.66 1.1,0.81 0.71,1 m -48.48,1.95 0.09,1.47 0.17,1.48 0.27,1.48 0.36,1.47 0.45,1.47 0.61,1.48 0.74,1.48 0.55,0.95 1.49,1.99 2.13,2.07 1.28,0.89 0.53,0.34 1.81,0.88 1.81,0.59 3.62,0.53 1.81,-0.02 1.81,-0.17 1.81,-0.32 1.46,-0.36 2.15,-0.68 1.81,-0.69 1.81,-0.81 1.57,-0.77 2.05,-1.14 0.59,-0.34 1.22,-0.77 1.13,-0.7 0.68,-0.48 1.46,-0.99 1.99,-1.48 1.87,-1.48 1.78,-1.47 1.71,-1.47 1.67,-1.48 1.66,-1.48 0.53,-0.84"
             id="path2923" />
          <title
             id="title2925">Implicit Curve eq1</title>
          <desc
             id="desc2927">eq1: -x³ - x² + y² = 0</desc>
        </g>
        <!-- drawing style -->
      </g>
      <path
         style="fill:#000000;stroke-width:2.68529;stroke:#000000;stroke-opacity:1"
         d="M 369.53971,2227.8943 62.727371,3283.0264"
         id="path3117" />
      <path
         style="fill:#000000;stroke:#000000;stroke-width:2.68529;stroke-opacity:1"
         d="M 96.253695,2278.9997 374.86571,3313.472"
         id="path3796" />
      <g
         clip-path="url(#clip133)"
         id="g10808"
         transform="matrix(1.3887685,0,0,2.977064,766.73293,2448.1803)"
         style="stroke-width:1;stroke-linecap:square;stroke-linejoin:miter;stroke-miterlimit:10;stroke-dasharray:none;stroke-dashoffset:0">
        <g
           stroke-opacity="0.69804"
           stroke-linejoin="round"
           stroke-width="2.5"
           fill="none"
           stroke="#000000"
           stroke-linecap="round"
           id="g10806">
          <path
             d="m 65,-135 c 100,600 200,600 300,0"
             id="path10800" />
          <title
             id="title10802">Parabola f</title>
          <desc
             id="desc10804">f: y = x²</desc>
        </g>
        <!-- drawing style -->
      </g>
    </g>
  </g>
</svg>
