<?xml version="1.0" encoding="UTF-8" standalone="no"?>
<!-- Created with Inkscape (http://www.inkscape.org/) -->

<svg
   width="210mm"
   height="297mm"
   viewBox="0 0 210 297"
   version="1.1"
   id="svg5"
   sodipodi:docname="non_affine_variety.svg"
   inkscape:version="1.2.2 (b0a8486541, 2022-12-01)"
   xmlns:inkscape="http://www.inkscape.org/namespaces/inkscape"
   xmlns:sodipodi="http://sodipodi.sourceforge.net/DTD/sodipodi-0.dtd"
   xmlns="http://www.w3.org/2000/svg"
   xmlns:svg="http://www.w3.org/2000/svg">
  <sodipodi:namedview
     id="namedview7"
     pagecolor="#ffffff"
     bordercolor="#000000"
     borderopacity="0.25"
     inkscape:showpageshadow="2"
     inkscape:pageopacity="0.0"
     inkscape:pagecheckerboard="0"
     inkscape:deskcolor="#d1d1d1"
     inkscape:document-units="mm"
     showgrid="false"
     inkscape:zoom="1.2508687"
     inkscape:cx="363.74721"
     inkscape:cy="684.32443"
     inkscape:window-width="1888"
     inkscape:window-height="1008"
     inkscape:window-x="13"
     inkscape:window-y="53"
     inkscape:window-maximized="1"
     inkscape:current-layer="layer1" />
  <defs
     id="defs2">
    <clipPath
       id="clipPath9552">
      <path
         clip-rule="nonzero"
         d="m 14,1 h 5 v 20.890625 h -5 z m 0,0"
         id="path2912" />
    </clipPath>
    <clipPath
       id="clipPath9869">
      <path
         clip-rule="nonzero"
         d="m 51,1 h 6 v 20.890625 h -6 z m 0,0"
         id="path4314" />
    </clipPath>
  </defs>
  <g
     inkscape:label="Layer 1"
     inkscape:groupmode="layer"
     id="layer1">
    <g
       id="g1669"
       transform="translate(-31.910126,-2.8573036)">
      <g
         id="g1566"
         transform="translate(31.909086,6.0851083)">
        <path
           style="fill:none;fill-opacity:1;stroke:#000000;stroke-width:0.5;stroke-dasharray:none;stroke-dashoffset:0;stroke-opacity:1"
           id="path390"
           sodipodi:type="arc"
           sodipodi:cx="92.546768"
           sodipodi:cy="119.04512"
           sodipodi:rx="32.125751"
           sodipodi:ry="1.6062875"
           sodipodi:start="0"
           sodipodi:end="3.1415927"
           sodipodi:open="true"
           sodipodi:arc-type="arc"
           d="m 124.67252,119.04512 a 32.125751,1.6062875 0 0 1 -16.06288,1.39109 32.125751,1.6062875 0 0 1 -32.125748,0 32.125751,1.6062875 0 0 1 -16.062875,-1.39109" />
        <path
           style="fill:none;fill-opacity:1;stroke:#000000;stroke-width:0.499999;stroke-dasharray:none;stroke-dashoffset:0;stroke-opacity:1"
           d="m 60.421014,119.04511 c 0,0 6.008613,71.46244 32.125751,71.46244 26.117135,0 32.125755,-71.46244 32.125755,-71.46244"
           id="path1210"
           sodipodi:nodetypes="csc" />
        <path
           style="fill:none;fill-opacity:1;stroke:#000000;stroke-width:0.5;stroke-dasharray:none;stroke-dashoffset:0;stroke-opacity:1"
           id="path390-3"
           sodipodi:type="arc"
           sodipodi:cx="92.546776"
           sodipodi:cy="-119.04512"
           sodipodi:rx="32.125751"
           sodipodi:ry="1.6062875"
           sodipodi:start="0"
           sodipodi:end="3.1415927"
           sodipodi:open="true"
           sodipodi:arc-type="arc"
           d="m 124.67253,-119.04512 a 32.125751,1.6062875 0 0 1 -16.06288,1.39109 32.125751,1.6062875 0 0 1 -32.125751,0 32.125751,1.6062875 0 0 1 -16.062875,-1.39109"
           transform="scale(1,-1)" />
        <path
           style="fill:#666666;fill-opacity:1;stroke:#000000;stroke-width:0.282646;stroke-dasharray:none;stroke-dashoffset:0;stroke-opacity:1"
           d="m 89.928948,189.91414 c -7.222726,-1.56695 -13.442386,-8.82317 -18.455251,-21.53097 -4.890826,-12.39844 -8.354502,-28.12989 -10.63113,-48.28487 -0.04527,-0.40077 -0.02257,-0.41869 0.424272,-0.33486 1.003337,0.18823 4.768559,0.52575 7.556265,0.67737 11.700052,0.63633 36.098266,0.63573 47.487516,-0.001 2.77206,-0.15502 6.51054,-0.49405 7.50502,-0.68062 l 0.49563,-0.093 -0.0782,0.65219 c -0.043,0.35871 -0.2795,2.33483 -0.52549,4.39137 -2.33993,19.56318 -6.86027,37.42942 -12.35292,48.82386 -2.94397,6.10722 -6.40385,10.79559 -9.92869,13.45403 -1.956679,1.47574 -4.486942,2.61859 -6.643032,3.00048 -1.213934,0.21501 -3.696591,0.17725 -4.85395,-0.0738 z"
           id="path1432" />
        <path
           style="fill:#808080;fill-opacity:1;stroke:#000000;stroke-width:0.0706615;stroke-dasharray:none;stroke-dashoffset:0;stroke-opacity:1"
           d="m 84.321983,120.33406 c -8.728078,-0.12922 -15.762954,-0.40718 -19.911105,-0.78672 -0.743551,-0.068 -1.846916,-0.19161 -2.178069,-0.24395 l -0.140218,-0.0222 v -0.23648 -0.23647 l 0.140218,-0.0221 c 0.404776,-0.0639 1.492375,-0.18223 2.420536,-0.26343 4.526377,-0.39598 11.241677,-0.64918 20.472561,-0.77192 3.630522,-0.0483 14.811734,-0.0243 17.835864,0.0383 11.09921,0.22963 17.70369,0.58574 20.55075,1.10809 0.70091,0.1286 0.72772,0.14276 0.40723,0.21516 -2.47356,0.55876 -9.2383,0.94317 -20.92059,1.18883 -2.34591,0.0493 -15.948754,0.0733 -18.677177,0.0329 z"
           id="path1505" />
      </g>
      <path
         style="fill:none;fill-opacity:1;stroke:#000000;stroke-width:0.499999;stroke-dasharray:none;stroke-dashoffset:0;stroke-opacity:1"
         d="M 124.20569,199.87099 V 111.44641"
         id="path1574" />
      <path
         style="fill:none;fill-opacity:1;stroke:#000000;stroke-width:0.5;stroke-dasharray:none;stroke-dashoffset:0;stroke-opacity:1"
         d="M 92.709857,191.25456 163.94106,210.3409"
         id="path1578" />
      <path
         style="fill:none;fill-opacity:1;stroke:#000000;stroke-width:0.5;stroke-dasharray:none;stroke-dashoffset:0;stroke-opacity:1"
         d="M 159.82129,190.32782 88.590088,209.41416"
         id="path1578-6" />
    </g>
    <g
       inkscape:label=""
       transform="translate(124.9206,130.51083)"
       id="g1744">
      <g
         fill="#000000"
         fill-opacity="1"
         id="g47"
         transform="matrix(0.352778,0,0,0.352778,-0.369314,0.100983)">
        <g
           id="use45"
           transform="translate(0,16.743999)">
          <path
             d="m 9.21875,-8.296875 c 0.40625,0 0.578125,0 0.578125,-0.40625 C 9.796875,-8.90625 9.625,-8.90625 9.25,-8.90625 H 7.578125 c 0.390625,-2.125 0.6875,-3.59375 0.84375,-4.25 0.125,-0.5 0.5625,-0.96875 1.09375,-0.96875 0.4375,0 0.875,0.1875 1.078125,0.375 -0.796875,0.07813 -1.046875,0.671875 -1.046875,1.03125 0,0.40625 0.3125,0.65625 0.703125,0.65625 0.40625,0 1.03125,-0.359375 1.03125,-1.140625 0,-0.859375 -0.875,-1.34375 -1.78125,-1.34375 -0.890625,0 -1.75,0.671875 -2.171875,1.46875 C 6.96875,-12.359375 6.75,-11.609375 6.28125,-8.90625 H 4.890625 c -0.390625,0 -0.59375,0 -0.59375,0.375 0,0.234375 0.125,0.234375 0.53125,0.234375 H 6.15625 C 5.78125,-6.375 4.9375,-1.71875 4.46875,0.5 4.109375,2.296875 3.796875,3.796875 2.765625,3.796875 c -0.0625,0 -0.65625,0 -1.03125,-0.390625 C 2.78125,3.328125 2.78125,2.421875 2.78125,2.390625 c 0,-0.40625 -0.296875,-0.65625 -0.6875,-0.65625 -0.421875,0 -1.046875,0.359375 -1.046875,1.140625 0,0.890625 0.921875,1.34375 1.71875,1.34375 C 4.875,4.21875 5.75,0.4375 5.96875,-0.59375 6.34375,-2.1875 7.359375,-7.6875 7.453125,-8.296875 Z m 0,0"
             id="path107" />
        </g>
      </g>
      <g
         clip-path="url(#clipPath9552)"
         id="g53"
         transform="matrix(0.352778,0,0,0.352778,-0.369314,0.100983)">
        <g
           fill="#000000"
           fill-opacity="1"
           id="g51">
          <g
             id="use49"
             transform="translate(12.179,16.743999)">
            <path
               d="m 6.328125,5.046875 c 0,-0.03125 0,-0.0625 -0.0625,-0.125 -0.953125,-0.96875 -3.5,-3.625 -3.5,-10.0625 0,-6.453125 2.5,-9.078125 3.515625,-10.109375 0,-0.01563 0.046875,-0.0625 0.046875,-0.125 0,-0.0625 -0.0625,-0.09375 -0.15625,-0.09375 -0.21875,0 -1.984375,1.53125 -2.984375,3.796875 -1.046875,2.296875 -1.328125,4.53125 -1.328125,6.5 0,1.5 0.140625,4.015625 1.390625,6.6875 0.984375,2.140625 2.671875,3.65625 2.921875,3.65625 0.109375,0 0.15625,-0.046875 0.15625,-0.125 z m 0,0"
               id="path111" />
          </g>
        </g>
      </g>
      <g
         fill="#000000"
         fill-opacity="1"
         id="g59"
         transform="matrix(0.352778,0,0,0.352778,-0.369314,0.100983)">
        <g
           id="use55"
           transform="translate(19.496,16.743999)">
          <path
             d="m 9.796875,-8.421875 c -0.671875,0.125 -0.921875,0.609375 -0.921875,1 0,0.5 0.40625,0.671875 0.6875,0.671875 0.625,0 1.0625,-0.546875 1.0625,-1.09375 0,-0.875 -1,-1.265625 -1.859375,-1.265625 -1.265625,0 -1.96875,1.234375 -2.15625,1.625 -0.46875,-1.546875 -1.75,-1.625 -2.125,-1.625 -2.109375,0 -3.21875,2.703125 -3.21875,3.15625 0,0.09375 0.078125,0.1875 0.21875,0.1875 0.171875,0 0.203125,-0.125 0.25,-0.203125 0.703125,-2.296875 2.09375,-2.734375 2.6875,-2.734375 0.921875,0 1.109375,0.875 1.109375,1.375 0,0.453125 -0.125,0.921875 -0.359375,1.921875 L 4.46875,-2.578125 c -0.3125,1.234375 -0.921875,2.375 -2.015625,2.375 -0.09375,0 -0.609375,0 -1.046875,-0.265625 C 2.140625,-0.625 2.3125,-1.234375 2.3125,-1.484375 2.3125,-1.90625 2,-2.140625 1.609375,-2.140625 c -0.5,0 -1.03125,0.421875 -1.03125,1.09375 0,0.859375 0.96875,1.25 1.859375,1.25 0.984375,0 1.6875,-0.78125 2.125,-1.625 0.328125,1.21875 1.359375,1.625 2.125,1.625 2.109375,0 3.234375,-2.703125 3.234375,-3.15625 0,-0.109375 -0.09375,-0.1875 -0.21875,-0.1875 -0.1875,0 -0.203125,0.109375 -0.265625,0.265625 -0.5625,1.828125 -1.75,2.671875 -2.6875,2.671875 -0.71875,0 -1.109375,-0.546875 -1.109375,-1.390625 0,-0.453125 0.078125,-0.78125 0.40625,-2.140625 l 0.734375,-2.8125 c 0.296875,-1.234375 1,-2.15625 1.953125,-2.15625 0.046875,0 0.625,0 1.0625,0.28125 z m 0,0"
             id="path115" />
        </g>
        <g
           id="use57"
           transform="translate(30.992615,16.743999)">
          <path
             d="M 4.03125,0.078125 C 4.03125,-1.109375 3.640625,-2 2.78125,-2 2.125,-2 1.796875,-1.46875 1.796875,-1.015625 1.796875,-0.5625 2.109375,0 2.8125,0 3.078125,0 3.3125,-0.078125 3.484375,-0.265625 3.53125,-0.3125 3.546875,-0.3125 3.578125,-0.3125 c 0.03125,0 0.03125,0.296875 0.03125,0.390625 0,0.6875 -0.125,2.03125 -1.3125,3.375 C 2.0625,3.703125 2.0625,3.734375 2.0625,3.78125 c 0,0.109375 0.109375,0.203125 0.203125,0.203125 0.171875,0 1.765625,-1.53125 1.765625,-3.90625 z m 0,0"
             id="path119" />
        </g>
      </g>
      <g
         fill="#000000"
         fill-opacity="1"
         id="g63"
         transform="matrix(0.352778,0,0,0.352778,-0.369314,0.100983)">
        <g
           id="use61"
           transform="translate(40.063454,16.743999)">
          <path
             d="m 5.4375,2.3125 c -0.5625,0.78125 -1.375,1.484375 -2.375,1.484375 -0.25,0 -1.25,-0.03125 -1.546875,-0.984375 C 1.5625,2.828125 1.671875,2.828125 1.71875,2.828125 2.328125,2.828125 2.75,2.296875 2.75,1.8125 2.75,1.34375 2.359375,1.171875 2.046875,1.171875 c -0.328125,0 -1.0625,0.25 -1.0625,1.265625 0,1.046875 0.890625,1.78125 2.078125,1.78125 2.0625,0 4.140625,-1.90625 4.71875,-4.203125 L 9.8125,-8.03125 c 0.015625,-0.109375 0.0625,-0.234375 0.0625,-0.359375 0,-0.3125 -0.25,-0.515625 -0.5625,-0.515625 -0.1875,0 -0.609375,0.09375 -0.78125,0.703125 L 7,-2.125 c -0.09375,0.375 -0.09375,0.40625 -0.265625,0.640625 -0.40625,0.578125 -1.09375,1.28125 -2.09375,1.28125 -1.15625,0 -1.25,-1.140625 -1.25,-1.703125 0,-1.171875 0.5625,-2.765625 1.109375,-4.25 0.234375,-0.59375 0.359375,-0.890625 0.359375,-1.296875 0,-0.875 -0.625,-1.65625 -1.640625,-1.65625 -1.890625,0 -2.65625,3 -2.65625,3.15625 0,0.09375 0.078125,0.1875 0.21875,0.1875 0.1875,0 0.203125,-0.078125 0.296875,-0.375 0.484375,-1.734375 1.28125,-2.5625 2.078125,-2.5625 0.1875,0 0.546875,0 0.546875,0.6875 0,0.53125 -0.234375,1.140625 -0.546875,1.921875 -1.015625,2.703125 -1.015625,3.390625 -1.015625,3.890625 0,1.953125 1.40625,2.40625 2.4375,2.40625 0.609375,0 1.34375,-0.1875 2.078125,-0.953125 l 0.015625,0.03125 C 6.359375,0.5 6.15625,1.296875 5.4375,2.3125 Z m 0,0"
             id="path123" />
        </g>
      </g>
      <g
         clip-path="url(#clipPath9869)"
         id="g69"
         transform="matrix(0.352778,0,0,0.352778,-0.369314,0.100983)">
        <g
           fill="#000000"
           fill-opacity="1"
           id="g67">
          <g
             id="use65"
             transform="translate(50.662998,16.743999)">
            <path
               d="m 5.4375,-5.140625 c 0,-1.484375 -0.15625,-4.015625 -1.390625,-6.671875 -0.984375,-2.15625 -2.6875,-3.65625 -2.9375,-3.65625 -0.0625,0 -0.140625,0.01563 -0.140625,0.125 0,0.03125 0.015625,0.0625 0.046875,0.09375 C 2,-14.21875 4.53125,-11.59375 4.53125,-5.171875 4.53125,1.28125 2.03125,3.90625 1.015625,4.9375 0.984375,4.984375 0.96875,5 0.96875,5.046875 c 0,0.09375 0.078125,0.125 0.140625,0.125 0.234375,0 1.984375,-1.53125 3,-3.8125 1.03125,-2.28125 1.328125,-4.515625 1.328125,-6.5 z m 0,0"
               id="path127" />
          </g>
        </g>
      </g>
      <g
         fill="#000000"
         fill-opacity="1"
         id="g73"
         transform="matrix(0.352778,0,0,0.352778,-0.369314,0.100983)">
        <g
           id="use71"
           transform="translate(63.723766,16.743999)">
          <path
             d="m 13.28125,-6.625 c 0.3125,0 0.625,0 0.625,-0.359375 0,-0.375 -0.359375,-0.375 -0.703125,-0.375 H 1.65625 c -0.359375,0 -0.703125,0 -0.703125,0.375 0,0.359375 0.3125,0.359375 0.609375,0.359375 z m -0.07813,3.671875 c 0.34375,0 0.703125,0 0.703125,-0.375 0,-0.34375 -0.3125,-0.34375 -0.625,-0.34375 H 1.5625 c -0.296875,0 -0.609375,0 -0.609375,0.34375 0,0.375 0.34375,0.375 0.703125,0.375 z m 0,0"
             id="path131" />
        </g>
      </g>
      <g
         fill="#000000"
         fill-opacity="1"
         id="g77"
         transform="matrix(0.352778,0,0,0.352778,-0.369314,0.100983)">
        <g
           id="use75"
           transform="translate(84.333,16.743999)">
          <path
             d="m 9.796875,-8.421875 c -0.671875,0.125 -0.921875,0.609375 -0.921875,1 0,0.5 0.40625,0.671875 0.6875,0.671875 0.625,0 1.0625,-0.546875 1.0625,-1.09375 0,-0.875 -1,-1.265625 -1.859375,-1.265625 -1.265625,0 -1.96875,1.234375 -2.15625,1.625 -0.46875,-1.546875 -1.75,-1.625 -2.125,-1.625 -2.109375,0 -3.21875,2.703125 -3.21875,3.15625 0,0.09375 0.078125,0.1875 0.21875,0.1875 0.171875,0 0.203125,-0.125 0.25,-0.203125 0.703125,-2.296875 2.09375,-2.734375 2.6875,-2.734375 0.921875,0 1.109375,0.875 1.109375,1.375 0,0.453125 -0.125,0.921875 -0.359375,1.921875 L 4.46875,-2.578125 c -0.3125,1.234375 -0.921875,2.375 -2.015625,2.375 -0.09375,0 -0.609375,0 -1.046875,-0.265625 C 2.140625,-0.625 2.3125,-1.234375 2.3125,-1.484375 2.3125,-1.90625 2,-2.140625 1.609375,-2.140625 c -0.5,0 -1.03125,0.421875 -1.03125,1.09375 0,0.859375 0.96875,1.25 1.859375,1.25 0.984375,0 1.6875,-0.78125 2.125,-1.625 0.328125,1.21875 1.359375,1.625 2.125,1.625 2.109375,0 3.234375,-2.703125 3.234375,-3.15625 0,-0.109375 -0.09375,-0.1875 -0.21875,-0.1875 -0.1875,0 -0.203125,0.109375 -0.265625,0.265625 -0.5625,1.828125 -1.75,2.671875 -2.6875,2.671875 -0.71875,0 -1.109375,-0.546875 -1.109375,-1.390625 0,-0.453125 0.078125,-0.78125 0.40625,-2.140625 l 0.734375,-2.8125 c 0.296875,-1.234375 1,-2.15625 1.953125,-2.15625 0.046875,0 0.625,0 1.0625,0.28125 z m 0,0"
             id="path135" />
        </g>
      </g>
      <g
         fill="#000000"
         fill-opacity="1"
         id="g81"
         transform="matrix(0.352778,0,0,0.352778,-0.369314,0.100983)">
        <g
           id="use79"
           transform="translate(95.830002,9.2449999)">
          <path
             d="M 6.3125,-2.40625 H 6 c -0.046875,0.234375 -0.15625,1.03125 -0.3125,1.265625 -0.09375,0.125 -0.90625,0.125 -1.34375,0.125 H 1.6875 c 0.390625,-0.328125 1.265625,-1.25 1.640625,-1.59375 2.1875,-2.015625 2.984375,-2.75 2.984375,-4.171875 0,-1.65625 -1.3125,-2.75 -2.96875,-2.75 -1.671875,0 -2.640625,1.40625 -2.640625,2.640625 0,0.734375 0.625,0.734375 0.671875,0.734375 0.296875,0 0.671875,-0.21875 0.671875,-0.671875 C 2.046875,-7.234375 1.78125,-7.5 1.375,-7.5 1.25,-7.5 1.21875,-7.5 1.171875,-7.484375 1.453125,-8.46875 2.21875,-9.125 3.15625,-9.125 4.375,-9.125 5.125,-8.109375 5.125,-6.78125 5.125,-5.5625 4.421875,-4.5 3.59375,-3.578125 L 0.703125,-0.34375 V 0 H 5.9375 Z m 0,0"
             id="path139" />
        </g>
      </g>
      <g
         fill="#000000"
         fill-opacity="1"
         id="g85"
         transform="matrix(0.352778,0,0,0.352778,-0.369314,0.100983)">
        <g
           id="use83"
           transform="translate(107.943,16.743999)">
          <path
             d="m 7.78125,-4.796875 h 5.484375 c 0.28125,0 0.640625,0 0.640625,-0.34375 0,-0.375 -0.328125,-0.375 -0.640625,-0.375 H 7.78125 v -5.46875 c 0,-0.296875 0,-0.640625 -0.34375,-0.640625 -0.375,0 -0.375,0.328125 -0.375,0.640625 v 5.46875 H 1.59375 c -0.296875,0 -0.640625,0 -0.640625,0.34375 0,0.375 0.328125,0.375 0.640625,0.375 H 7.0625 V 0.6875 c 0,0.28125 0,0.640625 0.359375,0.640625 0.359375,0 0.359375,-0.34375 0.359375,-0.640625 z m 0,0"
             id="path143" />
        </g>
      </g>
      <g
         fill="#000000"
         fill-opacity="1"
         id="g89"
         transform="matrix(0.352778,0,0,0.352778,-0.369314,0.100983)">
        <g
           id="use87"
           transform="translate(127.408,16.743999)">
          <path
             d="m 5.4375,2.3125 c -0.5625,0.78125 -1.375,1.484375 -2.375,1.484375 -0.25,0 -1.25,-0.03125 -1.546875,-0.984375 C 1.5625,2.828125 1.671875,2.828125 1.71875,2.828125 2.328125,2.828125 2.75,2.296875 2.75,1.8125 2.75,1.34375 2.359375,1.171875 2.046875,1.171875 c -0.328125,0 -1.0625,0.25 -1.0625,1.265625 0,1.046875 0.890625,1.78125 2.078125,1.78125 2.0625,0 4.140625,-1.90625 4.71875,-4.203125 L 9.8125,-8.03125 c 0.015625,-0.109375 0.0625,-0.234375 0.0625,-0.359375 0,-0.3125 -0.25,-0.515625 -0.5625,-0.515625 -0.1875,0 -0.609375,0.09375 -0.78125,0.703125 L 7,-2.125 c -0.09375,0.375 -0.09375,0.40625 -0.265625,0.640625 -0.40625,0.578125 -1.09375,1.28125 -2.09375,1.28125 -1.15625,0 -1.25,-1.140625 -1.25,-1.703125 0,-1.171875 0.5625,-2.765625 1.109375,-4.25 0.234375,-0.59375 0.359375,-0.890625 0.359375,-1.296875 0,-0.875 -0.625,-1.65625 -1.640625,-1.65625 -1.890625,0 -2.65625,3 -2.65625,3.15625 0,0.09375 0.078125,0.1875 0.21875,0.1875 0.1875,0 0.203125,-0.078125 0.296875,-0.375 0.484375,-1.734375 1.28125,-2.5625 2.078125,-2.5625 0.1875,0 0.546875,0 0.546875,0.6875 0,0.53125 -0.234375,1.140625 -0.546875,1.921875 -1.015625,2.703125 -1.015625,3.390625 -1.015625,3.890625 0,1.953125 1.40625,2.40625 2.4375,2.40625 0.609375,0 1.34375,-0.1875 2.078125,-0.953125 l 0.015625,0.03125 C 6.359375,0.5 6.15625,1.296875 5.4375,2.3125 Z m 0,0"
             id="path147" />
        </g>
      </g>
      <g
         fill="#000000"
         fill-opacity="1"
         id="g93"
         transform="matrix(0.352778,0,0,0.352778,-0.369314,0.100983)">
        <g
           id="use91"
           transform="translate(138.015,9.2449999)">
          <path
             d="M 6.3125,-2.40625 H 6 c -0.046875,0.234375 -0.15625,1.03125 -0.3125,1.265625 -0.09375,0.125 -0.90625,0.125 -1.34375,0.125 H 1.6875 c 0.390625,-0.328125 1.265625,-1.25 1.640625,-1.59375 2.1875,-2.015625 2.984375,-2.75 2.984375,-4.171875 0,-1.65625 -1.3125,-2.75 -2.96875,-2.75 -1.671875,0 -2.640625,1.40625 -2.640625,2.640625 0,0.734375 0.625,0.734375 0.671875,0.734375 0.296875,0 0.671875,-0.21875 0.671875,-0.671875 C 2.046875,-7.234375 1.78125,-7.5 1.375,-7.5 1.25,-7.5 1.21875,-7.5 1.171875,-7.484375 1.453125,-8.46875 2.21875,-9.125 3.15625,-9.125 4.375,-9.125 5.125,-8.109375 5.125,-6.78125 5.125,-5.5625 4.421875,-4.5 3.59375,-3.578125 L 0.703125,-0.34375 V 0 H 5.9375 Z m 0,0"
             id="path151" />
        </g>
      </g>
      <g
         fill="#000000"
         fill-opacity="1"
         id="g97"
         transform="matrix(0.352778,0,0,0.352778,-0.369314,0.100983)">
        <g
           id="use95"
           transform="translate(150.12801,16.743999)">
          <path
             d="m 7.78125,-4.796875 h 5.484375 c 0.28125,0 0.640625,0 0.640625,-0.34375 0,-0.375 -0.328125,-0.375 -0.640625,-0.375 H 7.78125 v -5.46875 c 0,-0.296875 0,-0.640625 -0.34375,-0.640625 -0.375,0 -0.375,0.328125 -0.375,0.640625 v 5.46875 H 1.59375 c -0.296875,0 -0.640625,0 -0.640625,0.34375 0,0.375 0.328125,0.375 0.640625,0.375 H 7.0625 V 0.6875 c 0,0.28125 0,0.640625 0.359375,0.640625 0.359375,0 0.359375,-0.34375 0.359375,-0.640625 z m 0,0"
             id="path155" />
        </g>
      </g>
      <g
         fill="#000000"
         fill-opacity="1"
         id="g101"
         transform="matrix(0.352778,0,0,0.352778,-0.369314,0.100983)">
        <g
           id="use99"
           transform="translate(169.58794,16.743999)">
          <path
             d="m 5.5,-13.203125 c 0,-0.4375 -0.03125,-0.453125 -0.3125,-0.453125 C 4.375,-12.6875 3.15625,-12.375 2,-12.328125 c -0.0625,0 -0.15625,0 -0.1875,0.03125 -0.015625,0.04687 -0.015625,0.09375 -0.015625,0.515625 0.640625,0 1.71875,-0.109375 2.546875,-0.609375 v 10.875 c 0,0.734375 -0.046875,0.984375 -1.828125,0.984375 H 1.90625 V 0 C 2.890625,-0.015625 3.921875,-0.046875 4.921875,-0.046875 5.90625,-0.046875 6.9375,-0.015625 7.9375,0 V -0.53125 H 7.3125 C 5.53125,-0.53125 5.5,-0.765625 5.5,-1.515625 Z m 0,0"
             id="path159" />
        </g>
      </g>
    </g>
  </g>
</svg>
