<svg version="1.1" xmlns="http://www.w3.org/2000/svg" xmlns:xlink="http://www.w3.org/1999/xlink" width="1920" height="995"><defs><clipPath id="GeTnGtHhhXSS"><path fill="none" stroke="none" d=" M 0 0 L 1920 0 L 1920 995 L 0 995 L 0 0 Z"/></clipPath></defs><g transform="scale(1,1)" clip-path="url(#GeTnGtHhhXSS)"><g><rect fill="rgb(255,255,255)" stroke="none" x="0" y="0" width="1920" height="995" fill-opacity="1"/><path fill="none" stroke="rgb(0,0,0)" paint-order="fill stroke markers" d=" M 431.33772249999987 75.91806874999884 L 431.33772249999987 526.1288187499999" stroke-opacity="0.6980392156862745" stroke-linecap="round" stroke-linejoin="round" stroke-miterlimit="10" stroke-width="2.5"/><path fill="none" stroke="rgb(0,0,0)" paint-order="fill stroke markers" d=" M 431.33772249999987 526.1288187499999 L 131.1972224999996 826.2693187500006" stroke-opacity="0.6980392156862745" stroke-linecap="round" stroke-linejoin="round" stroke-miterlimit="10" stroke-width="2.5"/><path fill="none" stroke="rgb(0,0,0)" paint-order="fill stroke markers" d=" M 1111.1559550000004 526.1288187499999 L 431.33772249999987 526.1288187499999" stroke-opacity="0.6980392156862745" stroke-linecap="round" stroke-linejoin="round" stroke-miterlimit="10" stroke-width="2.5"/><path fill="none" stroke="rgb(204,0,0)" paint-order="fill stroke markers" d=" M 431.33772249999987 526.1288187499999 L 656.4430975 301.0234437499994" stroke-opacity="0.6980392156862745" stroke-linecap="round" stroke-linejoin="round" stroke-miterlimit="10" stroke-width="2.5"/><path fill="none" stroke="rgb(204,0,0)" paint-order="fill stroke markers" d=" M 431.33772249999987 526.1288187499999 L 956.5835975000002 451.0936937499998" stroke-opacity="0.6980392156862745" stroke-linecap="round" stroke-linejoin="round" stroke-miterlimit="10" stroke-width="2.5"/><path fill="none" stroke="rgb(204,0,0)" paint-order="fill stroke markers" d=" M 431.33772249999987 526.1288187499999 L 131.1972224999996 376.0585687499996" stroke-opacity="0.6980392156862745" stroke-linecap="round" stroke-linejoin="round" stroke-miterlimit="10" stroke-width="2.5"/><path fill="none" stroke="rgb(0,0,0)" paint-order="fill stroke markers" d=" M 131.1972224999996 376.0585687499996 L 656.4430975 301.0234437499994" stroke-opacity="0.6980392156862745" stroke-linejoin="round" stroke-miterlimit="10" stroke-width="2.5" stroke-dasharray="10.5,8"/><path fill="none" stroke="rgb(0,0,0)" paint-order="fill stroke markers" d=" M 656.4430975 301.0234437499994 L 956.5835975000002 451.0936937499998" stroke-opacity="0.6980392156862745" stroke-linejoin="round" stroke-miterlimit="10" stroke-width="2.5" stroke-dasharray="10.5,8"/><path fill="none" stroke="rgb(0,0,0)" paint-order="fill stroke markers" d=" M 131.1972224999996 376.0585687499996 L 131.1972224999996 676.1990687500003" stroke-opacity="0.6980392156862745" stroke-linejoin="round" stroke-miterlimit="10" stroke-width="2.5" stroke-dasharray="6.5,4"/><path fill="none" stroke="rgb(0,0,0)" paint-order="fill stroke markers" d=" M 431.33772249999987 526.1288187499999 L 281.2674724999997 526.1288187499999" stroke-opacity="0.6980392156862745" stroke-linecap="round" stroke-linejoin="round" stroke-miterlimit="10" stroke-width="2.5"/><path fill="none" stroke="rgb(0,0,0)" paint-order="fill stroke markers" d=" M 131.1972224999996 676.1990687500003 L 281.2674724999997 526.1288187499999" stroke-opacity="0.6980392156862745" stroke-linejoin="round" stroke-miterlimit="10" stroke-width="2.5" stroke-dasharray="6.5,4"/><path fill="none" stroke="rgb(0,0,0)" paint-order="fill stroke markers" d=" M 656.4430975 301.0234437499994 L 656.4430975 751.2341937500005" stroke-opacity="0.6980392156862745" stroke-linejoin="round" stroke-miterlimit="10" stroke-width="2.5" stroke-dasharray="6.5,4"/><path fill="none" stroke="rgb(0,0,0)" paint-order="fill stroke markers" d=" M 656.4430975 751.2341937500005 L 881.5484725000003 526.1288187499999" stroke-opacity="0.6980392156862745" stroke-linejoin="round" stroke-miterlimit="10" stroke-width="2.5" stroke-dasharray="6.5,4"/><path fill="none" stroke="rgb(0,0,0)" paint-order="fill stroke markers" d=" M 956.5835975000002 451.0936937499998 L 956.5835975000002 676.1990687500003" stroke-opacity="0.6980392156862745" stroke-linejoin="round" stroke-miterlimit="10" stroke-width="2.5" stroke-dasharray="6.5,4"/><path fill="none" stroke="rgb(0,0,0)" paint-order="fill stroke markers" d=" M 956.5835975000002 676.1990687500003 L 1079.6412025000004 526.1288187499999" stroke-opacity="0.6980392156862745" stroke-linejoin="round" stroke-miterlimit="10" stroke-width="2.5" stroke-dasharray="6.5,4"/><path fill="rgb(204,0,0)" stroke="none" paint-order="stroke fill markers" d=" M 661.4430975 301.0234437499994 C 661.4430975 303.78486749915334 659.204521249154 306.0234437499994 656.4430975 306.0234437499994 C 653.681673750846 306.0234437499994 651.4430975 303.78486749915334 651.4430975 301.0234437499994 C 651.4430975 298.26202000084544 653.681673750846 296.0234437499994 656.4430975 296.0234437499994 C 659.204521249154 296.0234437499994 661.4430975 298.26202000084544 661.4430975 301.0234437499994 Z" fill-opacity="1"/><path fill="none" stroke="rgb(0,0,0)" paint-order="fill stroke markers" d=" M 661.4430975 301.0234437499994 C 661.4430975 303.78486749915334 659.204521249154 306.0234437499994 656.4430975 306.0234437499994 C 653.681673750846 306.0234437499994 651.4430975 303.78486749915334 651.4430975 301.0234437499994 C 651.4430975 298.26202000084544 653.681673750846 296.0234437499994 656.4430975 296.0234437499994 C 659.204521249154 296.0234437499994 661.4430975 298.26202000084544 661.4430975 301.0234437499994 Z" stroke-opacity="1" stroke-linecap="round" stroke-linejoin="round" stroke-miterlimit="10"/><g transform="scale(19,19)"><g transform="translate(34.10526315789474,14.381578947368421)"><path fill="rgb(204,0,0)" stroke="none" paint-order="stroke fill markers" d=" M 0.396 -0.38 L 0.396 -0.38 Q 0.368 -0.41600000000000004 0.31 -0.42 Q 0.245 -0.42 0.192 -0.354 Q 0.179 -0.338 0.169 -0.32 Q 0.129 -0.247 0.117 -0.148 Q 0.115 -0.132 0.115 -0.12 Q 0.115 -0.038 0.171 -0.017 Q 0.185 -0.011 0.20500000000000002 -0.011 Q 0.295 -0.011 0.367 -0.07100000000000001 Q 0.388 -0.088 0.405 -0.11 Q 0.41200000000000003 -0.12 0.418 -0.12 Q 0.427 -0.12 0.43 -0.107 Q 0.43 -0.096 0.396 -0.064 Q 0.313 0.011 0.203 0.011 Q 0.108 0.011 0.065 -0.065 Q 0.041 -0.106 0.041 -0.158 Q 0.041 -0.26 0.11900000000000001 -0.34700000000000003 Q 0.196 -0.433 0.291 -0.441 Q 0.3 -0.442 0.309 -0.442 Q 0.386 -0.442 0.41600000000000004 -0.395 Q 0.427 -0.377 0.427 -0.356 Q 0.427 -0.312 0.392 -0.296 Q 0.382 -0.292 0.371 -0.292 Q 0.341 -0.292 0.335 -0.318 Q 0.334 -0.322 0.334 -0.327 Q 0.334 -0.34900000000000003 0.352 -0.366 Q 0.366 -0.38 0.396 -0.38 Z"/></g><g transform="translate(34.53826315789474,14.381578947368421)"><path fill="rgb(204,0,0)" stroke="none" paint-order="stroke fill markers" d=" M 0.331 0.24 L 0.331 0.24 Q 0.331 0.25 0.321 0.25 Q 0.309 0.25 0.268 0.209 Q 0.20600000000000002 0.147 0.165 0.062 Q 0.099 -0.074 0.099 -0.25 Q 0.099 -0.419 0.162 -0.555 Q 0.214 -0.666 0.294 -0.733 Q 0.315 -0.75 0.321 -0.75 Q 0.331 -0.75 0.331 -0.74 Q 0.331 -0.735 0.318 -0.723 Q 0.157 -0.559 0.157 -0.25 Q 0.157 0.058 0.314 0.218 Q 0.331 0.23500000000000001 0.331 0.24 Z"/></g><g transform="translate(34.92726315789474,14.381578947368421)"><path fill="rgb(204,0,0)" stroke="none" paint-order="stroke fill markers" d=" M 0.331 0.24 L 0.331 0.24 Q 0.331 0.25 0.321 0.25 Q 0.309 0.25 0.268 0.209 Q 0.20600000000000002 0.147 0.165 0.062 Q 0.099 -0.074 0.099 -0.25 Q 0.099 -0.419 0.162 -0.555 Q 0.214 -0.666 0.294 -0.733 Q 0.315 -0.75 0.321 -0.75 Q 0.331 -0.75 0.331 -0.74 Q 0.331 -0.735 0.318 -0.723 Q 0.157 -0.559 0.157 -0.25 Q 0.157 0.058 0.314 0.218 Q 0.331 0.23500000000000001 0.331 0.24 Z"/></g><g transform="translate(35.316263157894745,14.381578947368421)"><path fill="rgb(204,0,0)" stroke="none" paint-order="stroke fill markers" d=" M 0.334 -0.302 L 0.3 -0.165 Q 0.28300000000000003 -0.097 0.28300000000000003 -0.077 Q 0.28300000000000003 -0.025 0.32 -0.014 Q 0.328 -0.011 0.338 -0.011 Q 0.388 -0.011 0.429 -0.061 Q 0.456 -0.093 0.47100000000000003 -0.14200000000000002 Q 0.47400000000000003 -0.153 0.484 -0.153 Q 0.496 -0.153 0.496 -0.14300000000000002 Q 0.496 -0.11800000000000001 0.465 -0.07100000000000001 Q 0.41100000000000003 0.011 0.336 0.011 Q 0.268 0.011 0.23700000000000002 -0.046 Q 0.231 -0.055 0.228 -0.065 Q 0.20400000000000001 -0.017 0.162 0.002 Q 0.14300000000000002 0.011 0.123 0.011 Q 0.063 0.011 0.039 -0.024 Q 0.029 -0.037 0.029 -0.055 Q 0.029 -0.092 0.061 -0.107 Q 0.07200000000000001 -0.113 0.084 -0.113 Q 0.114 -0.113 0.12 -0.088 Q 0.121 -0.083 0.121 -0.078 Q 0.121 -0.044 0.08700000000000001 -0.028 Q 0.081 -0.025 0.074 -0.024 Q 0.095 -0.011 0.124 -0.011 Q 0.177 -0.011 0.20800000000000002 -0.082 Q 0.214 -0.097 0.219 -0.115 Q 0.273 -0.319 0.273 -0.353 Q 0.267 -0.41500000000000004 0.219 -0.42 Q 0.167 -0.42 0.124 -0.367 L 0.124 -0.366 Q 0.124 -0.365 0.123 -0.365 Q 0.108 -0.34500000000000003 0.096 -0.319 Q 0.091 -0.307 0.08700000000000001 -0.295 L 0.085 -0.289 Q 0.083 -0.278 0.07200000000000001 -0.278 Q 0.06 -0.278 0.06 -0.28800000000000003 Q 0.06 -0.313 0.092 -0.36 Q 0.146 -0.442 0.221 -0.442 Q 0.298 -0.442 0.329 -0.366 Q 0.361 -0.428 0.41400000000000003 -0.44 Q 0.424 -0.442 0.434 -0.442 Q 0.493 -0.442 0.517 -0.40900000000000003 Q 0.527 -0.395 0.527 -0.376 Q 0.527 -0.335 0.49 -0.321 Q 0.481 -0.318 0.47300000000000003 -0.318 Q 0.442 -0.318 0.436 -0.34500000000000003 Q 0.435 -0.34900000000000003 0.435 -0.353 Q 0.435 -0.383 0.464 -0.4 Q 0.47300000000000003 -0.405 0.483 -0.40700000000000003 Q 0.462 -0.42 0.433 -0.42 Q 0.365 -0.42 0.337 -0.314 Q 0.335 -0.308 0.334 -0.302 Z"/></g><g transform="translate(35.88826315789475,14.531578947368422) scale(0.7,0.7)"><path fill="rgb(204,0,0)" stroke="none" paint-order="stroke fill markers" d=" M 0.294 -0.64 L 0.294 -0.079 Q 0.294 -0.049 0.306 -0.041 Q 0.323 -0.031 0.387 -0.031 L 0.419 -0.031 L 0.419 0 Q 0.384 -0.003 0.257 -0.003 Q 0.13 -0.003 0.095 0 L 0.095 -0.031 L 0.127 -0.031 Q 0.20400000000000001 -0.031 0.215 -0.049 L 0.216 -0.05 Q 0.22 -0.058 0.22 -0.079 L 0.22 -0.597 Q 0.168 -0.5710000000000001 0.089 -0.5710000000000001 L 0.089 -0.602 Q 0.209 -0.602 0.271 -0.666 Q 0.29 -0.666 0.293 -0.659 L 0.293 -0.659 L 0.293 -0.658 Q 0.294 -0.655 0.294 -0.64 Z"/></g><g transform="translate(36.23826315789474,14.381578947368421)"><path fill="rgb(204,0,0)" stroke="none" paint-order="stroke fill markers" d=" M 0.203 -0.001 L 0.203 -0.001 Q 0.203 0.096 0.14 0.169 Q 0.123 0.189 0.112 0.193 Q 0.10200000000000001 0.193 0.10200000000000001 0.182 Q 0.10200000000000001 0.177 0.113 0.166 Q 0.17300000000000001 0.106 0.18 0.019 Q 0.181 0.009000000000000001 0.181 -0.001 Q 0.181 -0.016 0.179 -0.016 Q 0.178 -0.016 0.17400000000000002 -0.013000000000000001 Q 0.16 0 0.139 0 Q 0.10200000000000001 0 0.09 -0.034 Q 0.08600000000000001 -0.043000000000000003 0.08600000000000001 -0.053 Q 0.08600000000000001 -0.089 0.117 -0.10200000000000001 Q 0.127 -0.106 0.139 -0.106 Q 0.183 -0.106 0.198 -0.048 Q 0.203 -0.027 0.203 -0.001 Z"/></g><g transform="translate(36.682929824561405,14.381578947368421)"><path fill="rgb(204,0,0)" stroke="none" paint-order="stroke fill markers" d=" M 0.334 -0.302 L 0.3 -0.165 Q 0.28300000000000003 -0.097 0.28300000000000003 -0.077 Q 0.28300000000000003 -0.025 0.32 -0.014 Q 0.328 -0.011 0.338 -0.011 Q 0.388 -0.011 0.429 -0.061 Q 0.456 -0.093 0.47100000000000003 -0.14200000000000002 Q 0.47400000000000003 -0.153 0.484 -0.153 Q 0.496 -0.153 0.496 -0.14300000000000002 Q 0.496 -0.11800000000000001 0.465 -0.07100000000000001 Q 0.41100000000000003 0.011 0.336 0.011 Q 0.268 0.011 0.23700000000000002 -0.046 Q 0.231 -0.055 0.228 -0.065 Q 0.20400000000000001 -0.017 0.162 0.002 Q 0.14300000000000002 0.011 0.123 0.011 Q 0.063 0.011 0.039 -0.024 Q 0.029 -0.037 0.029 -0.055 Q 0.029 -0.092 0.061 -0.107 Q 0.07200000000000001 -0.113 0.084 -0.113 Q 0.114 -0.113 0.12 -0.088 Q 0.121 -0.083 0.121 -0.078 Q 0.121 -0.044 0.08700000000000001 -0.028 Q 0.081 -0.025 0.074 -0.024 Q 0.095 -0.011 0.124 -0.011 Q 0.177 -0.011 0.20800000000000002 -0.082 Q 0.214 -0.097 0.219 -0.115 Q 0.273 -0.319 0.273 -0.353 Q 0.267 -0.41500000000000004 0.219 -0.42 Q 0.167 -0.42 0.124 -0.367 L 0.124 -0.366 Q 0.124 -0.365 0.123 -0.365 Q 0.108 -0.34500000000000003 0.096 -0.319 Q 0.091 -0.307 0.08700000000000001 -0.295 L 0.085 -0.289 Q 0.083 -0.278 0.07200000000000001 -0.278 Q 0.06 -0.278 0.06 -0.28800000000000003 Q 0.06 -0.313 0.092 -0.36 Q 0.146 -0.442 0.221 -0.442 Q 0.298 -0.442 0.329 -0.366 Q 0.361 -0.428 0.41400000000000003 -0.44 Q 0.424 -0.442 0.434 -0.442 Q 0.493 -0.442 0.517 -0.40900000000000003 Q 0.527 -0.395 0.527 -0.376 Q 0.527 -0.335 0.49 -0.321 Q 0.481 -0.318 0.47300000000000003 -0.318 Q 0.442 -0.318 0.436 -0.34500000000000003 Q 0.435 -0.34900000000000003 0.435 -0.353 Q 0.435 -0.383 0.464 -0.4 Q 0.47300000000000003 -0.405 0.483 -0.40700000000000003 Q 0.462 -0.42 0.433 -0.42 Q 0.365 -0.42 0.337 -0.314 Q 0.335 -0.308 0.334 -0.302 Z"/></g><g transform="translate(37.25492982456141,14.531578947368422) scale(0.7,0.7)"><path fill="rgb(204,0,0)" stroke="none" paint-order="stroke fill markers" d=" M 0.449 -0.17400000000000002 L 0.449 -0.17400000000000002 L 0.421 0 L 0.05 0 Q 0.05 -0.025 0.056 -0.032 L 0.061 -0.037 L 0.253 -0.251 Q 0.358 -0.369 0.358 -0.47200000000000003 Q 0.358 -0.561 0.304 -0.607 L 0.303 -0.608 L 0.302 -0.608 Q 0.27 -0.635 0.224 -0.635 Q 0.152 -0.635 0.109 -0.5730000000000001 Q 0.097 -0.555 0.089 -0.533 Q 0.092 -0.534 0.10200000000000001 -0.534 Q 0.14200000000000002 -0.534 0.153 -0.498 L 0.153 -0.497 Q 0.155 -0.49 0.155 -0.482 Q 0.155 -0.442 0.117 -0.431 Q 0.109 -0.429 0.10300000000000001 -0.429 Q 0.066 -0.429 0.054 -0.46 Q 0.05 -0.47100000000000003 0.05 -0.485 Q 0.05 -0.562 0.109 -0.617 Q 0.162 -0.666 0.23700000000000002 -0.666 Q 0.34700000000000003 -0.666 0.40800000000000003 -0.592 Q 0.443 -0.549 0.448 -0.49 Q 0.449 -0.481 0.449 -0.47200000000000003 Q 0.449 -0.399 0.394 -0.333 Q 0.365 -0.299 0.304 -0.243 L 0.243 -0.189 L 0.233 -0.18 L 0.127 -0.077 L 0.307 -0.077 Q 0.395 -0.077 0.402 -0.085 Q 0.41200000000000003 -0.099 0.424 -0.17400000000000002 L 0.449 -0.17400000000000002 Z"/></g><g transform="translate(37.6049298245614,14.381578947368421)"><path fill="rgb(204,0,0)" stroke="none" paint-order="stroke fill markers" d=" M 0.203 -0.001 L 0.203 -0.001 Q 0.203 0.096 0.14 0.169 Q 0.123 0.189 0.112 0.193 Q 0.10200000000000001 0.193 0.10200000000000001 0.182 Q 0.10200000000000001 0.177 0.113 0.166 Q 0.17300000000000001 0.106 0.18 0.019 Q 0.181 0.009000000000000001 0.181 -0.001 Q 0.181 -0.016 0.179 -0.016 Q 0.178 -0.016 0.17400000000000002 -0.013000000000000001 Q 0.16 0 0.139 0 Q 0.10200000000000001 0 0.09 -0.034 Q 0.08600000000000001 -0.043000000000000003 0.08600000000000001 -0.053 Q 0.08600000000000001 -0.089 0.117 -0.10200000000000001 Q 0.127 -0.106 0.139 -0.106 Q 0.183 -0.106 0.198 -0.048 Q 0.203 -0.027 0.203 -0.001 Z"/></g><g transform="translate(38.049596491228066,14.381578947368421)"><path fill="rgb(204,0,0)" stroke="none" paint-order="stroke fill markers" d=" M 0.486 -0.381 L 0.39 0.001 Q 0.366 0.099 0.28300000000000003 0.16 Q 0.222 0.20500000000000002 0.156 0.20500000000000002 Q 0.089 0.20500000000000002 0.061 0.159 Q 0.05 0.14 0.05 0.11800000000000001 Q 0.05 0.067 0.091 0.055 Q 0.099 0.053 0.106 0.053 Q 0.138 0.053 0.14200000000000002 0.081 Q 0.14300000000000002 0.084 0.14300000000000002 0.088 Q 0.14300000000000002 0.111 0.123 0.129 Q 0.109 0.14100000000000001 0.08 0.14100000000000001 Q 0.098 0.183 0.156 0.183 Q 0.218 0.183 0.266 0.12 Q 0.305 0.068 0.328 -0.021 Q 0.329 -0.025 0.331 -0.034 Q 0.28600000000000003 0.011 0.23 0.011 Q 0.15 0.011 0.121 -0.048 Q 0.108 -0.074 0.108 -0.108 Q 0.108 -0.163 0.161 -0.305 Q 0.163 -0.311 0.166 -0.318 Q 0.183 -0.364 0.183 -0.388 Q 0.183 -0.42 0.158 -0.42 Q 0.10300000000000001 -0.42 0.068 -0.329 L 0.068 -0.328 Q 0.062 -0.313 0.057 -0.296 Q 0.046 -0.279 0.041 -0.278 Q 0.029 -0.278 0.029 -0.28800000000000003 Q 0.029 -0.306 0.05 -0.35100000000000003 Q 0.094 -0.442 0.161 -0.442 Q 0.214 -0.442 0.23500000000000001 -0.397 Q 0.243 -0.38 0.243 -0.36 Q 0.243 -0.339 0.223 -0.28800000000000003 Q 0.17200000000000001 -0.156 0.17200000000000001 -0.092 Q 0.17200000000000001 -0.011 0.234 -0.011 Q 0.292 -0.011 0.335 -0.073 Q 0.34500000000000003 -0.088 0.34700000000000003 -0.096 L 0.392 -0.276 Q 0.399 -0.309 0.41200000000000003 -0.356 Q 0.422 -0.399 0.426 -0.41000000000000003 Q 0.439 -0.431 0.461 -0.431 Q 0.486 -0.426 0.49 -0.404 Q 0.49 -0.395 0.486 -0.381 Z"/></g><g transform="translate(38.53959649122807,14.531578947368422) scale(0.7,0.7)"><path fill="rgb(204,0,0)" stroke="none" paint-order="stroke fill markers" d=" M 0.449 -0.17400000000000002 L 0.449 -0.17400000000000002 L 0.421 0 L 0.05 0 Q 0.05 -0.025 0.056 -0.032 L 0.061 -0.037 L 0.253 -0.251 Q 0.358 -0.369 0.358 -0.47200000000000003 Q 0.358 -0.561 0.304 -0.607 L 0.303 -0.608 L 0.302 -0.608 Q 0.27 -0.635 0.224 -0.635 Q 0.152 -0.635 0.109 -0.5730000000000001 Q 0.097 -0.555 0.089 -0.533 Q 0.092 -0.534 0.10200000000000001 -0.534 Q 0.14200000000000002 -0.534 0.153 -0.498 L 0.153 -0.497 Q 0.155 -0.49 0.155 -0.482 Q 0.155 -0.442 0.117 -0.431 Q 0.109 -0.429 0.10300000000000001 -0.429 Q 0.066 -0.429 0.054 -0.46 Q 0.05 -0.47100000000000003 0.05 -0.485 Q 0.05 -0.562 0.109 -0.617 Q 0.162 -0.666 0.23700000000000002 -0.666 Q 0.34700000000000003 -0.666 0.40800000000000003 -0.592 Q 0.443 -0.549 0.448 -0.49 Q 0.449 -0.481 0.449 -0.47200000000000003 Q 0.449 -0.399 0.394 -0.333 Q 0.365 -0.299 0.304 -0.243 L 0.243 -0.189 L 0.233 -0.18 L 0.127 -0.077 L 0.307 -0.077 Q 0.395 -0.077 0.402 -0.085 Q 0.41200000000000003 -0.099 0.424 -0.17400000000000002 L 0.449 -0.17400000000000002 Z"/></g><g transform="translate(38.88959649122807,14.381578947368421)"><path fill="rgb(204,0,0)" stroke="none" paint-order="stroke fill markers" d=" M 0.289 -0.25 L 0.289 -0.25 Q 0.289 -0.081 0.226 0.055 Q 0.17400000000000002 0.166 0.094 0.233 Q 0.073 0.25 0.067 0.25 Q 0.057 0.25 0.057 0.24 Q 0.057 0.23500000000000001 0.07 0.223 Q 0.231 0.059000000000000004 0.231 -0.25 Q 0.231 -0.555 0.081 -0.712 L 0.076 -0.717 Q 0.057 -0.735 0.057 -0.74 Q 0.057 -0.75 0.067 -0.75 Q 0.079 -0.75 0.12 -0.709 Q 0.182 -0.647 0.223 -0.562 Q 0.289 -0.426 0.289 -0.25 Z"/></g><g transform="translate(39.445263157894736,14.381578947368421)"><path fill="rgb(204,0,0)" stroke="none" paint-order="stroke fill markers" d=" M 0.40900000000000003 -0.23 L 0.40900000000000003 0.05 Q 0.40900000000000003 0.082 0.389 0.083 Q 0.369 0.083 0.369 0.05 L 0.369 -0.23 L 0.089 -0.23 Q 0.057 -0.23 0.056 -0.25 Q 0.056 -0.27 0.089 -0.27 L 0.369 -0.27 L 0.369 -0.55 Q 0.369 -0.582 0.389 -0.583 Q 0.40900000000000003 -0.583 0.40900000000000003 -0.55 L 0.40900000000000003 -0.27 L 0.6880000000000001 -0.27 Q 0.72 -0.27 0.721 -0.25 Q 0.721 -0.23 0.6880000000000001 -0.23 L 0.40900000000000003 -0.23 Z"/></g><g transform="translate(40.445485380116956,14.381578947368421)"><path fill="rgb(204,0,0)" stroke="none" paint-order="stroke fill markers" d=" M 0.331 0.24 L 0.331 0.24 Q 0.331 0.25 0.321 0.25 Q 0.309 0.25 0.268 0.209 Q 0.20600000000000002 0.147 0.165 0.062 Q 0.099 -0.074 0.099 -0.25 Q 0.099 -0.419 0.162 -0.555 Q 0.214 -0.666 0.294 -0.733 Q 0.315 -0.75 0.321 -0.75 Q 0.331 -0.75 0.331 -0.74 Q 0.331 -0.735 0.318 -0.723 Q 0.157 -0.559 0.157 -0.25 Q 0.157 0.058 0.314 0.218 Q 0.331 0.23500000000000001 0.331 0.24 Z"/></g><g transform="translate(40.83448538011696,14.381578947368421)"><path fill="rgb(204,0,0)" stroke="none" paint-order="stroke fill markers" d=" M 0.486 -0.381 L 0.39 0.001 Q 0.366 0.099 0.28300000000000003 0.16 Q 0.222 0.20500000000000002 0.156 0.20500000000000002 Q 0.089 0.20500000000000002 0.061 0.159 Q 0.05 0.14 0.05 0.11800000000000001 Q 0.05 0.067 0.091 0.055 Q 0.099 0.053 0.106 0.053 Q 0.138 0.053 0.14200000000000002 0.081 Q 0.14300000000000002 0.084 0.14300000000000002 0.088 Q 0.14300000000000002 0.111 0.123 0.129 Q 0.109 0.14100000000000001 0.08 0.14100000000000001 Q 0.098 0.183 0.156 0.183 Q 0.218 0.183 0.266 0.12 Q 0.305 0.068 0.328 -0.021 Q 0.329 -0.025 0.331 -0.034 Q 0.28600000000000003 0.011 0.23 0.011 Q 0.15 0.011 0.121 -0.048 Q 0.108 -0.074 0.108 -0.108 Q 0.108 -0.163 0.161 -0.305 Q 0.163 -0.311 0.166 -0.318 Q 0.183 -0.364 0.183 -0.388 Q 0.183 -0.42 0.158 -0.42 Q 0.10300000000000001 -0.42 0.068 -0.329 L 0.068 -0.328 Q 0.062 -0.313 0.057 -0.296 Q 0.046 -0.279 0.041 -0.278 Q 0.029 -0.278 0.029 -0.28800000000000003 Q 0.029 -0.306 0.05 -0.35100000000000003 Q 0.094 -0.442 0.161 -0.442 Q 0.214 -0.442 0.23500000000000001 -0.397 Q 0.243 -0.38 0.243 -0.36 Q 0.243 -0.339 0.223 -0.28800000000000003 Q 0.17200000000000001 -0.156 0.17200000000000001 -0.092 Q 0.17200000000000001 -0.011 0.234 -0.011 Q 0.292 -0.011 0.335 -0.073 Q 0.34500000000000003 -0.088 0.34700000000000003 -0.096 L 0.392 -0.276 Q 0.399 -0.309 0.41200000000000003 -0.356 Q 0.422 -0.399 0.426 -0.41000000000000003 Q 0.439 -0.431 0.461 -0.431 Q 0.486 -0.426 0.49 -0.404 Q 0.49 -0.395 0.486 -0.381 Z"/></g><g transform="translate(41.32448538011696,14.531578947368422) scale(0.7,0.7)"><path fill="rgb(204,0,0)" stroke="none" paint-order="stroke fill markers" d=" M 0.294 -0.64 L 0.294 -0.079 Q 0.294 -0.049 0.306 -0.041 Q 0.323 -0.031 0.387 -0.031 L 0.419 -0.031 L 0.419 0 Q 0.384 -0.003 0.257 -0.003 Q 0.13 -0.003 0.095 0 L 0.095 -0.031 L 0.127 -0.031 Q 0.20400000000000001 -0.031 0.215 -0.049 L 0.216 -0.05 Q 0.22 -0.058 0.22 -0.079 L 0.22 -0.597 Q 0.168 -0.5710000000000001 0.089 -0.5710000000000001 L 0.089 -0.602 Q 0.209 -0.602 0.271 -0.666 Q 0.29 -0.666 0.293 -0.659 L 0.293 -0.659 L 0.293 -0.658 Q 0.294 -0.655 0.294 -0.64 Z"/></g><g transform="translate(41.67448538011696,14.381578947368421)"><path fill="rgb(204,0,0)" stroke="none" paint-order="stroke fill markers" d=" M 0.203 -0.001 L 0.203 -0.001 Q 0.203 0.096 0.14 0.169 Q 0.123 0.189 0.112 0.193 Q 0.10200000000000001 0.193 0.10200000000000001 0.182 Q 0.10200000000000001 0.177 0.113 0.166 Q 0.17300000000000001 0.106 0.18 0.019 Q 0.181 0.009000000000000001 0.181 -0.001 Q 0.181 -0.016 0.179 -0.016 Q 0.178 -0.016 0.17400000000000002 -0.013000000000000001 Q 0.16 0 0.139 0 Q 0.10200000000000001 0 0.09 -0.034 Q 0.08600000000000001 -0.043000000000000003 0.08600000000000001 -0.053 Q 0.08600000000000001 -0.089 0.117 -0.10200000000000001 Q 0.127 -0.106 0.139 -0.106 Q 0.183 -0.106 0.198 -0.048 Q 0.203 -0.027 0.203 -0.001 Z"/></g><g transform="translate(42.119152046783626,14.381578947368421)"><path fill="rgb(204,0,0)" stroke="none" paint-order="stroke fill markers" d=" M 0.486 -0.381 L 0.39 0.001 Q 0.366 0.099 0.28300000000000003 0.16 Q 0.222 0.20500000000000002 0.156 0.20500000000000002 Q 0.089 0.20500000000000002 0.061 0.159 Q 0.05 0.14 0.05 0.11800000000000001 Q 0.05 0.067 0.091 0.055 Q 0.099 0.053 0.106 0.053 Q 0.138 0.053 0.14200000000000002 0.081 Q 0.14300000000000002 0.084 0.14300000000000002 0.088 Q 0.14300000000000002 0.111 0.123 0.129 Q 0.109 0.14100000000000001 0.08 0.14100000000000001 Q 0.098 0.183 0.156 0.183 Q 0.218 0.183 0.266 0.12 Q 0.305 0.068 0.328 -0.021 Q 0.329 -0.025 0.331 -0.034 Q 0.28600000000000003 0.011 0.23 0.011 Q 0.15 0.011 0.121 -0.048 Q 0.108 -0.074 0.108 -0.108 Q 0.108 -0.163 0.161 -0.305 Q 0.163 -0.311 0.166 -0.318 Q 0.183 -0.364 0.183 -0.388 Q 0.183 -0.42 0.158 -0.42 Q 0.10300000000000001 -0.42 0.068 -0.329 L 0.068 -0.328 Q 0.062 -0.313 0.057 -0.296 Q 0.046 -0.279 0.041 -0.278 Q 0.029 -0.278 0.029 -0.28800000000000003 Q 0.029 -0.306 0.05 -0.35100000000000003 Q 0.094 -0.442 0.161 -0.442 Q 0.214 -0.442 0.23500000000000001 -0.397 Q 0.243 -0.38 0.243 -0.36 Q 0.243 -0.339 0.223 -0.28800000000000003 Q 0.17200000000000001 -0.156 0.17200000000000001 -0.092 Q 0.17200000000000001 -0.011 0.234 -0.011 Q 0.292 -0.011 0.335 -0.073 Q 0.34500000000000003 -0.088 0.34700000000000003 -0.096 L 0.392 -0.276 Q 0.399 -0.309 0.41200000000000003 -0.356 Q 0.422 -0.399 0.426 -0.41000000000000003 Q 0.439 -0.431 0.461 -0.431 Q 0.486 -0.426 0.49 -0.404 Q 0.49 -0.395 0.486 -0.381 Z"/></g><g transform="translate(42.60915204678363,14.531578947368422) scale(0.7,0.7)"><path fill="rgb(204,0,0)" stroke="none" paint-order="stroke fill markers" d=" M 0.449 -0.17400000000000002 L 0.449 -0.17400000000000002 L 0.421 0 L 0.05 0 Q 0.05 -0.025 0.056 -0.032 L 0.061 -0.037 L 0.253 -0.251 Q 0.358 -0.369 0.358 -0.47200000000000003 Q 0.358 -0.561 0.304 -0.607 L 0.303 -0.608 L 0.302 -0.608 Q 0.27 -0.635 0.224 -0.635 Q 0.152 -0.635 0.109 -0.5730000000000001 Q 0.097 -0.555 0.089 -0.533 Q 0.092 -0.534 0.10200000000000001 -0.534 Q 0.14200000000000002 -0.534 0.153 -0.498 L 0.153 -0.497 Q 0.155 -0.49 0.155 -0.482 Q 0.155 -0.442 0.117 -0.431 Q 0.109 -0.429 0.10300000000000001 -0.429 Q 0.066 -0.429 0.054 -0.46 Q 0.05 -0.47100000000000003 0.05 -0.485 Q 0.05 -0.562 0.109 -0.617 Q 0.162 -0.666 0.23700000000000002 -0.666 Q 0.34700000000000003 -0.666 0.40800000000000003 -0.592 Q 0.443 -0.549 0.448 -0.49 Q 0.449 -0.481 0.449 -0.47200000000000003 Q 0.449 -0.399 0.394 -0.333 Q 0.365 -0.299 0.304 -0.243 L 0.243 -0.189 L 0.233 -0.18 L 0.127 -0.077 L 0.307 -0.077 Q 0.395 -0.077 0.402 -0.085 Q 0.41200000000000003 -0.099 0.424 -0.17400000000000002 L 0.449 -0.17400000000000002 Z"/></g><g transform="translate(42.95915204678363,14.381578947368421)"><path fill="rgb(204,0,0)" stroke="none" paint-order="stroke fill markers" d=" M 0.203 -0.001 L 0.203 -0.001 Q 0.203 0.096 0.14 0.169 Q 0.123 0.189 0.112 0.193 Q 0.10200000000000001 0.193 0.10200000000000001 0.182 Q 0.10200000000000001 0.177 0.113 0.166 Q 0.17300000000000001 0.106 0.18 0.019 Q 0.181 0.009000000000000001 0.181 -0.001 Q 0.181 -0.016 0.179 -0.016 Q 0.178 -0.016 0.17400000000000002 -0.013000000000000001 Q 0.16 0 0.139 0 Q 0.10200000000000001 0 0.09 -0.034 Q 0.08600000000000001 -0.043000000000000003 0.08600000000000001 -0.053 Q 0.08600000000000001 -0.089 0.117 -0.10200000000000001 Q 0.127 -0.106 0.139 -0.106 Q 0.183 -0.106 0.198 -0.048 Q 0.203 -0.027 0.203 -0.001 Z"/></g><g transform="translate(43.40381871345029,14.381578947368421)"><path fill="rgb(204,0,0)" stroke="none" paint-order="stroke fill markers" d=" M 0.486 -0.381 L 0.39 0.001 Q 0.366 0.099 0.28300000000000003 0.16 Q 0.222 0.20500000000000002 0.156 0.20500000000000002 Q 0.089 0.20500000000000002 0.061 0.159 Q 0.05 0.14 0.05 0.11800000000000001 Q 0.05 0.067 0.091 0.055 Q 0.099 0.053 0.106 0.053 Q 0.138 0.053 0.14200000000000002 0.081 Q 0.14300000000000002 0.084 0.14300000000000002 0.088 Q 0.14300000000000002 0.111 0.123 0.129 Q 0.109 0.14100000000000001 0.08 0.14100000000000001 Q 0.098 0.183 0.156 0.183 Q 0.218 0.183 0.266 0.12 Q 0.305 0.068 0.328 -0.021 Q 0.329 -0.025 0.331 -0.034 Q 0.28600000000000003 0.011 0.23 0.011 Q 0.15 0.011 0.121 -0.048 Q 0.108 -0.074 0.108 -0.108 Q 0.108 -0.163 0.161 -0.305 Q 0.163 -0.311 0.166 -0.318 Q 0.183 -0.364 0.183 -0.388 Q 0.183 -0.42 0.158 -0.42 Q 0.10300000000000001 -0.42 0.068 -0.329 L 0.068 -0.328 Q 0.062 -0.313 0.057 -0.296 Q 0.046 -0.279 0.041 -0.278 Q 0.029 -0.278 0.029 -0.28800000000000003 Q 0.029 -0.306 0.05 -0.35100000000000003 Q 0.094 -0.442 0.161 -0.442 Q 0.214 -0.442 0.23500000000000001 -0.397 Q 0.243 -0.38 0.243 -0.36 Q 0.243 -0.339 0.223 -0.28800000000000003 Q 0.17200000000000001 -0.156 0.17200000000000001 -0.092 Q 0.17200000000000001 -0.011 0.234 -0.011 Q 0.292 -0.011 0.335 -0.073 Q 0.34500000000000003 -0.088 0.34700000000000003 -0.096 L 0.392 -0.276 Q 0.399 -0.309 0.41200000000000003 -0.356 Q 0.422 -0.399 0.426 -0.41000000000000003 Q 0.439 -0.431 0.461 -0.431 Q 0.486 -0.426 0.49 -0.404 Q 0.49 -0.395 0.486 -0.381 Z"/></g><g transform="translate(43.893818713450294,14.531578947368422) scale(0.7,0.7)"><path fill="rgb(204,0,0)" stroke="none" paint-order="stroke fill markers" d=" M 0.29 -0.352 L 0.29 -0.352 Q 0.39 -0.332 0.434 -0.254 Q 0.457 -0.215 0.457 -0.171 Q 0.457 -0.08600000000000001 0.387 -0.028 Q 0.326 0.022 0.244 0.022 Q 0.145 0.022 0.085 -0.037 Q 0.042 -0.079 0.042 -0.135 Q 0.042 -0.182 0.084 -0.191 Q 0.091 -0.193 0.098 -0.193 Q 0.136 -0.193 0.149 -0.161 Q 0.153 -0.148 0.154 -0.137 Q 0.154 -0.097 0.11800000000000001 -0.085 Q 0.10400000000000001 -0.08 0.088 -0.082 Q 0.125 -0.02 0.216 -0.008 Q 0.229 -0.006 0.241 -0.006 Q 0.305 -0.006 0.335 -0.069 Q 0.354 -0.109 0.354 -0.171 Q 0.354 -0.304 0.274 -0.331 Q 0.256 -0.337 0.23500000000000001 -0.337 L 0.191 -0.337 Q 0.169 -0.337 0.167 -0.34800000000000003 Q 0.167 -0.358 0.182 -0.36 Q 0.197 -0.36 0.221 -0.363 Q 0.272 -0.365 0.301 -0.402 L 0.301 -0.403 L 0.302 -0.404 L 0.303 -0.405 L 0.304 -0.405 L 0.31 -0.41500000000000004 Q 0.338 -0.462 0.338 -0.529 Q 0.338 -0.622 0.266 -0.638 Q 0.254 -0.641 0.242 -0.641 Q 0.17200000000000001 -0.641 0.128 -0.601 Q 0.117 -0.591 0.109 -0.579 Q 0.171 -0.579 0.171 -0.529 Q 0.171 -0.493 0.14 -0.481 Q 0.131 -0.47800000000000004 0.12 -0.47800000000000004 Q 0.081 -0.47800000000000004 0.07100000000000001 -0.513 L 0.07100000000000001 -0.513 L 0.07100000000000001 -0.514 Q 0.069 -0.522 0.069 -0.53 Q 0.069 -0.597 0.135 -0.637 Q 0.183 -0.666 0.246 -0.666 Q 0.337 -0.666 0.393 -0.612 L 0.395 -0.61 Q 0.43 -0.5740000000000001 0.43 -0.528 Q 0.43 -0.445 0.359 -0.389 Q 0.328 -0.365 0.29 -0.352 Z"/></g><g transform="translate(44.243818713450295,14.381578947368421)"><path fill="rgb(204,0,0)" stroke="none" paint-order="stroke fill markers" d=" M 0.289 -0.25 L 0.289 -0.25 Q 0.289 -0.081 0.226 0.055 Q 0.17400000000000002 0.166 0.094 0.233 Q 0.073 0.25 0.067 0.25 Q 0.057 0.25 0.057 0.24 Q 0.057 0.23500000000000001 0.07 0.223 Q 0.231 0.059000000000000004 0.231 -0.25 Q 0.231 -0.555 0.081 -0.712 L 0.076 -0.717 Q 0.057 -0.735 0.057 -0.74 Q 0.057 -0.75 0.067 -0.75 Q 0.079 -0.75 0.12 -0.709 Q 0.182 -0.647 0.223 -0.562 Q 0.289 -0.426 0.289 -0.25 Z"/></g><g transform="translate(44.6328187134503,14.381578947368421)"><path fill="rgb(204,0,0)" stroke="none" paint-order="stroke fill markers" d=" M 0.289 -0.25 L 0.289 -0.25 Q 0.289 -0.081 0.226 0.055 Q 0.17400000000000002 0.166 0.094 0.233 Q 0.073 0.25 0.067 0.25 Q 0.057 0.25 0.057 0.24 Q 0.057 0.23500000000000001 0.07 0.223 Q 0.231 0.059000000000000004 0.231 -0.25 Q 0.231 -0.555 0.081 -0.712 L 0.076 -0.717 Q 0.057 -0.735 0.057 -0.74 Q 0.057 -0.75 0.067 -0.75 Q 0.079 -0.75 0.12 -0.709 Q 0.182 -0.647 0.223 -0.562 Q 0.289 -0.426 0.289 -0.25 Z"/></g></g><path fill="rgb(204,0,0)" stroke="none" paint-order="stroke fill markers" d=" M 961.5835975000002 451.0936937499998 C 961.5835975000002 453.8551174991537 959.3450212491542 456.0936937499998 956.5835975000002 456.0936937499998 C 953.8221737508462 456.0936937499998 951.5835975000002 453.8551174991537 951.5835975000002 451.0936937499998 C 951.5835975000002 448.3322700008458 953.8221737508462 446.0936937499998 956.5835975000002 446.0936937499998 C 959.3450212491542 446.0936937499998 961.5835975000002 448.3322700008458 961.5835975000002 451.0936937499998 Z" fill-opacity="1"/><path fill="none" stroke="rgb(0,0,0)" paint-order="fill stroke markers" d=" M 961.5835975000002 451.0936937499998 C 961.5835975000002 453.8551174991537 959.3450212491542 456.0936937499998 956.5835975000002 456.0936937499998 C 953.8221737508462 456.0936937499998 951.5835975000002 453.8551174991537 951.5835975000002 451.0936937499998 C 951.5835975000002 448.3322700008458 953.8221737508462 446.0936937499998 956.5835975000002 446.0936937499998 C 959.3450212491542 446.0936937499998 961.5835975000002 448.3322700008458 961.5835975000002 451.0936937499998 Z" stroke-opacity="1" stroke-linecap="round" stroke-linejoin="round" stroke-miterlimit="10"/><g transform="scale(19,19)"><g transform="translate(50.78947368421053,22.80263157894737)"><path fill="rgb(204,0,0)" stroke="none" paint-order="stroke fill markers" d=" M 0.331 0.24 L 0.331 0.24 Q 0.331 0.25 0.321 0.25 Q 0.309 0.25 0.268 0.209 Q 0.20600000000000002 0.147 0.165 0.062 Q 0.099 -0.074 0.099 -0.25 Q 0.099 -0.419 0.162 -0.555 Q 0.214 -0.666 0.294 -0.733 Q 0.315 -0.75 0.321 -0.75 Q 0.331 -0.75 0.331 -0.74 Q 0.331 -0.735 0.318 -0.723 Q 0.157 -0.559 0.157 -0.25 Q 0.157 0.058 0.314 0.218 Q 0.331 0.23500000000000001 0.331 0.24 Z"/></g><g transform="translate(51.17847368421053,22.80263157894737)"><path fill="rgb(204,0,0)" stroke="none" paint-order="stroke fill markers" d=" M 0.334 -0.302 L 0.3 -0.165 Q 0.28300000000000003 -0.097 0.28300000000000003 -0.077 Q 0.28300000000000003 -0.025 0.32 -0.014 Q 0.328 -0.011 0.338 -0.011 Q 0.388 -0.011 0.429 -0.061 Q 0.456 -0.093 0.47100000000000003 -0.14200000000000002 Q 0.47400000000000003 -0.153 0.484 -0.153 Q 0.496 -0.153 0.496 -0.14300000000000002 Q 0.496 -0.11800000000000001 0.465 -0.07100000000000001 Q 0.41100000000000003 0.011 0.336 0.011 Q 0.268 0.011 0.23700000000000002 -0.046 Q 0.231 -0.055 0.228 -0.065 Q 0.20400000000000001 -0.017 0.162 0.002 Q 0.14300000000000002 0.011 0.123 0.011 Q 0.063 0.011 0.039 -0.024 Q 0.029 -0.037 0.029 -0.055 Q 0.029 -0.092 0.061 -0.107 Q 0.07200000000000001 -0.113 0.084 -0.113 Q 0.114 -0.113 0.12 -0.088 Q 0.121 -0.083 0.121 -0.078 Q 0.121 -0.044 0.08700000000000001 -0.028 Q 0.081 -0.025 0.074 -0.024 Q 0.095 -0.011 0.124 -0.011 Q 0.177 -0.011 0.20800000000000002 -0.082 Q 0.214 -0.097 0.219 -0.115 Q 0.273 -0.319 0.273 -0.353 Q 0.267 -0.41500000000000004 0.219 -0.42 Q 0.167 -0.42 0.124 -0.367 L 0.124 -0.366 Q 0.124 -0.365 0.123 -0.365 Q 0.108 -0.34500000000000003 0.096 -0.319 Q 0.091 -0.307 0.08700000000000001 -0.295 L 0.085 -0.289 Q 0.083 -0.278 0.07200000000000001 -0.278 Q 0.06 -0.278 0.06 -0.28800000000000003 Q 0.06 -0.313 0.092 -0.36 Q 0.146 -0.442 0.221 -0.442 Q 0.298 -0.442 0.329 -0.366 Q 0.361 -0.428 0.41400000000000003 -0.44 Q 0.424 -0.442 0.434 -0.442 Q 0.493 -0.442 0.517 -0.40900000000000003 Q 0.527 -0.395 0.527 -0.376 Q 0.527 -0.335 0.49 -0.321 Q 0.481 -0.318 0.47300000000000003 -0.318 Q 0.442 -0.318 0.436 -0.34500000000000003 Q 0.435 -0.34900000000000003 0.435 -0.353 Q 0.435 -0.383 0.464 -0.4 Q 0.47300000000000003 -0.405 0.483 -0.40700000000000003 Q 0.462 -0.42 0.433 -0.42 Q 0.365 -0.42 0.337 -0.314 Q 0.335 -0.308 0.334 -0.302 Z"/></g><g transform="translate(51.75047368421053,22.95263157894737) scale(0.7,0.7)"><path fill="rgb(204,0,0)" stroke="none" paint-order="stroke fill markers" d=" M 0.294 -0.64 L 0.294 -0.079 Q 0.294 -0.049 0.306 -0.041 Q 0.323 -0.031 0.387 -0.031 L 0.419 -0.031 L 0.419 0 Q 0.384 -0.003 0.257 -0.003 Q 0.13 -0.003 0.095 0 L 0.095 -0.031 L 0.127 -0.031 Q 0.20400000000000001 -0.031 0.215 -0.049 L 0.216 -0.05 Q 0.22 -0.058 0.22 -0.079 L 0.22 -0.597 Q 0.168 -0.5710000000000001 0.089 -0.5710000000000001 L 0.089 -0.602 Q 0.209 -0.602 0.271 -0.666 Q 0.29 -0.666 0.293 -0.659 L 0.293 -0.659 L 0.293 -0.658 Q 0.294 -0.655 0.294 -0.64 Z"/></g><g transform="translate(52.10047368421053,22.80263157894737)"><path fill="rgb(204,0,0)" stroke="none" paint-order="stroke fill markers" d=" M 0.203 -0.001 L 0.203 -0.001 Q 0.203 0.096 0.14 0.169 Q 0.123 0.189 0.112 0.193 Q 0.10200000000000001 0.193 0.10200000000000001 0.182 Q 0.10200000000000001 0.177 0.113 0.166 Q 0.17300000000000001 0.106 0.18 0.019 Q 0.181 0.009000000000000001 0.181 -0.001 Q 0.181 -0.016 0.179 -0.016 Q 0.178 -0.016 0.17400000000000002 -0.013000000000000001 Q 0.16 0 0.139 0 Q 0.10200000000000001 0 0.09 -0.034 Q 0.08600000000000001 -0.043000000000000003 0.08600000000000001 -0.053 Q 0.08600000000000001 -0.089 0.117 -0.10200000000000001 Q 0.127 -0.106 0.139 -0.106 Q 0.183 -0.106 0.198 -0.048 Q 0.203 -0.027 0.203 -0.001 Z"/></g><g transform="translate(52.54514035087719,22.80263157894737)"><path fill="rgb(204,0,0)" stroke="none" paint-order="stroke fill markers" d=" M 0.334 -0.302 L 0.3 -0.165 Q 0.28300000000000003 -0.097 0.28300000000000003 -0.077 Q 0.28300000000000003 -0.025 0.32 -0.014 Q 0.328 -0.011 0.338 -0.011 Q 0.388 -0.011 0.429 -0.061 Q 0.456 -0.093 0.47100000000000003 -0.14200000000000002 Q 0.47400000000000003 -0.153 0.484 -0.153 Q 0.496 -0.153 0.496 -0.14300000000000002 Q 0.496 -0.11800000000000001 0.465 -0.07100000000000001 Q 0.41100000000000003 0.011 0.336 0.011 Q 0.268 0.011 0.23700000000000002 -0.046 Q 0.231 -0.055 0.228 -0.065 Q 0.20400000000000001 -0.017 0.162 0.002 Q 0.14300000000000002 0.011 0.123 0.011 Q 0.063 0.011 0.039 -0.024 Q 0.029 -0.037 0.029 -0.055 Q 0.029 -0.092 0.061 -0.107 Q 0.07200000000000001 -0.113 0.084 -0.113 Q 0.114 -0.113 0.12 -0.088 Q 0.121 -0.083 0.121 -0.078 Q 0.121 -0.044 0.08700000000000001 -0.028 Q 0.081 -0.025 0.074 -0.024 Q 0.095 -0.011 0.124 -0.011 Q 0.177 -0.011 0.20800000000000002 -0.082 Q 0.214 -0.097 0.219 -0.115 Q 0.273 -0.319 0.273 -0.353 Q 0.267 -0.41500000000000004 0.219 -0.42 Q 0.167 -0.42 0.124 -0.367 L 0.124 -0.366 Q 0.124 -0.365 0.123 -0.365 Q 0.108 -0.34500000000000003 0.096 -0.319 Q 0.091 -0.307 0.08700000000000001 -0.295 L 0.085 -0.289 Q 0.083 -0.278 0.07200000000000001 -0.278 Q 0.06 -0.278 0.06 -0.28800000000000003 Q 0.06 -0.313 0.092 -0.36 Q 0.146 -0.442 0.221 -0.442 Q 0.298 -0.442 0.329 -0.366 Q 0.361 -0.428 0.41400000000000003 -0.44 Q 0.424 -0.442 0.434 -0.442 Q 0.493 -0.442 0.517 -0.40900000000000003 Q 0.527 -0.395 0.527 -0.376 Q 0.527 -0.335 0.49 -0.321 Q 0.481 -0.318 0.47300000000000003 -0.318 Q 0.442 -0.318 0.436 -0.34500000000000003 Q 0.435 -0.34900000000000003 0.435 -0.353 Q 0.435 -0.383 0.464 -0.4 Q 0.47300000000000003 -0.405 0.483 -0.40700000000000003 Q 0.462 -0.42 0.433 -0.42 Q 0.365 -0.42 0.337 -0.314 Q 0.335 -0.308 0.334 -0.302 Z"/></g><g transform="translate(53.11714035087719,22.95263157894737) scale(0.7,0.7)"><path fill="rgb(204,0,0)" stroke="none" paint-order="stroke fill markers" d=" M 0.449 -0.17400000000000002 L 0.449 -0.17400000000000002 L 0.421 0 L 0.05 0 Q 0.05 -0.025 0.056 -0.032 L 0.061 -0.037 L 0.253 -0.251 Q 0.358 -0.369 0.358 -0.47200000000000003 Q 0.358 -0.561 0.304 -0.607 L 0.303 -0.608 L 0.302 -0.608 Q 0.27 -0.635 0.224 -0.635 Q 0.152 -0.635 0.109 -0.5730000000000001 Q 0.097 -0.555 0.089 -0.533 Q 0.092 -0.534 0.10200000000000001 -0.534 Q 0.14200000000000002 -0.534 0.153 -0.498 L 0.153 -0.497 Q 0.155 -0.49 0.155 -0.482 Q 0.155 -0.442 0.117 -0.431 Q 0.109 -0.429 0.10300000000000001 -0.429 Q 0.066 -0.429 0.054 -0.46 Q 0.05 -0.47100000000000003 0.05 -0.485 Q 0.05 -0.562 0.109 -0.617 Q 0.162 -0.666 0.23700000000000002 -0.666 Q 0.34700000000000003 -0.666 0.40800000000000003 -0.592 Q 0.443 -0.549 0.448 -0.49 Q 0.449 -0.481 0.449 -0.47200000000000003 Q 0.449 -0.399 0.394 -0.333 Q 0.365 -0.299 0.304 -0.243 L 0.243 -0.189 L 0.233 -0.18 L 0.127 -0.077 L 0.307 -0.077 Q 0.395 -0.077 0.402 -0.085 Q 0.41200000000000003 -0.099 0.424 -0.17400000000000002 L 0.449 -0.17400000000000002 Z"/></g><g transform="translate(53.46714035087719,22.80263157894737)"><path fill="rgb(204,0,0)" stroke="none" paint-order="stroke fill markers" d=" M 0.203 -0.001 L 0.203 -0.001 Q 0.203 0.096 0.14 0.169 Q 0.123 0.189 0.112 0.193 Q 0.10200000000000001 0.193 0.10200000000000001 0.182 Q 0.10200000000000001 0.177 0.113 0.166 Q 0.17300000000000001 0.106 0.18 0.019 Q 0.181 0.009000000000000001 0.181 -0.001 Q 0.181 -0.016 0.179 -0.016 Q 0.178 -0.016 0.17400000000000002 -0.013000000000000001 Q 0.16 0 0.139 0 Q 0.10200000000000001 0 0.09 -0.034 Q 0.08600000000000001 -0.043000000000000003 0.08600000000000001 -0.053 Q 0.08600000000000001 -0.089 0.117 -0.10200000000000001 Q 0.127 -0.106 0.139 -0.106 Q 0.183 -0.106 0.198 -0.048 Q 0.203 -0.027 0.203 -0.001 Z"/></g><g transform="translate(53.91180701754385,22.80263157894737)"><path fill="rgb(204,0,0)" stroke="none" paint-order="stroke fill markers" d=" M 0.334 -0.302 L 0.3 -0.165 Q 0.28300000000000003 -0.097 0.28300000000000003 -0.077 Q 0.28300000000000003 -0.025 0.32 -0.014 Q 0.328 -0.011 0.338 -0.011 Q 0.388 -0.011 0.429 -0.061 Q 0.456 -0.093 0.47100000000000003 -0.14200000000000002 Q 0.47400000000000003 -0.153 0.484 -0.153 Q 0.496 -0.153 0.496 -0.14300000000000002 Q 0.496 -0.11800000000000001 0.465 -0.07100000000000001 Q 0.41100000000000003 0.011 0.336 0.011 Q 0.268 0.011 0.23700000000000002 -0.046 Q 0.231 -0.055 0.228 -0.065 Q 0.20400000000000001 -0.017 0.162 0.002 Q 0.14300000000000002 0.011 0.123 0.011 Q 0.063 0.011 0.039 -0.024 Q 0.029 -0.037 0.029 -0.055 Q 0.029 -0.092 0.061 -0.107 Q 0.07200000000000001 -0.113 0.084 -0.113 Q 0.114 -0.113 0.12 -0.088 Q 0.121 -0.083 0.121 -0.078 Q 0.121 -0.044 0.08700000000000001 -0.028 Q 0.081 -0.025 0.074 -0.024 Q 0.095 -0.011 0.124 -0.011 Q 0.177 -0.011 0.20800000000000002 -0.082 Q 0.214 -0.097 0.219 -0.115 Q 0.273 -0.319 0.273 -0.353 Q 0.267 -0.41500000000000004 0.219 -0.42 Q 0.167 -0.42 0.124 -0.367 L 0.124 -0.366 Q 0.124 -0.365 0.123 -0.365 Q 0.108 -0.34500000000000003 0.096 -0.319 Q 0.091 -0.307 0.08700000000000001 -0.295 L 0.085 -0.289 Q 0.083 -0.278 0.07200000000000001 -0.278 Q 0.06 -0.278 0.06 -0.28800000000000003 Q 0.06 -0.313 0.092 -0.36 Q 0.146 -0.442 0.221 -0.442 Q 0.298 -0.442 0.329 -0.366 Q 0.361 -0.428 0.41400000000000003 -0.44 Q 0.424 -0.442 0.434 -0.442 Q 0.493 -0.442 0.517 -0.40900000000000003 Q 0.527 -0.395 0.527 -0.376 Q 0.527 -0.335 0.49 -0.321 Q 0.481 -0.318 0.47300000000000003 -0.318 Q 0.442 -0.318 0.436 -0.34500000000000003 Q 0.435 -0.34900000000000003 0.435 -0.353 Q 0.435 -0.383 0.464 -0.4 Q 0.47300000000000003 -0.405 0.483 -0.40700000000000003 Q 0.462 -0.42 0.433 -0.42 Q 0.365 -0.42 0.337 -0.314 Q 0.335 -0.308 0.334 -0.302 Z"/></g><g transform="translate(54.48380701754385,22.95263157894737) scale(0.7,0.7)"><path fill="rgb(204,0,0)" stroke="none" paint-order="stroke fill markers" d=" M 0.29 -0.352 L 0.29 -0.352 Q 0.39 -0.332 0.434 -0.254 Q 0.457 -0.215 0.457 -0.171 Q 0.457 -0.08600000000000001 0.387 -0.028 Q 0.326 0.022 0.244 0.022 Q 0.145 0.022 0.085 -0.037 Q 0.042 -0.079 0.042 -0.135 Q 0.042 -0.182 0.084 -0.191 Q 0.091 -0.193 0.098 -0.193 Q 0.136 -0.193 0.149 -0.161 Q 0.153 -0.148 0.154 -0.137 Q 0.154 -0.097 0.11800000000000001 -0.085 Q 0.10400000000000001 -0.08 0.088 -0.082 Q 0.125 -0.02 0.216 -0.008 Q 0.229 -0.006 0.241 -0.006 Q 0.305 -0.006 0.335 -0.069 Q 0.354 -0.109 0.354 -0.171 Q 0.354 -0.304 0.274 -0.331 Q 0.256 -0.337 0.23500000000000001 -0.337 L 0.191 -0.337 Q 0.169 -0.337 0.167 -0.34800000000000003 Q 0.167 -0.358 0.182 -0.36 Q 0.197 -0.36 0.221 -0.363 Q 0.272 -0.365 0.301 -0.402 L 0.301 -0.403 L 0.302 -0.404 L 0.303 -0.405 L 0.304 -0.405 L 0.31 -0.41500000000000004 Q 0.338 -0.462 0.338 -0.529 Q 0.338 -0.622 0.266 -0.638 Q 0.254 -0.641 0.242 -0.641 Q 0.17200000000000001 -0.641 0.128 -0.601 Q 0.117 -0.591 0.109 -0.579 Q 0.171 -0.579 0.171 -0.529 Q 0.171 -0.493 0.14 -0.481 Q 0.131 -0.47800000000000004 0.12 -0.47800000000000004 Q 0.081 -0.47800000000000004 0.07100000000000001 -0.513 L 0.07100000000000001 -0.513 L 0.07100000000000001 -0.514 Q 0.069 -0.522 0.069 -0.53 Q 0.069 -0.597 0.135 -0.637 Q 0.183 -0.666 0.246 -0.666 Q 0.337 -0.666 0.393 -0.612 L 0.395 -0.61 Q 0.43 -0.5740000000000001 0.43 -0.528 Q 0.43 -0.445 0.359 -0.389 Q 0.328 -0.365 0.29 -0.352 Z"/></g><g transform="translate(54.83380701754385,22.80263157894737)"><path fill="rgb(204,0,0)" stroke="none" paint-order="stroke fill markers" d=" M 0.289 -0.25 L 0.289 -0.25 Q 0.289 -0.081 0.226 0.055 Q 0.17400000000000002 0.166 0.094 0.233 Q 0.073 0.25 0.067 0.25 Q 0.057 0.25 0.057 0.24 Q 0.057 0.23500000000000001 0.07 0.223 Q 0.231 0.059000000000000004 0.231 -0.25 Q 0.231 -0.555 0.081 -0.712 L 0.076 -0.717 Q 0.057 -0.735 0.057 -0.74 Q 0.057 -0.75 0.067 -0.75 Q 0.079 -0.75 0.12 -0.709 Q 0.182 -0.647 0.223 -0.562 Q 0.289 -0.426 0.289 -0.25 Z"/></g></g><path fill="rgb(204,0,0)" stroke="none" paint-order="stroke fill markers" d=" M 136.1972224999996 376.0585687499996 C 136.1972224999996 378.81999249915356 133.9586462491536 381.0585687499996 131.1972224999996 381.0585687499996 C 128.43579875084563 381.0585687499996 126.19722249999961 378.81999249915356 126.19722249999961 376.0585687499996 C 126.19722249999961 373.29714500084566 128.43579875084563 371.0585687499996 131.1972224999996 371.0585687499996 C 133.9586462491536 371.0585687499996 136.1972224999996 373.29714500084566 136.1972224999996 376.0585687499996 Z" fill-opacity="1"/><path fill="none" stroke="rgb(0,0,0)" paint-order="fill stroke markers" d=" M 136.1972224999996 376.0585687499996 C 136.1972224999996 378.81999249915356 133.9586462491536 381.0585687499996 131.1972224999996 381.0585687499996 C 128.43579875084563 381.0585687499996 126.19722249999961 378.81999249915356 126.19722249999961 376.0585687499996 C 126.19722249999961 373.29714500084566 128.43579875084563 371.0585687499996 131.1972224999996 371.0585687499996 C 133.9586462491536 371.0585687499996 136.1972224999996 373.29714500084566 136.1972224999996 376.0585687499996 Z" stroke-opacity="1" stroke-linecap="round" stroke-linejoin="round" stroke-miterlimit="10"/><g transform="scale(19,19)"><g transform="translate(3.1052631578947367,18.75)"><path fill="rgb(204,0,0)" stroke="none" paint-order="stroke fill markers" d=" M 0.331 0.24 L 0.331 0.24 Q 0.331 0.25 0.321 0.25 Q 0.309 0.25 0.268 0.209 Q 0.20600000000000002 0.147 0.165 0.062 Q 0.099 -0.074 0.099 -0.25 Q 0.099 -0.419 0.162 -0.555 Q 0.214 -0.666 0.294 -0.733 Q 0.315 -0.75 0.321 -0.75 Q 0.331 -0.75 0.331 -0.74 Q 0.331 -0.735 0.318 -0.723 Q 0.157 -0.559 0.157 -0.25 Q 0.157 0.058 0.314 0.218 Q 0.331 0.23500000000000001 0.331 0.24 Z"/></g><g transform="translate(3.4942631578947365,18.75)"><path fill="rgb(204,0,0)" stroke="none" paint-order="stroke fill markers" d=" M 0.486 -0.381 L 0.39 0.001 Q 0.366 0.099 0.28300000000000003 0.16 Q 0.222 0.20500000000000002 0.156 0.20500000000000002 Q 0.089 0.20500000000000002 0.061 0.159 Q 0.05 0.14 0.05 0.11800000000000001 Q 0.05 0.067 0.091 0.055 Q 0.099 0.053 0.106 0.053 Q 0.138 0.053 0.14200000000000002 0.081 Q 0.14300000000000002 0.084 0.14300000000000002 0.088 Q 0.14300000000000002 0.111 0.123 0.129 Q 0.109 0.14100000000000001 0.08 0.14100000000000001 Q 0.098 0.183 0.156 0.183 Q 0.218 0.183 0.266 0.12 Q 0.305 0.068 0.328 -0.021 Q 0.329 -0.025 0.331 -0.034 Q 0.28600000000000003 0.011 0.23 0.011 Q 0.15 0.011 0.121 -0.048 Q 0.108 -0.074 0.108 -0.108 Q 0.108 -0.163 0.161 -0.305 Q 0.163 -0.311 0.166 -0.318 Q 0.183 -0.364 0.183 -0.388 Q 0.183 -0.42 0.158 -0.42 Q 0.10300000000000001 -0.42 0.068 -0.329 L 0.068 -0.328 Q 0.062 -0.313 0.057 -0.296 Q 0.046 -0.279 0.041 -0.278 Q 0.029 -0.278 0.029 -0.28800000000000003 Q 0.029 -0.306 0.05 -0.35100000000000003 Q 0.094 -0.442 0.161 -0.442 Q 0.214 -0.442 0.23500000000000001 -0.397 Q 0.243 -0.38 0.243 -0.36 Q 0.243 -0.339 0.223 -0.28800000000000003 Q 0.17200000000000001 -0.156 0.17200000000000001 -0.092 Q 0.17200000000000001 -0.011 0.234 -0.011 Q 0.292 -0.011 0.335 -0.073 Q 0.34500000000000003 -0.088 0.34700000000000003 -0.096 L 0.392 -0.276 Q 0.399 -0.309 0.41200000000000003 -0.356 Q 0.422 -0.399 0.426 -0.41000000000000003 Q 0.439 -0.431 0.461 -0.431 Q 0.486 -0.426 0.49 -0.404 Q 0.49 -0.395 0.486 -0.381 Z"/></g><g transform="translate(3.9842631578947367,18.9) scale(0.7,0.7)"><path fill="rgb(204,0,0)" stroke="none" paint-order="stroke fill markers" d=" M 0.294 -0.64 L 0.294 -0.079 Q 0.294 -0.049 0.306 -0.041 Q 0.323 -0.031 0.387 -0.031 L 0.419 -0.031 L 0.419 0 Q 0.384 -0.003 0.257 -0.003 Q 0.13 -0.003 0.095 0 L 0.095 -0.031 L 0.127 -0.031 Q 0.20400000000000001 -0.031 0.215 -0.049 L 0.216 -0.05 Q 0.22 -0.058 0.22 -0.079 L 0.22 -0.597 Q 0.168 -0.5710000000000001 0.089 -0.5710000000000001 L 0.089 -0.602 Q 0.209 -0.602 0.271 -0.666 Q 0.29 -0.666 0.293 -0.659 L 0.293 -0.659 L 0.293 -0.658 Q 0.294 -0.655 0.294 -0.64 Z"/></g><g transform="translate(4.334263157894736,18.75)"><path fill="rgb(204,0,0)" stroke="none" paint-order="stroke fill markers" d=" M 0.203 -0.001 L 0.203 -0.001 Q 0.203 0.096 0.14 0.169 Q 0.123 0.189 0.112 0.193 Q 0.10200000000000001 0.193 0.10200000000000001 0.182 Q 0.10200000000000001 0.177 0.113 0.166 Q 0.17300000000000001 0.106 0.18 0.019 Q 0.181 0.009000000000000001 0.181 -0.001 Q 0.181 -0.016 0.179 -0.016 Q 0.178 -0.016 0.17400000000000002 -0.013000000000000001 Q 0.16 0 0.139 0 Q 0.10200000000000001 0 0.09 -0.034 Q 0.08600000000000001 -0.043000000000000003 0.08600000000000001 -0.053 Q 0.08600000000000001 -0.089 0.117 -0.10200000000000001 Q 0.127 -0.106 0.139 -0.106 Q 0.183 -0.106 0.198 -0.048 Q 0.203 -0.027 0.203 -0.001 Z"/></g><g transform="translate(4.778929824561403,18.75)"><path fill="rgb(204,0,0)" stroke="none" paint-order="stroke fill markers" d=" M 0.486 -0.381 L 0.39 0.001 Q 0.366 0.099 0.28300000000000003 0.16 Q 0.222 0.20500000000000002 0.156 0.20500000000000002 Q 0.089 0.20500000000000002 0.061 0.159 Q 0.05 0.14 0.05 0.11800000000000001 Q 0.05 0.067 0.091 0.055 Q 0.099 0.053 0.106 0.053 Q 0.138 0.053 0.14200000000000002 0.081 Q 0.14300000000000002 0.084 0.14300000000000002 0.088 Q 0.14300000000000002 0.111 0.123 0.129 Q 0.109 0.14100000000000001 0.08 0.14100000000000001 Q 0.098 0.183 0.156 0.183 Q 0.218 0.183 0.266 0.12 Q 0.305 0.068 0.328 -0.021 Q 0.329 -0.025 0.331 -0.034 Q 0.28600000000000003 0.011 0.23 0.011 Q 0.15 0.011 0.121 -0.048 Q 0.108 -0.074 0.108 -0.108 Q 0.108 -0.163 0.161 -0.305 Q 0.163 -0.311 0.166 -0.318 Q 0.183 -0.364 0.183 -0.388 Q 0.183 -0.42 0.158 -0.42 Q 0.10300000000000001 -0.42 0.068 -0.329 L 0.068 -0.328 Q 0.062 -0.313 0.057 -0.296 Q 0.046 -0.279 0.041 -0.278 Q 0.029 -0.278 0.029 -0.28800000000000003 Q 0.029 -0.306 0.05 -0.35100000000000003 Q 0.094 -0.442 0.161 -0.442 Q 0.214 -0.442 0.23500000000000001 -0.397 Q 0.243 -0.38 0.243 -0.36 Q 0.243 -0.339 0.223 -0.28800000000000003 Q 0.17200000000000001 -0.156 0.17200000000000001 -0.092 Q 0.17200000000000001 -0.011 0.234 -0.011 Q 0.292 -0.011 0.335 -0.073 Q 0.34500000000000003 -0.088 0.34700000000000003 -0.096 L 0.392 -0.276 Q 0.399 -0.309 0.41200000000000003 -0.356 Q 0.422 -0.399 0.426 -0.41000000000000003 Q 0.439 -0.431 0.461 -0.431 Q 0.486 -0.426 0.49 -0.404 Q 0.49 -0.395 0.486 -0.381 Z"/></g><g transform="translate(5.268929824561403,18.9) scale(0.7,0.7)"><path fill="rgb(204,0,0)" stroke="none" paint-order="stroke fill markers" d=" M 0.449 -0.17400000000000002 L 0.449 -0.17400000000000002 L 0.421 0 L 0.05 0 Q 0.05 -0.025 0.056 -0.032 L 0.061 -0.037 L 0.253 -0.251 Q 0.358 -0.369 0.358 -0.47200000000000003 Q 0.358 -0.561 0.304 -0.607 L 0.303 -0.608 L 0.302 -0.608 Q 0.27 -0.635 0.224 -0.635 Q 0.152 -0.635 0.109 -0.5730000000000001 Q 0.097 -0.555 0.089 -0.533 Q 0.092 -0.534 0.10200000000000001 -0.534 Q 0.14200000000000002 -0.534 0.153 -0.498 L 0.153 -0.497 Q 0.155 -0.49 0.155 -0.482 Q 0.155 -0.442 0.117 -0.431 Q 0.109 -0.429 0.10300000000000001 -0.429 Q 0.066 -0.429 0.054 -0.46 Q 0.05 -0.47100000000000003 0.05 -0.485 Q 0.05 -0.562 0.109 -0.617 Q 0.162 -0.666 0.23700000000000002 -0.666 Q 0.34700000000000003 -0.666 0.40800000000000003 -0.592 Q 0.443 -0.549 0.448 -0.49 Q 0.449 -0.481 0.449 -0.47200000000000003 Q 0.449 -0.399 0.394 -0.333 Q 0.365 -0.299 0.304 -0.243 L 0.243 -0.189 L 0.233 -0.18 L 0.127 -0.077 L 0.307 -0.077 Q 0.395 -0.077 0.402 -0.085 Q 0.41200000000000003 -0.099 0.424 -0.17400000000000002 L 0.449 -0.17400000000000002 Z"/></g><g transform="translate(5.618929824561403,18.75)"><path fill="rgb(204,0,0)" stroke="none" paint-order="stroke fill markers" d=" M 0.203 -0.001 L 0.203 -0.001 Q 0.203 0.096 0.14 0.169 Q 0.123 0.189 0.112 0.193 Q 0.10200000000000001 0.193 0.10200000000000001 0.182 Q 0.10200000000000001 0.177 0.113 0.166 Q 0.17300000000000001 0.106 0.18 0.019 Q 0.181 0.009000000000000001 0.181 -0.001 Q 0.181 -0.016 0.179 -0.016 Q 0.178 -0.016 0.17400000000000002 -0.013000000000000001 Q 0.16 0 0.139 0 Q 0.10200000000000001 0 0.09 -0.034 Q 0.08600000000000001 -0.043000000000000003 0.08600000000000001 -0.053 Q 0.08600000000000001 -0.089 0.117 -0.10200000000000001 Q 0.127 -0.106 0.139 -0.106 Q 0.183 -0.106 0.198 -0.048 Q 0.203 -0.027 0.203 -0.001 Z"/></g><g transform="translate(6.063596491228069,18.75)"><path fill="rgb(204,0,0)" stroke="none" paint-order="stroke fill markers" d=" M 0.486 -0.381 L 0.39 0.001 Q 0.366 0.099 0.28300000000000003 0.16 Q 0.222 0.20500000000000002 0.156 0.20500000000000002 Q 0.089 0.20500000000000002 0.061 0.159 Q 0.05 0.14 0.05 0.11800000000000001 Q 0.05 0.067 0.091 0.055 Q 0.099 0.053 0.106 0.053 Q 0.138 0.053 0.14200000000000002 0.081 Q 0.14300000000000002 0.084 0.14300000000000002 0.088 Q 0.14300000000000002 0.111 0.123 0.129 Q 0.109 0.14100000000000001 0.08 0.14100000000000001 Q 0.098 0.183 0.156 0.183 Q 0.218 0.183 0.266 0.12 Q 0.305 0.068 0.328 -0.021 Q 0.329 -0.025 0.331 -0.034 Q 0.28600000000000003 0.011 0.23 0.011 Q 0.15 0.011 0.121 -0.048 Q 0.108 -0.074 0.108 -0.108 Q 0.108 -0.163 0.161 -0.305 Q 0.163 -0.311 0.166 -0.318 Q 0.183 -0.364 0.183 -0.388 Q 0.183 -0.42 0.158 -0.42 Q 0.10300000000000001 -0.42 0.068 -0.329 L 0.068 -0.328 Q 0.062 -0.313 0.057 -0.296 Q 0.046 -0.279 0.041 -0.278 Q 0.029 -0.278 0.029 -0.28800000000000003 Q 0.029 -0.306 0.05 -0.35100000000000003 Q 0.094 -0.442 0.161 -0.442 Q 0.214 -0.442 0.23500000000000001 -0.397 Q 0.243 -0.38 0.243 -0.36 Q 0.243 -0.339 0.223 -0.28800000000000003 Q 0.17200000000000001 -0.156 0.17200000000000001 -0.092 Q 0.17200000000000001 -0.011 0.234 -0.011 Q 0.292 -0.011 0.335 -0.073 Q 0.34500000000000003 -0.088 0.34700000000000003 -0.096 L 0.392 -0.276 Q 0.399 -0.309 0.41200000000000003 -0.356 Q 0.422 -0.399 0.426 -0.41000000000000003 Q 0.439 -0.431 0.461 -0.431 Q 0.486 -0.426 0.49 -0.404 Q 0.49 -0.395 0.486 -0.381 Z"/></g><g transform="translate(6.5535964912280695,18.9) scale(0.7,0.7)"><path fill="rgb(204,0,0)" stroke="none" paint-order="stroke fill markers" d=" M 0.29 -0.352 L 0.29 -0.352 Q 0.39 -0.332 0.434 -0.254 Q 0.457 -0.215 0.457 -0.171 Q 0.457 -0.08600000000000001 0.387 -0.028 Q 0.326 0.022 0.244 0.022 Q 0.145 0.022 0.085 -0.037 Q 0.042 -0.079 0.042 -0.135 Q 0.042 -0.182 0.084 -0.191 Q 0.091 -0.193 0.098 -0.193 Q 0.136 -0.193 0.149 -0.161 Q 0.153 -0.148 0.154 -0.137 Q 0.154 -0.097 0.11800000000000001 -0.085 Q 0.10400000000000001 -0.08 0.088 -0.082 Q 0.125 -0.02 0.216 -0.008 Q 0.229 -0.006 0.241 -0.006 Q 0.305 -0.006 0.335 -0.069 Q 0.354 -0.109 0.354 -0.171 Q 0.354 -0.304 0.274 -0.331 Q 0.256 -0.337 0.23500000000000001 -0.337 L 0.191 -0.337 Q 0.169 -0.337 0.167 -0.34800000000000003 Q 0.167 -0.358 0.182 -0.36 Q 0.197 -0.36 0.221 -0.363 Q 0.272 -0.365 0.301 -0.402 L 0.301 -0.403 L 0.302 -0.404 L 0.303 -0.405 L 0.304 -0.405 L 0.31 -0.41500000000000004 Q 0.338 -0.462 0.338 -0.529 Q 0.338 -0.622 0.266 -0.638 Q 0.254 -0.641 0.242 -0.641 Q 0.17200000000000001 -0.641 0.128 -0.601 Q 0.117 -0.591 0.109 -0.579 Q 0.171 -0.579 0.171 -0.529 Q 0.171 -0.493 0.14 -0.481 Q 0.131 -0.47800000000000004 0.12 -0.47800000000000004 Q 0.081 -0.47800000000000004 0.07100000000000001 -0.513 L 0.07100000000000001 -0.513 L 0.07100000000000001 -0.514 Q 0.069 -0.522 0.069 -0.53 Q 0.069 -0.597 0.135 -0.637 Q 0.183 -0.666 0.246 -0.666 Q 0.337 -0.666 0.393 -0.612 L 0.395 -0.61 Q 0.43 -0.5740000000000001 0.43 -0.528 Q 0.43 -0.445 0.359 -0.389 Q 0.328 -0.365 0.29 -0.352 Z"/></g><g transform="translate(6.903596491228069,18.75)"><path fill="rgb(204,0,0)" stroke="none" paint-order="stroke fill markers" d=" M 0.289 -0.25 L 0.289 -0.25 Q 0.289 -0.081 0.226 0.055 Q 0.17400000000000002 0.166 0.094 0.233 Q 0.073 0.25 0.067 0.25 Q 0.057 0.25 0.057 0.24 Q 0.057 0.23500000000000001 0.07 0.223 Q 0.231 0.059000000000000004 0.231 -0.25 Q 0.231 -0.555 0.081 -0.712 L 0.076 -0.717 Q 0.057 -0.735 0.057 -0.74 Q 0.057 -0.75 0.067 -0.75 Q 0.079 -0.75 0.12 -0.709 Q 0.182 -0.647 0.223 -0.562 Q 0.289 -0.426 0.289 -0.25 Z"/></g></g></g></g></svg>