<svg version="1.1" xmlns="http://www.w3.org/2000/svg" xmlns:xlink="http://www.w3.org/1999/xlink" width="1888" height="955"><defs><clipPath id="JlmBvefiyETt"><path fill="none" stroke="none" d=" M 0 0 L 1888 0 L 1888 955 L 0 955 L 0 0 Z"/></clipPath></defs><g transform="scale(1,1)" clip-path="url(#JlmBvefiyETt)"><g><rect fill="rgb(255,255,255)" stroke="none" x="0" y="0" width="1888" height="955" fill-opacity="1"/><path fill="rgb(204,0,0)" stroke="none" paint-order="stroke fill markers" fill-rule="evenodd" d=" M 710.7105307652756 831.1181536037782 L 1053.9907888142025 831.1181536037782 L 1268.0225288871425 562.730840551376 L 1191.6354852573309 228.05733527849566 L 882.3506597897391 79.11361335098593 L 573.0658343221471 228.05733527849554 L 496.6787906923354 562.7308405513759 Z" fill-opacity="0.2"/><path fill="none" stroke="rgb(204,0,0)" paint-order="fill stroke markers" d=" M 710.7105307652756 831.1181536037782 L 1053.9907888142025 831.1181536037782 L 1268.0225288871425 562.730840551376 L 1191.6354852573309 228.05733527849566 L 882.3506597897391 79.11361335098593 L 573.0658343221471 228.05733527849554 L 496.6787906923354 562.7308405513759 Z" stroke-opacity="0.6980392156862745" stroke-linecap="round" stroke-linejoin="round" stroke-miterlimit="10" stroke-width="2.5"/><path fill="none" stroke="rgb(204,0,0)" paint-order="fill stroke markers" d=" M 710.7105307652756 831.1181536037782 L 1053.9907888142025 831.1181536037782" stroke-opacity="0.6980392156862745" stroke-linecap="round" stroke-linejoin="round" stroke-miterlimit="10" stroke-width="2.5"/><path fill="none" stroke="rgb(204,0,0)" paint-order="fill stroke markers" d=" M 1053.9907888142025 831.1181536037782 L 1268.0225288871425 562.730840551376" stroke-opacity="0.6980392156862745" stroke-linecap="round" stroke-linejoin="round" stroke-miterlimit="10" stroke-width="2.5"/><path fill="none" stroke="rgb(204,0,0)" paint-order="fill stroke markers" d=" M 1268.0225288871425 562.730840551376 L 1191.6354852573309 228.05733527849566" stroke-opacity="0.6980392156862745" stroke-linecap="round" stroke-linejoin="round" stroke-miterlimit="10" stroke-width="2.5"/><path fill="none" stroke="rgb(204,0,0)" paint-order="fill stroke markers" d=" M 1191.6354852573309 228.05733527849566 L 882.3506597897391 79.11361335098593" stroke-opacity="0.6980392156862745" stroke-linecap="round" stroke-linejoin="round" stroke-miterlimit="10" stroke-width="2.5"/><path fill="none" stroke="rgb(204,0,0)" paint-order="fill stroke markers" d=" M 882.3506597897391 79.11361335098593 L 573.0658343221471 228.05733527849554" stroke-opacity="0.6980392156862745" stroke-linecap="round" stroke-linejoin="round" stroke-miterlimit="10" stroke-width="2.5"/><path fill="none" stroke="rgb(204,0,0)" paint-order="fill stroke markers" d=" M 573.0658343221471 228.05733527849554 L 496.6787906923354 562.7308405513759" stroke-opacity="0.6980392156862745" stroke-linecap="round" stroke-linejoin="round" stroke-miterlimit="10" stroke-width="2.5"/><path fill="none" stroke="rgb(204,0,0)" paint-order="fill stroke markers" d=" M 496.6787906923354 562.7308405513759 L 710.7105307652756 831.1181536037782" stroke-opacity="0.6980392156862745" stroke-linecap="round" stroke-linejoin="round" stroke-miterlimit="10" stroke-width="2.5"/><path fill="none" stroke="rgb(0,0,0)" paint-order="fill stroke markers" d=" M 882.3506597897391 79.11361335098593 L 882.350659789739 831.1181536037782" stroke-opacity="0.6980392156862745" stroke-linecap="round" stroke-linejoin="round" stroke-miterlimit="10" stroke-width="2.5"/><path fill="none" stroke="rgb(0,0,0)" paint-order="fill stroke markers" d=" M 1191.6354852573309 228.05733527849566 L 603.6946607288055 696.9244970775771" stroke-opacity="0.6980392156862745" stroke-linecap="round" stroke-linejoin="round" stroke-miterlimit="10" stroke-width="2.5"/><path fill="none" stroke="rgb(0,0,0)" paint-order="fill stroke markers" d=" M 1268.0225288871425 562.730840551376 L 534.8723125072413 395.3940879149357" stroke-opacity="0.6980392156862745" stroke-linecap="round" stroke-linejoin="round" stroke-miterlimit="10" stroke-width="2.5"/><path fill="none" stroke="rgb(0,0,0)" paint-order="fill stroke markers" d=" M 1053.9907888142025 831.1181536037782 L 727.708247055943 153.58547431474074" stroke-opacity="0.6980392156862745" stroke-linecap="round" stroke-linejoin="round" stroke-miterlimit="10" stroke-width="2.5"/><path fill="none" stroke="rgb(0,0,0)" paint-order="fill stroke markers" d=" M 710.7105307652756 831.1181536037782 L 1036.993072523535 153.58547431474085" stroke-opacity="0.6980392156862745" stroke-linecap="round" stroke-linejoin="round" stroke-miterlimit="10" stroke-width="2.5"/><path fill="none" stroke="rgb(0,0,0)" paint-order="fill stroke markers" d=" M 496.6787906923354 562.7308405513759 L 1229.8290070722367 395.3940879149359" stroke-opacity="0.6980392156862745" stroke-linecap="round" stroke-linejoin="round" stroke-miterlimit="10" stroke-width="2.5"/><path fill="none" stroke="rgb(0,0,0)" paint-order="fill stroke markers" d=" M 573.0658343221471 228.05733527849554 L 1161.0066588506725 696.9244970775771" stroke-opacity="0.6980392156862745" stroke-linecap="round" stroke-linejoin="round" stroke-miterlimit="10" stroke-width="2.5"/><path fill="rgb(204,0,0)" stroke="none" paint-order="stroke fill markers" d=" M 715.7105307652756 831.1181536037782 C 715.7105307652756 833.8795773529322 713.4719545144296 836.1181536037782 710.7105307652756 836.1181536037782 C 707.9491070161216 836.1181536037782 705.7105307652756 833.8795773529322 705.7105307652756 831.1181536037782 C 705.7105307652756 828.3567298546242 707.9491070161216 826.1181536037782 710.7105307652756 826.1181536037782 C 713.4719545144296 826.1181536037782 715.7105307652756 828.3567298546242 715.7105307652756 831.1181536037782 Z" fill-opacity="1"/><path fill="none" stroke="rgb(0,0,0)" paint-order="fill stroke markers" d=" M 715.7105307652756 831.1181536037782 C 715.7105307652756 833.8795773529322 713.4719545144296 836.1181536037782 710.7105307652756 836.1181536037782 C 707.9491070161216 836.1181536037782 705.7105307652756 833.8795773529322 705.7105307652756 831.1181536037782 C 705.7105307652756 828.3567298546242 707.9491070161216 826.1181536037782 710.7105307652756 826.1181536037782 C 713.4719545144296 826.1181536037782 715.7105307652756 828.3567298546242 715.7105307652756 831.1181536037782 Z" stroke-opacity="1" stroke-linecap="round" stroke-linejoin="round" stroke-miterlimit="10"/><path fill="rgb(204,0,0)" stroke="none" paint-order="stroke fill markers" d=" M 1058.9907888142025 831.1181536037782 C 1058.9907888142025 833.8795773529322 1056.7522125633564 836.1181536037782 1053.9907888142025 836.1181536037782 C 1051.2293650650486 836.1181536037782 1048.9907888142025 833.8795773529322 1048.9907888142025 831.1181536037782 C 1048.9907888142025 828.3567298546242 1051.2293650650486 826.1181536037782 1053.9907888142025 826.1181536037782 C 1056.7522125633564 826.1181536037782 1058.9907888142025 828.3567298546242 1058.9907888142025 831.1181536037782 Z" fill-opacity="1"/><path fill="none" stroke="rgb(0,0,0)" paint-order="fill stroke markers" d=" M 1058.9907888142025 831.1181536037782 C 1058.9907888142025 833.8795773529322 1056.7522125633564 836.1181536037782 1053.9907888142025 836.1181536037782 C 1051.2293650650486 836.1181536037782 1048.9907888142025 833.8795773529322 1048.9907888142025 831.1181536037782 C 1048.9907888142025 828.3567298546242 1051.2293650650486 826.1181536037782 1053.9907888142025 826.1181536037782 C 1056.7522125633564 826.1181536037782 1058.9907888142025 828.3567298546242 1058.9907888142025 831.1181536037782 Z" stroke-opacity="1" stroke-linecap="round" stroke-linejoin="round" stroke-miterlimit="10"/><path fill="rgb(204,0,0)" stroke="none" paint-order="stroke fill markers" d=" M 1273.0225288871425 562.730840551376 C 1273.0225288871425 565.49226430053 1270.7839526362964 567.730840551376 1268.0225288871425 567.730840551376 C 1265.2611051379886 567.730840551376 1263.0225288871425 565.49226430053 1263.0225288871425 562.730840551376 C 1263.0225288871425 559.969416802222 1265.2611051379886 557.730840551376 1268.0225288871425 557.730840551376 C 1270.7839526362964 557.730840551376 1273.0225288871425 559.969416802222 1273.0225288871425 562.730840551376 Z" fill-opacity="1"/><path fill="none" stroke="rgb(0,0,0)" paint-order="fill stroke markers" d=" M 1273.0225288871425 562.730840551376 C 1273.0225288871425 565.49226430053 1270.7839526362964 567.730840551376 1268.0225288871425 567.730840551376 C 1265.2611051379886 567.730840551376 1263.0225288871425 565.49226430053 1263.0225288871425 562.730840551376 C 1263.0225288871425 559.969416802222 1265.2611051379886 557.730840551376 1268.0225288871425 557.730840551376 C 1270.7839526362964 557.730840551376 1273.0225288871425 559.969416802222 1273.0225288871425 562.730840551376 Z" stroke-opacity="1" stroke-linecap="round" stroke-linejoin="round" stroke-miterlimit="10"/><path fill="rgb(204,0,0)" stroke="none" paint-order="stroke fill markers" d=" M 1196.6354852573309 228.05733527849566 C 1196.6354852573309 230.81875902764963 1194.3969090064847 233.05733527849566 1191.6354852573309 233.05733527849566 C 1188.874061508177 233.05733527849566 1186.6354852573309 230.81875902764963 1186.6354852573309 228.05733527849566 C 1186.6354852573309 225.29591152934168 1188.874061508177 223.05733527849566 1191.6354852573309 223.05733527849566 C 1194.3969090064847 223.05733527849566 1196.6354852573309 225.29591152934168 1196.6354852573309 228.05733527849566 Z" fill-opacity="1"/><path fill="none" stroke="rgb(0,0,0)" paint-order="fill stroke markers" d=" M 1196.6354852573309 228.05733527849566 C 1196.6354852573309 230.81875902764963 1194.3969090064847 233.05733527849566 1191.6354852573309 233.05733527849566 C 1188.874061508177 233.05733527849566 1186.6354852573309 230.81875902764963 1186.6354852573309 228.05733527849566 C 1186.6354852573309 225.29591152934168 1188.874061508177 223.05733527849566 1191.6354852573309 223.05733527849566 C 1194.3969090064847 223.05733527849566 1196.6354852573309 225.29591152934168 1196.6354852573309 228.05733527849566 Z" stroke-opacity="1" stroke-linecap="round" stroke-linejoin="round" stroke-miterlimit="10"/><path fill="rgb(204,0,0)" stroke="none" paint-order="stroke fill markers" d=" M 887.3506597897391 79.11361335098593 C 887.3506597897391 81.87503710013989 885.1120835388931 84.11361335098593 882.3506597897391 84.11361335098593 C 879.5892360405851 84.11361335098593 877.3506597897391 81.87503710013989 877.3506597897391 79.11361335098593 C 877.3506597897391 76.35218960183197 879.5892360405851 74.11361335098593 882.3506597897391 74.11361335098593 C 885.1120835388931 74.11361335098593 887.3506597897391 76.35218960183197 887.3506597897391 79.11361335098593 Z" fill-opacity="1"/><path fill="none" stroke="rgb(0,0,0)" paint-order="fill stroke markers" d=" M 887.3506597897391 79.11361335098593 C 887.3506597897391 81.87503710013989 885.1120835388931 84.11361335098593 882.3506597897391 84.11361335098593 C 879.5892360405851 84.11361335098593 877.3506597897391 81.87503710013989 877.3506597897391 79.11361335098593 C 877.3506597897391 76.35218960183197 879.5892360405851 74.11361335098593 882.3506597897391 74.11361335098593 C 885.1120835388931 74.11361335098593 887.3506597897391 76.35218960183197 887.3506597897391 79.11361335098593 Z" stroke-opacity="1" stroke-linecap="round" stroke-linejoin="round" stroke-miterlimit="10"/><path fill="rgb(204,0,0)" stroke="none" paint-order="stroke fill markers" d=" M 578.0658343221471 228.05733527849554 C 578.0658343221471 230.81875902764952 575.8272580713011 233.05733527849554 573.0658343221471 233.05733527849554 C 570.3044105729931 233.05733527849554 568.0658343221471 230.81875902764952 568.0658343221471 228.05733527849554 C 568.0658343221471 225.29591152934157 570.3044105729931 223.05733527849554 573.0658343221471 223.05733527849554 C 575.8272580713011 223.05733527849554 578.0658343221471 225.29591152934157 578.0658343221471 228.05733527849554 Z" fill-opacity="1"/><path fill="none" stroke="rgb(0,0,0)" paint-order="fill stroke markers" d=" M 578.0658343221471 228.05733527849554 C 578.0658343221471 230.81875902764952 575.8272580713011 233.05733527849554 573.0658343221471 233.05733527849554 C 570.3044105729931 233.05733527849554 568.0658343221471 230.81875902764952 568.0658343221471 228.05733527849554 C 568.0658343221471 225.29591152934157 570.3044105729931 223.05733527849554 573.0658343221471 223.05733527849554 C 575.8272580713011 223.05733527849554 578.0658343221471 225.29591152934157 578.0658343221471 228.05733527849554 Z" stroke-opacity="1" stroke-linecap="round" stroke-linejoin="round" stroke-miterlimit="10"/><path fill="rgb(204,0,0)" stroke="none" paint-order="stroke fill markers" d=" M 501.6787906923354 562.7308405513759 C 501.6787906923354 565.4922643005299 499.44021444148933 567.7308405513759 496.6787906923354 567.7308405513759 C 493.91736694318143 567.7308405513759 491.6787906923354 565.4922643005299 491.6787906923354 562.7308405513759 C 491.6787906923354 559.9694168022219 493.91736694318143 557.7308405513759 496.6787906923354 557.7308405513759 C 499.44021444148933 557.7308405513759 501.6787906923354 559.9694168022219 501.6787906923354 562.7308405513759 Z" fill-opacity="1"/><path fill="none" stroke="rgb(0,0,0)" paint-order="fill stroke markers" d=" M 501.6787906923354 562.7308405513759 C 501.6787906923354 565.4922643005299 499.44021444148933 567.7308405513759 496.6787906923354 567.7308405513759 C 493.91736694318143 567.7308405513759 491.6787906923354 565.4922643005299 491.6787906923354 562.7308405513759 C 491.6787906923354 559.9694168022219 493.91736694318143 557.7308405513759 496.6787906923354 557.7308405513759 C 499.44021444148933 557.7308405513759 501.6787906923354 559.9694168022219 501.6787906923354 562.7308405513759 Z" stroke-opacity="1" stroke-linecap="round" stroke-linejoin="round" stroke-miterlimit="10"/></g></g></svg>