<?xml version="1.0" encoding="UTF-8" standalone="no"?>
<!-- Created with Inkscape (http://www.inkscape.org/) -->

<svg
   width="210mm"
   height="297mm"
   viewBox="0 0 210 297"
   version="1.1"
   id="svg5"
   sodipodi:docname="primitive_rectangle.svg"
   inkscape:version="1.2.2 (b0a8486541, 2022-12-01)"
   xmlns:inkscape="http://www.inkscape.org/namespaces/inkscape"
   xmlns:sodipodi="http://sodipodi.sourceforge.net/DTD/sodipodi-0.dtd"
   xmlns="http://www.w3.org/2000/svg"
   xmlns:svg="http://www.w3.org/2000/svg">
  <sodipodi:namedview
     id="namedview7"
     pagecolor="#ffffff"
     bordercolor="#000000"
     borderopacity="0.25"
     inkscape:showpageshadow="2"
     inkscape:pageopacity="0.0"
     inkscape:pagecheckerboard="0"
     inkscape:deskcolor="#d1d1d1"
     inkscape:document-units="mm"
     showgrid="false"
     inkscape:zoom="2.0956112"
     inkscape:cx="534.21169"
     inkscape:cy="156.04039"
     inkscape:window-width="1888"
     inkscape:window-height="1008"
     inkscape:window-x="13"
     inkscape:window-y="53"
     inkscape:window-maximized="1"
     inkscape:current-layer="layer1" />
  <defs
     id="defs2">
    <marker
       style="overflow:visible"
       id="Arrow5"
       refX="0"
       refY="0"
       orient="auto-start-reverse"
       inkscape:stockid="Arrow5"
       markerWidth="5.8874259"
       markerHeight="6.6094756"
       viewBox="0 0 5.8874262 6.6094758"
       inkscape:isstock="true"
       inkscape:collect="always"
       preserveAspectRatio="xMidYMid">
      <path
         transform="scale(0.5)"
         style="fill:context-stroke;fill-rule:evenodd;stroke:context-stroke;stroke-width:1pt"
         d="m 6,0 c -3,1 -7,3 -9,5 0,0 0,-4 2,-5 -2,-1 -2,-5 -2,-5 2,2 6,4 9,5 z"
         id="path8893" />
    </marker>
    <clipPath
       id="clipPath1802">
      <path
         clip-rule="nonzero"
         d="m 9,2 h 7 v 9.996094 H 9 Z m 0,0"
         id="path7461" />
    </clipPath>
    <clipPath
       id="clipPath1802-7">
      <path
         clip-rule="nonzero"
         d="m 9,2 h 7 v 9.996094 H 9 Z m 0,0"
         id="path7461-0" />
    </clipPath>
    <clipPath
       id="clipPath1802-2">
      <path
         clip-rule="nonzero"
         d="m 9,2 h 7 v 9.996094 H 9 Z m 0,0"
         id="path7461-02" />
    </clipPath>
    <clipPath
       id="clipPath3083">
      <path
         clip-rule="nonzero"
         d="m 9,7 h 7 V 17.449219 H 9 Z m 0,0"
         id="path3935" />
    </clipPath>
    <clipPath
       id="clipPath3525">
      <path
         clip-rule="nonzero"
         d="m 12,7 h 6 v 10.449219 h -6 z m 0,0"
         id="path4001" />
    </clipPath>
    <clipPath
       id="clipPath2724">
      <path
         clip-rule="nonzero"
         d="m 37,7 h 7 v 10.449219 h -7 z m 0,0"
         id="path6593" />
    </clipPath>
  </defs>
  <g
     inkscape:label="Layer 1"
     inkscape:groupmode="layer"
     id="layer1">
    <rect
       style="fill:none;fill-opacity:1;stroke:#000000;stroke-width:0.499999;stroke-dasharray:none;stroke-opacity:1"
       id="rect2795"
       width="128.01419"
       height="79.117119"
       x="34.542591"
       y="36.921997" />
    <path
       style="fill:none;fill-opacity:1;stroke:#000000;stroke-width:0.499999;stroke-dasharray:none;stroke-opacity:1"
       d="M 162.55678,36.921998 V 7.8336142"
       id="path2797" />
    <ellipse
       style="fill:#000000;fill-opacity:1;stroke:none;stroke-width:0.163729;stroke-dasharray:none;stroke-opacity:1"
       id="path2799"
       cx="34.542591"
       cy="116.03912"
       rx="1.4181354"
       ry="1.4181356" />
    <ellipse
       style="fill:#000000;fill-opacity:1;stroke:none;stroke-width:0.163729;stroke-dasharray:none;stroke-opacity:1"
       id="path2799-2"
       cx="119.50534"
       cy="36.921997"
       rx="1.4181354"
       ry="1.4181356" />
    <ellipse
       style="fill:#000000;fill-opacity:1;stroke:none;stroke-width:0.163729;stroke-dasharray:none;stroke-opacity:1"
       id="path2799-5"
       cx="162.55678"
       cy="7.8336143"
       rx="1.4181354"
       ry="1.4181356" />
    <path
       style="fill:#000000;fill-opacity:1;stroke:#000000;stroke-width:0.499999;stroke-dasharray:none;stroke-opacity:1"
       d="M 119.50534,116.03912 V 36.921998"
       id="path2803" />
    <path
       style="fill:none;fill-opacity:1;stroke:#000000;stroke-width:0.5;stroke-dasharray:none;stroke-opacity:1;marker-end:url(#Arrow5)"
       id="path2861"
       sodipodi:type="arc"
       sodipodi:cx="73.255539"
       sodipodi:cy="72.393921"
       sodipodi:rx="11.806341"
       sodipodi:ry="11.806341"
       sodipodi:start="5.4977871"
       sodipodi:end="4.4505896"
       sodipodi:open="true"
       sodipodi:arc-type="arc"
       d="m 81.603882,64.045577 a 11.806341,11.806341 0 0 1 1.876249,14.251514 11.806341,11.806341 0 0 1 -13.280298,5.50088 11.806341,11.806341 0 0 1 -8.750635,-11.40405 11.806341,11.806341 0 0 1 8.750635,-11.40405" />
    <path
       style="fill:none;fill-opacity:1;stroke:#000000;stroke-width:0.5;stroke-dasharray:none;stroke-opacity:1;marker-start:url(#Arrow5)"
       id="path2861-4"
       sodipodi:type="arc"
       sodipodi:cx="140.24623"
       sodipodi:cy="72.18808"
       sodipodi:rx="11.806341"
       sodipodi:ry="11.806341"
       sodipodi:start="5.4977871"
       sodipodi:end="4.4505896"
       sodipodi:open="true"
       sodipodi:arc-type="arc"
       d="m 148.59457,63.839736 a 11.806341,11.806341 0 0 1 1.87625,14.251514 11.806341,11.806341 0 0 1 -13.28029,5.50088 11.806341,11.806341 0 0 1 -8.75064,-11.40405 11.806341,11.806341 0 0 1 8.75064,-11.40405" />
    <g
       id="g3207"
       transform="translate(-58.36126,66.794127)">
      <g
         fill="#000000"
         fill-opacity="1"
         id="g29"
         transform="matrix(0.352778,0,0,0.352778,85.904812,48.814708)">
        <g
           id="use27"
           transform="translate(0,14.349)">
          <path
             d="M 2.625,-1.671875 C 3.515625,-2.6875 4.234375,-3.328125 5.265625,-4.25 6.5,-5.328125 7.046875,-5.84375 7.328125,-6.15625 8.78125,-7.578125 9.5,-8.78125 9.5,-8.9375 9.5,-9.109375 9.34375,-9.109375 9.296875,-9.109375 9.15625,-9.109375 9.109375,-9.03125 9,-8.875 8.484375,-8 8,-7.5625 7.453125,-7.5625 c -0.4375,0 -0.65625,-0.1875 -1.046875,-0.671875 -0.4375,-0.53125 -0.78125,-0.875 -1.390625,-0.875 -1.5,0 -2.40625,1.875 -2.40625,2.3125 0,0.0625 0.015625,0.1875 0.203125,0.1875 0.15625,0 0.1875,-0.078125 0.25,-0.234375 0.34375,-0.8125 1.34375,-0.96875 1.734375,-0.96875 0.421875,0 0.84375,0.15625 1.28125,0.328125 0.78125,0.34375 1.109375,0.34375 1.3125,0.34375 0.15625,0 0.234375,0 0.328125,-0.03125 C 7.046875,-6.359375 5.921875,-5.375 5,-4.53125 l -2.09375,1.921875 c -1.25,1.28125 -2.015625,2.5 -2.015625,2.65625 0,0.125 0.09375,0.15625 0.21875,0.15625 0.125,0 0.15625,-0.015625 0.296875,-0.265625 0.328125,-0.515625 0.984375,-1.28125 1.75,-1.28125 0.4375,0 0.640625,0.140625 1.0625,0.65625 0.390625,0.453125 0.734375,0.890625 1.40625,0.890625 2.015625,0 3.171875,-2.625 3.171875,-3.09375 0,-0.078125 -0.015625,-0.203125 -0.21875,-0.203125 -0.171875,0 -0.1875,0.078125 -0.25,0.28125 C 7.875,-1.59375 6.65625,-1.09375 5.84375,-1.09375 5.40625,-1.09375 5,-1.234375 4.5625,-1.421875 3.734375,-1.75 3.515625,-1.75 3.25,-1.75 c -0.21875,0 -0.4375,0 -0.625,0.078125 z m 0,0"
             id="path57" />
        </g>
      </g>
      <g
         clip-path="url(#clipPath3083)"
         id="g35"
         transform="matrix(0.352778,0,0,0.352778,85.904812,48.814708)">
        <g
           fill="#000000"
           fill-opacity="1"
           id="g33">
          <g
             id="use31"
             transform="translate(9.3979998,17.448)">
            <path
               d="m 6.421875,-4.59375 c 0,-1.1875 -0.0625,-2.34375 -0.578125,-3.4375 -0.59375,-1.1875 -1.625,-1.5 -2.328125,-1.5 -0.828125,0 -1.859375,0.40625 -2.375,1.59375 -0.40625,0.90625 -0.546875,1.796875 -0.546875,3.34375 0,1.390625 0.09375,2.4375 0.609375,3.453125 0.5625,1.09375 1.546875,1.4375 2.296875,1.4375 1.25,0 1.96875,-0.734375 2.375,-1.578125 0.515625,-1.078125 0.546875,-2.484375 0.546875,-3.3125 z M 3.5,0.015625 C 3.046875,0.015625 2.109375,-0.25 1.84375,-1.8125 1.671875,-2.671875 1.671875,-3.765625 1.671875,-4.765625 1.671875,-5.9375 1.671875,-7 1.90625,-7.84375 2.15625,-8.8125 2.890625,-9.25 3.5,-9.25 c 0.546875,0 1.375,0.328125 1.65625,1.5625 0.171875,0.8125 0.171875,1.953125 0.171875,2.921875 0,0.96875 0,2.046875 -0.15625,2.921875 C 4.90625,-0.265625 4,0.015625 3.5,0.015625 Z m 0,0"
               id="path61" />
          </g>
        </g>
      </g>
    </g>
    <g
       fill="#000000"
       fill-opacity="1"
       id="g39"
       transform="matrix(0.352778,0,0,0.352778,111.13727,28.952786)">
      <g
         id="use37"
         transform="translate(23.158001,14.349)">
        <path
           d="m 7.109375,-1.265625 c 0.453125,1.25 1.734375,1.46875 2.515625,1.46875 1.578125,0 2.5,-1.359375 3.078125,-2.78125 C 13.171875,-3.78125 13.9375,-6.5 13.9375,-7.71875 c 0,-1.265625 -0.640625,-1.390625 -0.828125,-1.390625 -0.484375,0 -0.9375,0.5 -0.9375,0.90625 0,0.25 0.140625,0.390625 0.25,0.484375 0.171875,0.171875 0.71875,0.734375 0.71875,1.8125 0,0.703125 -0.578125,2.640625 -1.015625,3.609375 -0.578125,1.265625 -1.34375,2.09375 -2.421875,2.09375 -1.15625,0 -1.515625,-0.875 -1.515625,-1.828125 0,-0.59375 0.171875,-1.3125 0.265625,-1.671875 L 9.3125,-7.171875 c 0.109375,-0.40625 0.296875,-1.125 0.296875,-1.21875 0,-0.3125 -0.25,-0.515625 -0.5625,-0.515625 -0.59375,0 -0.75,0.515625 -0.859375,1.015625 -0.21875,0.8125 -1.078125,4.296875 -1.171875,4.75 C 6.9375,-2.78125 6.9375,-2.5625 6.9375,-2.109375 c 0,0.5 -0.65625,1.28125 -0.671875,1.328125 -0.234375,0.21875 -0.5625,0.578125 -1.203125,0.578125 -1.640625,0 -1.640625,-1.546875 -1.640625,-1.90625 0,-0.65625 0.15625,-1.5625 1.078125,-4.03125 0.25,-0.640625 0.359375,-0.90625 0.359375,-1.3125 0,-0.875 -0.625,-1.65625 -1.640625,-1.65625 -1.890625,0 -2.65625,3 -2.65625,3.15625 0,0.09375 0.078125,0.1875 0.21875,0.1875 0.1875,0 0.203125,-0.078125 0.296875,-0.375 0.515625,-1.8125 1.3125,-2.5625 2.078125,-2.5625 0.203125,0 0.546875,0.03125 0.546875,0.6875 0,0.109375 0,0.53125 -0.359375,1.453125 -0.96875,2.578125 -1.171875,3.421875 -1.171875,4.203125 0,2.171875 1.78125,2.5625 2.828125,2.5625 0.34375,0 1.28125,0 2.109375,-1.46875 z m 0,0"
           id="path65" />
      </g>
    </g>
    <g
       id="g3224"
       transform="translate(66.135215,-45.168184)">
      <g
         fill="#000000"
         fill-opacity="1"
         id="g43"
         transform="matrix(0.352778,0,0,0.352778,85.904812,48.814708)">
        <g
           id="use41"
           transform="translate(44.417645,14.349)">
          <path
             d="m 7.109375,-1.265625 c 0.453125,1.25 1.734375,1.46875 2.515625,1.46875 1.578125,0 2.5,-1.359375 3.078125,-2.78125 C 13.171875,-3.78125 13.9375,-6.5 13.9375,-7.71875 c 0,-1.265625 -0.640625,-1.390625 -0.828125,-1.390625 -0.484375,0 -0.9375,0.5 -0.9375,0.90625 0,0.25 0.140625,0.390625 0.25,0.484375 0.171875,0.171875 0.71875,0.734375 0.71875,1.8125 0,0.703125 -0.578125,2.640625 -1.015625,3.609375 -0.578125,1.265625 -1.34375,2.09375 -2.421875,2.09375 -1.15625,0 -1.515625,-0.875 -1.515625,-1.828125 0,-0.59375 0.171875,-1.3125 0.265625,-1.671875 L 9.3125,-7.171875 c 0.109375,-0.40625 0.296875,-1.125 0.296875,-1.21875 0,-0.3125 -0.25,-0.515625 -0.5625,-0.515625 -0.59375,0 -0.75,0.515625 -0.859375,1.015625 -0.21875,0.8125 -1.078125,4.296875 -1.171875,4.75 C 6.9375,-2.78125 6.9375,-2.5625 6.9375,-2.109375 c 0,0.5 -0.65625,1.28125 -0.671875,1.328125 -0.234375,0.21875 -0.5625,0.578125 -1.203125,0.578125 -1.640625,0 -1.640625,-1.546875 -1.640625,-1.90625 0,-0.65625 0.15625,-1.5625 1.078125,-4.03125 0.25,-0.640625 0.359375,-0.90625 0.359375,-1.3125 0,-0.875 -0.625,-1.65625 -1.640625,-1.65625 -1.890625,0 -2.65625,3 -2.65625,3.15625 0,0.09375 0.078125,0.1875 0.21875,0.1875 0.1875,0 0.203125,-0.078125 0.296875,-0.375 0.515625,-1.8125 1.3125,-2.5625 2.078125,-2.5625 0.203125,0 0.546875,0.03125 0.546875,0.6875 0,0.109375 0,0.53125 -0.359375,1.453125 -0.96875,2.578125 -1.171875,3.421875 -1.171875,4.203125 0,2.171875 1.78125,2.5625 2.828125,2.5625 0.34375,0 1.28125,0 2.109375,-1.46875 z m 0,0"
             id="path69" />
        </g>
      </g>
      <g
         fill="#000000"
         fill-opacity="1"
         id="g47"
         transform="matrix(0.352778,0,0,0.352778,85.904812,48.814708)">
        <g
           id="use45"
           transform="translate(64.024002,14.349)">
          <path
             d="m 7.78125,-4.796875 h 5.484375 c 0.28125,0 0.640625,0 0.640625,-0.34375 0,-0.375 -0.328125,-0.375 -0.640625,-0.375 H 7.78125 v -5.46875 c 0,-0.296875 0,-0.640625 -0.34375,-0.640625 -0.375,0 -0.375,0.328125 -0.375,0.640625 v 5.46875 H 1.59375 c -0.296875,0 -0.640625,0 -0.640625,0.34375 0,0.375 0.328125,0.375 0.640625,0.375 H 7.0625 V 0.6875 c 0,0.28125 0,0.640625 0.359375,0.640625 0.359375,0 0.359375,-0.34375 0.359375,-0.640625 z m 0,0"
             id="path73" />
        </g>
      </g>
      <g
         fill="#000000"
         fill-opacity="1"
         id="g51"
         transform="matrix(0.352778,0,0,0.352778,85.904812,48.814708)">
        <g
           id="use49"
           transform="translate(83.489998,14.349)">
          <path
             d="m 5.796875,-13.8125 c 0.03125,-0.09375 0.0625,-0.21875 0.0625,-0.3125 0,-0.203125 -0.203125,-0.203125 -0.234375,-0.203125 -0.03125,0 -1.046875,0.07813 -1.140625,0.09375 -0.359375,0.01563 -0.65625,0.0625 -1.03125,0.07813 -0.515625,0.04687 -0.671875,0.0625 -0.671875,0.4375 0,0.203125 0.171875,0.203125 0.46875,0.203125 1,0 1.03125,0.1875 1.03125,0.40625 0,0.109375 -0.046875,0.28125 -0.0625,0.34375 l -3,11.953125 C 1.140625,-0.5 1.140625,-0.453125 1.140625,-0.328125 c 0,0.453125 0.34375,0.53125 0.546875,0.53125 0.359375,0 0.625,-0.265625 0.734375,-0.5 L 3.34375,-4.03125 c 0.109375,-0.453125 0.234375,-0.890625 0.328125,-1.34375 0.234375,-0.859375 0.234375,-0.890625 0.625,-1.484375 0.390625,-0.59375 1.328125,-1.84375 2.90625,-1.84375 0.828125,0 1.125,0.625 1.125,1.453125 0,1.15625 -0.8125,3.40625 -1.265625,4.640625 -0.1875,0.5 -0.28125,0.765625 -0.28125,1.140625 0,0.9375 0.640625,1.671875 1.625,1.671875 1.921875,0 2.640625,-3.03125 2.640625,-3.15625 0,-0.109375 -0.07813,-0.1875 -0.203125,-0.1875 -0.1875,0 -0.203125,0.0625 -0.3125,0.40625 -0.46875,1.65625 -1.234375,2.53125 -2.0625,2.53125 -0.203125,0 -0.53125,-0.03125 -0.53125,-0.6875 0,-0.53125 0.25,-1.203125 0.328125,-1.421875 0.375,-1 1.296875,-3.4375 1.296875,-4.625 0,-1.25 -0.71875,-2.171875 -2.296875,-2.171875 -1.171875,0 -2.203125,0.5625 -3.046875,1.625 z m 0,0"
             id="path77" />
        </g>
      </g>
    </g>
    <g
       id="g1062"
       transform="translate(5.9418082,15.098536)">
      <g
         fill="#000000"
         fill-opacity="1"
         id="g25"
         transform="matrix(0.352778,0,0,0.352778,134.03175,14.26398)">
        <g
           id="use23"
           transform="translate(0,14.349)">
          <path
             d="m 5.796875,-13.8125 c 0.03125,-0.09375 0.0625,-0.21875 0.0625,-0.3125 0,-0.203125 -0.203125,-0.203125 -0.234375,-0.203125 -0.03125,0 -1.046875,0.07813 -1.140625,0.09375 -0.359375,0.01563 -0.65625,0.0625 -1.03125,0.07813 -0.515625,0.04687 -0.671875,0.0625 -0.671875,0.4375 0,0.203125 0.171875,0.203125 0.46875,0.203125 1,0 1.03125,0.1875 1.03125,0.40625 0,0.109375 -0.046875,0.28125 -0.0625,0.34375 l -3,11.953125 C 1.140625,-0.5 1.140625,-0.453125 1.140625,-0.328125 c 0,0.453125 0.34375,0.53125 0.546875,0.53125 0.359375,0 0.625,-0.265625 0.734375,-0.5 L 3.34375,-4.03125 c 0.109375,-0.453125 0.234375,-0.890625 0.328125,-1.34375 0.234375,-0.859375 0.234375,-0.890625 0.625,-1.484375 0.390625,-0.59375 1.328125,-1.84375 2.90625,-1.84375 0.828125,0 1.125,0.625 1.125,1.453125 0,1.15625 -0.8125,3.40625 -1.265625,4.640625 -0.1875,0.5 -0.28125,0.765625 -0.28125,1.140625 0,0.9375 0.640625,1.671875 1.625,1.671875 1.921875,0 2.640625,-3.03125 2.640625,-3.15625 0,-0.109375 -0.07813,-0.1875 -0.203125,-0.1875 -0.1875,0 -0.203125,0.0625 -0.3125,0.40625 -0.46875,1.65625 -1.234375,2.53125 -2.0625,2.53125 -0.203125,0 -0.53125,-0.03125 -0.53125,-0.6875 0,-0.53125 0.25,-1.203125 0.328125,-1.421875 0.375,-1 1.296875,-3.4375 1.296875,-4.625 0,-1.25 -0.71875,-2.171875 -2.296875,-2.171875 -1.171875,0 -2.203125,0.5625 -3.046875,1.625 z m 0,0"
             id="path47" />
        </g>
      </g>
      <g
         clip-path="url(#clipPath3525)"
         id="g31"
         transform="matrix(0.352778,0,0,0.352778,134.03175,14.26398)">
        <g
           fill="#000000"
           fill-opacity="1"
           id="g939">
          <g
             id="g937"
             transform="translate(11.646,17.448)">
            <path
               d="m 4.125,-9.1875 c 0,-0.34375 0,-0.34375 -0.28125,-0.34375 C 3.5,-9.15625 2.78125,-8.625 1.3125,-8.625 v 0.421875 c 0.328125,0 1.046875,0 1.828125,-0.375 v 7.46875 c 0,0.515625 -0.046875,0.6875 -1.296875,0.6875 H 1.390625 V 0 c 0.390625,-0.03125 1.78125,-0.03125 2.25,-0.03125 0.46875,0 1.859375,0 2.234375,0.03125 V -0.421875 H 5.4375 c -1.265625,0 -1.3125,-0.171875 -1.3125,-0.6875 z m 0,0"
               id="path51" />
          </g>
        </g>
      </g>
    </g>
    <g
       id="g1077"
       transform="translate(20.937445,3.1967586)">
      <g
         fill="#000000"
         fill-opacity="1"
         id="g944"
         transform="matrix(0.352778,0,0,0.352778,134.03175,14.26398)">
        <g
           id="use33"
           transform="translate(25.406,14.349)">
          <path
             d="m 5.796875,-13.8125 c 0.03125,-0.09375 0.0625,-0.21875 0.0625,-0.3125 0,-0.203125 -0.203125,-0.203125 -0.234375,-0.203125 -0.03125,0 -1.046875,0.07813 -1.140625,0.09375 -0.359375,0.01563 -0.65625,0.0625 -1.03125,0.07813 -0.515625,0.04687 -0.671875,0.0625 -0.671875,0.4375 0,0.203125 0.171875,0.203125 0.46875,0.203125 1,0 1.03125,0.1875 1.03125,0.40625 0,0.109375 -0.046875,0.28125 -0.0625,0.34375 l -3,11.953125 C 1.140625,-0.5 1.140625,-0.453125 1.140625,-0.328125 c 0,0.453125 0.34375,0.53125 0.546875,0.53125 0.359375,0 0.625,-0.265625 0.734375,-0.5 L 3.34375,-4.03125 c 0.109375,-0.453125 0.234375,-0.890625 0.328125,-1.34375 0.234375,-0.859375 0.234375,-0.890625 0.625,-1.484375 0.390625,-0.59375 1.328125,-1.84375 2.90625,-1.84375 0.828125,0 1.125,0.625 1.125,1.453125 0,1.15625 -0.8125,3.40625 -1.265625,4.640625 -0.1875,0.5 -0.28125,0.765625 -0.28125,1.140625 0,0.9375 0.640625,1.671875 1.625,1.671875 1.921875,0 2.640625,-3.03125 2.640625,-3.15625 0,-0.109375 -0.07813,-0.1875 -0.203125,-0.1875 -0.1875,0 -0.203125,0.0625 -0.3125,0.40625 -0.46875,1.65625 -1.234375,2.53125 -2.0625,2.53125 -0.203125,0 -0.53125,-0.03125 -0.53125,-0.6875 0,-0.53125 0.25,-1.203125 0.328125,-1.421875 0.375,-1 1.296875,-3.4375 1.296875,-4.625 0,-1.25 -0.71875,-2.171875 -2.296875,-2.171875 -1.171875,0 -2.203125,0.5625 -3.046875,1.625 z m 0,0"
             id="path55" />
        </g>
      </g>
      <g
         clip-path="url(#clipPath2724)"
         id="g41"
         transform="matrix(0.352778,0,0,0.352778,134.03175,14.26398)">
        <g
           fill="#000000"
           fill-opacity="1"
           id="g949">
          <g
             id="g947"
             transform="translate(37.051998,17.448)">
            <path
               d="M 6.3125,-2.40625 H 6 c -0.046875,0.234375 -0.15625,1.03125 -0.3125,1.265625 -0.09375,0.125 -0.90625,0.125 -1.34375,0.125 H 1.6875 c 0.390625,-0.328125 1.265625,-1.25 1.640625,-1.59375 2.1875,-2.015625 2.984375,-2.75 2.984375,-4.171875 0,-1.65625 -1.3125,-2.75 -2.96875,-2.75 -1.671875,0 -2.640625,1.40625 -2.640625,2.640625 0,0.734375 0.625,0.734375 0.671875,0.734375 0.296875,0 0.671875,-0.21875 0.671875,-0.671875 C 2.046875,-7.234375 1.78125,-7.5 1.375,-7.5 1.25,-7.5 1.21875,-7.5 1.171875,-7.484375 1.453125,-8.46875 2.21875,-9.125 3.15625,-9.125 4.375,-9.125 5.125,-8.109375 5.125,-6.78125 5.125,-5.5625 4.421875,-4.5 3.59375,-3.578125 L 0.703125,-0.34375 V 0 H 5.9375 Z m 0,0"
               id="path59" />
          </g>
        </g>
      </g>
    </g>
  </g>
</svg>
