<?xml version="1.0" encoding="UTF-8" standalone="no"?>
<!-- Created with Inkscape (http://www.inkscape.org/) -->

<svg
   width="210mm"
   height="297mm"
   viewBox="0 0 210 297"
   version="1.1"
   id="svg5"
   inkscape:version="1.2.2 (b0a8486541, 2022-12-01)"
   sodipodi:docname="pair_of_pants.svg"
   xmlns:inkscape="http://www.inkscape.org/namespaces/inkscape"
   xmlns:sodipodi="http://sodipodi.sourceforge.net/DTD/sodipodi-0.dtd"
   xmlns="http://www.w3.org/2000/svg"
   xmlns:svg="http://www.w3.org/2000/svg">
  <sodipodi:namedview
     id="namedview7"
     pagecolor="#ffffff"
     bordercolor="#000000"
     borderopacity="0.25"
     inkscape:showpageshadow="2"
     inkscape:pageopacity="0.0"
     inkscape:pagecheckerboard="0"
     inkscape:deskcolor="#d1d1d1"
     inkscape:document-units="mm"
     showgrid="false"
     inkscape:zoom="1.2448873"
     inkscape:cx="320.91258"
     inkscape:cy="450.6432"
     inkscape:window-width="1888"
     inkscape:window-height="1008"
     inkscape:window-x="13"
     inkscape:window-y="53"
     inkscape:window-maximized="1"
     inkscape:current-layer="layer1" />
  <defs
     id="defs2" />
  <g
     inkscape:label="Layer 1"
     inkscape:groupmode="layer"
     id="layer1">
    <path
       style="fill:#d40000;fill-opacity:0.74902;stroke:#000000;stroke-width:0.529258;stroke-dasharray:none"
       d="m 55.089188,126.49734 c -14.78295,-0.75963 -26.638294,-5.9873 -28.486113,-12.56108 -0.524049,-1.86435 -0.248887,-3.64303 0.854562,-5.52398 0.670718,-1.14332 2.78525,-3.21807 4.300212,-4.21933 6.507202,-4.300695 17.019216,-6.685148 28.357752,-6.432414 8.889313,0.198127 16.567023,1.839317 22.528455,4.815664 7.890828,3.93963 10.302036,9.43459 6.322491,14.40843 -5.024089,6.27932 -19.221081,10.26581 -33.877359,9.51271 z m 22.446971,-8.10923 c 2.195336,-0.68194 3.972466,-2.66037 4.455255,-4.95995 0.316695,-1.50839 0.127419,-2.83019 -0.623254,-4.35338 -1.254977,-2.54635 -4.299601,-4.01936 -7.083194,-3.42692 -3.161749,0.67294 -5.306356,3.28645 -5.306356,6.46658 0,4.46668 4.27806,7.60299 8.557549,6.27367 z m -35.124676,-0.19658 c 1.169585,-0.40941 1.875027,-0.84711 2.709612,-1.68125 2.572645,-2.57124 2.578547,-6.65237 0.0134,-9.26402 -0.700449,-0.71315 -1.734394,-1.34178 -2.725578,-1.65714 -1.039038,-0.33057 -2.849965,-0.32972 -3.884047,0.001 -2.057898,0.65983 -3.714373,2.30897 -4.338819,4.31962 -1.186089,3.81909 1.235131,7.75085 5.252712,8.52976 0.596828,0.11577 2.350777,-0.0311 2.972723,-0.24879 z"
       id="path1060" />
    <g
       id="g1458">
      <path
         style="fill:none;fill-opacity:0.74902;stroke:#000000;stroke-width:0.518924;stroke-dasharray:2.0757, 2.0757;stroke-dashoffset:0"
         id="path1137-5"
         sodipodi:type="arc"
         sodipodi:cx="-123.43636"
         sodipodi:cy="-136.21368"
         sodipodi:rx="15.147029"
         sodipodi:ry="5.2521052"
         sodipodi:start="0"
         sodipodi:end="3.1415927"
         sodipodi:open="true"
         sodipodi:arc-type="arc"
         d="m -108.28933,-136.21368 a 15.147029,5.2521052 0 0 1 -7.57352,4.54845 15.147029,5.2521052 0 0 1 -15.14703,0 15.147029,5.2521052 0 0 1 -7.57351,-4.54845"
         transform="scale(-1)" />
      <path
         style="fill:none;fill-opacity:0.74902;stroke:#000000;stroke-width:0.518633;stroke-dasharray:2.07453, 2.07453;stroke-dashoffset:0"
         id="path1137-5-3"
         sodipodi:type="arc"
         sodipodi:cx="-163.94019"
         sodipodi:cy="-136.23364"
         sodipodi:rx="15.130013"
         sodipodi:ry="5.2521052"
         sodipodi:start="0"
         sodipodi:end="3.1415927"
         sodipodi:open="true"
         sodipodi:arc-type="arc"
         d="m -148.81017,-136.23364 a 15.130013,5.2521052 0 0 1 -7.56501,4.54845 15.130013,5.2521052 0 0 1 -15.13001,0 15.130013,5.2521052 0 0 1 -7.56501,-4.54845"
         transform="scale(-1)" />
      <path
         style="fill:none;fill-opacity:0.74902;stroke:#000000;stroke-width:0.522791;stroke-dasharray:3.13674, 3.13674;stroke-dashoffset:0"
         id="path1135-5"
         sodipodi:type="arc"
         sodipodi:cx="-141.9684"
         sodipodi:cy="-92.425789"
         sodipodi:rx="23.054895"
         sodipodi:ry="3.9381359"
         sodipodi:start="0"
         sodipodi:end="3.1415927"
         sodipodi:open="true"
         sodipodi:arc-type="arc"
         d="m -118.9135,-92.425789 a 23.054895,3.9381359 0 0 1 -11.52745,3.410526 23.054895,3.9381359 0 0 1 -23.0549,0 23.054895,3.9381359 0 0 1 -11.52744,-3.410526"
         transform="matrix(-0.99996073,0.00886222,-0.00843691,-0.99996441,0,0)" />
      <path
         style="fill:#d40000;fill-opacity:0.74902;stroke:#000000;stroke-width:0.529258;stroke-dasharray:none;stroke-dashoffset:0"
         d="m 120.84508,140.24491 c -6.22304,-0.30914 -11.45609,-1.9893 -12.55575,-4.03121 -0.28941,-0.53741 -0.28926,-0.64313 0.003,-2.27756 1.03272,-5.76996 2.57782,-10.34889 6.62355,-19.62912 3.31891,-7.61304 4.21306,-10.06024 4.99635,-13.67436 0.42565,-1.963904 0.44241,-6.49315 0.0302,-8.134366 -0.15531,-0.61824 -0.26894,-1.136383 -0.25252,-1.151428 0.0164,-0.01495 0.69194,0.1931 1.50115,0.462506 3.90416,1.299805 10.06768,2.014026 18.86715,2.186273 11.03709,0.216056 21.48718,-0.881189 24.90961,-2.615475 l 0.82916,-0.420153 0.10956,2.023554 c 0.3332,6.156304 2.45227,13.214359 6.99969,23.314009 0.90016,1.99923 2.31973,5.15385 3.15459,7.01028 2.79519,6.21547 3.56306,8.69284 3.4175,11.02594 -0.10532,1.68809 -0.3835,2.22549 -1.59956,3.09008 -2.53373,1.80141 -7.69632,2.86172 -13.93368,2.86172 -6.23075,0 -11.40018,-1.06048 -13.92712,-2.85707 -1.36105,-0.96767 -1.47569,-1.25123 -1.47701,-3.65309 -0.001,-3.50546 -0.46472,-6.27472 -1.39387,-8.34058 -0.69187,-1.53831 -1.2803,-2.22744 -2.34802,-2.74984 -1.20381,-0.58895 -2.50672,-0.53547 -3.3913,0.13921 -1.66304,1.26849 -2.55999,4.8899 -2.56231,10.34538 -10e-4,3.07922 -0.0614,3.25244 -1.47701,4.25892 -2.87863,2.04664 -9.45481,3.16752 -16.52352,2.81638 z"
         id="path1452" />
    </g>
  </g>
</svg>
