<?xml version="1.0" encoding="UTF-8" standalone="no"?>
<!-- Created with Inkscape (http://www.inkscape.org/) -->

<svg
   width="210mm"
   height="297mm"
   viewBox="0 0 210 297"
   version="1.1"
   id="svg5"
   sodipodi:docname="Z_2_lattice.svg"
   inkscape:version="1.1.2 (0a00cf5339, 2022-02-04, custom)"
   xmlns:inkscape="http://www.inkscape.org/namespaces/inkscape"
   xmlns:sodipodi="http://sodipodi.sourceforge.net/DTD/sodipodi-0.dtd"
   xmlns:xlink="http://www.w3.org/1999/xlink"
   xmlns="http://www.w3.org/2000/svg"
   xmlns:svg="http://www.w3.org/2000/svg">
  <sodipodi:namedview
     id="namedview7"
     pagecolor="#ffffff"
     bordercolor="#666666"
     borderopacity="1.0"
     inkscape:pageshadow="2"
     inkscape:pageopacity="0.0"
     inkscape:pagecheckerboard="0"
     inkscape:document-units="mm"
     showgrid="false"
     showguides="true"
     inkscape:guide-bbox="true"
     inkscape:zoom="3.4348929"
     inkscape:cx="343.09658"
     inkscape:cy="256.48543"
     inkscape:window-width="1888"
     inkscape:window-height="1008"
     inkscape:window-x="13"
     inkscape:window-y="53"
     inkscape:window-maximized="1"
     inkscape:current-layer="layer1" />
  <defs
     id="defs2">
    <g
       id="g6928">
      <symbol
         overflow="visible"
         id="symbol3037">
        <path
           style="stroke:none;"
           d=""
           id="path159" />
      </symbol>
      <symbol
         overflow="visible"
         id="symbol9128">
        <path
           style="stroke:none;"
           d="M 3.265625 -7.09375 C 3.3125 -7.203125 3.3125 -7.234375 3.3125 -7.28125 C 3.3125 -7.390625 3.234375 -7.484375 3.125 -7.484375 C 3.03125 -7.484375 2.953125 -7.421875 2.890625 -7.25 L 1.140625 -2.671875 C 1.125 -2.609375 1.09375 -2.546875 1.09375 -2.5 C 1.09375 -2.46875 1.09375 -2.4375 1.140625 -2.328125 L 2.890625 2.25 C 2.9375 2.359375 2.984375 2.5 3.125 2.5 C 3.234375 2.5 3.3125 2.40625 3.3125 2.296875 C 3.3125 2.265625 3.3125 2.25 3.265625 2.140625 L 1.5 -2.5 Z M 3.265625 -7.09375 "
           id="path9483" />
      </symbol>
      <symbol
         overflow="visible"
         id="symbol6508">
        <path
           style="stroke:none;"
           d="M 2.71875 -2.328125 C 2.765625 -2.4375 2.765625 -2.46875 2.765625 -2.5 C 2.765625 -2.515625 2.765625 -2.546875 2.71875 -2.65625 L 0.984375 -7.25 C 0.921875 -7.421875 0.859375 -7.484375 0.75 -7.484375 C 0.640625 -7.484375 0.546875 -7.390625 0.546875 -7.28125 C 0.546875 -7.25 0.546875 -7.234375 0.59375 -7.125 L 2.359375 -2.5 L 0.59375 2.109375 C 0.546875 2.21875 0.546875 2.25 0.546875 2.296875 C 0.546875 2.40625 0.640625 2.5 0.75 2.5 C 0.875 2.5 0.921875 2.390625 0.953125 2.296875 Z M 2.71875 -2.328125 "
           id="path303" />
      </symbol>
      <symbol
         overflow="visible"
         id="symbol77">
        <path
           style="stroke:none;"
           d=""
           id="path422" />
      </symbol>
      <symbol
         overflow="visible"
         id="symbol657">
        <path
           style="stroke:none;"
           d="M 2.9375 -6.375 C 2.9375 -6.625 2.9375 -6.640625 2.703125 -6.640625 C 2.078125 -6 1.203125 -6 0.890625 -6 L 0.890625 -5.6875 C 1.09375 -5.6875 1.671875 -5.6875 2.1875 -5.953125 L 2.1875 -0.78125 C 2.1875 -0.421875 2.15625 -0.3125 1.265625 -0.3125 L 0.953125 -0.3125 L 0.953125 0 C 1.296875 -0.03125 2.15625 -0.03125 2.5625 -0.03125 C 2.953125 -0.03125 3.828125 -0.03125 4.171875 0 L 4.171875 -0.3125 L 3.859375 -0.3125 C 2.953125 -0.3125 2.9375 -0.421875 2.9375 -0.78125 Z M 2.9375 -6.375 "
           id="path8369" />
      </symbol>
    </g>
    <g
       id="g1024">
      <symbol
         overflow="visible"
         id="symbol6416">
        <path
           style="stroke:none;"
           d=""
           id="path4704" />
      </symbol>
      <symbol
         overflow="visible"
         id="symbol7303">
        <path
           style="stroke:none;"
           d="M 3.265625 -7.09375 C 3.3125 -7.203125 3.3125 -7.234375 3.3125 -7.28125 C 3.3125 -7.390625 3.234375 -7.484375 3.125 -7.484375 C 3.03125 -7.484375 2.953125 -7.421875 2.890625 -7.25 L 1.140625 -2.671875 C 1.125 -2.609375 1.09375 -2.546875 1.09375 -2.5 C 1.09375 -2.46875 1.09375 -2.4375 1.140625 -2.328125 L 2.890625 2.25 C 2.9375 2.359375 2.984375 2.5 3.125 2.5 C 3.234375 2.5 3.3125 2.40625 3.3125 2.296875 C 3.3125 2.265625 3.3125 2.25 3.265625 2.140625 L 1.5 -2.5 Z M 3.265625 -7.09375 "
           id="path1993" />
      </symbol>
      <symbol
         overflow="visible"
         id="symbol2789">
        <path
           style="stroke:none;"
           d="M 2.71875 -2.328125 C 2.765625 -2.4375 2.765625 -2.46875 2.765625 -2.5 C 2.765625 -2.515625 2.765625 -2.546875 2.71875 -2.65625 L 0.984375 -7.25 C 0.921875 -7.421875 0.859375 -7.484375 0.75 -7.484375 C 0.640625 -7.484375 0.546875 -7.390625 0.546875 -7.28125 C 0.546875 -7.25 0.546875 -7.234375 0.59375 -7.125 L 2.359375 -2.5 L 0.59375 2.109375 C 0.546875 2.21875 0.546875 2.25 0.546875 2.296875 C 0.546875 2.40625 0.640625 2.5 0.75 2.5 C 0.875 2.5 0.921875 2.390625 0.953125 2.296875 Z M 2.71875 -2.328125 "
           id="path570" />
      </symbol>
      <symbol
         overflow="visible"
         id="symbol5647">
        <path
           style="stroke:none;"
           d=""
           id="path410" />
      </symbol>
      <symbol
         overflow="visible"
         id="symbol1800">
        <path
           style="stroke:none;"
           d="M 4.578125 -3.1875 C 4.578125 -3.984375 4.53125 -4.78125 4.1875 -5.515625 C 3.734375 -6.484375 2.90625 -6.640625 2.5 -6.640625 C 1.890625 -6.640625 1.171875 -6.375 0.75 -5.453125 C 0.4375 -4.765625 0.390625 -3.984375 0.390625 -3.1875 C 0.390625 -2.4375 0.421875 -1.546875 0.84375 -0.78125 C 1.265625 0.015625 2 0.21875 2.484375 0.21875 C 3.015625 0.21875 3.78125 0.015625 4.21875 -0.9375 C 4.53125 -1.625 4.578125 -2.40625 4.578125 -3.1875 Z M 2.484375 0 C 2.09375 0 1.5 -0.25 1.328125 -1.203125 C 1.21875 -1.796875 1.21875 -2.71875 1.21875 -3.3125 C 1.21875 -3.953125 1.21875 -4.609375 1.296875 -5.140625 C 1.484375 -6.328125 2.234375 -6.421875 2.484375 -6.421875 C 2.8125 -6.421875 3.46875 -6.234375 3.65625 -5.25 C 3.765625 -4.6875 3.765625 -3.9375 3.765625 -3.3125 C 3.765625 -2.5625 3.765625 -1.890625 3.65625 -1.25 C 3.5 -0.296875 2.9375 0 2.484375 0 Z M 2.484375 0 "
           id="path7931" />
      </symbol>
    </g>
  </defs>
  <g
     inkscape:label="Layer 1"
     inkscape:groupmode="layer"
     id="layer1">
    <path
       style="fill:none;stroke:#000000;stroke-width:0.264583px;stroke-linecap:butt;stroke-linejoin:miter;stroke-opacity:1"
       d="m 94.918219,60.192041 1e-6,20.17426"
       id="path883"
       sodipodi:nodetypes="cc" />
    <g
       inkscape:label=""
       transform="matrix(0.68104943,0,0,0.68103389,27.712957,1.6645528)"
       id="g1342"
       style="stroke-width:1.46834">
      <g
         id="g8024"
         style="stroke-width:1.46834">
        <g
           style="fill:#000000;fill-opacity:1;stroke-width:1.46834"
           id="g9030">
          <use
             xlink:href="#symbol9128"
             x="91.925003"
             y="81.962997"
             id="use7975"
             width="100%"
             height="100%"
             style="stroke-width:1.46834" />
        </g>
        <g
           style="fill:#000000;fill-opacity:1;stroke-width:1.46834"
           id="g7571">
          <use
             xlink:href="#symbol657"
             x="95.800003"
             y="81.962997"
             id="use4283"
             width="100%"
             height="100%"
             style="stroke-width:1.46834" />
        </g>
        <g
           style="fill:#000000;fill-opacity:1;stroke-width:1.46834"
           id="g2551">
          <use
             xlink:href="#symbol6508"
             x="100.781"
             y="81.962997"
             id="use5620"
             width="100%"
             height="100%"
             style="stroke-width:1.46834" />
        </g>
      </g>
    </g>
    <g
       inkscape:label=""
       transform="matrix(0.54151717,0,0,0.68106416,40.533651,30.61969)"
       id="g1447"
       style="stroke-width:1.64664">
      <g
         id="g2756"
         transform="matrix(1.2576691,0,0,1,-23.400299,-0.4327472)"
         style="stroke-width:1.4683">
        <g
           style="fill:#000000;fill-opacity:1;stroke-width:1.4683"
           id="g1440">
          <use
             xlink:href="#symbol7303"
             x="91.925003"
             y="81.962997"
             id="use9389"
             width="100%"
             height="100%"
             style="stroke-width:1.4683" />
        </g>
        <g
           style="fill:#000000;fill-opacity:1;stroke-width:1.4683"
           id="g690">
          <use
             xlink:href="#symbol1800"
             x="95.800003"
             y="81.962997"
             id="use5858"
             width="100%"
             height="100%"
             style="stroke-width:1.4683" />
        </g>
        <g
           style="fill:#000000;fill-opacity:1;stroke-width:1.4683"
           id="g3667">
          <use
             xlink:href="#symbol2789"
             x="100.781"
             y="81.962997"
             id="use4864"
             width="100%"
             height="100%"
             style="stroke-width:1.4683" />
        </g>
      </g>
    </g>
  </g>
</svg>
