<?xml version="1.0" encoding="UTF-8" standalone="no"?>
<!-- Created with Inkscape (http://www.inkscape.org/) -->

<svg
   width="210mm"
   height="297mm"
   viewBox="0 0 210 297"
   version="1.1"
   id="svg5"
   sodipodi:docname="Z_p^n_lattice.svg"
   inkscape:version="1.1.2 (0a00cf5339, 2022-02-04, custom)"
   xmlns:inkscape="http://www.inkscape.org/namespaces/inkscape"
   xmlns:sodipodi="http://sodipodi.sourceforge.net/DTD/sodipodi-0.dtd"
   xmlns:xlink="http://www.w3.org/1999/xlink"
   xmlns="http://www.w3.org/2000/svg"
   xmlns:svg="http://www.w3.org/2000/svg">
  <sodipodi:namedview
     id="namedview7"
     pagecolor="#ffffff"
     bordercolor="#666666"
     borderopacity="1.0"
     inkscape:pageshadow="2"
     inkscape:pageopacity="0.0"
     inkscape:pagecheckerboard="0"
     inkscape:document-units="mm"
     showgrid="false"
     showguides="true"
     inkscape:guide-bbox="true"
     inkscape:zoom="1.2275"
     inkscape:cx="437.88187"
     inkscape:cy="528.7169"
     inkscape:window-width="1888"
     inkscape:window-height="1008"
     inkscape:window-x="13"
     inkscape:window-y="53"
     inkscape:window-maximized="1"
     inkscape:current-layer="layer1" />
  <defs
     id="defs2">
    <g
       id="g6928">
      <symbol
         overflow="visible"
         id="symbol3037">
        <path
           style="stroke:none;"
           d=""
           id="path159" />
      </symbol>
      <symbol
         overflow="visible"
         id="symbol9128">
        <path
           style="stroke:none;"
           d="M 3.265625 -7.09375 C 3.3125 -7.203125 3.3125 -7.234375 3.3125 -7.28125 C 3.3125 -7.390625 3.234375 -7.484375 3.125 -7.484375 C 3.03125 -7.484375 2.953125 -7.421875 2.890625 -7.25 L 1.140625 -2.671875 C 1.125 -2.609375 1.09375 -2.546875 1.09375 -2.5 C 1.09375 -2.46875 1.09375 -2.4375 1.140625 -2.328125 L 2.890625 2.25 C 2.9375 2.359375 2.984375 2.5 3.125 2.5 C 3.234375 2.5 3.3125 2.40625 3.3125 2.296875 C 3.3125 2.265625 3.3125 2.25 3.265625 2.140625 L 1.5 -2.5 Z M 3.265625 -7.09375 "
           id="path9483" />
      </symbol>
      <symbol
         overflow="visible"
         id="symbol6508">
        <path
           style="stroke:none;"
           d="M 2.71875 -2.328125 C 2.765625 -2.4375 2.765625 -2.46875 2.765625 -2.5 C 2.765625 -2.515625 2.765625 -2.546875 2.71875 -2.65625 L 0.984375 -7.25 C 0.921875 -7.421875 0.859375 -7.484375 0.75 -7.484375 C 0.640625 -7.484375 0.546875 -7.390625 0.546875 -7.28125 C 0.546875 -7.25 0.546875 -7.234375 0.59375 -7.125 L 2.359375 -2.5 L 0.59375 2.109375 C 0.546875 2.21875 0.546875 2.25 0.546875 2.296875 C 0.546875 2.40625 0.640625 2.5 0.75 2.5 C 0.875 2.5 0.921875 2.390625 0.953125 2.296875 Z M 2.71875 -2.328125 "
           id="path303" />
      </symbol>
      <symbol
         overflow="visible"
         id="symbol77">
        <path
           style="stroke:none;"
           d=""
           id="path422" />
      </symbol>
      <symbol
         overflow="visible"
         id="symbol657">
        <path
           style="stroke:none;"
           d="M 2.9375 -6.375 C 2.9375 -6.625 2.9375 -6.640625 2.703125 -6.640625 C 2.078125 -6 1.203125 -6 0.890625 -6 L 0.890625 -5.6875 C 1.09375 -5.6875 1.671875 -5.6875 2.1875 -5.953125 L 2.1875 -0.78125 C 2.1875 -0.421875 2.15625 -0.3125 1.265625 -0.3125 L 0.953125 -0.3125 L 0.953125 0 C 1.296875 -0.03125 2.15625 -0.03125 2.5625 -0.03125 C 2.953125 -0.03125 3.828125 -0.03125 4.171875 0 L 4.171875 -0.3125 L 3.859375 -0.3125 C 2.953125 -0.3125 2.9375 -0.421875 2.9375 -0.78125 Z M 2.9375 -6.375 "
           id="path8369" />
      </symbol>
    </g>
    <g
       id="g1024">
      <symbol
         overflow="visible"
         id="symbol6416">
        <path
           style="stroke:none;"
           d=""
           id="path4704" />
      </symbol>
      <symbol
         overflow="visible"
         id="symbol7303">
        <path
           style="stroke:none;"
           d="M 3.265625 -7.09375 C 3.3125 -7.203125 3.3125 -7.234375 3.3125 -7.28125 C 3.3125 -7.390625 3.234375 -7.484375 3.125 -7.484375 C 3.03125 -7.484375 2.953125 -7.421875 2.890625 -7.25 L 1.140625 -2.671875 C 1.125 -2.609375 1.09375 -2.546875 1.09375 -2.5 C 1.09375 -2.46875 1.09375 -2.4375 1.140625 -2.328125 L 2.890625 2.25 C 2.9375 2.359375 2.984375 2.5 3.125 2.5 C 3.234375 2.5 3.3125 2.40625 3.3125 2.296875 C 3.3125 2.265625 3.3125 2.25 3.265625 2.140625 L 1.5 -2.5 Z M 3.265625 -7.09375 "
           id="path1993" />
      </symbol>
      <symbol
         overflow="visible"
         id="symbol2789">
        <path
           style="stroke:none;"
           d="M 2.71875 -2.328125 C 2.765625 -2.4375 2.765625 -2.46875 2.765625 -2.5 C 2.765625 -2.515625 2.765625 -2.546875 2.71875 -2.65625 L 0.984375 -7.25 C 0.921875 -7.421875 0.859375 -7.484375 0.75 -7.484375 C 0.640625 -7.484375 0.546875 -7.390625 0.546875 -7.28125 C 0.546875 -7.25 0.546875 -7.234375 0.59375 -7.125 L 2.359375 -2.5 L 0.59375 2.109375 C 0.546875 2.21875 0.546875 2.25 0.546875 2.296875 C 0.546875 2.40625 0.640625 2.5 0.75 2.5 C 0.875 2.5 0.921875 2.390625 0.953125 2.296875 Z M 2.71875 -2.328125 "
           id="path570" />
      </symbol>
      <symbol
         overflow="visible"
         id="symbol5647">
        <path
           style="stroke:none;"
           d=""
           id="path410" />
      </symbol>
      <symbol
         overflow="visible"
         id="symbol1800">
        <path
           style="stroke:none;"
           d="M 4.578125 -3.1875 C 4.578125 -3.984375 4.53125 -4.78125 4.1875 -5.515625 C 3.734375 -6.484375 2.90625 -6.640625 2.5 -6.640625 C 1.890625 -6.640625 1.171875 -6.375 0.75 -5.453125 C 0.4375 -4.765625 0.390625 -3.984375 0.390625 -3.1875 C 0.390625 -2.4375 0.421875 -1.546875 0.84375 -0.78125 C 1.265625 0.015625 2 0.21875 2.484375 0.21875 C 3.015625 0.21875 3.78125 0.015625 4.21875 -0.9375 C 4.53125 -1.625 4.578125 -2.40625 4.578125 -3.1875 Z M 2.484375 0 C 2.09375 0 1.5 -0.25 1.328125 -1.203125 C 1.21875 -1.796875 1.21875 -2.71875 1.21875 -3.3125 C 1.21875 -3.953125 1.21875 -4.609375 1.296875 -5.140625 C 1.484375 -6.328125 2.234375 -6.421875 2.484375 -6.421875 C 2.8125 -6.421875 3.46875 -6.234375 3.65625 -5.25 C 3.765625 -4.6875 3.765625 -3.9375 3.765625 -3.3125 C 3.765625 -2.5625 3.765625 -1.890625 3.65625 -1.25 C 3.5 -0.296875 2.9375 0 2.484375 0 Z M 2.484375 0 "
           id="path7931" />
      </symbol>
    </g>
    <g
       id="g314">
      <symbol
         overflow="visible"
         id="symbol8717">
        <path
           style="stroke:none;"
           d=""
           id="path7630" />
      </symbol>
      <symbol
         overflow="visible"
         id="symbol6763">
        <path
           style="stroke:none;"
           d="M 3.265625 -7.09375 C 3.3125 -7.203125 3.3125 -7.234375 3.3125 -7.28125 C 3.3125 -7.390625 3.234375 -7.484375 3.125 -7.484375 C 3.03125 -7.484375 2.953125 -7.421875 2.890625 -7.25 L 1.140625 -2.671875 C 1.125 -2.609375 1.09375 -2.546875 1.09375 -2.5 C 1.09375 -2.46875 1.09375 -2.4375 1.140625 -2.328125 L 2.890625 2.25 C 2.9375 2.359375 2.984375 2.5 3.125 2.5 C 3.234375 2.5 3.3125 2.40625 3.3125 2.296875 C 3.3125 2.265625 3.3125 2.25 3.265625 2.140625 L 1.5 -2.5 Z M 3.265625 -7.09375 "
           id="path4320" />
      </symbol>
      <symbol
         overflow="visible"
         id="symbol9736">
        <path
           style="stroke:none;"
           d="M 2.71875 -2.328125 C 2.765625 -2.4375 2.765625 -2.46875 2.765625 -2.5 C 2.765625 -2.515625 2.765625 -2.546875 2.71875 -2.65625 L 0.984375 -7.25 C 0.921875 -7.421875 0.859375 -7.484375 0.75 -7.484375 C 0.640625 -7.484375 0.546875 -7.390625 0.546875 -7.28125 C 0.546875 -7.25 0.546875 -7.234375 0.59375 -7.125 L 2.359375 -2.5 L 0.59375 2.109375 C 0.546875 2.21875 0.546875 2.25 0.546875 2.296875 C 0.546875 2.40625 0.640625 2.5 0.75 2.5 C 0.875 2.5 0.921875 2.390625 0.953125 2.296875 Z M 2.71875 -2.328125 "
           id="path8103" />
      </symbol>
      <symbol
         overflow="visible"
         id="symbol9150">
        <path
           style="stroke:none;"
           d=""
           id="path7585" />
      </symbol>
      <symbol
         overflow="visible"
         id="symbol4185">
        <path
           style="stroke:none;"
           d="M 4.578125 -3.1875 C 4.578125 -3.984375 4.53125 -4.78125 4.1875 -5.515625 C 3.734375 -6.484375 2.90625 -6.640625 2.5 -6.640625 C 1.890625 -6.640625 1.171875 -6.375 0.75 -5.453125 C 0.4375 -4.765625 0.390625 -3.984375 0.390625 -3.1875 C 0.390625 -2.4375 0.421875 -1.546875 0.84375 -0.78125 C 1.265625 0.015625 2 0.21875 2.484375 0.21875 C 3.015625 0.21875 3.78125 0.015625 4.21875 -0.9375 C 4.53125 -1.625 4.578125 -2.40625 4.578125 -3.1875 Z M 2.484375 0 C 2.09375 0 1.5 -0.25 1.328125 -1.203125 C 1.21875 -1.796875 1.21875 -2.71875 1.21875 -3.3125 C 1.21875 -3.953125 1.21875 -4.609375 1.296875 -5.140625 C 1.484375 -6.328125 2.234375 -6.421875 2.484375 -6.421875 C 2.8125 -6.421875 3.46875 -6.234375 3.65625 -5.25 C 3.765625 -4.6875 3.765625 -3.9375 3.765625 -3.3125 C 3.765625 -2.5625 3.765625 -1.890625 3.65625 -1.25 C 3.5 -0.296875 2.9375 0 2.484375 0 Z M 2.484375 0 "
           id="path7526" />
      </symbol>
    </g>
    <g
       id="g5870">
      <symbol
         overflow="visible"
         id="symbol8624">
        <path
           style="stroke:none;"
           d=""
           id="path3285" />
      </symbol>
      <symbol
         overflow="visible"
         id="symbol5220">
        <path
           style="stroke:none;"
           d="M 3.265625 -7.09375 C 3.3125 -7.203125 3.3125 -7.234375 3.3125 -7.28125 C 3.3125 -7.390625 3.234375 -7.484375 3.125 -7.484375 C 3.03125 -7.484375 2.953125 -7.421875 2.890625 -7.25 L 1.140625 -2.671875 C 1.125 -2.609375 1.09375 -2.546875 1.09375 -2.5 C 1.09375 -2.46875 1.09375 -2.4375 1.140625 -2.328125 L 2.890625 2.25 C 2.9375 2.359375 2.984375 2.5 3.125 2.5 C 3.234375 2.5 3.3125 2.40625 3.3125 2.296875 C 3.3125 2.265625 3.3125 2.25 3.265625 2.140625 L 1.5 -2.5 Z M 3.265625 -7.09375 "
           id="path2524" />
      </symbol>
      <symbol
         overflow="visible"
         id="symbol1624">
        <path
           style="stroke:none;"
           d="M 2.71875 -2.328125 C 2.765625 -2.4375 2.765625 -2.46875 2.765625 -2.5 C 2.765625 -2.515625 2.765625 -2.546875 2.71875 -2.65625 L 0.984375 -7.25 C 0.921875 -7.421875 0.859375 -7.484375 0.75 -7.484375 C 0.640625 -7.484375 0.546875 -7.390625 0.546875 -7.28125 C 0.546875 -7.25 0.546875 -7.234375 0.59375 -7.125 L 2.359375 -2.5 L 0.59375 2.109375 C 0.546875 2.21875 0.546875 2.25 0.546875 2.296875 C 0.546875 2.40625 0.640625 2.5 0.75 2.5 C 0.875 2.5 0.921875 2.390625 0.953125 2.296875 Z M 2.71875 -2.328125 "
           id="path7414" />
      </symbol>
      <symbol
         overflow="visible"
         id="symbol3802">
        <path
           style="stroke:none;"
           d=""
           id="path7010" />
      </symbol>
      <symbol
         overflow="visible"
         id="symbol5860">
        <path
           style="stroke:none;"
           d="M 2.9375 -1.640625 L 2.9375 -0.78125 C 2.9375 -0.421875 2.90625 -0.3125 2.171875 -0.3125 L 1.96875 -0.3125 L 1.96875 0 C 2.375 -0.03125 2.890625 -0.03125 3.3125 -0.03125 C 3.734375 -0.03125 4.25 -0.03125 4.671875 0 L 4.671875 -0.3125 L 4.453125 -0.3125 C 3.71875 -0.3125 3.703125 -0.421875 3.703125 -0.78125 L 3.703125 -1.640625 L 4.6875 -1.640625 L 4.6875 -1.953125 L 3.703125 -1.953125 L 3.703125 -6.484375 C 3.703125 -6.6875 3.703125 -6.75 3.53125 -6.75 C 3.453125 -6.75 3.421875 -6.75 3.34375 -6.625 L 0.28125 -1.953125 L 0.28125 -1.640625 Z M 2.984375 -1.953125 L 0.5625 -1.953125 L 2.984375 -5.671875 Z M 2.984375 -1.953125 "
           id="path9962" />
      </symbol>
    </g>
    <g
       id="g8246">
      <symbol
         overflow="visible"
         id="symbol8948">
        <path
           style="stroke:none;"
           d=""
           id="path3882" />
      </symbol>
      <symbol
         overflow="visible"
         id="symbol2778">
        <path
           style="stroke:none;"
           d="M 3.265625 -7.09375 C 3.3125 -7.203125 3.3125 -7.234375 3.3125 -7.28125 C 3.3125 -7.390625 3.234375 -7.484375 3.125 -7.484375 C 3.03125 -7.484375 2.953125 -7.421875 2.890625 -7.25 L 1.140625 -2.671875 C 1.125 -2.609375 1.09375 -2.546875 1.09375 -2.5 C 1.09375 -2.46875 1.09375 -2.4375 1.140625 -2.328125 L 2.890625 2.25 C 2.9375 2.359375 2.984375 2.5 3.125 2.5 C 3.234375 2.5 3.3125 2.40625 3.3125 2.296875 C 3.3125 2.265625 3.3125 2.25 3.265625 2.140625 L 1.5 -2.5 Z M 3.265625 -7.09375 "
           id="path2678" />
      </symbol>
      <symbol
         overflow="visible"
         id="symbol3504">
        <path
           style="stroke:none;"
           d="M 2.71875 -2.328125 C 2.765625 -2.4375 2.765625 -2.46875 2.765625 -2.5 C 2.765625 -2.515625 2.765625 -2.546875 2.71875 -2.65625 L 0.984375 -7.25 C 0.921875 -7.421875 0.859375 -7.484375 0.75 -7.484375 C 0.640625 -7.484375 0.546875 -7.390625 0.546875 -7.28125 C 0.546875 -7.25 0.546875 -7.234375 0.59375 -7.125 L 2.359375 -2.5 L 0.59375 2.109375 C 0.546875 2.21875 0.546875 2.25 0.546875 2.296875 C 0.546875 2.40625 0.640625 2.5 0.75 2.5 C 0.875 2.5 0.921875 2.390625 0.953125 2.296875 Z M 2.71875 -2.328125 "
           id="path8371" />
      </symbol>
      <symbol
         overflow="visible"
         id="symbol608">
        <path
           style="stroke:none;"
           d=""
           id="path5642" />
      </symbol>
      <symbol
         overflow="visible"
         id="symbol2474">
        <path
           style="stroke:none;"
           d="M 1.265625 -0.765625 L 2.328125 -1.796875 C 3.875 -3.171875 4.46875 -3.703125 4.46875 -4.703125 C 4.46875 -5.84375 3.578125 -6.640625 2.359375 -6.640625 C 1.234375 -6.640625 0.5 -5.71875 0.5 -4.828125 C 0.5 -4.28125 1 -4.28125 1.03125 -4.28125 C 1.203125 -4.28125 1.546875 -4.390625 1.546875 -4.8125 C 1.546875 -5.0625 1.359375 -5.328125 1.015625 -5.328125 C 0.9375 -5.328125 0.921875 -5.328125 0.890625 -5.3125 C 1.109375 -5.96875 1.65625 -6.328125 2.234375 -6.328125 C 3.140625 -6.328125 3.5625 -5.515625 3.5625 -4.703125 C 3.5625 -3.90625 3.078125 -3.125 2.515625 -2.5 L 0.609375 -0.375 C 0.5 -0.265625 0.5 -0.234375 0.5 0 L 4.203125 0 L 4.46875 -1.734375 L 4.234375 -1.734375 C 4.171875 -1.4375 4.109375 -1 4 -0.84375 C 3.9375 -0.765625 3.28125 -0.765625 3.0625 -0.765625 Z M 1.265625 -0.765625 "
           id="path8428" />
      </symbol>
    </g>
    <g
       id="g6572">
      <symbol
         overflow="visible"
         id="symbol4213">
        <path
           style="stroke:none;"
           d=""
           id="path110" />
      </symbol>
      <symbol
         overflow="visible"
         id="symbol5656">
        <path
           style="stroke:none;"
           d="M 3.265625 -7.09375 C 3.3125 -7.203125 3.3125 -7.234375 3.3125 -7.28125 C 3.3125 -7.390625 3.234375 -7.484375 3.125 -7.484375 C 3.03125 -7.484375 2.953125 -7.421875 2.890625 -7.25 L 1.140625 -2.671875 C 1.125 -2.609375 1.09375 -2.546875 1.09375 -2.5 C 1.09375 -2.46875 1.09375 -2.4375 1.140625 -2.328125 L 2.890625 2.25 C 2.9375 2.359375 2.984375 2.5 3.125 2.5 C 3.234375 2.5 3.3125 2.40625 3.3125 2.296875 C 3.3125 2.265625 3.3125 2.25 3.265625 2.140625 L 1.5 -2.5 Z M 3.265625 -7.09375 "
           id="path6883" />
      </symbol>
      <symbol
         overflow="visible"
         id="symbol3197">
        <path
           style="stroke:none;"
           d="M 2.71875 -2.328125 C 2.765625 -2.4375 2.765625 -2.46875 2.765625 -2.5 C 2.765625 -2.515625 2.765625 -2.546875 2.71875 -2.65625 L 0.984375 -7.25 C 0.921875 -7.421875 0.859375 -7.484375 0.75 -7.484375 C 0.640625 -7.484375 0.546875 -7.390625 0.546875 -7.28125 C 0.546875 -7.25 0.546875 -7.234375 0.59375 -7.125 L 2.359375 -2.5 L 0.59375 2.109375 C 0.546875 2.21875 0.546875 2.25 0.546875 2.296875 C 0.546875 2.40625 0.640625 2.5 0.75 2.5 C 0.875 2.5 0.921875 2.390625 0.953125 2.296875 Z M 2.71875 -2.328125 "
           id="path4401" />
      </symbol>
      <symbol
         overflow="visible"
         id="symbol3597">
        <path
           style="stroke:none;"
           d=""
           id="path8352" />
      </symbol>
      <symbol
         overflow="visible"
         id="symbol1847">
        <path
           style="stroke:none;"
           d="M 2.9375 -6.375 C 2.9375 -6.625 2.9375 -6.640625 2.703125 -6.640625 C 2.078125 -6 1.203125 -6 0.890625 -6 L 0.890625 -5.6875 C 1.09375 -5.6875 1.671875 -5.6875 2.1875 -5.953125 L 2.1875 -0.78125 C 2.1875 -0.421875 2.15625 -0.3125 1.265625 -0.3125 L 0.953125 -0.3125 L 0.953125 0 C 1.296875 -0.03125 2.15625 -0.03125 2.5625 -0.03125 C 2.953125 -0.03125 3.828125 -0.03125 4.171875 0 L 4.171875 -0.3125 L 3.859375 -0.3125 C 2.953125 -0.3125 2.9375 -0.421875 2.9375 -0.78125 Z M 2.9375 -6.375 "
           id="path1671" />
      </symbol>
    </g>
    <g
       id="g854">
      <symbol
         overflow="visible"
         id="symbol9204">
        <path
           style="stroke:none;"
           d=""
           id="path3801" />
      </symbol>
      <symbol
         overflow="visible"
         id="symbol3131">
        <path
           style="stroke:none;"
           d="M 3.265625 -7.09375 C 3.3125 -7.203125 3.3125 -7.234375 3.3125 -7.28125 C 3.3125 -7.390625 3.234375 -7.484375 3.125 -7.484375 C 3.03125 -7.484375 2.953125 -7.421875 2.890625 -7.25 L 1.140625 -2.671875 C 1.125 -2.609375 1.09375 -2.546875 1.09375 -2.5 C 1.09375 -2.46875 1.09375 -2.4375 1.140625 -2.328125 L 2.890625 2.25 C 2.9375 2.359375 2.984375 2.5 3.125 2.5 C 3.234375 2.5 3.3125 2.40625 3.3125 2.296875 C 3.3125 2.265625 3.3125 2.25 3.265625 2.140625 L 1.5 -2.5 Z M 3.265625 -7.09375 "
           id="path8589" />
      </symbol>
      <symbol
         overflow="visible"
         id="symbol8969">
        <path
           style="stroke:none;"
           d="M 2.71875 -2.328125 C 2.765625 -2.4375 2.765625 -2.46875 2.765625 -2.5 C 2.765625 -2.515625 2.765625 -2.546875 2.71875 -2.65625 L 0.984375 -7.25 C 0.921875 -7.421875 0.859375 -7.484375 0.75 -7.484375 C 0.640625 -7.484375 0.546875 -7.390625 0.546875 -7.28125 C 0.546875 -7.25 0.546875 -7.234375 0.59375 -7.125 L 2.359375 -2.5 L 0.59375 2.109375 C 0.546875 2.21875 0.546875 2.25 0.546875 2.296875 C 0.546875 2.40625 0.640625 2.5 0.75 2.5 C 0.875 2.5 0.921875 2.390625 0.953125 2.296875 Z M 2.71875 -2.328125 "
           id="path5539" />
      </symbol>
      <symbol
         overflow="visible"
         id="symbol4478">
        <path
           style="stroke:none;"
           d=""
           id="path1294" />
      </symbol>
      <symbol
         overflow="visible"
         id="symbol254">
        <path
           style="stroke:none;"
           d="M 0.453125 1.21875 C 0.375 1.5625 0.34375 1.625 -0.09375 1.625 C -0.203125 1.625 -0.3125 1.625 -0.3125 1.8125 C -0.3125 1.890625 -0.265625 1.9375 -0.1875 1.9375 C 0.078125 1.9375 0.375 1.90625 0.640625 1.90625 C 0.984375 1.90625 1.3125 1.9375 1.640625 1.9375 C 1.6875 1.9375 1.8125 1.9375 1.8125 1.734375 C 1.8125 1.625 1.71875 1.625 1.578125 1.625 C 1.078125 1.625 1.078125 1.5625 1.078125 1.46875 C 1.078125 1.34375 1.5 -0.28125 1.5625 -0.53125 C 1.6875 -0.234375 1.96875 0.109375 2.484375 0.109375 C 3.640625 0.109375 4.890625 -1.34375 4.890625 -2.8125 C 4.890625 -3.75 4.3125 -4.40625 3.5625 -4.40625 C 3.0625 -4.40625 2.578125 -4.046875 2.25 -3.65625 C 2.15625 -4.203125 1.71875 -4.40625 1.359375 -4.40625 C 0.890625 -4.40625 0.703125 -4.015625 0.625 -3.84375 C 0.4375 -3.5 0.3125 -2.90625 0.3125 -2.875 C 0.3125 -2.765625 0.40625 -2.765625 0.421875 -2.765625 C 0.53125 -2.765625 0.53125 -2.78125 0.59375 -3 C 0.765625 -3.703125 0.96875 -4.1875 1.328125 -4.1875 C 1.5 -4.1875 1.640625 -4.109375 1.640625 -3.734375 C 1.640625 -3.5 1.609375 -3.390625 1.5625 -3.21875 Z M 2.203125 -3.109375 C 2.265625 -3.375 2.546875 -3.65625 2.71875 -3.8125 C 3.078125 -4.109375 3.359375 -4.1875 3.53125 -4.1875 C 3.921875 -4.1875 4.171875 -3.84375 4.171875 -3.25 C 4.171875 -2.65625 3.84375 -1.515625 3.65625 -1.140625 C 3.3125 -0.4375 2.84375 -0.109375 2.46875 -0.109375 C 1.8125 -0.109375 1.6875 -0.9375 1.6875 -1 C 1.6875 -1.015625 1.6875 -1.03125 1.71875 -1.15625 Z M 2.203125 -3.109375 "
           id="path9536" />
      </symbol>
    </g>
    <g
       id="g9570">
      <symbol
         overflow="visible"
         id="symbol8068">
        <path
           style="stroke:none;"
           d=""
           id="path8321" />
      </symbol>
      <symbol
         overflow="visible"
         id="symbol6556">
        <path
           style="stroke:none;"
           d="M 3.265625 -7.09375 C 3.3125 -7.203125 3.3125 -7.234375 3.3125 -7.28125 C 3.3125 -7.390625 3.234375 -7.484375 3.125 -7.484375 C 3.03125 -7.484375 2.953125 -7.421875 2.890625 -7.25 L 1.140625 -2.671875 C 1.125 -2.609375 1.09375 -2.546875 1.09375 -2.5 C 1.09375 -2.46875 1.09375 -2.4375 1.140625 -2.328125 L 2.890625 2.25 C 2.9375 2.359375 2.984375 2.5 3.125 2.5 C 3.234375 2.5 3.3125 2.40625 3.3125 2.296875 C 3.3125 2.265625 3.3125 2.25 3.265625 2.140625 L 1.5 -2.5 Z M 3.265625 -7.09375 "
           id="path4293" />
      </symbol>
      <symbol
         overflow="visible"
         id="symbol2982">
        <path
           style="stroke:none;"
           d="M 2.71875 -2.328125 C 2.765625 -2.4375 2.765625 -2.46875 2.765625 -2.5 C 2.765625 -2.515625 2.765625 -2.546875 2.71875 -2.65625 L 0.984375 -7.25 C 0.921875 -7.421875 0.859375 -7.484375 0.75 -7.484375 C 0.640625 -7.484375 0.546875 -7.390625 0.546875 -7.28125 C 0.546875 -7.25 0.546875 -7.234375 0.59375 -7.125 L 2.359375 -2.5 L 0.59375 2.109375 C 0.546875 2.21875 0.546875 2.25 0.546875 2.296875 C 0.546875 2.40625 0.640625 2.5 0.75 2.5 C 0.875 2.5 0.921875 2.390625 0.953125 2.296875 Z M 2.71875 -2.328125 "
           id="path2398" />
      </symbol>
      <symbol
         overflow="visible"
         id="symbol6591">
        <path
           style="stroke:none;"
           d=""
           id="path2061" />
      </symbol>
      <symbol
         overflow="visible"
         id="symbol6274">
        <path
           style="stroke:none;"
           d="M 0.453125 1.21875 C 0.375 1.5625 0.34375 1.625 -0.09375 1.625 C -0.203125 1.625 -0.3125 1.625 -0.3125 1.8125 C -0.3125 1.890625 -0.265625 1.9375 -0.1875 1.9375 C 0.078125 1.9375 0.375 1.90625 0.640625 1.90625 C 0.984375 1.90625 1.3125 1.9375 1.640625 1.9375 C 1.6875 1.9375 1.8125 1.9375 1.8125 1.734375 C 1.8125 1.625 1.71875 1.625 1.578125 1.625 C 1.078125 1.625 1.078125 1.5625 1.078125 1.46875 C 1.078125 1.34375 1.5 -0.28125 1.5625 -0.53125 C 1.6875 -0.234375 1.96875 0.109375 2.484375 0.109375 C 3.640625 0.109375 4.890625 -1.34375 4.890625 -2.8125 C 4.890625 -3.75 4.3125 -4.40625 3.5625 -4.40625 C 3.0625 -4.40625 2.578125 -4.046875 2.25 -3.65625 C 2.15625 -4.203125 1.71875 -4.40625 1.359375 -4.40625 C 0.890625 -4.40625 0.703125 -4.015625 0.625 -3.84375 C 0.4375 -3.5 0.3125 -2.90625 0.3125 -2.875 C 0.3125 -2.765625 0.40625 -2.765625 0.421875 -2.765625 C 0.53125 -2.765625 0.53125 -2.78125 0.59375 -3 C 0.765625 -3.703125 0.96875 -4.1875 1.328125 -4.1875 C 1.5 -4.1875 1.640625 -4.109375 1.640625 -3.734375 C 1.640625 -3.5 1.609375 -3.390625 1.5625 -3.21875 Z M 2.203125 -3.109375 C 2.265625 -3.375 2.546875 -3.65625 2.71875 -3.8125 C 3.078125 -4.109375 3.359375 -4.1875 3.53125 -4.1875 C 3.921875 -4.1875 4.171875 -3.84375 4.171875 -3.25 C 4.171875 -2.65625 3.84375 -1.515625 3.65625 -1.140625 C 3.3125 -0.4375 2.84375 -0.109375 2.46875 -0.109375 C 1.8125 -0.109375 1.6875 -0.9375 1.6875 -1 C 1.6875 -1.015625 1.6875 -1.03125 1.71875 -1.15625 Z M 2.203125 -3.109375 "
           id="path2932" />
      </symbol>
      <symbol
         overflow="visible"
         id="symbol3863">
        <path
           style="stroke:none;"
           d=""
           id="path3769" />
      </symbol>
      <symbol
         overflow="visible"
         id="symbol3173">
        <path
           style="stroke:none;"
           d="M 3.515625 -1.265625 L 3.28125 -1.265625 C 3.265625 -1.109375 3.1875 -0.703125 3.09375 -0.640625 C 3.046875 -0.59375 2.515625 -0.59375 2.40625 -0.59375 L 1.125 -0.59375 C 1.859375 -1.234375 2.109375 -1.4375 2.515625 -1.765625 C 3.03125 -2.171875 3.515625 -2.609375 3.515625 -3.265625 C 3.515625 -4.109375 2.78125 -4.625 1.890625 -4.625 C 1.03125 -4.625 0.4375 -4.015625 0.4375 -3.375 C 0.4375 -3.03125 0.734375 -2.984375 0.8125 -2.984375 C 0.96875 -2.984375 1.171875 -3.109375 1.171875 -3.359375 C 1.171875 -3.484375 1.125 -3.734375 0.765625 -3.734375 C 0.984375 -4.21875 1.453125 -4.375 1.78125 -4.375 C 2.484375 -4.375 2.84375 -3.828125 2.84375 -3.265625 C 2.84375 -2.65625 2.40625 -2.1875 2.1875 -1.9375 L 0.515625 -0.265625 C 0.4375 -0.203125 0.4375 -0.1875 0.4375 0 L 3.3125 0 Z M 3.515625 -1.265625 "
           id="path1852" />
      </symbol>
    </g>
    <g
       id="g1538">
      <symbol
         overflow="visible"
         id="symbol4918">
        <path
           style="stroke:none;"
           d=""
           id="path920" />
      </symbol>
      <symbol
         overflow="visible"
         id="symbol9187">
        <path
           style="stroke:none;"
           d="M 3.265625 -7.09375 C 3.3125 -7.203125 3.3125 -7.234375 3.3125 -7.28125 C 3.3125 -7.390625 3.234375 -7.484375 3.125 -7.484375 C 3.03125 -7.484375 2.953125 -7.421875 2.890625 -7.25 L 1.140625 -2.671875 C 1.125 -2.609375 1.09375 -2.546875 1.09375 -2.5 C 1.09375 -2.46875 1.09375 -2.4375 1.140625 -2.328125 L 2.890625 2.25 C 2.9375 2.359375 2.984375 2.5 3.125 2.5 C 3.234375 2.5 3.3125 2.40625 3.3125 2.296875 C 3.3125 2.265625 3.3125 2.25 3.265625 2.140625 L 1.5 -2.5 Z M 3.265625 -7.09375 "
           id="path979" />
      </symbol>
      <symbol
         overflow="visible"
         id="symbol6280">
        <path
           style="stroke:none;"
           d="M 2.71875 -2.328125 C 2.765625 -2.4375 2.765625 -2.46875 2.765625 -2.5 C 2.765625 -2.515625 2.765625 -2.546875 2.71875 -2.65625 L 0.984375 -7.25 C 0.921875 -7.421875 0.859375 -7.484375 0.75 -7.484375 C 0.640625 -7.484375 0.546875 -7.390625 0.546875 -7.28125 C 0.546875 -7.25 0.546875 -7.234375 0.59375 -7.125 L 2.359375 -2.5 L 0.59375 2.109375 C 0.546875 2.21875 0.546875 2.25 0.546875 2.296875 C 0.546875 2.40625 0.640625 2.5 0.75 2.5 C 0.875 2.5 0.921875 2.390625 0.953125 2.296875 Z M 2.71875 -2.328125 "
           id="path2900" />
      </symbol>
      <symbol
         overflow="visible"
         id="symbol1829">
        <path
           style="stroke:none;"
           d=""
           id="path6301" />
      </symbol>
      <symbol
         overflow="visible"
         id="symbol6601">
        <path
           style="stroke:none;"
           d="M 0.453125 1.21875 C 0.375 1.5625 0.34375 1.625 -0.09375 1.625 C -0.203125 1.625 -0.3125 1.625 -0.3125 1.8125 C -0.3125 1.890625 -0.265625 1.9375 -0.1875 1.9375 C 0.078125 1.9375 0.375 1.90625 0.640625 1.90625 C 0.984375 1.90625 1.3125 1.9375 1.640625 1.9375 C 1.6875 1.9375 1.8125 1.9375 1.8125 1.734375 C 1.8125 1.625 1.71875 1.625 1.578125 1.625 C 1.078125 1.625 1.078125 1.5625 1.078125 1.46875 C 1.078125 1.34375 1.5 -0.28125 1.5625 -0.53125 C 1.6875 -0.234375 1.96875 0.109375 2.484375 0.109375 C 3.640625 0.109375 4.890625 -1.34375 4.890625 -2.8125 C 4.890625 -3.75 4.3125 -4.40625 3.5625 -4.40625 C 3.0625 -4.40625 2.578125 -4.046875 2.25 -3.65625 C 2.15625 -4.203125 1.71875 -4.40625 1.359375 -4.40625 C 0.890625 -4.40625 0.703125 -4.015625 0.625 -3.84375 C 0.4375 -3.5 0.3125 -2.90625 0.3125 -2.875 C 0.3125 -2.765625 0.40625 -2.765625 0.421875 -2.765625 C 0.53125 -2.765625 0.53125 -2.78125 0.59375 -3 C 0.765625 -3.703125 0.96875 -4.1875 1.328125 -4.1875 C 1.5 -4.1875 1.640625 -4.109375 1.640625 -3.734375 C 1.640625 -3.5 1.609375 -3.390625 1.5625 -3.21875 Z M 2.203125 -3.109375 C 2.265625 -3.375 2.546875 -3.65625 2.71875 -3.8125 C 3.078125 -4.109375 3.359375 -4.1875 3.53125 -4.1875 C 3.921875 -4.1875 4.171875 -3.84375 4.171875 -3.25 C 4.171875 -2.65625 3.84375 -1.515625 3.65625 -1.140625 C 3.3125 -0.4375 2.84375 -0.109375 2.46875 -0.109375 C 1.8125 -0.109375 1.6875 -0.9375 1.6875 -1 C 1.6875 -1.015625 1.6875 -1.03125 1.71875 -1.15625 Z M 2.203125 -3.109375 "
           id="path989" />
      </symbol>
      <symbol
         overflow="visible"
         id="symbol5841">
        <path
           style="stroke:none;"
           d=""
           id="path2602" />
      </symbol>
      <symbol
         overflow="visible"
         id="symbol6011">
        <path
           style="stroke:none;"
           d="M 0.84375 -0.4375 C 0.828125 -0.34375 0.78125 -0.171875 0.78125 -0.15625 C 0.78125 0 0.90625 0.0625 1.015625 0.0625 C 1.140625 0.0625 1.25 -0.015625 1.296875 -0.078125 C 1.328125 -0.140625 1.375 -0.375 1.421875 -0.515625 C 1.453125 -0.640625 1.53125 -0.96875 1.5625 -1.140625 C 1.609375 -1.296875 1.65625 -1.453125 1.6875 -1.609375 C 1.765625 -1.890625 1.78125 -1.953125 1.984375 -2.234375 C 2.171875 -2.515625 2.5 -2.875 3.03125 -2.875 C 3.421875 -2.875 3.4375 -2.515625 3.4375 -2.390625 C 3.4375 -1.96875 3.140625 -1.203125 3.03125 -0.90625 C 2.953125 -0.703125 2.921875 -0.640625 2.921875 -0.53125 C 2.921875 -0.15625 3.21875 0.0625 3.578125 0.0625 C 4.28125 0.0625 4.578125 -0.890625 4.578125 -1 C 4.578125 -1.09375 4.5 -1.09375 4.46875 -1.09375 C 4.375 -1.09375 4.375 -1.046875 4.34375 -0.96875 C 4.1875 -0.40625 3.875 -0.125 3.609375 -0.125 C 3.453125 -0.125 3.421875 -0.21875 3.421875 -0.375 C 3.421875 -0.53125 3.46875 -0.625 3.59375 -0.9375 C 3.671875 -1.15625 3.953125 -1.890625 3.953125 -2.28125 C 3.953125 -2.953125 3.421875 -3.078125 3.046875 -3.078125 C 2.46875 -3.078125 2.078125 -2.71875 1.875 -2.4375 C 1.828125 -2.921875 1.421875 -3.078125 1.125 -3.078125 C 0.828125 -3.078125 0.671875 -2.859375 0.578125 -2.703125 C 0.421875 -2.4375 0.328125 -2.046875 0.328125 -2 C 0.328125 -1.921875 0.421875 -1.921875 0.453125 -1.921875 C 0.546875 -1.921875 0.546875 -1.9375 0.59375 -2.125 C 0.703125 -2.53125 0.84375 -2.875 1.109375 -2.875 C 1.296875 -2.875 1.34375 -2.71875 1.34375 -2.53125 C 1.34375 -2.40625 1.28125 -2.140625 1.21875 -1.953125 C 1.171875 -1.765625 1.109375 -1.484375 1.078125 -1.328125 Z M 0.84375 -0.4375 "
           id="path7892" />
      </symbol>
    </g>
    <g
       id="g3037">
      <symbol
         overflow="visible"
         id="symbol4140">
        <path
           style="stroke:none;"
           d=""
           id="path3994" />
      </symbol>
      <symbol
         overflow="visible"
         id="symbol7352">
        <path
           style="stroke:none;"
           d="M 3.265625 -7.09375 C 3.3125 -7.203125 3.3125 -7.234375 3.3125 -7.28125 C 3.3125 -7.390625 3.234375 -7.484375 3.125 -7.484375 C 3.03125 -7.484375 2.953125 -7.421875 2.890625 -7.25 L 1.140625 -2.671875 C 1.125 -2.609375 1.09375 -2.546875 1.09375 -2.5 C 1.09375 -2.46875 1.09375 -2.4375 1.140625 -2.328125 L 2.890625 2.25 C 2.9375 2.359375 2.984375 2.5 3.125 2.5 C 3.234375 2.5 3.3125 2.40625 3.3125 2.296875 C 3.3125 2.265625 3.3125 2.25 3.265625 2.140625 L 1.5 -2.5 Z M 3.265625 -7.09375 "
           id="path984" />
      </symbol>
      <symbol
         overflow="visible"
         id="symbol2765">
        <path
           style="stroke:none;"
           d="M 2.71875 -2.328125 C 2.765625 -2.4375 2.765625 -2.46875 2.765625 -2.5 C 2.765625 -2.515625 2.765625 -2.546875 2.71875 -2.65625 L 0.984375 -7.25 C 0.921875 -7.421875 0.859375 -7.484375 0.75 -7.484375 C 0.640625 -7.484375 0.546875 -7.390625 0.546875 -7.28125 C 0.546875 -7.25 0.546875 -7.234375 0.59375 -7.125 L 2.359375 -2.5 L 0.59375 2.109375 C 0.546875 2.21875 0.546875 2.25 0.546875 2.296875 C 0.546875 2.40625 0.640625 2.5 0.75 2.5 C 0.875 2.5 0.921875 2.390625 0.953125 2.296875 Z M 2.71875 -2.328125 "
           id="path6391" />
      </symbol>
      <symbol
         overflow="visible"
         id="symbol9739">
        <path
           style="stroke:none;"
           d=""
           id="path2542" />
      </symbol>
      <symbol
         overflow="visible"
         id="symbol4576">
        <path
           style="stroke:none;"
           d="M 1.90625 -0.53125 C 1.90625 -0.8125 1.671875 -1.0625 1.390625 -1.0625 C 1.09375 -1.0625 0.859375 -0.8125 0.859375 -0.53125 C 0.859375 -0.234375 1.09375 0 1.390625 0 C 1.671875 0 1.90625 -0.234375 1.90625 -0.53125 Z M 1.90625 -0.53125 "
           id="path3501" />
      </symbol>
    </g>
    <g
       id="g7022">
      <symbol
         overflow="visible"
         id="symbol5032">
        <path
           style="stroke:none;"
           d=""
           id="path9878" />
      </symbol>
      <symbol
         overflow="visible"
         id="symbol5496">
        <path
           style="stroke:none;"
           d="M 1.90625 -0.53125 C 1.90625 -0.8125 1.671875 -1.0625 1.390625 -1.0625 C 1.09375 -1.0625 0.859375 -0.8125 0.859375 -0.53125 C 0.859375 -0.234375 1.09375 0 1.390625 0 C 1.671875 0 1.90625 -0.234375 1.90625 -0.53125 Z M 1.90625 -0.53125 "
           id="path7606" />
      </symbol>
    </g>
    <g
       id="g1293">
      <symbol
         overflow="visible"
         id="symbol5722">
        <path
           style="stroke:none;"
           d=""
           id="path4878" />
      </symbol>
      <symbol
         overflow="visible"
         id="symbol71">
        <path
           style="stroke:none;"
           d="M 3.265625 -7.09375 C 3.3125 -7.203125 3.3125 -7.234375 3.3125 -7.28125 C 3.3125 -7.390625 3.234375 -7.484375 3.125 -7.484375 C 3.03125 -7.484375 2.953125 -7.421875 2.890625 -7.25 L 1.140625 -2.671875 C 1.125 -2.609375 1.09375 -2.546875 1.09375 -2.5 C 1.09375 -2.46875 1.09375 -2.4375 1.140625 -2.328125 L 2.890625 2.25 C 2.9375 2.359375 2.984375 2.5 3.125 2.5 C 3.234375 2.5 3.3125 2.40625 3.3125 2.296875 C 3.3125 2.265625 3.3125 2.25 3.265625 2.140625 L 1.5 -2.5 Z M 3.265625 -7.09375 "
           id="path1842" />
      </symbol>
      <symbol
         overflow="visible"
         id="symbol4058">
        <path
           style="stroke:none;"
           d="M 2.71875 -2.328125 C 2.765625 -2.4375 2.765625 -2.46875 2.765625 -2.5 C 2.765625 -2.515625 2.765625 -2.546875 2.71875 -2.65625 L 0.984375 -7.25 C 0.921875 -7.421875 0.859375 -7.484375 0.75 -7.484375 C 0.640625 -7.484375 0.546875 -7.390625 0.546875 -7.28125 C 0.546875 -7.25 0.546875 -7.234375 0.59375 -7.125 L 2.359375 -2.5 L 0.59375 2.109375 C 0.546875 2.21875 0.546875 2.25 0.546875 2.296875 C 0.546875 2.40625 0.640625 2.5 0.75 2.5 C 0.875 2.5 0.921875 2.390625 0.953125 2.296875 Z M 2.71875 -2.328125 "
           id="path8949" />
      </symbol>
      <symbol
         overflow="visible"
         id="symbol4110">
        <path
           style="stroke:none;"
           d=""
           id="path5879" />
      </symbol>
      <symbol
         overflow="visible"
         id="symbol7215">
        <path
           style="stroke:none;"
           d="M 0.875 -0.59375 C 0.84375 -0.4375 0.78125 -0.203125 0.78125 -0.15625 C 0.78125 0.015625 0.921875 0.109375 1.078125 0.109375 C 1.203125 0.109375 1.375 0.03125 1.453125 -0.171875 C 1.46875 -0.203125 1.796875 -1.5625 1.84375 -1.75 C 1.921875 -2.078125 2.109375 -2.765625 2.15625 -3.046875 C 2.203125 -3.171875 2.484375 -3.640625 2.71875 -3.859375 C 2.796875 -3.921875 3.09375 -4.1875 3.515625 -4.1875 C 3.78125 -4.1875 3.921875 -4.0625 3.9375 -4.0625 C 3.640625 -4.015625 3.421875 -3.78125 3.421875 -3.515625 C 3.421875 -3.359375 3.53125 -3.171875 3.796875 -3.171875 C 4.0625 -3.171875 4.34375 -3.40625 4.34375 -3.765625 C 4.34375 -4.109375 4.03125 -4.40625 3.515625 -4.40625 C 2.875 -4.40625 2.4375 -3.921875 2.25 -3.640625 C 2.15625 -4.09375 1.796875 -4.40625 1.328125 -4.40625 C 0.875 -4.40625 0.6875 -4.015625 0.59375 -3.84375 C 0.421875 -3.5 0.296875 -2.90625 0.296875 -2.875 C 0.296875 -2.765625 0.390625 -2.765625 0.40625 -2.765625 C 0.515625 -2.765625 0.515625 -2.78125 0.578125 -3 C 0.75 -3.703125 0.953125 -4.1875 1.3125 -4.1875 C 1.46875 -4.1875 1.609375 -4.109375 1.609375 -3.734375 C 1.609375 -3.515625 1.578125 -3.40625 1.453125 -2.890625 Z M 0.875 -0.59375 "
           id="path6938" />
      </symbol>
      <symbol
         overflow="visible"
         id="symbol2997">
        <path
           style="stroke:none;"
           d="M 2.03125 -0.015625 C 2.03125 -0.671875 1.78125 -1.0625 1.390625 -1.0625 C 1.0625 -1.0625 0.859375 -0.8125 0.859375 -0.53125 C 0.859375 -0.265625 1.0625 0 1.390625 0 C 1.5 0 1.640625 -0.046875 1.734375 -0.125 C 1.765625 -0.15625 1.78125 -0.15625 1.78125 -0.15625 C 1.796875 -0.15625 1.796875 -0.15625 1.796875 -0.015625 C 1.796875 0.734375 1.453125 1.328125 1.125 1.65625 C 1.015625 1.765625 1.015625 1.78125 1.015625 1.8125 C 1.015625 1.890625 1.0625 1.921875 1.109375 1.921875 C 1.21875 1.921875 2.03125 1.15625 2.03125 -0.015625 Z M 2.03125 -0.015625 "
           id="path9977" />
      </symbol>
      <symbol
         overflow="visible"
         id="symbol4302">
        <path
           style="stroke:none;"
           d="M 2.046875 -3.984375 L 2.984375 -3.984375 C 3.1875 -3.984375 3.296875 -3.984375 3.296875 -4.1875 C 3.296875 -4.296875 3.1875 -4.296875 3.015625 -4.296875 L 2.140625 -4.296875 C 2.5 -5.71875 2.546875 -5.90625 2.546875 -5.96875 C 2.546875 -6.140625 2.421875 -6.234375 2.25 -6.234375 C 2.21875 -6.234375 1.9375 -6.234375 1.859375 -5.875 L 1.46875 -4.296875 L 0.53125 -4.296875 C 0.328125 -4.296875 0.234375 -4.296875 0.234375 -4.109375 C 0.234375 -3.984375 0.3125 -3.984375 0.515625 -3.984375 L 1.390625 -3.984375 C 0.671875 -1.15625 0.625 -0.984375 0.625 -0.8125 C 0.625 -0.265625 1 0.109375 1.546875 0.109375 C 2.5625 0.109375 3.125 -1.34375 3.125 -1.421875 C 3.125 -1.53125 3.046875 -1.53125 3.015625 -1.53125 C 2.921875 -1.53125 2.90625 -1.5 2.859375 -1.390625 C 2.4375 -0.34375 1.90625 -0.109375 1.5625 -0.109375 C 1.359375 -0.109375 1.25 -0.234375 1.25 -0.5625 C 1.25 -0.8125 1.28125 -0.875 1.3125 -1.046875 Z M 2.046875 -3.984375 "
           id="path9612" />
      </symbol>
    </g>
    <g
       id="g6847">
      <symbol
         overflow="visible"
         id="symbol3138">
        <path
           style="stroke:none;"
           d=""
           id="path3910" />
      </symbol>
      <symbol
         overflow="visible"
         id="symbol1187">
        <path
           style="stroke:none;"
           d="M 3.265625 -7.09375 C 3.3125 -7.203125 3.3125 -7.234375 3.3125 -7.28125 C 3.3125 -7.390625 3.234375 -7.484375 3.125 -7.484375 C 3.03125 -7.484375 2.953125 -7.421875 2.890625 -7.25 L 1.140625 -2.671875 C 1.125 -2.609375 1.09375 -2.546875 1.09375 -2.5 C 1.09375 -2.46875 1.09375 -2.4375 1.140625 -2.328125 L 2.890625 2.25 C 2.9375 2.359375 2.984375 2.5 3.125 2.5 C 3.234375 2.5 3.3125 2.40625 3.3125 2.296875 C 3.3125 2.265625 3.3125 2.25 3.265625 2.140625 L 1.5 -2.5 Z M 3.265625 -7.09375 "
           id="path5349" />
      </symbol>
      <symbol
         overflow="visible"
         id="symbol3866">
        <path
           style="stroke:none;"
           d="M 2.71875 -2.328125 C 2.765625 -2.4375 2.765625 -2.46875 2.765625 -2.5 C 2.765625 -2.515625 2.765625 -2.546875 2.71875 -2.65625 L 0.984375 -7.25 C 0.921875 -7.421875 0.859375 -7.484375 0.75 -7.484375 C 0.640625 -7.484375 0.546875 -7.390625 0.546875 -7.28125 C 0.546875 -7.25 0.546875 -7.234375 0.59375 -7.125 L 2.359375 -2.5 L 0.59375 2.109375 C 0.546875 2.21875 0.546875 2.25 0.546875 2.296875 C 0.546875 2.40625 0.640625 2.5 0.75 2.5 C 0.875 2.5 0.921875 2.390625 0.953125 2.296875 Z M 2.71875 -2.328125 "
           id="path4921" />
      </symbol>
      <symbol
         overflow="visible"
         id="symbol7919">
        <path
           style="stroke:none;"
           d=""
           id="path3903" />
      </symbol>
      <symbol
         overflow="visible"
         id="symbol8906">
        <path
           style="stroke:none;"
           d="M 4.578125 -3.1875 C 4.578125 -3.984375 4.53125 -4.78125 4.1875 -5.515625 C 3.734375 -6.484375 2.90625 -6.640625 2.5 -6.640625 C 1.890625 -6.640625 1.171875 -6.375 0.75 -5.453125 C 0.4375 -4.765625 0.390625 -3.984375 0.390625 -3.1875 C 0.390625 -2.4375 0.421875 -1.546875 0.84375 -0.78125 C 1.265625 0.015625 2 0.21875 2.484375 0.21875 C 3.015625 0.21875 3.78125 0.015625 4.21875 -0.9375 C 4.53125 -1.625 4.578125 -2.40625 4.578125 -3.1875 Z M 2.484375 0 C 2.09375 0 1.5 -0.25 1.328125 -1.203125 C 1.21875 -1.796875 1.21875 -2.71875 1.21875 -3.3125 C 1.21875 -3.953125 1.21875 -4.609375 1.296875 -5.140625 C 1.484375 -6.328125 2.234375 -6.421875 2.484375 -6.421875 C 2.8125 -6.421875 3.46875 -6.234375 3.65625 -5.25 C 3.765625 -4.6875 3.765625 -3.9375 3.765625 -3.3125 C 3.765625 -2.5625 3.765625 -1.890625 3.65625 -1.25 C 3.5 -0.296875 2.9375 0 2.484375 0 Z M 2.484375 0 "
           id="path7458" />
      </symbol>
    </g>
  </defs>
  <g
     inkscape:label="Layer 1"
     inkscape:groupmode="layer"
     id="layer1">
    <path
       style="fill:none;stroke:#000000;stroke-width:0.264583px;stroke-linecap:butt;stroke-linejoin:miter;stroke-opacity:1"
       d="m 112.65869,90.23773 c 0,0 0,10.15427 0,10.15427"
       id="path2267" />
    <g
       inkscape:label=""
       transform="matrix(0.70280365,0,0,0.70280365,43.41232,30.467456)"
       id="g2989"
       style="stroke-width:1.42287">
      <g
         id="g4035"
         style="stroke-width:1.42287">
        <g
           style="fill:#000000;fill-opacity:1;stroke-width:1.42287"
           id="g1699">
          <use
             xlink:href="#symbol5656"
             x="91.925003"
             y="81.962997"
             id="use4691"
             width="100%"
             height="100%"
             style="stroke-width:1.42287" />
        </g>
        <g
           style="fill:#000000;fill-opacity:1;stroke-width:1.42287"
           id="g913">
          <use
             xlink:href="#symbol1847"
             x="95.800003"
             y="81.962997"
             id="use4073"
             width="100%"
             height="100%"
             style="stroke-width:1.42287" />
        </g>
        <g
           style="fill:#000000;fill-opacity:1;stroke-width:1.42287"
           id="g3032">
          <use
             xlink:href="#symbol3197"
             x="100.781"
             y="81.962997"
             id="use6112"
             width="100%"
             height="100%"
             style="stroke-width:1.42287" />
        </g>
      </g>
    </g>
    <path
       style="fill:none;stroke:#000000;stroke-width:0.264583px;stroke-linecap:butt;stroke-linejoin:miter;stroke-opacity:1"
       d="m 112.65869,110.07733 c 0,0 0,10.15427 0,10.15427"
       id="path2267-3" />
    <path
       style="fill:none;stroke:#000000;stroke-width:0.264583px;stroke-linecap:butt;stroke-linejoin:miter;stroke-opacity:1"
       d="m 112.65869,153.11547 c 0,0 0,10.15427 0,10.15427"
       id="path2267-3-7" />
    <path
       style="fill:none;stroke:#000000;stroke-width:0.264583px;stroke-linecap:butt;stroke-linejoin:miter;stroke-opacity:1"
       d="m 112.65869,129.62353 c 0,0 0,10.15427 0,10.15427"
       id="path2267-6" />
    <g
       inkscape:label=""
       transform="matrix(0.70073797,0,0,0.70279812,43.604747,49.162213)"
       id="g3735"
       style="stroke-width:1.42497">
      <g
         id="g6637"
         style="stroke-width:1.42497">
        <g
           style="fill:#000000;fill-opacity:1;stroke-width:1.42497"
           id="g4969">
          <use
             xlink:href="#symbol3131"
             x="91.925003"
             y="81.962997"
             id="use5726"
             width="100%"
             height="100%"
             style="stroke-width:1.42497" />
        </g>
        <g
           style="fill:#000000;fill-opacity:1;stroke-width:1.42497"
           id="g235">
          <use
             xlink:href="#symbol254"
             x="95.800003"
             y="81.962997"
             id="use9819"
             width="100%"
             height="100%"
             style="stroke-width:1.42497" />
        </g>
        <g
           style="fill:#000000;fill-opacity:1;stroke-width:1.42497"
           id="g2749">
          <use
             xlink:href="#symbol8969"
             x="100.812"
             y="81.962997"
             id="use5637"
             width="100%"
             height="100%"
             style="stroke-width:1.42497" />
        </g>
      </g>
    </g>
    <g
       inkscape:label=""
       transform="matrix(0.49235187,0,0,0.65335209,62.88996,73.953254)"
       id="g3998"
       style="stroke-width:1.76316">
      <g
         id="g3484"
         style="stroke-width:1.76316">
        <g
           style="fill:#000000;fill-opacity:1;stroke-width:1.76316"
           id="g9830">
          <use
             xlink:href="#symbol6556"
             x="91.925003"
             y="81.962997"
             id="use1277"
             width="100%"
             height="100%"
             style="stroke-width:1.76316" />
        </g>
        <g
           style="fill:#000000;fill-opacity:1;stroke-width:1.76316"
           id="g7674">
          <use
             xlink:href="#symbol6274"
             x="95.800003"
             y="81.962997"
             id="use2997"
             width="100%"
             height="100%"
             style="stroke-width:1.76316" />
        </g>
        <g
           style="fill:#000000;fill-opacity:1;stroke-width:1.76316"
           id="g2200">
          <use
             xlink:href="#symbol3173"
             x="100.812"
             y="78.348"
             id="use9058"
             width="100%"
             height="100%"
             style="stroke-width:1.76316" />
        </g>
        <g
           style="fill:#000000;fill-opacity:1;stroke-width:1.76316"
           id="g153">
          <use
             xlink:href="#symbol2982"
             x="105.281"
             y="81.962997"
             id="use152"
             width="100%"
             height="100%"
             style="stroke-width:1.76316" />
        </g>
      </g>
    </g>
    <g
       inkscape:label=""
       transform="matrix(0.46296202,0,0,0.70279812,65.713499,112.29066)"
       id="g4318"
       style="stroke-width:1.75313">
      <g
         id="g3533"
         style="stroke-width:1.75313">
        <g
           style="fill:#000000;fill-opacity:1;stroke-width:1.75313"
           id="g5379">
          <use
             xlink:href="#symbol9187"
             x="91.925003"
             y="81.962997"
             id="use7627"
             width="100%"
             height="100%"
             style="stroke-width:1.75313" />
        </g>
        <g
           style="fill:#000000;fill-opacity:1;stroke-width:1.75313"
           id="g4311">
          <use
             xlink:href="#symbol6601"
             x="95.800003"
             y="81.962997"
             id="use8541"
             width="100%"
             height="100%"
             style="stroke-width:1.75313" />
        </g>
        <g
           style="fill:#000000;fill-opacity:1;stroke-width:1.75313"
           id="g3554">
          <use
             xlink:href="#symbol6011"
             x="100.812"
             y="78.348"
             id="use2071"
             width="100%"
             height="100%"
             style="stroke-width:1.75313" />
        </g>
        <g
           style="fill:#000000;fill-opacity:1;stroke-width:1.75313"
           id="g8705">
          <use
             xlink:href="#symbol6280"
             x="106.235"
             y="81.962997"
             id="use1953"
             width="100%"
             height="100%"
             style="stroke-width:1.75313" />
        </g>
      </g>
    </g>
    <g
       inkscape:label=""
       transform="translate(19.291762,63.8097)"
       id="g5142">
      <g
         id="g5657">
        <g
           style="fill:#000000;fill-opacity:1"
           id="g6729">
          <use
             xlink:href="#symbol5496"
             x="91.925003"
             y="79.028999"
             id="use1255"
             width="100%"
             height="100%" />
        </g>
        <g
           style="fill:#000000;fill-opacity:1"
           id="g3831">
          <use
             xlink:href="#symbol5496"
             x="91.925003"
             y="83.014"
             id="use9176"
             width="100%"
             height="100%" />
        </g>
        <g
           style="fill:#000000;fill-opacity:1"
           id="g9367">
          <use
             xlink:href="#symbol5496"
             x="91.925003"
             y="87"
             id="use5754"
             width="100%"
             height="100%" />
        </g>
      </g>
    </g>
    <g
       inkscape:label=""
       transform="matrix(0.70280122,0,0,0.70279812,43.35503,132.69821)"
       id="g6123"
       style="stroke-width:1.42288">
      <g
         id="g8027"
         style="stroke-width:1.42288">
        <g
           style="fill:#000000;fill-opacity:1;stroke-width:1.42288"
           id="g9331">
          <use
             xlink:href="#symbol1187"
             x="91.925003"
             y="81.962997"
             id="use5780"
             width="100%"
             height="100%"
             style="stroke-width:1.42288" />
        </g>
        <g
           style="fill:#000000;fill-opacity:1;stroke-width:1.42288"
           id="g9035">
          <use
             xlink:href="#symbol8906"
             x="95.800003"
             y="81.962997"
             id="use4962"
             width="100%"
             height="100%"
             style="stroke-width:1.42288" />
        </g>
        <g
           style="fill:#000000;fill-opacity:1;stroke-width:1.42288"
           id="g5140">
          <use
             xlink:href="#symbol3866"
             x="100.781"
             y="81.962997"
             id="use7215"
             width="100%"
             height="100%"
             style="stroke-width:1.42288" />
        </g>
      </g>
    </g>
    <path
       style="fill:none;stroke:#000000;stroke-width:0.264583px;stroke-linecap:butt;stroke-linejoin:miter;stroke-opacity:1"
       d="m 112.65869,173.71985 c 0,0 0,10.15427 0,10.15427"
       id="path2267-3-7-5" />
  </g>
</svg>
