<?xml version="1.0" encoding="UTF-8" standalone="no"?>
<!-- Created with Inkscape (http://www.inkscape.org/) -->

<svg
   sodipodi:docname="figure22_8.svg"
   id="svg5"
   version="1.1"
   viewBox="0 0 210 297"
   height="297mm"
   width="210mm"
   inkscape:version="1.2 (dc2aedaf03, 2022-05-15)"
   xmlns:inkscape="http://www.inkscape.org/namespaces/inkscape"
   xmlns:sodipodi="http://sodipodi.sourceforge.net/DTD/sodipodi-0.dtd"
   xmlns="http://www.w3.org/2000/svg"
   xmlns:svg="http://www.w3.org/2000/svg">
  <sodipodi:namedview
     id="namedview7"
     pagecolor="#ffffff"
     bordercolor="#cccccc"
     borderopacity="1"
     inkscape:showpageshadow="0"
     inkscape:pageopacity="1"
     inkscape:pagecheckerboard="0"
     inkscape:deskcolor="#d1d1d1"
     inkscape:document-units="mm"
     showgrid="false"
     showguides="true"
     inkscape:zoom="4.0866845"
     inkscape:cx="416.35218"
     inkscape:cy="653.21901"
     inkscape:window-width="1888"
     inkscape:window-height="1008"
     inkscape:window-x="13"
     inkscape:window-y="53"
     inkscape:window-maximized="1"
     inkscape:current-layer="layer1" />
  <defs
     id="defs2">
    <marker
       style="overflow:visible"
       id="marker1458"
       refX="0"
       refY="0"
       orient="auto-start-reverse"
       inkscape:stockid="Arrow5"
       markerWidth="5.8874264"
       markerHeight="6.6094756"
       viewBox="0 0 5.8874262 6.6094758"
       inkscape:isstock="true"
       inkscape:collect="always"
       preserveAspectRatio="xMidYMid">
      <path
         transform="scale(0.5)"
         style="fill:context-stroke;fill-rule:evenodd;stroke:context-stroke;stroke-width:1pt"
         d="m 6,0 c -3,1 -7,3 -9,5 0,0 0,-4 2,-5 -2,-1 -2,-5 -2,-5 2,2 6,4 9,5 z"
         id="path1456" />
    </marker>
    <marker
       style="overflow:visible"
       id="Arrow5"
       refX="0"
       refY="0"
       orient="auto-start-reverse"
       inkscape:stockid="Arrow5"
       markerWidth="5.8874264"
       markerHeight="6.6094756"
       viewBox="0 0 5.8874262 6.6094758"
       inkscape:isstock="true"
       inkscape:collect="always"
       preserveAspectRatio="xMidYMid">
      <path
         transform="scale(0.5)"
         style="fill:context-stroke;fill-rule:evenodd;stroke:context-stroke;stroke-width:1pt"
         d="m 6,0 c -3,1 -7,3 -9,5 0,0 0,-4 2,-5 -2,-1 -2,-5 -2,-5 2,2 6,4 9,5 z"
         id="path8893" />
    </marker>
    <clipPath
       id="clip-0">
      <path
         clip-rule="nonzero"
         d="m 22,4 h 5.890625 V 7.304688 H 22 Z m 0,0"
         id="path19" />
    </clipPath>
    <clipPath
       id="clipPath3911">
      <path
         clip-rule="nonzero"
         d="M 0,0 H 13.867188 V 6.808594 H 0 Z m 0,0"
         id="path11" />
    </clipPath>
    <clipPath
       id="clipPath4052">
      <path
         clip-rule="nonzero"
         d="M 0,0 H 4 V 9.964844 H 0 Z m 0,0"
         id="path28" />
    </clipPath>
    <clipPath
       id="clip-1">
      <path
         clip-rule="nonzero"
         d="m 22,2 h 7 v 7.964844 h -7 z m 0,0"
         id="path31" />
    </clipPath>
    <clipPath
       id="clip-2">
      <path
         clip-rule="nonzero"
         d="m 54,0 h 3 v 9.964844 h -3 z m 0,0"
         id="path34" />
    </clipPath>
    <clipPath
       id="clipPath4299">
      <path
         clip-rule="nonzero"
         d="M 0,0 H 4 V 9.964844 H 0 Z m 0,0"
         id="path4297" />
    </clipPath>
    <clipPath
       id="clipPath4303">
      <path
         clip-rule="nonzero"
         d="m 22,2 h 7 v 7.964844 h -7 z m 0,0"
         id="path4301" />
    </clipPath>
    <clipPath
       id="clipPath4307">
      <path
         clip-rule="nonzero"
         d="m 54,0 h 3 v 9.964844 h -3 z m 0,0"
         id="path4305" />
    </clipPath>
    <clipPath
       id="clipPath4619">
      <path
         clip-rule="nonzero"
         d="M 0,0 H 4 V 8.964844 H 0 Z m 0,0"
         id="path4617" />
    </clipPath>
    <clipPath
       id="clipPath4623">
      <path
         clip-rule="nonzero"
         d="m 20,2 h 7 v 6.964844 h -7 z m 0,0"
         id="path4621" />
    </clipPath>
    <clipPath
       id="clipPath4627">
      <path
         clip-rule="nonzero"
         d="m 50,0 h 3 v 8.964844 h -3 z m 0,0"
         id="path4625" />
    </clipPath>
    <clipPath
       id="clipPath4951">
      <path
         clip-rule="nonzero"
         d="M 1,0 H 4 V 11.953125 H 1 Z m 0,0"
         id="path4949" />
    </clipPath>
    <clipPath
       id="clipPath4955">
      <path
         clip-rule="nonzero"
         d="m 26,3 h 8 v 8.953125 h -8 z m 0,0"
         id="path4953" />
    </clipPath>
    <clipPath
       id="clipPath4959">
      <path
         clip-rule="nonzero"
         d="m 64,0 h 4 v 11.953125 h -4 z m 0,0"
         id="path4957" />
    </clipPath>
    <clipPath
       id="clipPath5658">
      <path
         clip-rule="nonzero"
         d="M 0,0 H 7.886719 V 6.808594 H 0 Z m 0,0"
         id="path8" />
    </clipPath>
    <clipPath
       id="clipPath5928">
      <path
         clip-rule="nonzero"
         d="M 0,0 H 7.886719 V 6.808594 H 0 Z m 0,0"
         id="path5926" />
    </clipPath>
    <clipPath
       id="clipPath6521">
      <path
         clip-rule="nonzero"
         d="m 8,0 h 8 V 7.25 H 8 Z m 0,0"
         id="path15" />
    </clipPath>
    <clipPath
       id="clipPath6853">
      <path
         clip-rule="nonzero"
         d="m 8,0 h 8 V 7.25 H 8 Z m 0,0"
         id="path6851" />
    </clipPath>
    <clipPath
       id="clipPath7200">
      <path
         clip-rule="nonzero"
         d="M 0,0 H 7.75 V 6.640625 H 0 Z m 0,0"
         id="path7198" />
    </clipPath>
    <clipPath
       id="clipPath7552">
      <path
         clip-rule="nonzero"
         d="M 0,0 H 7.75 V 6.640625 H 0 Z m 0,0"
         id="path7550" />
    </clipPath>
  </defs>
  <g
     inkscape:groupmode="layer"
     id="layer2"
     inkscape:label="Layer 2" />
  <g
     inkscape:label="Layer 1"
     inkscape:groupmode="layer"
     id="layer1">
    <rect
       style="fill:#d40000;fill-opacity:0.75;stroke:none;stroke-width:0.447101;stroke-dasharray:none;stroke-dashoffset:0;stroke-opacity:0.75"
       id="rect1852"
       width="16.013519"
       height="95.551064"
       x="97.699356"
       y="93.004204" />
    <path
       style="fill:#d40000;fill-opacity:0.75;stroke:#000000;stroke-width:0.447101;stroke-dasharray:none;stroke-dashoffset:0;stroke-opacity:0.99866"
       d="m 97.699345,93.0042 v 42.9274"
       id="path3245" />
    <path
       style="fill:#d40000;fill-opacity:0.75;stroke:#000000;stroke-width:0.447101;stroke-dasharray:none;stroke-dashoffset:0;stroke-opacity:0.99866"
       d="m 97.699345,150.50881 v 38.04645"
       id="path3247" />
    <path
       style="fill:#d40000;fill-opacity:0.75;stroke:#000000;stroke-width:0.447101;stroke-dasharray:none;stroke-dashoffset:0;stroke-opacity:0.99866"
       d="M 113.71286,188.55526 V 150.50881"
       id="path3249" />
    <path
       style="fill:#d40000;fill-opacity:0.75;stroke:#000000;stroke-width:0.447101;stroke-dasharray:none;stroke-dashoffset:0;stroke-opacity:0.99866"
       d="m 113.48931,135.9316 0.22355,-42.9274"
       id="path3251" />
    <path
       style="fill:#d40000;fill-opacity:0.75;stroke:#000000;stroke-width:0.447101;stroke-dasharray:none;stroke-dashoffset:0;stroke-opacity:0.99866"
       d="m 97.699345,135.9316 16.013515,14.57721"
       id="path3253" />
    <path
       style="fill:#d40000;fill-opacity:0.75;stroke:#000000;stroke-width:0.447101;stroke-dasharray:none;stroke-dashoffset:0;stroke-opacity:0.99866"
       d="M 113.48931,135.9316 97.699345,150.50881"
       id="path3255" />
    <path
       style="fill:#d40000;fill-opacity:0.75;stroke:#000000;stroke-width:0.447101;stroke-dasharray:none;stroke-dashoffset:0;stroke-opacity:0.99866"
       d="m 105.70611,93.0042 v 95.55106"
       id="path3355" />
    <path
       style="fill:#d40000;fill-opacity:0.75;stroke:#000000;stroke-width:0.447101;stroke-dasharray:2.6826, 2.6826;stroke-dashoffset:0;stroke-opacity:0.99866"
       d="m 162.31524,107.74672 v 42.9274"
       id="path3245-5" />
    <path
       style="fill:#d40000;fill-opacity:0.75;stroke:#000000;stroke-width:0.447101;stroke-dasharray:2.6826, 2.6826;stroke-dashoffset:0;stroke-opacity:0.99866"
       d="m 162.31524,165.25134 v 38.04645"
       id="path3247-5" />
    <path
       style="fill:#d40000;fill-opacity:0.75;stroke:#000000;stroke-width:0.447101;stroke-dasharray:2.6826, 2.6826;stroke-dashoffset:0;stroke-opacity:0.99866"
       d="M 178.32874,203.29779 V 165.25134"
       id="path3249-4" />
    <path
       style="fill:#d40000;fill-opacity:0.75;stroke:#000000;stroke-width:0.447101;stroke-dasharray:2.6826, 2.6826;stroke-dashoffset:0;stroke-opacity:0.99866"
       d="m 178.10519,150.67412 0.22355,-42.9274"
       id="path3251-7" />
    <path
       style="fill:#d40000;fill-opacity:0.75;stroke:#000000;stroke-width:0.447101;stroke-dasharray:2.6826, 2.6826;stroke-dashoffset:0;stroke-opacity:0.99866"
       d="m 162.31524,150.67412 16.0135,14.57722"
       id="path3253-6" />
    <path
       style="fill:#d40000;fill-opacity:0.75;stroke:#000000;stroke-width:0.447101;stroke-dasharray:2.6826, 2.6826;stroke-dashoffset:0;stroke-opacity:0.99866"
       d="m 178.10519,150.67412 -15.78995,14.57722"
       id="path3255-5" />
    <path
       style="fill:#d40000;fill-opacity:0.75;stroke:#000000;stroke-width:0.447101;stroke-dasharray:2.6826, 2.6826;stroke-dashoffset:0;stroke-opacity:0.99866"
       d="m 170.322,107.74672 v 95.55107"
       id="path3355-6" />
    <path
       style="fill:#d40000;fill-opacity:0.75;stroke:#000000;stroke-width:0.447101;stroke-dasharray:2.6826, 2.6826;stroke-dashoffset:0;stroke-opacity:0.99866"
       d="M 35.040102,95.444654 V 138.37206"
       id="path3245-3" />
    <path
       style="fill:#d40000;fill-opacity:0.75;stroke:#000000;stroke-width:0.447101;stroke-dasharray:2.6826, 2.6826;stroke-dashoffset:0;stroke-opacity:0.99866"
       d="m 35.040102,152.94927 v 38.04645"
       id="path3247-7" />
    <path
       style="fill:#d40000;fill-opacity:0.75;stroke:#000000;stroke-width:0.447101;stroke-dasharray:2.6826, 2.6826;stroke-dashoffset:0;stroke-opacity:0.99866"
       d="M 51.05362,190.99572 V 152.94927"
       id="path3249-45" />
    <path
       style="fill:#d40000;fill-opacity:0.75;stroke:#000000;stroke-width:0.447101;stroke-dasharray:2.6826, 2.6826;stroke-dashoffset:0;stroke-opacity:0.99866"
       d="M 50.830067,138.37206 51.05362,95.444654"
       id="path3251-2" />
    <path
       style="fill:#d40000;fill-opacity:0.75;stroke:#000000;stroke-width:0.447101;stroke-dasharray:2.6826, 2.6826;stroke-dashoffset:0;stroke-opacity:0.99866"
       d="M 35.040102,138.37206 51.05362,152.94927"
       id="path3253-5" />
    <path
       style="fill:#d40000;fill-opacity:0.75;stroke:#000000;stroke-width:0.447101;stroke-dasharray:2.6826, 2.6826;stroke-dashoffset:0;stroke-opacity:0.99866"
       d="M 50.830067,138.37206 35.040102,152.94927"
       id="path3255-4" />
    <path
       style="fill:#d40000;fill-opacity:0.75;stroke:#000000;stroke-width:0.447101;stroke-dasharray:2.6826, 2.6826;stroke-dashoffset:0;stroke-opacity:0.99866"
       d="M 43.046864,95.444654 V 190.99572"
       id="path3355-7" />
    <path
       style="fill:#d40000;fill-opacity:0.75;stroke:#000000;stroke-width:0.447101;stroke-dasharray:none;stroke-dashoffset:0;stroke-opacity:0.99866"
       d="M 22.289679,98.516535 V 193.47525"
       id="path3459" />
    <path
       style="fill:#d40000;fill-opacity:0.75;stroke:#000000;stroke-width:0.447101;stroke-dasharray:none;stroke-dashoffset:0;stroke-opacity:0.99866"
       d="M 17.675949,176.47428 H 188.78701"
       id="path3461" />
    <rect
       style="fill:none;fill-opacity:0.75;stroke:#000000;stroke-width:0.447101;stroke-dasharray:2.6826, 2.6826;stroke-dashoffset:0;stroke-opacity:0.99866"
       id="rect3515"
       width="10.074232"
       height="19.285801"
       x="100.5216"
       y="134.32657" />
    <path
       style="fill:none;fill-opacity:0.75;stroke:#000000;stroke-width:0.447101;stroke-dasharray:none;stroke-dashoffset:0;stroke-opacity:0.99866;marker-start:url(#Arrow5)"
       d="m 110.59583,143.96947 c 9.56855,1.44004 14.16999,2.9581 16.03244,7.53395"
       id="path3623"
       sodipodi:nodetypes="cc" />
    <circle
       style="fill:#000000;fill-opacity:1;stroke:none;stroke-width:0.15099;stroke-dasharray:none;stroke-dashoffset:0;stroke-opacity:0.99866"
       id="path3705"
       cx="42.823315"
       cy="176.25073"
       r="2.4552741" />
    <circle
       style="fill:#000000;fill-opacity:1;stroke:none;stroke-width:0.15099;stroke-dasharray:none;stroke-dashoffset:0;stroke-opacity:0.99866"
       id="path3705-4"
       cx="105.70611"
       cy="176.4743"
       r="2.4552741" />
    <circle
       style="fill:#000000;fill-opacity:1;stroke:none;stroke-width:0.15099;stroke-dasharray:none;stroke-dashoffset:0;stroke-opacity:0.99866"
       id="path3705-43"
       cx="170.32198"
       cy="176.25073"
       r="2.4552741" />
    <g
       inkscape:label=""
       transform="translate(55.4898, 143.684)"
       id="g3964">
      <g
         clip-path="url(#clip-0)"
         id="g22"
         transform="matrix(0.352778 0 0 0.352778 -0.104731 0.00158747)">
        <g
           fill="#000000"
           fill-opacity="1"
           id="g20">
          <g
             id="use16"
             transform="translate(0,6.8080001)">
            <path
               d="m 0.875,-0.59375 c -0.03125,0.15625 -0.09375,0.390625 -0.09375,0.4375 0,0.171875 0.140625,0.265625 0.296875,0.265625 0.125,0 0.296875,-0.078125 0.375,-0.28125 0,-0.015625 0.125,-0.484375 0.1875,-0.734375 l 0.21875,-0.890625 C 1.90625,-2.03125 1.96875,-2.25 2.03125,-2.46875 c 0.03125,-0.171875 0.109375,-0.46875 0.125,-0.5 0.140625,-0.3125 0.671875,-1.21875 1.625,-1.21875 0.453125,0 0.53125,0.375 0.53125,0.703125 0,0.609375 -0.484375,1.890625 -0.640625,2.3125 C 3.578125,-0.9375 3.5625,-0.8125 3.5625,-0.703125 c 0,0.46875 0.359375,0.8125 0.828125,0.8125 0.9375,0 1.296875,-1.453125 1.296875,-1.53125 0,-0.109375 -0.078125,-0.109375 -0.109375,-0.109375 -0.109375,0 -0.109375,0.03125 -0.15625,0.1875 -0.203125,0.671875 -0.53125,1.234375 -1.015625,1.234375 -0.171875,0 -0.234375,-0.09375 -0.234375,-0.328125 0,-0.25 0.078125,-0.484375 0.171875,-0.703125 0.1875,-0.53125 0.609375,-1.625 0.609375,-2.203125 0,-0.65625 -0.421875,-1.0625 -1.140625,-1.0625 -0.90625,0 -1.390625,0.640625 -1.5625,0.875 -0.046875,-0.5625 -0.453125,-0.875 -0.921875,-0.875 -0.453125,0 -0.640625,0.390625 -0.734375,0.5625 C 0.421875,-3.5 0.296875,-2.90625 0.296875,-2.875 c 0,0.109375 0.09375,0.109375 0.109375,0.109375 0.109375,0 0.109375,-0.015625 0.171875,-0.234375 0.171875,-0.703125 0.375,-1.1875 0.734375,-1.1875 0.1875,0 0.296875,0.125 0.296875,0.453125 0,0.21875 -0.03125,0.328125 -0.15625,0.84375 z m 0,0"
               id="path4103" />
          </g>
          <g
             id="use18"
             transform="translate(5.9795532,6.8080001)">
            <path
               d="M 6.328125,-5.765625 C 6.4375,-6.171875 6.609375,-6.46875 7.40625,-6.5 c 0.046875,0 0.171875,-0.015625 0.171875,-0.203125 0,0 0,-0.109375 -0.125,-0.109375 -0.328125,0 -0.6875,0.03125 -1.015625,0.03125 -0.34375,0 -0.71875,-0.03125 -1.046875,-0.03125 -0.0625,0 -0.171875,0 -0.171875,0.203125 C 5.21875,-6.5 5.3125,-6.5 5.390625,-6.5 c 0.578125,0.015625 0.6875,0.21875 0.6875,0.4375 0,0.03125 -0.03125,0.1875 -0.03125,0.203125 l -0.90625,3.5625 C 4.8125,-0.953125 3.65625,-0.09375 2.65625,-0.09375 c -0.671875,0 -1.203125,-0.4375 -1.203125,-1.296875 0,-0.015625 0,-0.328125 0.109375,-0.765625 L 2.515625,-6.046875 C 2.609375,-6.40625 2.625,-6.5 3.359375,-6.5 c 0.265625,0 0.34375,0 0.34375,-0.203125 0,-0.109375 -0.109375,-0.109375 -0.140625,-0.109375 -0.28125,0 -1,0.03125 -1.28125,0.03125 -0.28125,0 -1,-0.03125 -1.28125,-0.03125 -0.078125,0 -0.1875,0 -0.1875,0.203125 C 0.8125,-6.5 0.890625,-6.5 1.09375,-6.5 c 0.015625,0 0.203125,0 0.375,0.015625 0.171875,0.03125 0.265625,0.03125 0.265625,0.171875 0,0.046875 -0.109375,0.46875 -0.171875,0.703125 l -0.21875,0.875 C 1.25,-4.34375 0.78125,-2.46875 0.734375,-2.265625 0.671875,-2 0.671875,-1.84375 0.671875,-1.6875 c 0,1.203125 0.90625,1.90625 1.953125,1.90625 1.25,0 2.484375,-1.125 2.8125,-2.4375 z m 0,0"
               id="path32" />
          </g>
        </g>
      </g>
    </g>
    <g
       inkscape:label=""
       transform="translate(55.4898, 143.684)"
       id="g5750">
      <g
         clip-path="url(#clip-0)"
         id="g17"
         transform="matrix(0.352778 0 0 0.352778 -0.237023 0.00158747)">
        <g
           fill="#000000"
           fill-opacity="1"
           id="g15">
          <g
             id="use13"
             transform="translate(0,6.8080001)">
            <path
               d="M 6.328125,-5.765625 C 6.4375,-6.171875 6.609375,-6.46875 7.40625,-6.5 c 0.046875,0 0.171875,-0.015625 0.171875,-0.203125 0,0 0,-0.109375 -0.125,-0.109375 -0.328125,0 -0.6875,0.03125 -1.015625,0.03125 -0.34375,0 -0.71875,-0.03125 -1.046875,-0.03125 -0.0625,0 -0.171875,0 -0.171875,0.203125 C 5.21875,-6.5 5.3125,-6.5 5.390625,-6.5 c 0.578125,0.015625 0.6875,0.21875 0.6875,0.4375 0,0.03125 -0.03125,0.1875 -0.03125,0.203125 l -0.90625,3.5625 C 4.8125,-0.953125 3.65625,-0.09375 2.65625,-0.09375 c -0.671875,0 -1.203125,-0.4375 -1.203125,-1.296875 0,-0.015625 0,-0.328125 0.109375,-0.765625 L 2.515625,-6.046875 C 2.609375,-6.40625 2.625,-6.5 3.359375,-6.5 c 0.265625,0 0.34375,0 0.34375,-0.203125 0,-0.109375 -0.109375,-0.109375 -0.140625,-0.109375 -0.28125,0 -1,0.03125 -1.28125,0.03125 -0.28125,0 -1,-0.03125 -1.28125,-0.03125 -0.078125,0 -0.1875,0 -0.1875,0.203125 C 0.8125,-6.5 0.890625,-6.5 1.09375,-6.5 c 0.015625,0 0.203125,0 0.375,0.015625 0.171875,0.03125 0.265625,0.03125 0.265625,0.171875 0,0.046875 -0.109375,0.46875 -0.171875,0.703125 l -0.21875,0.875 C 1.25,-4.34375 0.78125,-2.46875 0.734375,-2.265625 0.671875,-2 0.671875,-1.84375 0.671875,-1.6875 c 0,1.203125 0.90625,1.90625 1.953125,1.90625 1.25,0 2.484375,-1.125 2.8125,-2.4375 z m 0,0"
               id="path23" />
          </g>
        </g>
      </g>
    </g>
    <g
       inkscape:label=""
       transform="translate(55.4898, 143.684)"
       id="g6029">
      <g
         clip-path="url(#clip-0)"
         id="g6027"
         transform="matrix(0.352778 0 0 0.352778 -0.237023 0.00158747)">
        <g
           fill="#000000"
           fill-opacity="1"
           id="g6025">
          <g
             id="g6023"
             transform="translate(0,6.8080001)">
            <path
               d="M 6.328125,-5.765625 C 6.4375,-6.171875 6.609375,-6.46875 7.40625,-6.5 c 0.046875,0 0.171875,-0.015625 0.171875,-0.203125 0,0 0,-0.109375 -0.125,-0.109375 -0.328125,0 -0.6875,0.03125 -1.015625,0.03125 -0.34375,0 -0.71875,-0.03125 -1.046875,-0.03125 -0.0625,0 -0.171875,0 -0.171875,0.203125 C 5.21875,-6.5 5.3125,-6.5 5.390625,-6.5 c 0.578125,0.015625 0.6875,0.21875 0.6875,0.4375 0,0.03125 -0.03125,0.1875 -0.03125,0.203125 l -0.90625,3.5625 C 4.8125,-0.953125 3.65625,-0.09375 2.65625,-0.09375 c -0.671875,0 -1.203125,-0.4375 -1.203125,-1.296875 0,-0.015625 0,-0.328125 0.109375,-0.765625 L 2.515625,-6.046875 C 2.609375,-6.40625 2.625,-6.5 3.359375,-6.5 c 0.265625,0 0.34375,0 0.34375,-0.203125 0,-0.109375 -0.109375,-0.109375 -0.140625,-0.109375 -0.28125,0 -1,0.03125 -1.28125,0.03125 -0.28125,0 -1,-0.03125 -1.28125,-0.03125 -0.078125,0 -0.1875,0 -0.1875,0.203125 C 0.8125,-6.5 0.890625,-6.5 1.09375,-6.5 c 0.015625,0 0.203125,0 0.375,0.015625 0.171875,0.03125 0.265625,0.03125 0.265625,0.171875 0,0.046875 -0.109375,0.46875 -0.171875,0.703125 l -0.21875,0.875 C 1.25,-4.34375 0.78125,-2.46875 0.734375,-2.265625 0.671875,-2 0.671875,-1.84375 0.671875,-1.6875 c 0,1.203125 0.90625,1.90625 1.953125,1.90625 1.25,0 2.484375,-1.125 2.8125,-2.4375 z m 0,0"
               id="path6021" />
          </g>
        </g>
      </g>
    </g>
    <g
       inkscape:label=""
       transform="translate(60.987, 149.42)"
       id="g7327">
      <g
         clip-path="url(#clip-0)"
         id="g7325"
         transform="matrix(0.352778 0 0 0.352778 -0.198437 0.00017646)">
        <g
           fill="#000000"
           fill-opacity="1"
           id="g7323">
          <g
             id="g7321"
             transform="translate(0,5.8119998)">
            <path
               d="m 4.078125,-2.296875 h 2.78125 C 7,-2.296875 7.1875,-2.296875 7.1875,-2.5 7.1875,-2.6875 7,-2.6875 6.859375,-2.6875 h -2.78125 v -2.796875 c 0,-0.140625 0,-0.328125 -0.203125,-0.328125 -0.203125,0 -0.203125,0.1875 -0.203125,0.328125 V -2.6875 h -2.78125 c -0.140625,0 -0.328125,0 -0.328125,0.1875 0,0.203125 0.1875,0.203125 0.328125,0.203125 h 2.78125 V 0.5 c 0,0.140625 0,0.328125 0.203125,0.328125 0.203125,0 0.203125,-0.1875 0.203125,-0.328125 z m 0,0"
               id="path7319" />
          </g>
        </g>
      </g>
    </g>
    <g
       inkscape:label=""
       transform="translate(60.987, 149.42)"
       id="g7684">
      <g
         clip-path="url(#clip-0)"
         id="g7682"
         transform="matrix(0.352778 0 0 0.352778 -0.198437 0.00017646)">
        <g
           fill="#000000"
           fill-opacity="1"
           id="g7680">
          <g
             id="g7678"
             transform="translate(0,5.8119998)">
            <path
               d="m 4.078125,-2.296875 h 2.78125 C 7,-2.296875 7.1875,-2.296875 7.1875,-2.5 7.1875,-2.6875 7,-2.6875 6.859375,-2.6875 h -2.78125 v -2.796875 c 0,-0.140625 0,-0.328125 -0.203125,-0.328125 -0.203125,0 -0.203125,0.1875 -0.203125,0.328125 V -2.6875 h -2.78125 c -0.140625,0 -0.328125,0 -0.328125,0.1875 0,0.203125 0.1875,0.203125 0.328125,0.203125 h 2.78125 V 0.5 c 0,0.140625 0,0.328125 0.203125,0.328125 0.203125,0 0.203125,-0.1875 0.203125,-0.328125 z m 0,0"
               id="path7676" />
          </g>
        </g>
      </g>
    </g>
    <g
       inkscape:label=""
       transform="matrix(1.6871793,0,0,1.6871793,109.27016,86.446606)"
       id="g9744">
      <g
         fill="#000000"
         fill-opacity="1"
         id="g16"
         transform="matrix(0.352778,0,0,0.352778,-32.6661,-26.5114)">
        <g
           id="use14"
           transform="translate(91.925003,81.962997)">
          <path
             d="M 6.328125,-5.765625 C 6.4375,-6.171875 6.609375,-6.46875 7.40625,-6.5 c 0.046875,0 0.171875,-0.015625 0.171875,-0.203125 0,0 0,-0.109375 -0.125,-0.109375 -0.328125,0 -0.6875,0.03125 -1.015625,0.03125 -0.34375,0 -0.71875,-0.03125 -1.046875,-0.03125 -0.0625,0 -0.171875,0 -0.171875,0.203125 C 5.21875,-6.5 5.3125,-6.5 5.390625,-6.5 c 0.578125,0.015625 0.6875,0.21875 0.6875,0.4375 0,0.03125 -0.03125,0.1875 -0.03125,0.203125 l -0.90625,3.5625 C 4.8125,-0.953125 3.65625,-0.09375 2.65625,-0.09375 c -0.671875,0 -1.203125,-0.4375 -1.203125,-1.296875 0,-0.015625 0,-0.328125 0.109375,-0.765625 L 2.515625,-6.046875 C 2.609375,-6.40625 2.625,-6.5 3.359375,-6.5 c 0.265625,0 0.34375,0 0.34375,-0.203125 0,-0.109375 -0.109375,-0.109375 -0.140625,-0.109375 -0.28125,0 -1,0.03125 -1.28125,0.03125 -0.28125,0 -1,-0.03125 -1.28125,-0.03125 -0.078125,0 -0.1875,0 -0.1875,0.203125 C 0.8125,-6.5 0.890625,-6.5 1.09375,-6.5 c 0.015625,0 0.203125,0 0.375,0.015625 0.171875,0.03125 0.265625,0.03125 0.265625,0.171875 0,0.046875 -0.109375,0.46875 -0.171875,0.703125 l -0.21875,0.875 C 1.25,-4.34375 0.78125,-2.46875 0.734375,-2.265625 0.671875,-2 0.671875,-1.84375 0.671875,-1.6875 c 0,1.203125 0.90625,1.90625 1.953125,1.90625 1.25,0 2.484375,-1.125 2.8125,-2.4375 z m 0,0"
             id="path26" />
        </g>
      </g>
      <g
         fill="#000000"
         fill-opacity="1"
         id="g9742"
         transform="matrix(0.352778,0,0,0.352778,-32.6661,-26.5114)">
        <g
           id="g9740"
           transform="translate(98.727997,83.457001)">
          <path
             d="m 0.84375,-0.4375 c -0.015625,0.09375 -0.0625,0.265625 -0.0625,0.28125 0,0.15625 0.125,0.21875 0.234375,0.21875 0.125,0 0.234375,-0.078125 0.28125,-0.140625 0.03125,-0.0625 0.078125,-0.296875 0.125,-0.4375 0.03125,-0.125 0.109375,-0.453125 0.140625,-0.625 0.046875,-0.15625 0.09375,-0.3125 0.125,-0.46875 0.078125,-0.28125 0.09375,-0.34375 0.296875,-0.625 C 2.171875,-2.515625 2.5,-2.875 3.03125,-2.875 c 0.390625,0 0.40625,0.359375 0.40625,0.484375 0,0.421875 -0.296875,1.1875 -0.40625,1.484375 -0.078125,0.203125 -0.109375,0.265625 -0.109375,0.375 0,0.375 0.296875,0.59375 0.65625,0.59375 0.703125,0 1,-0.953125 1,-1.0625 0,-0.09375 -0.078125,-0.09375 -0.109375,-0.09375 -0.09375,0 -0.09375,0.046875 -0.125,0.125 C 4.1875,-0.40625 3.875,-0.125 3.609375,-0.125 c -0.15625,0 -0.1875,-0.09375 -0.1875,-0.25 0,-0.15625 0.046875,-0.25 0.171875,-0.5625 0.078125,-0.21875 0.359375,-0.953125 0.359375,-1.34375 0,-0.671875 -0.53125,-0.796875 -0.90625,-0.796875 -0.578125,0 -0.96875,0.359375 -1.171875,0.640625 -0.046875,-0.484375 -0.453125,-0.640625 -0.75,-0.640625 -0.296875,0 -0.453125,0.21875 -0.546875,0.375 -0.15625,0.265625 -0.25,0.65625 -0.25,0.703125 0,0.078125 0.09375,0.078125 0.125,0.078125 0.09375,0 0.09375,-0.015625 0.140625,-0.203125 0.109375,-0.40625 0.25,-0.75 0.515625,-0.75 0.1875,0 0.234375,0.15625 0.234375,0.34375 0,0.125 -0.0625,0.390625 -0.125,0.578125 -0.046875,0.1875 -0.109375,0.46875 -0.140625,0.625 z m 0,0"
             id="path30" />
        </g>
      </g>
    </g>
    <g
       inkscape:label=""
       transform="matrix(1.6871793,0,0,1.6871793,88.284026,190.05756)"
       id="g10102">
      <g
         fill="#000000"
         fill-opacity="1"
         id="g32"
         transform="matrix(0.352778,0,0,0.352778,-32.7764,-26.2744)">
        <g
           id="use30"
           transform="translate(91.925003,81.962997)">
          <path
             d="m 3.296875,2.390625 c 0,-0.03125 0,-0.046875 -0.171875,-0.21875 C 1.890625,0.921875 1.5625,-0.96875 1.5625,-2.5 c 0,-1.734375 0.375,-3.46875 1.609375,-4.703125 0.125,-0.125 0.125,-0.140625 0.125,-0.171875 0,-0.078125 -0.03125,-0.109375 -0.09375,-0.109375 -0.109375,0 -1,0.6875 -1.59375,1.953125 -0.5,1.09375 -0.625,2.203125 -0.625,3.03125 0,0.78125 0.109375,1.984375 0.65625,3.125 C 2.25,1.84375 3.09375,2.5 3.203125,2.5 c 0.0625,0 0.09375,-0.03125 0.09375,-0.109375 z m 0,0"
             id="path68" />
        </g>
      </g>
      <g
         fill="#000000"
         fill-opacity="1"
         id="g36"
         transform="matrix(0.352778,0,0,0.352778,-32.7764,-26.2744)">
        <g
           id="use34"
           transform="translate(95.800003,81.962997)">
          <path
             d="m 0.875,-0.59375 c -0.03125,0.15625 -0.09375,0.390625 -0.09375,0.4375 0,0.171875 0.140625,0.265625 0.296875,0.265625 0.125,0 0.296875,-0.078125 0.375,-0.28125 0,-0.015625 0.125,-0.484375 0.1875,-0.734375 l 0.21875,-0.890625 C 1.90625,-2.03125 1.96875,-2.25 2.03125,-2.46875 c 0.03125,-0.171875 0.109375,-0.46875 0.125,-0.5 0.140625,-0.3125 0.671875,-1.21875 1.625,-1.21875 0.453125,0 0.53125,0.375 0.53125,0.703125 0,0.609375 -0.484375,1.890625 -0.640625,2.3125 C 3.578125,-0.9375 3.5625,-0.8125 3.5625,-0.703125 c 0,0.46875 0.359375,0.8125 0.828125,0.8125 0.9375,0 1.296875,-1.453125 1.296875,-1.53125 0,-0.109375 -0.078125,-0.109375 -0.109375,-0.109375 -0.109375,0 -0.109375,0.03125 -0.15625,0.1875 -0.203125,0.671875 -0.53125,1.234375 -1.015625,1.234375 -0.171875,0 -0.234375,-0.09375 -0.234375,-0.328125 0,-0.25 0.078125,-0.484375 0.171875,-0.703125 0.1875,-0.53125 0.609375,-1.625 0.609375,-2.203125 0,-0.65625 -0.421875,-1.0625 -1.140625,-1.0625 -0.90625,0 -1.390625,0.640625 -1.5625,0.875 -0.046875,-0.5625 -0.453125,-0.875 -0.921875,-0.875 -0.453125,0 -0.640625,0.390625 -0.734375,0.5625 C 0.421875,-3.5 0.296875,-2.90625 0.296875,-2.875 c 0,0.109375 0.09375,0.109375 0.109375,0.109375 0.109375,0 0.109375,-0.015625 0.171875,-0.234375 0.171875,-0.703125 0.375,-1.1875 0.734375,-1.1875 0.1875,0 0.296875,0.125 0.296875,0.453125 0,0.21875 -0.03125,0.328125 -0.15625,0.84375 z m 0,0"
             id="path72" />
        </g>
      </g>
      <g
         fill="#000000"
         fill-opacity="1"
         id="g10083"
         transform="matrix(0.352778,0,0,0.352778,-32.7764,-26.2744)">
        <g
           id="use38"
           transform="translate(103.993,81.962997)">
          <path
             d="m 6.5625,-2.296875 c 0.171875,0 0.359375,0 0.359375,-0.203125 0,-0.1875 -0.1875,-0.1875 -0.359375,-0.1875 H 1.171875 c -0.171875,0 -0.34375,0 -0.34375,0.1875 0,0.203125 0.171875,0.203125 0.34375,0.203125 z m 0,0"
             id="path76" />
        </g>
      </g>
      <g
         fill="#000000"
         fill-opacity="1"
         id="g46"
         transform="matrix(0.352778,0,0,0.352778,-32.7764,-26.2744)">
        <g
           id="use42"
           transform="translate(113.956,81.962997)">
          <path
             d="M 1.40625,-2.265625 C 1.734375,-2.125 2.03125,-2.125 2.265625,-2.125 c 0.25,0 0.8125,0 0.8125,-0.3125 0,-0.234375 -0.359375,-0.265625 -0.734375,-0.265625 -0.203125,0 -0.5625,0.015625 -0.921875,0.1875 C 1.1875,-2.625 1.015625,-2.828125 1.015625,-3.09375 c 0,-0.609375 0.984375,-0.96875 1.875,-0.96875 0.15625,0 0.515625,0 0.921875,0.28125 0.109375,0.078125 0.125,0.109375 0.1875,0.109375 0.140625,0 0.28125,-0.140625 0.28125,-0.28125 0,-0.1875 -0.609375,-0.5625 -1.296875,-0.5625 -1.140625,0 -2.21875,0.671875 -2.21875,1.421875 0,0.4375 0.359375,0.6875 0.40625,0.71875 -0.59375,0.328125 -0.90625,0.875 -0.90625,1.34375 0,0.640625 0.5625,1.25 1.625,1.25 1.3125,0 1.875,-0.875 1.875,-1.03125 0,-0.0625 -0.0625,-0.09375 -0.109375,-0.09375 -0.0625,0 -0.09375,0.03125 -0.109375,0.0625 -0.140625,0.234375 -0.375,0.609375 -1.578125,0.609375 -0.609375,0 -1.453125,-0.15625 -1.453125,-0.859375 0,-0.34375 0.28125,-0.875 0.890625,-1.171875 z m 0.328125,-0.125 c 0.234375,-0.078125 0.4375,-0.09375 0.609375,-0.09375 0.25,0 0.28125,0.015625 0.46875,0.0625 -0.15625,0.0625 -0.171875,0.078125 -0.546875,0.078125 -0.21875,0 -0.34375,0 -0.53125,-0.046875 z m 0,0"
             id="path80" />
        </g>
        <g
           id="use44"
           transform="translate(118.60156,81.962997)">
          <path
             d="m 2.03125,-0.015625 c 0,-0.65625 -0.25,-1.046875 -0.640625,-1.046875 -0.328125,0 -0.53125,0.25 -0.53125,0.53125 C 0.859375,-0.265625 1.0625,0 1.390625,0 1.5,0 1.640625,-0.046875 1.734375,-0.125 1.765625,-0.15625 1.78125,-0.15625 1.78125,-0.15625 c 0.015625,0 0.015625,0 0.015625,0.140625 0,0.75 -0.34375,1.34375 -0.671875,1.671875 -0.109375,0.109375 -0.109375,0.125 -0.109375,0.15625 0,0.078125 0.046875,0.109375 0.09375,0.109375 0.109375,0 0.921875,-0.765625 0.921875,-1.9375 z m 0,0"
             id="path84" />
        </g>
      </g>
      <g
         fill="#000000"
         fill-opacity="1"
         id="g50"
         transform="matrix(0.352778,0,0,0.352778,-32.7764,-26.2744)">
        <g
           id="use48"
           transform="translate(123.03293,81.962997)">
          <path
             d="m 0.875,-0.59375 c -0.03125,0.15625 -0.09375,0.390625 -0.09375,0.4375 0,0.171875 0.140625,0.265625 0.296875,0.265625 0.125,0 0.296875,-0.078125 0.375,-0.28125 0,-0.015625 0.125,-0.484375 0.1875,-0.734375 l 0.21875,-0.890625 C 1.90625,-2.03125 1.96875,-2.25 2.03125,-2.46875 c 0.03125,-0.171875 0.109375,-0.46875 0.125,-0.5 0.140625,-0.3125 0.671875,-1.21875 1.625,-1.21875 0.453125,0 0.53125,0.375 0.53125,0.703125 0,0.609375 -0.484375,1.890625 -0.640625,2.3125 C 3.578125,-0.9375 3.5625,-0.8125 3.5625,-0.703125 c 0,0.46875 0.359375,0.8125 0.828125,0.8125 0.9375,0 1.296875,-1.453125 1.296875,-1.53125 0,-0.109375 -0.078125,-0.109375 -0.109375,-0.109375 -0.109375,0 -0.109375,0.03125 -0.15625,0.1875 -0.203125,0.671875 -0.53125,1.234375 -1.015625,1.234375 -0.171875,0 -0.234375,-0.09375 -0.234375,-0.328125 0,-0.25 0.078125,-0.484375 0.171875,-0.703125 0.1875,-0.53125 0.609375,-1.625 0.609375,-2.203125 0,-0.65625 -0.421875,-1.0625 -1.140625,-1.0625 -0.90625,0 -1.390625,0.640625 -1.5625,0.875 -0.046875,-0.5625 -0.453125,-0.875 -0.921875,-0.875 -0.453125,0 -0.640625,0.390625 -0.734375,0.5625 C 0.421875,-3.5 0.296875,-2.90625 0.296875,-2.875 c 0,0.109375 0.09375,0.109375 0.109375,0.109375 0.109375,0 0.109375,-0.015625 0.171875,-0.234375 0.171875,-0.703125 0.375,-1.1875 0.734375,-1.1875 0.1875,0 0.296875,0.125 0.296875,0.453125 0,0.21875 -0.03125,0.328125 -0.15625,0.84375 z m 0,0"
             id="path88" />
        </g>
      </g>
      <g
         fill="#000000"
         fill-opacity="1"
         id="g54"
         transform="matrix(0.352778,0,0,0.352778,-32.7764,-26.2744)">
        <g
           id="use52"
           transform="translate(131.22301,81.962997)">
          <path
             d="m 4.078125,-2.296875 h 2.78125 C 7,-2.296875 7.1875,-2.296875 7.1875,-2.5 7.1875,-2.6875 7,-2.6875 6.859375,-2.6875 h -2.78125 v -2.796875 c 0,-0.140625 0,-0.328125 -0.203125,-0.328125 -0.203125,0 -0.203125,0.1875 -0.203125,0.328125 V -2.6875 h -2.78125 c -0.140625,0 -0.328125,0 -0.328125,0.1875 0,0.203125 0.1875,0.203125 0.328125,0.203125 h 2.78125 V 0.5 c 0,0.140625 0,0.328125 0.203125,0.328125 0.203125,0 0.203125,-0.1875 0.203125,-0.328125 z m 0,0"
             id="path92" />
        </g>
      </g>
      <g
         fill="#000000"
         fill-opacity="1"
         id="g58"
         transform="matrix(0.352778,0,0,0.352778,-32.7764,-26.2744)">
        <g
           id="use56"
           transform="translate(141.186,81.962997)">
          <path
             d="M 1.40625,-2.265625 C 1.734375,-2.125 2.03125,-2.125 2.265625,-2.125 c 0.25,0 0.8125,0 0.8125,-0.3125 0,-0.234375 -0.359375,-0.265625 -0.734375,-0.265625 -0.203125,0 -0.5625,0.015625 -0.921875,0.1875 C 1.1875,-2.625 1.015625,-2.828125 1.015625,-3.09375 c 0,-0.609375 0.984375,-0.96875 1.875,-0.96875 0.15625,0 0.515625,0 0.921875,0.28125 0.109375,0.078125 0.125,0.109375 0.1875,0.109375 0.140625,0 0.28125,-0.140625 0.28125,-0.28125 0,-0.1875 -0.609375,-0.5625 -1.296875,-0.5625 -1.140625,0 -2.21875,0.671875 -2.21875,1.421875 0,0.4375 0.359375,0.6875 0.40625,0.71875 -0.59375,0.328125 -0.90625,0.875 -0.90625,1.34375 0,0.640625 0.5625,1.25 1.625,1.25 1.3125,0 1.875,-0.875 1.875,-1.03125 0,-0.0625 -0.0625,-0.09375 -0.109375,-0.09375 -0.0625,0 -0.09375,0.03125 -0.109375,0.0625 -0.140625,0.234375 -0.375,0.609375 -1.578125,0.609375 -0.609375,0 -1.453125,-0.15625 -1.453125,-0.859375 0,-0.34375 0.28125,-0.875 0.890625,-1.171875 z m 0.328125,-0.125 c 0.234375,-0.078125 0.4375,-0.09375 0.609375,-0.09375 0.25,0 0.28125,0.015625 0.46875,0.0625 -0.15625,0.0625 -0.171875,0.078125 -0.546875,0.078125 -0.21875,0 -0.34375,0 -0.53125,-0.046875 z m 0,0"
             id="path96" />
        </g>
      </g>
      <g
         fill="#000000"
         fill-opacity="1"
         id="g62"
         transform="matrix(0.352778,0,0,0.352778,-32.7764,-26.2744)">
        <g
           id="use60"
           transform="translate(145.832,81.962997)">
          <path
             d="m 2.875,-2.5 c 0,-0.765625 -0.109375,-1.96875 -0.65625,-3.109375 -0.59375,-1.21875 -1.453125,-1.875 -1.546875,-1.875 -0.0625,0 -0.109375,0.046875 -0.109375,0.109375 0,0.03125 0,0.046875 0.1875,0.234375 0.984375,0.984375 1.546875,2.5625 1.546875,4.640625 0,1.71875 -0.359375,3.46875 -1.59375,4.71875 C 0.5625,2.34375 0.5625,2.359375 0.5625,2.390625 0.5625,2.453125 0.609375,2.5 0.671875,2.5 0.765625,2.5 1.671875,1.8125 2.25,0.546875 2.765625,-0.546875 2.875,-1.65625 2.875,-2.5 Z m 0,0"
             id="path100" />
        </g>
      </g>
    </g>
    <g
       inkscape:label=""
       transform="matrix(1.6871793,0,0,1.6871793,123.05521,152.61585)"
       id="g10423">
      <g
         fill="#000000"
         fill-opacity="1"
         id="g23"
         transform="matrix(0.352778,0,0,0.352778,-32.5338,-27.1894)">
        <g
           id="use21"
           transform="translate(91.925003,81.962997)">
          <path
             d="m 0.875,-0.59375 c -0.03125,0.15625 -0.09375,0.390625 -0.09375,0.4375 0,0.171875 0.140625,0.265625 0.296875,0.265625 0.125,0 0.296875,-0.078125 0.375,-0.28125 0,-0.015625 0.125,-0.484375 0.1875,-0.734375 l 0.21875,-0.890625 C 1.90625,-2.03125 1.96875,-2.25 2.03125,-2.46875 c 0.03125,-0.171875 0.109375,-0.46875 0.125,-0.5 0.140625,-0.3125 0.671875,-1.21875 1.625,-1.21875 0.453125,0 0.53125,0.375 0.53125,0.703125 0,0.609375 -0.484375,1.890625 -0.640625,2.3125 C 3.578125,-0.9375 3.5625,-0.8125 3.5625,-0.703125 c 0,0.46875 0.359375,0.8125 0.828125,0.8125 0.9375,0 1.296875,-1.453125 1.296875,-1.53125 0,-0.109375 -0.078125,-0.109375 -0.109375,-0.109375 -0.109375,0 -0.109375,0.03125 -0.15625,0.1875 -0.203125,0.671875 -0.53125,1.234375 -1.015625,1.234375 -0.171875,0 -0.234375,-0.09375 -0.234375,-0.328125 0,-0.25 0.078125,-0.484375 0.171875,-0.703125 0.1875,-0.53125 0.609375,-1.625 0.609375,-2.203125 0,-0.65625 -0.421875,-1.0625 -1.140625,-1.0625 -0.90625,0 -1.390625,0.640625 -1.5625,0.875 -0.046875,-0.5625 -0.453125,-0.875 -0.921875,-0.875 -0.453125,0 -0.640625,0.390625 -0.734375,0.5625 C 0.421875,-3.5 0.296875,-2.90625 0.296875,-2.875 c 0,0.109375 0.09375,0.109375 0.109375,0.109375 0.109375,0 0.109375,-0.015625 0.171875,-0.234375 0.171875,-0.703125 0.375,-1.1875 0.734375,-1.1875 0.1875,0 0.296875,0.125 0.296875,0.453125 0,0.21875 -0.03125,0.328125 -0.15625,0.84375 z m 0,0"
             id="path41" />
        </g>
      </g>
      <g
         fill="#000000"
         fill-opacity="1"
         id="g27"
         transform="matrix(0.352778,0,0,0.352778,-32.5338,-27.1894)">
        <g
           id="use25"
           transform="translate(100.119,81.962997)">
          <path
             d="M 3.875,-2.765625 1.890625,-4.75 C 1.765625,-4.875 1.75,-4.890625 1.671875,-4.890625 1.5625,-4.890625 1.46875,-4.8125 1.46875,-4.6875 c 0,0.0625 0.015625,0.078125 0.125,0.1875 l 2,2 -2,2.015625 c -0.109375,0.109375 -0.125,0.125 -0.125,0.1875 0,0.125 0.09375,0.203125 0.203125,0.203125 0.078125,0 0.09375,-0.015625 0.21875,-0.140625 L 3.875,-2.21875 l 2.0625,2.0625 c 0.015625,0.015625 0.078125,0.0625 0.140625,0.0625 0.125,0 0.203125,-0.078125 0.203125,-0.203125 0,-0.015625 0,-0.046875 -0.03125,-0.109375 C 6.234375,-0.421875 4.65625,-1.984375 4.15625,-2.5 l 1.828125,-1.8125 c 0.046875,-0.0625 0.203125,-0.1875 0.25,-0.25 0,-0.015625 0.046875,-0.0625 0.046875,-0.125 0,-0.125 -0.078125,-0.203125 -0.203125,-0.203125 C 6,-4.890625 5.96875,-4.859375 5.859375,-4.75 Z m 0,0"
             id="path45" />
        </g>
      </g>
      <g
         fill="#000000"
         fill-opacity="1"
         id="g31"
         transform="matrix(0.352778,0,0,0.352778,-32.5338,-27.1894)">
        <g
           id="use29"
           transform="translate(110.082,81.962997)">
          <path
             d="m 3.953125,-3.78125 c -0.171875,0 -0.296875,0 -0.4375,0.125 -0.171875,0.15625 -0.1875,0.328125 -0.1875,0.390625 0,0.25 0.1875,0.359375 0.375,0.359375 0.28125,0 0.546875,-0.25 0.546875,-0.640625 0,-0.484375 -0.46875,-0.859375 -1.171875,-0.859375 -1.34375,0 -2.671875,1.421875 -2.671875,2.828125 0,0.90625 0.578125,1.6875 1.625,1.6875 1.421875,0 2.25,-1.0625 2.25,-1.171875 0,-0.0625 -0.046875,-0.140625 -0.109375,-0.140625 -0.0625,0 -0.078125,0.03125 -0.140625,0.109375 -0.78125,0.984375 -1.875,0.984375 -1.984375,0.984375 -0.625,0 -0.90625,-0.484375 -0.90625,-1.09375 0,-0.40625 0.203125,-1.375 0.546875,-1.984375 0.3125,-0.578125 0.859375,-1 1.40625,-1 0.328125,0 0.71875,0.125 0.859375,0.40625 z m 0,0"
             id="path49" />
        </g>
      </g>
      <g
         fill="#000000"
         fill-opacity="1"
         id="g35"
         transform="matrix(0.352778,0,0,0.352778,-32.5338,-27.1894)">
        <g
           id="use33"
           transform="translate(114.393,83.457001)">
          <path
             d="m 0.84375,-0.4375 c -0.015625,0.09375 -0.0625,0.265625 -0.0625,0.28125 0,0.15625 0.125,0.21875 0.234375,0.21875 0.125,0 0.234375,-0.078125 0.28125,-0.140625 0.03125,-0.0625 0.078125,-0.296875 0.125,-0.4375 0.03125,-0.125 0.109375,-0.453125 0.140625,-0.625 0.046875,-0.15625 0.09375,-0.3125 0.125,-0.46875 0.078125,-0.28125 0.09375,-0.34375 0.296875,-0.625 C 2.171875,-2.515625 2.5,-2.875 3.03125,-2.875 c 0.390625,0 0.40625,0.359375 0.40625,0.484375 0,0.421875 -0.296875,1.1875 -0.40625,1.484375 -0.078125,0.203125 -0.109375,0.265625 -0.109375,0.375 0,0.375 0.296875,0.59375 0.65625,0.59375 0.703125,0 1,-0.953125 1,-1.0625 0,-0.09375 -0.078125,-0.09375 -0.109375,-0.09375 -0.09375,0 -0.09375,0.046875 -0.125,0.125 C 4.1875,-0.40625 3.875,-0.125 3.609375,-0.125 c -0.15625,0 -0.1875,-0.09375 -0.1875,-0.25 0,-0.15625 0.046875,-0.25 0.171875,-0.5625 0.078125,-0.21875 0.359375,-0.953125 0.359375,-1.34375 0,-0.671875 -0.53125,-0.796875 -0.90625,-0.796875 -0.578125,0 -0.96875,0.359375 -1.171875,0.640625 -0.046875,-0.484375 -0.453125,-0.640625 -0.75,-0.640625 -0.296875,0 -0.453125,0.21875 -0.546875,0.375 -0.15625,0.265625 -0.25,0.65625 -0.25,0.703125 0,0.078125 0.09375,0.078125 0.125,0.078125 0.09375,0 0.09375,-0.015625 0.140625,-0.203125 0.109375,-0.40625 0.25,-0.75 0.515625,-0.75 0.1875,0 0.234375,0.15625 0.234375,0.34375 0,0.125 -0.0625,0.390625 -0.125,0.578125 -0.046875,0.1875 -0.109375,0.46875 -0.140625,0.625 z m 0,0"
             id="path53" />
        </g>
      </g>
    </g>
    <g
       inkscape:label=""
       transform="matrix(1.157129,0,0,1.157129,37.434503,178.37302)"
       id="g10756">
      <g
         fill="#000000"
         fill-opacity="1"
         id="g10748"
         transform="matrix(0.352778,0,0,0.352778,-32.5338,-26.5721)">
        <g
           id="g10746"
           transform="translate(91.925003,81.962997)">
          <path
             d="m 0.875,-0.59375 c -0.03125,0.15625 -0.09375,0.390625 -0.09375,0.4375 0,0.171875 0.140625,0.265625 0.296875,0.265625 0.125,0 0.296875,-0.078125 0.375,-0.28125 0,-0.015625 0.125,-0.484375 0.1875,-0.734375 l 0.21875,-0.890625 C 1.90625,-2.03125 1.96875,-2.25 2.03125,-2.46875 c 0.03125,-0.171875 0.109375,-0.46875 0.125,-0.5 0.140625,-0.3125 0.671875,-1.21875 1.625,-1.21875 0.453125,0 0.53125,0.375 0.53125,0.703125 0,0.609375 -0.484375,1.890625 -0.640625,2.3125 C 3.578125,-0.9375 3.5625,-0.8125 3.5625,-0.703125 c 0,0.46875 0.359375,0.8125 0.828125,0.8125 0.9375,0 1.296875,-1.453125 1.296875,-1.53125 0,-0.109375 -0.078125,-0.109375 -0.109375,-0.109375 -0.109375,0 -0.109375,0.03125 -0.15625,0.1875 -0.203125,0.671875 -0.53125,1.234375 -1.015625,1.234375 -0.171875,0 -0.234375,-0.09375 -0.234375,-0.328125 0,-0.25 0.078125,-0.484375 0.171875,-0.703125 0.1875,-0.53125 0.609375,-1.625 0.609375,-2.203125 0,-0.65625 -0.421875,-1.0625 -1.140625,-1.0625 -0.90625,0 -1.390625,0.640625 -1.5625,0.875 -0.046875,-0.5625 -0.453125,-0.875 -0.921875,-0.875 -0.453125,0 -0.640625,0.390625 -0.734375,0.5625 C 0.421875,-3.5 0.296875,-2.90625 0.296875,-2.875 c 0,0.109375 0.09375,0.109375 0.109375,0.109375 0.109375,0 0.109375,-0.015625 0.171875,-0.234375 0.171875,-0.703125 0.375,-1.1875 0.734375,-1.1875 0.1875,0 0.296875,0.125 0.296875,0.453125 0,0.21875 -0.03125,0.328125 -0.15625,0.84375 z m 0,0"
             id="path10744" />
        </g>
      </g>
      <g
         fill="#000000"
         fill-opacity="1"
         id="g24"
         transform="matrix(0.352778,0,0,0.352778,-32.5338,-26.5721)">
        <g
           id="use22"
           transform="translate(100.119,81.962997)">
          <path
             d="m 6.5625,-2.296875 c 0.171875,0 0.359375,0 0.359375,-0.203125 0,-0.1875 -0.1875,-0.1875 -0.359375,-0.1875 H 1.171875 c -0.171875,0 -0.34375,0 -0.34375,0.1875 0,0.203125 0.171875,0.203125 0.34375,0.203125 z m 0,0"
             id="path38" />
        </g>
      </g>
      <g
         fill="#000000"
         fill-opacity="1"
         id="g28"
         transform="matrix(0.352778,0,0,0.352778,-32.5338,-26.5721)">
        <g
           id="use26"
           transform="translate(110.082,81.962997)">
          <path
             d="m 2.9375,-6.375 c 0,-0.25 0,-0.265625 -0.234375,-0.265625 C 2.078125,-6 1.203125,-6 0.890625,-6 v 0.3125 c 0.203125,0 0.78125,0 1.296875,-0.265625 v 5.171875 c 0,0.359375 -0.03125,0.46875 -0.921875,0.46875 h -0.3125 V 0 c 0.34375,-0.03125 1.203125,-0.03125 1.609375,-0.03125 0.390625,0 1.265625,0 1.609375,0.03125 v -0.3125 h -0.3125 c -0.90625,0 -0.921875,-0.109375 -0.921875,-0.46875 z m 0,0"
             id="path42" />
        </g>
      </g>
    </g>
    <g
       inkscape:label=""
       transform="matrix(1.2158514,0,0,1.3052777,163.5062,178.67583)"
       id="g11108">
      <g
         fill="#000000"
         fill-opacity="1"
         id="g19"
         transform="matrix(0.352778,0,0,0.352778,-32.5338,-26.5721)">
        <g
           id="use17"
           transform="translate(91.925003,81.962997)">
          <path
             d="m 0.875,-0.59375 c -0.03125,0.15625 -0.09375,0.390625 -0.09375,0.4375 0,0.171875 0.140625,0.265625 0.296875,0.265625 0.125,0 0.296875,-0.078125 0.375,-0.28125 0,-0.015625 0.125,-0.484375 0.1875,-0.734375 l 0.21875,-0.890625 C 1.90625,-2.03125 1.96875,-2.25 2.03125,-2.46875 c 0.03125,-0.171875 0.109375,-0.46875 0.125,-0.5 0.140625,-0.3125 0.671875,-1.21875 1.625,-1.21875 0.453125,0 0.53125,0.375 0.53125,0.703125 0,0.609375 -0.484375,1.890625 -0.640625,2.3125 C 3.578125,-0.9375 3.5625,-0.8125 3.5625,-0.703125 c 0,0.46875 0.359375,0.8125 0.828125,0.8125 0.9375,0 1.296875,-1.453125 1.296875,-1.53125 0,-0.109375 -0.078125,-0.109375 -0.109375,-0.109375 -0.109375,0 -0.109375,0.03125 -0.15625,0.1875 -0.203125,0.671875 -0.53125,1.234375 -1.015625,1.234375 -0.171875,0 -0.234375,-0.09375 -0.234375,-0.328125 0,-0.25 0.078125,-0.484375 0.171875,-0.703125 0.1875,-0.53125 0.609375,-1.625 0.609375,-2.203125 0,-0.65625 -0.421875,-1.0625 -1.140625,-1.0625 -0.90625,0 -1.390625,0.640625 -1.5625,0.875 -0.046875,-0.5625 -0.453125,-0.875 -0.921875,-0.875 -0.453125,0 -0.640625,0.390625 -0.734375,0.5625 C 0.421875,-3.5 0.296875,-2.90625 0.296875,-2.875 c 0,0.109375 0.09375,0.109375 0.109375,0.109375 0.109375,0 0.109375,-0.015625 0.171875,-0.234375 0.171875,-0.703125 0.375,-1.1875 0.734375,-1.1875 0.1875,0 0.296875,0.125 0.296875,0.453125 0,0.21875 -0.03125,0.328125 -0.15625,0.84375 z m 0,0"
             id="path33" />
        </g>
      </g>
      <g
         fill="#000000"
         fill-opacity="1"
         id="g11100"
         transform="matrix(0.352778,0,0,0.352778,-32.5338,-26.5721)">
        <g
           id="g11098"
           transform="translate(100.119,81.962997)">
          <path
             d="m 4.078125,-2.296875 h 2.78125 C 7,-2.296875 7.1875,-2.296875 7.1875,-2.5 7.1875,-2.6875 7,-2.6875 6.859375,-2.6875 h -2.78125 v -2.796875 c 0,-0.140625 0,-0.328125 -0.203125,-0.328125 -0.203125,0 -0.203125,0.1875 -0.203125,0.328125 V -2.6875 h -2.78125 c -0.140625,0 -0.328125,0 -0.328125,0.1875 0,0.203125 0.1875,0.203125 0.328125,0.203125 h 2.78125 V 0.5 c 0,0.140625 0,0.328125 0.203125,0.328125 0.203125,0 0.203125,-0.1875 0.203125,-0.328125 z m 0,0"
             id="path37" />
        </g>
      </g>
      <g
         fill="#000000"
         fill-opacity="1"
         id="g11106"
         transform="matrix(0.352778,0,0,0.352778,-32.5338,-26.5721)">
        <g
           id="g11104"
           transform="translate(110.07961,81.962997)">
          <path
             d="m 2.9375,-6.375 c 0,-0.25 0,-0.265625 -0.234375,-0.265625 C 2.078125,-6 1.203125,-6 0.890625,-6 v 0.3125 c 0.203125,0 0.78125,0 1.296875,-0.265625 v 5.171875 c 0,0.359375 -0.03125,0.46875 -0.921875,0.46875 h -0.3125 V 0 c 0.34375,-0.03125 1.203125,-0.03125 1.609375,-0.03125 0.390625,0 1.265625,0 1.609375,0.03125 v -0.3125 h -0.3125 c -0.90625,0 -0.921875,-0.109375 -0.921875,-0.46875 z m 0,0"
             id="path11102" />
        </g>
      </g>
    </g>
    <g
       inkscape:label=""
       transform="matrix(1.4483321,0,0,1.4483321,108.1334,178.79215)"
       id="g11469">
      <g
         fill="#000000"
         fill-opacity="1"
         id="g12"
         transform="matrix(0.352778,0,0,0.352778,-32.5338,-27.3603)">
        <g
           id="use10"
           transform="translate(91.925003,81.962997)">
          <path
             d="m 0.875,-0.59375 c -0.03125,0.15625 -0.09375,0.390625 -0.09375,0.4375 0,0.171875 0.140625,0.265625 0.296875,0.265625 0.125,0 0.296875,-0.078125 0.375,-0.28125 0,-0.015625 0.125,-0.484375 0.1875,-0.734375 l 0.21875,-0.890625 C 1.90625,-2.03125 1.96875,-2.25 2.03125,-2.46875 c 0.03125,-0.171875 0.109375,-0.46875 0.125,-0.5 0.140625,-0.3125 0.671875,-1.21875 1.625,-1.21875 0.453125,0 0.53125,0.375 0.53125,0.703125 0,0.609375 -0.484375,1.890625 -0.640625,2.3125 C 3.578125,-0.9375 3.5625,-0.8125 3.5625,-0.703125 c 0,0.46875 0.359375,0.8125 0.828125,0.8125 0.9375,0 1.296875,-1.453125 1.296875,-1.53125 0,-0.109375 -0.078125,-0.109375 -0.109375,-0.109375 -0.109375,0 -0.109375,0.03125 -0.15625,0.1875 -0.203125,0.671875 -0.53125,1.234375 -1.015625,1.234375 -0.171875,0 -0.234375,-0.09375 -0.234375,-0.328125 0,-0.25 0.078125,-0.484375 0.171875,-0.703125 0.1875,-0.53125 0.609375,-1.625 0.609375,-2.203125 0,-0.65625 -0.421875,-1.0625 -1.140625,-1.0625 -0.90625,0 -1.390625,0.640625 -1.5625,0.875 -0.046875,-0.5625 -0.453125,-0.875 -0.921875,-0.875 -0.453125,0 -0.640625,0.390625 -0.734375,0.5625 C 0.421875,-3.5 0.296875,-2.90625 0.296875,-2.875 c 0,0.109375 0.09375,0.109375 0.109375,0.109375 0.109375,0 0.109375,-0.015625 0.171875,-0.234375 0.171875,-0.703125 0.375,-1.1875 0.734375,-1.1875 0.1875,0 0.296875,0.125 0.296875,0.453125 0,0.21875 -0.03125,0.328125 -0.15625,0.84375 z m 0,0"
             id="path18" />
        </g>
      </g>
    </g>
    <circle
       style="fill:#000000;fill-opacity:1;stroke:none;stroke-width:0.15099;stroke-dasharray:none;stroke-dashoffset:0;stroke-opacity:0.99866"
       id="path3705-4-3"
       cx="105.70611"
       cy="143.235"
       r="2.4552741" />
    <path
       style="fill:none;fill-opacity:0.65;stroke:#000000;stroke-width:0.192;marker-end:url(#marker1458)"
       d="m 89.660398,188.55526 c -0.31884,0.15521 -5.264982,-23.0799 9.774907,-34.3072"
       id="path1155"
       sodipodi:nodetypes="cc" />
  </g>
</svg>
