<?xml version="1.0" encoding="UTF-8" standalone="no"?>
<!-- Created with Inkscape (http://www.inkscape.org/) -->

<svg
   width="210mm"
   height="297mm"
   viewBox="0 0 210 297"
   version="1.1"
   id="svg5"
   sodipodi:docname="square_to_torus.svg"
   inkscape:version="1.2 (dc2aedaf03, 2022-05-15)"
   xmlns:inkscape="http://www.inkscape.org/namespaces/inkscape"
   xmlns:sodipodi="http://sodipodi.sourceforge.net/DTD/sodipodi-0.dtd"
   xmlns:xlink="http://www.w3.org/1999/xlink"
   xmlns="http://www.w3.org/2000/svg"
   xmlns:svg="http://www.w3.org/2000/svg">
  <sodipodi:namedview
     id="namedview7"
     pagecolor="#ffffff"
     bordercolor="#000000"
     borderopacity="0.25"
     inkscape:showpageshadow="2"
     inkscape:pageopacity="0.0"
     inkscape:pagecheckerboard="0"
     inkscape:deskcolor="#d1d1d1"
     inkscape:document-units="mm"
     showgrid="false"
     inkscape:zoom="1.2680787"
     inkscape:cx="370.24516"
     inkscape:cy="234.21259"
     inkscape:window-width="1888"
     inkscape:window-height="1008"
     inkscape:window-x="13"
     inkscape:window-y="53"
     inkscape:window-maximized="1"
     inkscape:current-layer="layer1">
    <inkscape:grid
       type="xygrid"
       id="grid20041" />
  </sodipodi:namedview>
  <defs
     id="defs2">
    <linearGradient
       id="linearGradient3246"
       inkscape:swatch="solid">
      <stop
         style="stop-color:#ffffff;stop-opacity:1;"
         offset="0"
         id="stop3244" />
    </linearGradient>
    <marker
       style="overflow:visible"
       id="marker59576"
       refX="0"
       refY="0"
       orient="auto-start-reverse"
       inkscape:stockid="Arrow5"
       markerWidth="5.8874264"
       markerHeight="6.6094756"
       viewBox="0 0 5.8874262 6.6094758"
       inkscape:isstock="true"
       inkscape:collect="always"
       preserveAspectRatio="xMidYMid">
      <path
         transform="scale(0.5)"
         style="fill:context-stroke;fill-rule:evenodd;stroke:context-stroke;stroke-width:1pt"
         d="m 6,0 c -3,1 -7,3 -9,5 0,0 0,-4 2,-5 -2,-1 -2,-5 -2,-5 2,2 6,4 9,5 z"
         id="path59574" />
    </marker>
    <marker
       style="overflow:visible"
       id="marker37710"
       refX="-5"
       refY="-6"
       orient="83"
       inkscape:stockid="Arrow5"
       markerWidth="5.8874264"
       markerHeight="6.6094756"
       viewBox="0 0 5.8874262 6.6094758"
       inkscape:isstock="true"
       inkscape:collect="always"
       preserveAspectRatio="xMidYMid">
      <path
         style="fill:context-stroke;fill-rule:evenodd;stroke:context-stroke;stroke-width:0.5pt"
         d="m 3,0 c -1.5,0.5 -3.5,1.5 -4.5,2.5 0,0 0,-2 1,-2.5 -1,-0.5 -1,-2.5 -1,-2.5 1,1 3,2 4.5,2.5 z"
         id="path37708" />
    </marker>
    <marker
       style="overflow:visible"
       id="marker19699"
       refX="0"
       refY="0"
       orient="auto-start-reverse"
       inkscape:stockid="Arrow5"
       markerWidth="5.8874264"
       markerHeight="6.6094756"
       viewBox="0 0 5.8874262 6.6094758"
       inkscape:isstock="true"
       inkscape:collect="always"
       preserveAspectRatio="xMidYMid">
      <path
         transform="scale(0.5)"
         style="fill:context-stroke;fill-rule:evenodd;stroke:context-stroke;stroke-width:1pt"
         d="m 6,0 c -3,1 -7,3 -9,5 0,0 0,-4 2,-5 -2,-1 -2,-5 -2,-5 2,2 6,4 9,5 z"
         id="path19697" />
    </marker>
    <marker
       style="overflow:visible"
       id="marker15186"
       refX="0"
       refY="0"
       orient="auto-start-reverse"
       inkscape:stockid="Arrow5"
       markerWidth="5.8874259"
       markerHeight="6.6094756"
       viewBox="0 0 5.8874262 6.6094758"
       inkscape:isstock="true"
       inkscape:collect="always"
       preserveAspectRatio="xMidYMid">
      <path
         transform="scale(0.5)"
         style="fill:context-stroke;fill-rule:evenodd;stroke:context-stroke;stroke-width:1pt"
         d="m 6,0 c -3,1 -7,3 -9,5 0,0 0,-4 2,-5 -2,-1 -2,-5 -2,-5 2,2 6,4 9,5 z"
         id="path15184" />
    </marker>
    <marker
       style="overflow:visible"
       id="marker15050"
       refX="0"
       refY="0"
       orient="auto-start-reverse"
       inkscape:stockid="Arrow5"
       markerWidth="5.8874264"
       markerHeight="6.6094756"
       viewBox="0 0 5.8874262 6.6094758"
       inkscape:isstock="true"
       inkscape:collect="always"
       preserveAspectRatio="xMidYMid">
      <path
         transform="scale(0.5)"
         style="fill:context-stroke;fill-rule:evenodd;stroke:context-stroke;stroke-width:1pt"
         d="m 6,0 c -3,1 -7,3 -9,5 0,0 0,-4 2,-5 -2,-1 -2,-5 -2,-5 2,2 6,4 9,5 z"
         id="path15048" />
    </marker>
    <marker
       style="overflow:visible"
       id="marker12992"
       refX="52"
       refY="0"
       orient="auto-start-reverse"
       inkscape:stockid="Arrow5"
       markerWidth="5.8874264"
       markerHeight="6.6094756"
       viewBox="0 0 5.8874262 6.6094758"
       inkscape:isstock="true"
       inkscape:collect="always"
       preserveAspectRatio="xMidYMid">
      <path
         transform="scale(0.5)"
         style="fill:context-stroke;fill-rule:evenodd;stroke:context-stroke;stroke-width:1pt"
         d="m 6,0 c -3,1 -7,3 -9,5 0,0 0,-4 2,-5 -2,-1 -2,-5 -2,-5 2,2 6,4 9,5 z"
         id="path12990" />
    </marker>
    <marker
       style="overflow:visible"
       id="marker7488"
       refX="52"
       refY="0"
       orient="auto-start-reverse"
       inkscape:stockid="Arrow5"
       markerWidth="5.8874264"
       markerHeight="6.6094756"
       viewBox="0 0 5.8874262 6.6094758"
       inkscape:isstock="true"
       inkscape:collect="always"
       preserveAspectRatio="xMidYMid">
      <path
         transform="scale(0.5)"
         style="fill:context-stroke;fill-rule:evenodd;stroke:context-stroke;stroke-width:1pt"
         d="m 6,0 c -3,1 -7,3 -9,5 0,0 0,-4 2,-5 -2,-1 -2,-5 -2,-5 2,2 6,4 9,5 z"
         id="path7486" />
    </marker>
    <marker
       style="overflow:visible"
       id="marker6384"
       refX="52"
       refY="0"
       orient="auto-start-reverse"
       inkscape:stockid="Arrow5"
       markerWidth="5.8874264"
       markerHeight="6.6094756"
       viewBox="0 0 5.8874262 6.6094758"
       inkscape:isstock="true"
       inkscape:collect="always"
       preserveAspectRatio="xMidYMid">
      <path
         transform="scale(0.5)"
         style="fill:context-stroke;fill-rule:evenodd;stroke:context-stroke;stroke-width:1pt"
         d="m 6,0 c -3,1 -7,3 -9,5 0,0 0,-4 2,-5 -2,-1 -2,-5 -2,-5 2,2 6,4 9,5 z"
         id="path6382" />
    </marker>
    <marker
       style="overflow:visible"
       id="Arrow5"
       refX="52"
       refY="0"
       orient="auto-start-reverse"
       inkscape:stockid="Arrow5"
       markerWidth="5.8874264"
       markerHeight="6.6094756"
       viewBox="0 0 5.8874262 6.6094758"
       inkscape:isstock="true"
       inkscape:collect="always"
       preserveAspectRatio="xMidYMid">
      <path
         transform="scale(0.5)"
         style="fill:context-stroke;fill-rule:evenodd;stroke:context-stroke;stroke-width:1pt"
         d="m 6,0 c -3,1 -7,3 -9,5 0,0 0,-4 2,-5 -2,-1 -2,-5 -2,-5 2,2 6,4 9,5 z"
         id="path8893" />
    </marker>
    <clipPath
       id="clip-0">
      <path
         clip-rule="nonzero"
         d="M 0,0 H 4 V 2.574219 H 0 Z m 0,0"
         id="path8" />
    </clipPath>
    <clipPath
       id="clipPath2704">
      <path
         clip-rule="nonzero"
         d="M 0,0 H 4 V 3.734375 H 0 Z m 0,0"
         id="path2702" />
    </clipPath>
    <clipPath
       id="clipPath2807">
      <path
         clip-rule="nonzero"
         d="M 0,0 H 5 V 6.226562 H 0 Z m 0,0"
         id="path2805" />
    </clipPath>
    <clipPath
       id="clipPath2868">
      <path
         clip-rule="nonzero"
         d="M 0,0 H 3.816406 V 3.113281 H 0 Z m 0,0"
         id="path2866" />
    </clipPath>
    <clipPath
       id="clipPath2933">
      <path
         clip-rule="nonzero"
         d="M 0,0 H 3.816406 V 3.113281 H 0 Z m 0,0"
         id="path2931" />
    </clipPath>
    <clipPath
       id="clipPath2998">
      <path
         clip-rule="nonzero"
         d="M 0,0 H 8.835938 V 10.761719 H 0 Z m 0,0"
         id="path2996" />
    </clipPath>
    <clipPath
       id="clipPath3063">
      <path
         clip-rule="nonzero"
         d="M 0,0 H 3.5625 V 3.113281 H 0 Z m 0,0"
         id="path3061" />
    </clipPath>
    <clipPath
       id="clipPath3132">
      <path
         clip-rule="nonzero"
         d="M 0,0 H 3.816406 V 3.113281 H 0 Z m 0,0"
         id="path3130" />
    </clipPath>
    <clipPath
       id="clipPath3205">
      <path
         clip-rule="nonzero"
         d="M 0,0 H 3.816406 V 3.113281 H 0 Z m 0,0"
         id="path3203" />
    </clipPath>
    <clipPath
       id="clipPath3370">
      <path
         clip-rule="nonzero"
         d="M 0,0 H 4 V 4.289062 H 0 Z m 0,0"
         id="path3368" />
    </clipPath>
    <clipPath
       id="clipPath3473">
      <path
         clip-rule="nonzero"
         d="M 0,0 H 3 V 2.144531 H 0 Z m 0,0"
         id="path3471" />
    </clipPath>
    <clipPath
       id="clipPath3585">
      <path
         clip-rule="nonzero"
         d="M 0,0 H 3 V 3.460938 H 0 Z m 0,0"
         id="path3583" />
    </clipPath>
    <marker
       style="overflow:visible"
       id="marker7488-6"
       refX="52"
       refY="0"
       orient="auto-start-reverse"
       inkscape:stockid="Arrow5"
       markerWidth="5.8874264"
       markerHeight="6.6094756"
       viewBox="0 0 5.8874262 6.6094758"
       inkscape:isstock="true"
       inkscape:collect="always"
       preserveAspectRatio="xMidYMid">
      <path
         transform="scale(0.5)"
         style="fill:context-stroke;fill-rule:evenodd;stroke:context-stroke;stroke-width:1pt"
         d="m 6,0 c -3,1 -7,3 -9,5 0,0 0,-4 2,-5 -2,-1 -2,-5 -2,-5 2,2 6,4 9,5 z"
         id="path7486-7" />
    </marker>
    <marker
       style="overflow:visible"
       id="marker12992-2"
       refX="52"
       refY="0"
       orient="auto-start-reverse"
       inkscape:stockid="Arrow5"
       markerWidth="5.8874264"
       markerHeight="6.6094756"
       viewBox="0 0 5.8874262 6.6094758"
       inkscape:isstock="true"
       inkscape:collect="always"
       preserveAspectRatio="xMidYMid">
      <path
         transform="scale(0.5)"
         style="fill:context-stroke;fill-rule:evenodd;stroke:context-stroke;stroke-width:1pt"
         d="m 6,0 c -3,1 -7,3 -9,5 0,0 0,-4 2,-5 -2,-1 -2,-5 -2,-5 2,2 6,4 9,5 z"
         id="path12990-7" />
    </marker>
    <marker
       style="overflow:visible"
       id="marker19699-2"
       refX="0"
       refY="0"
       orient="auto-start-reverse"
       inkscape:stockid="Arrow5"
       markerWidth="5.8874259"
       markerHeight="6.6094756"
       viewBox="0 0 5.8874262 6.6094758"
       inkscape:isstock="true"
       inkscape:collect="always"
       preserveAspectRatio="xMidYMid">
      <path
         transform="scale(0.5)"
         style="fill:context-stroke;fill-rule:evenodd;stroke:context-stroke;stroke-width:1pt"
         d="m 6,0 c -3,1 -7,3 -9,5 0,0 0,-4 2,-5 -2,-1 -2,-5 -2,-5 2,2 6,4 9,5 z"
         id="path19697-0" />
    </marker>
    <linearGradient
       inkscape:collect="always"
       xlink:href="#linearGradient3246"
       id="linearGradient3248"
       x1="172.58383"
       y1="66.145834"
       x2="197.83283"
       y2="66.145834"
       gradientUnits="userSpaceOnUse" />
  </defs>
  <g
     inkscape:label="Layer 1"
     inkscape:groupmode="layer"
     id="layer1">
    <g
       id="g19567"
       transform="translate(-7.4135698,-1.9699351)">
      <rect
         style="fill:#d40000;fill-opacity:0.74902;fill-rule:evenodd;stroke:none;stroke-width:0.202156;stroke-dasharray:0.606469, 0.606469;stroke-dashoffset:0;stroke-opacity:1"
         id="rect4588"
         width="21.913479"
         height="21.913481"
         x="9.685997"
         y="57.159027" />
      <path
         style="fill:#008000;fill-opacity:0.75;fill-rule:evenodd;stroke:#000000;stroke-width:0.208067;stroke-dasharray:none;stroke-dashoffset:0;stroke-opacity:1;marker-end:url(#Arrow5)"
         d="M 9.6859974,57.159024 H 31.599476"
         id="path4592" />
      <path
         style="fill:#008000;fill-opacity:0.75;fill-rule:evenodd;stroke:#000000;stroke-width:0.208067;stroke-dasharray:none;stroke-dashoffset:0;stroke-opacity:1;marker-end:url(#marker6384)"
         d="M 9.6859974,79.072504 H 31.599475"
         id="path4594" />
      <path
         style="fill:#008000;fill-opacity:0.75;fill-rule:evenodd;stroke:#000000;stroke-width:0.208067;stroke-dasharray:none;stroke-dashoffset:0;stroke-opacity:1;marker-start:url(#marker7488)"
         d="m 9.685997,57.159024 v 21.91348"
         id="path6444" />
      <path
         style="fill:#008000;fill-opacity:0.75;fill-rule:evenodd;stroke:#000000;stroke-width:0.208067;stroke-dasharray:none;stroke-dashoffset:0;stroke-opacity:1;marker-start:url(#marker7488-6)"
         d="M 31.599475,57.159025 V 79.072504"
         id="path6444-5" />
    </g>
    <g
       id="g19502"
       transform="translate(9.3052858,-1.9699792)">
      <path
         id="path8128"
         style="fill:#d40000;fill-opacity:0.74902;fill-rule:evenodd;stroke:none;stroke-width:0.318466"
         d="m 66.98535,57.636701 a 4.5399915,10.478968 0 0 0 -4.539832,10.479063 4.5399915,10.478968 0 0 0 4.539832,10.479063 h 31.733849 0.004 V 78.59447 A 4.5399915,10.478968 0 0 0 103.25946,68.115764 4.5399915,10.478968 0 0 0 98.723199,57.636701 h -0.004 z" />
      <path
         id="path8128-9"
         style="fill:none;fill-opacity:0.74902;fill-rule:evenodd;stroke:#000000;stroke-width:0.318466;stroke-opacity:1;marker-end:url(#marker15050)"
         d="M 71.525501,68.115764 A 4.5399915,10.478968 0 0 1 66.985509,78.594733 4.5399915,10.478968 0 0 1 62.445518,68.115764 4.5399915,10.478968 0 0 1 66.985509,57.636797 4.5399915,10.478968 0 0 1 71.525501,68.115764 Z" />
      <path
         id="path8128-1"
         style="fill:none;fill-opacity:0.74902;fill-rule:evenodd;stroke:#000000;stroke-width:0.318466;marker-end:url(#marker15186)"
         d="M 103.25903,68.115764 A 4.5399915,10.478968 0 0 1 98.719039,78.594732 4.5399915,10.478968 0 0 1 94.179048,68.115764 4.5399915,10.478968 0 0 1 98.719039,57.636797 4.5399915,10.478968 0 0 1 103.25903,68.115764 Z" />
      <path
         style="fill:none;fill-opacity:0.74902;fill-rule:evenodd;stroke:#000000;stroke-width:0.318466;stroke-dasharray:none;stroke-dashoffset:0;stroke-opacity:1;marker-end:url(#marker12992)"
         d="M 66.985508,57.636797 H 98.719039"
         id="path12840" />
      <path
         style="fill:none;fill-opacity:0.74902;fill-rule:evenodd;stroke:#000000;stroke-width:0.318466;stroke-dasharray:none;stroke-dashoffset:0;stroke-opacity:1;marker-end:url(#marker12992-2)"
         d="M 66.985507,78.594828 H 98.719039"
         id="path12840-0" />
    </g>
    <path
       style="fill:#ffffff;fill-opacity:1;fill-rule:evenodd;stroke:#000000;stroke-width:0.460999;stroke-dasharray:none;stroke-dashoffset:0;stroke-opacity:1;marker-end:url(#marker19699)"
       d="M 29.560568,66.145833 H 64.276901"
       id="path19695" />
    <path
       style="fill:#ffffff;fill-opacity:1;fill-rule:evenodd;stroke:#000000;stroke-width:0.460999;stroke-dasharray:none;stroke-dashoffset:0;stroke-opacity:1;marker-end:url(#marker19699-2)"
       d="m 122.16474,66.145833 h 34.71633"
       id="path19695-2" />
    <path
       id="path8128-9-6"
       style="fill:#d40000;fill-opacity:0.74902;fill-rule:evenodd;stroke:#000000;stroke-width:0.708061;stroke-opacity:1;marker-end:url(#marker59576)"
       d="M 185.81741,76.780045 A 10.461457,22.47999 89.350543 0 1 163.23965,66.564801 10.461457,22.47999 89.350543 0 1 185.61917,55.858048 10.461457,22.47999 89.350543 0 1 208.19693,66.073294 10.461457,22.47999 89.350543 0 1 185.81741,76.780045 Z" />
    <path
       style="fill:none;fill-opacity:1;fill-rule:evenodd;stroke:#000000;stroke-width:0.460999;stroke-dasharray:none;stroke-dashoffset:0;stroke-opacity:1"
       d="m 171.11716,64.616909 c 0.99368,3.066468 3.29164,6.584468 12.90582,7.279779 9.34437,0.142998 15.51296,-3.816348 16.27199,-6.664496"
       id="path19464"
       sodipodi:nodetypes="ccc" />
    <path
       id="path8128-9-6-9"
       style="fill-opacity:1;fill-rule:evenodd;stroke:#000000;stroke-width:0.391493;stroke-opacity:1;fill:url(#linearGradient3248)"
       d="m 185.26314,71.929807 a 5.7842269,12.429374 89.350543 0 1 -12.48344,-5.648094 5.7842269,12.429374 89.350543 0 1 12.37383,-5.919853 5.7842269,12.429374 89.350543 0 1 12.48343,5.648095 5.7842269,12.429374 89.350543 0 1 -12.37382,5.919852 z" />
    <path
       style="fill:none;fill-opacity:1;fill-rule:evenodd;stroke:#000000;stroke-width:0.460999;stroke-dasharray:none;stroke-dashoffset:0;stroke-opacity:1;marker-end:url(#marker37710)"
       d="m 177.5988,76.146802 c -2.55289,-4.483655 2.06308,-4.584966 1.83635,-4.827094"
       id="path35914"
       sodipodi:nodetypes="cc" />
  </g>
  <g
     inkscape:groupmode="layer"
     id="layer2"
     inkscape:label="Layer 2" />
</svg>
