<?xml version="1.0" encoding="UTF-8" standalone="no"?>
<!-- Created with Inkscape (http://www.inkscape.org/) -->

<svg
   sodipodi:docname="residue_1.svg"
   id="svg5"
   version="1.1"
   viewBox="0 0 210 297"
   height="297mm"
   width="210mm"
   inkscape:version="1.2.2 (b0a8486541, 2022-12-01)"
   xmlns:inkscape="http://www.inkscape.org/namespaces/inkscape"
   xmlns:sodipodi="http://sodipodi.sourceforge.net/DTD/sodipodi-0.dtd"
   xmlns="http://www.w3.org/2000/svg"
   xmlns:svg="http://www.w3.org/2000/svg">
  <sodipodi:namedview
     id="namedview7"
     pagecolor="#ffffff"
     bordercolor="#000000"
     borderopacity="0.25"
     inkscape:showpageshadow="2"
     inkscape:pageopacity="0.0"
     inkscape:pagecheckerboard="0"
     inkscape:deskcolor="#d1d1d1"
     inkscape:document-units="mm"
     showgrid="false"
     inkscape:zoom="1.4835225"
     inkscape:cx="405.11689"
     inkscape:cy="525.77566"
     inkscape:window-width="1888"
     inkscape:window-height="1008"
     inkscape:window-x="13"
     inkscape:window-y="53"
     inkscape:window-maximized="1"
     inkscape:current-layer="layer1" />
  <defs
     id="defs2">
    <marker
       style="overflow:visible"
       id="marker2685"
       refX="0"
       refY="0"
       orient="auto-start-reverse"
       inkscape:stockid="Arrow5"
       markerWidth="5.8874264"
       markerHeight="6.6094756"
       viewBox="0 0 5.8874262 6.6094758"
       inkscape:isstock="true"
       inkscape:collect="always"
       preserveAspectRatio="xMidYMid">
      <path
         transform="scale(0.5)"
         style="fill:context-stroke;fill-rule:evenodd;stroke:context-stroke;stroke-width:1pt"
         d="m 6,0 c -3,1 -7,3 -9,5 0,0 0,-4 2,-5 -2,-1 -2,-5 -2,-5 2,2 6,4 9,5 z"
         id="path2683" />
    </marker>
    <marker
       style="overflow:visible"
       id="Arrow5"
       refX="0"
       refY="0"
       orient="auto-start-reverse"
       inkscape:stockid="Arrow5"
       markerWidth="5.8874264"
       markerHeight="6.6094756"
       viewBox="0 0 5.8874262 6.6094758"
       inkscape:isstock="true"
       inkscape:collect="always"
       preserveAspectRatio="xMidYMid">
      <path
         transform="scale(0.5)"
         style="fill:context-stroke;fill-rule:evenodd;stroke:context-stroke;stroke-width:1pt"
         d="m 6,0 c -3,1 -7,3 -9,5 0,0 0,-4 2,-5 -2,-1 -2,-5 -2,-5 2,2 6,4 9,5 z"
         id="path8893" />
    </marker>
    <clipPath
       id="clipPath7074">
      <path
         clip-rule="nonzero"
         d="M 66,0 H 77 V 12.914062 H 66 Z m 0,0"
         id="path3111" />
    </clipPath>
    <clipPath
       id="clipPath5604">
      <path
         clip-rule="nonzero"
         d="M 64,5 H 74.984375 V 18.367188 H 64 Z m 0,0"
         id="path87" />
    </clipPath>
    <clipPath
       id="clipPath4541">
      <path
         clip-rule="nonzero"
         d="M 18,0 H 28 V 12.914062 H 18 Z m 0,0"
         id="path6379" />
    </clipPath>
    <clipPath
       id="clipPath2712">
      <path
         clip-rule="nonzero"
         d="M 51,0 H 61.757812 V 10 H 51 Z m 0,0"
         id="path7158" />
    </clipPath>
    <clipPath
       id="clipPath2941">
      <path
         clip-rule="nonzero"
         d="M 18,0 H 28 V 12.914062 H 18 Z m 0,0"
         id="path3810" />
    </clipPath>
    <clipPath
       id="clipPath1815">
      <path
         clip-rule="nonzero"
         d="M 51,0 H 61.757812 V 10 H 51 Z m 0,0"
         id="path1063" />
    </clipPath>
    <clipPath
       id="clipPath1711">
      <path
         clip-rule="nonzero"
         d="M 0,5 H 11 V 18.367188 H 0 Z m 0,0"
         id="path108" />
    </clipPath>
    <clipPath
       id="clipPath6094">
      <path
         clip-rule="nonzero"
         d="M 24,5 H 36 V 18.367188 H 24 Z m 0,0"
         id="path9597" />
    </clipPath>
    <clipPath
       id="clipPath6712">
      <path
         clip-rule="nonzero"
         d="M 0,0 H 10 V 18.367188 H 0 Z m 0,0"
         id="path6683" />
    </clipPath>
    <clipPath
       id="clipPath429">
      <path
         clip-rule="nonzero"
         d="m 23,0 h 9 v 18.367188 h -9 z m 0,0"
         id="path8933" />
    </clipPath>
    <clipPath
       id="clipPath6284">
      <path
         clip-rule="nonzero"
         d="m 93,0 h 14.82422 V 15 H 93 Z m 0,0"
         id="path4413" />
    </clipPath>
    <clipPath
       id="clipPath5331">
      <path
         clip-rule="nonzero"
         d="M 0,0 H 10 V 18.367188 H 0 Z m 0,0"
         id="path7800" />
    </clipPath>
    <clipPath
       id="clipPath2155">
      <path
         clip-rule="nonzero"
         d="m 23,0 h 9 v 18.367188 h -9 z m 0,0"
         id="path4983" />
    </clipPath>
    <clipPath
       id="clipPath5128">
      <path
         clip-rule="nonzero"
         d="m 114,5 h 11.67969 V 18.367188 H 114 Z m 0,0"
         id="path6320" />
    </clipPath>
  </defs>
  <g
     inkscape:label="Layer 1"
     inkscape:groupmode="layer"
     id="layer1">
    <g
       id="g2816"
       transform="translate(2.6928552,25.18715)">
      <path
         style="fill:none;fill-opacity:1;stroke:#000000;stroke-width:0.499999;stroke-dasharray:none;stroke-opacity:1;marker-mid:url(#Arrow5)"
         id="path2615"
         sodipodi:type="arc"
         sodipodi:cx="-100.74552"
         sodipodi:cy="121.30452"
         sodipodi:rx="38.609543"
         sodipodi:ry="38.609543"
         sodipodi:start="3.1415927"
         sodipodi:end="0"
         sodipodi:arc-type="arc"
         d="m -139.35506,121.30452 a 38.609543,38.609543 0 0 1 38.60954,-38.609543 38.609543,38.609543 0 0 1 38.609541,38.609543"
         sodipodi:open="true"
         transform="scale(-1,1)" />
      <path
         style="fill:none;fill-opacity:1;stroke:#000000;stroke-width:0.499999;stroke-dasharray:none;stroke-opacity:1;marker-mid:url(#marker2685)"
         d="M 62.135977,121.30452 H 100.005 139.35506"
         id="path2673"
         sodipodi:nodetypes="ccc" />
    </g>
    <ellipse
       style="fill:#000000;fill-opacity:1;stroke:none;stroke-width:0.238468;stroke-opacity:1"
       id="path1185-6"
       cx="86.744888"
       cy="123.26009"
       rx="1.3807659"
       ry="1.3807662" />
    <ellipse
       style="fill:#000000;fill-opacity:1;stroke:none;stroke-width:0.238468;stroke-opacity:1"
       id="path1185-6-7"
       cx="120.97973"
       cy="123.26009"
       rx="1.3807659"
       ry="1.3807662" />
    <g
       id="g3307"
       transform="translate(-26.065598,-34.2009)">
      <g
         clip-path="url(#clipPath5331)"
         id="g40"
         transform="matrix(0.352778,0,0,0.352778,114.0314,158.84176)">
        <g
           fill="#000000"
           fill-opacity="1"
           id="g38">
          <g
             id="use36"
             transform="translate(0,14.349)">
            <path
               d="m 5.390625,0.109375 -2.171875,-0.875 C 2.6875,-0.96875 1.453125,-1.46875 1.453125,-2.703125 c 0,-1.78125 2.15625,-3.578125 2.59375,-3.578125 0.046875,0 0.234375,0.046875 0.296875,0.0625 0.546875,0.171875 1.09375,0.171875 1.453125,0.171875 0.640625,0 1.859375,0 1.859375,-0.609375 0,-0.453125 -0.734375,-0.515625 -1.625,-0.515625 -0.40625,0 -0.96875,0 -1.71875,0.25 C 3.828125,-7.328125 3.609375,-8 3.609375,-8.609375 c 0,-1.140625 0.75,-2.75 2.375,-3.515625 0.375,0.4375 0.875,0.4375 1.3125,0.4375 0.515625,0 1.765625,0 1.765625,-0.609375 0,-0.515625 -0.984375,-0.515625 -1.640625,-0.515625 -0.421875,0 -0.734375,0 -1.3125,0.109375 -0.09375,-0.25 -0.125,-0.296875 -0.125,-0.75 0,-0.359375 0.09375,-0.65625 0.09375,-0.71875 0,-0.125 -0.109375,-0.203125 -0.21875,-0.203125 -0.328125,0 -0.328125,0.765625 -0.328125,0.921875 0,0.296875 0.03125,0.578125 0.15625,0.859375 -2.484375,0.71875 -3.578125,2.46875 -3.578125,3.8125 0,1.234375 0.828125,1.921875 1.375,2.234375 -2.125,1.15625 -3.03125,3.265625 -3.03125,4.375 0,1.796875 1.640625,2.4375 2.375,2.75 l 1.859375,0.75 C 5.203125,1.515625 6.046875,1.859375 6.203125,1.9375 6.40625,2.09375 6.5625,2.328125 6.5625,2.671875 c 0,0.421875 -0.328125,1.125 -1.046875,1.125 -0.3125,0 -0.984375,-0.078125 -1.734375,-0.640625 -0.140625,-0.125 -0.171875,-0.140625 -0.25,-0.140625 -0.109375,0 -0.203125,0.078125 -0.203125,0.203125 0,0.234375 1.078125,1 2.1875,1 1.328125,0 2.125,-1.28125 2.125,-2.171875 0,-0.640625 -0.34375,-1.15625 -1.015625,-1.453125 z M 6.4375,-12.296875 c 0.359375,-0.09375 0.734375,-0.09375 1,-0.09375 0.6875,0 0.75,0.01563 1.15625,0.125 -0.25,0.09375 -0.40625,0.15625 -1.28125,0.15625 -0.390625,0 -0.640625,0 -0.875,-0.1875 z M 4.8125,-6.625 c 0.5,-0.125 0.953125,-0.125 1.203125,-0.125 0.671875,0 0.71875,0.015625 1.171875,0.125 -0.21875,0.09375 -0.40625,0.15625 -1.296875,0.15625 -0.5,0 -0.703125,0 -1.078125,-0.15625 z m 0,0"
               id="path78" />
          </g>
        </g>
      </g>
      <g
         fill="#000000"
         fill-opacity="1"
         id="g44"
         transform="matrix(0.352778,0,0,0.352778,114.0314,158.84176)">
        <g
           id="use42"
           transform="translate(8.8360004,17.448999)">
          <path
             d="m 4.125,-9.1875 c 0,-0.34375 0,-0.34375 -0.28125,-0.34375 C 3.5,-9.15625 2.78125,-8.625 1.3125,-8.625 v 0.421875 c 0.328125,0 1.046875,0 1.828125,-0.375 v 7.46875 c 0,0.515625 -0.046875,0.6875 -1.296875,0.6875 H 1.390625 V 0 c 0.390625,-0.03125 1.78125,-0.03125 2.25,-0.03125 0.46875,0 1.859375,0 2.234375,0.03125 V -0.421875 H 5.4375 c -1.265625,0 -1.3125,-0.171875 -1.3125,-0.6875 z m 0,0"
             id="path82" />
        </g>
      </g>
    </g>
    <g
       id="g3328"
       transform="translate(-7.7478661,-34.2009)">
      <g
         clip-path="url(#clipPath2155)"
         id="g50"
         transform="matrix(0.352778,0,0,0.352778,114.0314,158.84176)">
        <g
           fill="#000000"
           fill-opacity="1"
           id="g48">
          <g
             id="use46"
             transform="translate(22.596001,14.349)">
            <path
               d="m 5.390625,0.109375 -2.171875,-0.875 C 2.6875,-0.96875 1.453125,-1.46875 1.453125,-2.703125 c 0,-1.78125 2.15625,-3.578125 2.59375,-3.578125 0.046875,0 0.234375,0.046875 0.296875,0.0625 0.546875,0.171875 1.09375,0.171875 1.453125,0.171875 0.640625,0 1.859375,0 1.859375,-0.609375 0,-0.453125 -0.734375,-0.515625 -1.625,-0.515625 -0.40625,0 -0.96875,0 -1.71875,0.25 C 3.828125,-7.328125 3.609375,-8 3.609375,-8.609375 c 0,-1.140625 0.75,-2.75 2.375,-3.515625 0.375,0.4375 0.875,0.4375 1.3125,0.4375 0.515625,0 1.765625,0 1.765625,-0.609375 0,-0.515625 -0.984375,-0.515625 -1.640625,-0.515625 -0.421875,0 -0.734375,0 -1.3125,0.109375 -0.09375,-0.25 -0.125,-0.296875 -0.125,-0.75 0,-0.359375 0.09375,-0.65625 0.09375,-0.71875 0,-0.125 -0.109375,-0.203125 -0.21875,-0.203125 -0.328125,0 -0.328125,0.765625 -0.328125,0.921875 0,0.296875 0.03125,0.578125 0.15625,0.859375 -2.484375,0.71875 -3.578125,2.46875 -3.578125,3.8125 0,1.234375 0.828125,1.921875 1.375,2.234375 -2.125,1.15625 -3.03125,3.265625 -3.03125,4.375 0,1.796875 1.640625,2.4375 2.375,2.75 l 1.859375,0.75 C 5.203125,1.515625 6.046875,1.859375 6.203125,1.9375 6.40625,2.09375 6.5625,2.328125 6.5625,2.671875 c 0,0.421875 -0.328125,1.125 -1.046875,1.125 -0.3125,0 -0.984375,-0.078125 -1.734375,-0.640625 -0.140625,-0.125 -0.171875,-0.140625 -0.25,-0.140625 -0.109375,0 -0.203125,0.078125 -0.203125,0.203125 0,0.234375 1.078125,1 2.1875,1 1.328125,0 2.125,-1.28125 2.125,-2.171875 0,-0.640625 -0.34375,-1.15625 -1.015625,-1.453125 z M 6.4375,-12.296875 c 0.359375,-0.09375 0.734375,-0.09375 1,-0.09375 0.6875,0 0.75,0.01563 1.15625,0.125 -0.25,0.09375 -0.40625,0.15625 -1.28125,0.15625 -0.390625,0 -0.640625,0 -0.875,-0.1875 z M 4.8125,-6.625 c 0.5,-0.125 0.953125,-0.125 1.203125,-0.125 0.671875,0 0.71875,0.015625 1.171875,0.125 -0.21875,0.09375 -0.40625,0.15625 -1.296875,0.15625 -0.5,0 -0.703125,0 -1.078125,-0.15625 z m 0,0"
               id="path86" />
          </g>
        </g>
      </g>
      <g
         fill="#000000"
         fill-opacity="1"
         id="g54"
         transform="matrix(0.352778,0,0,0.352778,114.0314,158.84176)">
        <g
           id="use52"
           transform="translate(31.431999,17.448999)">
          <path
             d="M 6.3125,-2.40625 H 6 c -0.046875,0.234375 -0.15625,1.03125 -0.3125,1.265625 -0.09375,0.125 -0.90625,0.125 -1.34375,0.125 H 1.6875 c 0.390625,-0.328125 1.265625,-1.25 1.640625,-1.59375 2.1875,-2.015625 2.984375,-2.75 2.984375,-4.171875 0,-1.65625 -1.3125,-2.75 -2.96875,-2.75 -1.671875,0 -2.640625,1.40625 -2.640625,2.640625 0,0.734375 0.625,0.734375 0.671875,0.734375 0.296875,0 0.671875,-0.21875 0.671875,-0.671875 C 2.046875,-7.234375 1.78125,-7.5 1.375,-7.5 1.25,-7.5 1.21875,-7.5 1.171875,-7.484375 1.453125,-8.46875 2.21875,-9.125 3.15625,-9.125 4.375,-9.125 5.125,-8.109375 5.125,-6.78125 5.125,-5.5625 4.421875,-4.5 3.59375,-3.578125 L 0.703125,-0.34375 V 0 H 5.9375 Z m 0,0"
             id="path90" />
        </g>
      </g>
    </g>
    <g
       id="g3408"
       transform="translate(-79.445255,-10.782259)">
      <g
         fill="#000000"
         fill-opacity="1"
         id="g58"
         transform="matrix(0.352778,0,0,0.352778,114.0314,158.84176)">
        <g
           id="use56"
           transform="translate(49.784,14.349)">
          <path
             d="m 13.609375,-4.75 c 0.359375,0 0.71875,0 0.71875,-0.421875 0,-0.40625 -0.359375,-0.40625 -0.71875,-0.40625 H 2.4375 c -0.34375,0 -0.71875,0 -0.71875,0.40625 0,0.421875 0.375,0.421875 0.71875,0.421875 z m 0,0"
             id="path94" />
        </g>
      </g>
      <g
         fill="#000000"
         fill-opacity="1"
         id="g62"
         transform="matrix(0.352778,0,0,0.352778,114.0314,158.84176)">
        <g
           id="use60"
           transform="translate(70.445999,14.349)">
          <path
             d="m 7.59375,-12.703125 c 0.1875,-0.765625 0.28125,-0.8125 1.078125,-0.8125 h 1.484375 c 1.78125,0 3.109375,0.546875 3.109375,2.15625 0,1.046875 -0.546875,4.09375 -4.6875,4.09375 h -2.34375 z m 2.875,5.6875 c 2.5625,-0.5625 4.5625,-2.21875 4.5625,-4 0,-1.609375 -1.625,-3.09375 -4.5,-3.09375 H 4.9375 c -0.40625,0 -0.59375,0 -0.59375,0.390625 0,0.203125 0.140625,0.203125 0.53125,0.203125 1.234375,0 1.234375,0.171875 1.234375,0.40625 0,0.03125 0,0.15625 -0.078125,0.46875 L 3.25,-1.53125 c -0.1875,0.71875 -0.234375,0.9375 -1.65625,0.9375 -0.484375,0 -0.625,0 -0.625,0.390625 C 0.96875,0 1.203125,0 1.265625,0 1.625,0 2.0625,-0.046875 2.453125,-0.046875 h 2.4375 c 0.375,0 0.8125,0.046875 1.1875,0.046875 0.15625,0 0.390625,0 0.390625,-0.390625 0,-0.203125 -0.1875,-0.203125 -0.5,-0.203125 -1.265625,0 -1.265625,-0.171875 -1.265625,-0.375 0,-0.015625 0,-0.171875 0.046875,-0.328125 l 1.390625,-5.5625 h 2.46875 c 1.96875,0 2.34375,1.234375 2.34375,1.921875 0,0.3125 -0.21875,1.109375 -0.359375,1.65625 -0.21875,0.953125 -0.28125,1.171875 -0.28125,1.5625 0,1.46875 1.1875,2.15625 2.578125,2.15625 1.671875,0 2.390625,-2.046875 2.390625,-2.34375 0,-0.140625 -0.09375,-0.203125 -0.21875,-0.203125 -0.171875,0 -0.203125,0.125 -0.25,0.296875 -0.5,1.46875 -1.34375,1.828125 -1.859375,1.828125 -0.515625,0 -0.84375,-0.21875 -0.84375,-1.15625 0,-0.484375 0.25,-2.375 0.265625,-2.46875 0.09375,-0.765625 0.09375,-0.859375 0.09375,-1.015625 0,-1.515625 -1.21875,-2.15625 -2,-2.390625 z m 0,0"
             id="path98" />
        </g>
      </g>
    </g>
    <g
       fill="#000000"
       fill-opacity="1"
       id="g66"
       transform="matrix(0.352778,0,0,0.352778,109.16199,148.0595)">
      <g
         id="use64"
         transform="translate(92.251137,14.349)">
        <path
           d="m 7.59375,-12.703125 c 0.1875,-0.765625 0.28125,-0.8125 1.078125,-0.8125 h 1.484375 c 1.78125,0 3.109375,0.546875 3.109375,2.15625 0,1.046875 -0.546875,4.09375 -4.6875,4.09375 h -2.34375 z m 2.875,5.6875 c 2.5625,-0.5625 4.5625,-2.21875 4.5625,-4 0,-1.609375 -1.625,-3.09375 -4.5,-3.09375 H 4.9375 c -0.40625,0 -0.59375,0 -0.59375,0.390625 0,0.203125 0.140625,0.203125 0.53125,0.203125 1.234375,0 1.234375,0.171875 1.234375,0.40625 0,0.03125 0,0.15625 -0.078125,0.46875 L 3.25,-1.53125 c -0.1875,0.71875 -0.234375,0.9375 -1.65625,0.9375 -0.484375,0 -0.625,0 -0.625,0.390625 C 0.96875,0 1.203125,0 1.265625,0 1.625,0 2.0625,-0.046875 2.453125,-0.046875 h 2.4375 c 0.375,0 0.8125,0.046875 1.1875,0.046875 0.15625,0 0.390625,0 0.390625,-0.390625 0,-0.203125 -0.1875,-0.203125 -0.5,-0.203125 -1.265625,0 -1.265625,-0.171875 -1.265625,-0.375 0,-0.015625 0,-0.171875 0.046875,-0.328125 l 1.390625,-5.5625 h 2.46875 c 1.96875,0 2.34375,1.234375 2.34375,1.921875 0,0.3125 -0.21875,1.109375 -0.359375,1.65625 -0.21875,0.953125 -0.28125,1.171875 -0.28125,1.5625 0,1.46875 1.1875,2.15625 2.578125,2.15625 1.671875,0 2.390625,-2.046875 2.390625,-2.34375 0,-0.140625 -0.09375,-0.203125 -0.21875,-0.203125 -0.171875,0 -0.203125,0.125 -0.25,0.296875 -0.5,1.46875 -1.34375,1.828125 -1.859375,1.828125 -0.515625,0 -0.84375,-0.21875 -0.84375,-1.15625 0,-0.484375 0.25,-2.375 0.265625,-2.46875 0.09375,-0.765625 0.09375,-0.859375 0.09375,-1.015625 0,-1.515625 -1.21875,-2.15625 -2,-2.390625 z m 0,0"
           id="path102" />
      </g>
    </g>
    <g
       clip-path="url(#clipPath5128)"
       id="g72"
       transform="matrix(0.352778,0,0,0.352778,101.92357,104.38134)">
      <g
         fill="#000000"
         fill-opacity="1"
         id="g70">
        <g
           id="use68"
           transform="translate(114.05627,14.349)">
          <path
             d="M 7.8125,-2.515625 C 7.765625,-3.53125 7.71875,-5.125 6.9375,-6.984375 c -0.40625,-1.03125 -1.109375,-2.125 -2.625,-2.125 -2.53125,0 -3.921875,3.25 -3.921875,3.78125 0,0.1875 0.140625,0.1875 0.203125,0.1875 0.1875,0 0.1875,-0.046875 0.296875,-0.3125 0.4375,-1.28125 1.75,-2.296875 3.171875,-2.296875 2.875,0 3.296875,3.203125 3.296875,5.25 0,1.296875 -0.15625,1.734375 -0.28125,2.15625 -0.390625,1.265625 -1.0625,3.828125 -1.0625,4.40625 0,0.171875 0.0625,0.359375 0.21875,0.359375 0.3125,0 0.5,-0.6875 0.734375,-1.515625 0.484375,-1.8125 0.609375,-2.71875 0.71875,-3.546875 0.0625,-0.5 1.234375,-3.90625 2.875,-7.140625 0.140625,-0.34375 0.421875,-0.890625 0.421875,-0.953125 0,-0.03125 -0.01563,-0.171875 -0.203125,-0.171875 -0.04687,0 -0.140625,0 -0.1875,0.09375 -0.03125,0.03125 -0.765625,1.4375 -1.375,2.84375 -0.3125,0.703125 -0.734375,1.625 -1.40625,3.453125 z m 0,0"
             id="path106" />
        </g>
      </g>
    </g>
  </g>
</svg>
