<?xml version="1.0" encoding="UTF-8" standalone="no"?>
<!-- Created with Inkscape (http://www.inkscape.org/) -->

<svg
   sodipodi:docname="residue_3.svg"
   id="svg5"
   version="1.1"
   viewBox="0 0 210 297"
   height="297mm"
   width="210mm"
   inkscape:version="1.2.2 (b0a8486541, 2022-12-01)"
   xmlns:inkscape="http://www.inkscape.org/namespaces/inkscape"
   xmlns:sodipodi="http://sodipodi.sourceforge.net/DTD/sodipodi-0.dtd"
   xmlns="http://www.w3.org/2000/svg"
   xmlns:svg="http://www.w3.org/2000/svg">
  <sodipodi:namedview
     id="namedview7"
     pagecolor="#ffffff"
     bordercolor="#000000"
     borderopacity="0.25"
     inkscape:showpageshadow="2"
     inkscape:pageopacity="0.0"
     inkscape:pagecheckerboard="0"
     inkscape:deskcolor="#d1d1d1"
     inkscape:document-units="mm"
     showgrid="false"
     inkscape:zoom="1.051059"
     inkscape:cx="324.43469"
     inkscape:cy="420.52825"
     inkscape:window-width="1888"
     inkscape:window-height="1008"
     inkscape:window-x="13"
     inkscape:window-y="53"
     inkscape:window-maximized="1"
     inkscape:current-layer="layer1" />
  <defs
     id="defs2">
    <marker
       style="overflow:visible"
       id="marker4654"
       refX="0"
       refY="0"
       orient="auto-start-reverse"
       inkscape:stockid="Arrow5"
       markerWidth="5.8874264"
       markerHeight="6.6094756"
       viewBox="0 0 5.8874262 6.6094758"
       inkscape:isstock="true"
       inkscape:collect="always"
       preserveAspectRatio="xMidYMid">
      <path
         transform="scale(0.5)"
         style="fill:context-stroke;fill-rule:evenodd;stroke:context-stroke;stroke-width:1pt"
         d="m 6,0 c -3,1 -7,3 -9,5 0,0 0,-4 2,-5 -2,-1 -2,-5 -2,-5 2,2 6,4 9,5 z"
         id="path4652" />
    </marker>
    <marker
       style="overflow:visible"
       id="marker4590"
       refX="0"
       refY="0"
       orient="auto-start-reverse"
       inkscape:stockid="Arrow5"
       markerWidth="5.8874264"
       markerHeight="6.6094756"
       viewBox="0 0 5.8874262 6.6094758"
       inkscape:isstock="true"
       inkscape:collect="always"
       preserveAspectRatio="xMidYMid">
      <path
         transform="scale(0.5)"
         style="fill:context-stroke;fill-rule:evenodd;stroke:context-stroke;stroke-width:1pt"
         d="m 6,0 c -3,1 -7,3 -9,5 0,0 0,-4 2,-5 -2,-1 -2,-5 -2,-5 2,2 6,4 9,5 z"
         id="path4588" />
    </marker>
    <marker
       style="overflow:visible"
       id="Arrow5"
       refX="0"
       refY="0"
       orient="auto-start-reverse"
       inkscape:stockid="Arrow5"
       markerWidth="5.8874264"
       markerHeight="6.6094756"
       viewBox="0 0 5.8874262 6.6094758"
       inkscape:isstock="true"
       inkscape:collect="always"
       preserveAspectRatio="xMidYMid">
      <path
         transform="scale(0.5)"
         style="fill:context-stroke;fill-rule:evenodd;stroke:context-stroke;stroke-width:1pt"
         d="m 6,0 c -3,1 -7,3 -9,5 0,0 0,-4 2,-5 -2,-1 -2,-5 -2,-5 2,2 6,4 9,5 z"
         id="path8893" />
    </marker>
    <clipPath
       id="clipPath7074">
      <path
         clip-rule="nonzero"
         d="M 66,0 H 77 V 12.914062 H 66 Z m 0,0"
         id="path3111" />
    </clipPath>
    <clipPath
       id="clipPath5604">
      <path
         clip-rule="nonzero"
         d="M 64,5 H 74.984375 V 18.367188 H 64 Z m 0,0"
         id="path87" />
    </clipPath>
    <clipPath
       id="clipPath4541">
      <path
         clip-rule="nonzero"
         d="M 18,0 H 28 V 12.914062 H 18 Z m 0,0"
         id="path6379" />
    </clipPath>
    <clipPath
       id="clipPath2712">
      <path
         clip-rule="nonzero"
         d="M 51,0 H 61.757812 V 10 H 51 Z m 0,0"
         id="path7158" />
    </clipPath>
    <clipPath
       id="clipPath2941">
      <path
         clip-rule="nonzero"
         d="M 18,0 H 28 V 12.914062 H 18 Z m 0,0"
         id="path3810" />
    </clipPath>
    <clipPath
       id="clipPath1815">
      <path
         clip-rule="nonzero"
         d="M 51,0 H 61.757812 V 10 H 51 Z m 0,0"
         id="path1063" />
    </clipPath>
    <clipPath
       id="clipPath1711">
      <path
         clip-rule="nonzero"
         d="M 0,5 H 11 V 18.367188 H 0 Z m 0,0"
         id="path108" />
    </clipPath>
    <clipPath
       id="clipPath6094">
      <path
         clip-rule="nonzero"
         d="M 24,5 H 36 V 18.367188 H 24 Z m 0,0"
         id="path9597" />
    </clipPath>
    <clipPath
       id="clipPath6712">
      <path
         clip-rule="nonzero"
         d="M 0,0 H 10 V 18.367188 H 0 Z m 0,0"
         id="path6683" />
    </clipPath>
    <clipPath
       id="clipPath429">
      <path
         clip-rule="nonzero"
         d="m 23,0 h 9 v 18.367188 h -9 z m 0,0"
         id="path8933" />
    </clipPath>
    <clipPath
       id="clipPath6284">
      <path
         clip-rule="nonzero"
         d="m 93,0 h 14.82422 V 15 H 93 Z m 0,0"
         id="path4413" />
    </clipPath>
    <clipPath
       id="clipPath5331">
      <path
         clip-rule="nonzero"
         d="M 0,0 H 10 V 18.367188 H 0 Z m 0,0"
         id="path7800" />
    </clipPath>
    <clipPath
       id="clipPath2155">
      <path
         clip-rule="nonzero"
         d="m 23,0 h 9 v 18.367188 h -9 z m 0,0"
         id="path4983" />
    </clipPath>
    <clipPath
       id="clipPath5128">
      <path
         clip-rule="nonzero"
         d="m 114,5 h 11.67969 V 18.367188 H 114 Z m 0,0"
         id="path6320" />
    </clipPath>
    <marker
       style="overflow:visible"
       id="Arrow5-6"
       refX="0"
       refY="0"
       orient="auto-start-reverse"
       inkscape:stockid="Arrow5"
       markerWidth="5.8874264"
       markerHeight="6.6094756"
       viewBox="0 0 5.8874262 6.6094758"
       inkscape:isstock="true"
       inkscape:collect="always"
       preserveAspectRatio="xMidYMid">
      <path
         transform="scale(0.5)"
         style="fill:context-stroke;fill-rule:evenodd;stroke:context-stroke;stroke-width:1pt"
         d="m 6,0 c -3,1 -7,3 -9,5 0,0 0,-4 2,-5 -2,-1 -2,-5 -2,-5 2,2 6,4 9,5 z"
         id="path8893-1" />
    </marker>
    <clipPath
       id="clipPath2003">
      <path
         clip-rule="nonzero"
         d="M 38,5 H 49 V 18.136719 H 38 Z m 0,0"
         id="path3443" />
    </clipPath>
    <clipPath
       id="clipPath2585">
      <path
         clip-rule="nonzero"
         d="M 66,5 H 77 V 18.136719 H 66 Z m 0,0"
         id="path8148" />
    </clipPath>
    <clipPath
       id="clipPath2443">
      <path
         clip-rule="nonzero"
         d="m 13,7 h 5 v 10.449219 h -5 z m 0,0"
         id="path7548" />
    </clipPath>
    <clipPath
       id="clipPath9684">
      <path
         clip-rule="nonzero"
         d="m 38,7 h 6 v 10.449219 h -6 z m 0,0"
         id="path8939" />
    </clipPath>
  </defs>
  <g
     inkscape:label="Layer 1"
     inkscape:groupmode="layer"
     id="layer1">
    <path
       style="fill:none;fill-opacity:1;stroke:#000000;stroke-width:0.499999;stroke-dasharray:none;stroke-opacity:1;marker-mid:url(#Arrow5)"
       id="path4446"
       transform="scale(-1,1)"
       sodipodi:type="arc"
       sodipodi:cx="-99.442055"
       sodipodi:cy="126.9308"
       sodipodi:rx="55.284172"
       sodipodi:ry="55.284172"
       sodipodi:start="3.3900441"
       sodipodi:end="3.0360932"
       sodipodi:open="true"
       sodipodi:arc-type="arc"
       d="m -153.02869,113.33624 a 55.284172,55.284172 0 0 1 62.39243,-40.983801 55.284172,55.284172 0 0 1 46.337219,58.526491 55.284172,55.284172 0 0 1 -54.20258,51.32804 55.284172,55.284172 0 0 1 -55.917229,-49.45453" />
    <path
       style="fill:none;fill-opacity:1;stroke:#000000;stroke-width:0.5;stroke-dasharray:none;stroke-opacity:1;marker-mid:url(#Arrow5-6)"
       id="path4446-8"
       sodipodi:type="arc"
       sodipodi:cx="100.40973"
       sodipodi:cy="126.2304"
       sodipodi:rx="25.794323"
       sodipodi:ry="25.794323"
       sodipodi:start="0.26179939"
       sodipodi:end="5.7595865"
       sodipodi:open="true"
       sodipodi:arc-type="arc"
       d="M 125.32513,132.90646 A 25.794323,25.794323 0 0 1 98.7227,151.9695 25.794323,25.794323 0 0 1 74.83608,129.59724 25.794323,25.794323 0 0 1 92.118415,101.80498 25.794323,25.794323 0 0 1 122.74827,113.33324" />
    <path
       style="fill:none;fill-opacity:1;stroke:#000000;stroke-width:0.499999;stroke-dasharray:none;stroke-opacity:1;marker-mid:url(#marker4654)"
       d="m 122.74827,113.33324 h 15.13983 15.13983"
       id="path4574"
       sodipodi:nodetypes="ccc" />
    <path
       style="fill:none;fill-opacity:1;stroke:#000000;stroke-width:0.499999;stroke-dasharray:none;stroke-opacity:1;marker-mid:url(#marker4590)"
       d="M 154.40232,132.90646 H 140.38584 125.32513"
       id="path4576"
       sodipodi:nodetypes="ccc" />
    <ellipse
       style="fill:#000000;fill-opacity:1;stroke:none;stroke-width:0.143186;stroke-dasharray:none;stroke-opacity:1"
       id="path4734"
       cx="99.442055"
       cy="126.9308"
       rx="1.4327211"
       ry="1.4297092" />
    <g
       fill="#000000"
       fill-opacity="1"
       id="g45"
       transform="matrix(0.352778,0,0,0.352778,119.64493,113.21832)">
      <g
         id="use43"
         transform="translate(0,14.119)">
        <path
           d="m 8.03125,-8.453125 c -0.640625,0.125 -0.96875,0.578125 -0.96875,1.03125 0,0.5 0.390625,0.671875 0.6875,0.671875 0.578125,0 1.046875,-0.5 1.046875,-1.125 0,-0.65625 -0.640625,-1.234375 -1.671875,-1.234375 -0.828125,0 -1.78125,0.375 -2.640625,1.625 -0.140625,-1.09375 -0.96875,-1.625 -1.796875,-1.625 -0.8125,0 -1.21875,0.625 -1.46875,1.078125 -0.34375,0.734375 -0.65625,1.984375 -0.65625,2.078125 0,0.09375 0.078125,0.1875 0.21875,0.1875 0.171875,0 0.1875,-0.015625 0.3125,-0.5 0.3125,-1.234375 0.703125,-2.4375 1.53125,-2.4375 0.5,0 0.640625,0.359375 0.640625,0.953125 0,0.453125 -0.203125,1.265625 -0.359375,1.90625 l -0.578125,2.234375 c -0.078125,0.390625 -0.296875,1.3125 -0.40625,1.6875 -0.140625,0.53125 -0.375,1.515625 -0.375,1.609375 0,0.296875 0.234375,0.515625 0.546875,0.515625 0.21875,0 0.609375,-0.140625 0.734375,-0.546875 C 2.890625,-0.515625 3.65625,-3.640625 3.78125,-4.109375 3.890625,-4.5625 4,-5 4.109375,-5.453125 4.1875,-5.75 4.28125,-6.078125 4.34375,-6.34375 4.40625,-6.53125 4.953125,-7.546875 5.46875,-8 c 0.25,-0.21875 0.796875,-0.703125 1.640625,-0.703125 0.328125,0 0.65625,0.0625 0.921875,0.25 z m 0,0"
           id="path95" />
      </g>
    </g>
    <g
       fill="#000000"
       fill-opacity="1"
       id="g49"
       transform="matrix(0.352778,0,0,0.352778,147.07125,114.98221)">
      <g
         id="use47"
         transform="translate(15.916324,14.119)">
        <path
           d="m 7.59375,-12.703125 c 0.1875,-0.765625 0.28125,-0.8125 1.078125,-0.8125 h 1.484375 c 1.78125,0 3.109375,0.546875 3.109375,2.15625 0,1.046875 -0.546875,4.09375 -4.6875,4.09375 h -2.34375 z m 2.875,5.6875 c 2.5625,-0.5625 4.5625,-2.21875 4.5625,-4 0,-1.609375 -1.625,-3.09375 -4.5,-3.09375 H 4.9375 c -0.40625,0 -0.59375,0 -0.59375,0.390625 0,0.203125 0.140625,0.203125 0.53125,0.203125 1.234375,0 1.234375,0.171875 1.234375,0.40625 0,0.03125 0,0.15625 -0.078125,0.46875 L 3.25,-1.53125 c -0.1875,0.71875 -0.234375,0.9375 -1.65625,0.9375 -0.484375,0 -0.625,0 -0.625,0.390625 C 0.96875,0 1.203125,0 1.265625,0 1.625,0 2.0625,-0.046875 2.453125,-0.046875 h 2.4375 c 0.375,0 0.8125,0.046875 1.1875,0.046875 0.15625,0 0.390625,0 0.390625,-0.390625 0,-0.203125 -0.1875,-0.203125 -0.5,-0.203125 -1.265625,0 -1.265625,-0.171875 -1.265625,-0.375 0,-0.015625 0,-0.171875 0.046875,-0.328125 l 1.390625,-5.5625 h 2.46875 c 1.96875,0 2.34375,1.234375 2.34375,1.921875 0,0.3125 -0.21875,1.109375 -0.359375,1.65625 -0.21875,0.953125 -0.28125,1.171875 -0.28125,1.5625 0,1.46875 1.1875,2.15625 2.578125,2.15625 1.671875,0 2.390625,-2.046875 2.390625,-2.34375 0,-0.140625 -0.09375,-0.203125 -0.21875,-0.203125 -0.171875,0 -0.203125,0.125 -0.25,0.296875 -0.5,1.46875 -1.34375,1.828125 -1.859375,1.828125 -0.515625,0 -0.84375,-0.21875 -0.84375,-1.15625 0,-0.484375 0.25,-2.375 0.265625,-2.46875 0.09375,-0.765625 0.09375,-0.859375 0.09375,-1.015625 0,-1.515625 -1.21875,-2.15625 -2,-2.390625 z m 0,0"
           id="path99" />
      </g>
    </g>
    <g
       id="g4997"
       transform="translate(11.759657,-50.294975)">
      <g
         clip-path="url(#clipPath2003)"
         id="g55"
         transform="matrix(0.352778,0,0,0.352778,129.4627,119.10285)">
        <g
           fill="#000000"
           fill-opacity="1"
           id="g53">
          <g
             id="use51"
             transform="translate(37.721458,14.119)">
            <path
               d="M 7.8125,-2.515625 C 7.765625,-3.53125 7.71875,-5.125 6.9375,-6.984375 c -0.40625,-1.03125 -1.109375,-2.125 -2.625,-2.125 -2.53125,0 -3.921875,3.25 -3.921875,3.78125 0,0.1875 0.140625,0.1875 0.203125,0.1875 0.1875,0 0.1875,-0.046875 0.296875,-0.3125 0.4375,-1.28125 1.75,-2.296875 3.171875,-2.296875 2.875,0 3.296875,3.203125 3.296875,5.25 0,1.296875 -0.15625,1.734375 -0.28125,2.15625 -0.390625,1.265625 -1.0625,3.828125 -1.0625,4.40625 0,0.171875 0.0625,0.359375 0.21875,0.359375 0.3125,0 0.5,-0.6875 0.734375,-1.515625 0.484375,-1.8125 0.609375,-2.71875 0.71875,-3.546875 0.0625,-0.5 1.234375,-3.90625 2.875,-7.140625 0.140625,-0.34375 0.421875,-0.890625 0.421875,-0.953125 0,-0.03125 -0.01563,-0.171875 -0.203125,-0.171875 -0.04687,0 -0.140625,0 -0.1875,0.09375 -0.03125,0.03125 -0.765625,1.4375 -1.375,2.84375 -0.3125,0.703125 -0.734375,1.625 -1.40625,3.453125 z m 0,0"
               id="path103" />
          </g>
        </g>
      </g>
      <g
         fill="#000000"
         fill-opacity="1"
         id="g59"
         transform="matrix(0.352778,0,0,0.352778,129.4627,119.10285)">
        <g
           id="use57"
           transform="translate(48.219002,17.219)">
          <path
             d="m 5.28125,-8.828125 c 0.125,-0.53125 0.1875,-0.546875 0.75,-0.546875 H 7.0625 c 1.234375,0 2.140625,0.359375 2.140625,1.484375 0,0.734375 -0.375,2.84375 -3.25,2.84375 h -1.625 z M 7.265625,-4.875 c 1.78125,-0.390625 3.171875,-1.53125 3.171875,-2.765625 0,-1.125 -1.125,-2.15625 -3.125,-2.15625 H 3.421875 c -0.28125,0 -0.40625,0 -0.40625,0.265625 0,0.15625 0.09375,0.15625 0.375,0.15625 C 4.25,-9.375 4.25,-9.265625 4.25,-9.109375 4.25,-9.078125 4.25,-9 4.1875,-8.78125 L 2.25,-1.0625 c -0.125,0.5 -0.15625,0.640625 -1.140625,0.640625 -0.328125,0 -0.4375,0 -0.4375,0.28125 C 0.671875,0 0.828125,0 0.875,0 1.140625,0 1.4375,-0.03125 1.703125,-0.03125 H 3.40625 c 0.25,0 0.546875,0.03125 0.8125,0.03125 0.109375,0 0.265625,0 0.265625,-0.265625 0,-0.15625 -0.125,-0.15625 -0.34375,-0.15625 -0.875,0 -0.875,-0.109375 -0.875,-0.25 0,-0.015625 0,-0.109375 0.03125,-0.234375 l 0.96875,-3.859375 h 1.71875 c 1.359375,0 1.625,0.859375 1.625,1.34375 0,0.203125 -0.15625,0.765625 -0.25,1.140625 -0.15625,0.65625 -0.203125,0.8125 -0.203125,1.09375 0,1.015625 0.828125,1.484375 1.796875,1.484375 1.15625,0 1.65625,-1.421875 1.65625,-1.609375 0,-0.109375 -0.0625,-0.15625 -0.15625,-0.15625 -0.109375,0 -0.140625,0.09375 -0.171875,0.203125 C 9.9375,-0.25 9.359375,0.015625 9,0.015625 c -0.359375,0 -0.59375,-0.15625 -0.59375,-0.796875 0,-0.359375 0.171875,-1.65625 0.1875,-1.734375 0.0625,-0.53125 0.0625,-0.578125 0.0625,-0.703125 0,-1.046875 -0.84375,-1.484375 -1.390625,-1.65625 z m 0,0"
             id="path107" />
        </g>
      </g>
    </g>
    <g
       id="g5030"
       transform="translate(-32.953838,-25.317756)">
      <g
         clip-path="url(#clipPath2585)"
         id="g65"
         transform="matrix(0.352778,0,0,0.352778,129.4627,119.10285)">
        <g
           fill="#000000"
           fill-opacity="1"
           id="g63">
          <g
             id="use61"
             transform="translate(65.764999,14.119)">
            <path
               d="M 7.8125,-2.515625 C 7.765625,-3.53125 7.71875,-5.125 6.9375,-6.984375 c -0.40625,-1.03125 -1.109375,-2.125 -2.625,-2.125 -2.53125,0 -3.921875,3.25 -3.921875,3.78125 0,0.1875 0.140625,0.1875 0.203125,0.1875 0.1875,0 0.1875,-0.046875 0.296875,-0.3125 0.4375,-1.28125 1.75,-2.296875 3.171875,-2.296875 2.875,0 3.296875,3.203125 3.296875,5.25 0,1.296875 -0.15625,1.734375 -0.28125,2.15625 -0.390625,1.265625 -1.0625,3.828125 -1.0625,4.40625 0,0.171875 0.0625,0.359375 0.21875,0.359375 0.3125,0 0.5,-0.6875 0.734375,-1.515625 0.484375,-1.8125 0.609375,-2.71875 0.71875,-3.546875 0.0625,-0.5 1.234375,-3.90625 2.875,-7.140625 0.140625,-0.34375 0.421875,-0.890625 0.421875,-0.953125 0,-0.03125 -0.01563,-0.171875 -0.203125,-0.171875 -0.04687,0 -0.140625,0 -0.1875,0.09375 -0.03125,0.03125 -0.765625,1.4375 -1.375,2.84375 -0.3125,0.703125 -0.734375,1.625 -1.40625,3.453125 z m 0,0"
               id="path111" />
          </g>
        </g>
      </g>
      <g
         fill="#000000"
         fill-opacity="1"
         id="g69"
         transform="matrix(0.352778,0,0,0.352778,129.4627,119.10285)">
        <g
           id="use67"
           transform="translate(76.259003,17.219)">
          <path
             d="M 5.578125,-5.859375 C 5.140625,-5.78125 4.90625,-5.46875 4.90625,-5.15625 c 0,0.34375 0.265625,0.46875 0.46875,0.46875 0.40625,0 0.734375,-0.34375 0.734375,-0.78125 0,-0.453125 -0.4375,-0.859375 -1.15625,-0.859375 -0.578125,0 -1.234375,0.265625 -1.84375,1.140625 -0.09375,-0.765625 -0.671875,-1.140625 -1.25,-1.140625 -0.546875,0 -0.84375,0.4375 -1.015625,0.75 -0.234375,0.515625 -0.453125,1.375 -0.453125,1.453125 0,0.046875 0.046875,0.125 0.15625,0.125 0.109375,0 0.125,-0.015625 0.21875,-0.34375 0.203125,-0.859375 0.484375,-1.6875 1.0625,-1.6875 0.34375,0 0.4375,0.234375 0.4375,0.65625 0,0.3125 -0.140625,0.875 -0.25,1.3125 L 1.625,-2.515625 c -0.0625,0.28125 -0.21875,0.921875 -0.296875,1.1875 -0.09375,0.359375 -0.25,1.046875 -0.25,1.109375 0,0.203125 0.15625,0.359375 0.375,0.359375 0.15625,0 0.421875,-0.09375 0.515625,-0.390625 0.046875,-0.109375 0.5625,-2.28125 0.65625,-2.609375 0.078125,-0.3125 0.15625,-0.609375 0.234375,-0.921875 0.046875,-0.203125 0.109375,-0.4375 0.15625,-0.625 C 3.0625,-4.53125 3.4375,-5.234375 3.796875,-5.546875 3.96875,-5.703125 4.34375,-6.03125 4.9375,-6.03125 c 0.21875,0 0.453125,0.03125 0.640625,0.171875 z m 0,0"
             id="path115" />
        </g>
      </g>
    </g>
    <g
       fill="#000000"
       fill-opacity="1"
       id="g89"
       transform="matrix(0.352778,0,0,0.352778,129.4627,119.10285)">
      <g
         id="use87"
         transform="translate(-81.817834,39.898421)">
        <path
           d="m 8.671875,-6.625 c 0,-1.265625 -0.015625,-3.40625 -0.890625,-5.0625 -0.765625,-1.453125 -1.984375,-1.96875 -3.046875,-1.96875 -1,0 -2.25,0.453125 -3.046875,1.9375 -0.8125,1.5625 -0.90625,3.484375 -0.90625,5.09375 0,1.171875 0.03125,2.96875 0.671875,4.53125 0.875,2.140625 2.46875,2.421875 3.28125,2.421875 C 5.6875,0.328125 7.125,-0.0625 7.96875,-2.03125 8.59375,-3.453125 8.671875,-5.125 8.671875,-6.625 Z M 4.734375,0 C 3.40625,0 2.625,-1.140625 2.328125,-2.703125 c -0.21875,-1.21875 -0.21875,-3 -0.21875,-4.15625 0,-1.59375 0,-2.90625 0.265625,-4.171875 0.390625,-1.75 1.546875,-2.296875 2.359375,-2.296875 0.84375,0 1.9375,0.5625 2.328125,2.25 0.265625,1.1875 0.296875,2.5625 0.296875,4.21875 0,1.34375 0,3 -0.25,4.21875 C 6.671875,-0.390625 5.453125,0 4.734375,0 Z m 0,0"
           id="path135" />
      </g>
    </g>
    <g
       id="g5376"
       transform="translate(9.8519001,-37.574616)">
      <g
         fill="#000000"
         fill-opacity="1"
         id="g25"
         transform="matrix(0.352778,0,0,0.352778,125.18076,143.10022)">
        <g
           id="use23"
           transform="translate(0,14.349)">
          <path
             d="m 6.375,-12.875 c -0.515625,-1.453125 -2.140625,-1.453125 -2.40625,-1.453125 -0.125,0 -0.359375,0 -0.359375,0.203125 0,0.15625 0.125,0.1875 0.234375,0.203125 0.3125,0.04687 0.5625,0.07813 0.890625,0.6875 0.203125,0.390625 2.328125,6.5625 2.328125,6.609375 0,0.015625 -0.015625,0.03125 -0.1875,0.203125 l -5.359375,5.4375 C 1.265625,-0.75 1.09375,-0.578125 1.09375,-0.3125 c 0,0.296875 0.25,0.546875 0.578125,0.546875 0.078125,0 0.3125,-0.046875 0.4375,-0.171875 0.328125,-0.3125 3.28125,-3.921875 5.15625,-6.15625 0.546875,1.609375 1.203125,3.515625 1.84375,5.25 0.109375,0.3125 0.203125,0.59375 0.5,0.859375 0.203125,0.1875 0.25,0.1875 0.828125,0.1875 h 0.390625 c 0.07813,0 0.21875,0 0.21875,-0.15625 0,-0.09375 -0.01563,-0.109375 -0.09375,-0.1875 C 10.765625,-0.375 10.625,-0.75 10.53125,-0.984375 Z m 0,0"
             id="path47" />
        </g>
      </g>
      <g
         clip-path="url(#clipPath2443)"
         id="g31"
         transform="matrix(0.352778,0,0,0.352778,125.18076,143.10022)">
        <g
           fill="#000000"
           fill-opacity="1"
           id="g29">
          <g
             id="use27"
             transform="translate(11.802,17.448)">
            <path
               d="m 4.125,-9.1875 c 0,-0.34375 0,-0.34375 -0.28125,-0.34375 C 3.5,-9.15625 2.78125,-8.625 1.3125,-8.625 v 0.421875 c 0.328125,0 1.046875,0 1.828125,-0.375 v 7.46875 c 0,0.515625 -0.046875,0.6875 -1.296875,0.6875 H 1.390625 V 0 c 0.390625,-0.03125 1.78125,-0.03125 2.25,-0.03125 0.46875,0 1.859375,0 2.234375,0.03125 V -0.421875 H 5.4375 c -1.265625,0 -1.3125,-0.171875 -1.3125,-0.6875 z m 0,0"
               id="path51" />
          </g>
        </g>
      </g>
    </g>
    <g
       id="g5409"
       transform="translate(2.9595902,-8.5487587)">
      <g
         fill="#000000"
         fill-opacity="1"
         id="g35"
         transform="matrix(0.352778,0,0,0.352778,125.18076,143.10022)">
        <g
           id="use33"
           transform="translate(25.561001,14.349)">
          <path
             d="m 6.375,-12.875 c -0.515625,-1.453125 -2.140625,-1.453125 -2.40625,-1.453125 -0.125,0 -0.359375,0 -0.359375,0.203125 0,0.15625 0.125,0.1875 0.234375,0.203125 0.3125,0.04687 0.5625,0.07813 0.890625,0.6875 0.203125,0.390625 2.328125,6.5625 2.328125,6.609375 0,0.015625 -0.015625,0.03125 -0.1875,0.203125 l -5.359375,5.4375 C 1.265625,-0.75 1.09375,-0.578125 1.09375,-0.3125 c 0,0.296875 0.25,0.546875 0.578125,0.546875 0.078125,0 0.3125,-0.046875 0.4375,-0.171875 0.328125,-0.3125 3.28125,-3.921875 5.15625,-6.15625 0.546875,1.609375 1.203125,3.515625 1.84375,5.25 0.109375,0.3125 0.203125,0.59375 0.5,0.859375 0.203125,0.1875 0.25,0.1875 0.828125,0.1875 h 0.390625 c 0.07813,0 0.21875,0 0.21875,-0.15625 0,-0.09375 -0.01563,-0.109375 -0.09375,-0.1875 C 10.765625,-0.375 10.625,-0.75 10.53125,-0.984375 Z m 0,0"
             id="path55" />
        </g>
      </g>
      <g
         clip-path="url(#clipPath9684)"
         id="g41"
         transform="matrix(0.352778,0,0,0.352778,125.18076,143.10022)">
        <g
           fill="#000000"
           fill-opacity="1"
           id="g39">
          <g
             id="use37"
             transform="translate(37.362999,17.448)">
            <path
               d="M 6.3125,-2.40625 H 6 c -0.046875,0.234375 -0.15625,1.03125 -0.3125,1.265625 -0.09375,0.125 -0.90625,0.125 -1.34375,0.125 H 1.6875 c 0.390625,-0.328125 1.265625,-1.25 1.640625,-1.59375 2.1875,-2.015625 2.984375,-2.75 2.984375,-4.171875 0,-1.65625 -1.3125,-2.75 -2.96875,-2.75 -1.671875,0 -2.640625,1.40625 -2.640625,2.640625 0,0.734375 0.625,0.734375 0.671875,0.734375 0.296875,0 0.671875,-0.21875 0.671875,-0.671875 C 2.046875,-7.234375 1.78125,-7.5 1.375,-7.5 1.25,-7.5 1.21875,-7.5 1.171875,-7.484375 1.453125,-8.46875 2.21875,-9.125 3.15625,-9.125 4.375,-9.125 5.125,-8.109375 5.125,-6.78125 5.125,-5.5625 4.421875,-4.5 3.59375,-3.578125 L 0.703125,-0.34375 V 0 H 5.9375 Z m 0,0"
               id="path59" />
          </g>
        </g>
      </g>
    </g>
  </g>
</svg>
