<?xml version="1.0" encoding="UTF-8" standalone="no"?>
<!-- Created with Inkscape (http://www.inkscape.org/) -->

<svg
   sodipodi:docname="residue_2.svg"
   id="svg5"
   version="1.1"
   viewBox="0 0 210 297"
   height="297mm"
   width="210mm"
   inkscape:version="1.2.2 (b0a8486541, 2022-12-01)"
   xmlns:inkscape="http://www.inkscape.org/namespaces/inkscape"
   xmlns:sodipodi="http://sodipodi.sourceforge.net/DTD/sodipodi-0.dtd"
   xmlns="http://www.w3.org/2000/svg"
   xmlns:svg="http://www.w3.org/2000/svg">
  <sodipodi:namedview
     id="namedview7"
     pagecolor="#ffffff"
     bordercolor="#000000"
     borderopacity="0.25"
     inkscape:showpageshadow="2"
     inkscape:pageopacity="0.0"
     inkscape:pagecheckerboard="0"
     inkscape:deskcolor="#d1d1d1"
     inkscape:document-units="mm"
     showgrid="false"
     inkscape:zoom="2.9632259"
     inkscape:cx="411.71347"
     inkscape:cy="453.22228"
     inkscape:window-width="1888"
     inkscape:window-height="1008"
     inkscape:window-x="13"
     inkscape:window-y="53"
     inkscape:window-maximized="1"
     inkscape:current-layer="layer1" />
  <defs
     id="defs2">
    <marker
       style="overflow:visible"
       id="marker3893"
       refX="0"
       refY="0"
       orient="auto-start-reverse"
       inkscape:stockid="Arrow5"
       markerWidth="5.8874264"
       markerHeight="6.6094756"
       viewBox="0 0 5.8874262 6.6094758"
       inkscape:isstock="true"
       inkscape:collect="always"
       preserveAspectRatio="xMidYMid">
      <path
         transform="scale(0.5)"
         style="fill:context-stroke;fill-rule:evenodd;stroke:context-stroke;stroke-width:1pt"
         d="m 6,0 c -3,1 -7,3 -9,5 0,0 0,-4 2,-5 -2,-1 -2,-5 -2,-5 2,2 6,4 9,5 z"
         id="path3891" />
    </marker>
    <marker
       style="overflow:visible"
       id="Arrow5"
       refX="0"
       refY="0"
       orient="auto-start-reverse"
       inkscape:stockid="Arrow5"
       markerWidth="5.8874264"
       markerHeight="6.6094756"
       viewBox="0 0 5.8874262 6.6094758"
       inkscape:isstock="true"
       inkscape:collect="always"
       preserveAspectRatio="xMidYMid">
      <path
         transform="scale(0.5)"
         style="fill:context-stroke;fill-rule:evenodd;stroke:context-stroke;stroke-width:1pt"
         d="m 6,0 c -3,1 -7,3 -9,5 0,0 0,-4 2,-5 -2,-1 -2,-5 -2,-5 2,2 6,4 9,5 z"
         id="path8893" />
    </marker>
    <clipPath
       id="clipPath7074">
      <path
         clip-rule="nonzero"
         d="M 66,0 H 77 V 12.914062 H 66 Z m 0,0"
         id="path3111" />
    </clipPath>
    <clipPath
       id="clipPath5604">
      <path
         clip-rule="nonzero"
         d="M 64,5 H 74.984375 V 18.367188 H 64 Z m 0,0"
         id="path87" />
    </clipPath>
    <clipPath
       id="clipPath4541">
      <path
         clip-rule="nonzero"
         d="M 18,0 H 28 V 12.914062 H 18 Z m 0,0"
         id="path6379" />
    </clipPath>
    <clipPath
       id="clipPath2712">
      <path
         clip-rule="nonzero"
         d="M 51,0 H 61.757812 V 10 H 51 Z m 0,0"
         id="path7158" />
    </clipPath>
    <clipPath
       id="clipPath2941">
      <path
         clip-rule="nonzero"
         d="M 18,0 H 28 V 12.914062 H 18 Z m 0,0"
         id="path3810" />
    </clipPath>
    <clipPath
       id="clipPath1815">
      <path
         clip-rule="nonzero"
         d="M 51,0 H 61.757812 V 10 H 51 Z m 0,0"
         id="path1063" />
    </clipPath>
    <clipPath
       id="clipPath1711">
      <path
         clip-rule="nonzero"
         d="M 0,5 H 11 V 18.367188 H 0 Z m 0,0"
         id="path108" />
    </clipPath>
    <clipPath
       id="clipPath6094">
      <path
         clip-rule="nonzero"
         d="M 24,5 H 36 V 18.367188 H 24 Z m 0,0"
         id="path9597" />
    </clipPath>
    <clipPath
       id="clipPath6712">
      <path
         clip-rule="nonzero"
         d="M 0,0 H 10 V 18.367188 H 0 Z m 0,0"
         id="path6683" />
    </clipPath>
    <clipPath
       id="clipPath429">
      <path
         clip-rule="nonzero"
         d="m 23,0 h 9 v 18.367188 h -9 z m 0,0"
         id="path8933" />
    </clipPath>
    <clipPath
       id="clipPath6284">
      <path
         clip-rule="nonzero"
         d="m 93,0 h 14.82422 V 15 H 93 Z m 0,0"
         id="path4413" />
    </clipPath>
    <clipPath
       id="clipPath5331">
      <path
         clip-rule="nonzero"
         d="M 0,0 H 10 V 18.367188 H 0 Z m 0,0"
         id="path7800" />
    </clipPath>
    <clipPath
       id="clipPath2155">
      <path
         clip-rule="nonzero"
         d="m 23,0 h 9 v 18.367188 h -9 z m 0,0"
         id="path4983" />
    </clipPath>
    <clipPath
       id="clipPath5128">
      <path
         clip-rule="nonzero"
         d="m 114,5 h 11.67969 V 18.367188 H 114 Z m 0,0"
         id="path6320" />
    </clipPath>
    <marker
       style="overflow:visible"
       id="Arrow5-6"
       refX="0"
       refY="0"
       orient="auto-start-reverse"
       inkscape:stockid="Arrow5"
       markerWidth="5.8874264"
       markerHeight="6.6094756"
       viewBox="0 0 5.8874262 6.6094758"
       inkscape:isstock="true"
       inkscape:collect="always"
       preserveAspectRatio="xMidYMid">
      <path
         transform="scale(0.5)"
         style="fill:context-stroke;fill-rule:evenodd;stroke:context-stroke;stroke-width:1pt"
         d="m 6,0 c -3,1 -7,3 -9,5 0,0 0,-4 2,-5 -2,-1 -2,-5 -2,-5 2,2 6,4 9,5 z"
         id="path8893-0" />
    </marker>
  </defs>
  <g
     inkscape:label="Layer 1"
     inkscape:groupmode="layer"
     id="layer1">
    <path
       style="fill:none;fill-opacity:1;stroke:#000000;stroke-width:0.499999;stroke-dasharray:none;stroke-opacity:1;marker-mid:url(#Arrow5)"
       id="path2615"
       transform="scale(-1,1)"
       sodipodi:type="arc"
       sodipodi:cx="-103.43838"
       sodipodi:cy="146.49167"
       sodipodi:rx="38.609543"
       sodipodi:ry="38.609543"
       sodipodi:start="3.1415927"
       sodipodi:end="0"
       sodipodi:arc-type="arc"
       d="m -142.04792,146.49167 a 38.609543,38.609543 0 0 1 38.60954,-38.60954 38.609543,38.609543 0 0 1 38.609545,38.60954"
       sodipodi:open="true" />
    <g
       clip-path="url(#clipPath5128)"
       id="g72"
       transform="matrix(0.352778,0,0,0.352778,101.92357,104.38134)">
      <g
         fill="#000000"
         fill-opacity="1"
         id="g70">
        <g
           id="use68"
           transform="translate(114.05627,14.349)">
          <path
             d="M 7.8125,-2.515625 C 7.765625,-3.53125 7.71875,-5.125 6.9375,-6.984375 c -0.40625,-1.03125 -1.109375,-2.125 -2.625,-2.125 -2.53125,0 -3.921875,3.25 -3.921875,3.78125 0,0.1875 0.140625,0.1875 0.203125,0.1875 0.1875,0 0.1875,-0.046875 0.296875,-0.3125 0.4375,-1.28125 1.75,-2.296875 3.171875,-2.296875 2.875,0 3.296875,3.203125 3.296875,5.25 0,1.296875 -0.15625,1.734375 -0.28125,2.15625 -0.390625,1.265625 -1.0625,3.828125 -1.0625,4.40625 0,0.171875 0.0625,0.359375 0.21875,0.359375 0.3125,0 0.5,-0.6875 0.734375,-1.515625 0.484375,-1.8125 0.609375,-2.71875 0.71875,-3.546875 0.0625,-0.5 1.234375,-3.90625 2.875,-7.140625 0.140625,-0.34375 0.421875,-0.890625 0.421875,-0.953125 0,-0.03125 -0.01563,-0.171875 -0.203125,-0.171875 -0.04687,0 -0.140625,0 -0.1875,0.09375 -0.03125,0.03125 -0.765625,1.4375 -1.375,2.84375 -0.3125,0.703125 -0.734375,1.625 -1.40625,3.453125 z m 0,0"
             id="path106" />
        </g>
      </g>
    </g>
    <path
       style="fill:none;fill-opacity:1;stroke:#000000;stroke-width:0.499999;stroke-dasharray:none;stroke-opacity:1"
       d="m 90.351773,146.49167 v 0"
       id="path3706" />
    <path
       style="fill:none;fill-opacity:1;stroke:#000000;stroke-width:0.5;stroke-dasharray:none;stroke-opacity:1;marker-mid:url(#Arrow5-6)"
       id="path2615-6"
       sodipodi:type="arc"
       sodipodi:cx="105.54192"
       sodipodi:cy="146.49167"
       sodipodi:rx="15.412474"
       sodipodi:ry="15.412474"
       sodipodi:start="3.1415927"
       sodipodi:end="0"
       sodipodi:open="true"
       sodipodi:arc-type="arc"
       d="m 90.12945,146.49167 a 15.412474,15.412474 0 0 1 15.41247,-15.41247 15.412474,15.412474 0 0 1 15.41248,15.41247" />
    <path
       style="fill:none;fill-opacity:1;stroke:#000000;stroke-width:0.499999;stroke-dasharray:none;stroke-opacity:1;marker-mid:url(#marker3893)"
       d="M 64.828835,146.49167 H 77.590304 90.351773"
       id="path3887"
       sodipodi:nodetypes="ccc" />
    <path
       style="fill:none;fill-opacity:1;stroke:#000000;stroke-width:0.499999;stroke-dasharray:none;stroke-opacity:1;marker-mid:url(#marker3893)"
       d="m 120.9544,146.49167 h 10.54676 10.54676"
       id="path3889"
       sodipodi:nodetypes="ccc" />
    <ellipse
       style="fill:#000000;fill-opacity:1;stroke:none;stroke-width:0.24355;stroke-dasharray:none;stroke-opacity:1"
       id="path3955"
       cx="105.65308"
       cy="146.49167"
       rx="1.3782248"
       ry="1.378225" />
    <g
       id="g4145"
       transform="translate(-37.09068,62.545052)">
      <g
         fill="#000000"
         fill-opacity="1"
         id="g23"
         transform="matrix(0.352778,0,0,0.352778,90.859131,85.595588)">
        <g
           id="use21"
           transform="translate(0,14.119)">
          <path
             d="m 13.609375,-4.75 c 0.359375,0 0.71875,0 0.71875,-0.421875 0,-0.40625 -0.359375,-0.40625 -0.71875,-0.40625 H 2.4375 c -0.34375,0 -0.71875,0 -0.71875,0.40625 0,0.421875 0.375,0.421875 0.71875,0.421875 z m 0,0"
             id="path53" />
        </g>
      </g>
      <g
         fill="#000000"
         fill-opacity="1"
         id="g27"
         transform="matrix(0.352778,0,0,0.352778,90.859131,85.595588)">
        <g
           id="use25"
           transform="translate(16.070999,14.119)">
          <path
             d="m 7.59375,-12.703125 c 0.1875,-0.765625 0.28125,-0.8125 1.078125,-0.8125 h 1.484375 c 1.78125,0 3.109375,0.546875 3.109375,2.15625 0,1.046875 -0.546875,4.09375 -4.6875,4.09375 h -2.34375 z m 2.875,5.6875 c 2.5625,-0.5625 4.5625,-2.21875 4.5625,-4 0,-1.609375 -1.625,-3.09375 -4.5,-3.09375 H 4.9375 c -0.40625,0 -0.59375,0 -0.59375,0.390625 0,0.203125 0.140625,0.203125 0.53125,0.203125 1.234375,0 1.234375,0.171875 1.234375,0.40625 0,0.03125 0,0.15625 -0.078125,0.46875 L 3.25,-1.53125 c -0.1875,0.71875 -0.234375,0.9375 -1.65625,0.9375 -0.484375,0 -0.625,0 -0.625,0.390625 C 0.96875,0 1.203125,0 1.265625,0 1.625,0 2.0625,-0.046875 2.453125,-0.046875 h 2.4375 c 0.375,0 0.8125,0.046875 1.1875,0.046875 0.15625,0 0.390625,0 0.390625,-0.390625 0,-0.203125 -0.1875,-0.203125 -0.5,-0.203125 -1.265625,0 -1.265625,-0.171875 -1.265625,-0.375 0,-0.015625 0,-0.171875 0.046875,-0.328125 l 1.390625,-5.5625 h 2.46875 c 1.96875,0 2.34375,1.234375 2.34375,1.921875 0,0.3125 -0.21875,1.109375 -0.359375,1.65625 -0.21875,0.953125 -0.28125,1.171875 -0.28125,1.5625 0,1.46875 1.1875,2.15625 2.578125,2.15625 1.671875,0 2.390625,-2.046875 2.390625,-2.34375 0,-0.140625 -0.09375,-0.203125 -0.21875,-0.203125 -0.171875,0 -0.203125,0.125 -0.25,0.296875 -0.5,1.46875 -1.34375,1.828125 -1.859375,1.828125 -0.515625,0 -0.84375,-0.21875 -0.84375,-1.15625 0,-0.484375 0.25,-2.375 0.265625,-2.46875 0.09375,-0.765625 0.09375,-0.859375 0.09375,-1.015625 0,-1.515625 -1.21875,-2.15625 -2,-2.390625 z m 0,0"
             id="path57" />
        </g>
      </g>
    </g>
    <g
       fill="#000000"
       fill-opacity="1"
       id="g31"
       transform="matrix(0.352778,0,0,0.352778,90.859131,85.595588)">
      <g
         id="use29"
         transform="translate(144.13324,191.41195)">
        <path
           d="m 7.59375,-12.703125 c 0.1875,-0.765625 0.28125,-0.8125 1.078125,-0.8125 h 1.484375 c 1.78125,0 3.109375,0.546875 3.109375,2.15625 0,1.046875 -0.546875,4.09375 -4.6875,4.09375 h -2.34375 z m 2.875,5.6875 c 2.5625,-0.5625 4.5625,-2.21875 4.5625,-4 0,-1.609375 -1.625,-3.09375 -4.5,-3.09375 H 4.9375 c -0.40625,0 -0.59375,0 -0.59375,0.390625 0,0.203125 0.140625,0.203125 0.53125,0.203125 1.234375,0 1.234375,0.171875 1.234375,0.40625 0,0.03125 0,0.15625 -0.078125,0.46875 L 3.25,-1.53125 c -0.1875,0.71875 -0.234375,0.9375 -1.65625,0.9375 -0.484375,0 -0.625,0 -0.625,0.390625 C 0.96875,0 1.203125,0 1.265625,0 1.625,0 2.0625,-0.046875 2.453125,-0.046875 h 2.4375 c 0.375,0 0.8125,0.046875 1.1875,0.046875 0.15625,0 0.390625,0 0.390625,-0.390625 0,-0.203125 -0.1875,-0.203125 -0.5,-0.203125 -1.265625,0 -1.265625,-0.171875 -1.265625,-0.375 0,-0.015625 0,-0.171875 0.046875,-0.328125 l 1.390625,-5.5625 h 2.46875 c 1.96875,0 2.34375,1.234375 2.34375,1.921875 0,0.3125 -0.21875,1.109375 -0.359375,1.65625 -0.21875,0.953125 -0.28125,1.171875 -0.28125,1.5625 0,1.46875 1.1875,2.15625 2.578125,2.15625 1.671875,0 2.390625,-2.046875 2.390625,-2.34375 0,-0.140625 -0.09375,-0.203125 -0.21875,-0.203125 -0.171875,0 -0.203125,0.125 -0.25,0.296875 -0.5,1.46875 -1.34375,1.828125 -1.859375,1.828125 -0.515625,0 -0.84375,-0.21875 -0.84375,-1.15625 0,-0.484375 0.25,-2.375 0.265625,-2.46875 0.09375,-0.765625 0.09375,-0.859375 0.09375,-1.015625 0,-1.515625 -1.21875,-2.15625 -2,-2.390625 z m 0,0"
           id="path61" />
      </g>
    </g>
    <g
       id="g4153"
       transform="translate(-33.575666,60.781162)">
      <g
         fill="#000000"
         fill-opacity="1"
         id="g35"
         transform="matrix(0.352778,0,0,0.352778,90.859131,85.595588)">
        <g
           id="use33"
           transform="translate(64.277,14.119)">
          <path
             d="m 13.609375,-4.75 c 0.359375,0 0.71875,0 0.71875,-0.421875 0,-0.40625 -0.359375,-0.40625 -0.71875,-0.40625 H 2.4375 c -0.34375,0 -0.71875,0 -0.71875,0.40625 0,0.421875 0.375,0.421875 0.71875,0.421875 z m 0,0"
             id="path65" />
        </g>
      </g>
      <g
         fill="#000000"
         fill-opacity="1"
         id="g39"
         transform="matrix(0.352778,0,0,0.352778,90.859131,85.595588)">
        <g
           id="use37"
           transform="translate(84.940002,14.119)">
          <path
             d="m 8.03125,-8.453125 c -0.640625,0.125 -0.96875,0.578125 -0.96875,1.03125 0,0.5 0.390625,0.671875 0.6875,0.671875 0.578125,0 1.046875,-0.5 1.046875,-1.125 0,-0.65625 -0.640625,-1.234375 -1.671875,-1.234375 -0.828125,0 -1.78125,0.375 -2.640625,1.625 -0.140625,-1.09375 -0.96875,-1.625 -1.796875,-1.625 -0.8125,0 -1.21875,0.625 -1.46875,1.078125 -0.34375,0.734375 -0.65625,1.984375 -0.65625,2.078125 0,0.09375 0.078125,0.1875 0.21875,0.1875 0.171875,0 0.1875,-0.015625 0.3125,-0.5 0.3125,-1.234375 0.703125,-2.4375 1.53125,-2.4375 0.5,0 0.640625,0.359375 0.640625,0.953125 0,0.453125 -0.203125,1.265625 -0.359375,1.90625 l -0.578125,2.234375 c -0.078125,0.390625 -0.296875,1.3125 -0.40625,1.6875 -0.140625,0.53125 -0.375,1.515625 -0.375,1.609375 0,0.296875 0.234375,0.515625 0.546875,0.515625 0.21875,0 0.609375,-0.140625 0.734375,-0.546875 C 2.890625,-0.515625 3.65625,-3.640625 3.78125,-4.109375 3.890625,-4.5625 4,-5 4.109375,-5.453125 4.1875,-5.75 4.28125,-6.078125 4.34375,-6.34375 4.40625,-6.53125 4.953125,-7.546875 5.46875,-8 c 0.25,-0.21875 0.796875,-0.703125 1.640625,-0.703125 0.328125,0 0.65625,0.0625 0.921875,0.25 z m 0,0"
             id="path69" />
        </g>
      </g>
    </g>
    <g
       fill="#000000"
       fill-opacity="1"
       id="g43"
       transform="matrix(0.352778,0,0,0.352778,82.271165,146.37675)">
      <g
         id="use41"
         transform="translate(100.85632,14.119)">
        <path
           d="m 8.03125,-8.453125 c -0.640625,0.125 -0.96875,0.578125 -0.96875,1.03125 0,0.5 0.390625,0.671875 0.6875,0.671875 0.578125,0 1.046875,-0.5 1.046875,-1.125 0,-0.65625 -0.640625,-1.234375 -1.671875,-1.234375 -0.828125,0 -1.78125,0.375 -2.640625,1.625 -0.140625,-1.09375 -0.96875,-1.625 -1.796875,-1.625 -0.8125,0 -1.21875,0.625 -1.46875,1.078125 -0.34375,0.734375 -0.65625,1.984375 -0.65625,2.078125 0,0.09375 0.078125,0.1875 0.21875,0.1875 0.171875,0 0.1875,-0.015625 0.3125,-0.5 0.3125,-1.234375 0.703125,-2.4375 1.53125,-2.4375 0.5,0 0.640625,0.359375 0.640625,0.953125 0,0.453125 -0.203125,1.265625 -0.359375,1.90625 l -0.578125,2.234375 c -0.078125,0.390625 -0.296875,1.3125 -0.40625,1.6875 -0.140625,0.53125 -0.375,1.515625 -0.375,1.609375 0,0.296875 0.234375,0.515625 0.546875,0.515625 0.21875,0 0.609375,-0.140625 0.734375,-0.546875 C 2.890625,-0.515625 3.65625,-3.640625 3.78125,-4.109375 3.890625,-4.5625 4,-5 4.109375,-5.453125 4.1875,-5.75 4.28125,-6.078125 4.34375,-6.34375 4.40625,-6.53125 4.953125,-7.546875 5.46875,-8 c 0.25,-0.21875 0.796875,-0.703125 1.640625,-0.703125 0.328125,0 0.65625,0.0625 0.921875,0.25 z m 0,0"
           id="path73" />
      </g>
    </g>
    <g
       fill="#000000"
       fill-opacity="1"
       id="g47"
       transform="matrix(0.352778,0,0,0.352778,65.560403,147.70665)">
      <g
         id="use45"
         transform="translate(116.774,14.119)">
        <path
           d="m 8.671875,-6.625 c 0,-1.265625 -0.015625,-3.40625 -0.890625,-5.0625 -0.765625,-1.453125 -1.984375,-1.96875 -3.046875,-1.96875 -1,0 -2.25,0.453125 -3.046875,1.9375 -0.8125,1.5625 -0.90625,3.484375 -0.90625,5.09375 0,1.171875 0.03125,2.96875 0.671875,4.53125 0.875,2.140625 2.46875,2.421875 3.28125,2.421875 C 5.6875,0.328125 7.125,-0.0625 7.96875,-2.03125 8.59375,-3.453125 8.671875,-5.125 8.671875,-6.625 Z M 4.734375,0 C 3.40625,0 2.625,-1.140625 2.328125,-2.703125 c -0.21875,-1.21875 -0.21875,-3 -0.21875,-4.15625 0,-1.59375 0,-2.90625 0.265625,-4.171875 0.390625,-1.75 1.546875,-2.296875 2.359375,-2.296875 0.84375,0 1.9375,0.5625 2.328125,2.25 0.265625,1.1875 0.296875,2.5625 0.296875,4.21875 0,1.34375 0,3 -0.25,4.21875 C 6.671875,-0.390625 5.453125,0 4.734375,0 Z m 0,0"
           id="path77" />
      </g>
    </g>
  </g>
</svg>
