<?xml version="1.0" encoding="UTF-8" standalone="no"?>
<!-- Created with Inkscape (http://www.inkscape.org/) -->

<svg
   width="210mm"
   height="297mm"
   viewBox="0 0 210 297"
   version="1.1"
   id="svg5"
   inkscape:version="1.2 (dc2aedaf03, 2022-05-15)"
   sodipodi:docname="thm_1_55.svg"
   xmlns:inkscape="http://www.inkscape.org/namespaces/inkscape"
   xmlns:sodipodi="http://sodipodi.sourceforge.net/DTD/sodipodi-0.dtd"
   xmlns="http://www.w3.org/2000/svg"
   xmlns:svg="http://www.w3.org/2000/svg">
  <sodipodi:namedview
     id="namedview7"
     pagecolor="#ffffff"
     bordercolor="#000000"
     borderopacity="0.25"
     inkscape:showpageshadow="2"
     inkscape:pageopacity="0.0"
     inkscape:pagecheckerboard="0"
     inkscape:deskcolor="#d1d1d1"
     inkscape:document-units="mm"
     showgrid="false"
     inkscape:zoom="2.1459759"
     inkscape:cx="463.19253"
     inkscape:cy="399.8181"
     inkscape:window-width="1888"
     inkscape:window-height="1008"
     inkscape:window-x="13"
     inkscape:window-y="53"
     inkscape:window-maximized="1"
     inkscape:current-layer="layer2">
    <inkscape:grid
       type="xygrid"
       id="grid1235" />
  </sodipodi:namedview>
  <defs
     id="defs2" />
  <g
     inkscape:label="Layer 1"
     inkscape:groupmode="layer"
     id="layer1" />
  <g
     inkscape:groupmode="layer"
     id="layer2"
     inkscape:label="Layer 2">
    <ellipse
       style="fill:#d40000;fill-opacity:0.74902;fill-rule:evenodd;stroke:#000000;stroke-width:0.298304;stroke-dasharray:none;stroke-dashoffset:0;stroke-opacity:1"
       id="path2130-6"
       cx="122.12318"
       cy="71.343971"
       rx="26.29409"
       ry="26.294157" />
    <ellipse
       style="fill:#008000;fill-opacity:0.74902;fill-rule:evenodd;stroke:#000000;stroke-width:0.155248;stroke-dasharray:none;stroke-dashoffset:0;stroke-opacity:1"
       id="path2132-9-0"
       cx="127.29218"
       cy="78.547684"
       rx="10.227229"
       ry="10.228604" />
    <ellipse
       style="fill:#000000;fill-opacity:1;fill-rule:evenodd;stroke:none;stroke-width:0.00959466;stroke-dasharray:none;stroke-dashoffset:0;stroke-opacity:1"
       id="path2132-1-26"
       cx="106.23056"
       cy="69.172165"
       rx="0.63206559"
       ry="0.63215059" />
    <ellipse
       style="fill:#000000;fill-opacity:1;fill-rule:evenodd;stroke:none;stroke-width:0.00959466;stroke-dasharray:none;stroke-dashoffset:0;stroke-opacity:1"
       id="path2132-1-2-1"
       cx="125.50626"
       cy="74.539589"
       rx="0.63206559"
       ry="0.63215059" />
    <path
       style="fill:#000000;fill-opacity:1;fill-rule:evenodd;stroke:#000000;stroke-width:0.251231;stroke-dasharray:none;stroke-dashoffset:0;stroke-opacity:1"
       d="m 106.23056,69.172165 c 25.34071,7.056256 25.34071,7.056256 25.34071,7.056256"
       id="path2191-8" />
    <ellipse
       style="fill:#d40000;fill-opacity:0.74902;fill-rule:evenodd;stroke:#000000;stroke-width:0.298304;stroke-dasharray:none;stroke-dashoffset:0;stroke-opacity:1"
       id="path2130-6-7"
       cx="54.148121"
       cy="110.08723"
       rx="26.29409"
       ry="26.294157" />
    <ellipse
       style="fill:#008000;fill-opacity:0.74902;fill-rule:evenodd;stroke:#000000;stroke-width:0.155248;stroke-dasharray:none;stroke-dashoffset:0;stroke-opacity:1"
       id="path2132-9-0-5"
       cx="59.085388"
       cy="117.9304"
       rx="10.227229"
       ry="10.228604" />
    <ellipse
       style="fill:#000000;fill-opacity:1;fill-rule:evenodd;stroke:none;stroke-width:0.00959466;stroke-dasharray:none;stroke-dashoffset:0;stroke-opacity:1"
       id="path2132-1-26-2"
       cx="50.349194"
       cy="112.61224"
       rx="0.63206559"
       ry="0.63215059" />
    <path
       style="fill:#000000;fill-opacity:1;fill-rule:evenodd;stroke:#000000;stroke-width:0.126499;stroke-dasharray:none;stroke-dashoffset:0;stroke-opacity:1"
       d="m 50.364835,112.67353 c 13.327352,3.40156 13.327352,3.40156 13.327352,3.40156"
       id="path2191-8-8" />
    <ellipse
       style="fill:#d40000;fill-opacity:0.74902;fill-rule:evenodd;stroke:#000000;stroke-width:0.298304;stroke-dasharray:none;stroke-dashoffset:0;stroke-opacity:1"
       id="path2130-6-9"
       cx="151.05974"
       cy="135.927"
       rx="26.29409"
       ry="26.294157" />
    <ellipse
       style="fill:#008000;fill-opacity:0.74902;fill-rule:evenodd;stroke:#000000;stroke-width:0.155248;stroke-dasharray:none;stroke-dashoffset:0;stroke-opacity:1"
       id="path2132-9-0-7"
       cx="156.28191"
       cy="143.03764"
       rx="10.227229"
       ry="10.228604" />
    <g
       id="g2522"
       transform="rotate(-113.22957,144.58183,156.41908)">
      <ellipse
         style="fill:#000000;fill-opacity:1;fill-rule:evenodd;stroke:none;stroke-width:0.00959466;stroke-dasharray:none;stroke-dashoffset:0;stroke-opacity:1"
         id="path2132-1-26-6"
         cx="156.29755"
         cy="163.05038"
         rx="0.63206559"
         ry="0.63215059" />
      <path
         style="fill:#000000;fill-opacity:1;fill-rule:evenodd;stroke:#000000;stroke-width:0.126499;stroke-dasharray:none;stroke-dashoffset:0;stroke-opacity:1"
         d="m 156.29755,163.05038 c 13.32735,3.40155 13.32735,3.40155 13.32735,3.40155"
         id="path2191-8-2" />
    </g>
    <g
       inkscape:label=""
       transform="translate(142.89576,144.41018)"
       id="g297">
      <g
         fill="#000000"
         fill-opacity="1"
         id="g12"
         transform="matrix(0.423333,0,0,0.423333,-39.0869,-32.8324)">
        <g
           id="use10"
           transform="translate(91.925003,81.962997)">
          <path
             d="M 3.71875,-3.765625 C 3.53125,-4.140625 3.25,-4.40625 2.796875,-4.40625 c -1.15625,0 -2.390625,1.46875 -2.390625,2.921875 0,0.9375 0.546875,1.59375 1.3125,1.59375 0.203125,0 0.703125,-0.046875 1.296875,-0.75 0.078125,0.421875 0.4375,0.75 0.90625,0.75 0.359375,0 0.578125,-0.234375 0.75,-0.546875 0.15625,-0.359375 0.296875,-0.96875 0.296875,-0.984375 0,-0.109375 -0.09375,-0.109375 -0.125,-0.109375 -0.09375,0 -0.109375,0.046875 -0.140625,0.1875 -0.171875,0.640625 -0.34375,1.234375 -0.75,1.234375 -0.28125,0 -0.296875,-0.265625 -0.296875,-0.453125 0,-0.21875 0.015625,-0.3125 0.125,-0.75 C 3.890625,-1.71875 3.90625,-1.828125 4,-2.203125 L 4.359375,-3.59375 c 0.0625,-0.28125 0.0625,-0.296875 0.0625,-0.34375 0,-0.171875 -0.109375,-0.265625 -0.28125,-0.265625 -0.25,0 -0.390625,0.21875 -0.421875,0.4375 z M 3.078125,-1.1875 C 3.015625,-1 3.015625,-0.984375 2.875,-0.8125 2.4375,-0.265625 2.03125,-0.109375 1.75,-0.109375 c -0.5,0 -0.640625,-0.546875 -0.640625,-0.9375 0,-0.5 0.3125,-1.71875 0.546875,-2.1875 0.3125,-0.578125 0.75,-0.953125 1.15625,-0.953125 0.640625,0 0.78125,0.8125 0.78125,0.875 0,0.0625 -0.015625,0.125 -0.03125,0.171875 z m 0,0"
             id="path18" />
        </g>
      </g>
    </g>
    <g
       inkscape:label=""
       transform="translate(45.57376,110.06855)"
       id="g358">
      <g
         fill="#000000"
         fill-opacity="1"
         id="g356"
         transform="matrix(0.423333,0,0,0.423333,-39.0869,-32.8324)">
        <g
           id="g354"
           transform="translate(91.925003,81.962997)">
          <path
             d="M 3.71875,-3.765625 C 3.53125,-4.140625 3.25,-4.40625 2.796875,-4.40625 c -1.15625,0 -2.390625,1.46875 -2.390625,2.921875 0,0.9375 0.546875,1.59375 1.3125,1.59375 0.203125,0 0.703125,-0.046875 1.296875,-0.75 0.078125,0.421875 0.4375,0.75 0.90625,0.75 0.359375,0 0.578125,-0.234375 0.75,-0.546875 0.15625,-0.359375 0.296875,-0.96875 0.296875,-0.984375 0,-0.109375 -0.09375,-0.109375 -0.125,-0.109375 -0.09375,0 -0.109375,0.046875 -0.140625,0.1875 -0.171875,0.640625 -0.34375,1.234375 -0.75,1.234375 -0.28125,0 -0.296875,-0.265625 -0.296875,-0.453125 0,-0.21875 0.015625,-0.3125 0.125,-0.75 C 3.890625,-1.71875 3.90625,-1.828125 4,-2.203125 L 4.359375,-3.59375 c 0.0625,-0.28125 0.0625,-0.296875 0.0625,-0.34375 0,-0.171875 -0.109375,-0.265625 -0.28125,-0.265625 -0.25,0 -0.390625,0.21875 -0.421875,0.4375 z M 3.078125,-1.1875 C 3.015625,-1 3.015625,-0.984375 2.875,-0.8125 2.4375,-0.265625 2.03125,-0.109375 1.75,-0.109375 c -0.5,0 -0.640625,-0.546875 -0.640625,-0.9375 0,-0.5 0.3125,-1.71875 0.546875,-2.1875 0.3125,-0.578125 0.75,-0.953125 1.15625,-0.953125 0.640625,0 0.78125,0.8125 0.78125,0.875 0,0.0625 -0.015625,0.125 -0.03125,0.171875 z m 0,0"
             id="path352" />
        </g>
      </g>
    </g>
    <g
       inkscape:label=""
       transform="translate(102.74083,68.540084)"
       id="g427">
      <g
         fill="#000000"
         fill-opacity="1"
         id="g425"
         transform="matrix(0.423333,0,0,0.423333,-39.0869,-32.8324)">
        <g
           id="g423"
           transform="translate(91.925003,81.962997)">
          <path
             d="M 3.71875,-3.765625 C 3.53125,-4.140625 3.25,-4.40625 2.796875,-4.40625 c -1.15625,0 -2.390625,1.46875 -2.390625,2.921875 0,0.9375 0.546875,1.59375 1.3125,1.59375 0.203125,0 0.703125,-0.046875 1.296875,-0.75 0.078125,0.421875 0.4375,0.75 0.90625,0.75 0.359375,0 0.578125,-0.234375 0.75,-0.546875 0.15625,-0.359375 0.296875,-0.96875 0.296875,-0.984375 0,-0.109375 -0.09375,-0.109375 -0.125,-0.109375 -0.09375,0 -0.109375,0.046875 -0.140625,0.1875 -0.171875,0.640625 -0.34375,1.234375 -0.75,1.234375 -0.28125,0 -0.296875,-0.265625 -0.296875,-0.453125 0,-0.21875 0.015625,-0.3125 0.125,-0.75 C 3.890625,-1.71875 3.90625,-1.828125 4,-2.203125 L 4.359375,-3.59375 c 0.0625,-0.28125 0.0625,-0.296875 0.0625,-0.34375 0,-0.171875 -0.109375,-0.265625 -0.28125,-0.265625 -0.25,0 -0.390625,0.21875 -0.421875,0.4375 z M 3.078125,-1.1875 C 3.015625,-1 3.015625,-0.984375 2.875,-0.8125 2.4375,-0.265625 2.03125,-0.109375 1.75,-0.109375 c -0.5,0 -0.640625,-0.546875 -0.640625,-0.9375 0,-0.5 0.3125,-1.71875 0.546875,-2.1875 0.3125,-0.578125 0.75,-0.953125 1.15625,-0.953125 0.640625,0 0.78125,0.8125 0.78125,0.875 0,0.0625 -0.015625,0.125 -0.03125,0.171875 z m 0,0"
             id="path421" />
        </g>
      </g>
    </g>
    <g
       inkscape:label=""
       transform="translate(123.00682,75.57114)"
       id="g558">
      <g
         fill="#000000"
         fill-opacity="1"
         id="g556"
         transform="matrix(0.423333,0,0,0.423333,-39.1134,-31.7674)">
        <g
           id="g554"
           transform="translate(91.925003,81.962997)">
          <path
             d="m 2.375,-6.8125 c 0,0 0,-0.109375 -0.125,-0.109375 -0.21875,0 -0.953125,0.078125 -1.21875,0.109375 -0.078125,0 -0.1875,0.015625 -0.1875,0.1875 0,0.125 0.09375,0.125 0.25,0.125 0.46875,0 0.484375,0.0625 0.484375,0.171875 0,0.0625 -0.078125,0.40625 -0.125,0.609375 l -0.828125,3.25 c -0.109375,0.5 -0.15625,0.671875 -0.15625,1.015625 0,0.9375 0.53125,1.5625 1.265625,1.5625 1.171875,0 2.40625,-1.484375 2.40625,-2.921875 0,-0.90625 -0.53125,-1.59375 -1.328125,-1.59375 -0.453125,0 -0.875,0.296875 -1.171875,0.59375 z M 1.453125,-3.046875 C 1.5,-3.265625 1.5,-3.28125 1.59375,-3.390625 2.078125,-4.03125 2.53125,-4.1875 2.796875,-4.1875 c 0.359375,0 0.625,0.296875 0.625,0.9375 0,0.59375 -0.328125,1.734375 -0.515625,2.109375 -0.328125,0.671875 -0.78125,1.03125 -1.171875,1.03125 -0.34375,0 -0.671875,-0.265625 -0.671875,-1 0,-0.203125 0,-0.390625 0.15625,-1.015625 z m 0,0"
             id="path552" />
        </g>
      </g>
    </g>
  </g>
</svg>
