<svg version="1.1" xmlns="http://www.w3.org/2000/svg" xmlns:xlink="http://www.w3.org/1999/xlink" width="1888" height="955"><defs><clipPath id="sdISpZOttsBn"><path fill="none" stroke="none" d=" M 0 0 L 1888 0 L 1888 955 L 0 955 L 0 0 Z"/></clipPath></defs><g transform="scale(1,1)" clip-path="url(#sdISpZOttsBn)"><g><rect fill="rgb(255,255,255)" stroke="none" x="0" y="0" width="1888" height="955" fill-opacity="1"/><path fill="rgb(204,0,0)" stroke="none" paint-order="stroke fill markers" fill-rule="evenodd" d=" M 760.0417609630379 737.1224409948579 L 1043.7444535654565 737.1224409948579 L 1220.6301891629278 515.3147442573355 L 1157.5004010391162 238.72507047809557 L 901.8931072642472 115.63108541403795 L 646.2858134893781 238.72507047809546 L 583.1560253655666 515.3147442573354 Z" fill-opacity="0.2"/><path fill="none" stroke="rgb(204,0,0)" paint-order="fill stroke markers" d=" M 760.0417609630379 737.1224409948579 L 1043.7444535654565 737.1224409948579 L 1220.6301891629278 515.3147442573355 L 1157.5004010391162 238.72507047809557 L 901.8931072642472 115.63108541403795 L 646.2858134893781 238.72507047809546 L 583.1560253655666 515.3147442573354 Z" stroke-opacity="0.6980392156862745" stroke-linecap="round" stroke-linejoin="round" stroke-miterlimit="10" stroke-width="2.5"/><path fill="rgb(0,0,0)" stroke="none" paint-order="stroke fill markers" d=" M 972.8187804148519 453.419748392437 C 972.8187804148519 436.732924864313 966.9352368487407 420.5804035384494 956.2028568016159 407.80284125204963 L 901.8931072642472 453.419748392437 Z" fill-opacity="0.2"/><path fill="none" stroke="rgb(0,0,0)" paint-order="fill stroke markers" d=" M 972.8187804148519 453.419748392437 C 972.8187804148519 436.732924864313 966.9352368487407 420.5804035384494 956.2028568016159 407.80284125204963 L 901.8931072642472 453.419748392437 Z" stroke-opacity="0.6980392156862745" stroke-linecap="round" stroke-linejoin="round" stroke-miterlimit="10" stroke-width="2.5"/><g transform="scale(19,19)"><g transform="translate(51.53660614799368,21.749263157894735)"><path fill="rgb(0,0,0)" stroke="none" paint-order="stroke fill markers" d=" M 0.449 -0.17400000000000002 L 0.449 -0.17400000000000002 L 0.421 0 L 0.05 0 Q 0.05 -0.025 0.056 -0.032 L 0.061 -0.037 L 0.253 -0.251 Q 0.358 -0.369 0.358 -0.47200000000000003 Q 0.358 -0.561 0.304 -0.607 L 0.303 -0.608 L 0.302 -0.608 Q 0.27 -0.635 0.224 -0.635 Q 0.152 -0.635 0.109 -0.5730000000000001 Q 0.097 -0.555 0.089 -0.533 Q 0.092 -0.534 0.10200000000000001 -0.534 Q 0.14200000000000002 -0.534 0.153 -0.498 L 0.153 -0.497 Q 0.155 -0.49 0.155 -0.482 Q 0.155 -0.442 0.117 -0.431 Q 0.109 -0.429 0.10300000000000001 -0.429 Q 0.066 -0.429 0.054 -0.46 Q 0.05 -0.47100000000000003 0.05 -0.485 Q 0.05 -0.562 0.109 -0.617 Q 0.162 -0.666 0.23700000000000002 -0.666 Q 0.34700000000000003 -0.666 0.40800000000000003 -0.592 Q 0.443 -0.549 0.448 -0.49 Q 0.449 -0.481 0.449 -0.47200000000000003 Q 0.449 -0.399 0.394 -0.333 Q 0.365 -0.299 0.304 -0.243 L 0.243 -0.189 L 0.233 -0.18 L 0.127 -0.077 L 0.307 -0.077 Q 0.395 -0.077 0.402 -0.085 Q 0.41200000000000003 -0.099 0.424 -0.17400000000000002 L 0.449 -0.17400000000000002 Z"/></g><g transform="translate(52.03660614799368,21.749263157894735)"><path fill="rgb(0,0,0)" stroke="none" paint-order="stroke fill markers" d=" M 0.265 -0.373 L 0.265 -0.373 L 0.209 -0.152 Q 0.192 -0.088 0.182 -0.054 Q 0.166 -0.005 0.152 0.005 L 0.152 0.006 Q 0.14300000000000002 0.011 0.132 0.011 Q 0.109 0.011 0.10400000000000001 -0.009000000000000001 Q 0.10300000000000001 -0.012 0.10300000000000001 -0.016 Q 0.10300000000000001 -0.025 0.111 -0.04 Q 0.20500000000000002 -0.243 0.23900000000000002 -0.373 L 0.182 -0.373 Q 0.10400000000000001 -0.373 0.055 -0.296 Q 0.046 -0.28400000000000003 0.039 -0.28400000000000003 Q 0.027 -0.28400000000000003 0.027 -0.294 Q 0.027 -0.305 0.063 -0.354 Q 0.07 -0.362 0.076 -0.37 Q 0.079 -0.374 0.083 -0.378 Q 0.085 -0.381 0.088 -0.384 Q 0.132 -0.431 0.192 -0.431 L 0.527 -0.431 Q 0.561 -0.431 0.5660000000000001 -0.41600000000000004 L 0.5660000000000001 -0.41500000000000004 Q 0.5670000000000001 -0.41200000000000003 0.5670000000000001 -0.40700000000000003 Q 0.5670000000000001 -0.373 0.518 -0.373 L 0.404 -0.373 Q 0.386 -0.28800000000000003 0.386 -0.214 Q 0.386 -0.121 0.41500000000000004 -0.049 Q 0.421 -0.035 0.421 -0.027 Q 0.421 -0.004 0.396 0.007 Q 0.388 0.011 0.38 0.011 Q 0.36 0.011 0.35000000000000003 -0.017 Q 0.34700000000000003 -0.026000000000000002 0.34400000000000003 -0.039 Q 0.336 -0.073 0.336 -0.115 Q 0.336 -0.181 0.363 -0.306 L 0.378 -0.373 L 0.265 -0.373 Z"/></g><rect fill="rgb(0,0,0)" stroke="none" x="51.53660614799368" y="22.155771657894736" width="1.1059999999999999" height="0.039999"/><g transform="translate(51.83960614799368,23.111722157894736)"><path fill="rgb(0,0,0)" stroke="none" paint-order="stroke fill markers" d=" M 0.47600000000000003 -0.609 L 0.341 -0.419 Q 0.298 -0.359 0.279 -0.248 Q 0.268 -0.17400000000000002 0.268 -0.084 L 0.268 -0.033 Q 0.268 0.022 0.222 0.022 Q 0.176 0.022 0.176 -0.033 Q 0.176 -0.2 0.273 -0.368 L 0.299 -0.40900000000000003 L 0.41100000000000003 -0.5670000000000001 L 0.20400000000000001 -0.5670000000000001 Q 0.113 -0.5670000000000001 0.106 -0.561 Q 0.096 -0.552 0.081 -0.47000000000000003 L 0.056 -0.47000000000000003 L 0.089 -0.676 L 0.114 -0.676 Q 0.11800000000000001 -0.659 0.132 -0.653 L 0.133 -0.653 L 0.133 -0.653 Q 0.159 -0.644 0.242 -0.644 L 0.485 -0.644 Q 0.485 -0.621 0.47600000000000003 -0.609 Z"/></g></g><path fill="none" stroke="rgb(204,0,0)" paint-order="fill stroke markers" d=" M 760.0417609630379 737.1224409948579 L 1043.7444535654565 737.1224409948579" stroke-opacity="0.6980392156862745" stroke-linecap="round" stroke-linejoin="round" stroke-miterlimit="10" stroke-width="2.5"/><path fill="none" stroke="rgb(204,0,0)" paint-order="fill stroke markers" d=" M 1043.7444535654565 737.1224409948579 L 1220.6301891629278 515.3147442573355" stroke-opacity="0.6980392156862745" stroke-linecap="round" stroke-linejoin="round" stroke-miterlimit="10" stroke-width="2.5"/><path fill="none" stroke="rgb(204,0,0)" paint-order="fill stroke markers" d=" M 1220.6301891629278 515.3147442573355 L 1157.5004010391162 238.72507047809557" stroke-opacity="0.6980392156862745" stroke-linecap="round" stroke-linejoin="round" stroke-miterlimit="10" stroke-width="2.5"/><path fill="none" stroke="rgb(204,0,0)" paint-order="fill stroke markers" d=" M 1157.5004010391162 238.72507047809557 L 901.8931072642472 115.63108541403795" stroke-opacity="0.6980392156862745" stroke-linecap="round" stroke-linejoin="round" stroke-miterlimit="10" stroke-width="2.5"/><path fill="none" stroke="rgb(204,0,0)" paint-order="fill stroke markers" d=" M 901.8931072642472 115.63108541403795 L 646.2858134893781 238.72507047809546" stroke-opacity="0.6980392156862745" stroke-linecap="round" stroke-linejoin="round" stroke-miterlimit="10" stroke-width="2.5"/><path fill="none" stroke="rgb(204,0,0)" paint-order="fill stroke markers" d=" M 646.2858134893781 238.72507047809546 L 583.1560253655666 515.3147442573354" stroke-opacity="0.6980392156862745" stroke-linecap="round" stroke-linejoin="round" stroke-miterlimit="10" stroke-width="2.5"/><path fill="none" stroke="rgb(204,0,0)" paint-order="fill stroke markers" d=" M 583.1560253655666 515.3147442573354 L 760.0417609630379 737.1224409948579" stroke-opacity="0.6980392156862745" stroke-linecap="round" stroke-linejoin="round" stroke-miterlimit="10" stroke-width="2.5"/><path fill="none" stroke="rgb(0,0,0)" paint-order="fill stroke markers" d=" M 901.8931072642472 27.865709488805578 L 901.8931072642472 878.9737872960684" stroke-opacity="0.6980392156862745" stroke-linejoin="round" stroke-miterlimit="10" stroke-width="2.5" stroke-dasharray="10.5,8"/><g transform="scale(19,19)"><g transform="translate(46.1578947368421,19.141315789473683)"><path fill="rgb(0,0,0)" stroke="none" paint-order="stroke fill markers" d=" M 0.20600000000000002 -0.4 L 0.132 -0.105 Q 0.126 -0.08 0.126 -0.057 Q 0.126 -0.011 0.157 -0.011 Q 0.223 -0.011 0.273 -0.108 L 0.28700000000000003 -0.139 Q 0.293 -0.152 0.302 -0.153 Q 0.314 -0.153 0.314 -0.14300000000000002 Q 0.314 -0.13 0.28800000000000003 -0.08600000000000001 Q 0.23 0.011 0.155 0.011 Q 0.097 0.011 0.073 -0.037 Q 0.063 -0.057 0.063 -0.081 Q 0.063 -0.1 0.124 -0.34 L 0.139 -0.4 L 0.051000000000000004 -0.4 Q 0.026000000000000002 -0.4 0.024 -0.40800000000000003 L 0.023 -0.40800000000000003 L 0.023 -0.41200000000000003 Q 0.023 -0.429 0.039 -0.431 L 0.053 -0.431 L 0.147 -0.431 L 0.186 -0.59 Q 0.195 -0.625 0.226 -0.626 Q 0.252 -0.626 0.255 -0.599 Q 0.255 -0.593 0.214 -0.431 L 0.302 -0.431 Q 0.328 -0.431 0.33 -0.42 Q 0.33 -0.402 0.314 -0.4 L 0.313 -0.4 L 0.3 -0.4 L 0.20600000000000002 -0.4 Z"/></g></g><path fill="none" stroke="rgb(0,0,0)" paint-order="fill stroke markers" d=" M 901.8931072642472 453.419748392437 L 1157.5004010391162 238.72507047809557" stroke-opacity="0.6980392156862745" stroke-linejoin="round" stroke-miterlimit="10" stroke-width="2.5" stroke-dasharray="10.5,4,2.5,4"/><g transform="scale(19,19)"><g transform="translate(58.63157894736842,16.220473684210525)"><path fill="rgb(0,0,0)" stroke="none" paint-order="stroke fill markers" d=" M 0.088 -0.059000000000000004 L 0.088 -0.059000000000000004 L 0.146 -0.29 Q 0.162 -0.354 0.162 -0.374 Q 0.162 -0.42 0.131 -0.42 Q 0.09 -0.42 0.064 -0.325 Q 0.061 -0.314 0.058 -0.301 Q 0.047 -0.279 0.041 -0.278 Q 0.029 -0.278 0.029 -0.28800000000000003 Q 0.029 -0.304 0.047 -0.355 Q 0.054 -0.373 0.06 -0.385 Q 0.084 -0.434 0.12 -0.441 Q 0.127 -0.442 0.134 -0.442 Q 0.19 -0.442 0.215 -0.394 Q 0.221 -0.383 0.224 -0.37 Q 0.225 -0.368 0.225 -0.365 Q 0.28300000000000003 -0.437 0.353 -0.442 Q 0.40900000000000003 -0.442 0.429 -0.403 Q 0.436 -0.391 0.436 -0.377 Q 0.436 -0.338 0.403 -0.323 Q 0.392 -0.318 0.381 -0.318 Q 0.35000000000000003 -0.318 0.34400000000000003 -0.34500000000000003 Q 0.343 -0.34900000000000003 0.343 -0.353 Q 0.343 -0.386 0.377 -0.402 L 0.378 -0.403 Q 0.386 -0.406 0.395 -0.40800000000000003 L 0.375 -0.417 Q 0.362 -0.419 0.353 -0.42 Q 0.311 -0.42 0.273 -0.387 Q 0.242 -0.359 0.22 -0.313 Q 0.218 -0.308 0.217 -0.305 L 0.185 -0.17500000000000002 L 0.145 -0.017 Q 0.136 0.009000000000000001 0.108 0.011 Q 0.083 0.006 0.079 -0.016 Q 0.079 -0.014 0.088 -0.059000000000000004 Z"/></g></g><path fill="none" stroke="rgb(0,0,0)" paint-order="fill stroke markers" d=" M 901.8931072642472 453.419748392437 L 1206.641237885378 454.02514412779203" stroke-opacity="0.6980392156862745" stroke-linejoin="round" stroke-miterlimit="10" stroke-width="2.5" stroke-dasharray="2.5,3"/><path fill="rgb(204,0,0)" stroke="none" paint-order="stroke fill markers" d=" M 765.0417609630379 737.1224409948579 C 765.0417609630379 739.8838647440119 762.8031847121919 742.1224409948579 760.0417609630379 742.1224409948579 C 757.2803372138839 742.1224409948579 755.0417609630379 739.8838647440119 755.0417609630379 737.1224409948579 C 755.0417609630379 734.3610172457039 757.2803372138839 732.1224409948579 760.0417609630379 732.1224409948579 C 762.8031847121919 732.1224409948579 765.0417609630379 734.3610172457039 765.0417609630379 737.1224409948579 Z" fill-opacity="1"/><path fill="none" stroke="rgb(0,0,0)" paint-order="fill stroke markers" d=" M 765.0417609630379 737.1224409948579 C 765.0417609630379 739.8838647440119 762.8031847121919 742.1224409948579 760.0417609630379 742.1224409948579 C 757.2803372138839 742.1224409948579 755.0417609630379 739.8838647440119 755.0417609630379 737.1224409948579 C 755.0417609630379 734.3610172457039 757.2803372138839 732.1224409948579 760.0417609630379 732.1224409948579 C 762.8031847121919 732.1224409948579 765.0417609630379 734.3610172457039 765.0417609630379 737.1224409948579 Z" stroke-opacity="1" stroke-linecap="round" stroke-linejoin="round" stroke-miterlimit="10"/><path fill="rgb(204,0,0)" stroke="none" paint-order="stroke fill markers" d=" M 1048.7444535654565 737.1224409948579 C 1048.7444535654565 739.8838647440119 1046.5058773146104 742.1224409948579 1043.7444535654565 742.1224409948579 C 1040.9830298163026 742.1224409948579 1038.7444535654565 739.8838647440119 1038.7444535654565 737.1224409948579 C 1038.7444535654565 734.3610172457039 1040.9830298163026 732.1224409948579 1043.7444535654565 732.1224409948579 C 1046.5058773146104 732.1224409948579 1048.7444535654565 734.3610172457039 1048.7444535654565 737.1224409948579 Z" fill-opacity="1"/><path fill="none" stroke="rgb(0,0,0)" paint-order="fill stroke markers" d=" M 1048.7444535654565 737.1224409948579 C 1048.7444535654565 739.8838647440119 1046.5058773146104 742.1224409948579 1043.7444535654565 742.1224409948579 C 1040.9830298163026 742.1224409948579 1038.7444535654565 739.8838647440119 1038.7444535654565 737.1224409948579 C 1038.7444535654565 734.3610172457039 1040.9830298163026 732.1224409948579 1043.7444535654565 732.1224409948579 C 1046.5058773146104 732.1224409948579 1048.7444535654565 734.3610172457039 1048.7444535654565 737.1224409948579 Z" stroke-opacity="1" stroke-linecap="round" stroke-linejoin="round" stroke-miterlimit="10"/><path fill="rgb(204,0,0)" stroke="none" paint-order="stroke fill markers" d=" M 1225.6301891629278 515.3147442573355 C 1225.6301891629278 518.0761680064895 1223.3916129120817 520.3147442573355 1220.6301891629278 520.3147442573355 C 1217.8687654137739 520.3147442573355 1215.6301891629278 518.0761680064895 1215.6301891629278 515.3147442573355 C 1215.6301891629278 512.5533205081815 1217.8687654137739 510.3147442573355 1220.6301891629278 510.3147442573355 C 1223.3916129120817 510.3147442573355 1225.6301891629278 512.5533205081815 1225.6301891629278 515.3147442573355 Z" fill-opacity="1"/><path fill="none" stroke="rgb(0,0,0)" paint-order="fill stroke markers" d=" M 1225.6301891629278 515.3147442573355 C 1225.6301891629278 518.0761680064895 1223.3916129120817 520.3147442573355 1220.6301891629278 520.3147442573355 C 1217.8687654137739 520.3147442573355 1215.6301891629278 518.0761680064895 1215.6301891629278 515.3147442573355 C 1215.6301891629278 512.5533205081815 1217.8687654137739 510.3147442573355 1220.6301891629278 510.3147442573355 C 1223.3916129120817 510.3147442573355 1225.6301891629278 512.5533205081815 1225.6301891629278 515.3147442573355 Z" stroke-opacity="1" stroke-linecap="round" stroke-linejoin="round" stroke-miterlimit="10"/><path fill="rgb(204,0,0)" stroke="none" paint-order="stroke fill markers" d=" M 1162.5004010391162 238.72507047809557 C 1162.5004010391162 241.48649422724955 1160.2618247882701 243.72507047809557 1157.5004010391162 243.72507047809557 C 1154.7389772899623 243.72507047809557 1152.5004010391162 241.48649422724955 1152.5004010391162 238.72507047809557 C 1152.5004010391162 235.9636467289416 1154.7389772899623 233.72507047809557 1157.5004010391162 233.72507047809557 C 1160.2618247882701 233.72507047809557 1162.5004010391162 235.9636467289416 1162.5004010391162 238.72507047809557 Z" fill-opacity="1"/><path fill="none" stroke="rgb(0,0,0)" paint-order="fill stroke markers" d=" M 1162.5004010391162 238.72507047809557 C 1162.5004010391162 241.48649422724955 1160.2618247882701 243.72507047809557 1157.5004010391162 243.72507047809557 C 1154.7389772899623 243.72507047809557 1152.5004010391162 241.48649422724955 1152.5004010391162 238.72507047809557 C 1152.5004010391162 235.9636467289416 1154.7389772899623 233.72507047809557 1157.5004010391162 233.72507047809557 C 1160.2618247882701 233.72507047809557 1162.5004010391162 235.9636467289416 1162.5004010391162 238.72507047809557 Z" stroke-opacity="1" stroke-linecap="round" stroke-linejoin="round" stroke-miterlimit="10"/><path fill="rgb(204,0,0)" stroke="none" paint-order="stroke fill markers" d=" M 906.8931072642472 115.63108541403795 C 906.8931072642472 118.39250916319192 904.6545310134012 120.63108541403795 901.8931072642472 120.63108541403795 C 899.1316835150932 120.63108541403795 896.8931072642472 118.39250916319192 896.8931072642472 115.63108541403795 C 896.8931072642472 112.86966166488399 899.1316835150932 110.63108541403795 901.8931072642472 110.63108541403795 C 904.6545310134012 110.63108541403795 906.8931072642472 112.86966166488399 906.8931072642472 115.63108541403795 Z" fill-opacity="1"/><path fill="none" stroke="rgb(0,0,0)" paint-order="fill stroke markers" d=" M 906.8931072642472 115.63108541403795 C 906.8931072642472 118.39250916319192 904.6545310134012 120.63108541403795 901.8931072642472 120.63108541403795 C 899.1316835150932 120.63108541403795 896.8931072642472 118.39250916319192 896.8931072642472 115.63108541403795 C 896.8931072642472 112.86966166488399 899.1316835150932 110.63108541403795 901.8931072642472 110.63108541403795 C 904.6545310134012 110.63108541403795 906.8931072642472 112.86966166488399 906.8931072642472 115.63108541403795 Z" stroke-opacity="1" stroke-linecap="round" stroke-linejoin="round" stroke-miterlimit="10"/><path fill="rgb(204,0,0)" stroke="none" paint-order="stroke fill markers" d=" M 651.2858134893781 238.72507047809546 C 651.2858134893781 241.48649422724944 649.0472372385321 243.72507047809546 646.2858134893781 243.72507047809546 C 643.5243897402241 243.72507047809546 641.2858134893781 241.48649422724944 641.2858134893781 238.72507047809546 C 641.2858134893781 235.96364672894148 643.5243897402241 233.72507047809546 646.2858134893781 233.72507047809546 C 649.0472372385321 233.72507047809546 651.2858134893781 235.96364672894148 651.2858134893781 238.72507047809546 Z" fill-opacity="1"/><path fill="none" stroke="rgb(0,0,0)" paint-order="fill stroke markers" d=" M 651.2858134893781 238.72507047809546 C 651.2858134893781 241.48649422724944 649.0472372385321 243.72507047809546 646.2858134893781 243.72507047809546 C 643.5243897402241 243.72507047809546 641.2858134893781 241.48649422724944 641.2858134893781 238.72507047809546 C 641.2858134893781 235.96364672894148 643.5243897402241 233.72507047809546 646.2858134893781 233.72507047809546 C 649.0472372385321 233.72507047809546 651.2858134893781 235.96364672894148 651.2858134893781 238.72507047809546 Z" stroke-opacity="1" stroke-linecap="round" stroke-linejoin="round" stroke-miterlimit="10"/><path fill="rgb(204,0,0)" stroke="none" paint-order="stroke fill markers" d=" M 588.1560253655666 515.3147442573354 C 588.1560253655666 518.0761680064894 585.9174491147206 520.3147442573354 583.1560253655666 520.3147442573354 C 580.3946016164126 520.3147442573354 578.1560253655666 518.0761680064894 578.1560253655666 515.3147442573354 C 578.1560253655666 512.5533205081814 580.3946016164126 510.3147442573354 583.1560253655666 510.3147442573354 C 585.9174491147206 510.3147442573354 588.1560253655666 512.5533205081814 588.1560253655666 515.3147442573354 Z" fill-opacity="1"/><path fill="none" stroke="rgb(0,0,0)" paint-order="fill stroke markers" d=" M 588.1560253655666 515.3147442573354 C 588.1560253655666 518.0761680064894 585.9174491147206 520.3147442573354 583.1560253655666 520.3147442573354 C 580.3946016164126 520.3147442573354 578.1560253655666 518.0761680064894 578.1560253655666 515.3147442573354 C 578.1560253655666 512.5533205081814 580.3946016164126 510.3147442573354 583.1560253655666 510.3147442573354 C 585.9174491147206 510.3147442573354 588.1560253655666 512.5533205081814 588.1560253655666 515.3147442573354 Z" stroke-opacity="1" stroke-linecap="round" stroke-linejoin="round" stroke-miterlimit="10"/></g></g></svg>