<?xml version="1.0" encoding="UTF-8" standalone="no"?>
<!-- Created with Inkscape (http://www.inkscape.org/) -->

<svg
   width="210mm"
   height="297mm"
   viewBox="0 0 210 297"
   version="1.1"
   id="svg5"
   sodipodi:docname="open_balls.svg"
   inkscape:version="1.2 (dc2aedaf03, 2022-05-15)"
   xmlns:inkscape="http://www.inkscape.org/namespaces/inkscape"
   xmlns:sodipodi="http://sodipodi.sourceforge.net/DTD/sodipodi-0.dtd"
   xmlns="http://www.w3.org/2000/svg"
   xmlns:svg="http://www.w3.org/2000/svg">
  <sodipodi:namedview
     id="namedview7"
     pagecolor="#ffffff"
     bordercolor="#000000"
     borderopacity="0.25"
     inkscape:showpageshadow="2"
     inkscape:pageopacity="0.0"
     inkscape:pagecheckerboard="0"
     inkscape:deskcolor="#d1d1d1"
     inkscape:document-units="mm"
     showgrid="false"
     inkscape:zoom="1.6672882"
     inkscape:cx="318.18134"
     inkscape:cy="262.10225"
     inkscape:window-width="1888"
     inkscape:window-height="1008"
     inkscape:window-x="13"
     inkscape:window-y="53"
     inkscape:window-maximized="0"
     inkscape:current-layer="layer1" />
  <defs
     id="defs2">
    <clipPath
       id="clip-0">
      <path
         clip-rule="nonzero"
         d="M 0,0 H 4 V 2.574219 H 0 Z m 0,0"
         id="path8" />
    </clipPath>
    <clipPath
       id="clipPath2704">
      <path
         clip-rule="nonzero"
         d="M 0,0 H 4 V 3.734375 H 0 Z m 0,0"
         id="path2702" />
    </clipPath>
    <clipPath
       id="clipPath2807">
      <path
         clip-rule="nonzero"
         d="M 0,0 H 5 V 6.226562 H 0 Z m 0,0"
         id="path2805" />
    </clipPath>
    <clipPath
       id="clipPath2868">
      <path
         clip-rule="nonzero"
         d="M 0,0 H 3.816406 V 3.113281 H 0 Z m 0,0"
         id="path2866" />
    </clipPath>
    <clipPath
       id="clipPath2933">
      <path
         clip-rule="nonzero"
         d="M 0,0 H 3.816406 V 3.113281 H 0 Z m 0,0"
         id="path2931" />
    </clipPath>
    <clipPath
       id="clipPath2998">
      <path
         clip-rule="nonzero"
         d="M 0,0 H 8.835938 V 10.761719 H 0 Z m 0,0"
         id="path2996" />
    </clipPath>
    <clipPath
       id="clipPath3063">
      <path
         clip-rule="nonzero"
         d="M 0,0 H 3.5625 V 3.113281 H 0 Z m 0,0"
         id="path3061" />
    </clipPath>
    <clipPath
       id="clipPath3132">
      <path
         clip-rule="nonzero"
         d="M 0,0 H 3.816406 V 3.113281 H 0 Z m 0,0"
         id="path3130" />
    </clipPath>
    <clipPath
       id="clipPath3205">
      <path
         clip-rule="nonzero"
         d="M 0,0 H 3.816406 V 3.113281 H 0 Z m 0,0"
         id="path3203" />
    </clipPath>
    <clipPath
       id="clipPath3370">
      <path
         clip-rule="nonzero"
         d="M 0,0 H 4 V 4.289062 H 0 Z m 0,0"
         id="path3368" />
    </clipPath>
    <clipPath
       id="clipPath3473">
      <path
         clip-rule="nonzero"
         d="M 0,0 H 3 V 2.144531 H 0 Z m 0,0"
         id="path3471" />
    </clipPath>
    <clipPath
       id="clipPath3585">
      <path
         clip-rule="nonzero"
         d="M 0,0 H 3 V 3.460938 H 0 Z m 0,0"
         id="path3583" />
    </clipPath>
  </defs>
  <g
     inkscape:label="Layer 1"
     inkscape:groupmode="layer"
     id="layer1">
    <ellipse
       style="fill:#d40000;fill-opacity:0.75;fill-rule:evenodd;stroke:#000000;stroke-width:0.48291;stroke-dasharray:1.44873, 1.44873;stroke-dashoffset:0;stroke-opacity:1"
       id="path739"
       cx="105.44599"
       cy="74.963455"
       rx="49.758919"
       ry="49.758545" />
    <ellipse
       style="fill:#008000;fill-opacity:0.75;fill-rule:evenodd;stroke:#000000;stroke-width:0.443748;stroke-dasharray:1.33124, 1.33124;stroke-dashoffset:0;stroke-opacity:1"
       id="path2533"
       cx="126.20196"
       cy="57.399734"
       rx="12.278126"
       ry="12.28804"
       transform="rotate(-4.5105372)" />
    <circle
       style="fill:#000000;fill-opacity:1;fill-rule:evenodd;stroke:none;stroke-width:0.0696587;stroke-dasharray:0.208976, 0.208976;stroke-dashoffset:0;stroke-opacity:1"
       id="path1471"
       cx="105.44637"
       cy="75.194336"
       r="1.5" />
    <path
       style="fill:#000000;fill-opacity:1;fill-rule:evenodd;stroke:#000000;stroke-width:0.460999;stroke-dasharray:none;stroke-dashoffset:0;stroke-opacity:1"
       d="m 105.44637,75.194334 h 49.75892"
       id="path2261" />
    <path
       style="fill:#008000;fill-opacity:0.75;fill-rule:evenodd;stroke:#000000;stroke-width:0.460999;stroke-dasharray:1.38299704,1.38299704;stroke-dashoffset:0;stroke-opacity:1"
       d="M 130.32515,47.29713 105.40786,75.288885"
       id="path2637" />
    <path
       style="fill:#008000;fill-opacity:0.75;fill-rule:evenodd;stroke:#000000;stroke-width:0.460999;stroke-dasharray:none;stroke-dashoffset:0;stroke-opacity:1"
       d="m 130.32515,47.29713 8.167,-9.174882"
       id="path2639" />
    <g
       inkscape:label=""
       transform="matrix(1.6448187,0,0,1.6448187,100.75637,76.411409)"
       id="g4090">
      <g
         fill="#000000"
         fill-opacity="1"
         id="g12"
         transform="matrix(0.352778,0,0,0.352778,-32.5338,-27.3603)">
        <g
           id="use10"
           transform="translate(91.925003,81.962997)">
          <path
             d="M 3.328125,-3.015625 C 3.390625,-3.265625 3.625,-4.1875 4.3125,-4.1875 c 0.046875,0 0.296875,0 0.5,0.125 C 4.53125,-4 4.34375,-3.765625 4.34375,-3.515625 c 0,0.15625 0.109375,0.34375 0.375,0.34375 0.21875,0 0.53125,-0.171875 0.53125,-0.578125 0,-0.515625 -0.578125,-0.65625 -0.921875,-0.65625 -0.578125,0 -0.921875,0.53125 -1.046875,0.75 -0.25,-0.65625 -0.78125,-0.75 -1.078125,-0.75 -1.03125,0 -1.609375,1.28125 -1.609375,1.53125 0,0.109375 0.109375,0.109375 0.125,0.109375 0.078125,0 0.109375,-0.03125 0.125,-0.109375 0.34375,-1.0625 1,-1.3125 1.34375,-1.3125 0.1875,0 0.53125,0.09375 0.53125,0.671875 0,0.3125 -0.171875,0.96875 -0.53125,2.375 -0.15625,0.609375 -0.515625,1.03125 -0.953125,1.03125 -0.0625,0 -0.28125,0 -0.5,-0.125 0.25,-0.0625 0.46875,-0.265625 0.46875,-0.546875 0,-0.265625 -0.21875,-0.34375 -0.359375,-0.34375 -0.3125,0 -0.546875,0.25 -0.546875,0.578125 0,0.453125 0.484375,0.65625 0.921875,0.65625 0.671875,0 1.03125,-0.703125 1.046875,-0.75 0.125,0.359375 0.484375,0.75 1.078125,0.75 1.03125,0 1.59375,-1.28125 1.59375,-1.53125 0,-0.109375 -0.078125,-0.109375 -0.109375,-0.109375 -0.09375,0 -0.109375,0.046875 -0.140625,0.109375 -0.328125,1.078125 -1,1.3125 -1.3125,1.3125 -0.390625,0 -0.546875,-0.3125 -0.546875,-0.65625 0,-0.21875 0.046875,-0.4375 0.15625,-0.875 z m 0,0"
             id="path18" />
        </g>
      </g>
    </g>
    <g
       inkscape:label=""
       transform="matrix(1.4791196,0,0,1.4791196,132.34217,47.886953)"
       id="g4182">
      <g
         fill="#000000"
         fill-opacity="1"
         id="g4180"
         transform="matrix(0.352778,0,0,0.352778,-32.5338,-27.3603)">
        <g
           id="g4178"
           transform="translate(91.925003,81.962997)">
          <path
             d="m 4.84375,-3.796875 c 0.046875,-0.140625 0.046875,-0.15625 0.046875,-0.234375 0,-0.171875 -0.140625,-0.265625 -0.296875,-0.265625 -0.09375,0 -0.25,0.0625 -0.34375,0.203125 -0.015625,0.0625 -0.109375,0.359375 -0.140625,0.546875 -0.078125,0.25 -0.140625,0.53125 -0.203125,0.796875 l -0.453125,1.796875 c -0.03125,0.140625 -0.46875,0.84375 -1.125,0.84375 -0.5,0 -0.609375,-0.4375 -0.609375,-0.8125 C 1.71875,-1.375 1.890625,-2 2.21875,-2.875 2.375,-3.28125 2.421875,-3.390625 2.421875,-3.59375 c 0,-0.4375 -0.3125,-0.8125 -0.8125,-0.8125 -0.953125,0 -1.3125,1.453125 -1.3125,1.53125 0,0.109375 0.09375,0.109375 0.109375,0.109375 0.109375,0 0.109375,-0.03125 0.15625,-0.1875 0.28125,-0.9375 0.671875,-1.234375 1.015625,-1.234375 0.078125,0 0.25,0 0.25,0.3125 0,0.25 -0.109375,0.515625 -0.171875,0.703125 -0.40625,1.0625 -0.578125,1.625 -0.578125,2.09375 0,0.890625 0.625,1.1875 1.21875,1.1875 0.390625,0 0.71875,-0.171875 1,-0.453125 -0.125,0.515625 -0.25,1.015625 -0.640625,1.546875 -0.265625,0.328125 -0.640625,0.625 -1.09375,0.625 -0.140625,0 -0.59375,-0.03125 -0.765625,-0.421875 0.15625,0 0.296875,0 0.421875,-0.125 C 1.328125,1.203125 1.421875,1.0625 1.421875,0.875 1.421875,0.5625 1.15625,0.53125 1.0625,0.53125 0.828125,0.53125 0.5,0.6875 0.5,1.171875 c 0,0.5 0.4375,0.875 1.0625,0.875 1.015625,0 2.046875,-0.90625 2.328125,-2.03125 z m 0,0"
             id="path4176" />
        </g>
      </g>
    </g>
    <g
       inkscape:label=""
       transform="matrix(1.6066013,0,0,1.6066013,132.5526,76.379835)"
       id="g4282">
      <g
         fill="#000000"
         fill-opacity="1"
         id="g4280"
         transform="matrix(0.352778,0,0,0.352778,-32.5228,-27.3217)">
        <g
           id="g4278"
           transform="translate(91.925003,81.962997)">
          <path
             d="M 1.40625,-2.265625 C 1.734375,-2.125 2.03125,-2.125 2.265625,-2.125 c 0.25,0 0.8125,0 0.8125,-0.3125 0,-0.234375 -0.359375,-0.265625 -0.734375,-0.265625 -0.203125,0 -0.5625,0.015625 -0.921875,0.1875 C 1.1875,-2.625 1.015625,-2.828125 1.015625,-3.09375 c 0,-0.609375 0.984375,-0.96875 1.875,-0.96875 0.15625,0 0.515625,0 0.921875,0.28125 0.109375,0.078125 0.125,0.109375 0.1875,0.109375 0.140625,0 0.28125,-0.140625 0.28125,-0.28125 0,-0.1875 -0.609375,-0.5625 -1.296875,-0.5625 -1.140625,0 -2.21875,0.671875 -2.21875,1.421875 0,0.4375 0.359375,0.6875 0.40625,0.71875 -0.59375,0.328125 -0.90625,0.875 -0.90625,1.34375 0,0.640625 0.5625,1.25 1.625,1.25 1.3125,0 1.875,-0.875 1.875,-1.03125 0,-0.0625 -0.0625,-0.09375 -0.109375,-0.09375 -0.0625,0 -0.09375,0.03125 -0.109375,0.0625 -0.140625,0.234375 -0.375,0.609375 -1.578125,0.609375 -0.609375,0 -1.453125,-0.15625 -1.453125,-0.859375 0,-0.34375 0.28125,-0.875 0.890625,-1.171875 z m 0.328125,-0.125 c 0.234375,-0.078125 0.4375,-0.09375 0.609375,-0.09375 0.25,0 0.28125,0.015625 0.46875,0.0625 -0.15625,0.0625 -0.171875,0.078125 -0.546875,0.078125 -0.21875,0 -0.34375,0 -0.53125,-0.046875 z m 0,0"
             id="path4276" />
        </g>
      </g>
    </g>
    <g
       inkscape:label=""
       transform="matrix(1.373637,0,0,1.373637,132.55258,37.92544)"
       id="g4390">
      <g
         fill="#000000"
         fill-opacity="1"
         id="g4388"
         transform="matrix(0.352778,0,0,0.352778,-32.5779,-26.4122)">
        <g
           id="g4386"
           transform="translate(91.925003,81.962997)">
          <path
             d="M 2.625,-4.359375 C 1.390625,-4.0625 0.421875,-2.765625 0.421875,-1.5625 0.421875,-0.59375 1.0625,0.125 2,0.125 c 1.15625,0 1.984375,-1.578125 1.984375,-2.953125 0,-0.90625 -0.390625,-1.40625 -0.734375,-1.84375 C 2.890625,-5.125 2.296875,-5.875 2.296875,-6.3125 c 0,-0.21875 0.203125,-0.453125 0.546875,-0.453125 0.3125,0 0.5,0.125 0.71875,0.265625 0.203125,0.125 0.390625,0.25 0.546875,0.25 C 4.359375,-6.25 4.5,-6.484375 4.5,-6.65625 4.5,-6.875 4.34375,-6.890625 3.984375,-6.984375 3.46875,-7.09375 3.328125,-7.09375 3.171875,-7.09375 c -0.78125,0 -1.140625,0.4375 -1.140625,1.03125 0,0.546875 0.296875,1.09375 0.59375,1.703125 z m 0.125,0.21875 c 0.25,0.46875 0.546875,1 0.546875,1.71875 0,0.65625 -0.375,2.328125 -1.296875,2.328125 -0.546875,0 -0.96875,-0.421875 -0.96875,-1.1875 0,-0.625 0.375,-2.5 1.71875,-2.859375 z m 0,0"
             id="path4384" />
        </g>
      </g>
    </g>
  </g>
  <g
     inkscape:groupmode="layer"
     id="layer2"
     inkscape:label="Layer 2">
    <circle
       style="fill:#000000;fill-opacity:1;fill-rule:evenodd;stroke:none;stroke-width:0.0696587;stroke-dasharray:0.208976, 0.208976;stroke-dashoffset:0;stroke-opacity:1"
       id="path1471-3"
       cx="130.32515"
       cy="47.297131"
       r="1.5" />
  </g>
</svg>
