<svg version="1.1" xmlns="http://www.w3.org/2000/svg" xmlns:xlink="http://www.w3.org/1999/xlink" width="1920" height="963"><defs><clipPath id="EnOIkngdfVJW"><path fill="none" stroke="none" d=" M 0 0 L 1920 0 L 1920 963 L 0 963 L 0 0 Z"/></clipPath></defs><g transform="scale(1,1)" clip-path="url(#EnOIkngdfVJW)"><g><rect fill="rgb(255,255,255)" stroke="none" x="0" y="0" width="1920" height="963" fill-opacity="1"/><path fill="rgb(204,0,0)" stroke="none" paint-order="stroke fill markers" fill-rule="evenodd" d=" M 756.096427213567 910.6845182099546 L 1147.0427766773716 910.6845182099546 L 1390.7938386419542 605.0303542432035 L 1303.800091832457 223.8858459853504 L 951.5696019454695 54.26058208563495 L 599.339112058482 223.88584598535022 L 512.3453652489845 605.0303542432033 Z" fill-opacity="0.24705882352941178"/><path fill="none" stroke="rgb(204,0,0)" paint-order="fill stroke markers" d=" M 756.096427213567 910.6845182099546 L 1147.0427766773716 910.6845182099546 L 1390.7938386419542 605.0303542432035 L 1303.800091832457 223.8858459853504 L 951.5696019454695 54.26058208563495 L 599.339112058482 223.88584598535022 L 512.3453652489845 605.0303542432033 Z" stroke-opacity="0.6980392156862745" stroke-linecap="round" stroke-linejoin="round" stroke-miterlimit="10" stroke-width="2.5"/><path fill="none" stroke="rgb(204,0,0)" paint-order="fill stroke markers" d=" M 756.096427213567 910.6845182099546 L 1147.0427766773716 910.6845182099546" stroke-opacity="0.6980392156862745" stroke-linecap="round" stroke-linejoin="round" stroke-miterlimit="10" stroke-width="2.5"/><path fill="none" stroke="rgb(204,0,0)" paint-order="fill stroke markers" d=" M 1147.0427766773716 910.6845182099546 L 1390.7938386419542 605.0303542432035" stroke-opacity="0.6980392156862745" stroke-linecap="round" stroke-linejoin="round" stroke-miterlimit="10" stroke-width="2.5"/><path fill="none" stroke="rgb(204,0,0)" paint-order="fill stroke markers" d=" M 1390.7938386419542 605.0303542432035 L 1303.800091832457 223.8858459853504" stroke-opacity="0.6980392156862745" stroke-linecap="round" stroke-linejoin="round" stroke-miterlimit="10" stroke-width="2.5"/><path fill="none" stroke="rgb(204,0,0)" paint-order="fill stroke markers" d=" M 1303.800091832457 223.8858459853504 L 951.5696019454695 54.26058208563495" stroke-opacity="0.6980392156862745" stroke-linecap="round" stroke-linejoin="round" stroke-miterlimit="10" stroke-width="2.5"/><path fill="none" stroke="rgb(204,0,0)" paint-order="fill stroke markers" d=" M 951.5696019454695 54.26058208563495 L 599.339112058482 223.88584598535022" stroke-opacity="0.6980392156862745" stroke-linecap="round" stroke-linejoin="round" stroke-miterlimit="10" stroke-width="2.5"/><path fill="none" stroke="rgb(204,0,0)" paint-order="fill stroke markers" d=" M 599.339112058482 223.88584598535022 L 512.3453652489845 605.0303542432033" stroke-opacity="0.6980392156862745" stroke-linecap="round" stroke-linejoin="round" stroke-miterlimit="10" stroke-width="2.5"/><path fill="none" stroke="rgb(204,0,0)" paint-order="fill stroke markers" d=" M 512.3453652489845 605.0303542432033 L 756.096427213567 910.6845182099546" stroke-opacity="0.6980392156862745" stroke-linecap="round" stroke-linejoin="round" stroke-miterlimit="10" stroke-width="2.5"/><path fill="none" stroke="rgb(0,0,0)" paint-order="fill stroke markers" d=" M 951.5696019454693 11.507914443202708 L 951.5696019454693 949.7791531563352" stroke-opacity="0.6980392156862745" stroke-linecap="round" stroke-linejoin="round" stroke-miterlimit="10" stroke-width="2.5"/><path fill="none" stroke="rgb(0,0,0)" paint-order="fill stroke markers" d=" M 1303.800091832457 223.8858459853504 L 634.2208962312758 757.857436226579" stroke-opacity="0.6980392156862745" stroke-linecap="round" stroke-linejoin="round" stroke-miterlimit="10" stroke-width="2.5"/><path fill="none" stroke="rgb(0,0,0)" paint-order="fill stroke markers" d=" M 1390.7938386419542 605.0303542432035 L 555.8422386537331 414.4581001142768" stroke-opacity="0.6980392156862745" stroke-linecap="round" stroke-linejoin="round" stroke-miterlimit="10" stroke-width="2.5"/><path fill="none" stroke="rgb(0,0,0)" paint-order="fill stroke markers" d=" M 1147.0427766773716 910.6845182099546 L 775.4543570019757 139.07321403549258" stroke-opacity="0.6980392156862745" stroke-linecap="round" stroke-linejoin="round" stroke-miterlimit="10" stroke-width="2.5"/><path fill="none" stroke="rgb(0,0,0)" paint-order="fill stroke markers" d=" M 756.096427213567 910.6845182099546 L 1127.6848468889632 139.0732140354927" stroke-opacity="0.6980392156862745" stroke-linecap="round" stroke-linejoin="round" stroke-miterlimit="10" stroke-width="2.5"/><path fill="none" stroke="rgb(0,0,0)" paint-order="fill stroke markers" d=" M 512.3453652489845 605.0303542432033 L 1347.2969652372055 414.458100114277" stroke-opacity="0.6980392156862745" stroke-linecap="round" stroke-linejoin="round" stroke-miterlimit="10" stroke-width="2.5"/><path fill="none" stroke="rgb(0,0,0)" paint-order="fill stroke markers" d=" M 599.339112058482 223.88584598535022 L 1268.9183076596628 757.8574362265791" stroke-opacity="0.6980392156862745" stroke-linecap="round" stroke-linejoin="round" stroke-miterlimit="10" stroke-width="2.5"/><path fill="rgb(0,0,0)" stroke="none" paint-order="stroke fill markers" d=" M 761.096427213567 910.6845182099546 C 761.096427213567 913.4459419591086 758.857850962721 915.6845182099546 756.096427213567 915.6845182099546 C 753.335003464413 915.6845182099546 751.096427213567 913.4459419591086 751.096427213567 910.6845182099546 C 751.096427213567 907.9230944608006 753.335003464413 905.6845182099546 756.096427213567 905.6845182099546 C 758.857850962721 905.6845182099546 761.096427213567 907.9230944608006 761.096427213567 910.6845182099546 Z" fill-opacity="1"/><path fill="none" stroke="rgb(0,0,0)" paint-order="fill stroke markers" d=" M 761.096427213567 910.6845182099546 C 761.096427213567 913.4459419591086 758.857850962721 915.6845182099546 756.096427213567 915.6845182099546 C 753.335003464413 915.6845182099546 751.096427213567 913.4459419591086 751.096427213567 910.6845182099546 C 751.096427213567 907.9230944608006 753.335003464413 905.6845182099546 756.096427213567 905.6845182099546 C 758.857850962721 905.6845182099546 761.096427213567 907.9230944608006 761.096427213567 910.6845182099546 Z" stroke-opacity="1" stroke-linecap="round" stroke-linejoin="round" stroke-miterlimit="10"/><path fill="rgb(0,0,0)" stroke="none" paint-order="stroke fill markers" d=" M 1152.0427766773716 910.6845182099546 C 1152.0427766773716 913.4459419591086 1149.8042004265255 915.6845182099546 1147.0427766773716 915.6845182099546 C 1144.2813529282178 915.6845182099546 1142.0427766773716 913.4459419591086 1142.0427766773716 910.6845182099546 C 1142.0427766773716 907.9230944608006 1144.2813529282178 905.6845182099546 1147.0427766773716 905.6845182099546 C 1149.8042004265255 905.6845182099546 1152.0427766773716 907.9230944608006 1152.0427766773716 910.6845182099546 Z" fill-opacity="1"/><path fill="none" stroke="rgb(0,0,0)" paint-order="fill stroke markers" d=" M 1152.0427766773716 910.6845182099546 C 1152.0427766773716 913.4459419591086 1149.8042004265255 915.6845182099546 1147.0427766773716 915.6845182099546 C 1144.2813529282178 915.6845182099546 1142.0427766773716 913.4459419591086 1142.0427766773716 910.6845182099546 C 1142.0427766773716 907.9230944608006 1144.2813529282178 905.6845182099546 1147.0427766773716 905.6845182099546 C 1149.8042004265255 905.6845182099546 1152.0427766773716 907.9230944608006 1152.0427766773716 910.6845182099546 Z" stroke-opacity="1" stroke-linecap="round" stroke-linejoin="round" stroke-miterlimit="10"/><path fill="rgb(0,0,0)" stroke="none" paint-order="stroke fill markers" d=" M 1395.7938386419542 605.0303542432035 C 1395.7938386419542 607.7917779923575 1393.555262391108 610.0303542432035 1390.7938386419542 610.0303542432035 C 1388.0324148928003 610.0303542432035 1385.7938386419542 607.7917779923575 1385.7938386419542 605.0303542432035 C 1385.7938386419542 602.2689304940495 1388.0324148928003 600.0303542432035 1390.7938386419542 600.0303542432035 C 1393.555262391108 600.0303542432035 1395.7938386419542 602.2689304940495 1395.7938386419542 605.0303542432035 Z" fill-opacity="1"/><path fill="none" stroke="rgb(0,0,0)" paint-order="fill stroke markers" d=" M 1395.7938386419542 605.0303542432035 C 1395.7938386419542 607.7917779923575 1393.555262391108 610.0303542432035 1390.7938386419542 610.0303542432035 C 1388.0324148928003 610.0303542432035 1385.7938386419542 607.7917779923575 1385.7938386419542 605.0303542432035 C 1385.7938386419542 602.2689304940495 1388.0324148928003 600.0303542432035 1390.7938386419542 600.0303542432035 C 1393.555262391108 600.0303542432035 1395.7938386419542 602.2689304940495 1395.7938386419542 605.0303542432035 Z" stroke-opacity="1" stroke-linecap="round" stroke-linejoin="round" stroke-miterlimit="10"/><path fill="rgb(0,0,0)" stroke="none" paint-order="stroke fill markers" d=" M 1308.800091832457 223.8858459853504 C 1308.800091832457 226.64726973450436 1306.5615155816108 228.8858459853504 1303.800091832457 228.8858459853504 C 1301.038668083303 228.8858459853504 1298.800091832457 226.64726973450436 1298.800091832457 223.8858459853504 C 1298.800091832457 221.1244222361964 1301.038668083303 218.8858459853504 1303.800091832457 218.8858459853504 C 1306.5615155816108 218.8858459853504 1308.800091832457 221.1244222361964 1308.800091832457 223.8858459853504 Z" fill-opacity="1"/><path fill="none" stroke="rgb(0,0,0)" paint-order="fill stroke markers" d=" M 1308.800091832457 223.8858459853504 C 1308.800091832457 226.64726973450436 1306.5615155816108 228.8858459853504 1303.800091832457 228.8858459853504 C 1301.038668083303 228.8858459853504 1298.800091832457 226.64726973450436 1298.800091832457 223.8858459853504 C 1298.800091832457 221.1244222361964 1301.038668083303 218.8858459853504 1303.800091832457 218.8858459853504 C 1306.5615155816108 218.8858459853504 1308.800091832457 221.1244222361964 1308.800091832457 223.8858459853504 Z" stroke-opacity="1" stroke-linecap="round" stroke-linejoin="round" stroke-miterlimit="10"/><path fill="rgb(0,0,0)" stroke="none" paint-order="stroke fill markers" d=" M 956.5696019454695 54.26058208563495 C 956.5696019454695 57.022005834788914 954.3310256946235 59.26058208563495 951.5696019454695 59.26058208563495 C 948.8081781963155 59.26058208563495 946.5696019454695 57.022005834788914 946.5696019454695 54.26058208563495 C 946.5696019454695 51.49915833648098 948.8081781963155 49.26058208563495 951.5696019454695 49.26058208563495 C 954.3310256946235 49.26058208563495 956.5696019454695 51.49915833648098 956.5696019454695 54.26058208563495 Z" fill-opacity="1"/><path fill="none" stroke="rgb(0,0,0)" paint-order="fill stroke markers" d=" M 956.5696019454695 54.26058208563495 C 956.5696019454695 57.022005834788914 954.3310256946235 59.26058208563495 951.5696019454695 59.26058208563495 C 948.8081781963155 59.26058208563495 946.5696019454695 57.022005834788914 946.5696019454695 54.26058208563495 C 946.5696019454695 51.49915833648098 948.8081781963155 49.26058208563495 951.5696019454695 49.26058208563495 C 954.3310256946235 49.26058208563495 956.5696019454695 51.49915833648098 956.5696019454695 54.26058208563495 Z" stroke-opacity="1" stroke-linecap="round" stroke-linejoin="round" stroke-miterlimit="10"/><path fill="rgb(0,0,0)" stroke="none" paint-order="stroke fill markers" d=" M 604.339112058482 223.88584598535022 C 604.339112058482 226.6472697345042 602.100535807636 228.88584598535022 599.339112058482 228.88584598535022 C 596.577688309328 228.88584598535022 594.339112058482 226.6472697345042 594.339112058482 223.88584598535022 C 594.339112058482 221.12442223619624 596.577688309328 218.88584598535022 599.339112058482 218.88584598535022 C 602.100535807636 218.88584598535022 604.339112058482 221.12442223619624 604.339112058482 223.88584598535022 Z" fill-opacity="1"/><path fill="none" stroke="rgb(0,0,0)" paint-order="fill stroke markers" d=" M 604.339112058482 223.88584598535022 C 604.339112058482 226.6472697345042 602.100535807636 228.88584598535022 599.339112058482 228.88584598535022 C 596.577688309328 228.88584598535022 594.339112058482 226.6472697345042 594.339112058482 223.88584598535022 C 594.339112058482 221.12442223619624 596.577688309328 218.88584598535022 599.339112058482 218.88584598535022 C 602.100535807636 218.88584598535022 604.339112058482 221.12442223619624 604.339112058482 223.88584598535022 Z" stroke-opacity="1" stroke-linecap="round" stroke-linejoin="round" stroke-miterlimit="10"/><path fill="rgb(0,0,0)" stroke="none" paint-order="stroke fill markers" d=" M 517.3453652489845 605.0303542432033 C 517.3453652489845 607.7917779923573 515.1067889981385 610.0303542432033 512.3453652489845 610.0303542432033 C 509.5839414998306 610.0303542432033 507.34536524898454 607.7917779923573 507.34536524898454 605.0303542432033 C 507.34536524898454 602.2689304940493 509.5839414998306 600.0303542432033 512.3453652489845 600.0303542432033 C 515.1067889981385 600.0303542432033 517.3453652489845 602.2689304940493 517.3453652489845 605.0303542432033 Z" fill-opacity="1"/><path fill="none" stroke="rgb(0,0,0)" paint-order="fill stroke markers" d=" M 517.3453652489845 605.0303542432033 C 517.3453652489845 607.7917779923573 515.1067889981385 610.0303542432033 512.3453652489845 610.0303542432033 C 509.5839414998306 610.0303542432033 507.34536524898454 607.7917779923573 507.34536524898454 605.0303542432033 C 507.34536524898454 602.2689304940493 509.5839414998306 600.0303542432033 512.3453652489845 600.0303542432033 C 515.1067889981385 600.0303542432033 517.3453652489845 602.2689304940493 517.3453652489845 605.0303542432033 Z" stroke-opacity="1" stroke-linecap="round" stroke-linejoin="round" stroke-miterlimit="10"/></g></g></svg>