<?xml version="1.0" encoding="UTF-8" standalone="no"?>
<!-- Created with Inkscape (http://www.inkscape.org/) -->

<svg
   width="210mm"
   height="297mm"
   viewBox="0 0 210 297"
   version="1.1"
   id="svg5"
   sodipodi:docname="boundry_cylinder.svg"
   inkscape:version="1.2 (dc2aedaf03, 2022-05-15)"
   xmlns:inkscape="http://www.inkscape.org/namespaces/inkscape"
   xmlns:sodipodi="http://sodipodi.sourceforge.net/DTD/sodipodi-0.dtd"
   xmlns="http://www.w3.org/2000/svg"
   xmlns:svg="http://www.w3.org/2000/svg">
  <sodipodi:namedview
     id="namedview7"
     pagecolor="#ffffff"
     bordercolor="#cccccc"
     borderopacity="1"
     inkscape:showpageshadow="0"
     inkscape:pageopacity="1"
     inkscape:pagecheckerboard="0"
     inkscape:deskcolor="#d1d1d1"
     inkscape:document-units="mm"
     showgrid="false"
     showguides="true"
     inkscape:zoom="1.55"
     inkscape:cx="308.06452"
     inkscape:cy="528.70968"
     inkscape:window-width="1888"
     inkscape:window-height="1008"
     inkscape:window-x="13"
     inkscape:window-y="53"
     inkscape:window-maximized="1"
     inkscape:current-layer="layer1" />
  <defs
     id="defs2" />
  <g
     inkscape:label="Layer 1"
     inkscape:groupmode="layer"
     id="layer1">
    <ellipse
       style="fill:none;fill-opacity:1;stroke:#000000;stroke-width:0.192"
       id="path1210"
       cx="49.439407"
       cy="130.12946"
       rx="34.851002"
       ry="4.6571417" />
    <path
       id="path1210-5"
       style="fill:#d40000;fill-opacity:0.75;stroke:none;stroke-width:0.192"
       d="m 14.588298,130.12951 v 12.6385 h 69.702208 v -12.6385 a 34.851002,4.6571417 0 0 1 -34.8511,4.65708 34.851002,4.6571417 0 0 1 -34.851108,-4.65708 z" />
    <path
       style="fill:#d40000;fill-opacity:0.75;stroke:#000000;stroke-width:0.192"
       id="path1210-3"
       sodipodi:type="arc"
       sodipodi:cx="49.439507"
       sodipodi:cy="142.76802"
       sodipodi:rx="34.851002"
       sodipodi:ry="4.6571417"
       sodipodi:start="0"
       sodipodi:end="3.1415927"
       sodipodi:open="true"
       sodipodi:arc-type="arc"
       d="m 84.290508,142.76802 a 34.851002,4.6571417 0 0 1 -17.425501,4.0332 34.851002,4.6571417 0 0 1 -34.851002,0 34.851002,4.6571417 0 0 1 -17.4255,-4.0332" />
    <path
       style="fill:#d40000;fill-opacity:0.75;stroke:#000000;stroke-width:0.192;stroke-opacity:1"
       d="m 14.588406,130.12945 9.8e-5,12.63856"
       id="path1412" />
    <path
       style="fill:#d40000;fill-opacity:0.75;stroke:#d40000;stroke-width:0.192;stroke-opacity:0.15"
       d="M 14.588504,142.76801 H 84.290506"
       id="path1416" />
    <path
       style="fill:#d40000;fill-opacity:0.75;stroke:#d40000;stroke-width:0.192;stroke-opacity:0.15"
       d="m 84.290506,130.12951 v 12.6385"
       id="path1904" />
    <path
       style="fill:none;fill-opacity:0.75;stroke:#000000;stroke-width:0.192;stroke-dasharray:2.304, 2.304;stroke-dashoffset:0"
       id="path1210-3-5"
       sodipodi:type="arc"
       sodipodi:cx="-49.535507"
       sodipodi:cy="-142.86401"
       sodipodi:rx="34.851002"
       sodipodi:ry="4.6571417"
       sodipodi:start="0"
       sodipodi:end="3.1415927"
       sodipodi:open="true"
       sodipodi:arc-type="arc"
       d="m -14.684505,-142.86401 a 34.851002,4.6571417 0 0 1 -17.425502,4.0332 34.851002,4.6571417 0 0 1 -34.851002,0 34.851002,4.6571417 0 0 1 -17.4255,-4.0332"
       transform="scale(-1)" />
    <ellipse
       style="fill:none;fill-opacity:1;stroke:#000000;stroke-width:0.192"
       id="path1210-6"
       cx="152.16046"
       cy="130.12952"
       rx="34.851002"
       ry="4.6571417" />
    <ellipse
       style="fill:none;fill-opacity:1;stroke:#000000;stroke-width:0.192"
       id="path1210-2"
       cx="152.16046"
       cy="142.86998"
       rx="34.851002"
       ry="4.6571417" />
    <g
       inkscape:label=""
       transform="translate(14.492398,122.8187)"
       id="g2037">
      <g
         fill="#000000"
         fill-opacity="1"
         id="g12"
         transform="matrix(0.352778,0,0,0.352778,-32.6055,-26.4343)">
        <g
           id="use10"
           transform="translate(91.925003,81.962997)">
          <path
             d="m 7.578125,-6.921875 c 0,-0.03125 -0.015625,-0.109375 -0.109375,-0.109375 -0.03125,0 -0.046875,0.015625 -0.15625,0.125 L 6.625,-6.140625 C 6.53125,-6.28125 6.078125,-7.03125 4.96875,-7.03125 2.734375,-7.03125 0.5,-4.828125 0.5,-2.515625 0.5,-0.875 1.671875,0.21875 3.203125,0.21875 c 0.859375,0 1.625,-0.390625 2.15625,-0.859375 0.921875,-0.8125 1.09375,-1.71875 1.09375,-1.75 C 6.453125,-2.5 6.34375,-2.5 6.328125,-2.5 c -0.0625,0 -0.109375,0.03125 -0.125,0.109375 -0.09375,0.28125 -0.328125,1 -1.015625,1.578125 -0.6875,0.546875 -1.3125,0.71875 -1.828125,0.71875 -0.890625,0 -1.953125,-0.515625 -1.953125,-2.0625 0,-0.578125 0.203125,-2.1875 1.203125,-3.359375 0.609375,-0.703125 1.546875,-1.203125 2.4375,-1.203125 1.015625,0 1.609375,0.765625 1.609375,1.921875 0,0.40625 -0.03125,0.40625 -0.03125,0.515625 0,0.09375 0.109375,0.09375 0.140625,0.09375 0.125,0 0.125,-0.015625 0.1875,-0.203125 z m 0,0"
             id="path18" />
        </g>
      </g>
    </g>
    <g
       inkscape:label=""
       transform="translate(112.62064,122.78016)"
       id="g2100">
      <g
         fill="#000000"
         fill-opacity="1"
         id="g15"
         transform="matrix(0.352778,0,0,0.352778,-32.5724,-26.3957)">
        <g
           id="use13"
           transform="translate(91.925003,81.962997)">
          <path
             d="m 4.609375,-3.375 c -0.09375,-0.625 -0.5,-1.1875 -1.28125,-1.1875 -0.609375,0 -1.25,0.171875 -2.03125,0.9375 -0.828125,0.828125 -0.890625,1.765625 -0.890625,2.0625 0,0.625 0.4375,1.78125 1.828125,1.78125 2.375,0 3.40625,-3.34375 3.40625,-4.78125 0,-1.578125 -0.921875,-2.578125 -2.15625,-2.578125 -1.4375,0 -1.90625,1.296875 -1.90625,1.578125 0,0.140625 0.09375,0.34375 0.390625,0.34375 0.328125,0 0.53125,-0.296875 0.53125,-0.515625 0,-0.359375 -0.3125,-0.359375 -0.46875,-0.359375 0.4375,-0.734375 1.15625,-0.796875 1.4375,-0.796875 0.734375,0 1.421875,0.515625 1.421875,1.8125 0,0.390625 -0.0625,0.890625 -0.265625,1.703125 z m -2.34375,3.3125 c -1.09375,0 -1.09375,-1.03125 -1.09375,-1.125 0,-0.265625 0.25,-1.65625 0.65625,-2.265625 0.390625,-0.5625 0.890625,-0.890625 1.5,-0.890625 1.09375,0 1.109375,1.125 1.109375,1.328125 0,0.71875 -0.640625,2.953125 -2.171875,2.953125 z m 0,0"
             id="path25" />
        </g>
      </g>
      <g
         fill="#000000"
         fill-opacity="1"
         id="g19"
         transform="matrix(0.352778,0,0,0.352778,-32.5724,-26.3957)">
        <g
           id="use17"
           transform="translate(97.772049,81.962997)">
          <path
             d="m 7.578125,-6.921875 c 0,-0.03125 -0.015625,-0.109375 -0.109375,-0.109375 -0.03125,0 -0.046875,0.015625 -0.15625,0.125 L 6.625,-6.140625 C 6.53125,-6.28125 6.078125,-7.03125 4.96875,-7.03125 2.734375,-7.03125 0.5,-4.828125 0.5,-2.515625 0.5,-0.875 1.671875,0.21875 3.203125,0.21875 c 0.859375,0 1.625,-0.390625 2.15625,-0.859375 0.921875,-0.8125 1.09375,-1.71875 1.09375,-1.75 C 6.453125,-2.5 6.34375,-2.5 6.328125,-2.5 c -0.0625,0 -0.109375,0.03125 -0.125,0.109375 -0.09375,0.28125 -0.328125,1 -1.015625,1.578125 -0.6875,0.546875 -1.3125,0.71875 -1.828125,0.71875 -0.890625,0 -1.953125,-0.515625 -1.953125,-2.0625 0,-0.578125 0.203125,-2.1875 1.203125,-3.359375 0.609375,-0.703125 1.546875,-1.203125 2.4375,-1.203125 1.015625,0 1.609375,0.765625 1.609375,1.921875 0,0.40625 -0.03125,0.40625 -0.03125,0.515625 0,0.09375 0.109375,0.09375 0.140625,0.09375 0.125,0 0.125,-0.015625 0.1875,-0.203125 z m 0,0"
             id="path29" />
        </g>
      </g>
    </g>
  </g>
</svg>
