<?xml version="1.0" encoding="UTF-8" standalone="no"?>
<svg
   version="1.1"
   width="800"
   height="800"
   id="svg250"
   sodipodi:docname="rational_hyperbola.svg"
   inkscape:version="1.2.2 (b0a8486541, 2022-12-01)"
   xmlns:inkscape="http://www.inkscape.org/namespaces/inkscape"
   xmlns:sodipodi="http://sodipodi.sourceforge.net/DTD/sodipodi-0.dtd"
   xmlns="http://www.w3.org/2000/svg"
   xmlns:svg="http://www.w3.org/2000/svg">
  <sodipodi:namedview
     id="namedview252"
     pagecolor="#ffffff"
     bordercolor="#000000"
     borderopacity="0.25"
     inkscape:showpageshadow="2"
     inkscape:pageopacity="0.0"
     inkscape:pagecheckerboard="0"
     inkscape:deskcolor="#d1d1d1"
     showgrid="false"
     inkscape:zoom="0.67449387"
     inkscape:cx="332.10087"
     inkscape:cy="357.30495"
     inkscape:window-width="1888"
     inkscape:window-height="1008"
     inkscape:window-x="13"
     inkscape:window-y="53"
     inkscape:window-maximized="1"
     inkscape:current-layer="svg250" />
  <defs
     id="defs209">
    <clipPath
       id="clipPath3588">
      <path
         clip-rule="nonzero"
         d="M 1,0 H 7 V 20.628906 H 1 Z m 0,0"
         id="path6708" />
    </clipPath>
    <clipPath
       id="clipPath4113">
      <path
         clip-rule="nonzero"
         d="M 42,0 H 57 V 20.628906 H 42 Z m 0,0"
         id="path4663" />
    </clipPath>
    <clipPath
       id="clipPath1573">
      <path
         clip-rule="nonzero"
         d="M 82,0 H 97 V 20.628906 H 82 Z m 0,0"
         id="path5194" />
    </clipPath>
    <clipPath
       id="clipPath2664">
      <path
         clip-rule="nonzero"
         d="m 124,0 h 14 v 20.628906 h -14 z m 0,0"
         id="path3913" />
    </clipPath>
  </defs>
  <g
     id="background-images-bd0f1021"
     transform="matrix(2,0,0,2,2.5,0.49497484)" />
  <g
     id="graphpaper-bd0f1021"
     transform="matrix(2,0,0,2,2.5,0.49497484)">
    <g
       id="axis-bd0f1021">
      <g
         id="g219">
        <g
           id="g217">
          <path
             fill="none"
             stroke="#000000"
             class="dcg-svg-tickmark"
             paint-order="fill stroke markers"
             d=""
             stroke-opacity="0.9"
             stroke-miterlimit="2"
             stroke-width="1.5"
             stroke-dasharray="none"
             id="path215" />
        </g>
      </g>
    </g>
  </g>
  <g
     id="expressions-bd0f1021"
     transform="matrix(1.6751839,0,0,1.6751839,56.686211,70.661858)"
     style="stroke:#000000;stroke-opacity:1;stroke-width:1.12809333;stroke-dasharray:none">
    <g
       id="sketch-bd0f1021"
       style="stroke:#000000;stroke-opacity:1;stroke-width:1.12809333;stroke-dasharray:none">
      <title
         id="title223">Expression 1</title>
      <path
         fill="#2d70b3"
         stroke="none"
         paint-order="stroke fill markers"
         d=""
         fill-opacity="0.4"
         id="path225"
         style="stroke:#000000;stroke-opacity:1;stroke-width:1.12809333;stroke-dasharray:none" />
      <g
         id="g229"
         style="stroke:#000000;stroke-opacity:1;stroke-width:1.12809333;stroke-dasharray:none">
        <path
           fill="none"
           stroke="#2d70b3"
           class="dcg-svg-curve"
           paint-order="fill stroke markers"
           d="m 0,1.0025126 v 0 l 71.582031,72.1464934 38.085939,38.760834 22.7539,23.53938 14.64844,15.54515 9.96094,10.9752 6.93359,8.0549 4.98047,6.21856 3.71094,5.11077 2.53906,3.97403 1.75781,3.21973 1.26954,2.83544 0.8789,2.55526 0.48828,1.99056 0.29297,1.90295 L 180,200"
           stroke-linecap="round"
           stroke-linejoin="round"
           stroke-miterlimit="10"
           stroke-width="2.5"
           stroke-opacity="0.9"
           stroke-dasharray="none"
           id="path227"
           style="stroke:#000000;stroke-opacity:1;stroke-width:1.12809333;stroke-dasharray:none" />
      </g>
      <g
         id="g233"
         style="stroke:#000000;stroke-opacity:1;stroke-width:1.12809333;stroke-dasharray:none">
        <path
           fill="none"
           stroke="#2d70b3"
           class="dcg-svg-curve"
           paint-order="fill stroke markers"
           d="m 220,200 v 0 l 0.11719,-2.16823 0.39062,-2.36723 0.58594,-2.16874 0.87891,-2.39512 1.26953,-2.74126 L 225,185 l 2.44141,-3.78911 3.32031,-4.5836 4.58984,-5.77747 6.05469,-7.10554 8.20312,-9.14351 11.42579,-12.2661 16.30859,-17.04783 24.12109,-24.76103 37.5,-38.04391 L 400,1.0025126"
           stroke-linecap="round"
           stroke-linejoin="round"
           stroke-miterlimit="10"
           stroke-width="2.5"
           stroke-opacity="0.9"
           stroke-dasharray="none"
           id="path231"
           style="stroke:#000000;stroke-opacity:1;stroke-width:1.12809333;stroke-dasharray:none" />
      </g>
      <path
         fill="#2d70b3"
         stroke="none"
         paint-order="stroke fill markers"
         d=""
         fill-opacity="0.4"
         id="path235"
         style="stroke:#000000;stroke-opacity:1;stroke-width:1.12809333;stroke-dasharray:none" />
      <g
         id="g239"
         style="stroke:#000000;stroke-opacity:1;stroke-width:1.12809333;stroke-dasharray:none">
        <path
           fill="none"
           stroke="#2d70b3"
           class="dcg-svg-curve"
           paint-order="fill stroke markers"
           d="m 0,398.99749 v 0 l 71.582031,-72.1465 38.085939,-38.76083 22.7539,-23.53938 14.64844,-15.54515 9.96094,-10.9752 6.93359,-8.0549 4.98047,-6.21856 3.71094,-5.11077 2.53906,-3.97403 1.75781,-3.21973 1.26954,-2.83544 0.8789,-2.55526 0.48828,-1.99056 0.29297,-1.90295 L 180,200"
           stroke-linecap="round"
           stroke-linejoin="round"
           stroke-miterlimit="10"
           stroke-width="2.5"
           stroke-opacity="0.9"
           stroke-dasharray="none"
           id="path237"
           style="stroke:#000000;stroke-opacity:1;stroke-width:1.12809333;stroke-dasharray:none" />
      </g>
      <g
         id="g243"
         style="stroke:#000000;stroke-opacity:1;stroke-width:1.12809333;stroke-dasharray:none">
        <path
           fill="none"
           stroke="#2d70b3"
           class="dcg-svg-curve"
           paint-order="fill stroke markers"
           d="m 220,200 v 0 l 0.11719,2.16823 0.39062,2.36723 0.58594,2.16874 0.87891,2.39512 1.26953,2.74126 L 225,215 l 2.44141,3.78911 3.32031,4.5836 4.58984,5.77747 6.05469,7.10554 8.20312,9.14351 11.42579,12.2661 16.30859,17.04783 24.12109,24.76103 37.5,38.04391 L 400,398.99749"
           stroke-linecap="round"
           stroke-linejoin="round"
           stroke-miterlimit="10"
           stroke-width="2.5"
           stroke-opacity="0.9"
           stroke-dasharray="none"
           id="path241"
           style="stroke:#000000;stroke-opacity:1;stroke-width:1.12809333;stroke-dasharray:none" />
      </g>
    </g>
  </g>
  <g
     id="labels-bd0f1021"
     transform="matrix(2,0,0,2,2.5,0.49497484)" />
  <path
     style="fill:none;stroke:#000000;stroke-width:1.88976;stroke-dasharray:none;stroke-opacity:1"
     d="M 393.21693,785.60798 V 25.789301"
     id="path1044" />
  <circle
     id="path1046"
     style="fill:#000000;fill-opacity:1;stroke:none;stroke-width:1.76504;stroke-dasharray:none;stroke-opacity:1"
     cx="358.2193"
     cy="405.69864"
     r="5" />
  <circle
     id="path1046-7"
     style="fill:#000000;fill-opacity:1;stroke:none;stroke-width:1.76504;stroke-dasharray:none;stroke-opacity:1"
     cx="393.21692"
     cy="446.67963"
     r="5" />
  <circle
     id="path1046-6"
     style="fill:#000000;fill-opacity:1;stroke:none;stroke-width:1.76504;stroke-dasharray:none;stroke-opacity:1"
     cx="178.99188"
     cy="195.6349"
     r="5" />
  <path
     style="fill:none;fill-opacity:1;stroke:#000000;stroke-width:1.88976378;stroke-dasharray:none;stroke-opacity:1"
     d="M 179.11114,195.73665 393.21693,446.67962"
     id="path1171" />
  <g
     id="g1427"
     transform="translate(-249.01842,9.6906233)">
    <g
       clip-path="url(#clipPath3588)"
       id="g46"
       transform="matrix(1.33333,0,0,1.33333,509.41769,396.93923)">
      <g
         fill="#000000"
         fill-opacity="1"
         id="g44">
        <g
           id="use42"
           transform="translate(0,15.479)">
          <path
             d="m 6.328125,5.046875 c 0,-0.03125 0,-0.0625 -0.0625,-0.125 -0.953125,-0.96875 -3.5,-3.625 -3.5,-10.0625 0,-6.453125 2.5,-9.078125 3.515625,-10.109375 0,-0.01563 0.046875,-0.0625 0.046875,-0.125 0,-0.0625 -0.0625,-0.09375 -0.15625,-0.09375 -0.21875,0 -1.984375,1.53125 -2.984375,3.796875 -1.046875,2.296875 -1.328125,4.53125 -1.328125,6.5 0,1.5 0.140625,4.015625 1.390625,6.6875 0.984375,2.140625 2.671875,3.65625 2.921875,3.65625 0.109375,0 0.15625,-0.046875 0.15625,-0.125 z m 0,0"
             id="path100" />
        </g>
      </g>
    </g>
    <g
       fill="#000000"
       fill-opacity="1"
       id="g50"
       transform="matrix(1.33333,0,0,1.33333,509.41769,396.93923)">
      <g
         id="use48"
         transform="translate(7.3169999,15.479)">
        <path
           d="m 13.609375,-4.75 c 0.359375,0 0.71875,0 0.71875,-0.421875 0,-0.40625 -0.359375,-0.40625 -0.71875,-0.40625 H 2.4375 c -0.34375,0 -0.71875,0 -0.71875,0.40625 0,0.421875 0.375,0.421875 0.71875,0.421875 z m 0,0"
           id="path104" />
      </g>
    </g>
    <g
       fill="#000000"
       fill-opacity="1"
       id="g54"
       transform="matrix(1.33333,0,0,1.33333,509.41769,396.93923)">
      <g
         id="use52"
         transform="translate(23.388,15.479)">
        <path
           d="m 5.5,-13.203125 c 0,-0.4375 -0.03125,-0.453125 -0.3125,-0.453125 C 4.375,-12.6875 3.15625,-12.375 2,-12.328125 c -0.0625,0 -0.15625,0 -0.1875,0.03125 -0.015625,0.04687 -0.015625,0.09375 -0.015625,0.515625 0.640625,0 1.71875,-0.109375 2.546875,-0.609375 v 10.875 c 0,0.734375 -0.046875,0.984375 -1.828125,0.984375 H 1.90625 V 0 C 2.890625,-0.015625 3.921875,-0.046875 4.921875,-0.046875 5.90625,-0.046875 6.9375,-0.015625 7.9375,0 V -0.53125 H 7.3125 C 5.53125,-0.53125 5.5,-0.765625 5.5,-1.515625 Z m 0,0"
           id="path108" />
      </g>
    </g>
    <g
       fill="#000000"
       fill-opacity="1"
       id="g58"
       transform="matrix(1.33333,0,0,1.33333,509.41769,396.93923)">
      <g
         id="use56"
         transform="translate(32.863998,15.479)">
        <path
           d="M 4.03125,0.078125 C 4.03125,-1.109375 3.640625,-2 2.78125,-2 2.125,-2 1.796875,-1.46875 1.796875,-1.015625 1.796875,-0.5625 2.109375,0 2.8125,0 3.078125,0 3.3125,-0.078125 3.484375,-0.265625 3.53125,-0.3125 3.546875,-0.3125 3.578125,-0.3125 c 0.03125,0 0.03125,0.296875 0.03125,0.390625 0,0.6875 -0.125,2.03125 -1.3125,3.375 C 2.0625,3.703125 2.0625,3.734375 2.0625,3.78125 c 0,0.109375 0.109375,0.203125 0.203125,0.203125 0.171875,0 1.765625,-1.53125 1.765625,-3.90625 z m 0,0"
           id="path112" />
      </g>
    </g>
    <g
       clip-path="url(#clipPath4113)"
       id="g66"
       transform="matrix(1.33333,0,0,1.33333,509.41769,396.93923)">
      <g
         fill="#000000"
         fill-opacity="1"
         id="g64">
        <g
           id="use60"
           transform="translate(41.928001,15.479)">
          <path
             d="m 8.671875,-6.625 c 0,-1.265625 -0.015625,-3.40625 -0.890625,-5.0625 -0.765625,-1.453125 -1.984375,-1.96875 -3.046875,-1.96875 -1,0 -2.25,0.453125 -3.046875,1.9375 -0.8125,1.5625 -0.90625,3.484375 -0.90625,5.09375 0,1.171875 0.03125,2.96875 0.671875,4.53125 0.875,2.140625 2.46875,2.421875 3.28125,2.421875 C 5.6875,0.328125 7.125,-0.0625 7.96875,-2.03125 8.59375,-3.453125 8.671875,-5.125 8.671875,-6.625 Z M 4.734375,0 C 3.40625,0 2.625,-1.140625 2.328125,-2.703125 c -0.21875,-1.21875 -0.21875,-3 -0.21875,-4.15625 0,-1.59375 0,-2.90625 0.265625,-4.171875 0.390625,-1.75 1.546875,-2.296875 2.359375,-2.296875 0.84375,0 1.9375,0.5625 2.328125,2.25 0.265625,1.1875 0.296875,2.5625 0.296875,4.21875 0,1.34375 0,3 -0.25,4.21875 C 6.671875,-0.390625 5.453125,0 4.734375,0 Z m 0,0"
             id="path116" />
        </g>
        <g
           id="use62"
           transform="translate(51.403824,15.479)">
          <path
             d="m 5.4375,-5.140625 c 0,-1.484375 -0.15625,-4.015625 -1.390625,-6.671875 -0.984375,-2.15625 -2.6875,-3.65625 -2.9375,-3.65625 -0.0625,0 -0.140625,0.01563 -0.140625,0.125 0,0.03125 0.015625,0.0625 0.046875,0.09375 C 2,-14.21875 4.53125,-11.59375 4.53125,-5.171875 4.53125,1.28125 2.03125,3.90625 1.015625,4.9375 0.984375,4.984375 0.96875,5 0.96875,5.046875 c 0,0.09375 0.078125,0.125 0.140625,0.125 0.234375,0 1.984375,-1.53125 3,-3.8125 1.03125,-2.28125 1.328125,-4.515625 1.328125,-6.5 z m 0,0"
             id="path120" />
        </g>
      </g>
    </g>
  </g>
  <g
     fill="#000000"
     fill-opacity="1"
     id="g70"
     transform="matrix(1.33333,0,0,1.33333,96.088435,169.99629)">
    <g
       id="use68"
       transform="translate(64.959,15.479)">
      <path
         d="m 6.109375,-6.5625 h 3.46875 c 2.859375,0 5.703125,-2.109375 5.703125,-4.46875 0,-1.609375 -1.359375,-3.078125 -3.96875,-3.078125 h -6.375 c -0.390625,0 -0.578125,0 -0.578125,0.390625 0,0.203125 0.1875,0.203125 0.5,0.203125 1.25,0 1.25,0.171875 1.25,0.40625 0,0.03125 0,0.15625 -0.078125,0.46875 L 3.25,-1.53125 c -0.1875,0.71875 -0.234375,0.9375 -1.6875,0.9375 -0.390625,0 -0.59375,0 -0.59375,0.359375 C 0.96875,0 1.15625,0 1.28125,0 1.671875,0 2.09375,-0.046875 2.484375,-0.046875 h 2.40625 C 5.28125,-0.046875 5.71875,0 6.109375,0 6.28125,0 6.5,0 6.5,-0.390625 6.5,-0.59375 6.328125,-0.59375 6.015625,-0.59375 4.765625,-0.59375 4.75,-0.75 4.75,-0.953125 c 0,-0.09375 0.015625,-0.25 0.046875,-0.34375 z m 1.484375,-6.140625 c 0.1875,-0.765625 0.28125,-0.8125 1.078125,-0.8125 h 2.046875 c 1.546875,0 2.828125,0.5 2.828125,2.046875 0,0.546875 -0.265625,2.296875 -1.21875,3.25 -0.34375,0.375 -1.34375,1.15625 -3.21875,1.15625 h -2.90625 z m 0,0"
         id="path124" />
    </g>
  </g>
  <g
     id="g1447"
     transform="translate(-300.68027,81.551245)">
    <g
       clip-path="url(#clipPath1573)"
       id="g78"
       transform="matrix(1.33333,0,0,1.33333,509.41769,396.93923)">
      <g
         fill="#000000"
         fill-opacity="1"
         id="g76">
        <g
           id="use72"
           transform="translate(80.809998,15.479)">
          <path
             d="m 6.328125,5.046875 c 0,-0.03125 0,-0.0625 -0.0625,-0.125 -0.953125,-0.96875 -3.5,-3.625 -3.5,-10.0625 0,-6.453125 2.5,-9.078125 3.515625,-10.109375 0,-0.01563 0.046875,-0.0625 0.046875,-0.125 0,-0.0625 -0.0625,-0.09375 -0.15625,-0.09375 -0.21875,0 -1.984375,1.53125 -2.984375,3.796875 -1.046875,2.296875 -1.328125,4.53125 -1.328125,6.5 0,1.5 0.140625,4.015625 1.390625,6.6875 0.984375,2.140625 2.671875,3.65625 2.921875,3.65625 0.109375,0 0.15625,-0.046875 0.15625,-0.125 z m 0,0"
             id="path128" />
        </g>
        <g
           id="use74"
           transform="translate(88.126595,15.479)">
          <path
             d="m 8.671875,-6.625 c 0,-1.265625 -0.015625,-3.40625 -0.890625,-5.0625 -0.765625,-1.453125 -1.984375,-1.96875 -3.046875,-1.96875 -1,0 -2.25,0.453125 -3.046875,1.9375 -0.8125,1.5625 -0.90625,3.484375 -0.90625,5.09375 0,1.171875 0.03125,2.96875 0.671875,4.53125 0.875,2.140625 2.46875,2.421875 3.28125,2.421875 C 5.6875,0.328125 7.125,-0.0625 7.96875,-2.03125 8.59375,-3.453125 8.671875,-5.125 8.671875,-6.625 Z M 4.734375,0 C 3.40625,0 2.625,-1.140625 2.328125,-2.703125 c -0.21875,-1.21875 -0.21875,-3 -0.21875,-4.15625 0,-1.59375 0,-2.90625 0.265625,-4.171875 0.390625,-1.75 1.546875,-2.296875 2.359375,-2.296875 0.84375,0 1.9375,0.5625 2.328125,2.25 0.265625,1.1875 0.296875,2.5625 0.296875,4.21875 0,1.34375 0,3 -0.25,4.21875 C 6.671875,-0.390625 5.453125,0 4.734375,0 Z m 0,0"
             id="path132" />
        </g>
      </g>
    </g>
    <g
       fill="#000000"
       fill-opacity="1"
       id="g82"
       transform="matrix(1.33333,0,0,1.33333,509.41769,396.93923)">
      <g
         id="use80"
         transform="translate(97.602997,15.479)">
        <path
           d="M 4.03125,0.078125 C 4.03125,-1.109375 3.640625,-2 2.78125,-2 2.125,-2 1.796875,-1.46875 1.796875,-1.015625 1.796875,-0.5625 2.109375,0 2.8125,0 3.078125,0 3.3125,-0.078125 3.484375,-0.265625 3.53125,-0.3125 3.546875,-0.3125 3.578125,-0.3125 c 0.03125,0 0.03125,0.296875 0.03125,0.390625 0,0.6875 -0.125,2.03125 -1.3125,3.375 C 2.0625,3.703125 2.0625,3.734375 2.0625,3.78125 c 0,0.109375 0.109375,0.203125 0.203125,0.203125 0.171875,0 1.765625,-1.53125 1.765625,-3.90625 z m 0,0"
           id="path136" />
      </g>
    </g>
    <g
       fill="#000000"
       fill-opacity="1"
       id="g86"
       transform="matrix(1.33333,0,0,1.33333,509.41769,396.93923)">
      <g
         id="use84"
         transform="translate(106.667,15.479)">
        <path
           d="m 13.609375,-4.75 c 0.359375,0 0.71875,0 0.71875,-0.421875 0,-0.40625 -0.359375,-0.40625 -0.71875,-0.40625 H 2.4375 c -0.34375,0 -0.71875,0 -0.71875,0.40625 0,0.421875 0.375,0.421875 0.71875,0.421875 z m 0,0"
           id="path140" />
      </g>
    </g>
    <g
       clip-path="url(#clipPath2664)"
       id="g94"
       transform="matrix(1.33333,0,0,1.33333,509.41769,396.93923)">
      <g
         fill="#000000"
         fill-opacity="1"
         id="g92">
        <g
           id="use88"
           transform="translate(122.738,15.479)">
          <path
             d="m 5.5,-13.203125 c 0,-0.4375 -0.03125,-0.453125 -0.3125,-0.453125 C 4.375,-12.6875 3.15625,-12.375 2,-12.328125 c -0.0625,0 -0.15625,0 -0.1875,0.03125 -0.015625,0.04687 -0.015625,0.09375 -0.015625,0.515625 0.640625,0 1.71875,-0.109375 2.546875,-0.609375 v 10.875 c 0,0.734375 -0.046875,0.984375 -1.828125,0.984375 H 1.90625 V 0 C 2.890625,-0.015625 3.921875,-0.046875 4.921875,-0.046875 5.90625,-0.046875 6.9375,-0.015625 7.9375,0 V -0.53125 H 7.3125 C 5.53125,-0.53125 5.5,-0.765625 5.5,-1.515625 Z m 0,0"
             id="path144" />
        </g>
        <g
           id="use90"
           transform="translate(132.21382,15.479)">
          <path
             d="m 5.4375,-5.140625 c 0,-1.484375 -0.15625,-4.015625 -1.390625,-6.671875 -0.984375,-2.15625 -2.6875,-3.65625 -2.9375,-3.65625 -0.0625,0 -0.140625,0.01563 -0.140625,0.125 0,0.03125 0.015625,0.0625 0.046875,0.09375 C 2,-14.21875 4.53125,-11.59375 4.53125,-5.171875 4.53125,1.28125 2.03125,3.90625 1.015625,4.9375 0.984375,4.984375 0.96875,5 0.96875,5.046875 c 0,0.09375 0.078125,0.125 0.140625,0.125 0.234375,0 1.984375,-1.53125 3,-3.8125 1.03125,-2.28125 1.328125,-4.515625 1.328125,-6.5 z m 0,0"
             id="path148" />
        </g>
      </g>
    </g>
  </g>
</svg>
