<?xml version="1.0" encoding="UTF-8" standalone="no"?>
<!-- Created with Inkscape (http://www.inkscape.org/) -->

<svg
   width="210mm"
   height="297mm"
   viewBox="0 0 210 297"
   version="1.1"
   id="svg5"
   inkscape:version="1.2.2 (b0a8486541, 2022-12-01)"
   sodipodi:docname="path_distance.svg"
   xmlns:inkscape="http://www.inkscape.org/namespaces/inkscape"
   xmlns:sodipodi="http://sodipodi.sourceforge.net/DTD/sodipodi-0.dtd"
   xmlns="http://www.w3.org/2000/svg"
   xmlns:svg="http://www.w3.org/2000/svg">
  <sodipodi:namedview
     id="namedview7"
     pagecolor="#ffffff"
     bordercolor="#000000"
     borderopacity="0.25"
     inkscape:showpageshadow="2"
     inkscape:pageopacity="0.0"
     inkscape:pagecheckerboard="0"
     inkscape:deskcolor="#d1d1d1"
     inkscape:document-units="mm"
     showgrid="false"
     inkscape:zoom="1.9494058"
     inkscape:cx="381.39828"
     inkscape:cy="286.24108"
     inkscape:window-width="1888"
     inkscape:window-height="1008"
     inkscape:window-x="13"
     inkscape:window-y="53"
     inkscape:window-maximized="1"
     inkscape:current-layer="layer1" />
  <defs
     id="defs2">
    <inkscape:path-effect
       effect="spiro"
       id="path-effect792"
       is_visible="true"
       lpeversion="1" />
    <inkscape:path-effect
       effect="spiro"
       id="path-effect792-3"
       is_visible="true"
       lpeversion="1" />
    <clipPath
       id="clipPath7503">
      <path
         clip-rule="nonzero"
         d="m 47,0 h 5 v 20.664062 h -5 z m 0,0"
         id="path7" />
    </clipPath>
    <clipPath
       id="clipPath1678">
      <path
         clip-rule="nonzero"
         d="m 64,0 h 5 v 20.664062 h -5 z m 0,0"
         id="path1522" />
    </clipPath>
    <clipPath
       id="clipPath3237">
      <path
         clip-rule="nonzero"
         d="m 90,0 h 5 v 20.664062 h -5 z m 0,0"
         id="path9590" />
    </clipPath>
    <clipPath
       id="clipPath4246">
      <path
         clip-rule="nonzero"
         d="m 105,0 h 5 v 20.664062 h -5 z m 0,0"
         id="path1108" />
    </clipPath>
    <clipPath
       id="clipPath8050">
      <path
         clip-rule="nonzero"
         d="m 156,0 h 9 v 20.664062 h -9 z m 0,0"
         id="path5418" />
    </clipPath>
  </defs>
  <g
     inkscape:label="Layer 1"
     inkscape:groupmode="layer"
     id="layer1">
    <path
       style="fill:none;fill-opacity:1;stroke:#000000;stroke-width:0.499999;stroke-dasharray:none;stroke-opacity:1"
       d="M 156.54285,57.859607 C 150.23183,41.825106 127.0119,31.142806 110.20443,34.943248 94.761963,38.435043 94.236752,51.375609 78.823234,54.99307 61.193692,59.130619 48.970392,43.386578 31.747837,48.98155 18.110893,53.41169 8.3929483,72.666644 11.140291,86.739472 c 3.186691,16.323318 22.00243,32.265528 38.620175,31.590078 14.820736,-0.6024 27.534522,11.83873 42.160229,9.36774 19.584145,-3.30871 25.610445,-7.76603 43.991625,-15.29054 17.99038,-7.36453 27.75008,-36.458417 20.63053,-54.547143 z"
       id="path1392"
       sodipodi:nodetypes="sssssssss" />
    <path
       style="fill:none;fill-opacity:1;stroke:#000000;stroke-width:0.499999;stroke-dasharray:none;stroke-opacity:1"
       d="m 133.4483,51.681784 c 0,0 -7.49528,20.603239 -15.33708,27.641505 C 104.41977,91.611801 85.592399,102.13475 67.247341,100.74838 52.11451,99.60476 27.529207,92.1196 28.422362,76.969923 28.947517,68.062252 44.895163,61.507052 52.735265,65.767944 c 11.274567,6.127434 7.297184,24.454784 24.615226,27.403778 9.779805,1.66535 0,0 35.260179,-1.5 C 122.61136,91.246284 103.91767,80.56505 89.677239,74.45325 80.686992,70.594756 52.962442,86.14743 52.962442,86.14743"
       id="path1394"
       sodipodi:nodetypes="csssssssc" />
    <path
       style="fill:none;fill-opacity:1;stroke:#000000;stroke-width:0.499999;stroke-dasharray:none;stroke-opacity:1"
       d="m 31.747835,48.98155 5.767308,17.593355"
       id="path1396" />
    <circle
       style="fill:#000000;fill-opacity:1;stroke:none;stroke-width:0.143488;stroke-dasharray:none;stroke-opacity:1"
       id="path1398"
       cx="31.747835"
       cy="48.981548"
       r="1.5" />
    <circle
       style="fill:#000000;fill-opacity:1;stroke:none;stroke-width:0.143488;stroke-dasharray:none;stroke-opacity:1"
       id="path1398-6"
       cx="37.515144"
       cy="66.574905"
       r="1.5" />
    <circle
       style="fill:#000000;fill-opacity:1;stroke:none;stroke-width:0.143488;stroke-dasharray:none;stroke-opacity:1"
       id="path1398-0"
       cx="133.4483"
       cy="51.681786"
       r="1.5" />
    <circle
       style="fill:#000000;fill-opacity:1;stroke:none;stroke-width:0.143488;stroke-dasharray:none;stroke-opacity:1"
       id="path1398-62"
       cx="52.96244"
       cy="86.14743"
       r="1.5" />
    <g
       fill="#000000"
       fill-opacity="1"
       id="g54"
       transform="matrix(0.352778,0,0,0.352778,35.9118,54.180771)">
      <g
         id="use52"
         transform="translate(0,15.497)">
        <path
           d="m 8.03125,-8.453125 c -0.640625,0.125 -0.96875,0.578125 -0.96875,1.03125 0,0.5 0.390625,0.671875 0.6875,0.671875 0.578125,0 1.046875,-0.5 1.046875,-1.125 0,-0.65625 -0.640625,-1.234375 -1.671875,-1.234375 -0.828125,0 -1.78125,0.375 -2.640625,1.625 -0.140625,-1.09375 -0.96875,-1.625 -1.796875,-1.625 -0.8125,0 -1.21875,0.625 -1.46875,1.078125 -0.34375,0.734375 -0.65625,1.984375 -0.65625,2.078125 0,0.09375 0.078125,0.1875 0.21875,0.1875 0.171875,0 0.1875,-0.015625 0.3125,-0.5 0.3125,-1.234375 0.703125,-2.4375 1.53125,-2.4375 0.5,0 0.640625,0.359375 0.640625,0.953125 0,0.453125 -0.203125,1.265625 -0.359375,1.90625 l -0.578125,2.234375 c -0.078125,0.390625 -0.296875,1.3125 -0.40625,1.6875 -0.140625,0.53125 -0.375,1.515625 -0.375,1.609375 0,0.296875 0.234375,0.515625 0.546875,0.515625 0.21875,0 0.609375,-0.140625 0.734375,-0.546875 C 2.890625,-0.515625 3.65625,-3.640625 3.78125,-4.109375 3.890625,-4.5625 4,-5 4.109375,-5.453125 4.1875,-5.75 4.28125,-6.078125 4.34375,-6.34375 4.40625,-6.53125 4.953125,-7.546875 5.46875,-8 c 0.25,-0.21875 0.796875,-0.703125 1.640625,-0.703125 0.328125,0 0.65625,0.0625 0.921875,0.25 z m 0,0"
           id="path122" />
      </g>
    </g>
    <g
       fill="#000000"
       fill-opacity="1"
       id="g58"
       transform="matrix(0.352778,0,0,0.352778,124.19326,71.709191)">
      <g
         id="use56"
         transform="translate(15.916324,15.497)">
        <path
           d="M 7.8125,-2.515625 C 7.765625,-3.53125 7.71875,-5.125 6.9375,-6.984375 c -0.40625,-1.03125 -1.109375,-2.125 -2.625,-2.125 -2.53125,0 -3.921875,3.25 -3.921875,3.78125 0,0.1875 0.140625,0.1875 0.203125,0.1875 0.1875,0 0.1875,-0.046875 0.296875,-0.3125 0.4375,-1.28125 1.75,-2.296875 3.171875,-2.296875 2.875,0 3.296875,3.203125 3.296875,5.25 0,1.296875 -0.15625,1.734375 -0.28125,2.15625 -0.390625,1.265625 -1.0625,3.828125 -1.0625,4.40625 0,0.171875 0.0625,0.359375 0.21875,0.359375 0.3125,0 0.5,-0.6875 0.734375,-1.515625 0.484375,-1.8125 0.609375,-2.71875 0.71875,-3.546875 0.0625,-0.5 1.234375,-3.90625 2.875,-7.140625 0.140625,-0.34375 0.421875,-0.890625 0.421875,-0.953125 0,-0.03125 -0.01563,-0.171875 -0.203125,-0.171875 -0.04687,0 -0.140625,0 -0.1875,0.09375 -0.03125,0.03125 -0.765625,1.4375 -1.375,2.84375 -0.3125,0.703125 -0.734375,1.625 -1.40625,3.453125 z m 0,0"
           id="path126" />
      </g>
    </g>
    <g
       id="g1702"
       transform="translate(82.766622,26.539397)">
      <g
         fill="#000000"
         fill-opacity="1"
         id="g62"
         transform="matrix(0.352778,0,0,0.352778,40.131743,26.632423)">
        <g
           id="use60"
           transform="translate(33.766659,15.497)">
          <path
             d="M 7.8125,-2.515625 C 7.765625,-3.53125 7.71875,-5.125 6.9375,-6.984375 c -0.40625,-1.03125 -1.109375,-2.125 -2.625,-2.125 -2.53125,0 -3.921875,3.25 -3.921875,3.78125 0,0.1875 0.140625,0.1875 0.203125,0.1875 0.1875,0 0.1875,-0.046875 0.296875,-0.3125 0.4375,-1.28125 1.75,-2.296875 3.171875,-2.296875 2.875,0 3.296875,3.203125 3.296875,5.25 0,1.296875 -0.15625,1.734375 -0.28125,2.15625 -0.390625,1.265625 -1.0625,3.828125 -1.0625,4.40625 0,0.171875 0.0625,0.359375 0.21875,0.359375 0.3125,0 0.5,-0.6875 0.734375,-1.515625 0.484375,-1.8125 0.609375,-2.71875 0.71875,-3.546875 0.0625,-0.5 1.234375,-3.90625 2.875,-7.140625 0.140625,-0.34375 0.421875,-0.890625 0.421875,-0.953125 0,-0.03125 -0.01563,-0.171875 -0.203125,-0.171875 -0.04687,0 -0.140625,0 -0.1875,0.09375 -0.03125,0.03125 -0.765625,1.4375 -1.375,2.84375 -0.3125,0.703125 -0.734375,1.625 -1.40625,3.453125 z m 0,0"
             id="path130" />
        </g>
      </g>
      <g
         clip-path="url(#clipPath7503)"
         id="g68"
         transform="matrix(0.352778,0,0,0.352778,40.131743,26.632423)">
        <g
           fill="#000000"
           fill-opacity="1"
           id="g66">
          <g
             id="use64"
             transform="translate(45.390999,15.497)">
            <path
               d="m 6.328125,5.046875 c 0,-0.03125 0,-0.0625 -0.0625,-0.125 -0.953125,-0.96875 -3.5,-3.625 -3.5,-10.0625 0,-6.453125 2.5,-9.078125 3.515625,-10.109375 0,-0.01563 0.046875,-0.0625 0.046875,-0.125 0,-0.0625 -0.0625,-0.09375 -0.15625,-0.09375 -0.21875,0 -1.984375,1.53125 -2.984375,3.796875 -1.046875,2.296875 -1.328125,4.53125 -1.328125,6.5 0,1.5 0.140625,4.015625 1.390625,6.6875 0.984375,2.140625 2.671875,3.65625 2.921875,3.65625 0.109375,0 0.15625,-0.046875 0.15625,-0.125 z m 0,0"
               id="path134" />
          </g>
        </g>
      </g>
      <g
         fill="#000000"
         fill-opacity="1"
         id="g72"
         transform="matrix(0.352778,0,0,0.352778,40.131743,26.632423)">
        <g
           id="use70"
           transform="translate(52.709,15.497)">
          <path
             d="m 6.21875,-2.453125 c -0.109375,0.34375 -0.109375,0.390625 -0.390625,0.78125 -0.453125,0.578125 -1.359375,1.46875 -2.34375,1.46875 -0.84375,0 -1.3125,-0.765625 -1.3125,-1.984375 0,-1.140625 0.640625,-3.453125 1.03125,-4.3125 C 3.90625,-7.953125 4.875,-8.703125 5.6875,-8.703125 c 1.359375,0 1.625,1.703125 1.625,1.859375 0,0.03125 -0.0625,0.296875 -0.078125,0.34375 z M 7.546875,-7.75 C 7.3125,-8.28125 6.75,-9.109375 5.6875,-9.109375 c -2.34375,0 -4.859375,3.015625 -4.859375,6.078125 0,2.046875 1.203125,3.234375 2.59375,3.234375 1.140625,0 2.109375,-0.890625 2.6875,-1.5625 0.21875,1.21875 1.1875,1.5625 1.796875,1.5625 0.625,0 1.125,-0.375 1.5,-1.109375 0.328125,-0.703125 0.609375,-1.96875 0.609375,-2.046875 0,-0.109375 -0.078125,-0.1875 -0.203125,-0.1875 -0.1875,0 -0.203125,0.109375 -0.296875,0.40625 -0.296875,1.21875 -0.703125,2.53125 -1.546875,2.53125 -0.59375,0 -0.640625,-0.546875 -0.640625,-0.953125 0,-0.46875 0.0625,-0.703125 0.25,-1.515625 0.140625,-0.515625 0.25,-0.96875 0.421875,-1.5625 0.765625,-3.09375 0.9375,-3.84375 0.9375,-3.96875 0,-0.28125 -0.21875,-0.515625 -0.53125,-0.515625 C 7.75,-8.71875 7.578125,-8 7.546875,-7.75 Z m 0,0"
             id="path138" />
        </g>
      </g>
      <g
         clip-path="url(#clipPath1678)"
         id="g78"
         transform="matrix(0.352778,0,0,0.352778,40.131743,26.632423)">
        <g
           fill="#000000"
           fill-opacity="1"
           id="g76">
          <g
             id="use74"
             transform="translate(63.328999,15.497)">
            <path
               d="m 5.4375,-5.140625 c 0,-1.484375 -0.15625,-4.015625 -1.390625,-6.671875 -0.984375,-2.15625 -2.6875,-3.65625 -2.9375,-3.65625 -0.0625,0 -0.140625,0.01563 -0.140625,0.125 0,0.03125 0.015625,0.0625 0.046875,0.09375 C 2,-14.21875 4.53125,-11.59375 4.53125,-5.171875 4.53125,1.28125 2.03125,3.90625 1.015625,4.9375 0.984375,4.984375 0.96875,5 0.96875,5.046875 c 0,0.09375 0.078125,0.125 0.140625,0.125 0.234375,0 1.984375,-1.53125 3,-3.8125 1.03125,-2.28125 1.328125,-4.515625 1.328125,-6.5 z m 0,0"
               id="path142" />
          </g>
        </g>
      </g>
    </g>
    <g
       id="g1731"
       transform="translate(-27.425317,50.725181)">
      <g
         fill="#000000"
         fill-opacity="1"
         id="g82"
         transform="matrix(0.352778,0,0,0.352778,40.131743,26.632423)">
        <g
           id="use80"
           transform="translate(76.884003,15.497)">
          <path
             d="M 7.8125,-2.515625 C 7.765625,-3.53125 7.71875,-5.125 6.9375,-6.984375 c -0.40625,-1.03125 -1.109375,-2.125 -2.625,-2.125 -2.53125,0 -3.921875,3.25 -3.921875,3.78125 0,0.1875 0.140625,0.1875 0.203125,0.1875 0.1875,0 0.1875,-0.046875 0.296875,-0.3125 0.4375,-1.28125 1.75,-2.296875 3.171875,-2.296875 2.875,0 3.296875,3.203125 3.296875,5.25 0,1.296875 -0.15625,1.734375 -0.28125,2.15625 -0.390625,1.265625 -1.0625,3.828125 -1.0625,4.40625 0,0.171875 0.0625,0.359375 0.21875,0.359375 0.3125,0 0.5,-0.6875 0.734375,-1.515625 0.484375,-1.8125 0.609375,-2.71875 0.71875,-3.546875 0.0625,-0.5 1.234375,-3.90625 2.875,-7.140625 0.140625,-0.34375 0.421875,-0.890625 0.421875,-0.953125 0,-0.03125 -0.01563,-0.171875 -0.203125,-0.171875 -0.04687,0 -0.140625,0 -0.1875,0.09375 -0.03125,0.03125 -0.765625,1.4375 -1.375,2.84375 -0.3125,0.703125 -0.734375,1.625 -1.40625,3.453125 z m 0,0"
             id="path146" />
        </g>
      </g>
      <g
         clip-path="url(#clipPath3237)"
         id="g88"
         transform="matrix(0.352778,0,0,0.352778,40.131743,26.632423)">
        <g
           fill="#000000"
           fill-opacity="1"
           id="g86">
          <g
             id="use84"
             transform="translate(88.501999,15.497)">
            <path
               d="m 6.328125,5.046875 c 0,-0.03125 0,-0.0625 -0.0625,-0.125 -0.953125,-0.96875 -3.5,-3.625 -3.5,-10.0625 0,-6.453125 2.5,-9.078125 3.515625,-10.109375 0,-0.01563 0.046875,-0.0625 0.046875,-0.125 0,-0.0625 -0.0625,-0.09375 -0.15625,-0.09375 -0.21875,0 -1.984375,1.53125 -2.984375,3.796875 -1.046875,2.296875 -1.328125,4.53125 -1.328125,6.5 0,1.5 0.140625,4.015625 1.390625,6.6875 0.984375,2.140625 2.671875,3.65625 2.921875,3.65625 0.109375,0 0.15625,-0.046875 0.15625,-0.125 z m 0,0"
               id="path150" />
          </g>
        </g>
      </g>
      <g
         fill="#000000"
         fill-opacity="1"
         id="g92"
         transform="matrix(0.352778,0,0,0.352778,40.131743,26.632423)">
        <g
           id="use90"
           transform="translate(95.82,15.497)">
          <path
             d="m 4.765625,-13.8125 c 0.03125,-0.09375 0.0625,-0.21875 0.0625,-0.3125 0,-0.203125 -0.203125,-0.203125 -0.25,-0.203125 -0.015625,0 -0.75,0.04687 -1.125,0.09375 -0.359375,0.01563 -0.671875,0.0625 -1.03125,0.07813 -0.5,0.04687 -0.640625,0.0625 -0.640625,0.4375 0,0.203125 0.203125,0.203125 0.40625,0.203125 1.0625,0 1.0625,0.1875 1.0625,0.40625 C 3.25,-12.96875 3.078125,-12.375 3,-12 l -0.5,1.984375 C 2.296875,-9.1875 1.109375,-4.5 1.03125,-4.125 0.921875,-3.609375 0.921875,-3.265625 0.921875,-3 c 0,2.109375 1.1875,3.203125 2.53125,3.203125 2.390625,0 4.875,-3.078125 4.875,-6.0625 0,-1.90625 -1.078125,-3.25 -2.625,-3.25 -1.078125,0 -2.046875,0.890625 -2.4375,1.296875 z M 3.46875,-0.203125 c -0.65625,0 -1.375,-0.5 -1.375,-2.109375 0,-0.6875 0.046875,-1.078125 0.421875,-2.515625 C 2.578125,-5.109375 2.90625,-6.421875 3,-6.6875 c 0.03125,-0.171875 1.25,-2.015625 2.65625,-2.015625 0.90625,0 1.328125,0.921875 1.328125,1.984375 0,1 -0.578125,3.328125 -1.09375,4.40625 C 5.375,-1.203125 4.421875,-0.203125 3.46875,-0.203125 Z m 0,0"
             id="path154" />
        </g>
      </g>
      <g
         clip-path="url(#clipPath4246)"
         id="g98"
         transform="matrix(0.352778,0,0,0.352778,40.131743,26.632423)">
        <g
           fill="#000000"
           fill-opacity="1"
           id="g96">
          <g
             id="use94"
             transform="translate(104.422,15.497)">
            <path
               d="m 5.4375,-5.140625 c 0,-1.484375 -0.15625,-4.015625 -1.390625,-6.671875 -0.984375,-2.15625 -2.6875,-3.65625 -2.9375,-3.65625 -0.0625,0 -0.140625,0.01563 -0.140625,0.125 0,0.03125 0.015625,0.0625 0.046875,0.09375 C 2,-14.21875 4.53125,-11.59375 4.53125,-5.171875 4.53125,1.28125 2.03125,3.90625 1.015625,4.9375 0.984375,4.984375 0.96875,5 0.96875,5.046875 c 0,0.09375 0.078125,0.125 0.140625,0.125 0.234375,0 1.984375,-1.53125 3,-3.8125 1.03125,-2.28125 1.328125,-4.515625 1.328125,-6.5 z m 0,0"
               id="path158" />
          </g>
        </g>
      </g>
    </g>
    <g
       fill="#000000"
       fill-opacity="1"
       id="g102"
       transform="matrix(0.352778,0,0,0.352778,67.310773,38.76404)">
      <g
         id="use100"
         transform="translate(117.977,15.497)">
        <path
           d="m 10.453125,-4.75 c -0.71875,2.890625 -3.125,4.578125 -5.0625,4.578125 -1.484375,0 -2.5,-0.984375 -2.5,-2.703125 0,-0.078125 0,-0.703125 0.234375,-1.609375 l 2.015625,-8.109375 c 0.1875,-0.703125 0.234375,-0.921875 1.703125,-0.921875 0.359375,0 0.578125,0 0.578125,-0.359375 0,-0.234375 -0.1875,-0.234375 -0.3125,-0.234375 -0.375,0 -0.8125,0.04687 -1.203125,0.04687 h -2.4375 c -0.390625,0 -0.828125,-0.04687 -1.21875,-0.04687 -0.140625,0 -0.390625,0 -0.390625,0.390625 0,0.203125 0.140625,0.203125 0.53125,0.203125 1.25,0 1.25,0.171875 1.25,0.40625 0,0.109375 -0.15625,0.71875 -0.25,1.0625 L 1.59375,-4.8125 c -0.0625,0.234375 -0.1875,0.78125 -0.1875,1.34375 0,2.265625 1.625,3.90625 3.875,3.90625 2.09375,0 4.40625,-1.65625 5.453125,-4.28125 0.15625,-0.34375 0.34375,-1.078125 0.46875,-1.625 0.203125,-0.75 0.640625,-2.5625 0.78125,-3.109375 l 0.78125,-3.09375 c 0.265625,-1.078125 0.4375,-1.75 2.25,-1.84375 0.171875,-0.01563 0.25,-0.171875 0.25,-0.359375 0,-0.234375 -0.1875,-0.234375 -0.265625,-0.234375 -0.296875,0 -0.671875,0.04687 -0.953125,0.04687 h -0.96875 c -1.28125,0 -1.9375,-0.04687 -1.96875,-0.04687 -0.125,0 -0.375,0 -0.375,0.390625 0,0.203125 0.171875,0.203125 0.3125,0.203125 1.25,0.04687 1.328125,0.515625 1.328125,0.890625 0,0.1875 0,0.25 -0.07813,0.546875 z m 0,0"
           id="path162" />
      </g>
    </g>
    <g
       id="g1743"
       transform="translate(69.304721)">
      <g
         fill="#000000"
         fill-opacity="1"
         id="g106"
         transform="matrix(0.352778,0,0,0.352778,40.131743,26.632423)">
        <g
           id="use104"
           transform="translate(140.114,15.497)">
          <path
             d="m 13.578125,-13.859375 c 0,-0.359375 0,-0.6875 -0.359375,-0.6875 -0.01563,0 -0.328125,0 -0.375,0.375 -0.0625,0.578125 -0.53125,0.578125 -0.671875,0.578125 -0.734375,0 -1.453125,-0.3125 -1.859375,-0.5 -1.0625,-0.453125 -1.953125,-0.453125 -2.28125,-0.453125 -3.453125,0 -7.265625,2.171875 -7.265625,7.46875 0,5.265625 3.734375,7.46875 7.3125,7.46875 1.09375,0 2.5625,-0.21875 4.0625,-1.140625 0.953125,-0.59375 2.015625,-1.625 2.015625,-1.921875 0,-0.28125 -0.3125,-0.40625 -0.4375,-0.40625 -0.140625,0 -0.234375,0.0625 -0.4375,0.296875 -1.203125,1.359375 -3.03125,2.1875 -4.875,2.1875 -3.203125,0 -4,-3.25 -4,-6.453125 0,-4.0625 1.484375,-6.765625 3.6875,-6.765625 1.546875,0 4.03125,1.5 4.734375,3.6875 0.0625,0.1875 0.125,0.390625 0.390625,0.390625 0.359375,0 0.359375,-0.328125 0.359375,-0.671875 z m -0.734375,2.125 c -0.25,-0.34375 -0.515625,-0.625 -1.03125,-1.15625 0.109375,0.01563 0.265625,0.01563 0.375,0.01563 0.234375,0 0.5,-0.03125 0.65625,-0.140625 z M 5.515625,-13.34375 c -0.46875,0.46875 -1.84375,2.25 -1.84375,6.296875 0,2.046875 0.3125,4.90625 2.171875,6.390625 C 2.453125,-1.75 1.484375,-4.546875 1.484375,-7.0625 c 0,-3.796875 2.09375,-5.640625 4.03125,-6.296875 z m 0,0"
             id="path166" />
        </g>
      </g>
      <g
         clip-path="url(#clipPath8050)"
         id="g112"
         transform="matrix(0.352778,0,0,0.352778,40.131743,26.632423)">
        <g
           fill="#000000"
           fill-opacity="1"
           id="g110">
          <g
             id="use108"
             transform="translate(155.037,15.497)">
            <path
               d="m 8.28125,4.671875 c 0.109375,0.28125 0.203125,0.5 0.484375,0.5 0.21875,0 0.40625,-0.1875 0.40625,-0.421875 0,-0.046875 0,-0.078125 -0.109375,-0.328125 L 2,-15 c -0.125,-0.34375 -0.1875,-0.5 -0.453125,-0.5 -0.21875,0 -0.40625,0.1875 -0.40625,0.421875 0,0.04687 0,0.07813 0.09375,0.328125 z m 0,0"
               id="path170" />
          </g>
        </g>
      </g>
      <g
         fill="#000000"
         fill-opacity="1"
         id="g116"
         transform="matrix(0.352778,0,0,0.352778,40.131743,26.632423)">
        <g
           id="use114"
           transform="translate(165.368,15.497)">
          <path
             d="m 10.453125,-4.75 c -0.71875,2.890625 -3.125,4.578125 -5.0625,4.578125 -1.484375,0 -2.5,-0.984375 -2.5,-2.703125 0,-0.078125 0,-0.703125 0.234375,-1.609375 l 2.015625,-8.109375 c 0.1875,-0.703125 0.234375,-0.921875 1.703125,-0.921875 0.359375,0 0.578125,0 0.578125,-0.359375 0,-0.234375 -0.1875,-0.234375 -0.3125,-0.234375 -0.375,0 -0.8125,0.04687 -1.203125,0.04687 h -2.4375 c -0.390625,0 -0.828125,-0.04687 -1.21875,-0.04687 -0.140625,0 -0.390625,0 -0.390625,0.390625 0,0.203125 0.140625,0.203125 0.53125,0.203125 1.25,0 1.25,0.171875 1.25,0.40625 0,0.109375 -0.15625,0.71875 -0.25,1.0625 L 1.59375,-4.8125 c -0.0625,0.234375 -0.1875,0.78125 -0.1875,1.34375 0,2.265625 1.625,3.90625 3.875,3.90625 2.09375,0 4.40625,-1.65625 5.453125,-4.28125 0.15625,-0.34375 0.34375,-1.078125 0.46875,-1.625 0.203125,-0.75 0.640625,-2.5625 0.78125,-3.109375 l 0.78125,-3.09375 c 0.265625,-1.078125 0.4375,-1.75 2.25,-1.84375 0.171875,-0.01563 0.25,-0.171875 0.25,-0.359375 0,-0.234375 -0.1875,-0.234375 -0.265625,-0.234375 -0.296875,0 -0.671875,0.04687 -0.953125,0.04687 h -0.96875 c -1.28125,0 -1.9375,-0.04687 -1.96875,-0.04687 -0.125,0 -0.375,0 -0.375,0.390625 0,0.203125 0.171875,0.203125 0.3125,0.203125 1.25,0.04687 1.328125,0.515625 1.328125,0.890625 0,0.1875 0,0.25 -0.07813,0.546875 z m 0,0"
             id="path174" />
        </g>
      </g>
    </g>
  </g>
</svg>
